<svg xmlns="http://www.w3.org/2000/svg" viewBox="0 0 178.58 249.45"><defs><style>.cls-1{fill:#fff;}.cls-2{fill:#e2cf00;}.cls-3{fill:#d40000;}.cls-4{fill:#131f67;}</style></defs><g id="Layer_2" data-name="Layer 2"><g id="svg8"><g id="g4922"><path id="rect6355-6-85-3-64-3-5" class="cls-1" d="M8.54,0H170a8.53,8.53,0,0,1,8.54,8.53V240.92a8.53,8.53,0,0,1-8.54,8.53H8.54A8.53,8.53,0,0,1,0,240.92V8.53A8.53,8.53,0,0,1,8.54,0Z"/><path id="path147-6-9-8-7-0-5-6-9-6-3" d="M164.81,209.47c3.14-.07,4.55-3.75,2.22-6.61-.33-.42-.37-.65.25-.25,1.57,1.09,4.57.37,4.72-3,.19-4.11-5.32-5.29-6.35-.93-.06.46-.42.45-.33-.2a13.8,13.8,0,0,1,1.36-5.05h-3.74a14,14,0,0,1,1.36,5.05c.09.65-.27.66-.33.2-1-4.36-6.55-3.18-6.36.93.16,3.33,3.16,4,4.73,3,.62-.4.58-.17.24.25-2.32,2.86-.91,6.54,2.23,6.61Z"/><path id="path147-6-9-8-7-4-5-62-08-0-2" d="M13.77,40c-3.14.07-4.55,3.75-2.22,6.61.34.41.37.65-.25.25-1.56-1.09-4.57-.37-4.72,3-.19,4.11,5.32,5.29,6.36.92.05-.46.41-.45.33.21a14.21,14.21,0,0,1-1.36,5h3.73a14.21,14.21,0,0,1-1.36-5c-.08-.66.28-.67.33-.21,1,4.37,6.55,3.19,6.36-.92-.15-3.33-3.16-4-4.73-3-.61.4-.58.16-.24-.25,2.33-2.86.92-6.54-2.22-6.61h0Z"/><path id="path39-7-2-1" d="M14.41,34.56h2.66l-3.9-9.75-3,4.12,0,5.63H12.3v2.91H4.92V34.56H7.35v-21H4.92V11.07h7.49v2.62H10.34l0,10.22,6.53-10.3H14.52V11.07h8v2.54h-2.1L15,22l5.26,12.54h2.34v2.9H14.44l0-2.91Z"/><path id="path39-3-8-1-1" d="M164.17,214.89h-2.66l3.91,9.74,3-4.11,0-5.63h-2.1V212h7.38v2.91h-2.43v21h2.43v2.54h-7.49v-2.63h2.07l0-10.21-6.53,10.3h2.31v2.54h-8v-2.54h2.1l5.38-8.42-5.26-12.54H156V212h8.19l0,2.91Z"/><g id="g5429-3-1-8"><g id="layer1-6-4-4-1"><g id="KC-7-1-9"><g id="g3440-6-4-8"><g id="g3454-7-1-1"><path id="path3450-5-0-3" class="cls-2" d="M128.77,20.76l-65.66.32L71.45,37c17.07-1.55,32-.17,47.6.34Zm-44.84,56c-.07.09-2.73.79-2.46,1.4,7,15,10.06,27.21,13,42.63a6.74,6.74,0,0,1,3.84-1.15c-1.17-5.73,6-6.44,6-.45,1.38.32,2.79.33,4,1.72C108.9,104,115.25,86.16,123,74.08c-8.83,3.52-22.14,12.75-22.14,12.75S90.08,82.34,83.93,76.74Zm53.67,1.8c-11.75,11.24-16,41.44-15.51,42.88-15.15-.51-19.74,16.32-6.61,25.39-.52,1.76-1.8,3.19-2.79,4.75a10.55,10.55,0,0,0,4.31,1.11c1.12,1.34,2.22,2.89,3.44,3a22.6,22.6,0,0,0,3.36-3.12,24.15,24.15,0,0,0,4-1.35c-1.15-1.62-2.52-3.26-2.55-4.78,11.41-8.11,9.85-19.14-.45-24.78C126.36,102.27,132,91,137.56,82.77ZM56.67,92.89c-1.5.73-2.31,2.28-3.39,3.49a12,12,0,0,0-4.34,1.22s3.41,4.74,3.19,5c-11,7.28-11,17.94-.35,25,1.8,15.16-11,39.15-11.63,38.46l0,5c9.1-10,14.29-28.12,14.81-42.74,18.17-1.21,18.81-18.9,6.3-25.56-1-.88,3.15-5,3.15-5-1-1-2.79-1.15-4.31-1.27A18.51,18.51,0,0,0,56.67,92.89Zm89.81,13.17c1.15,2.06,4.32,3.72,4.65-.14-.54-2.9-2.43-3.54-9.95-2.28-4.43,2-3.91-3.23-6.09-1.19C128,109.08,146.33,108.35,146.48,106.06Zm-4.26,7.47c-2.1,0-2.46,8.3-2.43,10.79-6.1,9.71,12.51,8.6,4.46-2,.35-1.09-.91-3.15-1-4.63C142.6,117.63,142.31,113.89,142.22,113.53ZM33.29,126.05c-.2,2.51,1.63,10.13,2.31,9.87,2.38-3.87,2.1-7.18,1.85-11C43.13,113.94,23.73,118.47,33.29,126.05Zm35.41,1.77C67.85,144,63.91,159.94,55,173.73c7.69-3.61,15.15-8.27,22.37-12.25L94.22,172a6.76,6.76,0,0,0,2.3-1.28c-7.77-11.46-10.18-28-13.57-42.88a11.69,11.69,0,0,1-3.71,1.38c-.17,5.18-5.56,6.86-6.66.11ZM28,140.47c-1.8.11-3.15,4.6,2,5.27,3.6.51,8.2-1.27,10.49-.45,2.66,4.27,5-2,1.49-3-3.81-1.1-11.58,1.77-12.44-.67C29,140.75,28.48,140.44,28,140.47Zm30.61,70.22L48.4,228.81l65.08-.39L105,211.14C105.12,210.94,76.55,214.56,58.58,210.69Z"/><path id="path3446-6-3-4" class="cls-3" d="M93.35,36.39a101.58,101.58,0,0,0-20.88,2.34l1.29,2.36c15.24-2.53,27.25-2.92,43,.15l1.44-2.46A132.07,132.07,0,0,0,93.35,36.39Zm-5,34.37s-1,2.28-1.51,3.49l13.3,8.68s6.37-4.54,9.09-6.46L107.59,74c-5.63,12.5-15.52,2.61-19.23-3.27Zm39.36.89-4,2.4c-9.11,13.65-15.33,30.84-14.83,53.33,3.36-3.88,7.54-6.37,13.35-6,.73-16.26,6.33-30.72,15.28-43.74Zm-1,4.93a3.06,3.06,0,0,1,1.91.56c1.5,1,1.43,3.46-.21,3.92-1.33.36-1.36.71-.2.66,2.1-.11,2.65,2.71,1.16,4.09a2.37,2.37,0,0,1-4.09-1.53c-.09-.56-.21-.55-.39-.23a5.44,5.44,0,0,0-.48,3.18l-3.09-1.93a7.89,7.89,0,0,0,2.57-1.72c.1-.11.18-.19.18-.23s-.35,0-1,.09c-1.87.2-3.3-1-2.92-2.8.33-1.5,1.1-2.16,2.4-2.19a1.84,1.84,0,0,1,1.89,1.28c.52,1.07.73.81.39-.52A2,2,0,0,1,126.72,76.58ZM35.08,89.39s-6.67,5-9.77,7.47l.15,44.82a29.26,29.26,0,0,0,3.1-2c-1.85-1.65-1.37-2.92-1.74-4.14-.83-1.29-.07-2.25-.21-3.06-.2-5.72.83-6.47,5.43-7-1,.35-3.42-7.16,3.2-7.12Zm84.15,2.5a4.56,4.56,0,1,1-4.45,4.62,4.54,4.54,0,0,1,4.45-4.62Zm0,.81A3.65,3.65,0,1,0,123,96.3,3.64,3.64,0,0,0,119.28,92.7Zm.09,1.16A2.48,2.48,0,1,1,117,96.37,2.46,2.46,0,0,1,119.37,93.86ZM29.65,95.73a1.93,1.93,0,0,1,.57.09,1.47,1.47,0,0,1,.92,2.31c-.48.74-.43.81.41.49a1.19,1.19,0,0,1,1.52.35c1.56,1.56-.77,4.18-2.29,2.59-.76-.78-.83-.55-.31.8.17.43.45,1.11.45,1.11l-2.23,0,.5-1.33c.39-1,.4-1.17-.4-.52a1.73,1.73,0,1,1-2.21-2.66c.34-.33.88-.34,1.64,0,.56.22.63.07.21-.46a1.65,1.65,0,0,1,1.22-2.7Zm89.78,0a.64.64,0,1,0,0,1.27.64.64,0,0,0,.64-.64A.64.64,0,0,0,119.43,95.78ZM75.89,99.19c-.91,6,0,15,0,19.5,2.43.47,2.46,2.13,2.83,4.21,1.18-.42,3.76,1.34,4.11,1.18.28-5.81-2.91-21.51-6.94-24.89Zm40.41,6.58c3.45.28,2.79,3,1.76,4.06-.48.57-.39.82.14.5,1.45-.89,2.61-.25,3.08,1.28.8,2.61-2.6,4.85-4.12,2.51-.51-.79-.83-.61-.7.22a11.44,11.44,0,0,0,.85,2.45l-3.38-.3s1-1.73,1.22-2.2c.37-1,.17-1.23-.55-.45-2.11,2-5-.54-3.68-3.13a2,2,0,0,1,3.26-.67c.9.6,1.1.34.29-.38C113,108.31,114.27,105.61,116.3,105.77Zm35.05,1.08c-3.79,4-2.6,1.62-.84,4.63.94,5.17-.23,5.25-.08,7.72.29,3.31-2.8,3.86-5.53,4.41.44,0,4.23,7-2.84,7.59l.08,28.7,11.09-8.24,0-44.81ZM29.93,107.9a1.71,1.71,0,0,1,.89.26,1.52,1.52,0,0,1,.55,2.23c-.31.47-.22.76.13.46a1.46,1.46,0,0,1,1.92.5c1,1.65-1,3.8-2.29,2.43-.58-.61-.8-.63-.73-.23.19.74.67,2,.67,2l-2.34,0a14.58,14.58,0,0,0,.62-2c.09-.54-.13-.46-.68.17a1.13,1.13,0,0,1-1.73.22c-1.71-1.14-.34-4.06,1.44-3.08.61.34.7.14.22-.49a1.55,1.55,0,0,1,1.21-2.51ZM68.13,122c-2.8,2.23-7.35,7.26-13.12,6a78.9,78.9,0,0,1-14.82,43.69,94.81,94.81,0,0,0,9,5.08A28.37,28.37,0,0,0,55.47,173C65.47,157.4,68.64,140.38,68.13,122Zm26.1,3.27c.56,9.2,2,17.91,6.79,24.9l.33-19.55c-1.69-.41-3.08-1.51-3.57-4.63Zm-34.3,5.43,3.17.08s-.71,1.44-1,2.25c-.37,1-.2,1.19.53.5a2.39,2.39,0,0,1,3.23-.18c2.09,2.12-.1,5.57-2.58,4-1.06-.64-1.24-.43-.39.49,1.63,1.53-.08,3.74-2,3.75a2.46,2.46,0,0,1-2.39-2.35,2.08,2.08,0,0,1,1-1.93c.69-.39.19-.65-.56-.24-2.46,1.34-4.11-2.09-2.25-4,1.07-1.13,2.2-1,3.29,0,.76.75,1,.68.82-.2a11.36,11.36,0,0,0-.85-2.23Zm85.61,2.69h2.27c-.22.57-.51,1.15-.69,1.71s-.05.69.55.1c1.57-1.06,3.24,0,2.9,1.68a1.57,1.57,0,0,1-2.31,1.22c-1-.44-.67-.25-.11.42a1.54,1.54,0,0,1-.38,2.37,1.77,1.77,0,0,1-2.57-2.32c.6-1,.32-.85-.23-.39-.83.61-2.08-.25-2.1-1.45-.09-1.72,1.63-2.69,2.84-1.47.58.49.73.43.47-.28a12.58,12.58,0,0,0-.64-1.59Zm2.5,12.49a4.14,4.14,0,0,1-.4.88c-.43.82-.36,1.66.09,1.09a1.74,1.74,0,0,1,2.9.48c.62,1.38-.58,2.9-1.83,2.32-.81-.37-.87-.29-.33.49a1.55,1.55,0,0,1-.56,2.25c-1.67,1.08-3.68-1.07-2.28-2.45.37-.36.25-.54-.2-.3-1.84,1-3.21-1.5-1.61-3,.68-.63,1.2-.59,2.32.19.34.25.41,0,.16-.62a7.19,7.19,0,0,0-.64-1.33Zm-90.78,1.53a4.84,4.84,0,1,1-4.73,4.91,4.81,4.81,0,0,1,4.73-4.91Zm.05.87a4,4,0,1,0,4,3.91A3.94,3.94,0,0,0,57.31,148.29Zm0,1.52a2.45,2.45,0,1,1-2.4,2.48,2.43,2.43,0,0,1,2.4-2.48Zm0,1.91a.64.64,0,1,0,.64.63A.64.64,0,0,0,57.39,151.72Zm-6.06,9.82,2.77,1.36s-1.31,1.08-1.84,1.63c-.66.71-.62,1.05.28.71A2.41,2.41,0,0,1,56,167.35c0,2.4-2.77,3.55-4.12,1.74-.4-.54-.88-.76-.69-.32a2.53,2.53,0,0,1-.62,3,2.71,2.71,0,0,1-2.39.27c-2-1.06-2.13-3.4-.19-4.33,1-.47,1-.91,0-.67-2,.5-3.15-1.92-1.71-3.59s4-1.41,4.28,1.21c0,.47.37.13.51-.58a16.19,16.19,0,0,0,.2-2.51Zm25.82,3.94-9.84,6.06,2.25,3.14c5-11.5,17.09-2,19,3.9a5.73,5.73,0,0,0,1,.39c0-.42.88-4.49.88-4.49Zm26,42.27c-16.61,4.27-42.9.48-42.64.18l-1.63,2.35c-.57.24,25.29,4.65,45.68.17Z"/><path id="path3444-9-5-7" class="cls-4" d="M23.69,19.13V230.32h131.2V19.13ZM128.9,20.5l-12.18,21c.12-1.1-23.67-4.5-43.11-.36L63,20.76Zm23.47.35.38,85.77.81,44.95-11.38,8.36-.17-28.8a15.49,15.49,0,0,0-2-.84.3.3,0,0,0-.08.54,10.24,10.24,0,0,0,1.45.64l.24,28.55c-9.26,6.69-20.83,11.36-29.62,15-.72-2.4-7.84-8-15.84-4a10.55,10.55,0,0,0-2.25.94c-3,.56-4.06,3.85-4.52,7,0,.13.24.1.25.11s.73-3.06,1-3.65a4.24,4.24,0,0,1,1.72-2.13c.18,0,.34.25.1.69a13.41,13.41,0,0,0-1,3.6c-.1.78-.12,1.4,0,1.43s.71-2.36,1-3.2c.8-2.19,1.31-3.1,2.08-3.57s1-.41.82.1a16.27,16.27,0,0,0-1.89,6.53c0,.49.21.5.4-.31.65-2.59,1.53-6.09,3.62-7.13.9-.41,1.29-.39,1.2-.1a14.18,14.18,0,0,0-3.09,7.83c0,.38.17.3.48-.52.85-3.12,2.1-5.78,3.58-7.09a3.33,3.33,0,0,1,1.85-.71c1.76-.22,1.82.43.29,1.33-1.74,1-3.76,4.75-4,7.55-.08,1,.26,1.07.5-.22,1-5.56,5.76-9.23,9.55-7.53,1.7.77,2,1.83.53,1.36-3-1-6.34,1.18-7.71,4.18-1.25,2.7-1.22,4.13-.35,7.75.6,3.35,1.76,7.62,1.38,10.9-.42.64-1.72-.26-3.26-.45a5.71,5.71,0,0,0-3,.16c-.85.32-1.33.4-1.49,0-.05-.15.66-.88,1-1.27a2.32,2.32,0,0,0,.33-.6,2.68,2.68,0,0,0-.82.55,8.2,8.2,0,0,1-1.29,1.17c-.45.09-.47-.41-.11-1.7,1.27-5,.93-5.09-1.24-6.1-2.14-.82-1.46-1.24-2.41-2.06-.67.53.87,2.95,2.62,3.48,1.43.43,1.25,1.16.63,3.14-.64,2.77-1.72,6.44-1.09,8.9,1.31,5.17,6.52,5.07,10.51,3l.48,1.32c-3.37,1.37-21.14,2.55-27.13,1.85a17.15,17.15,0,0,1-.7-4,31.46,31.46,0,0,0,5.55,2c2.3.36,5.86.38,6.77-1.76.27-.63,0-1.16-.81-.79a14.18,14.18,0,0,1-6,1,14,14,0,0,1-5.16-1.42,1.18,1.18,0,0,1-.52-1.63c.34-.08.79.3,1.06.44,3.06,1.56,4.78,2,6.74,1.26,1.29-.47,2.75-1.12,3-2.56-1.13.57-2.17,1.6-3.37,1.93-2.41.65-5-.35-7.48-2-.77-.67-.42-1.17.53-.63,3.74,1.9,5.31,3.16,8.89.5.8-.6,1.25-.52,1.72-.16,1.86,1.68,1.85.73.49-1a5.17,5.17,0,0,1-.78-1.54,3.16,3.16,0,0,0-.41-1.17,6.21,6.21,0,0,0-2.06-1.11,2.6,2.6,0,0,0-1.37-.25,3.5,3.5,0,0,0,.63.42c1.62.8,2.41,1.65.4,1.19a7.71,7.71,0,0,0-6.62.85c-1.36.66-2,1.38-2.27-.13-.67-3.15,0-7.42-.92-12.92-.17-1-.38-1.71-.17-1.86s1,.5,1.85,1.72c.39.56,1.17,1.63,1.17,1.41,0-1.17-1.77-3.35-3.25-4.21-.82-.47-1.37-2.66-.44-2.18a27.72,27.72,0,0,1,5.18,4.85c.33.55.61.2.26-.44A14.08,14.08,0,0,0,75.4,181c-1.51-1.49-1.69-1.42-1.4-1.73.58-.6,1.81.18,4,2.18.56.72,1.31,1.37,1.22,1,.22-.56-2-2.94-3.28-3.58a.55.55,0,0,1-.26-.61c.12-1.13,2.65.52,4.75,2.45.78.73.13-.63-.78-1.56A9.51,9.51,0,0,0,77,177.24c-.77-.32-.82-1-.21-1.29,2.1-.09,4.27,2.08,5.56,3.78.36.46.68.82.31-.06a7.92,7.92,0,0,0-5.41-4.47c-1.4-.25-1.37-1.52-.05-1.38S81,175.3,83,177.34c.58.59,1.57,1.94,1.37,1.15a7.22,7.22,0,0,0-1.34-1.87,12.09,12.09,0,0,0-5.58-3.54c-.95-.27-3.77.28-3.78-.21s.29-.58,1.19-.88c3.47-1.17,8.56,1.84,11.35,6.47.2.33.58.47.6.4-1.34-3.78-5.52-7.22-8.84-7.8-2.26-.37-4.54.21-5.62,1.75-1.22,1.73-.75,4,1.08,3.85,1-.09.89-.64.87-.66s-.62.2-1,.14a1.21,1.21,0,0,1,.71-2.31c2.11.26,2.41,3.61,0,4.31-2.17.65-3-.35-3.56-1.53-.87-1.74.06-4.55,1.6-5.62,4.29-3,9.73-.49,12.8,2.5a13.59,13.59,0,0,1,3.32,5.12c.18.44.57.39.39-.06-4.32-11.13-17.23-12.42-19.12-3.79-3.12-4.93-5.86-5.28-10.05-3.12-4.27,1.78-6.37,3.23-10.32,5.1l-8.95-4.85c-.53-9-.23-18-.19-26.95,0-.21-1.94.14-5.22.66-8.71,1.75-8-2.95-9.1-3.19-.6-.12-.56.14-.73-16.41,0-4.81-.14-13.26-.21-18.79s-.09-10.12,0-10.22a6.43,6.43,0,0,1,1.1-.92c2.12-1.52,3.32-2.44,8-6a10.79,10.79,0,0,1,1.32-.94c.53,9.94,0,20.39.31,28.94h.39l-.15-28.71c-.8-.21,18.31-11.48,28.78-15.14.2-.07.69.15.69.15,6,7.43,21.82,5.18,23.1-3.86,2.62,5.51,14.13,16.22,19.39,3.31,0,0,1.9,3.71,3.54,4,3.68.49,4.08-.09,12.17-4.05a88.91,88.91,0,0,0-15,47.27,4.46,4.46,0,0,0-4.15-1.62c0-1.73-.29-4.08-2.88-4.33s-4,3.3-3,4.78c-1.62-.68-4.06,1-4.06,1.18-.2,0-2.06,5,3.57,5.22a5.74,5.74,0,0,0,3.18,4.44l0,19.09.63.87.06-20c2.88-.13,3.24-3.46,3-4.22a5,5,0,0,0,3.42-1l.34,3.26s.68-1.15.53-1.76c-1.26-18.75,5.47-39,14.31-52.19.47-.55.62-1.21.85-1.21,2.15-1.17,3.51-2,3.51-2,3.56,1.72,9.9,5.87,9.9,5.87l.1,26.73c-.09-.27,11.82-1.34,11.65-1,0,0-1.05-.41-1.06-1.11L148,39.5l-5.22-3.44s-4.29,2.83-5.49,3.79l.14,36.81-9.24-5.45s.15-1.3.16-1.72c.39-4.26-2.58-6.69-7.25-5.22-.63.2-1.06.37-1.37.12-2-5.78-2.84-21-2.84-21L130.07,21Zm-126.82.4H61.37l12.08,21.8a4.11,4.11,0,0,1,.28,2.79,14.55,14.55,0,0,1-1.27,3c0-.46-3.48-.91-3.19,2.13A2.81,2.81,0,0,0,74,52.63c.3,0,.3.27.23.77-.17,1.18-1.41,4.92-2.27,5.17-4.33-3.59-5.88,3-3,4.26a4.57,4.57,0,0,0,5.52-1.92c.93-1.57.82-1.31,1.12.6.11.7.26,1.53.34,1.9.25,1.15,0,1.37-1.93,1.9a30.28,30.28,0,0,1-4.72,1.29A5.24,5.24,0,0,0,64.82,72c0,.59,0,.86-.12,1A137.22,137.22,0,0,0,25.55,95.69ZM143.37,37.43s2.54,1.69,3.76,2.53l0,2.72-3.67-2.42Zm-1.33.4c.78,2.5.78,7.86.48,10.25-.49,1.55-.71,8.47-.15,12a36.18,36.18,0,0,1-.06,9.67,62.38,62.38,0,0,0,.27,8.7,26.06,26.06,0,0,1-.17,7,28.78,28.78,0,0,0,.13,7,61,61,0,0,1,.33,10.46c-.54.62-4.78.71-4.49.5l-.12-63L142,37.83ZM96,41.19c3.56,0,6,.09,5.95.13a29,29,0,0,1,.61,4.12,51,51,0,0,0-4.93-2.14c-2.6-.8-6.71.08-7.43,1.59-.42.85-.2,1.42,1.55.47,2.85-1.55,8.69-.37,10.75,1.27.47.38.45.47.46.91,0,.68,0,.72-.88.21-4.91-2.53-9.1-2.23-10.55,1.09-.33-.1-1.6-.32-1.6-.32l1.36,2,.26,2.13c1.36.71,1.77.93,4.06,2a14.92,14.92,0,0,0-1.57-1.31c-1.09-.76-.22-1,.5-.71a7.37,7.37,0,0,0,6.15-.83,2.93,2.93,0,0,1,2.59.16s.23,1.86.47,5.75c.11,1.84.34,4.24.46,5.23.39,3,.5,3.15-1.06,1.72-.52-.48-1.39-1.27-1.4-1.23-.19.93,2.1,2.55,2.63,3.11.82.84,1.47,3,1.14,3.14s-2.38-1.79-4.1-3.46a15.74,15.74,0,0,0-1.63-1.44c-.35.23,1.09,1.87,2.44,3.1,1.57,1.43,1.76,1.56,1.23,1.77-1,.4-1.86-.09-4.23-2.07a7,7,0,0,0-1.18-.79c-.21.29,2,2.38,2.47,2.56.93.33,1.19,1.23.46,1.59-.48.23-2.29-.77-3.75-2a3.24,3.24,0,0,0-1-.56c-.28.19,1.34,1.6,2.89,2.54s1.76,1.15,1.37,1.92-3.69-1-5.35-2.92c-.36-.4-.64-.57-.57-.44.73,2,3.11,3.48,4.89,4.06a3.4,3.4,0,0,1,1,.4c.51.4.4.83-.15,1.06-1.89.54-4.88-1.77-7-4.2-.24-.1-.1.22,0,.32,1.78,2.87,5.19,5,7.25,4.64,1.2-.24,2.16.13,2.17.54s-.65.86-1.94,1c-2.93.21-7.49-3-10.16-7.12-.09-.12-.19-.17-.19-.09-.07.87,1.59,3,2.86,4.22,3.78,3.63,7.36,4.85,10.15,2.81,1.58-1.23,3.1-3.92.75-4.82-1.24-.47-2,1.25-1,.76,1.39-.17,1.71.58,1.53,1.28a1.64,1.64,0,0,1-2.5.89c-1.68-.92-1.32-4.05.85-4.6a3.34,3.34,0,0,1,3.88,2.78c.35,2.46-2.41,5.12-4.61,5.78-7.53,2.26-13.41-8.29-13.45-8.52-.38-.74-.83-1.13-1.12-.27-.3,1.24-2,4.86-2.91,4.84.28-1.28,1.47-3.43,1.18-5.31-.5,1.54-1.56,4.85-3.59,6.6-.52.49-2.07,1.06-1-.19,1.28-1.81,3-4.29,2.61-6.63-.34.53-.53,1.85-.92,2.73-1,2.19-3.1,4.8-4.5,5.22-1,.31-.94,0,.12-1.17s3.15-4.76,3-6.29c-.06-.67-2.09,5.85-5.91,7.63a1.68,1.68,0,0,1-1.62-.1c1.5-.87,5.65-5,5.26-9.68l-.55,1.74c-1.4,4.47-4.43,7.41-6.78,7.65-1.88.19-3.19-.57-2.73-.91a6.57,6.57,0,0,0,6-3.23c1.59-2.43,2.18-6.34,1.22-10.48a72.14,72.14,0,0,1-1.37-10.68c2.68.92,5.36,1.53,8,.51-.26,1.06-.69,1.2-1.38,2a1.34,1.34,0,0,0-.23.41,15,15,0,0,0,2.86-1.73s-.23,1.33-.8,3.53c-.84,3.28-.62,3.51,2.5,4.75a2.15,2.15,0,0,1,1,.7c.1.12.61,1.05.66,1.08s.08-1,0-1.21A2.39,2.39,0,0,0,87,60.72a6.38,6.38,0,0,0-2.07-.88c-.85-.4-1.17-.39-1-1.32.11-.61,1-4.74,1.39-6.33,1.23-4.77.07-7.42-3.42-8.49a8.32,8.32,0,0,0-6.82.94l-.44-1.35C81,41.62,90.08,41.23,96,41.19Zm47.66.05,3.42,2.33,0,3-3.44-2.3ZM103,41.36l1.51.18a65.51,65.51,0,0,1,1.18,8.09c.3,2.92.61,9,.87,11.81.38,4.15,2.24,10.8,3.4,12.48,1.88,2.73,5.66,1,4.4-2.29-.66-1.68-3.2-1.41-2.85.34,0,.31.24-.22.61-.55a1.45,1.45,0,0,1,1.69,2.12c-.8,1.77-3.17,1-4-1.27-.94-2.67,2.22-4.67,4.59-3,2.64,1.81,2.64,6.41.52,7.86-3.58,1.31-6-1.31-7.17-4a42,42,0,0,1-2.38-6.44C104.33,58.54,104.12,48.91,103,41.36Zm2.5.45,1.57.1a94,94,0,0,1,1.14,10.76c.08,5.76.79,11.85,2.13,15.83l-1.15,1.22c-2-4.57-2.12-11.77-2.56-16.65A94.14,94.14,0,0,0,105.48,41.81Zm2.26.22,1.38.15c.42,3.9,1.06,6.54,1.31,10.84.32,5.55,1.27,10.11,1.86,14.44l-1,.35c-.69.32-1.84-4.8-2.35-15.19C108.76,49.47,108.23,45.94,107.74,42Zm2.09.15,1.64.3c.73,9.86,1.88,19.12,3.09,24.43l-1.43.3C111.35,59.62,111.24,50.64,109.83,42.18Zm2.38.35,1.51.26c1.82,22.56,2.94,22.27,3.29,23.15l-1.63.67C113.61,60.13,113.25,51,112.21,42.53Zm2.16.42,1.81.18c-.06,0,1.28,18.5,2.9,21.55-.26.76-.88.69-1.55.77a34.27,34.27,0,0,1-1.5-7C115.34,53.17,115.09,48.19,114.37,43ZM80.24,44.86c2.38.11,4.35,1.19,4.54,2.77,0,.35-.23.18-.56-.07A7,7,0,0,0,77,46.5c-.62.23-1.12.58-1.39.53a.64.64,0,0,1-.14-.86c.66-1.11,3.55-1.37,4.73-1.31Zm63.48.4,3.43,2.36,0,2.56-3.66-2.46ZM74.51,46s.21,1.41.21,2c0,2.49-.55,3.85-1.84,4.43-1.56.69-3.56-.79-2.59-2.45.74-1.26,2-.88,2.24.44Zm4.92.8h.5a7.18,7.18,0,0,1,2.31.5c1.8.72,2.46,1.6,2.53,2-.1.29-.28.09-1.6-.62a6.26,6.26,0,0,0-7,.13c-.58.11-.64-.22-.06-.85a5.63,5.63,0,0,1,3.31-1.15Zm16.5,0A11,11,0,0,1,101,48a8.21,8.21,0,0,1,1.81,1c.37.19.4,1,.13,1.1a2.3,2.3,0,0,1-1.23-.57C97.91,47,95.18,47.31,93,48.85a1.55,1.55,0,0,1-.64.16c-.42,0-.45-.21-.27-.44a5.5,5.5,0,0,1,3.87-1.76Zm47.55,1.79,3.67,2.59v2.54L143.25,51Zm-66.19,1,.53,0c1.25,3.05,2.82,1.48,3.47.26l.65.1c-1,4.09-5.18,2-4.65-.38Zm20.63.23.43.13c-.11,1.75-3,3.6-4.4,0l.58,0C96.11,52.35,97,50.91,97.92,49.86ZM76.38,50c.6.07.58.76.77,1.27.43,1.12-1.18.17-1.46-.1-.47-.5.2-1.12.69-1.17Zm23,.16a2.88,2.88,0,0,1,.82.25c.86.35.82.61-.14,1-1.53.69-2.06.77-1.6-.2C98.73,50.85,98.9,50.26,99.39,50.2Zm-6.18.31a.21.21,0,0,1,.17.06,1.43,1.43,0,0,1,.68,1.11c0,.36-1.16,0-1.16-.63,0-.28.15-.51.31-.54Zm-10.42.19c.78.3.69.67.14,1-1,.55-1.4.44-.77-.43C82.46,50.89,82.52,50.71,82.79,50.7ZM143.24,52l4,2.82,0,2.58-4-2.73a10.18,10.18,0,0,1,0-2.67Zm-.11,3.52,4,2.92,0,2.57-3.94-2.73A13,13,0,0,1,143.13,55.5Zm-52.35.33c-.61,0-.51.45.35.77A1.24,1.24,0,0,1,91.4,59c-1.26.86-3.32-1.32-4.83-1.13a1.17,1.17,0,0,0-.77,1.73c.32.58,1.41.94,1.85.55s.52-.41,1.3-.11c2.44.93,4.39-.84,3.82-2.69a2.51,2.51,0,0,0-1.69-1.46,1.58,1.58,0,0,0-.3,0ZM74.61,56c.18,0,.26.63.3,1.55.07,1.53-1.47,3.65-3,4.38-1.88.88-3.89-.35-3.55-2.18S71,58,71.12,59.53c-.23.41.09.75.22.72A5.88,5.88,0,0,0,74,57.31,5.1,5.1,0,0,1,74.52,56a.12.12,0,0,1,.09,0ZM97,58.58a2.38,2.38,0,0,0-2,1c-.3.51-.06,1.42.56.64a1.64,1.64,0,0,1,2.64,1.94c-1.11,1.34-2.48.91-5.37-.2-2.1-.81-2.43-.53-3,0s-.21,1.45.34,1.44c1.71.39,3.18.77,5,1.14,3.73.77,6-4.07,2.6-5.85a1.44,1.44,0,0,0-.74-.15Zm46.38.8L147.12,62l0,2.47-3.61-2.63ZM80,59.63a2.22,2.22,0,0,0-1.49.5c-1.45,1.31-.26,4.77,1.89,5.08A4.7,4.7,0,0,0,82.26,65c1.5-.43,3.16-1.33,3.22-1.85.31-2.36-3.18-.24-3.65,0A2.08,2.08,0,0,1,79,63c-1.33-1.81,1-3.88,2.49-1.67.09.14.24.34.24.34a4.37,4.37,0,0,0-.4-1.37A1.55,1.55,0,0,0,80,59.63ZM143.67,63l3.54,2.56.06,2.57-3.71-2.46C143.63,64.75,143.65,63.88,143.67,63Zm-19.8,1.48c3.1,0,4.86,4.67,3.22,6.6-.49.57-.88.73-1.1.51a7.52,7.52,0,0,1,.06-1.15,5.42,5.42,0,0,0-1.64-4.55C123.39,64.82,123,64.49,123.87,64.48Zm-37.12.44a3.26,3.26,0,0,0-1.13.29c-.58.21-1.21.64-1.69.54s-.7.13-.88.5c-.71,1.44-.49,1.9.92,1.09.66-.39.9-.25,2.69.09a6.66,6.66,0,0,0,3.27-.07c1.4-.37,2.24-.4,2.94,0s1.19.93,1.21.49-.52-1.82-.62-2.26c0-.21-.4,0-.73,0-1.16.09-2.54-1-3.44-.41-.71.45-.81.56-1.79,0a1.5,1.5,0,0,0-.75-.23Zm34.85.1a2.09,2.09,0,0,1,1.43.52c2.11,1.77,2.64,3.34,2.44,4.63-.1.93-.17,2-1.09,2.53a2.55,2.55,0,0,1-.65.17c.71-2.66-.12-5.05-3.1-7.59A2.27,2.27,0,0,1,121.6,65Zm-46,.51c.58,0,.55.93.43,1.44s-.52,0-.85-.72C74.93,65.84,75.19,65.53,75.6,65.53Zm43.73.58a2.94,2.94,0,0,1,1.6.47c2,1.32,3.09,4.79,1.88,6.76a1.29,1.29,0,0,1-.5.51c-.4.26-.64.47-.73.29s.17-.73.19-.92c.86-4-3-6.74-3.1-6.61A.63.63,0,0,1,119.33,66.11Zm-45.68.17c.77,0,1.06.69,1.2,1.26s0,1.92-.44,1.42a4.65,4.65,0,0,0-.85-1.55c-.74-.56-.67-1.11.09-1.13Zm69.92.16,3.65,2.63v2.82l-3.82-2.58c.08-1,.13-1.94.16-2.87ZM71.49,67a2.7,2.7,0,0,1,.43.05c1.2.2,2.12,2.12,1.84,3.21-.63,1.18-.87.38-1.08-.68a6.49,6.49,0,0,0-1-1.49C71.1,67.34,71,67,71.49,67Zm45.83,0c2.91,0,4.76,4.69,3.42,7-.35.37-1.4,1.13-1.43.77s.19-1.2.23-1.65a6.07,6.07,0,0,0-2.05-4.86C116.3,67.16,116.19,67,117.32,67Zm-48.2.56c1.79,0,3.32,2.1,2.75,4.12s-4.18,1.65-3.6-.45a1,1,0,0,1,1.42-.66c.88.54.78-.35.22-.66a1.56,1.56,0,0,0-2.32.79c-.92,3.44,3.46,4.61,5.85,1.06.87-1.3,1.82-2.69,2.34-3.28s.57-.47.5.21c-.31,3.19-2.52,7.18-6.66,7-4-.39-5.28-4.69-2.24-7.38a3,3,0,0,1,1.74-.72Zm21.33.17a4.78,4.78,0,0,1-4.26.36c-1.07-.47-1,0-.59.46,1.35,1.15,3.8.63,4.85,0,.34-.21.45-.82,0-.8Zm24.66,0a5,5,0,0,1,3.34,2.83,5.82,5.82,0,0,1-.09,4.86c-.58.37-1.48,1.12-1.75,1s0-.37.18-1a6.24,6.24,0,0,0-1.34-6.24c-.89-1-1.22-1.2-.76-1.38a1,1,0,0,1,.42-.06Zm28.2,2.39,3.92,2.7v2.56l-4.07-2.75a11.59,11.59,0,0,1,.14-2.51Zm0,3.55,3.88,2.58.1,2.54-3.77-2.35Zm.27,3.57,3.7,2.59.06,2.77-3.68-2.43ZM53.26,80.19c0-.2-2.67,7.55-2.67,7.55l2.52,1.78,2.68-1.74L53,84.1s.27-3.72.23-3.91Zm90.47.93,3.57,2.48.06,2.56-3.71-2.58Zm-.14,3.15,3.66,2.66.07,2.73-4.15-2.79ZM61.72,85.9c0-.19-2.68,7.55-2.68,7.55l2.52,1.79,2.68-1.75-2.75-3.68s.27-3.72.23-3.91Zm-16.93.6c0-.19-2.68,7.56-2.68,7.56l2.52,1.78,2.68-1.74-2.75-3.68S44.83,86.7,44.79,86.5Zm98.32,1.21,4.3,3,0,2.89-4.16-2.81Zm.29,4,4,2.87,0,2.54-3.61-2.6ZM70.67,95c0-.19-2.68,7.56-2.68,7.56l2.52,1.78,2.68-1.74-2.75-3.68s.27-3.72.23-3.92Zm73.36.77,3.35,2.32,0,2.6-3.31-2.23ZM75.21,97.94c.05,1.84.17,20.68.14,20.8-2.31.27-3,1.84-3.16,4a3.53,3.53,0,0,0-3,1.14c-.67-.92-.17-2.28-.7-3.24-1.59,5.64,1.52,9,4.23,8.7.44,5.41,6.35,6.39,6.15-.18,7.15-.42,4.73-7.05-.11-6.17a3.91,3.91,0,0,0-2.7-4.18s-.21-18.13-.18-18.67c0,.08-.31-2-.35-2.08l-.3-.08ZM144,99.24l3.29,2.35,0,1.12-3.28-.07ZM45.1,100.31c0-.2-2.68,7.55-2.68,7.55l2.52,1.78,2.68-1.74-2.76-3.68S45.14,100.5,45.1,100.31ZM147.34,107c-7.21.34-13.69.85-13.44,10.71-1,4.18.72,7.91,5.75,6.75,1.1-1,.38-2.43.24-3.12a8.52,8.52,0,0,1,.21-4c.42-2.76,2.43-5.32,2.65-1,.35-.54.18-.62.76-.85,1.38-.5,1.38.91,1.1,1.48-.18.29-.46.27-.74.23s-.93-.2-.94-.35c-.1.45.74,1.29.65,1.71s-.18.37.18.1c1.74-1.25,2.82,1.54.31,1.23,1.24.66-.59,2.61.69,3.61,3.89.3,6.79-2.37,5.55-4.29,1.45-3.89.56-7.92-1.53-9.64-.32-.38.74-.75,1.15-1.4-1.25.33-1.91-.3-2.59-1.15Zm-4.31,1.4c.67,0,.84.13.79.67.26,1.34.59,2,2.32,1.82s2.29-.34.54.72a3.4,3.4,0,0,1-2.22.37c-1.06-.09-1-.2-1.58.16a3.56,3.56,0,0,1-1,.51c-.41.07-1.12.23-1.12.23a8,8,0,0,1-1.88,4.1c-1.2,1.38-1.82,1.62-.34,1.52.55,0,.27-.24.51,2a11.3,11.3,0,0,0,.34,2c.38,1,.43,1.52-1,1.59-3.64.28-4.5-3.3-4-5.12a12,12,0,0,0,.19-3.18c.08-3.41.89-4.31,3.89-6.53a7.09,7.09,0,0,1,3.74-.82l.84,0Zm2.36.22c1.69,0,3.31.78,2.5,1.31a4.16,4.16,0,0,1-2.94-.18C144.27,109.21,144.52,108.58,145.39,108.57Zm3.65,2.34a1.23,1.23,0,0,1,.85,1.84c-.61,1.36-4.69,2-4.69,2a3.13,3.13,0,0,0-.37-1.8,13.86,13.86,0,0,0,3.29-1.24c.38-.35.61-.8.92-.81Zm-78.75.62c0-.09-1.35,3.7-1.35,3.7l-.21,4.64,1.4,1,2.68-1.74-2.75-3.69s.27-3.71.23-3.91Zm73.29,1.68a.91.91,0,0,1,.86.69c.07,1.24-1.58,1-1.63.18A.85.85,0,0,1,143.58,113.21Zm6.26.79c.4,0,.61.29.72.88a1.17,1.17,0,0,1-.33.92,7,7,0,0,1-5,1.64,9.33,9.33,0,0,1,.18-1.83C146.82,115.65,149.17,114.4,149.84,114Zm-48.52,2a2.36,2.36,0,0,1,2.11,1.45,3,3,0,0,1,0,2,.82.82,0,0,1-.53.59l-1.79-1.54-1.75,1.64a2.52,2.52,0,0,1-.48-2.6,2.61,2.61,0,0,1,2.4-1.51Zm48.41,1.21c1.14-.08.55,1.25-1.15,2.15a3,3,0,0,1-2.33.52,1.92,1.92,0,0,1,.1-1.44,27.3,27.3,0,0,1,3.38-1.23Zm-74,2.5a2.36,2.36,0,0,1,2.42,2.5,3.12,3.12,0,0,1-.32,1.32L75.65,122,74,123.69c-.28.1-1.28-1.15-.59-2.51A2.54,2.54,0,0,1,75.68,119.71Zm73.73.08c.31,0,.39.12.48.41.25.82-.39,1.65-1.49,1.92s-.92.36-1.41-.56c-.37-.72-.47-.69.12-.91S148.59,120.14,149.41,119.79Zm-43.85.51a2.06,2.06,0,0,1,.89.15,2.44,2.44,0,0,1,.36,4.32c-.83.46-2.13.72-2.74-.22l1.76-1.93-2-1.71A3,3,0,0,1,105.56,120.3Zm-8.25.32c.74,0,1.32.29,1.19.41s-1.27,1.3-1.82,1.84l1.91,2c.09.25-2.21,1.3-3.41-.28A2.75,2.75,0,0,1,96,121,2.49,2.49,0,0,1,97.31,120.62Zm3.93.18a2.06,2.06,0,1,1-2,2.09A2,2,0,0,1,101.24,120.8Zm44.31.16a1,1,0,0,1,1,.92c0,.78-.88,1-1.58.6a.81.81,0,0,1-.28-1.23,1.26,1.26,0,0,1,.89-.29Zm-44.32,1.6a.4.4,0,1,0,.4.4A.4.4,0,0,0,101.23,122.56Zm-21,1a1.75,1.75,0,0,1,.82.17A2.47,2.47,0,1,1,78.64,128l1.8-2-1.91-1.85A2.69,2.69,0,0,1,80.25,123.55Zm-8.34.26a2.56,2.56,0,0,1,1.4.46l-1.83,1.93,2,2.18a10.5,10.5,0,0,1-2.12.15c-2.7-.51-2.44-3.7-.35-4.54A2.68,2.68,0,0,1,71.91,123.81Zm4,.45a2,2,0,1,1-1.94,2A2,2,0,0,1,76,124.26Zm-36.88.4a9.3,9.3,0,0,0-1.74.26s.36,4.1.69,5.5c-.21,1.6-1.24,2.68-1.7,4.32-.24.73-1.17,1.71-1.35.69-.66-1.27,0-2.84-.58-3.75s-.19-1.33-.38-2.21c-.52-.73-.76-1.06-.68-1.71-.11-2.9-.82-2.33-2.1-2.09-4.95.43-4.94,3.3-4.64,7-.7,3.42.59,2.61.55,3.22-.07,1,.09,2.34.38,2.49,1.77,2,1.85,3.46,4.15,3.1,3.88.31,10.06-.27,11.39-5,.75-6.1,1-11.93-4-11.73Zm0,.65a3.16,3.16,0,0,1,2.31.83c1.53,1.48,1.19,2.78.92,8.48-.16,3.37-3.05,5.11-6.29,5.89a7.7,7.7,0,0,1-2,.19c-.57,0-.91-.27-.95-.76.12-1.32-1.21-1.45-2-1.37-1.38.05-1.52.2-.66-.47s3.25-.78,3.68-.33A4.26,4.26,0,0,1,37,136.64a2.48,2.48,0,0,1-.3-1.87c.58-1,1.56-2.86,2.6-3.55,1-1.34.15-.73-.48-.71-.37,0-.33-.11-.39-.35a22.53,22.53,0,0,1-.62-4.17c0-.57.52-.67,1.25-.68Zm64.12.19a2.45,2.45,0,0,1-1.78,4.1,2.58,2.58,0,0,1-2.4-3.48c.34-.48.49-.42.49-.42l1.89,1.7Zm-27.22.37a.4.4,0,1,0,.39.39A.39.39,0,0,0,75.94,125.87Zm-44.06.69a.91.91,0,0,1,.67.2.77.77,0,0,1,0,1.23.88.88,0,0,1-1.45-.61.86.86,0,0,1,.81-.82Zm-1.79.13a.67.67,0,0,1,.44.15,3.18,3.18,0,0,0,.06,1.29c-.32.23-1.72.64-2.47,1a.66.66,0,0,1-.83-.77c.2-.83,1.42-1.38,2.31-1.64a1.54,1.54,0,0,1,.49,0ZM106.77,128l-2.67,1.75,0,0,0,0,2.75,3.68c0,.13-.23,3.84-.23,3.84h0v.09l1.89-8.2L106.77,128Zm-29,.84c1.25,2.8-.19,4.08-1.71,4-1.69,0-3.48-1.64-1.91-3.92l1.95,1.6Zm-47,.37c.5-.06.35,1.05.16,1.62-.19.4-.74.38-1.24.41-.88.05-2,1.08-2.47.91-.16-.07-.27-.49-.29-.76.11-1.48,2.54-2,3.84-2.18Zm1.7.06a1,1,0,0,1,1,1.48,1.16,1.16,0,0,1-1.16.24.91.91,0,0,1-.21-1.64A1.64,1.64,0,0,1,32.54,129.29Zm-1.11,2.58c.48.09.25,1.57.16,1.62a8.75,8.75,0,0,0-2.81,1c-1.53,1.2-2.18.47-1.47-1,.67-.84,3.13-1.6,4-1.62Zm1.84.08a.89.89,0,0,1,.74,1.42.92.92,0,0,1-1.55-.61A.83.83,0,0,1,33.27,132Zm-1.58,2.43c.7,0,0,1.08.58,1.85.09.39-.05.27-.76.48a10.85,10.85,0,0,0-1.66.71c-1,.48-1.21.74-1.55.68s-.57-.17-.65-.44c-.33-1.09.55-2.2,2.6-3a7.82,7.82,0,0,1,1.44-.32Zm1.79.21c1,0,1.17,1.31.43,1.54C32.18,136.58,32.32,134.59,33.48,134.59Zm-2.59,4.68h0c.68,0,1.14,0,1.36.2a.61.61,0,0,1,0,.94c-.57.29-2.77,0-2.78-.58,0-.41.72-.55,1.4-.56Zm101.31.15-2.68,1.74,2.76,3.68s-.27,3.72-.23,3.91,2.67-7.55,2.67-7.55ZM25.55,143.65a7.27,7.27,0,0,0,3.47,2.8c.42,18.88.35,62.14.35,62.14l5.33,3.65,5.61-4.06c-.05-13.62-.11-23-.16-35.62l8.22,4.55a4.43,4.43,0,0,1,.22,2.07c-.57,4.71,3.94,7.76,6.94,5.9,1.15-.48,1.24-.57,1.49-.2.67,1,1.43,5.34,1.56,8.11.19,4.16,1.28,12.66,1.54,12.72L46.73,228.45H25.55Zm81.2,1.09-2.68,1.74,2.75,3.68s-.27,3.72-.23,3.91,2.68-7.55,2.68-7.55Zm-67.55,1,.47,61.9s-2.61,1.89-3.44,2.43c-.43.16-.65.19-.75-.23a14,14,0,0,1,.26-3.12,11.53,11.53,0,0,0-.08-3.72,19.15,19.15,0,0,1-.08-5.27,48.32,48.32,0,0,0,0-8.45,56.16,56.16,0,0,1-.06-8.55,30.47,30.47,0,0,0-.22-7.61c-.68-3.79-.79-5.09-.08-7.94a10.15,10.15,0,0,0,.34-3.41,42,42,0,0,0-.81-7c-.4-2.53-.43-2.88-.05-6.88.07-.8.1-1.35.4-1.6s4.08-.52,4.08-.52Zm-5.25.73a14.12,14.12,0,0,0-.42,3.18l-3.59-2.38,0-.75Zm-4,1.68,3.56,2.34a21.91,21.91,0,0,0,.07,2.92L30,151Zm0,3.72,3.8,2.62c.15,1,.46,2.06.58,3L30,154.52Zm123.14,1,.2,75.55H115.4l-12-23.26a21.07,21.07,0,0,1,.42-3.23c.35-1.32.45-1.61,1-1.67a2.52,2.52,0,0,0,3.31-1.27c.56-1.26-.58-3.18-2.35-3.6a3,3,0,0,0-2.48.82c-.5.42-.61.47-.71.11-.22-.83.5-3.06,1.8-5,.72-1.07.91-1.38,1.14-1a2.31,2.31,0,0,0,3.73.37,2.85,2.85,0,0,0-1.37-4.35c-4.1-1.33-6,2.83-5.94,2.82l-.88-5c5-1.23,7.8-1.66,9.37-3.17a6.53,6.53,0,0,0,1.68-5.07s13.73-5.63,20.16-9.12a155.33,155.33,0,0,0,20.88-14Zm-20.31.58-2.68,1.74,2.76,3.68s-.27,3.72-.24,3.91,2.68-7.55,2.68-7.55Zm-17.29.74L112.83,156l2.75,3.68s-.27,3.72-.23,3.91S118,156,118,156Zm-85.37,1.41,4.37,3a13.27,13.27,0,0,1,.09,3L30,158.58Zm-.07,3.87,4.51,3a5.59,5.59,0,0,1-.26,2.46l-4.26-2.75Zm93.91.25-2.67,1.75,2.75,3.68s-.27,3.72-.23,3.91,2.68-7.55,2.68-7.55ZM30.08,163l3.91,2.9c.06,0-.22,1.32-.16,2.05l-3.72-2.31Zm.1,3.59,3.65,2.53a15.9,15.9,0,0,0,.23,2.67l-4-2.59Zm-.06,3.65,4.22,3,.22,2.43-4.47-2.83Zm33.47.85a3.36,3.36,0,0,1,1.27.16c4,1.53,7.84,9.29,7.73,19.34-.08,7,2,16.94,2,16.82s-1.18.16-1.51-.1a65.93,65.93,0,0,1-2.27-15,80,80,0,0,0-.65-8.23c-.66-3-1.38-6.5-3.29-8.78-1.48-1.72-3.17-2-4.18-.09-.83,1.58.91,4.2,2.36,3.33.35-.2.56-.53.1-.53a1.81,1.81,0,0,1-1.56-2.86c1.67-1.76,4.6,2.16,3.24,4.31-.59.93-2.16,1.1-3.41.75a5.42,5.42,0,0,1-2.55-6.87,3.45,3.45,0,0,1,2.75-2.24ZM60,172.26c.32-.08.1.63-.2,1.58-.72,2.29.63,5.84,2.49,6.55.56.38.53.53.15.74-1.21.69-3.42-1.38-4-3.68-.42-1.66-.32-3.62.48-4.46a2,2,0,0,1,1.08-.73Zm-2.69,1.31c.33,0,.21.56.11,1.59a6.08,6.08,0,0,0,2.19,5.56c.71.6.9.8.6,1.11s-1.67-.15-2.64-1.17c-1.77-1.86-2.36-5.38-1-6.65A1.42,1.42,0,0,1,57.27,173.57Zm-27.19,0,4.5,3a8.14,8.14,0,0,1,0,2.91l-4.51-3.17Zm77.31.38c1.92-.08,3.55.67,3.73,3,.26,3.47-3,5.37-5.19,3.37-2-2,0-5.13,2.35-3.66,1.17.74-.22,2.44-1.17,1.56-.43-.4-.61-.15-.31.31.91,1.37,2.72.23,2.59-1-.25-2.38-3.16-2.35-4.26-1.42a25.3,25.3,0,0,0-3.8,4.54c-.81,1.19-1,1.16-.86-.31A7.33,7.33,0,0,1,107.39,174ZM55,174.75c.31,0,.18.43.21,1.57a6.82,6.82,0,0,0,2.91,5.78c.52.58-.15,1-1.13.71-2.24-.69-4.52-5.53-2.62-7.61q.39-.45.63-.45Zm-2.17,1c.31,0,.13.63.16,1.85.06,2.58.85,3.81,2.75,5.39.62.51.7.45.45.73-.65.76-2.85-.31-3.79-1.85-1.12-1.84-1.28-4.61-.24-5.66C52.4,175.88,52.61,175.72,52.78,175.71ZM50.61,177c.26,0,.12.47.16,1.58.09,2.69.7,4,2.4,5.28,1.07.78,1.33.55,1,.86-.57.54-2.13.07-3.31-.92-1.75-1.5-2.24-5.19-.82-6.45.26-.23.44-.35.57-.35Zm-20.46.38,4.33,3-.12,2.56L30.05,180Zm73.83,1.2c.1,0,.21.12.32.36.26,1,.93,2.41,1.84,2.68.37.11.06.62-.28.55a2.57,2.57,0,0,1-2.21-3.1C103.69,178.72,103.82,178.5,104,178.53Zm-36,.57c2,5.05,2,10.56,2.28,15.77.44,6.92,1.66,11.58,2,12.37,0,0-1.94,0-2-.26,0,0-1.83-9.18-1.55-13.72a42.85,42.85,0,0,0-1.56-11.56c-.64-1.77-.66-.6.82-2.6Zm20.93.9c-.9,0-2.74.51-2.74.84,0,.15.61.28,1.55,0a5.94,5.94,0,0,1,2.88,0c.85.24.94,0,.17-.38A3.91,3.91,0,0,0,88.88,180Zm13.69.31c.12,0,.28.11.45.42a7.11,7.11,0,0,0,.7,1c.53.62.68.63.44.88-.56.59-1.74-.26-1.87-1.35C102.22,180.71,102.35,180.33,102.57,180.31ZM65.72,181c1.94,2.79,2.23,9.35,2.27,14a69.44,69.44,0,0,0,1.56,11.85,1.69,1.69,0,0,1-1.45-.05c-.5-.65-.81-2.49-1.39-7.48-.15-1.29-.44-5.38-.51-8.67-.06-2.91-1.67-9.2-1.67-9.2a2.59,2.59,0,0,1,1.19-.46Zm17.75.12c-.2,0-.13.68,0,1.49,0,1.86.28,1.1.93.81.49,0,.89.23,1.8.56,1.16.43,1.06.57,1.87.17.5-.25.9-.33,1.14-.14a2.21,2.21,0,0,0,2.88-.29,2.62,2.62,0,0,1,1.58-.08c.66.06.49-.37.57-1.2s-.21-.82-1-.56a3.75,3.75,0,0,1-2.24.08,7.49,7.49,0,0,0-3.87,0c-2,.32-2.14.11-2.6-.18a4.22,4.22,0,0,0-1.11-.61Zm-53.34,0,4.16,2.75c-.06.94-.07,1.88,0,2.82l-4.09-2.92Zm33.42.58c1.77,4,2.06,7.94,2.14,12.75a88.9,88.9,0,0,0,1.46,12.22c-.6.06-1.23.11-1.48-.16-1-3.32-1.32-8.85-1.6-12.83-.35-5.6-.43-7-1.22-9.78-.45-1.59-.61-1.56-.27-1.86A1.68,1.68,0,0,1,63.55,181.65Zm38.11,0c.12.05.22.26.42.53.45.59.58.87.2.93-1,.14-1.24,0-1.21-.59s.14-.7.46-.86A.15.15,0,0,1,101.66,181.7Zm-40.2.89c1.47,1.49,1.84,9.84,2,11.64.52,9.74,1.44,11.15,1,11.88-.56,0-.75.19-1.11-.3-1.26-3.57-1.18-7.23-1.39-11a43.64,43.64,0,0,0-1.46-10c-.45-1.63-.45-1.66.38-2.1A1.64,1.64,0,0,1,61.46,182.59Zm-2.55,1a1.21,1.21,0,0,1,.58.13A46.26,46.26,0,0,1,61.18,195a85.92,85.92,0,0,0,1.15,10.94,1.55,1.55,0,0,1-1.44-.47c-1.59-7.11-1.08-14-2.93-21.14A1,1,0,0,1,58.91,183.64Zm37.65.21a4.42,4.42,0,0,0-2.16.46c-2.44.95-3.07,1.73-2.69,2.42s1.29.38,3.89-.72c1.94-.81,2.55-.45,3,.78,0,1.82-1.77,2-2.76,1.78a2.47,2.47,0,0,1-.34-.12,1.43,1.43,0,0,0,.43.71c2,1.66,4.48-1.52,3.25-3.49A3.11,3.11,0,0,0,96.56,183.85ZM81,184.43a2.68,2.68,0,0,0-1.86.62c-2,1.59-1.3,4.46.38,4.89a1.7,1.7,0,0,0,1.43-.06c.25-.17.25-.44-.26-.53-1.56-.26-2.44-1.41-1.69-2.57s2.08-.92,4.68.21c2.24,1,3.23.68,3.49-.5.12-.51,0-1-1.1-1C84,185.38,82.38,184.48,81,184.43Zm-50.76.21,4.32,3.13.09,2.66-4.41-3.15ZM106.62,187a2.18,2.18,0,0,1,2.28,1.91,1.46,1.46,0,1,1-2.88.51c-.13-.83-1.46,0-2.35,1.48s-1,1.64-1.13.15c-.26-2.23,2-4,3.46-4A4.37,4.37,0,0,1,106.62,187Zm-76.53,1.1,4.58,3.17a18,18,0,0,1,0,2.61l-4.59-3Zm60,.76a1.1,1.1,0,0,0-.44.13,1.49,1.49,0,0,1-1.29.15,5.39,5.39,0,0,0-3.37,0,2.3,2.3,0,0,0,.58,4.13c1.46.29,1.57-.74.11-1.05a1.15,1.15,0,0,1-.68-1.63c.7-1.15,2-.41,2.73,0,1.66.8,2.52,1.09,3,.54.81-.86.28-2.3-.69-2.24Zm-60,3,4.5,3.1-.14,2.75-4.22-3.13Zm.09,3.77,4.24,3a15,15,0,0,0,0,2.36l-4.28-2.78Zm74.86.58c3.39.34,2.27,4.27-.1,3.21-.64-.48-.83-.44-1.53,1.28-.9,2.21-1.12,2-1-.52S103.68,196.26,105.08,196.24Zm-7.75.43c.93,0,1.87.88,2.62,2.67l-1,.06c-.93-2.23-2.23-2.57-3.33-.36l-.8-.23C95.48,197.4,96.4,196.64,97.33,196.67Zm-2.51.12c.52,0,.46.21-.09,1s-.59.76-1.07.4c-.78-.59.52-1.33,1.16-1.37Zm-14.07,0c.86,0,1.68.55,2.11,2.07l-.6.09c-.92-2.06-2.82-1.59-3.41.32l-.84-.1A3.44,3.44,0,0,1,80.75,196.8Zm-2.42,0a.43.43,0,0,1,.19,0c.23.26-.46,1.29-1,1.89-.43.28-1.47-.49-1.22-.86A4.93,4.93,0,0,1,78.33,196.84Zm21.35,0a1.18,1.18,0,0,1,.35,0c1.06.26,1.55.77,1,1.41-.32.41-.64.57-.85.3C99.49,197.43,99.1,196.82,99.68,196.86Zm-16.65.4a.67.67,0,0,1,.67.3c.11.44-.24.75-.63.39a.87.87,0,0,1-.27-.59A.37.37,0,0,1,83,197.26Zm-52.85,1.82,4.35,3.15a20.68,20.68,0,0,1,.17,2.71l-4.48-3Zm62.13.31a3.41,3.41,0,0,1,1.31.64c2.5,1.73,5.44,1.71,7.28.19.41-.34.77-.36.78,0-.26,1.22-3.46,2.77-6,1.89a6.12,6.12,0,0,1-3.4-2.26c-.2-.31-.17-.43,0-.43Zm.11,1.47a.39.39,0,0,1,.14,0c3.66,3.18,6.57,2.3,8.78.69.33-.08.33.21.4.76.1.71-.48,1.06-2.07,1.54-3.07.92-6.67-.09-7.32-2.17C92.29,201.35,92.16,200.9,92.42,200.86Zm-62.26,1.92,4.42,3.05-.15,2.34-4.29-2.93Zm.07,3.58,4.17,2.84v1.93l-4.06-2.91Zm73,.84,11,21.64-66,.09c4.31-7,7.89-14.73,12.31-21.67C78.26,211.31,90.85,209.39,103.21,207.2Z"/><path id="path3442-2-7-0" d="M62.15,20c1.9,3.29,3.4,6.7,5.11,10.07l.28.17.41.78,0,.38,1,1.64v.35l4.3,8.07c3.55-1.34,32.72-3.74,43.52.19L118.39,39h.38l2.77-4.9,0-.41.93-1.08.14-.48,3.06-4.83v-.78l3.83-6.43Zm66,.93s-2,3.86-3,5.43c-.83-.66-3.25-.21-3.1,2.35-3.94-1.5-4.88,3.23-1.84,4.29-1.56,1.38-3.06-.18-4.24-1.23-1.16.29-3.56,1.15-4.92-1.38,0,0,.57.31,1.13.65,3.22,1,3.48-3.39,1.09-4.11a5.73,5.73,0,0,0-.87-.11c.8-3.37-4.36-4.54-4.46-.5a3.71,3.71,0,0,0-1.08,0c-2.74.5-2.11,4.57.69,4.38a3,3,0,0,1,.73,0c-.05.65-3.43,1.9-5.87-.35-1.16.89-3,2-5.38-.21,1.57-.06,3.07-.51,3.06-2.31a2.46,2.46,0,0,0-2.56-2.26A2.75,2.75,0,0,0,95.24,23a2.48,2.48,0,0,0-2.32,2.65,2.37,2.37,0,0,0-2.24,2.61c.38,1.81,1.76,2,3.34,1.69-1.92,3.11-5,1.48-6,.49-1.15,1.08-3.15,2.54-5.61.55,1.31-.23,2.77-1,2.52-2.85a2.34,2.34,0,0,0-2.52-1.81A2.3,2.3,0,0,0,80,23.93c-1.85.18-1.74,2.55-1.72,2.57a2.28,2.28,0,0,0-2.21,2.84c.54,1.41,1.65,1.85,3.69,1.47-2.38,2.26-3.9,1.38-5.2.91a3.08,3.08,0,0,1-4.27.53c3.53.17,3-6.12-1.22-3.84-3-3.53-2.92-2-5.59-7.16Zm-32.91,6.2a.92.92,0,0,1,.53.12c.56.28.66.77.32,1.5a1.83,1.83,0,0,0-.26.82c3.89,7.23,12.46,4,13.27.64a1.07,1.07,0,0,0-.16-.67,1,1,0,0,1,.14-1.38,1.06,1.06,0,0,1,1.69,1.23,1.36,1.36,0,0,0-.18,1c2.2,5,6.59,5.42,10.26,3.42-1.69,3.06-8.26,4.94-11-2.42-4.4,6-11.39,5.88-14.56-.89-2.85,6.92-11.45,7.09-14.58,1.33-2.85,6.59-9.45,5.09-11.33,1,6.14,4.48,10.19-.19,10.91-2.19a2.33,2.33,0,0,0-.34-.42c-.78-.78-.76-1.69,0-2.06a1.12,1.12,0,0,1,1.49,1.54c-.15.28-.28.34-.19.58,1.91,4.48,11.32,5.79,13.23-.51a1.35,1.35,0,0,0-.14-1A1.08,1.08,0,0,1,95.28,27.17ZM67.82,29.71c1.49.08,1.07,1.37.77,1.47Zm55.1.8s-.91,1.67-.91,1.67C121.52,31.39,121.65,30.41,122.92,30.51Zm-5,8.3a12.26,12.26,0,0,1-1.26,2.29c-17.58-4.54-42.1-.6-42.71-.16l-1.08-2C88.27,35.79,103.64,36.45,117.91,38.81ZM88.22,70.2c-1.7,6.6-5.81,7.27-10.77,8.08-6.15,1-10.15-1.27-12-4.72,0,0-8.79,3.35-12,5.3,6.67,3.08,15.48,9.9,20.48,17.64,1.79,2.36,1.7,1.83,1.7,7,0,11.23,0,15.4,0,15.4,2.75.42,2.9,2.33,2.75,4.47,2.21-1,4.33.22,4.32,2.32,0,3.86-3.78,2.81-4.56,2.39,1.22,3.4-.21,4.81-1.68,5-1.81.2-3.88-.67-3.28-4.57-4.48,1.08-4.7-3.19-4.91-7,4.88-9.24-1.24-16.76-7-19.24,0,0,1.63-3.39,3.73-4.34.21-.06-1.28-2.26-3.78-1.78-1.15,0-.88,0-2-1.41-2.14-2.8-3.15-3-5.24,0-.92,1.32-1.14,1.35-2.22,1.38s-3,.89-3.43,1.66c-.09.18.38.36,1,1.1.9,1,2.28,2.51,2.06,4-4.73,2-12.58,10.46-4.32,21.37l-6,.08-.29-38.83L36.7,87.86l.18,30.41-1.18-.39c.09-9.7-.05-19.4-.36-29.09l-10.94,8,.48,45.6,1.17.24c.86,6.22,13.07,1.87,13.78,2.41L40,170.42l-.54,1.25L49.16,177l8.91-4.65a8.47,8.47,0,0,0,1.65-.46c3.7-2,6.45-1.52,8.46,1.35,1.24,1.78,1.45,2,1.45,2,.75-5.12,5.26-7,9.63-5.67,3.21,1,7.61,4.21,8.95,8.16a3.86,3.86,0,0,0,.48.86l.19.08c0-.1-.22-.6-.29-.83-4.51-10.44-17.22-12-19.18-3.52l-1.8-2.54L77.07,166,90,174.57a42.8,42.8,0,0,0-.67,4.32l.22.1a11.61,11.61,0,0,1,1.3-4.71,4.56,4.56,0,0,1,1.06-1.34c.77-.45,1.48-.4,2.27-1.14l-1.89-1.43,0-4.56L96,171.16c1.19-.27,5.84-1.67,8.6-.12.31.09,4.35-1.07,6.87,4.62,4.44-1.89,9.4-3.87,12.89-5.63-12.08-4.5-24.28-20.41-23.1-20.66,0,0,0-1.64,0-5.64.1-4.47.05-9,.12-13.51-4.11-1.32-3.09-4.66-3.09-4.66-2.47.55-2.86.06-3.49-.38L94.47,121a4,4,0,0,1,4.2-1,4.12,4.12,0,0,1-.08-3.35,3,3,0,0,1,3.94-1.1,3.4,3.4,0,0,1,1,4.28.25.25,0,0,0,0,.07,3.61,3.61,0,0,1,4.9,2,107.27,107.27,0,0,1,1.93-17.15,97.76,97.76,0,0,1,9.86-25.9c1.14-1.94,2.29-3.41,3.33-5.35a9.65,9.65,0,0,1-1.9.79,11.27,11.27,0,0,0-2.62.91,14.46,14.46,0,0,1-3.48,2c-3.88,1.52-6.49-.75-8.1-4.22-.9,4.41-4.9,8.13-10.8,5.82-3.34-1.79-4.39-2.93-7.51-7.58a4.56,4.56,0,0,0-.94-1Zm.12.72c2.21,4.4,5.52,7.52,8.73,8.77a8,8,0,0,0,10.58-5.21l1.11,1.89-8.68,6.21L87,74.19a23.42,23.42,0,0,0,1.37-3.27Zm39.44.31-3.89,2.31s-2.59,4.2-3.45,5.78a89.51,89.51,0,0,0-9.73,25.59,101.5,101.5,0,0,0-2,22.25l.31.33s-.48.84-.82,1.55a9.57,9.57,0,0,0-1.1,5.27,13.88,13.88,0,0,0,7.62,12.09l.58.26a11.68,11.68,0,0,1-2.12,3.5c-.91,1-1.1,1-.78,1.48.45.66,1.89,1.23,3.69,1.21.63,0,.63,0,1.81,1.27,2.29,2.52,3,2.47,5.07-.38a2,2,0,0,1,1.88-1.08c1.33,0,3.76-1.11,3.75-1.62-1.64-.73-3.54-4.51-3.24-4.55,9-4.79,10.88-14.71,4.32-22l6.26-.1.23,39.59c1.23-.82,4-2.59,4-2.59l-.09-30.8a16.2,16.2,0,0,0,1.71.53l.24,29.33s8.05-5.71,11.87-8.7l-.23-44.88h-.92l.15,44.86-10.63,7.82-.07-27.88,1.15-.17c3.12-.44,4.56-4.44,2.49-7.05-.73-.93-.21-.86,1.35-1.16,2.76-.25,4.29-2.35,3.49-3.85-.35-.65.1-.58.39-1.19a2.93,2.93,0,0,0,.08-1.55,1.91,1.91,0,0,1,.3-1.29,2.1,2.1,0,0,0-.4-1.9,2.65,2.65,0,0,1-.32-1.68c0-.92-.34-1-1.3-1.93-.73-.66-.14-.81.92-1.36,1.68-.87,1.79-4-.44-5.26-2.79-1.15-7.15.1-11.93.58,0,0,0-17.55-.14-26.6Zm0,.62s9.54,5.62,9.47,5.78C134,82.06,122.09,99.69,122,121c-8.77-1.11-12.35,5.8-12.78,5.78A87.33,87.33,0,0,1,124,74.09Zm-6.28,2.87,0,1.43-1.92,3.07L119.53,76Zm-2.66,1.55.07,4.59-3.88,3-.11-4.78Zm-35.92,1,2,1.39-.07,4.55-3-5.5Zm54.51,1.54,0,3.29c-7.64,10.86-11.65,23.27-12.88,39l-1.86-.07A74.68,74.68,0,0,1,137.43,78.86Zm-51.74.33L90.4,82.3l-.2,5.19-4.28-2.77-.4-1.06Zm28.53.22,0,4.83L110.56,87l-.17-4.8ZM70.1,80.68c.54,0,1,.4,1.07,1.15.4,3.21,2.82,2.29,3.4,3.25.22.33-.3.62-2,.48-3-.23-5.25-2.71-3.7-4.34A1.75,1.75,0,0,1,70.1,80.68Zm21,2.07,4,2.58v5.33l-4-2.42Zm18.36,0,.31,4.72-4.4,3-.16-4.68Zm8.38,0-2.53,5.43-14.75,10.7-12.25-8-2.27-5.24,14.29,9.4ZM78.06,84.94c3.92,0,6.93,4.14,8,7.82.75,2.43.86,3.31.94,7.17s.2,4.61.93,5.16c.45.34.58.25.64-.44.13-1.55,2-.6,2,1,0,1.81-1.94,2.39-3.4,1-.77-.74-.78-.73-1,.72-.16,1-1.28,7.07,1.59,8.59.54.05.67-.39.27-.9-.81-1,.8-2.2,2.12-1.55,1.59.79,1.42,3.37-.27,4.28-1.94,1.05-4.45-.14-5.62-2.67-.86-1.85-.86-4.42,0-8.24a24.26,24.26,0,0,0,.67-4.24A8.79,8.79,0,0,1,85,101.6c.09-.41-.11-.43-.81-.08-1.89,1-4,.28-4.47-1.48-.61-2.11,1.72-4.29,3.16-3,.54.5.48,1-.18,1.33-1.13.56-.74,2,.46,1.75,4-1.2.34-12.41-4.12-13.19-3-.51-5.27,2.88-3.14,4.69.84.71,1.69.33,1.51-.68-.26-1.4,1.59-1.24,2.27.19,1.11,2.33-1.76,4.23-4.43,2.94C70.42,91.25,73.71,85,78.06,84.94Zm17.77.89,4,2.68,0,5.2L95.9,91.36Zm8.72.45,0,4.78-3.82,2.79V88.77Zm10.28,3.13-2,5.48-12.32,8.5L90.39,97l-1.74-5.07,12,7.82Zm-80,.4v27.76c-4,.17-6.29,4.15-3.3,7.91l-1.13.15c-2.7.38-4.51,1.82-4.15,3.57a2.11,2.11,0,0,1-.15,1.34,2.22,2.22,0,0,0,.14,1.89,1,1,0,0,1,.07,1,2.06,2.06,0,0,0,.13,2c.44.44.32.79.26,1.49-.07,1,.11,1.4.73,1.78.8.5,1.1,1.32.19,1.25-.46,0-2.05,1.51-2.05,1.51l-.15-44.54Zm21.65,3.56c.71,0,1.45.9,2.5,2.43.64,1.09.65.94,2.11.89a4.1,4.1,0,0,1,2.79,1c.15.17-.24.21-1.18,1.18A9.38,9.38,0,0,0,61,101.35a.56.56,0,0,1-1,.07c-.2-.3.3-1.27,1.23-2.41,1.31-1.27,1-1.4-.87-1.2-1.34.14-1.48.07-2-.74-1.51-3-2.32-2.93-3.77.09-.39.85-.23.79-2,.66-1.35-.11-1.68.24-.92,1a6.08,6.08,0,0,1,1.59,3.28l-.92.09s-.28-.53-.41-.86a8.67,8.67,0,0,0-1.64-2.46c-1-1.12-.46-1.73,1.83-2,1.28-.14,1.31-.16,1.9-1C55.11,94.28,55.8,93.37,56.52,93.37Zm55.88,2.76-1.32,4.74-10.51,7.43L92,102.55l-1.14-4.46,9.82,6.27ZM76.17,99.88a72,72,0,0,1,4.14,9.84c1,3.36,2.29,13.09,1.94,13.69-.75-1-3.22-.8-3.25-.79a3.75,3.75,0,0,0-2.81-3.89Zm34.58,2.19-1,4.66-9,6.52-7.39-5.09-1-4.5,8.18,5.5Zm-52,.26,1.16.4.22,8.42,8.95,1.5.21,1.44-10.37-1.68C58.78,108.82,58.72,102.33,58.72,102.33Zm-4.54.25.25,9.79c-.1,0-7.47,1-10.29,1.77l.17-1.34s5.12-1.12,8.83-1.55c0-2.74,0-5.62,0-8.41Zm83.29,1.8a16.4,16.4,0,0,0,3.82-.35c6.72-1.19,8.54-.7,9.4,1.38.94,3.24-2.58,3.32-3.21,1.26-.4-1.33-1.84-1-6.66.12-4.12,1-6.73.19-6.68-2.16S136.93,102,137.47,104.38Zm-55.22-1.77a1.52,1.52,0,0,1,0,3,1.52,1.52,0,0,1,0-3Zm-21.84.27,1.07.32s.15,6.38.18,6.39c2.29.51,7.08,1.42,7.08,1.42l.25,1.26c-2-.47-8.4-1.53-8.4-1.53C60.39,108,60.41,102.88,60.41,102.88Zm-7.74.12s0,5.09-.08,7.83c0,0-5.43.88-8.21,1.46l.22-1c2.19-.5,4.58-1,7-1.52-.05-2-.05-6.4-.05-6.4Zm3.9,1.09a1.22,1.22,0,1,1-1.19,1.24A1.22,1.22,0,0,1,56.57,104.09Zm90.92,3.18a1.79,1.79,0,0,0,2.1,1c-.18.06-1.05.57-1,.74s-.36,1.49.23,1.55c2.23.22,1.1,2.55,1.37,2.91.6.69,1,1.13.63,2s-.9.75-.49,1.4c.89,1.35-.34,1.63-.23,2.55a3.72,3.72,0,0,1,.07,1.74c-.61,1.29-2.77,2-5.17,2.13-.34,0-.08-.54-.24-.9-.59-.38-.27-1-.07-1.43s.2-.55-.17-.83c-1-.64-1-.94-.88-1.4.22-1.37,0-1.5-.4-1.71s-.45-.83-.22-1.57c.16-.51,0-.64-.2-1.11a1.23,1.23,0,0,1-.19-.59c.07-.71-.56-.71-1.44,0a33.46,33.46,0,0,0-1.46,4.07c-.37.83-.42,1.69,0,3.59.82,2.91.21,3.39-3,2.77-2.44-.6-3.16-3.23-2.48-6.44a4.34,4.34,0,0,0,0-1.43,6.69,6.69,0,0,1,1.84-5.79c2.55-2.42,3.82-2.79,9.1-2.45a7.45,7.45,0,0,1,2.23.28,5.9,5.9,0,0,1,.07-1Zm-38.07.67-.61,4.51-5,3.49c-2.22-2.06-4.58-1.38-5.7.79-1.3-.67-3.91-2.48-3.91-2.48l-.66-5.11,7.21,5ZM56.68,109a1.22,1.22,0,0,1,0,2.44,1.22,1.22,0,0,1,0-2.44Zm51.91,4.62-.27,4.34-1.76,1.33-2.28-.11a9.54,9.54,0,0,0-.1-2.64Zm-51.94,0a1.22,1.22,0,0,1,0,2.44,1.22,1.22,0,0,1,0-2.44Zm4.86.14A1.22,1.22,0,1,1,60.32,115,1.21,1.21,0,0,1,61.51,113.8Zm-9.67.23a1.22,1.22,0,1,1-1.19,1.23A1.21,1.21,0,0,1,51.84,114Zm89.87.2c.34,0,.84.48.6,1.24s-.1,1.17.45,1.87.38.68.31,1.06c-.11,2.51,1.5,1.43.8,3.25a3.26,3.26,0,0,0,.12,1.43c-.16-.43-3.1-.39-3.35,0-.42-.06-.95-2.85-.53-3.22a4.15,4.15,0,0,1,.52.75c.4.68.48.65.36-.13C140.5,117.41,140.79,114.24,141.71,114.23Zm-75.32.21a1.22,1.22,0,1,1-1.19,1.24A1.22,1.22,0,0,1,66.39,114.44Zm-19.57.23a1.22,1.22,0,1,1-1.2,1.23A1.21,1.21,0,0,1,46.82,114.67Zm47.39.35,3.62,2.37a6.44,6.44,0,0,0,.21,2.18,4.26,4.26,0,0,0-3.56,1.13Zm-25.8,3.79-.28,1.28a45,45,0,0,0-22.73.09l-.59-1.35A39.74,39.74,0,0,1,68.41,118.81Zm-33.78-.09a3.74,3.74,0,0,1,2.85,1.22,3.68,3.68,0,0,1-1.26,5.47,3.59,3.59,0,0,1-4.8-4.68A3.49,3.49,0,0,1,34.63,118.72Zm73.54.38,0,1.29-.91-.76Zm-18.91.06a2.39,2.39,0,1,1-2.33,2.43A2.39,2.39,0,0,1,89.26,119.16Zm-54.56.08a1.85,1.85,0,0,0-1.09.36c-.64.58,0,.6.83.76,1.49.27,1.9,1.56,1.76,3s.3,1.24.64.77A3,3,0,0,0,34.7,119.24Zm22,1.38c1.77,0,2,2.91.39,6.2-.47,1-.71.86-1.23-.63C54.54,122.51,54.82,120.66,56.66,120.62Zm4.1.09a1.12,1.12,0,0,1,1,.43c.95,1.09.22,2.87-2.32,5.6-.62.66-.94.92-1.17.92-.63,0-.63-.09.09-2.46C58.78,123.8,59,120.79,60.76,120.71ZM55,125.86a4.33,4.33,0,0,1,.3,1.2c-.16.44-1.29-.15-2.1-1.1-1.63-1.91-2.28-3.57-2-4.46.5-.71,1.88-1.12,2.35-.4C54.48,122.46,54.47,124.25,55,125.86Zm10.56-4.42c1.72,1-.26,3.35-4.11,5.29-1.65.82-1.53.45-.28-1.18a17.25,17.25,0,0,0,1.43-2.26C63.3,121.91,64,120.54,65.57,121.44Zm-17.15,0c.55,0,1.11.58,2.14,2.09.75,1.13,2.08,2.28,2.46,3.23-.18,1.06-5.53-2.29-5.92-3.7A1.39,1.39,0,0,1,48.42,121.45Zm76.68,3.07c1,2,1.05,3.25.25,3.7a1.87,1.87,0,0,1-2.63-1.76,14.7,14.7,0,0,0-.94-3.24c-.37-.89-.42-1.44-.12-1.49A6.62,6.62,0,0,1,125.1,124.52ZM118.69,123c-.55,1.42-.62,3.25-1,4.38-.78,2.12-3.3.38-2.45-1.75.77-1.92,2.73-3.91,3.51-4C119.23,121.6,118.74,122.83,118.69,123Zm1.56-1.1c.39,0,.71.81,1.21,2.25.68,1.94.65,3.45-.08,4.1-1.56,1.38-3.2-.63-2.57-3.15C119.32,123.09,119.81,121.94,120.25,121.9Zm-52.37.36c2,28.82-12.71,51-13.76,51.6l-5,2.75-8.75-4.8a76,76,0,0,0,14.89-43.58A13.53,13.53,0,0,0,67.88,122.26Zm48.07.09c.61-.17.19.37-.42,1.25s-1.49,3.5-2.16,3.91c-1.49.72-3.18-.66-2.28-1.86A12.1,12.1,0,0,1,116,122.35Zm8.9.19a4,4,0,0,1,1.31.47c3.11,1.53,4.65,3.56,3.32,4.52-.94.68-1.94.16-2.87-1.63a16.09,16.09,0,0,0-1.29-2C124.62,123,124.46,122.54,124.85,122.54Zm17.51,1a3.65,3.65,0,1,1-3.57,3.7A3.62,3.62,0,0,1,142.36,123.57Zm-1.1,1c-2.36,1-1.65,4.78.38,5.31.86.25,1.9-.11,1.47-.53-2.68-.85-2.7-2.84-1.62-4.3C141.67,124.77,141.43,124.44,141.26,124.52Zm-98.11,5.12c-.09,2.11.36,4.55-.63,6.84-1.52,3.51-6.38,5.12-9,4.81a2.3,2.3,0,0,0-1.71-.21,1.31,1.31,0,0,1-1.06,0c-.33-.15-.65.05-1-.07s-1-.84-.92-1.27c.12-.61.07-1.06-.64-1.26-1-.28-1.18-.81-.89-2.38.06-.34.14-.49-.08-.64a1.74,1.74,0,0,1-.52-2.35c.31-.54.51-.76,0-1.3s-.24-.76.23-1.4.59-.68.27-1.2c-.73-1.17.1-2,1.08-2.51a13.57,13.57,0,0,1,3.84-1c.51,0,.49.48.8.92.46.72-.18,1.75.19,2.12a1.22,1.22,0,0,1,.74,1.17,2.73,2.73,0,0,0,.3,1.75,2.13,2.13,0,0,1,.13,1.88c-.24.51-.21.48.11.78a3,3,0,0,1,.36,1.77l1.35-.13a13.07,13.07,0,0,1,2-5.08c-.09-1.78-.76-3.43-.7-5.78,3.33-1.21,5.73,1.65,5.6,4.56Zm51.69-4a10.1,10.1,0,0,0,3,1,4.24,4.24,0,0,0,3.11,4.14c0,3.21,0,18,0,18-3.46-5.85-5.61-13.4-6.06-23.13Zm-57.92.52a8.39,8.39,0,0,1,.26,1.26c.21,1.68,0,1.91-.46.76-.52-1.35-.55-.3,0,2.79a2,2,0,0,1,0,1.42c-.12.32-.32,1.06-.48,1.63-.47,1.7-.74,2.18-1.22.84-.25-.69-.45-.8-.28-1.34a1.86,1.86,0,0,0-.27-1.83,1.91,1.91,0,0,1-.26-1.05c.14-1.57-.55-1.58-.69-2,0-.61-.26-2.1.16-2.06a6.56,6.56,0,0,0,2.18-.15c.26-.09,1.07-.28,1.07-.28Zm51.61.2a2.35,2.35,0,1,1-2.29,2.38A2.32,2.32,0,0,1,88.53,126.35Zm-35.95,1.43,1.77.33c.39.14.11,24.66-14,42.36l-.12-4.1C46.93,156.57,51.77,144.54,52.58,127.78Zm29.92.51.33,5.86c-1-.85-3.52-2.44-3.5-2.48v-2.16s2.17.16,3.16-1.22Zm-13.6.08a5.24,5.24,0,0,1,1.16.9l-1.15.78Zm40.43.3a43.66,43.66,0,0,0,22.53.54l.51,1.44a41.2,41.2,0,0,1-24-.49Zm-36.9,1.1.41,2.52-4.3,2.81.21-3.84L71,129.8Zm38.06,2.1a1.27,1.27,0,1,1-1.24,1.29A1.26,1.26,0,0,1,110.49,131.87Zm19.58.1a1.27,1.27,0,0,1,1.27,1.26,1.26,1.26,0,1,1-1.27-1.26ZM93.4,135.92c.57,2,.45,6.52-.28,9.59a40.19,40.19,0,0,0-.35,4.19c-.13.17,4.32-3.71,5.75,1.38A2.48,2.48,0,0,1,95.67,154c-.26-.1-.18-1,.07-1.47.74-1.53-1.38-2.32-2.58-1-2.79,3.12.08,11,4.45,11.78,3.62.64,6.53-3,4.11-5.17-1.06-1-2.75.36-2,1.57s-.69,1.8-1.85.61c-2-2.09.25-5.23,3.29-4.5,4.85,1.11,3.85,8.76-1.24,9.19a7.86,7.86,0,0,1-8.15-4.41c-1.55-2.91-1.66-5.23-1-10.34.42-3,.08-5.58-.76-5.56a.83.83,0,0,0-.89.77c-.14,1.11-.27,1.32-1,.91a2,2,0,0,1,.07-3.27c1.47-1.15,3.37.64,3.29.95a5.09,5.09,0,0,0,.38-1.65c.64-4.23-.78-8.7-2.54-8-.39.15-.34.33.16.62,1.18.66.14,2.37-1.33,2.19-2.09-.24-2.56-3.18-.72-4.47,2.89-1.58,5.25.89,5.87,3.11Zm-14.24-3.53s3.7,2.28,3.9,2.86c.13.38.28,3.64.28,3.64l-6.43-4-9.21,5.74c.16-1.26.82-4.51.82-4.51l4.9-3.12C73.44,133.14,76.8,135.38,79.16,132.39Zm46,.22a1.27,1.27,0,1,1-1.24,1.29A1.27,1.27,0,0,1,125.15,132.61Zm-9.8,0a1.27,1.27,0,1,1-1.24,1.29A1.27,1.27,0,0,1,115.35,132.63Zm4.92.29a1.26,1.26,0,0,1,1.28,1.25,1.26,1.26,0,1,1-1.28-1.25Zm-12.33,1.79c3.33.7,6.67,1.42,9.87,1.77l.13,9.9-.93-.06-.14-8.84a48.09,48.09,0,0,1-8.73-1.6Zm24.79.33-.17,1.16s-5.77,1-8.78,1.4c0,2,0,8.64,0,8.64l-1.15.22V136.38c3.42-.37,6.84-.76,10.15-1.34Zm-55.83.55,6.79,4.53.8,4.8-7.91-5.31s-7.18,4.87-9.87,6.68l.82-4.52Zm31.36.9a67,67,0,0,0,8.2,1.42l.12,8-1.26-.33-.1-6.46a55.34,55.34,0,0,1-6.54-1.08Zm24.19.24-.23,1.08s-4.38.66-6.64,1.07c-.2.05-.12,7-.12,7l-1.08.16-.13-8.12Zm-12.26.89a1.27,1.27,0,1,1-1.24,1.29A1.27,1.27,0,0,1,120.19,137.62ZM76.8,140.49l8,5.46A33.23,33.23,0,0,1,86,150.37l-9.24-6-11.57,7.73,1.34-4.78Zm-48.68.16a1.33,1.33,0,0,1,1.2,1.07c.35,1,1,1.35,2.71,1.31,3.36-.18,6.88-1.77,10.06-.57,1.54.57,2.09,2.86.8,3.46s-2,.24-2.49-.87c-.45-.47-1-.4-4,.12-1.33.22-2.89.42-4.21.52-3.35.28-5.21-.79-5.62-2.8A1.83,1.83,0,0,1,28.12,140.65Zm92,1.85a1.27,1.27,0,1,1-1.24,1.29A1.26,1.26,0,0,1,120.12,142.5Zm-24.6,1.55a1.65,1.65,0,1,1-1.61,1.67A1.65,1.65,0,0,1,95.52,144.05ZM76.81,145.2l9.67,6.51,1.69,4.9-11.26-7.38-13.77,9,1.65-5Zm47.71,1.53a12.76,12.76,0,0,0,2.84,4.13s-.64,1.23-2.93,1.15c-1.24,0-1.31.16-1.74,1a9,9,0,0,1-1.72,2.14c-.8.62-2.3-.3-3.54-2.19-.45-.69-.63-.85-2-.82-2.09,0-2.84-.54-1.76-1.49.95-1.16,1.63-2.43,2.47-3.65l.94.11a7.84,7.84,0,0,1-1.81,3.43c-.55.63.22.85,1.56.57.85-.26,1.07-.16,1.7,1.15,1.31,2.5,2,2.38,3.55-.15.54-1.13.52-1.25,2-.92,1.6.16,2.09,0,1.43-.61a9.25,9.25,0,0,1-2.07-3.82Zm-47.65,3.36s11.95,7.89,11.92,7.72l2.39,5.68-14-9.4L60,165.32l2.56-5.63Zm.46,5.18L81.5,158l0,5-4.25-2.88Zm-1.07.14.08,4.91-3.74,2.24-.21-4.6Zm-4.7,3.13.18,4.7-4.3,3,0-5Zm11,.09,3.91,2.63.16,5.27-4.25-2.81Zm4.83,3.21,3.93,2.75.14,5.26-4-2.73Zm-20.79,0,0,4.86-3.91,2.7-.18-4.91Zm41.35,6.27c-.78.81-1.07.71-1.73-.64a3.25,3.25,0,0,0-3.22-2c-1.89,0-.66-1.22,1.35-1.36C107.78,164,109.54,166.3,107.92,168.13Zm-46.44-3,.2,4.83-3.94,2.24-.07-2.28,2-3.53Zm-4.56,5.7L57,172.5l-1,.67Zm46.46,36.11c-16.38,3.53-32.07,2.28-43.33.18L54.9,216l-.36,0-1.32,2.29.14.27s-4.28,8.27-6.08,10.88c21-.21,67.22-.31,67.22-.31l-2.81-5.7.15-.16-2.77-5.95-.91-1a21.21,21.21,0,0,1-1-2.24c-.38-1.06-2-4-2-4l-.23,0Zm-42.74,1.24c.21.18,21,4.12,42.48.07l1.17,2c-18.82,4.37-46.06.2-45-.2Zm.35,3.91a6.32,6.32,0,0,1,5.12,2.67,15.8,15.8,0,0,1,1.09,2.16A11.32,11.32,0,0,1,69,214.6a7.79,7.79,0,0,1,5.62-2c2.33.08,4.89,1.35,7.21,5,.58-2.12,8.23-9.32,14.53-.34.72-2.38,4.09-7.15,9.55-3.82.38.8.76,1.69.76,1.69-3.22-2.28-8.53-.75-9.79,2.8a1.5,1.5,0,0,0,.2,1.08c1.66,2.39-2.66,2.33-1.38.4a1.16,1.16,0,0,0-.13-1.38,9,9,0,0,0-6.3-3.39,8.66,8.66,0,0,0-6.4,3.36,1.52,1.52,0,0,0-.13,1.66,1,1,0,0,1-.23,1.26,1,1,0,0,1-1.58-1.21c.29-.48.24-1.06-.33-1.88a8.44,8.44,0,0,0-6.22-3.32c-3.36.08-6.76,2.53-6.55,4.54.1.88-.14,1.21-.86,1.11-.87-.12-1-.95-.35-1.63a1.2,1.2,0,0,0,0-1.12c-3.56-4.85-8.88-3.44-10.1-2.35a5.43,5.43,0,0,1,4.51-3Zm-3.16,3.36a4.31,4.31,0,0,1,3.23,1.82c.33-.34,3.34-1.79,4.81.28-3.84-.29-3.89,3.82-1.05,4.21-1.29,4,4.51,4.21,4.14.48,4.33.65,3.8-4.89-.28-4.31,2.14-1.56,3.59-1.06,6.16.74.87-1.13,4.39-2.19,5.25-.21-4-.25-3.35,4.46-.33,4.5-.9,3.27,5,4.47,4.12-.41,3.76.27,3.22-4.86-.39-4.44.27-.93,3.93-1.33,5.55.45,1.48-1.37,3.13-2.31,6.09-.35-4-.68-4.09,4.61-.34,4.29-.35,3.51,5,3.57,4.07-.48,4-1.1,1.82-5.46-1.15-4.26,1.33-1.58,3.57-.84,4.46-.52,2.75-3.17,5.15-.51,5.15-.51-4.79-.51-3.75,6.37.92,3.87a2.55,2.55,0,0,0,2.5,2.85l2.26,4.72-64.16.43,3.54-6.28a2.34,2.34,0,0,0,2.85-2.12c4.21,1.35,4.49-3.6,1.34-4.38a2.16,2.16,0,0,1,1.26-.37Zm-2.5,1.79c.42.68.07,1.12-.65,1.14A9.17,9.17,0,0,0,55.33,217.2Zm52.78.88.42.88C108.08,218.77,108,218.58,108.11,218.08Z"/></g></g></g></g></g><path id="path147-0-8-1-3-6-2-4-7" d="M130.71,223.29c7.85-.17,11.37-9,5.56-15.86-.85-1-.93-1.57.61-.61,3.92,2.61,11.43.89,11.81-7.1.48-9.86-13.31-12.69-15.9-2.22-.13,1.11-1,1.08-.81-.49a32.49,32.49,0,0,1,3.39-12.12H126A32.49,32.49,0,0,1,129.43,197c.22,1.57-.68,1.6-.82.49-2.58-10.47-16.37-7.64-15.89,2.22.38,8,7.89,9.71,11.81,7.1,1.54-1,1.46-.39.61.61-5.82,6.86-2.29,15.69,5.56,15.86Z"/><path id="path147-0-8-1-0-3-83-7-5-7" d="M47.88,26.16c7.86.17,11.38,9,5.56,15.86-.84,1-.93,1.57.62.61,3.91-2.61,11.42-.9,11.81,7.1C66.34,59.58,52.56,62.42,50,52c-.14-1.11-1-1.08-.82.49a32.75,32.75,0,0,0,3.4,12.12H43.21a32.75,32.75,0,0,0,3.4-12.12c.21-1.57-.69-1.6-.82-.49-2.59,10.47-16.37,7.63-15.9-2.22.38-8,7.89-9.71,11.81-7.1,1.55,1,1.46.39.62-.61C36.5,35.16,40,26.33,47.88,26.16Z"/></g></g></g></svg>