<svg xmlns="http://www.w3.org/2000/svg" viewBox="0 0 178.58 249.45"><defs><style>.cls-1{fill:#fff;}.cls-2{fill:#d40000;}</style></defs><g id="Layer_2" data-name="Layer 2"><g id="svg8"><g id="g6716"><path id="rect6486-8" class="cls-1" d="M8.54,0H170a8.53,8.53,0,0,1,8.54,8.53V240.92a8.53,8.53,0,0,1-8.54,8.53H8.54A8.53,8.53,0,0,1,0,240.92V8.53A8.53,8.53,0,0,1,8.54,0Z"/><path id="path6516-8" class="cls-2" d="M89.29,64.56c-4.15-6.86-8.51-13.52-14-19.2,5.46-5.69,9.82-12.35,14-19.2,4.15,6.85,8.52,13.51,14,19.2C97.81,51,93.44,57.7,89.29,64.56Z"/><path id="path6518-2" class="cls-2" d="M13.77,56A44.16,44.16,0,0,0,8,48a44.51,44.51,0,0,0,5.82-8,45.5,45.5,0,0,0,5.82,8A45.14,45.14,0,0,0,13.77,56Z"/><path id="path6522-0" class="cls-2" d="M164.81,209.47a45.5,45.5,0,0,0-5.82-8,45.14,45.14,0,0,0,5.82-8,45.14,45.14,0,0,0,5.82,8A45.5,45.5,0,0,0,164.81,209.47Z"/><path id="path6538-6" class="cls-2" d="M89.29,223.29c-4.15-6.85-8.51-13.51-14-19.2,5.46-5.69,9.82-12.35,14-19.2,4.15,6.85,8.52,13.51,14,19.2C97.81,209.78,93.44,216.44,89.29,223.29Z"/><path id="path15-34-1-4-2" class="cls-2" d="M6.26,37.41l.13-1.62c.4-5,1.48-6.73,7.62-12,3-2.55,4-3.81,4.09-5.26.39-3.44-2.66-4.51-4.64-4.53C10.9,14,8,15.56,9.38,19.19l-2.88.86c-.58-3.38,0-6.56,2.71-8,3.6-1.84,8.22-1.12,10.55,1.78a6.93,6.93,0,0,1,1.08,6.74c-2.46,5.37-10.78,7.74-11.47,14h9.2V31.09h2.72v6.38l-15-.06Z"/><path id="path15-5-4-6-4" class="cls-2" d="M172.32,212l-.13,1.62c-.4,5-1.48,6.73-7.62,12-3,2.55-3.95,3.8-4.08,5.26-.39,3.44,2.65,4.51,4.63,4.53,2.57,0,5.47-1.54,4.08-5.17l2.88-.86c.58,3.38,0,6.56-2.71,8-3.6,1.84-8.21,1.12-10.54-1.78a6.91,6.91,0,0,1-1.09-6.74c2.46-5.37,10.78-7.74,11.47-14H160v3.46h-2.72V212l15,.06Z"/></g></g></g></svg>