<svg xmlns="http://www.w3.org/2000/svg" viewBox="0 0 178.58 249.45"><defs><style>.cls-1{fill:#fff;}.cls-2{fill:#d40000;}</style></defs><g id="Layer_2" data-name="Layer 2"><g id="svg8"><g id="g6800"><path id="rect6962-4" class="cls-1" d="M8.54,0H170a8.53,8.53,0,0,1,8.54,8.53V240.92a8.53,8.53,0,0,1-8.54,8.53H8.54A8.53,8.53,0,0,1,0,240.92V8.53A8.53,8.53,0,0,1,8.54,0Z"/><path id="path6994-9" class="cls-2" d="M13.77,56A44.16,44.16,0,0,0,8,48a44.51,44.51,0,0,0,5.82-8,45.5,45.5,0,0,0,5.82,8A45.14,45.14,0,0,0,13.77,56Z"/><path id="path6996-5" class="cls-2" d="M130.7,64.56c-4.14-6.86-8.51-13.52-14-19.2,5.45-5.69,9.82-12.35,14-19.2,4.15,6.85,8.52,13.51,14,19.2C139.22,51,134.85,57.7,130.7,64.56Z"/><path id="path6998-7" class="cls-2" d="M164.81,209.47a45.5,45.5,0,0,0-5.82-8,45.14,45.14,0,0,0,5.82-8,45.14,45.14,0,0,0,5.82,8A45.5,45.5,0,0,0,164.81,209.47Z"/><path id="path7000-7" class="cls-2" d="M47.88,64.56c-4.15-6.86-8.52-13.52-14-19.2,5.45-5.69,9.82-12.35,14-19.2,4.15,6.85,8.51,13.51,14,19.2C56.39,51,52,57.7,47.88,64.56Z"/><path id="path7002-0" class="cls-2" d="M130.7,117.47c-4.14-6.85-8.51-13.51-14-19.2,5.45-5.68,9.82-12.34,14-19.2,4.15,6.86,8.52,13.52,14,19.2C139.22,104,134.85,110.62,130.7,117.47Z"/><path id="path7004-0" class="cls-2" d="M47.88,117.47c-4.15-6.85-8.52-13.51-14-19.2,5.45-5.68,9.82-12.34,14-19.2,4.15,6.86,8.51,13.52,14,19.2C56.39,104,52,110.62,47.88,117.47Z"/><path id="path7008-2" class="cls-2" d="M89.29,143.92c-4.15-6.85-8.51-13.51-14-19.2,5.46-5.68,9.82-12.34,14-19.2,4.15,6.86,8.52,13.52,14,19.2C97.81,130.41,93.44,137.07,89.29,143.92Z"/><path id="path7016-2" class="cls-2" d="M47.88,223.3c-4.15-6.85-8.52-13.51-14-19.2,5.45-5.69,9.82-12.35,14-19.2,4.15,6.85,8.51,13.51,14,19.2C56.39,209.79,52,216.45,47.88,223.3Z"/><path id="path7018-0" class="cls-2" d="M130.7,223.3c-4.14-6.85-8.51-13.51-14-19.2,5.45-5.69,9.82-12.35,14-19.2,4.15,6.85,8.52,13.51,14,19.2C139.22,209.79,134.85,216.45,130.7,223.3Z"/><path id="path7020-7" class="cls-2" d="M130.7,170.38c-4.14-6.85-8.51-13.51-14-19.2,5.45-5.69,9.82-12.35,14-19.2,4.15,6.85,8.52,13.51,14,19.2C139.22,156.87,134.85,163.53,130.7,170.38Z"/><path id="path7022-4" class="cls-2" d="M47.88,170.35c-4.15-6.85-8.52-13.51-14-19.2,5.45-5.68,9.82-12.34,14-19.2,4.15,6.86,8.51,13.52,14,19.2C56.39,156.84,52,163.5,47.88,170.35Z"/><path id="path29-5-3-7-8" class="cls-2" d="M6.4,32.38l2.41-.76a4.28,4.28,0,0,0,4.7,3c3.5-.27,4.66-4.18,4.92-7.64a6.94,6.94,0,0,1-5.15,2.11c-5.57-.3-7-4.76-7-9.43-.15-3.94,1.47-6.79,4.27-8.1a9.55,9.55,0,0,1,6.35.13c3.41,1.8,4.68,4.91,4.45,12.34,0,6.11-1.3,13.23-7.85,13.39a6.35,6.35,0,0,1-7-5Zm9.48-6.7a5.7,5.7,0,0,0,2.29-2.4,4.54,4.54,0,0,0,.44-3c-.31-4.43-2.63-6.94-6-6.45a4.06,4.06,0,0,0-3.5,3.29C8,20.75,9.4,25,12,26a5,5,0,0,0,3.89-.28Z"/><path id="path29-6-2-9-2" class="cls-2" d="M172.18,217.07l-2.41.76a4.29,4.29,0,0,0-4.7-3c-3.5.28-4.66,4.19-4.92,7.64a7,7,0,0,1,5.15-2.1c5.57.3,7,4.76,7,9.43.15,3.93-1.47,6.79-4.26,8.1a9.58,9.58,0,0,1-6.36-.13c-3.41-1.8-4.68-4.91-4.45-12.34,0-6.12,1.3-13.24,7.85-13.39a6.35,6.35,0,0,1,7.05,5Zm-9.48,6.7a5.7,5.7,0,0,0-2.29,2.4,4.54,4.54,0,0,0-.44,3c.31,4.43,2.63,6.94,6,6.44,1.88-.28,2.91-1.33,3.5-3.29,1.09-3.61-.29-7.84-2.88-8.82a5,5,0,0,0-3.89.28Z"/></g></g></g></svg>