<svg xmlns="http://www.w3.org/2000/svg" viewBox="0 0 178.58 249.45"><defs><style>.cls-1{fill:#fff;}</style></defs><g id="Layer_2" data-name="Layer 2"><g id="svg8"><g id="g5120"><path id="rect6355-6-85-9-3-2" class="cls-1" d="M8.54,0H170a8.53,8.53,0,0,1,8.54,8.53V240.92a8.53,8.53,0,0,1-8.54,8.53H8.54A8.53,8.53,0,0,1,0,240.92V8.53A8.53,8.53,0,0,1,8.54,0Z"/><path id="path147-0-8-1-6-1-1-0-9-1-8" d="M89.29,105.86c-7.86.17-11.38,9-5.56,15.86.84,1,.93,1.57-.62.61-3.91-2.61-11.42-.89-11.81,7.1-.47,9.86,13.31,12.69,15.9,2.22.14-1.11,1-1.08.82.49a32.69,32.69,0,0,1-3.4,12.12H94a32.69,32.69,0,0,1-3.4-12.12c-.21-1.57.68-1.6.82-.49,2.59,10.47,16.37,7.64,15.9-2.22-.39-8-7.9-9.71-11.81-7.1-1.55,1-1.46.39-.62-.61,5.82-6.86,2.3-15.69-5.56-15.86Z"/><path id="path147-6-9-8-7-0-5-0-8-3" d="M164.81,209.47c3.14-.07,4.55-3.75,2.22-6.61-.33-.42-.37-.65.25-.25,1.57,1.09,4.57.37,4.72-3,.19-4.11-5.32-5.29-6.35-.93-.06.46-.42.45-.33-.2a13.8,13.8,0,0,1,1.36-5.05h-3.74a14,14,0,0,1,1.36,5.05c.09.65-.27.66-.33.2-1-4.36-6.55-3.18-6.36.93.16,3.33,3.16,4,4.73,3,.62-.4.58-.17.24.25-2.32,2.86-.91,6.54,2.23,6.61Z"/><path id="path41-6-3-5-1" d="M5.7,37.47V35.21H7.85l4.59-24.14h2.61l5.06,24.14h1.74v2.26H15.92V35.21h1.6l-.64-3.7h-6l-.46,3.7H12v2.26Zm10.67-8.59L13.77,16,11.34,28.88Z"/><path id="path41-6-4-0-2-8" d="M156.73,212v2.26h2.16l4.59,24.14h2.61l5-24.14h1.74V212H167v2.26h1.59l-.63,3.7h-6l-.46-3.7h1.59V212Zm10.68,8.59-2.6,12.92-2.44-12.92Z"/><path id="path147-6-9-8-7-4-5-6-8-9" d="M13.77,40c-3.14.07-4.55,3.75-2.22,6.61.34.41.37.65-.25.25-1.56-1.09-4.57-.37-4.72,3-.19,4.11,5.32,5.29,6.36.92.05-.46.41-.45.33.21a14.21,14.21,0,0,1-1.36,5h3.73a14.21,14.21,0,0,1-1.36-5c-.08-.66.28-.67.33-.21,1,4.37,6.55,3.19,6.36-.92-.15-3.33-3.16-4-4.73-3-.61.4-.58.16-.24-.25,2.33-2.86.92-6.54-2.22-6.61h0Z"/></g></g></g></svg>