<svg xmlns="http://www.w3.org/2000/svg" viewBox="0 0 178.58 249.45"><defs><style>.cls-1{fill:#fff;}</style></defs><g id="Layer_2" data-name="Layer 2"><g id="svg8"><g id="g5526"><path id="rect6355-6-85-3-6-8-7" class="cls-1" d="M8.54,0H170a8.53,8.53,0,0,1,8.54,8.53V240.92a8.53,8.53,0,0,1-8.54,8.53H8.54A8.53,8.53,0,0,1,0,240.92V8.53A8.53,8.53,0,0,1,8.54,0Z"/><path id="path147-0-8-1-6-13-2-22-1-5" d="M130.7,26.49c-7.85.17-11.38,9-5.56,15.86.85,1,.93,1.57-.61.61-3.92-2.61-11.43-.89-11.81,7.1-.48,9.86,13.31,12.7,15.89,2.22.14-1.11,1-1.08.82.49A32.44,32.44,0,0,1,126,64.89h9.33A32.44,32.44,0,0,1,132,52.77c-.22-1.57.68-1.6.81-.49,2.59,10.48,16.38,7.64,15.9-2.22-.38-8-7.89-9.71-11.81-7.1-1.54,1-1.46.39-.61-.61,5.81-6.86,2.29-15.69-5.56-15.86Z"/><path id="path147-0-8-1-6-75-2-83-21-1-8" d="M47.87,26.49c-7.85.17-11.37,9-5.55,15.86.84,1,.93,1.57-.62.61-3.92-2.61-11.43-.89-11.81,7.1-.47,9.86,13.31,12.7,15.9,2.22.13-1.11,1-1.08.82.49a32.64,32.64,0,0,1-3.4,12.12h9.34a32.45,32.45,0,0,1-3.4-12.12c-.22-1.57.68-1.6.82-.49,2.59,10.48,16.37,7.64,15.9-2.22-.39-8-7.9-9.71-11.81-7.1-1.55,1-1.46.39-.62-.61,5.82-6.86,2.3-15.69-5.56-15.86Z"/><path id="path147-0-8-1-6-7-5-5-7-3-5-5" d="M130.7,223.63c-7.85-.17-11.38-9-5.56-15.87.85-1,.93-1.57-.61-.61-3.92,2.62-11.43.9-11.81-7.1-.48-9.85,13.31-12.69,15.89-2.21.14,1.1,1,1.08.82-.49A32.44,32.44,0,0,0,126,185.23h9.33A32.44,32.44,0,0,0,132,197.35c-.22,1.57.68,1.59.81.49,2.59-10.48,16.38-7.64,15.9,2.21-.38,8-7.89,9.72-11.81,7.1-1.54-1-1.46-.39-.61.61,5.81,6.86,2.29,15.7-5.56,15.87Z"/><path id="path147-0-8-1-6-75-6-1-2-7-9-3" d="M47.87,223.63c-7.85-.17-11.37-9-5.55-15.87.84-1,.93-1.57-.62-.61-3.92,2.62-11.43.9-11.81-7.1-.47-9.85,13.31-12.69,15.9-2.21.13,1.1,1,1.08.82-.49a32.64,32.64,0,0,0-3.4-12.12h9.34a32.45,32.45,0,0,0-3.4,12.12c-.22,1.57.68,1.59.82.49,2.59-10.48,16.37-7.64,15.9,2.21-.39,8-7.9,9.72-11.81,7.1-1.55-1-1.46-.39-.62.61,5.82,6.86,2.3,15.7-5.56,15.87Z"/><path id="path147-0-8-1-6-2-00-7-1-1-4" d="M89.29,52.94c-7.86.18-11.38,9-5.56,15.87.84,1,.93,1.57-.62.61-3.91-2.62-11.42-.9-11.81,7.1-.47,9.85,13.31,12.69,15.9,2.22.14-1.11,1-1.09.82.48a32.64,32.64,0,0,1-3.4,12.12H94a32.64,32.64,0,0,1-3.4-12.12c-.22-1.56.68-1.59.82-.48,2.59,10.47,16.37,7.63,15.9-2.22-.39-8-7.9-9.72-11.81-7.1-1.55,1-1.46.39-.62-.61,5.82-6.86,2.3-15.69-5.56-15.87Z"/><path id="path147-0-8-1-6-2-0-8-6-8-1-8" d="M89.29,197.17c-7.86-.17-11.38-9-5.56-15.86.84-1,.93-1.58-.62-.62-3.91,2.62-11.42.9-11.81-7.1-.47-9.85,13.31-12.69,15.9-2.21.14,1.1,1,1.08.82-.49a32.64,32.64,0,0,0-3.4-12.12H94a32.64,32.64,0,0,0-3.4,12.12c-.22,1.57.68,1.59.82.49,2.59-10.48,16.37-7.64,15.9,2.21-.39,8-7.9,9.72-11.81,7.1-1.55-1-1.46-.38-.62.62,5.82,6.86,2.3,15.69-5.56,15.86Z"/><path id="path147-6-9-8-7-0-5-6-83-3-7" d="M164.81,209.47c3.14-.07,4.55-3.75,2.22-6.61-.33-.42-.37-.65.25-.25,1.57,1.09,4.57.37,4.72-3,.19-4.11-5.32-5.29-6.35-.93-.06.46-.42.45-.33-.2a14,14,0,0,1,1.36-5.05h-3.74a14,14,0,0,1,1.36,5.05c.09.65-.27.66-.33.2-1-4.36-6.55-3.18-6.36.93.16,3.33,3.16,4,4.73,3,.62-.4.58-.17.24.25-2.32,2.86-.91,6.54,2.23,6.61Z"/><path id="path147-0-8-1-6-75-2-9-77-44-0-7" d="M47.87,79.4c-7.85.17-11.37,9-5.55,15.86.84,1,.93,1.58-.62.62-3.92-2.62-11.43-.9-11.81,7.1-.47,9.85,13.31,12.69,15.9,2.21.13-1.1,1-1.08.82.49a32.64,32.64,0,0,1-3.4,12.12h9.34a32.45,32.45,0,0,1-3.4-12.12c-.22-1.57.68-1.59.82-.49,2.59,10.48,16.37,7.64,15.9-2.21-.39-8-7.9-9.72-11.81-7.1-1.55,1-1.46.38-.62-.62,5.82-6.86,2.3-15.69-5.56-15.86Z"/><path id="path147-0-8-1-6-75-2-8-0-3-9-3" d="M47.87,170.71c-7.85-.17-11.37-9-5.55-15.86.84-1,.93-1.57-.62-.61-3.92,2.61-11.43.89-11.81-7.1-.47-9.86,13.31-12.69,15.9-2.22.13,1.11,1,1.08.82-.49a32.69,32.69,0,0,0-3.4-12.12h9.34a32.5,32.5,0,0,0-3.4,12.12c-.22,1.57.68,1.6.82.49,2.59-10.47,16.37-7.64,15.9,2.22-.39,8-7.9,9.71-11.81,7.1-1.55-1-1.46-.39-.62.61,5.82,6.86,2.3,15.69-5.56,15.86Z"/><path id="path147-0-8-1-6-75-2-9-7-1-9-7-9" d="M130.7,79.4c-7.85.17-11.38,9-5.56,15.86.85,1,.93,1.58-.61.62-3.92-2.62-11.43-.9-11.81,7.1-.48,9.85,13.31,12.69,15.89,2.21.14-1.1,1-1.08.82.49A32.44,32.44,0,0,1,126,117.8h9.33A32.44,32.44,0,0,1,132,105.68c-.22-1.57.68-1.59.81-.49,2.59,10.48,16.38,7.64,15.9-2.21-.38-8-7.89-9.72-11.81-7.1-1.54,1-1.46.38-.61-.62,5.81-6.86,2.29-15.69-5.56-15.86Z"/><path id="path147-0-8-1-6-75-2-8-5-1-52-2-8" d="M130.7,170.71c-7.85-.17-11.38-9-5.56-15.86.85-1,.93-1.57-.61-.61-3.92,2.61-11.43.89-11.81-7.1-.48-9.86,13.31-12.69,15.89-2.22.14,1.11,1,1.08.82-.49A32.49,32.49,0,0,0,126,132.31h9.33A32.49,32.49,0,0,0,132,144.43c-.22,1.57.68,1.6.81.49,2.59-10.47,16.38-7.64,15.9,2.22-.38,8-7.89,9.71-11.81,7.1-1.54-1-1.46-.39-.61.61,5.81,6.86,2.29,15.69-5.56,15.86Z"/><path id="path147-6-9-8-7-4-5-62-52-8-0" d="M13.77,40c-3.14.07-4.55,3.75-2.22,6.61.34.41.37.65-.25.25-1.56-1.09-4.57-.37-4.72,3-.19,4.11,5.32,5.29,6.36.92.05-.46.41-.45.33.21a14.21,14.21,0,0,1-1.36,5h3.73a14.21,14.21,0,0,1-1.36-5c-.08-.66.28-.67.33-.21,1,4.37,6.55,3.19,6.36-.92-.15-3.33-3.16-4-4.73-3-.61.4-.58.16-.24-.25,2.33-2.86.92-6.54-2.22-6.61h0Z"/><path id="path31-6-7-6" d="M5.76,37.47V11.07H8.32v26.4Z"/><path id="path33-9-3-6" d="M15.9,11.07c-2.46,0-4.44,2.25-4.44,5.05V32.43c0,2.79,2,5,4.44,5h1.44a4.77,4.77,0,0,0,4.45-5V16.12c0-2.8-2-5.05-4.45-5.05Zm.75,2.5a2.56,2.56,0,0,1,2.62,2.51V32.6a2.63,2.63,0,0,1-5.25,0V16.08A2.56,2.56,0,0,1,16.65,13.57Z"/><path id="path31-1-4-0-7" d="M172.82,212v26.4h-2.56V212Z"/><path id="path33-5-7-4-0" d="M162.68,238.38c2.46,0,4.44-2.25,4.44-5V217c0-2.79-2-5-4.44-5h-1.44a4.77,4.77,0,0,0-4.45,5v16.31c0,2.8,2,5,4.45,5Zm-.74-2.5a2.56,2.56,0,0,1-2.63-2.51V216.84a2.63,2.63,0,0,1,5.25,0v16.53A2.56,2.56,0,0,1,161.94,235.88Z"/></g></g></g></svg>