<svg xmlns="http://www.w3.org/2000/svg" viewBox="0 0 178.58 249.45"><defs><style>.cls-1{fill:#fff;}.cls-2{fill:#e2cf00;}.cls-3{fill:#131f67;}.cls-4{fill:#d40000;}</style></defs><g id="Layer_2" data-name="Layer 2"><g id="svg8"><g id="g4254"><g id="g11322-4-2"><path id="rect6355-6-85-3-39-1-8" class="cls-1" d="M8.54,0H170a8.53,8.53,0,0,1,8.54,8.53V240.92a8.53,8.53,0,0,1-8.54,8.53H8.54A8.53,8.53,0,0,1,0,240.92V8.53A8.53,8.53,0,0,1,8.54,0Z"/><path id="path147-6-9-8-7-0-5-6-79-2-4" d="M164.81,209.47c3.14-.07,4.55-3.75,2.22-6.61-.33-.42-.37-.65.25-.25,1.57,1.09,4.57.37,4.72-3,.19-4.11-5.32-5.29-6.35-.93-.06.46-.42.45-.33-.2a13.8,13.8,0,0,1,1.36-5.05h-3.74a14,14,0,0,1,1.36,5.05c.09.65-.27.66-.33.2-1-4.36-6.55-3.18-6.36.93.16,3.33,3.16,4,4.73,3,.62-.4.58-.17.24.25-2.32,2.86-.91,6.54,2.23,6.61Z"/><path id="path147-6-9-8-7-4-5-62-3-3-7" d="M13.77,40c-3.14.07-4.55,3.75-2.22,6.61.34.41.37.65-.25.25-1.56-1.09-4.57-.37-4.72,3-.19,4.11,5.32,5.29,6.36.92.05-.46.41-.45.33.21a14.21,14.21,0,0,1-1.36,5h3.73a14.21,14.21,0,0,1-1.36-5c-.08-.66.28-.67.33-.21,1,4.37,6.55,3.19,6.36-.92-.15-3.33-3.16-4-4.73-3-.61.4-.58.16-.24-.25,2.33-2.86.92-6.54-2.23-6.61Z"/><path id="path35-5-6-2" d="M13.69,11.07v2.76h2.68s.07,2.67.09,8.32c0,5.48.13,8.21-.22,9.77-.94,3.6-6.16,3.62-7.19,1a10.22,10.22,0,0,1-.47-4.19H5.69s0,.76,0,1.69c0,4.05,1.36,6,4.5,6.76s7-.46,8.34-3.22c.8-1.57.71-1.68.73-11.18,0-6.34.1-9,.1-9h2.47V11.07Z"/><path id="path35-6-4-1-2" d="M164.89,238.38v-2.76h-2.68s-.06-2.67-.09-8.32c0-5.49-.13-8.21.22-9.77.94-3.6,6.16-3.62,7.19-1a10.2,10.2,0,0,1,.47,4.19h2.89s0-.76,0-1.7c0-4.05-1.36-6-4.5-6.75s-7,.46-8.34,3.22c-.8,1.57-.7,1.68-.72,11.18,0,6.34-.11,9-.11,9h-2.47v2.76Z"/></g><g id="g4210"><g id="g4164"><g id="g5275-8-4-5"><g id="layer1-1-8-4-5"><g id="g3799-8-1-3"><path id="path3306-4-9-5" class="cls-2" d="M129.28,24c.69-1,3.64,5.85,5.54,11,.93,2.54,2.18,4.64,1.67,5.31-1.36,1.37-4.86.14-7.4-1.82a22.42,22.42,0,0,1-4.65-5.18ZM153.15,29l.11,4a89.33,89.33,0,0,0-8.66,8.66h8.69c.61,49.65.55,148.45.48,148.44s-10.11-10.27-9.87-10.31c0,0-.29-59.8-.32-100-.08-.19,5.28-.2,5.62-2.84.23-1.74-5.62-1.5-5.72-1.61,0-18.08,0-30.85,0-30.85l-5.38-.18ZM121.57,47.63c.78,1.57,2,7.57,3,7.42,4.37-1.45,5.78,5,1.26,5.35-1.71.13-3.63-2.11-4.7-4.9-.51-1.45,0-8.45.47-7.87Zm-1,9c1.29,2.12,2.52,9.83,4.87,9.4a2.71,2.71,0,0,1,3.31,3c-1.1,4.64-9,.23-11-.83A52.76,52.76,0,0,0,120.58,56.63Zm16.59,21.76c-1.8,4.08-1.32,7.43.21,11.54-4.67,2-8.84,4.2-13.44,6.61-.14.46-.88-15.7.86-23.23.53-1.12,2.42-.23,3.51.32A74,74,0,0,1,137.17,78.39ZM54.33,152.26c1,7.6-1.16,24.8-1.16,24.8s-11.27-6.25-12.05-6.74c2.13-4-.78-13.16-.46-11.51.75-.53,13.42-7.31,13.67-6.55ZM59,183.8c-.21.49-1,6.18-1.27,6.2-.82.07-2-5.57-4.11-7.43-4,.45-4.42-2.23-3.64-3.53-.2-.57,1.27-1.81,2.64-1.69C56,178.69,60.6,179.87,59,183.8Zm45.33,9.71s-3,16.73-3,16.7c-7.33,1.07-14.41,2.29-20.95,1.54,1.29-17.38,3.32-32.41,8.9-35l-11.55-9.32s-12.83,8-12.1,7.9c.32-.08.57-6.82.75-17.71-.32-28.43-16.64-57.21-17.28-56.92-.34-.23,13.91-1.34,24.15,3.08l.46-37.64s-5.08-2.54-6-3.72c-1.87-6.55,3.18-8.22,6.21-6.58,1.42-5,3.58-17.28,3.65-17.28a95.72,95.72,0,0,1,20.92-1.61,109.68,109.68,0,0,0-2.3,16C95.28,61.63,93.5,69.85,89,71.81c.81-.32,11.33,9,11.33,9l12.92-8c-4.15,27.09,3,53.4,15.2,74.68-6.17.72-13.17.38-24.08-2.89,0,0,.61,37.71.62,37.5C117,186.88,110.42,196.17,104.31,193.51Zm-47,3.38c0,.38-.22,4.64-.22,4.64-1.71-2-3.09-7.9-3.43-7.8,0,0-2.19.34-2.87-.39-2.23-2.38,0-5.18,2.18-4.66s4.65,4.37,4.34,8.21ZM34.66,69s.47,66.88.46,100.41c-8.44-.13-6.79,4.57.11,4.07l0,30.91,4.57.16s-8.6,9-14.06,14.76l-.12-2.92,8.3-9h-8.6l0-148.31ZM49,224.37c-2.08.45-4.25-9.18-7.86-15,4.1-2.47,10.58,2.22,12,6C52.23,218.53,49,224.33,49,224.37Z"/><path id="path3304-4-6-6" class="cls-3" d="M23.69,19.12v211.2h131.2V19.12Zm43.18.82L130,20c-.88,1.79-1.72,4.1-1.72,4.1,1.93.77,3.43,3.67,4.35,6.11.82,2.15,2.22,7.38,4.08,9.94-3.25,1.84-11.4-2.28-12.56-7.89l-2.73,4.66c-18.5-3.6-38.52-1-44.64-.13-3-5.76-7.29-10.9-9.94-16.84Zm80,.67c2.34,0,4.48,0,6.06,0v7.44l-16.53,17,6.55.28-.23,29.32c-2.39.5-5.21,3-5.21,3l-11.1-6s2.88-1.21,2.8-3.15c-.12-2.16-1.41-3.93-4-3.26-.59.08-.86-.16-1.43-1.49-1.08-2.54-2.15-5.33-1.73-5.24a8.48,8.48,0,0,0,2.76,1.87,3.13,3.13,0,0,0,3.87-4.23c-.88-2.08-2.35-2.2-3.82-2a1,1,0,0,1-.54-.56,22,22,0,0,1-1.73-5.24c-.85-4-1-9-.42-10.29.86-1.74,2-4.11,2-4.11,2.31,4.44,7.36,8.32,13,6.95.19-.12.23-.75,0-1.11-2.1-3.34-2.45-6.21-3.77-9.58-1.4-3.53-2.45-5.13-4.08-6.44l1.78-3.24s8.67,0,15.67,0Zm-121.09.15H65.66L76,38.17c.2.34.5.22.72.55l-3,16.35c-4.8-2.22-8.84,3.52-6.22,8.17-14.8,5.43-31.83,19-31.83,19l-.11-13.46L25.74,58.65Zm127.67,8.12c-.59,16.58.24-2-.22,52.9l.32,104.64a7.61,7.61,0,0,1,.61,4.2l-10.25-10.87,0-30.42s-9.7-14.38-11.93-21C126,113.6,124.46,105.06,123.74,93l1.08-1.72-1.2-1.54v-4.1l1.6-1.63-1.46-1.86.4-3.84,1.14-1c-1-1.12-.67-2.72-.49-3.84.29-.87.76-.75,1.46-.58,3.65,1,7.34,3.63,10.71,5.67-.15,2-2.61,6.55.82,11.57,1.26,1,4.94.61,5.26.75l0,15.47-2.59.15,1.94-2.2-2.64.2,1.79-1.86-2.75-.12,2-2.1-2.7.06,2-2-2.55-.07,1.68-1.86-2.8.22,2-2.22-3,.06,2.28-2.07-3,0,.9-1-.8-.4c-.81.38-5.67,3-5.67,3,0,.42,4.11-1.1,4.3-1,1.22,5.43,6.51,17.44,10,20.94L143.72,80c.53-.5,1.38-.26,1.93-.48,1.77.1,4.72-2.87,3.18-3.46-.81-.18-5.28-.95-5.29-1.17.23-9.66.34-19.72-.07-30.22-1.25-.19-5.33-.42-5.33-.42s15-15.7,15.27-15.38ZM95.55,36.74h0c2.06,0,3.34.21,3,.73-.08.27.48-.55.48-.55,0-.36,14.73.36,22,1.75.12,1-.13,1.47,0,3.32-4.44-.74-7.67.72-8.65,3.85-.59,1.69-.31,3.22.59,7.75s.89,3.93.78,4.53a4.89,4.89,0,0,1-1.95,2.35,2.46,2.46,0,0,0-.66,1.35,1.88,1.88,0,0,0,.56-.44c.48-.64,1.1-.58,1.81-1,1.67-.87,1.61-1.72.63-5.34a34.5,34.5,0,0,1-1-4.36s.57.45,1.25.92a8.58,8.58,0,0,0,3.15,1.58c-1.19-1.27-2.41-1.8-3.34-3.11a9.31,9.31,0,0,0,6.37-.16s-.28,1.83-.39,4.28c-.28,6.22-1.74,12.84-5.86,16.67-5.89,5.48-15.57,1.76-21-3.32l-.58.89c3.61,3,9.86,6.83,16,6.1-2.54,2.13-8.16,5.66-8.16,5.66-3.85-2.8-6.69-5.6-10.92-8.64l-.74.49,11.63,9.26L113,73.06s-.52,8-.72,10.86l5.44-4.82-4.19-6.23L118,68.28s-.75.1.07-1.32c2.49-6.73,2.84-13.24,3.47-20.11a24.71,24.71,0,0,0,1.84,6.24c.87,2.25,1.21,2.23,2.19,1.91,5.32-.45,2.91,9.85-3.37,3.11-.27-.29-.73-.64-.75-.57a36,36,0,0,0,2.36,7.09c.74,1.32.75,1.51,1.84,1.39,2-.21,2.73.52,2.94,2.68-.27,4.08-4.67,2.36-7.49,1.1a26.68,26.68,0,0,0,1.89,2,3.44,3.44,0,0,1,.89,1.29l-.17,2.17-4.31,4L123,84.49l-.14,1.88L119,90.93l4,4.4,0,1.57-3.28,4.38,4.4,3.54.21,1.41s-2.82,5.25-2.74,5.44,4.76,3.42,4.76,3.42l.47,2.2-2,5.6,4.89,2.8.89,2.53-1.37,5.19,5.06,2.35,1.45,2.92-.94,5.45,5.68,1.69,1.5,2.4-.19,4.79,1.44.14v1.39l-1.62-.22-.25,6.61,1.87.17v1.24h-2.35l-1-1,.45-7.44-7.26-1.22-.69-.93,1.21-6.89-6.81-2-.92-1.67,1.93-7.16L121,131l-.45-1.33,2.91-6.36-6.31-3.08-.4-1.53,3.51-6.56L114,107.6l.19,1.16,5.05,3.62-2.93,5.6c0,2.36,2,7.75,2.83,10.27l-9.64,6.51c4.13,2.49,9.34,2.41,14.13,3.35a6.73,6.73,0,0,0,.57,1.27c1.39,2.24,2.64,5.09,4.19,8a10.55,10.55,0,0,1-2.87.71c-3.39,10.27-.55,24.46-6.38,32.38l-.2.07c-.55.19-.93-.72-.93-1.34a1.43,1.43,0,0,1,1.14-1.4v-.72a2.14,2.14,0,0,0-1.86,2.12,2.18,2.18,0,0,0,.74,1.63,10.18,10.18,0,0,0-1,.43l-1.78-2,3.93-3.9v-1.31c-1.68,1.75-5,5.21-5,5.21l2.15,2.26-1.06.5-1.74-1.92-3.9,4-1-.69a46.24,46.24,0,0,1,4.13-4.34c-1-1.2-4.78-4.86-4.93-5v1.31l3.87,3.76-3.92,3.88s-2.39-.76-3.34-1.11c1.29,1.06,3.6,2,4.86,2.9,5.69,3.37.29,10.34-5,8.61-.14-.56-2.87,16.49-2.87,16.49s-17.32,1.71-21.06,1.74c.52-2.46,1.44-11.38,1.44-11.38,1-8.67,1.81-19.57,7.51-23.17a11,11,0,0,0-1.63-1.41s.67.71.69.79a.68.68,0,0,1-.31.55,14.32,14.32,0,0,0-2.63,3.07c-4.7-4.1-12.06-7.63-16.5-6.16-1.75.36-2.52,2.06-3.45.68,3.13-19.33-1.25-40.11-6.36-54.89,1.61-.57,9.87-6.13,9.87-6.13-4.28-2.62-13.14-2.06-14.63-3.07a1.91,1.91,0,0,0,.92,3.57,2,2,0,0,0,.56-.08c.5,1.21.92,2.28.92,2.28L51.19,114,53,107.85l-.61-1.35-2.21,8,7.1,3.06.48,1.41-2.94,6,6.34,3.78.27,1.2L58,136.42l6.14,4.74L59.67,147l5.53,4.67-.06.77-4.59,5.3,4.74,4.9.14,2-5.17,4.61,4.46,6.51a19.79,19.79,0,0,0-4.12,4.11l-1.09-.48,4-3-4.24-6.15-4.46,4,2.42,4-1.48-.67-1.35-2.13.22-2.17,4.41-4-3.79-5.52,0-1S57.54,160,59.25,158l-4.8-5.32,3.93-5-5-4.23.14,1.27,3.65,3.09-2.8,3.41c-.2,2.05.24,5.58-.8,7.12,1.69,1.66.8,5.66,0,7,1.61,1.92.69,6.12-.34,6.3,1.23,1.55.74,4.7-.29,5.72-.33.17,4.4,1.89,7.38,3.94-2.48,4.64-1.9,9-2.69,10.57a77.47,77.47,0,0,0-3.63-8.8c-.13-.25-.39-.19-.78-.2-4.93-.44-4.46-4.52-.77-5.56-3.68-1.81-8.46-5.71-11.21-6.75a14,14,0,0,0,.94-4.77,20.49,20.49,0,0,0-1-6.44l1.56-1c.31-1.34,2-1.37,2.22-2.33-.37-4.11-8.35-19.83-10-21.61-.64,11.22.58,23.4,0,34.61-7.53,0-9.14,4,0,4.65-.17,10.17,0,30.58,0,30.58l5.38,0S27,218.09,25.76,219.26C24.62,170.84,24.67,59,24.67,59l10.16,10.2.11,31.78c3.4,3.46,5.34,8.5,7.37,11.77l5.55,2.7-1.31,4.48.56,1.28,1.74-6.34-6.08-2.9-.64-1.31,1-6-5.75-2-1-1.37.36-5.84-1.21-.36V93.93l1.2.1.43-6.54L35.56,87V84.75a10,10,0,0,1,3.11,2.54l-.57,7.27L45.39,96l.54.77-1.34,7.27,7.65,2.35c-.79-1.94-1.83-3.76-2.69-5.67,1.05-.3,2.14-.37,3.21-.6.29-9.82,0-20,.26-29.27,2.73-.77,4.08-2.56,5.94-3.07a1.27,1.27,0,0,1,.2,2.52V71a1.89,1.89,0,0,0,1.7-1.88A1.92,1.92,0,0,0,60,67.47l1.06-.38,1.86,2.11-3.75,3.61v1.1l4.71-4.74-2.09-2.41L63,66.11l1.91,2s4.09-4.2,3.83-4.28c-3.58-4.57-.06-10.18,5.37-8.06C75.35,50,76.51,44.72,77.48,38.7c-1.28-.16,11.9-2,18.07-2Zm10,4.52c-2.44,0-5.54,1.2-7.46,2.14-1.76.79-1.42,1.27-.32.93,1.6-.42,3.3-.85,4.85-1.15a9.87,9.87,0,0,1,5.36.6c.94.46,1.27.19.85-.71a3.35,3.35,0,0,0-3.28-1.81ZM118,43.2a3.76,3.76,0,0,1,3,1.57l0,1c-1.94-1.71-5.23-1.12-7.07-.13A4.47,4.47,0,0,1,118,43.2Zm-15.33,1a5.9,5.9,0,0,0-4.41,1.53,12.19,12.19,0,0,1,8.32-.07,6.92,6.92,0,0,1,1.35.83l-.34.22a5,5,0,0,1-1.36-.25,10.36,10.36,0,0,0-7.67.21,19.77,19.77,0,0,1-1.86.9l0,.79a5.58,5.58,0,0,1,2.55.9c2.25,1.24,3.34,1.12,5.48,1.1a5.55,5.55,0,0,0,1.13-.16,6.37,6.37,0,0,1-1.47.86,37.1,37.1,0,0,0-4.23,1.65,16.81,16.81,0,0,0,7.46-2.48c1.32-1,1.67-1.28,1.12-1.69s-.9-.39-.2-1.11a3.67,3.67,0,0,0,.67-.89c0-.52-3.11-2.17-4.91-2.28-.55,0-1.11-.06-1.65-.06Zm14.73,1.09a4,4,0,0,1,3.42,1.5l0,.57c-2.37-1.85-5.16-1.15-7.33-.4a5.06,5.06,0,0,1,2.71-1.5,7.81,7.81,0,0,1,1.25-.17Zm-16,2.13.52,0c.48,2.57,2.45,2,2.89.15l.61.18c-.51,1.33-1.25,1.86-2,1.89a2.27,2.27,0,0,1-2.07-2.24Zm-.66,0a5.33,5.33,0,0,0,.87,1.92,12.57,12.57,0,0,1-1.47-.41c-1.33-.57-1.47-.8-.79-1.16a3.14,3.14,0,0,1,1.39-.35Zm15.39.46a.73.73,0,0,1,.31.07c.34,2.08,1.91,1.64,2.29.26a1.64,1.64,0,0,1,.72.12A2.54,2.54,0,0,1,117.37,50c-.81,0-1.54-.7-1.75-2.05a1.47,1.47,0,0,1,.5,0Zm-10.21,0a3.45,3.45,0,0,1,1,.67c.13.3-.18.53-.84.74a6.54,6.54,0,0,1-1.18.12A4.61,4.61,0,0,0,105.91,47.93Zm8.92.07H115a3.69,3.69,0,0,0,.89,2,3.58,3.58,0,0,1-2.56-1v-.24a2.29,2.29,0,0,1,1.48-.71Zm5.11.57.69.36-.1.52a5.3,5.3,0,0,1-1.72.48,6.06,6.06,0,0,0,1.13-1.36Zm-12.31,6.74a2.87,2.87,0,0,0-1.65,1.2c-1.94,2.64.19,5.31,2.88,3.78.61-.34,1.46-.44,2.07-.85,1.3-.9.08-1.65-.82-1.46a3.87,3.87,0,0,0-1.27.58c-1.63,1.09-2.53.93-2.69-.39s2-2.06,1.81-2.72A.35.35,0,0,0,107.63,55.31Zm-3.1,7.62c-.22.07-.43.83-.9,2.07-.32.78-.42,1.44-.1,1.44a.89.89,0,0,0,.47-.25c.6-.4,1.54-.93,3.8-.31a6.12,6.12,0,0,0,3.46-.18,3.52,3.52,0,0,1,2.27,0c.71.35,1.49.87,1.34.33,0-.14-.08-.92-.09-1.39,0-1.1-.09-2-.88-1.15-.34.37-.76.38-1.53.07-.55-.22-.94-.37-1.36-.08a2.23,2.23,0,0,1-2.25.11,1.92,1.92,0,0,0-1.75.22,1.49,1.49,0,0,1-2.25-.68c-.08-.14-.16-.2-.23-.18ZM70.11,64.39l-4.37,4.49,4.2,4.41V72.23L66.8,68.92l3-3.07c.43-.6,1.56-.47,1.91-.51C71.48,64.59,70.8,64.68,70.11,64.39Zm-.17,2.68a1.9,1.9,0,0,0,0,3.78v-.64a1.27,1.27,0,0,1,0-2.51Zm35.83.09a.26.26,0,0,0-.19,0c-.3.26.76,1.27,1.76,1.46.78.15,1.78,0,1.78.15a4,4,0,0,0-1.14.48.62.62,0,0,0,.46.69c.29,0,.53-.27.75-.36a2,2,0,0,1,.65,0c.66,0,1.48.46,1.66.38s.25-.59.13-.73a3.93,3.93,0,0,0-1.41-.58l.82-.18c.33-.08.6-.1.81-.4s.15-.52-.08-.52c-1.32,0-3,.56-4.56,0a7.66,7.66,0,0,0-1.44-.43Zm13.38,1.73-4.32,3.72,3.7,5.4,4.72-3.8-3-4.68Zm-54.39.88L60.3,74.51l4.64,4.68,4.51-4.53ZM119,72.23a1.19,1.19,0,1,1-1.19,1.19A1.19,1.19,0,0,1,119,72.23Zm-54.17,1.2a1.2,1.2,0,0,1,0,2.39,1.2,1.2,0,0,1,0-2.39Zm48.63.83,3.27,4.8-4,3.4c.06-.8.11-1.45.15-2a2.16,2.16,0,0,0,.29-4C113.31,75.8,113.38,75.12,113.49,74.26Zm-54.33.87v1.28l3.63,3.75L59.16,84l.07,1.21,4.84-4.94Zm10.78.28-4.5,4.77,4.5,4.69V83.36L66.86,80.1l3.08-3.18Zm73.56.35h0a10.7,10.7,0,0,1,2.29.21c-.39,1.55,1.25,2.39,1.49,2,0,0,.15-.27,0-.29a1.18,1.18,0,0,1-.95-1.57c1.3,0,2.15,0,2.28.61.09.35-.12.91-.88,1.53s-5,.7-5,.7a4.43,4.43,0,0,1-.4,1.85c-.36.59-.87,1.25-.52,1.53a2.1,2.1,0,0,1,1.08,1.71c.16,1.61-.1,5.49,0,5.53-.69.07-1.48.14-2.25.14-1.27,0-2.46-.22-2.94-1.07-1.95-2.62-1.39-8,0-9.85,2.27-2.07,3.81-3,5.87-3.07Zm-20,.74-.08,1.1a2.15,2.15,0,0,0-.31,4.08L123,83.21l-2.73-3.84Zm-10.37.7a1.44,1.44,0,0,1-.17,2.43c.06-.92.1-1.67.17-2.43ZM69.94,78.27a1.9,1.9,0,0,0,0,3.74v-.65a1.26,1.26,0,0,1,0-2.44Zm-10.73.07c0,.26,0,.46,0,.64a1.27,1.27,0,0,1,0,2.54c0,.26,0,.52,0,.64a1.91,1.91,0,0,0,0-3.82Zm64.2,0-.2,2.53a1.43,1.43,0,0,1,.2-2.53Zm-5.07,1.86-4.68,4.68,4.53,5,4.14-4.49Zm-53.56.47-4.46,4.79,4.56,4.68,4.62-4.62Zm53.38,3.21a1.2,1.2,0,1,1-1.19,1.2A1.2,1.2,0,0,1,118.16,83.91Zm-53.27.47a1.19,1.19,0,1,1-1.19,1.19A1.18,1.18,0,0,1,64.89,84.38Zm47.48,1.11,0,1.19,4,4.21-3.74,4.37.08,1.29,4.79-5.73Zm-53.12.43a9.23,9.23,0,0,0-.09,1.18l3.76,3.81-3.55,3.68L59.23,96l4.92-5Zm10.69.62L65.62,91l4.32,4.38V94L67,91l3-3.06Zm52.92,1.27,0,1a2.15,2.15,0,0,0,.08,4l0,1.09-2.85-3Zm-83.47.5L40.78,90a2,2,0,0,0-.38,1.14,1.9,1.9,0,0,0,1.9,1.91,2,2,0,0,0,.84-.2l1.69,2.06L39,93.81Zm19.77.53v.64a1.27,1.27,0,0,1,0,2.53v.64a1.91,1.91,0,0,0,0-3.81Zm53.23.14v.75a1.43,1.43,0,0,1,0,2.69v.75a2.15,2.15,0,0,0,0-4.19Zm-42.45.22a1.91,1.91,0,0,0,0,3.71v-.66a1.27,1.27,0,0,1,0-2.38Zm53,.47L123,92a1.41,1.41,0,0,1-.65-1.19,1.45,1.45,0,0,1,.6-1.17Zm-81.69.84,1.5,1.83a1.1,1.1,0,0,1-.41.07A1.27,1.27,0,0,1,41,91.14a1.24,1.24,0,0,1,.17-.63Zm77.31,1.25-4.29,5.06,4.78,3.71,3.71-4.73Zm-53.63.09L60.3,96.54l3.26,3.58L62,100a9.87,9.87,0,0,0-2.68-2.68l.12.93c.07,0,1.52,1.38,1.29,1.61l-1.28-.1c-.11,0,0,.48,0,.48A45.46,45.46,0,0,1,70,102.47l-.09-.65-.58-.26s.36-.43.66-.77V99.61l-1.52,1.74-.74-.27,2.26-2.31V97.9l-3,2.95-1.46-.41,4-3.93Zm53.55,3.25a1.19,1.19,0,1,1-1.18,1.19A1.19,1.19,0,0,1,118.44,95.1Zm-53.68.34a1.19,1.19,0,1,1-1.18,1.19A1.19,1.19,0,0,1,64.76,95.44ZM38,95.67l-.48,6,5.93,2,1-6.56Zm-2.41.38.46.1-.17,3.17-.29,0Zm77.09,1.1.08,1.27,4.18,3-3.18,4.25.27,1.5,4.36-5.76Zm-66,.6L48,100a1.9,1.9,0,0,0,1.3,3.29,2.05,2.05,0,0,0,.61-.1l1.22,2-5.69-1.79Zm76.56.2.12.93a2.15,2.15,0,0,0,.5,3.78l.11.79-3-2.26Zm-82.18.32a1.19,1.19,0,1,1-1.18,1.19A1.19,1.19,0,0,1,41.06,98.27Zm82.42,1.48.27,2A1.36,1.36,0,0,1,123.48,99.75Zm-10.5.19.09.73a1.43,1.43,0,0,1,.35,2.73l.09.73a2.14,2.14,0,0,0-.53-4.19Zm-64.62.61,1.22,2a1.09,1.09,0,0,1-.26,0,1.26,1.26,0,0,1-1.26-1.27,1.23,1.23,0,0,1,.3-.81Zm70.87,1.57-3.48,5.31,4.9,3.42,3-5.3Zm-81,1.72,4,1.42L41.56,109l-.77-1.2a1.91,1.91,0,0,0-1.52-3.06,1.84,1.84,0,0,0-.41,0Zm6.25,1.21-1.21,6.25L49.15,114l1.65-6.6Zm75.26.18a1.19,1.19,0,1,1-1.18,1.19A1.19,1.19,0,0,1,119.74,105.23Zm-80.5.17h0a1.21,1.21,0,0,1,1.14,1.83Zm103.81,1.31,0,1.4-1.66.29Zm-18.28.82.26,1.21a2.15,2.15,0,0,0,.83,3.88l.26,1.26-3.35-2.33A32.5,32.5,0,0,1,124.77,107.53ZM47,108.29a1.19,1.19,0,1,1-1.18,1.19A1.19,1.19,0,0,1,47,108.29Zm96,.63s0,1,0,1.39l-.95-.27Zm-17.87.62.48,2.28a1.44,1.44,0,0,1-.48-2.28Zm-10.32,1.6-.22,0c.09.3.16.47.22.69a1.43,1.43,0,0,1,1.43,1.43,1.41,1.41,0,0,1-.86,1.29l.17.72a2.14,2.14,0,0,0-.74-4.16Zm-60.37.28c.28.63.66,1.25,1,2.09a.74.74,0,0,1-.25,0A1.25,1.25,0,0,1,54,112.3.88.88,0,0,1,54.51,111.42Zm66.61,1.26-2.78,6.21,5.54,3.27,2.56-6ZM44.9,115a3,3,0,0,0-.63.07c-.55.74.23,3.56,1.68,3.52a2,2,0,0,0,.85-1.68A1.91,1.91,0,0,0,44.9,115Zm5.15.42-1.58,6,5.71,3.19,2.18-5.87Zm-5.15.22a1.27,1.27,0,0,1,.79,2.26c-1.09.82-1.25-2.37-1.07-2.2a.61.61,0,0,1,.28-.06Zm77.39.74a1.2,1.2,0,1,1-1.18,1.19A1.19,1.19,0,0,1,122.29,116.36Zm5,2,.47,1.52a2.15,2.15,0,0,0,1.09,3.48l.42,1.33-3.6-2.11Zm-75.12.45A1.19,1.19,0,1,1,51,120,1.18,1.18,0,0,1,52.2,118.81Zm6.13.9L59,122a1.9,1.9,0,0,0,1,3.48l.58,1.94L56,124.77Zm69.75,1.08.52,1.66a1.42,1.42,0,0,1-.61-1.17A1.33,1.33,0,0,1,128.08,120.79Zm-10.5.53,4.73,2.49a32.08,32.08,0,0,1-2.2,4.8,13.64,13.64,0,0,1-.88-2,2.12,2.12,0,0,0,.94-1.77,2.14,2.14,0,0,0-2-2.15l-.24,0Zm-70.11.83.46,1.17,4.45,2.59-1.91,4.66.41,1.36,2.62-6.44Zm11.75.54.65,2.16a1.27,1.27,0,0,1-.65-2.16Zm59,.69a1.31,1.31,0,0,1,1.22,1.42,1.45,1.45,0,0,1-.48,1.06Zm6.21.58-2.51,6.19,6.28,2.84,1.73-6.15ZM49,125c-1.91,0-.93,3.82,0,3.81a1.9,1.9,0,0,0,1.9-1.91A1.87,1.87,0,0,0,49,125Zm0,.63a1.27,1.27,0,0,1,0,2.54C48.43,128,48.28,125.73,49,125.65Zm5.51.6-2.63,5.95,5.26,3.7,3.1-6.15ZM126,127.4a1.19,1.19,0,1,1-1.19,1.19A1.18,1.18,0,0,1,126,127.4Zm5.25,2.06.43.89a2.12,2.12,0,0,0-.34,1.14,2.15,2.15,0,0,0,1.91,2.14l.53,1.09-3.53-1.61Zm-75.16.42a1.2,1.2,0,1,1-1.19,1.19A1.19,1.19,0,0,1,56.1,129.88Zm5.7,1.27s.26,1,.6,2.42a1.92,1.92,0,0,0-1.09,1.73,1.9,1.9,0,0,0,1.9,1.9h0c.18.83.34,1.64.45,2.32l-4.52-3.25Zm70.3.06.75,1.56a1.41,1.41,0,0,1-.78-1.28C132.08,131.33,132.09,131.33,132.1,131.21Zm-10.66.85L127,134.5l-1.58,5.56-1.28-2.23a2.15,2.15,0,0,0-1.27-3.87,2.1,2.1,0,0,0-.51.06ZM51.15,133l.38,1.3,3.91,2.88-2.28,4.18.25,1.56,3.21-6.08Zm11.4,1.26c.18.74.36,1.55.54,2.34A1.25,1.25,0,0,1,62,135.3,1.29,1.29,0,0,1,62.55,134.21Zm60.32.47a1.43,1.43,0,0,1,1,2.48l-1.16-2.47Zm6.17.06-1.46,6.9,6.16,2.06,1.3-6.53Zm-76.87,1.49c-1.44.35-.67,3.66,0,3.81a1.49,1.49,0,0,0,1.31-.53,1.92,1.92,0,0,0,.58-1.38A1.9,1.9,0,0,0,52.17,136.23Zm.25.63a1.28,1.28,0,0,1-.25,2.54c-.79-.24-.52-2.45,0-2.53a.7.7,0,0,1,.25,0Zm4.93.83-3,5.2,4.86,3.74,3.52-4.75Zm-21.82,0,.66.49-.66.73Zm95.55.59a1.2,1.2,0,1,1-1.19,1.19A1.19,1.19,0,0,1,131.08,138.28Zm5.33,1.15a6.24,6.24,0,0,0,.59,1.18,2.19,2.19,0,0,0-.27,1,2.13,2.13,0,0,0,2.13,2.14H139l.62.9-4-1.17Zm-100.88.23,1.27.63-1.3,1.07Zm23,1.61a1.19,1.19,0,1,1-1.18,1.19A1.19,1.19,0,0,1,58.49,141.27Zm79,.13c.34.55.71,1.12,1.06,1.64a1.43,1.43,0,0,1-1.09-1.38,1.09,1.09,0,0,1,0-.26Zm-102,.72,1.77.29-1.5,1.91,2.65-.12-1.82,2,2.93.07-2.28,1.94,3.08,0-2.29,1.92,3.37-.16L39,152.08l3.33,0-2.49,2.1,3.27,0L41,156.09l2.84,0-3.21,2.27a14,14,0,0,0-5.08-1Zm28.72.87.22,1.72a1.92,1.92,0,0,0-1.26,1.8,1.9,1.9,0,0,0,1.72,1.89l.25,2L61,147Zm63.19.77,5.32,1.56-1,5.49s-.62-1-1.33-2.11a2.16,2.16,0,0,0-1.53-3.66,2.11,2.11,0,0,0-.62.09c-.28-.53-.8-1.37-.8-1.37Zm7.33,1.47-.77,6.25,6.49,1.21s.31-3.91.48-5.8Zm-70.22.14.3,2.37a1.26,1.26,0,0,1-1-1.23A1.28,1.28,0,0,1,64.53,145.37Zm64.31.39a1.42,1.42,0,0,1,1.12,2.31c-.47-.75-1-1.56-1.38-2.29a1.1,1.1,0,0,1,.26,0Zm-20.81.15v.39l1.09.28-1.1,1.33v1.27l2.09-2.26.78.18-2.88,3v1.26l3.85-4,1.16.27-4,4.14,4.48,4.68,4.8-4.89L114.84,148l1.87.21,2.52,2.58v-1L118,148.4l1.23,0v-.32h0c-4-1-8.41-1.77-11.25-2.23Zm-54.16.24c-.35.14-.42,3.32.07,3.83a1.91,1.91,0,1,0,0-3.82.06.06,0,0,0-.07,0Zm0,.65a0,0,0,0,1,0,0,1.27,1.27,0,0,1,0,2.54A7.53,7.53,0,0,1,53.9,146.8ZM137.33,148a1.2,1.2,0,1,1-1.18,1.19A1.19,1.19,0,0,1,137.33,148ZM59.06,148l-3.4,4.24L60,157l3.91-4.72Zm83.65.95.59.9v2.6l-.73-.11Zm-29.12,1.67a1.2,1.2,0,1,1-1.19,1.19A1.19,1.19,0,0,1,113.59,150.65Zm-53.83.62a1.19,1.19,0,1,1-1.18,1.19A1.19,1.19,0,0,1,59.76,151.27Zm59.47.85-5,5.24,5,5.15v-1.26l-3.89-3.87,3.91-3.94Zm-11.26.42v1.27l3.63,3.67-3.69,3.8v1.14l4.73-4.91Zm25.76,1.07,5.7.92-.32,5.89s-1.21-1.29-1.62-1.82a2.14,2.14,0,0,0-2.57-3.32C134.7,155,133.73,153.61,133.73,153.61Zm-68.38,0v2.1a1.91,1.91,0,0,0,0,3.6v2l-3.62-3.62Zm-10.14,1.11,2.86,3.18-2.7,3.18,0-1.48a1.91,1.91,0,0,0-.09-3.71Zm64,.49a2.13,2.13,0,0,0,0,4.21v-.73a1.4,1.4,0,0,1-1.07-1.37,1.42,1.42,0,0,1,1.07-1.37ZM108,155.3V156a1.43,1.43,0,0,1,0,2.79v.73a2.14,2.14,0,0,0,0-4.24Zm27.92.47a1.44,1.44,0,0,1,1.42,1.44,1.38,1.38,0,0,1-.25.8l-1.67-2.15a1.64,1.64,0,0,1,.5-.09Zm-70.52.64v2.22a1.27,1.27,0,0,1-.65-1.11,1.29,1.29,0,0,1,.64-1.11Zm-10.1.15a1.27,1.27,0,0,1,.07,2.39Zm58.44,1.8-4.51,4.79,4.26,4.33L118,162.8Zm-53.89.13-3.88,4.74,3.82,5.15,4.72-4.72Zm-24.22.11s3.53,0,4.75.91c1.29,2.35,2.16,7.42.28,10.2a16.35,16.35,0,0,1-2.74,2.12,5.1,5.1,0,0,1-3.06,1,2.19,2.19,0,0,1-2.18-1c-.21-.38-.32-.7-.63-.85-.6-.27-1.42-.08-1.46.12a4.41,4.41,0,0,1,1.14.26c.8.73.66,1.18-.48,1.09-.36,0-1.39,0-1.41-.43-.23-1.39,1.61-2.41,4-2.23,1.68.28,1.69-.37,1.8-1.27a6.75,6.75,0,0,1,.54-1.15c.6-1.07.8-.92.38-1.33a3.41,3.41,0,0,1-.91-1.8Zm77.89,3.11a1.2,1.2,0,1,1-1.19,1.2A1.19,1.19,0,0,1,113.47,161.71Zm-53.36.65a1.19,1.19,0,1,1,0,2.38,1.19,1.19,0,0,1,0-2.38Zm59.09.66-5,5.35,5,5.18V172.3l-4-3.93,4-4.13Zm24.1.12v1.78l-1.75-1.76Zm-35.41.06,0,1.41,3.71,3.85-3.77,3.76v1.3l4.89-5Zm-52.62,2.29,2.62,3.77-3.15,3,.12-1.63a1.9,1.9,0,0,0,.3-3.68Zm10.21.39-.2,2.25a1.9,1.9,0,0,0-.34,3.65l-.2,2.15-3.27-4.44Zm42.38.29v.72a1.44,1.44,0,0,1,1.31,1.42,1.42,1.42,0,0,1-1.33,1.42v.72a2.14,2.14,0,0,0,0-4.28Zm35.37,0v13.93l10.07,10.64V228.5H113.74L102.14,209c.7-5.1,2.5-15,2.5-15,1.07.26,4.66.6,6.6-2.19.93-1.33,1.42-3.15.17-6-.18-.34-.47-.83-.47-.83a2.41,2.41,0,0,0,.54-.23c15.2-5.65,31.47-18.23,31.75-18.6Zm-24,.06a2.15,2.15,0,0,0,0,4.23v-.74a1.43,1.43,0,0,1,0-2.75Zm-64.08,1.32a1.28,1.28,0,0,1,.7,1.14,1.27,1.27,0,0,1-.89,1.2Zm10.11,1.23L65,171.11a1.28,1.28,0,0,1-.64-1.11A1.25,1.25,0,0,1,65.22,168.8Zm48.2.45-4.5,4.67,4.41,4.55,4.58-4.65Zm-72.81,1.89,9.79,5.44.7.36a3.69,3.69,0,0,0-.84.46,3.42,3.42,0,0,0-1,3.86c.83,2.21,2.52,1.81,3.94,1.81,1.17.91,2.18,4,3,6a12.79,12.79,0,0,1,.85,2.07,6,6,0,0,1,.08.89s-.19-.06-.47-.63c-1.56-3.3-5.2-4.9-7.14-1.78-1,1.92-.3,4.1,1.35,4.71a8.34,8.34,0,0,0,2.22,0c.1-.06,1.24,1.62,2.85,7.14.67,2.28.84,7.22.21,7.93-1.07,1.31-1.35,3.14-2.25,4.46-.11.22-.33.61-.33.61-1.76-3.72-6.85-6.93-10.3-6.65-2.51.21-3.29,1-2.7,1.7a11.77,11.77,0,0,1,2.73,5.13c1.06,4.05,2.17,7.65,5,10.8l-1.62,3.19-20.89-.13v-7.74l16.1-17.19-6.21-.08L35.72,174a29.27,29.27,0,0,0,4.89-2.88Zm72.76,1.54a1.2,1.2,0,0,1,0,2.39,1.2,1.2,0,0,1-1.19-1.2A1.19,1.19,0,0,1,113.37,172.68Zm-54.22,1.56A1.2,1.2,0,1,1,58,175.43,1.18,1.18,0,0,1,59.15,174.24Zm11.9.47c4.33-.09,9,2.37,13.89,6.2C81.67,190,81.32,199.64,81.2,200a10.22,10.22,0,0,1-2.31-.53A9,9,0,0,0,75,198.28l-1.45-.07c1.67-1.12,3.62-1.28,5-2a3,3,0,0,0-1.45-.18,12.75,12.75,0,0,0-5.91,2.32c-1.4.94-1.45.94-1.07,2.11.09.29.28.71-.39,1s-.6.54-.2.85c.09.08.34.1.44.18s0,.54,0,.6c2.39,2,6.5,2.2,10,.38.24-.12.84-.36.84-.36l-.08.87a13.65,13.65,0,0,1-7.06,1.79c-1.29,0-1.54-.15-3.48-.74-.8-.25-1.25-.31-1.32-.19-.17.28.12,1.1.73,1.54,2.08,1.49,5.1,1.38,9.22-.26.49-.2,1.82-.89,1.82-.89a37.62,37.62,0,0,1-.56,4.08c-.2,1.21-.48,2.4-.48,2.4-.44.25-19.77-.7-22.4-2.33-.26-.25,0-.59,0-1.29.08-1.12.16-1.82.16-1.82l1,.48a5.92,5.92,0,0,0,6.35-1.7c2.1-2.28,2.16-4.63.86-9.26-1.5-5.21-1.46-5.9.33-7A4.48,4.48,0,0,0,67.73,186a9.07,9.07,0,0,1-2.2,1.71c-2.08,1.43-2.73,2.16-1.77,4.8s1.7,5.14,1.31,5.3c-.19.07-.91-.77-1.35-1-.91-.52-3.19-1.46-3.19-1.46a5,5,0,0,0,1.09.82c2.5,1.65,3.52,3.15,1.11,2.2a6.15,6.15,0,0,0-4.86.61s-.09-1.12-.09-1.52a50.25,50.25,0,0,1,.42-6.1c.45-4.69,1.25-8.64,3.3-11.18,3-3.72,6.19-5.34,9.55-5.42Zm36.72,2.4v.71a1.43,1.43,0,0,1,0,2.82v.72a2.14,2.14,0,0,0,0-4.25Zm-37,1.4a1.36,1.36,0,0,0-.86.34c-.64.54-2.36.4-3.33,0-.43-.2-.48.61,0,.79s1.22.38,1.22.38-.78.28-1.64.56c-.5.17-.54,1,0,.82a8.13,8.13,0,0,1,5.11-.44c1.58.48,1.2-.71-.52-.86-.55-.05-1.46-.16-1.46-.16a5.46,5.46,0,0,0,1.28-.82c.39-.37.35-.54.13-.57Zm-1.32,3.67a5.7,5.7,0,0,0-2.21.53,3,3,0,0,1-3.38-.26c-.64-.55-.6-.13-.44,1s.31,1.94.66,1.9c.14,0,.3-.14.52-.39s.6-.19,1.53-.13A3.68,3.68,0,0,0,68,184.6c.75-.27.77-.27,1.29,0a2.7,2.7,0,0,0,2.07.18,2.63,2.63,0,0,1,2.06.09c.57.28.75.22.95-.3a11.47,11.47,0,0,1,.68-1.36c.61-.94.46-1.09-.82-.7a6,6,0,0,1-3.71-.06A3.09,3.09,0,0,0,69.42,182.18Zm1.75,5.6c-1.35,0-2.41.92-3.89,1.33-.73.19-.56,1.14-.1,1.55s1.53.2,2.77-.75c2.42-1.87,3,1.72.79,2.35-.34.1-.18.9.54.69A2.67,2.67,0,0,0,73.22,190a2.19,2.19,0,0,0-1.45-2.16,3.3,3.3,0,0,0-.6-.08Zm-18.81.94c1.17-.07,2.4.67,3.37,2.26a8.73,8.73,0,0,1,1.62,4.55c-.12,2.7,0,4.15-.14,6.86-1.72-2.65-2-6.55-3.84-8.65-3.38.63-5-2.56-2.14-4.68A2.47,2.47,0,0,1,52.36,188.72Zm8.24,10c.82-.08,1.64.65,2,2l-.59-.05c-.62-1.69-2.07-1.64-2.63-.17h-.53c.43-1.14,1.07-1.7,1.71-1.76Zm1.75.29a9.18,9.18,0,0,1,1.75.26c.32.12.6.31.64.52s-.18.48-.52.59-.64.13-.95.21A3.88,3.88,0,0,0,62.35,199.05Zm12.75.13c.75,0,1.48.66,1.88,2l-.75.06c-.54-1.85-1.76-2.1-2.49-.17l-.56-.09C73.61,199.78,74.36,199.16,75.1,199.18Zm-16.07,0a4.38,4.38,0,0,0-.73,1.2l-.46-.13,0-.72a2.52,2.52,0,0,1,1.14-.35Zm13.83.1h.44a2.7,2.7,0,0,0-.82,1.52,2.29,2.29,0,0,1-.77-.34c-.26-.32-.32-.58,0-.8a2.17,2.17,0,0,1,1.13-.39Zm4,.19a4,4,0,0,1,2.32,1.38l-1.34.23C77.47,200.57,77.38,200.09,76.9,199.51Zm4.15,2-.1.92c-2.12,1.08-7,2.2-10.14.35a.74.74,0,0,1-.1-.72c4.48,1.62,7.34.75,10.34-.55Zm-23.23.2c2,1.29,4.59.73,7.08,0-2.32,2.24-5.57,1.57-7.17.91Zm6.81,1.27c-1.68,2.69-4.17,3-7,1.65l0-1.18a6.8,6.8,0,0,0,6.94-.47ZM43.2,208.77a5.93,5.93,0,0,1,.73,0c4.2.25,8.29,3.88,9.74,7.91l3.07-5.29c13.74,1.84,25.57,2.7,45-.28l10,17.7-64.17.42a26,26,0,0,0,1.85-3.9,22.8,22.8,0,0,1-4.93-8.74,15.56,15.56,0,0,0-3.65-7.2c0-.06.07-.15.18-.22A6.88,6.88,0,0,1,43.2,208.77Z"/><path id="path3302-0-9-2" class="cls-4" d="M67.4,20.46H130l-8.16,16.37a145.16,145.16,0,0,0-45,.33L67.4,20.46Zm85.53,13.26.13,7.85-8.1-.18ZM84.53,86.47l-.09,23.81a101.83,101.83,0,0,0-9.79-6.4l.13-24.64Zm27.27,5.21c.57,13.47,2.53,18.72,3.79,25.55L104,124.76l0-27.64Zm31.72,23.62-.07,33.16c-10.66-15.4-17.4-31.05-19.26-52.17,2.9-1.18,5.73-2.47,8.7-3.52a136.67,136.67,0,0,0,10.63,22.53ZM35.09,101.46C45,114,51.26,131,54.36,151.61l-9,4.4c-3-7.29-6.54-16-10.32-22Zm39,22.43,0,27.72-7.7,5A128.93,128.93,0,0,0,62.5,131Zm20.27,14.6a49.47,49.47,0,0,0,9.11,5.64l-.48,24.59L94.24,162ZM33.2,207.79s-5.43,5.54-7.44,7.33l0-7.51Zm68.28,3.59L111.6,228.7l-63.38.54L57,211.32C73.78,214.4,87.5,213.48,101.48,211.38Z"/><path id="path3300-3-9-0" d="M66.26,19.88,76.6,38c13.77-3,30.19-2.52,45-.08a51.7,51.7,0,0,0,2.5-4.83c2.07,5.59,8.69,9.21,13,7.65,0,0,0-.27-.67-1.52-2.08-3.63-2.56-7.49-4.4-11.38a8.68,8.68,0,0,0-3.43-3.9l2.28-4.07Zm1.85,1h2.12l7.88,13.1,10.64-1.21L85.24,20.84H88.4l3.14,11.62a141.12,141.12,0,0,1,16.54.09l1.67-11.71h3l-1.91,11.69,10,1.28,5.41-13h3.12c-2,3.41-7,14.32-8,15.4C97.62,33.18,88,34.72,77,36.18Zm4.25,0H83.22L86.87,31.7l-7.75.92Zm17.75,0h18.12l-1.5,10.07c-4.75-.29-9.4,0-14.06.13Zm24.85,0h9.62l-4.83,11.44a54.63,54.63,0,0,0-6.77-.85ZM129.06,25a1.21,1.21,0,0,1,.68.33c1.2,1.25,2.36,3.56,3.41,6.8a56.85,56.85,0,0,0,2.68,7c.55,1.11.49,1.16-1.1,1.18-3.41.05-6.26-1.58-8.78-5-.81-1.11-1.12-1.6-1.12-2.07A12.77,12.77,0,0,1,126,30.92a23.43,23.43,0,0,1,.76,2.52c.91-3.39,1.28.54,1.63,1.58,1.12-3.28,1.73,1.22,1.67,2.44,1.52-2.1,1.42,1.35,2.17,2,0-1.82,1.08-.57,2.47-.18-.73-1-2.13-1.71-.34-1.93-1.79-1.25-2.69-1.06-1-1.74-1.34-.74-3.55-1.64-1.11-2.13-1.49-.94-3.89-1.34-1.31-2.24-1.95-1.2-4.54-1.11-.89-2.08-1.32-.77-3.65-1.06-1.05-1.74a10.49,10.49,0,0,1-1.1-.65ZM153.78,28,137.19,44.88l6.25.18V75.52a8.75,8.75,0,0,0,1.35.21c3.14.19,4,.44,4,1.2,0,.94-1.42,2.1-2.6,2.12a1.9,1.9,0,0,0-.71.27l.38,99.73,7.42,7.81,0,2.49-9.15-9.73-.34-99.69-.35.17,0,33.47c-4.69-7-7.32-14-9.93-21l-1,.34s.33.12.33.12a81.08,81.08,0,0,0,10.4,22.14l-.06,32.44c-11.19-15.86-16.59-30.13-18.84-50.69L130,94.08l.55-.74,4.27-2.14.41.68,2.6-1.8c-2-3.51-1.93-8.55-.3-11.22l-.7-.44a13,13,0,0,0,.26,11.21l-1.93,1.2c-2.78-5.79-1.49-12-.18-13.62a44.34,44.34,0,0,0-8.33-4.34,1.9,1.9,0,0,0-1.89.1l-.57,3.23.9,1.23-1,.85-.47,4.94,1.12,1.14-1.16,1.28-.15,4.71,1.26,1-1,1.63.06,4.17.3.21c2.44,29.86,17,47.51,19.27,51.51l.32.53c.16,10.13.11,20.31,0,30.62l10.73,11.45-.06-4.19-.53-.38V167.8l.45,0s.14-5.13.1-8.66l-.64,0,0-13.11.54-.07,0-8.49h-.59s-.13-8.91.08-13.24l.44,0,0-8.45-.5,0,0-12.08.61-.1-.16-8-.51,0c-.18-4.93-.09-13.45-.09-13.45l.57,0-.14-7.92-.41,0,.12-13.9.37,0-.14-8.21-.4,0,.07-6.83.28,0,.07-2.56-.3-.67,0-9.1.23-.1Zm-.85,1.55,0,2.89-9.75,9.62,9.83.15,0,2L138.7,44ZM152.85,34l.06,7.43-7.69-.13ZM95.93,36.64a90.48,90.48,0,0,0-18.66,1.93s-2.51,12-3.41,17.09A4.4,4.4,0,0,0,71.49,55c-5.9.64-5.39,8.77-2.35,9a.93.93,0,0,1,.85.34,1.64,1.64,0,0,0,1.06.61c.32,0,.47,0,.47.19s-.14.16-.67.11c-.32,0-1,.48-1,.48v36.6A43.84,43.84,0,0,0,59.41,100l-.22-32.62S54.36,70,52.61,71l-.07,29.2-3.42.38,5.41,11c.75-.58,11.38.41,14,2.15l-9.7,6.08c1,3,1.88,5.9,2.7,9,0,.1.21.09.23.18.2.75.35,1.08.53,1.83,0,.14,0,.37,0,.51a111.21,111.21,0,0,1,3.81,25.39c0,.08-.34,0-.34,0l.06,5.24.34-.23,0,2.37-.35.35c0,.46,0,1.33,0,1.33l.45.28L66,170l-.47.07-.25,6.29,12.29-8s8,5.77,11.52,8.76c-3.86,2.63-4.88,7.77-5.84,12a70.57,70.57,0,0,0-1.57,11.24,113,113,0,0,1-1.56,11.47,99.64,99.64,0,0,0,21.5-1.85,165.68,165.68,0,0,1,2.83-16.33s.13.46,2,.43c5.62-.08,7.59-6.36,2.89-9.13-.44-.27-1.19-.77-1.94-1.17-.21-.11-2.91-1.7-2.91-1.7l3.23,1.46.24-37.65s6.73,2,11.17,2.22l0,32.65,6.2-3.36.28-29.19L129,148s-1.29-2.75-1.57-3.33c-.58-1.16-2-3.73-3-5.36-.35-.57-1.17-1.85-1.17-1.85a35,35,0,0,1-13.37-2.68l9.75-6.37c-4.07-11.52-9.15-28.37-6.32-55.56l-.68.43-.19,2.93L100.35,84.6l-15-12.1,1.33,0c3.81.14,6.5-3.78,7.42-7.06,1.63-5.76,1.84-7.19,2.59-16.34a84.71,84.71,0,0,1,1.74-10.55,7.51,7.51,0,0,0,.32-1.91c-1,0-1.91,0-2.86,0Zm.54.28,1.46,0c-2.13,10.58-2.14,19.63-4.41,28-1.12,4.13-4,7.08-6.78,7.07-6.18-.77-4.54-7.28-1.93-8.64,3.54-1.66,6.38,1.69,4.12,5.07-1.66,2.49-4.83.84-3.6-1.88.68-1.53,2.11-1.35,2.1.2-.51,1.47-.05,1,.35.43,1.25-1.64-1.27-3.37-2.57-1.76a3.48,3.48,0,0,0-.69,3.11c.47,1.6,2.31,2.54,4.4,1,2.49-3,3.82-6.88,4.56-11.22,1.56-9.25,1.64-19,3-21.44Zm-1,0c-.64.44-1.47,13.3-2.76,21.55-.1.67-1.52,7.24-2.31,6.85a17,17,0,0,1-1-2.29c1.55-2.22,2-5.88,2.22-8.65.87-7.85,1.78-17.33,2.17-17.42ZM93,37.06c-.83,2.78-1.2,10.56-2,17.07-.47,3.3-1,7.83-2.2,8.49l-1-.66a57.25,57.25,0,0,0,2-11c.55-4.59,1-9.31,1.7-13.81Zm-2.37.13c-.36,2.59-1,8.36-1.62,13.67-.67,6.17-1.73,10.83-2,10.68l-1.32-.77A54.83,54.83,0,0,0,87,54.94c.61-4.32.85-9.56,2.24-17.63Zm-2.15.11c-.76,3.51-1.62,11.76-2.3,17.57-.4,3.38-1.22,5.76-1.42,5.69l-1.27-.71a87,87,0,0,0,1.69-9.66c.57-4.17,1-8.22,1.78-12.8Zm-2.26.17c-.46,3.2-1.09,8.27-1.75,12.74-.75,5.08-1.45,9.4-1.69,9.43L81,58.78c.23,0,.66-1.23,1.08-3.22,1.29-6.05,2.57-18,2.78-18Zm-2.39.32c.11-.17-1.32,11.52-2.5,17.43a8.16,8.16,0,0,1-1.11,3.26l-1.4-.85a7.6,7.6,0,0,0,.88-2.46c1.26-6,1.82-11.33,2.6-17.18ZM81.51,38A167.47,167.47,0,0,1,78.67,56.2a2.76,2.76,0,0,1-.59,1.23l-1.5-.75c1.63-4.63,1.78-9.06,3.35-18.36Zm-2.3.37c-.89,4.92-1.35,10.61-2.54,15.09-.26.95-.4,2-.73,2.85l-1.69-.68,3.53-17Zm42.24,6.17s-.84,8.2-1.09,11.48c-.48,5-1.16,8.26-3.09,12.23a34.74,34.74,0,0,0,5.07,2.34,9.42,9.42,0,0,1,2.09.72,2.68,2.68,0,0,0,1.56.44,3.15,3.15,0,0,0,3.16-3.12c-.16-2.1-1.4-3-3.44-2.82-1.09.11-1.06.12-1.8-1.2a39,39,0,0,1-2.42-7c.84,1.12,2.8,3.19,4.61,3.11s3.57-2,2.1-4.61A2.91,2.91,0,0,0,124.63,55c-2.11-3.29-2.51-6.6-3.18-10.43Zm24,.79L145.4,75.1l-1.7-.36V45.36Zm4,.28a1.19,1.19,0,1,1-1.18,1.19A1.19,1.19,0,0,1,149.43,45.64ZM121.55,47.7c.2-.12.82,5.28,3,7.72a2.47,2.47,0,0,1,3.12,3.74c-3.52,3-6.6-3.45-6.6-5.53A51.24,51.24,0,0,1,121.55,47.7Zm29.36.68a1.2,1.2,0,1,1-1.19,1.2A1.19,1.19,0,0,1,150.91,48.38Zm-3.08.08a1.19,1.19,0,1,1-1.19,1.19A1.18,1.18,0,0,1,147.83,48.46Zm1.54,2.79a1.19,1.19,0,1,1-1.19,1.19A1.19,1.19,0,0,1,149.37,51.25ZM153,52.57v2.85l-6.59,6.33V58.66ZM71.25,55.4a2.44,2.44,0,0,1,.54,0,3.84,3.84,0,0,1,.65.11,7.93,7.93,0,0,0-3.12,3.25c-1.1,2.16-.11,4.29-.44,4.3-2-.61-1.55-4.56-.73-5.68a4.33,4.33,0,0,1,3.1-2Zm2.64.68a1,1,0,0,1,.8.36c.33.32.64.42-.19.72a4.74,4.74,0,0,0-3.58,5.32c0,.62.63,2.25-.4,1.47-2.26-1.53-1-6.33,2.09-7.52A4.2,4.2,0,0,1,73.89,56.08Zm79.1.29v3.07l-6.59,6.31V62.61Zm-77.2.93a2.16,2.16,0,0,1,1,.16c.68.29.45.33-.82,1a5.57,5.57,0,0,0-2.91,5.69c.12.91.49,1.16.22,1.16a1.68,1.68,0,0,1-1.42-1.06C71,61,72.07,58.26,75.79,57.3Zm44.84.19c.14,0,.37.62.72,1.72,1.92,6.1,2.43,7.27,3.76,7a3.11,3.11,0,0,1,2.07.09c1.69.94,1.85,4.08-.62,4.68-2,.43-3.21-1.32-3.91-2.46a17.55,17.55,0,0,1-2.52-6.68,24.75,24.75,0,0,1,.4-4C120.55,57.59,120.59,57.5,120.63,57.49Zm-96.26.89V221.11s11.09-11.38,16.3-17L35.22,204V173.19c-1.77-.24-4.72,0-5.89-1.19-.72-1.07,2.08-3.18,3.65-2.74a5.66,5.66,0,0,0,2.24.06V135c.06-.22,6.1,9.34,9.65,21.09-1.08.76-2.19,1.34-2.37,1.46,1.43,3.46,2.41,8.91.42,13.65l-1.38-.82a15.54,15.54,0,0,0-.26-11.13l-.38.39a13.54,13.54,0,0,1,0,11.14C45,172.41,48,175,51.46,176.68a2,2,0,0,1,.6.4c-1.36.76-2.66,1.75-2.65,3.08.05,2,1.12,2.81,3.47,2.68a5.39,5.39,0,0,1,.84,0c1.46,3.05,2.77,6.17,4,9.31.84-4,1.41-7.95,3.08-11.33-.1-.1-2-1-2.85-1.33-3.42-1.41-5-2.28-4.45-2.49.37-.15.5-.41.6-1.14a19.2,19.2,0,0,0,.1-2.84l-.57-1.23.89-.72a16.12,16.12,0,0,0,.2-1.65,21.35,21.35,0,0,0,0-3.11l-.85-1.09.86-1.08.2-5-1.17-.89,1.09-1.09-.39-4.53a2.19,2.19,0,0,1,.34-.62c-1.85-19.17-8.87-38.48-19.59-51.64V68.93Zm53.83,0c.94,0,1,.44-.11,1.12-2.23,1.31-3.39,3.86-2.74,5.88.3,1,.6,1.37.3,1.4a1.91,1.91,0,0,1-1.28-1c-1.41-2-.24-6.29,2.64-7.18a5.78,5.78,0,0,1,1.19-.24Zm2.1.9a3.2,3.2,0,0,1,1.11.33c.32,0-.14.31-.75.66-2.14,1.25-3.56,3.46-3.19,5.54.23,1.29.62,2,.34,2a1,1,0,0,1-.78-.25c-1.18-1.15-1.37-4.39-.23-6a9.25,9.25,0,0,1,2.68-2.25,3.77,3.77,0,0,1,.82-.05ZM25.72,60l8.86,9.21v99.57l-1.85.08v-99l-7-7.43Zm56.9.32c.51,0,.82.34.68.72a5.89,5.89,0,0,0-3.62,5.82c.08,1,.41,1.56.21,1.59a1.54,1.54,0,0,1-.92-.56c-1.83-2.21-.34-6,2.54-7.28A2.21,2.21,0,0,1,82.62,60.35Zm2.31,1.19c.63,0,1.12.24,1.12.59s0,.36-.33.36c-2.17,0-4.48,3-3.84,6.25.08.49.22,1.13.05,1.16s-.33-.11-.61-.37c-1.94-1.92-.89-6.25,1.7-7.49a3.32,3.32,0,0,1,1.91-.5Zm34.75,2.08c.27.11.66,1.19,1.42,3.05.17.6,1.93,3.32,1.59,3.33-2.46-1-4-2.44-3.58-4.83.19-.9.33-1.64.57-1.55Zm29.95,2.84a1.2,1.2,0,1,1-1.19,1.2A1.2,1.2,0,0,1,149.63,66.46Zm-31.35.72a3.18,3.18,0,0,0,.39.9l-.67-.32ZM76.4,68.35c1.61,0,2.14.48,2.44,2.33C79.05,72,79.17,72,81.31,72c2.73-.07,2.94.09,3.24,2.48.25,2,.59,2.26,2.94,1.82,1.7-.32,2.6.43,2.83,2.36.24,2.16.34,2.24,2.76,2.32s3.09.52,3.12,2c0,2.27.31,2.47,3.29,2.38a33.32,33.32,0,0,1,3.78.07c1.8.19,1.79.2,2-1.54.27-2.61.65-2.85,4.08-2.59,1.43.1,1.53,0,1.63-1.06.12-1.36.63-2.21,1-1.69.2.27.2.29,0,2.3-.23,2.24-.26,2.26-3.17,2-2-.15-1.88-.22-2.09,1.58-.25,2.19-.21,2.69-2.8,2.72-2.44,0-4.31-.15-6.83-.15-1.84,0-2.44-.58-2.48-2.58,0-1.77,0-1.77-2.33-1.87-2.79-.11-3.53-.83-3.57-3.48,0-1-.84-1.43-2.46-1.2-2.56.36-3.06,0-3.36-2.38-.25-2-.11-1.89-2.46-1.87-2.52,0-3.08-.41-3.11-2.36,0-1.13-.3-1.47-1.27-1.56s-1.49-.63-1-1.16a3.12,3.12,0,0,1,1.34-.17ZM28,68.67c.11,0,.34.85.42.93s1,.31,1,.43-.85.33-.93.41-.31,1-.43,1-.33-.85-.41-.93-1-.31-1-.43.85-.34.93-.42.31-1,.43-1Zm123.08.89a1.2,1.2,0,1,1-1.19,1.19A1.19,1.19,0,0,1,151.07,69.56Zm-3.24.09a1.19,1.19,0,1,1-1.19,1.19A1.18,1.18,0,0,1,147.83,69.65ZM26.53,71.2c.11,0,.34.85.42.93s1,.31,1,.43-.85.33-.92.41-.32,1-.43,1-.34-.85-.42-.93-1-.31-1-.43.86-.34.93-.41S26.42,71.21,26.53,71.2Zm3.23,0c.11,0,.33.85.41.93s1,.31,1,.43-.85.33-.93.41-.31,1-.43,1-.34-.85-.41-.93-1-.31-1-.43.85-.34.93-.41.31-1,.43-1Zm45.17.86L100.75,92l11-7.78L111.62,87l-11,7.65-25.82-20Zm74.75.57a1.19,1.19,0,1,1-1.19,1.19A1.18,1.18,0,0,1,149.68,72.63ZM126,72.85a15.36,15.36,0,0,1,3.46,1.57l2.24,4.28-2.57,2.22,2.61,3L129,87.22l2.75,1.94-3,4.62-3.39,1.57,3.74-5.62-2.94-2L129,84l-2.91-3.51L129,78Zm-.65.19,2.45,4.79-2.91,2.57,3,3.64-2.81,3.82L128,89.92l-4.07,6-.08-3,1.45-2.21-1.62-1.41h0v-3.5l1.7-1.84-1.48-2,.48-3.75,1.25-1-.88-1.79.28-2.19ZM28,74.19c.11,0,.34.85.42.93s1,.31,1,.43-.85.33-.93.41-.31,1-.43,1-.33-.85-.41-.93-1-.31-1-.43.85-.34.93-.42.31-1,.43-1Zm125.18.49v2.59l-6.77,6.38V80.91Zm-121.45.95v3.13l-5.84,5.56V81.14Zm121.45,2.51v2.79l-6.77,6.4V84.45ZM31.72,79.65v2.54l-5.84,5.73V85.29Zm43.36.16,9.19,6.88,0,23.06a102.09,102.09,0,0,0-9.08-5.86ZM85,87.33l1.83,1.44.05,23.49-1.69-1.51Zm64.67.42a1.19,1.19,0,1,1-1.19,1.19A1.18,1.18,0,0,1,149.69,87.75ZM28.49,89.07a1.19,1.19,0,1,1-1.19,1.19A1.18,1.18,0,0,1,28.49,89.07Zm59.1,1,4.81,5-4.84,4.87-.14-2.36,2.77-2.37-2.53-2.66Zm63.53.57a1.2,1.2,0,1,1-1.19,1.2A1.19,1.19,0,0,1,151.12,90.64Zm-3.2,0a1.19,1.19,0,0,1,0,2.38,1.19,1.19,0,1,1,0-2.38ZM90.6,91.84l2.81,2.06-.61.7s-1.85-2-2.48-2.71Zm-60.37.22A1.19,1.19,0,1,1,29,93.25,1.18,1.18,0,0,1,30.23,92.06Zm81.32.06c-.13-.07.9,16.19,3.69,24.86l-11,7.29V97.33Zm-84.48.1a1.19,1.19,0,1,1-1.19,1.19A1.18,1.18,0,0,1,27.07,92.22Zm122.61,1.47a1.2,1.2,0,1,1-1.19,1.2A1.19,1.19,0,0,1,149.68,93.69ZM94,94.42l4.5,3.5v2.42l-5.07-5.23Zm-65.46.72a1.19,1.19,0,1,1-1.19,1.19A1.18,1.18,0,0,1,28.49,95.14Zm64.4.39,5.11,5.4-5.2,5.33-5.12-5.33Zm38.6.57-5.21,2.57c2.49,20.31,8.29,31.57,14.34,41.41l0-24.86C137,109.12,133.38,103,131.49,96.1Zm21.68.1v2.57l-6.67,6.48v-2.78Zm-121.45,1V100l-5.84,5.83v-2.89Zm61.09.43-3.33,3.24,3.3,3.38L96.1,101Zm6.29.92,1.35.94-.1,27.39-1.11.54Zm-7.45,1.28h2.17V102H91.65Zm61.52,0v2.49l-6.67,6.52V106Zm-98.47.73a46,46,0,0,1,28.89,10c3.53,2.92,6.4,6.48,9.89,11.66,6.73,10.54,18.58,15.63,29.62,15.75l.91,1.42-1.84-.06A31,31,0,0,0,122,143c0,2.54,0,3,.19,3.05a24.85,24.85,0,0,0,5.25-.09l.83,1.48c-13.16,1.37-26.1-3.23-34.3-10.62-6.37-5.53-11.26-13.94-16.64-18.64a39.33,39.33,0,0,0-10.36-5.75,29.23,29.23,0,0,0-9.07-1.51l-2.59-.06-1.1-2,1.81,0,.12-6.9a33,33,0,0,0-5.64.24L49.78,101a41,41,0,0,1,4.92-.37Zm-23,.26v2.82l-5.84,6v-3Zm66.69.75,0,2.62-2.82,2.57,2.87,3-.06,2a62.2,62.2,0,0,1-5.06-5.08Zm-39.64.45c-.52,0-.86.08-.88.28-.13,1.4-.21,4.68-.23,5.8,0,.37,0,.73.41.77,2.34.28,4.94.9,6.19.94.46,0,.46-.5.81-2.08.08-.35.32-1.27.54-2,.66-2.37.75-2.41-1.3-2.82A46,46,0,0,0,58.77,102.06Zm28.87,0,4.55,4.65-4.56,4.45v-2.07l2.19-2.23-2.2-2.4Zm-52.42,0a108,108,0,0,1,18.6,49.5s-5.59,2.48-8.35,4.09c-3-6.94-1.87-7.87-10.25-22Zm27.31,1.31.89.94,1.08,0-.4,1.47.71.68-1,.5-.09,1.32-1.08-.66-1,1-.52-1.14-1.12.37v-1.37l-1-.63,1.2-.55.11-1.66,1.21.38Zm-10.19.1,1,.49,1.1-.41L54.28,105l.85.68-.86.79,0,1-1-.35-1.49-2.54Zm16.15.67c-.34,0-.43.26-.51.6s-.34,1.16-.65,2.16c-1.07,3.49-1.39,3.32.21,3.85.55.19,2.27.77,3.36,1.27s1.56.94,1.9.94c.77-.55,2.84-4.5,3.2-5.37a6,6,0,0,0-2.25-1.43c-1.07-.5-4.52-1.89-4.84-2a1.42,1.42,0,0,0-.42,0Zm1.33,1.7,1.17.7.89-.39.64,1.21,1.38,0-.75,1.32.71,1-1,.06-.78,1.41-1-.85-.85.51-.49-.87-1.22-.17.55-1.34-.72-1,1.19-.23Zm23,1.4L98.19,113l-4.93,4.66-5.53-5.33Zm-14.72,1.31a.46.46,0,0,0-.42.27c-3.49,5.24-3.64,5.06-2.26,6.08a38.44,38.44,0,0,0,4.17,3.24c.47.23.56.09,1-.33,1.14-1,3.57-3.8,3.57-4.27s-3.37-3.38-5.39-4.67a1.76,1.76,0,0,0-.71-.32Zm71.68.26a1.19,1.19,0,1,1-1.19,1.19A1.19,1.19,0,0,1,149.82,108.87Zm-56.93.59-3,2.91,3.19,3.39,3.1-2.93Zm-55.07.14v24.21c3.42,5.45,6,12,8.64,18.53l5-2.05c-1.89-17.26-7-30.2-13.6-40.69Zm-9.24.4a1.19,1.19,0,1,1-1.19,1.19A1.19,1.19,0,0,1,28.58,110Zm50.22.6,1.09,1.11,1.26-.1-.07,1.23,1.11.54-.7.81.44,1.12-1.33-.22-.76,1-.93-.84-1.11.29-.25-1.1-1.08-.39.58-1.13L77,111.56l1.08.2Zm13.11.87h2.17v2.17H91.91ZM148,112a1.19,1.19,0,1,1-1.19,1.19A1.18,1.18,0,0,1,148,112Zm3.47,0a1.19,1.19,0,1,1-1.18,1.19A1.19,1.19,0,0,1,151.43,112ZM30.17,113.21A1.19,1.19,0,1,1,29,114.4,1.19,1.19,0,0,1,30.17,113.21Zm-3.27.05a1.19,1.19,0,1,1-1.18,1.19A1.19,1.19,0,0,1,26.9,113.26Zm71.64.48,0,2.13-2.7,2.59,2.62,2.69v1.58l-4.65-4.51Zm-29.66.36,1.92,1L60,122l-.66-2Zm80.92.73a1.19,1.19,0,1,1-1.19,1.19A1.18,1.18,0,0,1,149.8,114.83Zm-60.47,0,3.36,3.38-.43.46Zm-3.51.31H85.7a2.26,2.26,0,0,0-.78.62c-.77.88-3.62,3.31-3.54,4s1.14,1.59,3.57,4.89c.32.41.51.6.73.61a1.14,1.14,0,0,0,.62-.32c.24-.19.83-.61,1.32-.92A25.69,25.69,0,0,0,91,121.58c.14-.34-1.64-2.68-4.12-5.48-.54-.6-.77-.94-1-1Zm-57.34,1.18a1.2,1.2,0,1,1-1.19,1.2A1.19,1.19,0,0,1,28.48,116.32Zm124.69.25v2.78l-6.54,6.25v-2.75Zm-66.82.73.66,1.28,1.4,0-.2,1.22,1,.82-1.06.63L88,122.35l-.91-.07-1,1L85.39,122l-1.08.18.14-1.23-.91-.72.9-1.26-.12-.89,1.06.24Zm29.26,1,.47,1.31-14.8,9.59-1.17-.89Zm-83.89.16v3.06L25.88,127v-2.93Zm61.57.37,4.77,4.73-1.4,1.38-3.89-5.59ZM76.8,119l1.29,1.48-15.47,10L62,128.6Zm76.37,1.32v3.08l-6.54,6.23v-3Zm-74,.67-.1,28.87-1.21-.59,0-27.63Zm.45,1.07.66.57-.54.53Zm-47.93.45v3.28l-5.84,5.78v-3.58Zm49.22.65,4.3,5.75-.19.16L80,124.13Zm11.17,0a8.5,8.5,0,0,0-2.59,1.58c-2.9,2.09-2.89,1.78-.22,5.24,1.54,2,2.27,3.22,2.9,3.18s1-.62,2-1.64,2-2.17,2.27-2.33c.74-.52.7-.65-.58-2.09-.39-.44-1.13-1.34-1.64-2s-1.32-1.49-1.48-1.66a.68.68,0,0,0-.61-.28Zm-18.22,1-.1,27.44-7.25,4.71c-.84-9.47-1.41-16-3.85-25Zm24.47.58,0,2-1.1-1Zm-18.67.16,5,5-5,4.95,0-2.1,2.82-2.65-2.78-2.92Zm12.26.25.81,1,1-.12,0,1.17,1,.55-.69.76,0,1.3-1.42.05-.68.65-.72-1-1.22.08.18-1.17-.65-.47.63-.88.06-1.12,1,.24Zm26.19,1.06.64,1.77-9.46,6.22-1.8-.92Zm-32.2,3.49L87.68,132l-1.91-2.06Zm64,.32a1.2,1.2,0,1,1-1.19,1.19A1.2,1.2,0,0,1,149.93,130Zm-51.62.13c-.44,0-.94.68-2.41,2.16s-2.48,2-1.88,2.78c1.45,1.25,2.64,2.16,4.22,3.36,1,.78,1.57,1.15,1.93,1.14s.5-.29.78-.86c.12-.24.79-1.51,1.42-2.49,1.4-2.21,1.4-2.1,0-3a31.66,31.66,0,0,1-3.15-2.57c-.4-.37-.64-.57-.91-.55Zm-13.25.28,5.47,5.41-5,5-5.48-5.39Zm-56.48,1a1.2,1.2,0,1,1-1.19,1.19A1.18,1.18,0,0,1,28.58,131.48Zm70,.34.72.7,1.42-.09.23,1.21.61.49-.48.8.35,1.07-1.21.08-.74.84-.9-.67-1.06.45-.07-1.25-1-.47.61-.89-.37-1.17,1,0Zm-13.66.69-3,3.11L85.29,139l3.23-3.18Zm63.34.66a1.19,1.19,0,1,1-1.18,1.19A1.19,1.19,0,0,1,148.22,133.17Zm3.42,0a1.19,1.19,0,1,1-1.19,1.19A1.18,1.18,0,0,1,151.64,133.21ZM30.16,134.46A1.19,1.19,0,1,1,29,135.65,1.18,1.18,0,0,1,30.16,134.46Zm-3.19.12a1.19,1.19,0,1,1-1.19,1.19A1.19,1.19,0,0,1,27,134.58Zm57,0h2.17v2.17H84Zm21.1.67c-.35,0-.54.37-.92,1s-1,2-1.4,2.69c-1.1,1.81-1.13,1.72.89,2.7,1.19.58,1.91.81,4.41,1.83a4.87,4.87,0,0,0,1.47.47c.63,0,.71-1.18,1.39-3.39,1-3.09,1-2.8-.8-3.44-.82-.29-2.37-.82-3.19-1.21A4.62,4.62,0,0,0,105.1,135.28Zm44.79.86a1.19,1.19,0,1,1-1.18,1.19A1.19,1.19,0,0,1,149.89,136.14Zm-58.14.1,1.68,1.54.1,23.48-1.75-1.35Zm-.77.08.08,2.41a34.14,34.14,0,0,0-2.89,2.75l2.88,3v1.84l-5-5Zm-11.4,0,5.48,5.11-5.53,5.47.16-2.53,2.92-2.9-3.11-3Zm26.25.51,1,.71,1.06-.39.3.8,1.09.53-.39.87.54,1.19-1.25.09-.64,1.27-.88-.55-1,.41-.2-1.06-1.07-.42.3-1-.47-.79.92-.17Zm-77.41.62a1.2,1.2,0,1,1-1.18,1.2A1.19,1.19,0,0,1,28.42,137.48Zm85.7.9c-.81,0-.64.38-1,1.27-.39,1.12-.6,2.1-1.08,3.69s-.24,1.51,2.61,2a36,36,0,0,0,4.88.65c.28,0,.45,0,.48-.08s0-1.21.27-5.14c.09-1.45.19-1.45-1-1.6-1,0-3.27-.61-4.78-.79a3.37,3.37,0,0,0-.4,0Zm38.91.15v2.84l-6.13,5.8v-2.83Zm-58.65.16a54.69,54.69,0,0,0,8.83,5.48l-.35,24.38-8.51-6.65Zm22,.76.69.87,1,0L118,141.6l.66.56-.78.69L118,144l-1.24-.21-.78.91-.53-.88-1.28-.21.23-.9-.65-.92.8-.6,0-1.11,1,0Zm-84.62.15v3l-5.84,5.94v-3.14Zm92.81,1.22,1.8,3.53-1.17-.47-.9.59-.27-1.31-.79-.52.8-.55,0-.85ZM85.45,142l5.32,5.07-5.57,5.45-5.15-5.11ZM153,142v3.07l-6.13,5.76V148ZM31.72,143.58v2.7L25.88,152v-2.71Zm53.46.49L82,147.27l3.2,3.22,3.28-3.22Zm-1,2.12h2.16v2.17H84.15ZM91,148l0,2.36-3,2.88,3,3.11L90.83,158l-5.19-4.87Zm-11.33.24L84.58,153l-.79.79-4.12-3.16Zm70.22,3.05a1.2,1.2,0,1,1-1.18,1.2A1.19,1.19,0,0,1,149.88,151.28ZM28.42,152.56a1.2,1.2,0,1,1-1.19,1.19A1.19,1.19,0,0,1,28.42,152.56Zm24.43.74-4.08,5.38L52.15,161l-3.21,3.46,2.88,3.78-3,2.34,3.22,5.3-.21.25-3.08-1.63-2.92-4.77,2.92-2.13-2.66-3.41L49,161.25l-3.15-2,3-4.12Zm32.35.2,3.66,4-4.33-3.22Zm-31.31.13,0,2.64L52.5,158l1.64,1.13v3.65l-1.67,1.76L54,166.11l-.27,4-1.46,1.16,1.2,1.66-.43,2.4c-.09-.17-.38-.23-.52-.45-1-1.49-2.7-4.14-2.7-4.14l3-2.43-2.79-3.69L53.57,161,50,158.6a34.93,34.93,0,0,1,3.89-5Zm97.76.74a1.2,1.2,0,1,1-1.19,1.19A1.19,1.19,0,0,1,151.65,154.37Zm-74.29,0a1.72,1.72,0,0,1,1.09.4c8,6.4,16.28,12.61,24.44,18.88l0,1.9L81.17,159.29s-2-1.52-2.57-1.88c-1.22-.78-1.46-.47-2.68.37-2.73,1.63-9.36,6.16-9.36,6.16l0-2.34s6.67-5,10.36-7.09A1,1,0,0,1,77.36,154.39Zm70.81,0a1.2,1.2,0,1,1-1.18,1.2A1.19,1.19,0,0,1,148.17,154.43Zm-117.81,1a1.19,1.19,0,1,1-1.19,1.19A1.18,1.18,0,0,1,30.36,155.47Zm-3.38.14a1.2,1.2,0,1,1-1.19,1.2A1.19,1.19,0,0,1,27,155.61Zm123,1.69a1.2,1.2,0,1,1-1.19,1.2A1.2,1.2,0,0,1,149.93,157.3Zm3.41,2.54v3.24l-6.44,6.1v-3.44Zm-121.62.8v3l-5.84,5.72v-3.05Zm41.41.23a8.81,8.81,0,0,1,2.24.25,30.88,30.88,0,0,0,3.66.09c4.45,0,4.49-.05,4.49,3.08,0,1.33.29,1.61,2.61,1.54,2.93-.09,2.77-.17,3.27,3.35.17,1.23.27,1.27,2.69,1.24,2.63,0,3.23-.08,3.08,2.15-.14,2,.35,2.56,2.55,2.05s2.79.45,3,2.26.35,1.26,1.47,1.35,1.09,1.5-.22,1.63c-.23,0-.43,0-.62,0-1.29.05-1.69-.57-1.91-2.54-.15-1.36-.44-1.48-2.56-1.13s-3-.23-3.16-2.56c-.12-1.85-.11-1.83-2.66-1.85S88.3,171.56,88,169c-.21-1.92-.14-1.86-2.61-1.83-2.73,0-3-.17-3.16-2.59-.15-2-.28-2.1-2-2a36,36,0,0,1-5.4,0c-1.45-.32-1.51-.26-1.82,1.71-.42,2.6-.93,2.92-4.1,2.6-1.56-.16-1.74-.13-2,1.25-.29,1.84-.66,2.38-.66.79,0-4,.28-4.21,3-3.5,2,.54,2,.13,2.25-1.82.19-1.71.48-2.41,1.1-2.68a1.54,1.54,0,0,1,.55-.1Zm80.21,3v3l-6.44,6.07v-3.06Zm-75.73.36,14.63,11.38-2.29.62L77.62,167l-11.68,7.84L66,172Zm-45.89.35v2.54L25.88,173v-2.89Zm118.38,7.51c.11,0,.34.85.42.93s1,.31,1,.43-.85.34-.93.41-.31,1-.42,1-.34-.85-.42-.93-1-.31-1-.43.85-.33.93-.41S150,172.08,150.1,172.07ZM32.73,173.65l1.91.06v29.87H32.73Zm-4.16,0a1.19,1.19,0,1,1-1.18,1.19A1.19,1.19,0,0,1,28.57,173.69Zm120.07.91c.11,0,.34.85.42.93s1,.31,1,.43-.86.34-.93.42-.32,1-.43,1-.34-.85-.42-.93-1-.31-1-.43.86-.33.93-.41.32-1,.43-1Zm3.23,0c.11,0,.33.85.41.93s1,.31,1,.43-.85.34-.93.42-.31,1-.43,1-.33-.85-.41-.93-1-.31-1-.43.85-.33.93-.41.31-1,.43-1ZM92,176.45c3.22,0,5.48,4.07,3.16,7.21-2.09,2.83-5.36,2.79-6.36-.08-.82-2.36,1.82-5.34,3.93-4.41,1.46.64,1.09,3.29-.56,3.91-.68.26-1.25-.61-.92-1.39.27-.61.29-1-.06-.74-1.49,1.06-.37,3.57,1.47,2.63,2.47-1.25,2.05-4.93-.43-5.09-3.14-.31-5.56,3.57-7.11,10.94-1.7,8.25-1.28,15.64-2.91,22.12l-1.44,0c.19-3.95,1-6.71,1.27-11.39.31-5.71,1.29-12.82,3.84-18.71a8.79,8.79,0,0,1,4.69-4.73,4,4,0,0,1,1.43-.29Zm-61.74.4A1.2,1.2,0,1,1,29.05,178,1.19,1.19,0,0,1,30.23,176.85Zm-3.34.07a1.19,1.19,0,1,1-1.18,1.19A1.19,1.19,0,0,1,26.89,176.92Zm25.59.66q2,0,3.78,3.67c1.88,3.79,2.39,6.61,1.48,8.13,0,.07-.08.1-.13.09-.28,0-.79-1-1.58-3.13a22,22,0,0,0-2.26-4.7,1.91,1.91,0,0,0-.77.28c-2.6,1.37-4.43-2.52-1.87-4a2.6,2.6,0,0,1,1.35-.37Zm97.62,0c.11,0,.34.85.42.93s1,.31,1,.43-.85.34-.92.42-.32,1-.43,1-.34-.85-.42-.93-1-.31-1-.43.85-.33.93-.41S150,177.6,150.1,177.59Zm-53.17,1.24a3.07,3.07,0,0,1,1.31,1.5c.92,1.82-.78,5.33-3.1,6.4a3.7,3.7,0,0,1-1.49.34c-1,0-1.69-.4-.71-.91,3.11-1.65,4.41-4,3.82-6.94-.05-.22,0-.35.06-.38a.14.14,0,0,1,.11,0Zm-40.23.64a3.46,3.46,0,0,1,1.77.81,3.78,3.78,0,0,1,.48,3.64c-.15.31-.26.48-.37.47-.69-1.67-1.4-3.31-2.21-4.83C56.41,179.48,56.54,179.46,56.7,179.47Zm-28,.34A1.19,1.19,0,1,1,27.54,181,1.19,1.19,0,0,1,28.72,179.81Zm70.63.19c.23-.05.57.27,1,.95,1.56,2.33-1.57,7.37-4.12,7.49a1.77,1.77,0,0,1-.9-.2c-.68-.35-.58-.61.45-1.22a5.16,5.16,0,0,0,2.1-2A5.48,5.48,0,0,0,99,181.2Q99,180.06,99.35,180Zm2.14,1.37c.08,0,.2,0,.37.16,2.28,1.75-.17,7.85-3.25,8.12h-.25c-1.15,0-1.31-.56-.28-1.28a7.67,7.67,0,0,0,3.26-6c0-.64,0-.93.15-1Zm1.91.57c.13,0,.35.21.71.59,1.56,1.62.46,6-2.56,7.67a2.44,2.44,0,0,1-1.13.31c-.71,0-1-.46-.2-1a7,7,0,0,0,3.1-6.21C103.24,182.37,103.2,181.9,103.4,181.94Zm2.07,1a2.26,2.26,0,0,1,.89.49c1.29,1.07,1,3.85-.33,5.76a5.75,5.75,0,0,1-3.62,2.24,1.09,1.09,0,0,1-.5-.1c-.55-.28-.35-.32.66-1a7.05,7.05,0,0,0,2.87-5.24C105.53,184.05,105,182.9,105.47,183Zm-17.76.16s0,0,0,0a7.28,7.28,0,0,0,1.13,2.2A53.15,53.15,0,0,0,86,198.22c-.51,4.65-.65,9-1.29,13.22l-1.65.05c.13-.62.15-1.27.27-2,.65-4.33,1-10.65,1.7-15.6.88-6.55,2.42-10.69,2.64-10.76Zm-56,.1v3L25.88,192v-2.9Zm76.11,1a.53.53,0,0,1,.18,0c.43.07.69.52.82.9,1.42,2.85-1.21,7.18-4,7.29a2.61,2.61,0,0,1-.87-.12c-.69-.22-.44-.24.74-1,2.24-1.5,2.92-3,3-5.95,0-.45-.06-.82,0-1a.13.13,0,0,1,.13-.1Zm2.22,1.66c.1,0,.28.17.62.48,2.29,3.21-1,7.12-3.66,7.1-1.18,0-1.75-.37-1-.68a5.6,5.6,0,0,0,3.9-5.58C110,186.29,109.88,185.88,110.05,185.89ZM89.48,186l1.34.81C88.6,194.15,88,203.58,87,211.37l-1.39.06c.06-1.4.61-7.87,1.27-13.53.74-6.38,2.27-11.89,2.56-11.89Zm-57.76.84v2.46l-5.84,6.12v-2.55Zm59.94.36,1.31.46c-.88-.28-3,16.85-3.43,23.5l-1.57.15c.23-3.35.8-8.61,1.43-13.36.76-5.74,1.76-10.82,2.26-10.75Zm2,1a7.59,7.59,0,0,1,1.43.8c-1.4-.2-2.53,15.75-3.33,22.06l-1.45.07a156.24,156.24,0,0,1,2.72-21.27c.25-1.08.33-1.55.53-1.64A.16.16,0,0,1,93.7,188.18Zm-41.38.47a2.91,2.91,0,0,0-2.56,4c.51,1.41,1.82,1.62,3.48,1.34,0,0,.71.51,1.55,3.07a53.84,53.84,0,0,0,2.56,6.14c.1-3.8,1-7.75-.68-10.86-1.22-2.26-2.17-3.08-3.25-3.52a2.46,2.46,0,0,0-.76-.16A1.93,1.93,0,0,0,52.32,188.65Zm.26.3c2.46.15,4.83,4.53,4.56,9.19a19.44,19.44,0,0,1-.32,2.62c-1.1-2.29-1.34-4-2.4-6.09-.47-.91-.89-1.68-.89-1.68-3.49,1.64-4.83-2.5-2-3.83a2.2,2.2,0,0,1,1-.21Zm43.2.3,1.47.69c-.4-.13-1.45,4.26-1.8,9.23-.31,4.33-1.09,9-1.32,11.64l-1.6.19C93.55,204,93.65,195.8,95.78,189.25ZM98,190.33l1.5.77c-.79-.24-2.16,14.26-3,19.41l-1.52.24c.59-2.48.59-6.13,1-9.17C96.52,197.81,97.1,190.15,98,190.33Zm2.27,1,1.43.76a171.93,171.93,0,0,0-2.76,18l-1.52.21c.73-5.66,2.06-18.86,2.85-19Zm2.17,1.17,1.56.71s-1.08,5.32-1.6,9.06-.59,4.21-.75,5.18a11.34,11.34,0,0,1-.45,2.2l-1.31.21C100.49,203.69,101.08,197.39,102.41,192.55Zm-73.75,2.73a1.2,1.2,0,1,1-1.18,1.2A1.19,1.19,0,0,1,28.66,195.28Zm1.56,2.81a1.2,1.2,0,1,1-1.18,1.2A1.19,1.19,0,0,1,30.22,198.09Zm-3.25,0a1.19,1.19,0,1,1-1.19,1.19A1.19,1.19,0,0,1,27,198.14Zm1.75,2.77a1.2,1.2,0,1,1-1.18,1.2A1.19,1.19,0,0,1,28.72,200.91Zm-2.84,3.82H39.45L25.88,219.09v-2.48l8.8-9.8h-8.8Zm0,3.19h6.66l-6.66,7Zm17.81.55a5.84,5.84,0,0,0-2.34.53c-.32.13-.56.3-.56.46,1.71,1.57,2.61,4.26,3.2,6.46,1.31,3.48,2.28,7.67,5.29,9.52l-2.08,4.15h65.38L101.7,210.47c-12.39,2.42-29.86,3.67-44.81-.16,0,0-2.57,4.8-3.22,6.08a16.44,16.44,0,0,0-.78-2c-1.75-3.31-5.68-6-9.2-5.92Zm-.14.36a5.61,5.61,0,0,1,.58,0c3.43.23,7.75,3.55,9,6.64l-1,1.91c-.44-.85-.11-1.69-.4-2.45-.07-.33-.77,2.19-.77,2.19a7.17,7.17,0,0,1-.77-3.27c0-.33-.9,1.44-.9,1.44a7.83,7.83,0,0,1-1-4.08c-1.24,1.52-.47,2.39-2.39-1.48-.22.4-.12.83-.41.71-.84-.32-2-.92-2.46-.8.56.71,1.66,1.08,2,2a5.56,5.56,0,0,0-.93,0,6.93,6.93,0,0,1,2.67,2c-.22.08-1.11-.07-1.07,0,1.33,1.21,3.33,2.18.44,1.91,1.87,1.33,4,2.24.71,2.15,2.32,1.1,3,1.78,2.52,2a5.24,5.24,0,0,0-2.05,0c1.87.77,2.64,1.12,2.71,1.37s-.8.47-1.41,1.13c0,0,.76-.17,1.09.18,0,0-.37,1.06-.65,1.67-2.38-2.17-3.32-5.24-3.93-7.22-.31-1-.63-2-.71-2.23-1.14-3.1-1.61-4.13-2.35-5.16-.12-.17-.16-.15,0-.3a4,4,0,0,1,1.59-.38Zm57.63,3,9.41,16.64h-2l-7.43-13.28-11,1.1,3,12.18H90.28l-3-11.86-17.09.09c-.55,4-1.62,11.77-1.62,11.77H65.39l2.1-12.07L57.4,215.13l-5.83,13.34H48.83L57.24,212C73.47,214.54,82.05,214.85,101.18,211.83Zm-42.76,4.83,7,.94L63.5,228.47H53.62Zm41.47.18,6.29,11.63H95.41l-3.1-10.93Zm-14,1.4,2.26,10.23H70.74l1-10.12Z"/></g></g></g><path id="path147-0-8-1-3-6-4-3-4" d="M130.71,223.29c7.85-.17,11.38-9,5.56-15.86-.85-1-.93-1.57.61-.61,3.92,2.61,11.43.89,11.81-7.1.48-9.86-13.31-12.69-15.89-2.22-.14,1.11-1,1.08-.82-.49a32.44,32.44,0,0,1,3.39-12.12H126A32.44,32.44,0,0,1,129.43,197c.22,1.57-.68,1.6-.81.49-2.59-10.47-16.38-7.64-15.9,2.22.38,8,7.89,9.71,11.81,7.1,1.54-1,1.46-.39.61.61-5.81,6.86-2.29,15.69,5.56,15.86Z"/><path id="path147-0-8-1-0-3-83-9-4-0" d="M47.88,26.16c7.86.17,11.38,9,5.56,15.86-.84,1-.93,1.57.62.61,3.91-2.62,11.42-.9,11.81,7.1C66.34,59.58,52.56,62.42,50,52c-.14-1.11-1-1.08-.82.48a32.74,32.74,0,0,0,3.4,12.13H43.21a32.74,32.74,0,0,0,3.4-12.13c.22-1.56-.68-1.59-.82-.48-2.59,10.47-16.37,7.63-15.9-2.22.39-8,7.9-9.72,11.81-7.1,1.55,1,1.46.39.62-.61C36.5,35.16,40,26.33,47.88,26.16Z"/></g><path id="path147-6-9-8-7-0-5-6-79-2-4-7" d="M164.81,209.47c3.14-.07,4.55-3.75,2.23-6.61-.34-.42-.38-.65.24-.25,1.57,1.09,4.57.37,4.73-3,.19-4.11-5.33-5.29-6.36-.93-.06.46-.42.45-.33-.2a14,14,0,0,1,1.36-5.05h-3.74a14,14,0,0,1,1.36,5.05c.09.65-.27.66-.33.2-1-4.36-6.55-3.18-6.36.93.16,3.33,3.16,4,4.73,3,.62-.4.58-.17.25.25-2.33,2.86-.92,6.54,2.22,6.61Z"/><path id="path147-6-9-8-7-4-5-62-3-3-7-5" d="M13.77,40c-3.14.07-4.55,3.75-2.22,6.61.34.41.37.65-.25.25-1.56-1.09-4.57-.37-4.72,3-.19,4.11,5.32,5.29,6.36.92.05-.46.41-.45.33.21a14.21,14.21,0,0,1-1.36,5h3.73a14.21,14.21,0,0,1-1.36-5c-.08-.66.28-.67.33-.21,1,4.37,6.55,3.19,6.36-.92-.15-3.33-3.16-4-4.72-3-.62.4-.59.16-.25-.25,2.33-2.86.92-6.54-2.22-6.61h0Z"/><path id="path35-5-6-2-3" d="M13.69,11.07v2.76h2.68s.07,2.67.09,8.32c0,5.48.13,8.21-.22,9.77-.94,3.6-6.16,3.62-7.19,1a10.22,10.22,0,0,1-.47-4.19H5.69s0,.76,0,1.69c0,4.05,1.36,6,4.5,6.75s7-.45,8.34-3.21c.8-1.57.71-1.68.73-11.18,0-6.34.1-9,.1-9h2.48V11.07Z"/><path id="path35-6-4-1-2-4" d="M164.89,238.38v-2.76h-2.68s-.06-2.67-.09-8.32c0-5.49-.13-8.21.22-9.77.94-3.6,6.16-3.62,7.2-1a10.55,10.55,0,0,1,.47,4.19h2.88s0-.76,0-1.7c0-4.05-1.36-6-4.5-6.75s-7,.46-8.34,3.22c-.8,1.57-.7,1.68-.72,11.18,0,6.34-.11,9-.11,9h-2.47v2.76Z"/></g></g></g></g></svg>