<svg xmlns="http://www.w3.org/2000/svg" viewBox="0 0 178.58 249.45"><defs><style>.cls-1{fill:#fff;}.cls-2{fill:#d40000;}.cls-3{fill:#e2cf00;}.cls-4{fill:#131f67;}</style></defs><g id="Layer_2" data-name="Layer 2"><g id="svg8"><g id="g4942"><path id="rect6355-6-85-3-5-0-1" class="cls-1" d="M8.54,0H170a8.53,8.53,0,0,1,8.54,8.53V240.92a8.53,8.53,0,0,1-8.54,8.53H8.54A8.53,8.53,0,0,1,0,240.92V8.53A8.53,8.53,0,0,1,8.54,0Z"/><path id="path147-6-9-8-7-0-5-6-46-4-5" d="M164.81,209.47c3.14-.07,4.55-3.75,2.22-6.61-.33-.42-.37-.65.25-.25,1.57,1.09,4.57.37,4.72-3,.19-4.11-5.32-5.29-6.35-.93-.06.46-.42.45-.33-.2a14,14,0,0,1,1.36-5.05h-3.74a14,14,0,0,1,1.36,5.05c.09.65-.27.66-.33.2-1-4.36-6.55-3.18-6.36.93.16,3.33,3.16,4,4.73,3,.62-.4.58-.17.24.25-2.32,2.86-.91,6.54,2.23,6.61Z"/><path id="path147-6-9-8-7-4-5-62-9-4-5" d="M13.77,40c-3.14.07-4.55,3.75-2.22,6.61.34.41.37.65-.25.25-1.56-1.09-4.57-.37-4.72,3-.19,4.11,5.32,5.29,6.36.92.05-.46.41-.45.33.21a14.21,14.21,0,0,1-1.36,5h3.73a14.21,14.21,0,0,1-1.36-5c-.09-.66.27-.67.33-.21,1,4.37,6.55,3.19,6.36-.92-.16-3.33-3.16-4-4.73-3-.61.4-.58.16-.24-.25,2.33-2.86.92-6.54-2.23-6.61Z"/><path id="path37-5-2-4" d="M8,28.73H5.75v-3H8s0-1.62.08-4.48c.14-6.1.29-7,2.05-8.72,3.48-3.31,9.32-.61,9.25,4.37-.1,7,0,13.74-.23,14.69-.37,1.67-.41,1.77-.26,2.08.31.61,2.94.88,2.94.7v3a5.48,5.48,0,0,1-4.46-1.19,6.6,6.6,0,0,1-6.5.8C9,36.08,7.58,33.83,8,28.73ZM15.41,34c-1.09-1.57-2.93-3.73-4.66-4.5-.11,1.82.05,3.34.69,4.16a2.52,2.52,0,0,0,4,.34Zm.91-17.37c-.81-2.3-2.89-3.08-4.42-1.64-1,.89-1.1,1.84-1.12,7,0,3.16,0,4.48,0,4.48,3,1,5.73,4.42,5.71,4.38l.07-9.55a26.45,26.45,0,0,0-.23-4.62Z"/><path id="path37-3-2-7-4" d="M170.62,220.71h2.21v3h-2.21s0,1.62-.08,4.48c-.13,6.1-.29,7-2,8.72-3.48,3.31-9.32.61-9.25-4.37.1-7,0-13.74.23-14.69.37-1.68.41-1.77.26-2.08-.31-.61-2.94-.88-2.94-.7v-3a5.48,5.48,0,0,1,4.46,1.19,6.6,6.6,0,0,1,6.5-.8c1.85.87,3.25,3.12,2.87,8.21Zm-7.45-5.25c1.09,1.58,2.93,3.74,4.66,4.51.11-1.82-.05-3.34-.69-4.16a2.53,2.53,0,0,0-4-.35Zm-.91,17.38c.81,2.3,2.9,3.08,4.42,1.64.95-.9,1.1-1.84,1.12-6.95,0-3.16,0-4.48,0-4.48-3-1-5.74-4.42-5.72-4.38l-.07,9.54a26.52,26.52,0,0,0,.23,4.63Z"/><g id="g5457-6-3-6"><g id="g3405-1-0-4"><path id="path3391-4-8-9-0" class="cls-2" d="M95.58,228.76c.44-6.53.06-13.54.36-18.85-.2-.38.52-1.41.56-1.41a7.18,7.18,0,0,1,0-4.61c4.26-16.28,12-29,19.93-40.77,6.47,19.53-13.84,33.23-18.11,50.3-1.42,5.91-1.21,10-1.75,15.37ZM61.82,229,37.67,191.6,42.91,189l24.83,39.84ZM93.06,159.7c.22,1.08,1.06,1.65,2,1.16s1-.51.44.33a1.74,1.74,0,0,0,2.79,2.08,1.43,1.43,0,0,0,.15-2c-.57-.53-.7-.81.15-.4,2.11.86,3.27-2.21,1.23-3.24a2,2,0,0,0-2,.37c-.47.49-.53.32-.41-.06.08-.22.13-.59.31-1a6.66,6.66,0,0,0,.23-.8l-2.16,0s.18.49.36.91.22.69.31.85c.29.59-.06.37-.65-.06a1.68,1.68,0,0,0-2.44.36A2.5,2.5,0,0,0,93.06,159.7Zm3.12-30.44,4.64-.13a74.76,74.76,0,0,0,5.11,14.12c-4.09,6.81-5.19,14.48-.43,22.26l-14.73,0C94.75,153.71,96,141.14,96.18,129.26ZM101,147.65a1.64,1.64,0,0,0,.13-2.25c-.71-.85-.55-.89.41-.34,1.38.8,2.7-.93,1.89-2.46a1.82,1.82,0,0,0-2.84-.32c-.53.72-.47.06-.06-.9.15-.35.37-1,.37-1l-2.25,0s.29.64.44,1.05c.41,1.09.43,1.43-.2.73a1.74,1.74,0,0,0-3,1.35,1.5,1.5,0,0,0,2.18,1.5c.61-.36.89-.45.2.38a1.75,1.75,0,0,0,.32,2.28A2,2,0,0,0,101,147.65Zm-31.11,4.4c.18-.13.25-.05.14.13a6.08,6.08,0,0,1-.54.61c-1,1.17.3,2.66,2,2.43,1.15-.16,1.83-2,1-2.7-.27-.18-.49-.21-.7-.47,0-.1,0-.17.14-.13s.45.31.61.36a1.66,1.66,0,0,0,2.15-.91,2.21,2.21,0,0,0-.71-2.31,1.64,1.64,0,0,0-2.22.44c-.58.78-.66,0-.19-1a6.22,6.22,0,0,0,.31-1l-2.07.11s.11.45.29,1c.46,1.17.79,1.51.2.91-2.52-1.5-3.36.53-3.4,1.34a1.79,1.79,0,0,0,3,1.25Zm10.12-22.91h3.73c-2.81,15-8.58,27.57-18.28,36.22l-18.26-.05-8.8-6.17,3.39-4.43C65,157.12,74.89,145.59,80.05,129.14Zm-16.8,34.78a1.65,1.65,0,0,0,.82-2.56c-.65-.75-.72-1,.29-.4,1.34.79,2.64-.78,2-2.31a1.75,1.75,0,0,0-2.63-.6c-.82.61-.8.34-.38-.63a8.49,8.49,0,0,0,.38-1.24l-2.29,0a9,9,0,0,0,.33.92c.38.86.52,1.25.34,1.25s-.36-.26-.53-.41a2,2,0,0,0-2.16-.06c-1.37,1.31-.6,3.6,1.14,3.18,1.13-.27,1.38-.7.45.36C59.84,162.76,61.62,164.64,63.25,163.92Zm-14.43-.46a1.53,1.53,0,0,0,.73-2.24c-.53-.71-.8-1.17.15-.53,1.26.63,2.36-.21,2.35-1.65a1.79,1.79,0,0,0-2.95-1.3,2.08,2.08,0,0,1-.51.29c-.15,0,.12-.81.43-1.34.13-.23.36-.71.36-.71l-2.29-.08a9,9,0,0,0,.31,1.1c.36,1,.45,1.3-.19.75-1.72-1.61-3.55.44-2.83,2.21a1.44,1.44,0,0,0,2.25.5c.63-.49.31.16-.12.68C45.33,162.54,47.05,164.29,48.82,163.46ZM153.3,125.85l.12,2.77-29.56,24.71-1.24-1.91ZM43.33,131c4.26-3,9-8.49,13.67-11.33C60.41,127.58,52.4,135.29,43.33,131Zm77.73-1.44c-3-16.64,14.82-13.17,13.88-11.69ZM25.35,119.42,54.62,95.5l1.33,2L25.07,122.87Zm80.18-24.13c.08.25,1,1.2,1,1.29-.26-.19-1.76-1-2.49-.22a2.76,2.76,0,0,0-.55,1.77,1.73,1.73,0,0,0,2.89.89c.31-.27.58-.58.64-.47s-.11.55-.25.92-.75,1.15-.32,1.15h2.08a4.45,4.45,0,0,0-.33-1c-.46-1-.44-1.56.12-.83,1.09,1.41,3.21.23,3-1.46A1.58,1.58,0,0,0,109,96a4.73,4.73,0,0,1-.44.36c-.11,0,.2-.46.4-.85.67-1.29-.33-2.48-1.86-2.36a2.23,2.23,0,0,0-1,.4A1.7,1.7,0,0,0,105.53,95.29Zm25.27-12a50.35,50.35,0,0,0,8.78,6.41l-2.76,4.38c-18.73-1.74-32.35,5.68-38,25.81l-2.9-.06c1.16-12.56,5.17-24.35,17.57-36.52Zm-18,3c0,.59,1.09,1.3.85,1.46s-.76-.5-1.06-.53c-2.16-.23-2.61,3.14-.47,3.52a2.68,2.68,0,0,0,1.55-.41c.35-.28.58-.51.66-.48s-.17.64-.41,1.09a12.05,12.05,0,0,0-.52,1.28h2.46s-.23-.76-.45-1.3-.34-1.12-.15-1.07.18.23.35.38a1.83,1.83,0,0,0,3-.91c.38-1.34-1.23-2.73-2.34-2-.4.26-.4.06,0-.53a1.78,1.78,0,0,0,0-1.84A2,2,0,0,0,112.85,86.29Zm17.65,4c-.06-.3,0-.21.33.11A1.82,1.82,0,0,0,134,89.9c.43-1.36-.89-2.92-2-2.38-.59.27-.61.18-.26-.27a1.7,1.7,0,0,0-1.6-2.65,1.66,1.66,0,0,0-1.53,2.5c.28.47.19.57-.3.33-1.41-.69-2.72,1.55-1.69,2.88a2,2,0,0,0,2.82.09c.43-.41.43-.21.11.64s-.57,1.35-.57,1.35l2.45,0A10.34,10.34,0,0,1,130.5,90.28ZM78.17,120.39c.71-.19-2.51-10.42-4.87-15,2.62-6.07,6.09-11.23.18-22l15,0c-4.41,12.23-5.84,37-5.84,37Zm1.32-11.85a4.47,4.47,0,0,1-.79-1.85c-.09-.53,0-.57.33,0,1.34,1.49,3.15.06,3.16-1.26s-1.25-2.23-2.15-1.63c-.64.42-.81.3-.24-.48a1.63,1.63,0,0,0-1.49-2.53c-1.85,0-2.55,1.75-1.23,3,1,.91.06.37-.71,0-1.51-.63-2.5.91-1.82,2.47a1.59,1.59,0,0,0,2.64.48c.44-.47.85-.75.61,0a10,10,0,0,1-.8,1.81Zm2.33-16.23a6,6,0,0,1-1-2c0-.31.17-.23.68.21,1.61,1.39,3.83-1.11,2.33-2.63a1.28,1.28,0,0,0-1.65-.36c-.76.39-.7.2-.32-.21a1.65,1.65,0,0,0-.08-2.22c-1.65-1.47-4.25.72-2.72,2.29.66.68.35.59-.38.16-1.39-.84-2.92,1.44-1.88,2.78,1.23,1,2.16.53,3-.13.18-.1.34-.14.35-.06s-.86,2.16-.86,2.16ZM62,86.14C57.68,72,69,58.32,75.88,47.77c7.28-10.47,6.37-27.86,6.68-27.17l1,.12s-.8,10.2-.35,14.8c.47,4,.37,4.3.08,4.71-.08.37,0,1.48,0,1.86C81.27,50.86,73.63,72,62,86.14Zm75-26.33L112.4,20.66l5.91-.27c2.19,3.49,23.56,36.71,23.56,36.71Z"/><path id="path3395-8-0-1-6" class="cls-3" d="M35.71,229.7c2.8-10.28-4.78-34.19-9.51-37.32,5.55-.23,12.23-.34,12-.65,0,0,23.62,37.25,23.43,37.44s-25.94.53-25.94.53Zm95.73-58.33c-5.73-.82-3.47-5.58.21-6.07-.48.08.39-2.37,3.36-3.36.68-1.23,1.2-3.32,1.82-4.29-1.78.58-3.94,2.08-12,.9.7-3.85,8.43-4.5,11.22-3.91,1.61.38,3.2,2.78,3.69,2.83,5-.82,11.28,3.68,9.37,8.25-.3.65-1.05-.78-2.73-1.38-5.4-2-5.77-4.9-7-6.21-.46-.08-2.84,4.65-2.84,4.65l.74,3.22c1.3-.12,7.05,3.45-.11,5.86-2,6.85-5.72,2-5.7-.49ZM145,140.8c-.31-.32.24-2.45,1-3.67a2.12,2.12,0,0,1,1.83-1c.95.17.8,1.55-.46,5.6C147.29,142.29,146,142.35,145,140.8ZM31,112.48c-1.57,0-.16-4.29.8-5.65.32-.42,1.57.48,1.64,1.1C33.57,109,31.87,112.92,31,112.48ZM29.9,83.36c1.92.46,5,2.4,6.39,3.46,1.8,1.35,1.31,4,2.75,4.22,1-.48,2.75-4.81,2.75-4.81s.45-2.22-.82-2.9c-3.15-1.71-3.09-3.55-2.89-3.71.93-2.43,2.79-2,3.8-2.13,0-1.33,0-4.14,2.72-3.85,2.4.23,2.64,3.67,1.63,3.7,0-.06,4.54-.66,4.5,2.36,0,1.64-2.73,3.73-3.57,3,0,0,.45,3.26-3.64,4.38-1,1-1.73,5.12-1.73,4.75,2.46-2.23,6.32-2.76,12.41-2-3.77,7-14.2,3.73-15,2.37C33.93,90.63,29,88.56,29.9,83.36ZM74.84,66.55l16.6-.21c-.06.57,5.22,3,9.78.36.88-.5,18.55-.22,18.55-.22l11.3,16.73-16.69.39C100.23,95.11,98.43,108,95,120.7l6.16.06c9.92-28.51,34.38-28.39,49.77-16.22L135.1,117.46c-12.26-6.21-17.52,12.08-13.79,12.13l31.88-26.14s.54,2.14.49,2.21c-2.27,3-40.28,33.92-40.28,33.92l-1.67-1.84-2.17,1.83A14.17,14.17,0,0,0,111.2,142c-7.53,6-7.78,17.17-2.23,23.24l-2.72.22c-1,1.28-7.91-13-.17-22.13-3.12-6.15-5-14.52-5.44-14.91.08,1-4.94.66-4.94.66A169.78,169.78,0,0,1,91,165.61l23.07.5-9.82,17.09s-11-.28-15.77-.61c-5-2.89-7.81-.69-12.47.38-6.62.19-16.36-.12-16.36,0A80.52,80.52,0,0,0,48,165.88c-.62-1,19.59-.39,19.59-.39s10.1-15.32,11.94-19.65c1.44-3.38,4.66-15.67,4.66-15.67.15.64-1.83-3.2-6.45-3.12-3.82,25.47-34,34-52.15,17.66l-.17-3,40-32.54,1.78,2.06C66.81,111,42.63,131.13,43,131c7.17,3.76,15.46.71,14.5-11.63a137.15,137.15,0,0,0,15.65-13.81c.1-.19,5.51,12.17,5.38,14.55,3.11-1.05,5,1.15,4.9.77-1.12-7.15,5.12-34.25,5.24-37.37-3.47-.28-8.07-.15-15.28-.44,5.79,11.25,3.78,18.86-4.31,25.79l-1.7-2.14c.69.39,11.83-9.28,2.86-23.72-.41,0-4.73-.39-4.73-.39Zm43-46.46s25.25-.61,25.26.13a59.33,59.33,0,0,0,10,37.49s-11.18-.4-11-.25Z"/><path id="path3393-8-5-4-3" class="cls-4" d="M23.69,19.12v211.2h131.2V19.12ZM142.56,20s-1.7,22.35,9.94,37c-7.11-1.08-11.18,0-15.32,2.94l.57.59c5.7-3.51,10.54-2.59,15.49-2V87.3c0,1.4-5.93.77-9.56-2A20.19,20.19,0,0,1,138,79.48c-.34-.38-2.41-4.26-6.22-11.59-1.93-3.73-4.49-8.81-6.57-12.75-1.34-2.56-3.84-7.38-4-7.76-.37-.8-3.09-6.13-4.15-8.06-2.8-5.12-7.32-14-8.93-17.25-.35-.84-.9-1.3.07-1.28a5.14,5.14,0,0,1,.56,0c.17.09.38-.16.38-.16Zm-60.09.5,1.19.14c0,2.38-.41,4.16-.5,7.33a57.65,57.65,0,0,0,.27,9.31c.18,1.64.29,2.69,0,2.91a1,1,0,0,0-.13.87c0,.46-.07,1.36-.07,1.36-1.84,9-11.66,32.05-20.72,43.3l-.5.17c-1-4.38-.42-10.23.73-14.63,1.68-6.11,4.83-11,8.33-15.94,8-11.24,11.54-19.72,11.39-34.82Zm-57,.19H81.68a49,49,0,0,1-3.39,21.2C75,49.35,69.91,54.87,66,61.69a36.58,36.58,0,0,0-4.61,25.4,58.07,58.07,0,0,1-12.7,12.27l-4.48-4.74s.68-.06,1.47-.09c3.65-.41,7.6-.93,9.13-4.74.21-.43.12-.61-.14-.67-2.86.4-5.34,0-7,.11-4,.28-5.64,1.66-5.64,1.66.6-1.3,1.22-2.75,1.62-3.93A3.73,3.73,0,0,0,47,85.49c.91,0,1.61,0,2.86-.06,0-1.23,0-3,0-3,1.26-1.3,2.12-2.8.16-5.1,0,0-.08-1.07-.1-2.9a20,20,0,0,0-2.92,0,3.16,3.16,0,0,0-5.41,0s-1.3.08-2.2.08c0,.49-.17,2.65-.17,2.65s-3.81,2.6.14,5.67l0,2.58a16.47,16.47,0,0,1,2.23.19s-1.51,3.52-2.5,5.19c-.34.09-.26-.11-.67-1.27a8.92,8.92,0,0,0-2.56-3.62c-1.29-1-3-1.3-4.27-2.17s-2-1.91-2.39-1.71a12,12,0,0,0,.18,4.37c.63,2.54,4.27,4.16,7.32,5.37.23.15.44.38.44.46,0,.42-.4.3-1.4.2a2.14,2.14,0,0,0-2.66,1.55,7.94,7.94,0,0,1-.84,1.23,4.92,4.92,0,0,0-.67.87,16.88,16.88,0,0,1-.67,1.6,3.37,3.37,0,0,0-.53,1.42,31.34,31.34,0,0,0,.18,5.8c.2,1.14,1.62,1.79,2.11,1.88.76.14.89.9.78,1.53-.59,3.09-2.36,5-2.93,4-.15-.27-.31-1.53-.35-1.51a3.86,3.86,0,0,0-.19,1.5,1,1,0,0,0,1.29.6c.86-.32,1.55-1.18,2.09-3.14.22-.8.43-1.25.8-1.31.69,0,1.76,1.47,1.76,1.47-3.57,3-10.41,8.38-10.41,8.38Zm118.34,0h9.4V56.32C146.32,46.58,142.75,35.39,143.84,20.73Zm-44.24,0,.65,0c1.47,2.78,5.07,5.47,5.06,5.46a5.38,5.38,0,0,1,0,1.42c-.08.37-5.72-4.3-6.35-6.88a5.08,5.08,0,0,1,.68,0Zm-15,0c.37,0,1,0,1.21,0C86,21.14,85,23.6,84.44,24s-.61-.06-.2-2.24c.06-.34.1-.88.31-1Zm2.62,0c.49,0,.57,0,1.06,0,.24.6-1.11,3.45-2.79,5.6-.87,1.12-1.31,1.44-1.58,1.18-.23-.51-.22-1.1.58-2A20.43,20.43,0,0,0,86.69,22C86.81,21.58,86.94,20.93,87.17,20.75Zm2.31,0c.44,0,.68,0,1,0,.37,1.53-3.11,7.83-5.65,9.52-.91.6-1,.44-.89-.57,0-.68.11-.62,1-1.51a17.91,17.91,0,0,0,3.56-5c.82-1.78.84-2.35,1-2.48Zm11.89,0c.55,0,.89,0,1.29,0a8.84,8.84,0,0,1,2.07,2.53,2.52,2.52,0,0,1,.16,1.34C104.28,25,101.25,21.16,101.37,20.75Zm4.89,0a1.91,1.91,0,0,0,.24,0c1.25,1.48,2.07,3.94,3.14,5.78.13.24,1.11,1.77.31,1.19-.32-.27-.92-.95-1.87-2-2.24-2.55-2.3-2.4-2.26-3s-.36-1.71.16-1.9a1.42,1.42,0,0,1,.28,0Zm-14.86,0c.45,0,.86,0,1.31,0a2.87,2.87,0,0,1-.15,1.29A26.31,26.31,0,0,1,85.2,32.69c-1.3,1-1.53,1-1.62,0-.06-.61.22-.78.83-1.21a17.83,17.83,0,0,0,6.49-8.92c.21-.68.13-1.53.5-1.74Zm3,0c.25,0,.76,0,1,0,1.32,2.44,4.06,8.18,10.48,10.42.46.1,1,1.42.6,1.78a18.46,18.46,0,0,1-12.08-12.2Zm2.28,0h1.15a19,19,0,0,0,7.76,8.13c.46.26.24.91.4,1.36C102.52,29.75,97.94,24.41,96.71,20.78Zm-3,.52c-.2,0,3,9.58,12.3,12.38.8.25,1.27.6,1.22,1.08s0,.67-.94.22a10.24,10.24,0,0,0-9.13-.41c-.47.24-1,.89-.57,1.3.21.21.74.06,1.42-.21,3.5-1.36,8.86-.56,9.81,1.59.67,1.53.79,2.65.42,2.84s-.76-.37-1.59-1.11c-2.67-2.34-5.85-3-8.39-.74-.54.48-1.09.4-1.28.6s0,.63.19,1.06a1,1,0,0,1,0,1A4,4,0,0,0,97,42.52c.06,1.2.86,2.23,3.14,3.82a7.53,7.53,0,0,0,2.17,1.1s-.55-.42-1.17-.93c-3.73-3-4.41-4.27-2-3.22s5.76,0,8.13-1.81c.81,0,1.29-.16,1.71.15,1.77,4.16,3.22,9.7,5.57,15.07-2.81,3.18-12.58,11-19.55,10.69-6-.24-8.14-10.11-9.47-15.57a34.37,34.37,0,0,1-.9-7.92.35.35,0,0,1,.27-.06,11.11,11.11,0,0,0,3.62.12c1.6-.38,1.92-.66,2-.43s-.56.91-1.72,1.71c-.51.35-2,1.23-2,1.23a13.11,13.11,0,0,0,3.7-1.72s-.52,2.37-.62,2.61c-1,2.37-.86,2.59,1,4a8.7,8.7,0,0,1,1.38,1.24,8.64,8.64,0,0,0,.55,1s-.09-.71-.24-1.58a4.05,4.05,0,0,0-1.54-2c-1-.71-.86-1.4,0-3.8,2.47-7.09,1.84-10.25-.88-11.8-1.23-.69-4.66-.5-5.75.4-.53.45-.46-.43-.37-.49,6.53-4.5,8.06-8.95,9.72-13.09Zm12.61,3.63a77.49,77.49,0,0,1,5.55,6.13A25.35,25.35,0,0,1,113.63,34c.11.18.23.38.15.47s-.3-.12-.45-.23c-1.36-1-7-7.43-7-7.43-.26-1.05-.44-1.41-.06-1.87Zm.7,4.12c.12,0,.31.16.41.23s4.85,5.32,7.64,7.94c.54,1.15,1.59,2.81,1.57,3.09,0,.12-.6-.33-.6-.33-3.07-2.84-5.91-6-8.87-9.06,0,0-.23-1.25-.23-1.77a.11.11,0,0,1,.08-.1Zm1,4c.54.21.9.8,1.24,1.17,1.72,1.84,5,5,8.75,8.69.65,1.07,1.13,2,1.44,2.65.52,1,.35,1-.11.66-3.48-2.85-6.39-6.33-9.66-9.51-.43-.44-1.28-1.42-1.28-1.42S107.28,33,108,33.05ZM87.63,35.31a4.47,4.47,0,0,1,3.56,1.21c.64.8.91,2.07.55,2.44s-1-.42-1-.42c-3.38-1.9-4.54-1-6.37-.42-.27.08-.54-.63-.21-1.33C84.81,35.63,86.52,35.35,87.63,35.31Zm21.25,1.8c3.61,3.63,7.28,7.66,11.19,10.79.54.47.92.77,1.17,1,.51,1,1.7,3.47,1.7,3.47-4.19-2.94-13.62-13.06-13.52-13s-.79-1.85-.54-2.28Zm-7.07.6a5.49,5.49,0,0,1,2,.43c1.82.72,3,1.49,1.08,1.24a14.65,14.65,0,0,0-4.48-.23c-1.78.29-1.92.49-2.08.21C97.87,38.61,99.83,37.73,101.81,37.71Zm-14.89.21a5.3,5.3,0,0,1,2.07.45c2.22,1,2.61,1.61.72,1.31a11.51,11.51,0,0,0-4.08.19,6.21,6.21,0,0,0-1,.38c-.46.14-.59-.2-.39-.77A2.61,2.61,0,0,1,86.92,37.92ZM103,40.77l.46,0c-.57,3.26-3.82,2.94-4.69.15h.46c1.71,2.67,3,1.1,3.77-.17Zm1.81.17c1.5,0,1.4.89-.16,1.49-1.2.47-1.33.38-.89-.52s.38-1,1-1ZM89,41.06h.43a2.1,2.1,0,1,1-4.18.27l.38,0c1.34,2.52,2.88,1,3.37-.25Zm2,.28a.59.59,0,0,1,.27.12c.47.31.18.75-.82,1.36s-1.14-.12-.39-1.06a1.28,1.28,0,0,1,.94-.42Zm7.35.11c.18-.05.6.74.24.93s-.53-.21-.57-.45A.46.46,0,0,1,98.27,41.45Zm12.21.19A105.57,105.57,0,0,0,124,54.21,23.69,23.69,0,0,1,125.34,57c-.19.24-.3.21-.86-.07a92.65,92.65,0,0,1-13.89-13.54C110.41,42.76,110,42.14,110.48,41.64Zm-25.91.28a.25.25,0,0,1,.12.07A.87.87,0,0,1,85,43c-.2.15-.51-.09-.64-.28a.74.74,0,0,1-.05-.69c.08-.13.16-.15.22-.15Zm-.68.5c1.21,10,3,24.87,11.52,25.45,2.8.2,6-1.73,6.57-1.41l17.76-.14a69,69,0,0,0,12.18,17.23c6.43,3.87,15.54,6.38,21.06,4.88-3.51,2.77-7.57,2-12,.8l-.77-.24-3.37,5.08c-7.5-1.78-31.58-.52-37.92,25.73,0,0,.65.33.5.15,5-22.78,26.33-27.32,36.48-25L135,96.23c-16.84-2.06-30.56,8.5-33.82,23.48l.32.3c6.32-22.65,32.89-31,49.36-15.33l3-2.15-.1,2.91-40.5,34-1.62-1.68a18.6,18.6,0,0,0-2,1.74s1.63,1.9,1.68,2c-6.72,5.49-8.87,16.08-2.47,23.48.69.8.58,1,.45.11-5.72-6.24-5-17.29,2.14-22.53l1.44,1.89c-3.09,6.92-4.71,17.71,3.44,18.65,3,7.95-.44,17.38-4.24,23.7-4,7.28-8.92,13.33-12,21.26-1.48,3.31-3.83,13.12-3.71,20.62h-.89L96,209.36s.52-.77.54-.85a3.49,3.49,0,0,1-.16-3c-1.78-6.24-1.92-17.46-7.66-22.61-2.81-2.42-6.55-2.52-11.39-.54-10.69,0-9.1.58-17.73.08A80.25,80.25,0,0,0,47,164.79c-2.19-2.45-5.24-3.78-8.1-5.55a13.8,13.8,0,0,1,3.88-4.83,7.73,7.73,0,0,1,.88-1.24C72.73,156,79,127.73,77.71,128.45l-.26.22c-8,29.1-36.38,28-50.61,15.4-1.61,1.62-2-.18-2.09-1.7l40.76-33.31,1.85,1.84,1.78-1.65-1.46-2.62c10.68-11.09,5.87-16,2.44-23.64.09-.4-4.56-.25-4.56-.25,2.89-4.32,5.35-8.76,7.76-13.21C77.07,62.79,82.26,51,83.89,42.42Zm27.73,3.68c0-.1,12.66,12.78,14.29,12.54.76.44,2.64,4.11,2.64,4.11s0,.33-.26.18c-2.14-1.07-11.11-8.52-15.69-14.07A23.53,23.53,0,0,1,111.62,46.1ZM96.85,47.28c-.93.09-.7.53-.3.71,2.21,1.08,1.26,3.27-1.07,1.87-1.84-1.12-3.3-1.22-3.29-.25a1.09,1.09,0,0,0,1,.93,17.47,17.47,0,0,1,2.63.59c1.39.3,2.43-.07,2.78-.92A2.23,2.23,0,0,0,96.85,47.28Zm16.93,4.15a.76.76,0,0,1,.28.09,89.35,89.35,0,0,0,15.11,12.82,24,24,0,0,1,1.33,2.72c0,.19-.23,0-.23,0-4.45-2.57-10.32-7.69-15.88-13.49a14.15,14.15,0,0,1-.7-2.12.15.15,0,0,1,.09,0Zm-14.4,2.64c-.2,0-.46.33-.8.52-.67.37-.89.47-2.55,0-.91-.27-1-.25-1.59.15a1,1,0,0,1-1.26.17c-1-.43-1.39-.12-2.26.19s-1.12-.07-1.87-.24A17.19,17.19,0,0,0,89,58s.78-.46,1.21-.68c.73-.37.62-.31,1.68-.27a8.22,8.22,0,0,0,4.18-.23,3.28,3.28,0,0,1,3.23.44c.55.45,1.27.38.85-.45a5.12,5.12,0,0,1-.44-1.73c.06-.59-.07-1-.29-1Zm16.32,2.18c.13,0,.35.14.44.19,3,2.86,6.64,7.22,15.26,12.28.45.79,1.06,1.84,1.44,2.66,0,.22,0,.43-.24.35a72.44,72.44,0,0,1-15.68-12.34,19.49,19.49,0,0,1-1.33-3A.14.14,0,0,1,115.7,56.25Zm-.82,1.28,3.3,6.21-11.11,0a42.9,42.9,0,0,0,7.81-6.19Zm-18.17.07a.9.9,0,0,0-.24.07c-1.82.73-2.1.88-3.91.44-1-.26-.76.35-.22.61a4.83,4.83,0,0,0,4.07-.32c.42-.27.73-.86.3-.8Zm-2.11,2c-1.91,0-3.71.69-3.85,1.47,0,.15.13.32.43.14,1.29-.78,4.51-1,6.94-.15.39.14.46-.11,0-.44a5.5,5.5,0,0,0-3.57-1Zm24,2.48a.89.89,0,0,1,.27.17,71.2,71.2,0,0,0,14.81,10.84,20.69,20.69,0,0,0,1.5,2.81C127.9,72.36,120,65.39,120,65.39a26.05,26.05,0,0,1-1.53-3.17c0-.08,0-.13,0-.14a.08.08,0,0,1,.08,0Zm2.75,5.35a82.69,82.69,0,0,0,14.17,9.43c.3.29,1.06,2.1,1.31,2.3s-.3.19-.84-.09c-4-1.83-12.42-7.66-12.42-7.66-.82-1.34-2-2.73-2.22-4Zm3.37,5.8c1.16.9,11,7.06,12.8,7.2,0,0,.86,1,1.58,1.87s.92.95,1,1.12-.25.16-.3.15c-4.42-1.92-8.92-4-12.74-7.15a4.34,4.34,0,0,1-.89-1c-.34-.45-1.34-2-1.44-2.21Zm-80.31.18A3.43,3.43,0,0,1,47.14,77c6.16.52,3.25,6.23-.33,5.35,1.42,3.25-2.84,4.46-3.44,3.91-.24,1-1.86,4.43-2.21,5.43,4.56-3.24,11.91-1.8,13-2-2.65,5.56-11.32,4.21-11.61,4,0,0-4.59-2.18-4.93-2.25-5.93-1.9-7.69-3-8.09-8.58,0-.21.11-.2.31,0,.51.35,2.51,1.66,3.25,2,3.38,1.6,4.35,3.32,5.37,6,.25.26.44.24.75,0A15,15,0,0,0,41.7,86c.08-.2.25-.41.15-.7-.24-.81-.82-1.84-.23-2.63-1.9.09-3.73-1.31-3.5-2.71.51-2.6,1.61-2.13,3.67-2.51-.12-3,1.22-4.14,2.59-4ZM128,78.19c4.49,2.54,8.31,5,12.4,6.31a6,6,0,0,1,1.18.44c.29.21,1.54,1,1.83,1.15,1.87,1.1,2.06,1,1.6,1.24s-3.8-.76-6.57-1.79c-4.92-1.82-6.66-2.85-8.43-4.46C129.56,80.66,127.69,78.42,128,78.19ZM66.49,83.41l3.07,0c4.8,5.85,6.1,16.18-2.27,22.74-1.14-1.33-2.19-2.72-3.21-4.13,6.77-5.65,4.71-11.3-.17-16.95ZM38.35,92.32A2.89,2.89,0,0,1,40,93a20.7,20.7,0,0,0,3,1.9l.46.19,4.42,5-11.38,9.28-1.22-1.27c-.28-.3-.2-.55.15-.89a1.47,1.47,0,0,0,.25-1.15,1.22,1.22,0,0,1,.49-1.32,1.27,1.27,0,0,0,.48-1,1.56,1.56,0,0,1,.62-.81,1.77,1.77,0,0,0,.77-2.13c-.11-.36-.17-.45.28-.75a1.93,1.93,0,0,0,1-2.21c-.16-.85.58-.63,1.19.43a8.41,8.41,0,0,1,.59,2.6c.2,1.27.34,1.62.4,1.44.4-1-.07-4.88-1.24-5.4-1.7-.77-3.13-2.32-2.7-2.94.15-.21.17-.13,1.21.35a9.06,9.06,0,0,0,1.26.51c1.21,0,.48-.48.08-.53a5.35,5.35,0,0,1-2-1.23c-.28-.5-.13-.75.25-.76ZM35.44,93c1.11,0,1.33.29,1.34,1.25,0,.56.22,1,1.1,2.13.36.46.6.81.58,1s-.15,0-1.37-.16c-.44,0-.66,0-.81.17-.42.63-1.31,0-1.86-1C33.11,94.21,33.57,93,35.44,93Zm21.19,1.33,12.09,14.84-1.36,1.06L55.22,95.57Zm-2,.91,1.3,2.19s-3.75,3.21-4.73,4.12c-8,6.47-25.94,21.15-25.94,21.15l-.25-3Zm-21.83.4c.24,0,.51.3.89.89a12.61,12.61,0,0,0,1.8,2.23c1.48,1.36,1.62,1.23.42,1.36-.47.06-.63,0-.92.73-.88,1.09-3.47-2.84-2.86-4.35.23-.58.43-.87.67-.86Zm4.31,2.13a2.23,2.23,0,0,1,.75.27c.64.26.69.41.58,1s-.55.74-1.42,0c-.59-.55-.58-1.09-.19-1.24a.9.9,0,0,1,.28,0Zm19.22.35,1.42,1.84L25.5,126.1v-3C26.29,123.19,46.94,105.17,56.3,98.1Zm-25,.3c.08,0,.22.28.58.82a9,9,0,0,0,2.16,2.4c.72.54.8.85.3.85a.94.94,0,0,0-.65.49c-.31.53-.33.4-.8.12a3.3,3.3,0,0,1-1.62-1.77A4.31,4.31,0,0,1,31.28,98.4Zm5.09,2.09a1.07,1.07,0,0,1,.87,1.71c-.3.29-.57.43-1.18.08-.79-.47-.93-1.19-.28-1.6a1.28,1.28,0,0,1,.59-.19Zm-5.29,2.08c.17,0,.48.24,1,.78a6.41,6.41,0,0,0,1.37.92c.63.35.66.47.32.75-.15.12-.63.12-.75.5-.37,1.09-1.94-.17-2.09-1.72-.08-.79-.08-1.22.14-1.23Zm3.94.12a1,1,0,0,1,.69,1.84c-.44.33-1.57-.24-1.68-.83C34,103.32,34.63,102.68,35,102.69Zm24.06.9A1.09,1.09,0,1,1,58,104.67,1.08,1.08,0,0,1,59.08,103.59Zm-3.23.45a1.08,1.08,0,1,1-1.08,1.08A1.08,1.08,0,0,1,55.85,104Zm-21.43,1.44c1,0,1,1,.45,1.51a.75.75,0,0,1-1.12,0c-.63-.5-.6-1.1-.11-1.38a1.22,1.22,0,0,1,.78-.16ZM56.23,107l-1.73,4.39-4.68.63,1.73-4.38Zm2,.07a1.08,1.08,0,1,1-1.08,1.08A1.08,1.08,0,0,1,58.25,107.07Zm94.85.06v2.74L115,141.69,113.69,140Zm-89.37.08,1.21,1.57L25.5,141v-2.26Zm67.05,2.61c-9.58-.08-19.67,7.38-14.69,24l5-4c-2.16-10.93,6.46-15.28,14.65-12.1l5.1-4.36a15.88,15.88,0,0,0-10.08-3.46Zm-82.6,2.59a1.09,1.09,0,1,1-1.08,1.08A1.08,1.08,0,0,1,48.18,112.41Zm-3.28.27a1,1,0,0,1,1.05,1,1.07,1.07,0,1,1-1.05-1Zm17.45,2.19-5,4c1.28,10.47-3.79,15.8-14.71,12.21l-5.28,4.2C51.65,145.12,70.32,132.43,62.35,114.87ZM47,115.82A1.09,1.09,0,1,1,46,116.9,1.08,1.08,0,0,1,47,115.82Zm-1.85.26-1.74,4.38-4.68.64,1.74-4.39Zm106.53,0a1.09,1.09,0,1,1,0,2.17,1.09,1.09,0,0,1,0-2.17Zm-.83,2.37-1.74,4.39-4.68.63,1.74-4.38ZM37.21,121.6a1.09,1.09,0,1,1-1.08,1.08A1.09,1.09,0,0,1,37.21,121.6Zm-3.11.12A1.09,1.09,0,1,1,33,122.8,1.09,1.09,0,0,1,34.1,121.72Zm108.09.64a1.09,1.09,0,0,1,0,2.17,1.09,1.09,0,0,1,0-2.17Zm11.05.17v2.41l-31,25.81-1.3-1.68Zm-117,2.35A1.09,1.09,0,1,1,35.19,126,1.08,1.08,0,0,1,36.27,124.88Zm108.13.26a1.09,1.09,0,1,1-1.08,1.08A1.08,1.08,0,0,1,144.4,125.14Zm-110,.11-1.73,4.39-4.68.63,1.73-4.38Zm107,.08a1.09,1.09,0,1,1-1.08,1.09A1.08,1.08,0,0,1,141.34,125.33Zm12.07.39-.09,3.06C143.68,137,124,153.4,124,153.41l-1.49-2.06S144.15,132.67,153.41,125.72Zm-13.24,2-1.74,4.39-4.67.63,1.73-4.38Zm13.07,1.94v99.08l-55.92,0c-.7-6.14,1.14-14.26,4.19-22.39,1.88-5,4.59-8.76,7.64-13.26,5.85-8.58,10.27-17.29,8.57-28.33a18,18,0,0,1-.38-2.87,32.46,32.46,0,0,1,5.6-7.08c3-2.48,7.23-6.18,7.57-6a13.4,13.4,0,0,0,3.77,4.7c.28.3.28.57-.36.7-4.17,0-8.47.88-9.87,4.59-.18.7-.19.69.66.61.42,0,2.14,0,3.34,0,2.2.18,5.67.19,7.41-1.14.33-.32.52-.3.58-.12.15.86-1.54,3.68-1.54,3.68l-2.79,1.54s-1.14.06-2.55,0l0,2.52a3.27,3.27,0,0,0,.05,5.62l-.1,2.74,2.69.05c1.79,1.72,3.24,1.71,4.88.09h3.11v-3a3.27,3.27,0,0,0,.18-5l0-3H137.5s-.49-.38-.51-.68a42.8,42.8,0,0,1,2.08-4.06c.44-.62.32-.26,1,1.18,1,2.07,2,2.91,4.5,4.14a13.18,13.18,0,0,1,3.7,2.22c.52.49.83.34,1-.4a6.07,6.07,0,0,0-.61-4.81c-1.91-3.19-5.24-3.34-5.77-4.07-.07-.18.61-.38,1.34-.71a10.38,10.38,0,0,0,3.34-4,5.89,5.89,0,0,1,.47-2.18,4.6,4.6,0,0,0,.27-2.31,5.29,5.29,0,0,1,.08-2.35,5.06,5.06,0,0,0-.88-2.81c-.21-1-.16-.77.51-3.11.11-.38.86-3.65-.1-3.87a7.79,7.79,0,0,1-1.12,6.07,6,6,0,0,1-1.76-1.14,12.48,12.48,0,0,1,.24-2.45c-.15.42-.25,1.49-.73,1.74-.26.06-.61-.17-1.28-.75-.26-.22-.81-.61-.81-.61s7.79-6.69,10.74-8.9ZM26.75,130.69a1.08,1.08,0,1,1-1.08,1.08A1.08,1.08,0,0,1,26.75,130.69Zm104.75.24a1.09,1.09,0,1,1-1.08,1.09A1.09,1.09,0,0,1,131.5,130.93Zm2.36,3a1.09,1.09,0,1,1-1.08,1.09A1.08,1.08,0,0,1,133.86,133.9Zm-3.5.46a1.09,1.09,0,1,1-1.08,1.09A1.08,1.08,0,0,1,130.36,134.36ZM129,136.79l-1.74,4.38-4.67.64,1.73-4.39Zm-17.41,1.74,11.68,14.84-1.49,1.3-11.59-15Zm30.13.77a11.45,11.45,0,0,1,2,1.26c.11.44-.19.57-.64,1a1.62,1.62,0,0,0-.35,1.09c0,.62.19.89,0,1.16-.42,0-.75.52-.73,1s-.42.71-.68,1c-.45.45-.59.54-.88,2.06,0,.15,0,.54-.23.74-.63.06-1.09,1.62-1.38,1.72a1.84,1.84,0,0,1-1.38-1.44,7,7,0,0,1,0-2.28,6,6,0,0,0,.17-1.74c-.11-.45-.41-.18-.41.46A10,10,0,0,1,137,147c-.16.73-.6,1.7-.4,2.28.29.85,1.39,1.22,1.88,1.67a7.29,7.29,0,0,1,1.73,2c1,1.91,1,2.23.78,3.66-.15.83-1,.69-1.43.35,0,0-3.09-2.25-4.43-3.37a15,15,0,0,1-4.32-5.35Zm-21.36.79a1.08,1.08,0,1,1-1.08,1.08A1.08,1.08,0,0,1,120.39,140.09Zm23.88,1.48a1.08,1.08,0,0,1,.47.2c1,.66,0,1.76-.9,1.35a.76.76,0,0,1-.11-1.44.94.94,0,0,1,.54-.11Zm1.71.9c1,0,2,2.3,1.84,3s-.55.81-1.91-.35-1.36-1.18-.82-1.8C145.39,143,145.53,142.49,146,142.47Zm-22.92.41A1.09,1.09,0,1,1,122,144,1.08,1.08,0,0,1,123.06,142.88Zm-3.35.42a1.09,1.09,0,1,1-1.08,1.08A1.08,1.08,0,0,1,119.71,143.3Zm23.73.77c1.06.16,1.34,1,.85,1.57-.66.81-2.16.07-1.8-.89a1,1,0,0,1,.95-.68Zm1.91,1.22c.42,0,1.05.54,1.73,1.5s.84,1.43.62,2.09c-.32,1-.52,1.13-1.21.2a18.7,18.7,0,0,0-1.31-1.63c-.92-1-1.07-.73-.51-1.47.25-.35.43-.67.68-.69Zm-3.41.89a.88.88,0,0,1,.23,0,1.42,1.42,0,0,1,.67.25c1,.49,1,1.14.49,1.59a1.65,1.65,0,0,1-2.07-.73.77.77,0,0,1,.68-1.11Zm2.53,1.67c.54,0,1,.53,1.65,1.6,1.13,1.83,1.19,2.44.22,3.65-.69.86-.76.91-1.43-.47a10.72,10.72,0,0,0-2.59-3.24c-.4-.33-.54-.8-.25-.83l.8,0a1.19,1.19,0,0,0,1-.37,1,1,0,0,1,.61-.3Zm-3.89,1.43a2.17,2.17,0,0,1,1.64.81c.55.58.48,1.11-.6,1.22-.48.19-1.8-.68-1.81-1.26A.72.72,0,0,1,140.58,149.28Zm2.62,2.12c.45,0,.68.46,1.19,1.48.78,1.57.56,2.43-.79,3.13-.92.47-1.62.61-1.73.07a6.65,6.65,0,0,0-.87-3c-.82-1.25-1-1.69-.06-1.32a1.79,1.79,0,0,0,1.55-.12A1.36,1.36,0,0,1,143.2,151.4Zm-4.66,2.53c-.32,0-.52.18-.43.7.28.14.73,0,1.07.13s.75.91,1.23.79C140.47,154.92,139.23,153.94,138.54,153.93Zm-3.6.48a35.55,35.55,0,0,1,4.24,2.7l-2.79,5.82a11.25,11.25,0,0,1,.71,3.18c3.53-.27,5.44,5.69,0,5.14.62,3.69-5.3,6.58-5.14,0-6.17.48-4.1-6.53-.29-5.21-.12-3,1.86-3.36,3.25-4.09a12.51,12.51,0,0,0,1.84-4.22l-.28-.9c-1.17,2-6.15,2.64-11.62,1.55,1.48-3.52,6-3.42,10.13-3.94Zm6.39,3a3,3,0,0,1,.42,0c2,.18,5.42,2.16,6.16,3.27,1.42,2.12,1.33,4.45.74,4.81a21,21,0,0,0-1.82-1.25c-3.26-1.41-5.86-2.57-6.33-4.64C139.92,158.1,140.39,157.49,141.33,157.44ZM30.67,158.69a21.6,21.6,0,0,1,14.77,5.81c1.18,1.18.54.84-.41.39-2.53-1.21-8.78-4-11.79-4-5.59-1.57-5.78-.86-7.74-1.36a17.29,17.29,0,0,1,5.17-.8Zm-4.12,1.68a14.43,14.43,0,0,1,11.92,5.71c5.14,6.79,8.62,15.42,13.16,23.32,5.94,10.33,11.47,22,20.75,39.21l-.89.28L36.1,229c1.69-18.37-7.8-35.9-9.1-36.48,7.94.11,13.21-1.22,15.59-3.52l-.76-1.17c-4.67,4-11.67,4.22-16.33,3,.11-9.92-.31-20.4,0-30.32a9.24,9.24,0,0,1,1.05-.06Zm8.85,1.54c1.42-.11,9.17,3.08,12.63,5.47a19.44,19.44,0,0,1,2.37,2.9c0,.46-.67-.1-4-2a76.07,76.07,0,0,0-7.72-3.66l-.35-.15a3.69,3.69,0,0,0-.52-.47C36.88,163.27,35.11,162,35.4,161.91Zm3.77,3.62A56.92,56.92,0,0,1,53,173.26a10.85,10.85,0,0,1,1.83,3.1c-.55-1-10.3-6.89-13.72-8.23C41.12,168.13,39.17,165.53,39.17,165.53Zm2.74,3.74c.42-.26,11.76,6.46,13.43,8.19a11.84,11.84,0,0,1,2.52,3.95c0,.5-.54.07-1.56-.87A53.91,53.91,0,0,0,43.46,172Zm2.1,3.9c5.33,2.26,12,7.7,15.4,10.93A6.18,6.18,0,0,1,61,186.72c.07.35-.1.33-.17.51-4.38-5-14-10.79-15.28-11.24A19.94,19.94,0,0,1,44,173.17Zm2.05,4c3.14,1,12.12,8.21,15.64,11.74.61.63,1.59,2.82,1.37,3.09s-.1.07-.35-.11a99.67,99.67,0,0,0-14.6-11.39C47.55,180.17,45.66,177.18,46.06,177.13Zm2.66,4.59a3.67,3.67,0,0,1,.61.32c5.52,3.06,13.53,10.75,15,12.6a5,5,0,0,1,.85,2.25c-.07.5-.27.08-2.5-2.13A80,80,0,0,0,50.63,185c-.84-.58-.68-.65-1.29-1.72s-.85-1.54-.62-1.53Zm34.18.08a6.82,6.82,0,0,1,1.13,0c3.94.11,5.48,3.11,7.91,8.62a45.59,45.59,0,0,1,2.9,14.38c0,.27-.47,0-.69,0a7.42,7.42,0,0,0-3.89-.16,10.12,10.12,0,0,1-1.77.21,9.59,9.59,0,0,1,2.64-2.22c.37-.23.75-.52.75-.52a7.79,7.79,0,0,0-3.33,1.53,9,9,0,0,1,.36-1.28c1.15-2.83,1.49-4.5-.21-5a2.55,2.55,0,0,1-1.89-2A2.4,2.4,0,0,0,88,198.16c1.19.85,1.43,1.09.78,3.11-.9,2.84-1.1,3.53-1.26,4.19-.1.38-.28,1-.37,1.44a15.25,15.25,0,0,0-.25,4.34c.39,3,3.59,4.45,7.9,2.8.4-.16.57,0,.57,0-3.43,3.5-7.27,5.73-9.51,12.79-2.89-5.82-7-10.39-13.76-12.22l-.1-1.22c2.37,1.14,7,2.69,9.87.95,1.56-1.07,1.09-1.76-.81-1-2.25.88-6.32.77-8.36-.37a1.08,1.08,0,0,0-1,0c-.11-.68-1.09-3.26-.94-4.23-.09-.14.62-.15.75,0a9,9,0,0,0,6.39,2.82,5.47,5.47,0,0,0,4-1.9c.11-.09.63-.16.7-.24s0-.32,0-.39-.23-.39-.35-.7a1.23,1.23,0,0,1-.17-.8c0-.18.12-.28.22-.41a1.11,1.11,0,0,0,0-.74.45.45,0,0,1-.09-.67c.33-.37-2.25-2.85-3.58-3.69a4,4,0,0,0-1-.3,3,3,0,0,0,.86.89c2,1.31,3.39,3,3.06,3.24s-1.12-.21-2-.42a7.06,7.06,0,0,0-6.28,1c-.88.72-3.19.83-3.19.83,0-1.22-5-14.49-5.34-14.76,2-2.27,8-7.61,14.09-9.91a15.54,15.54,0,0,1,4.11-.79Zm-22,3.2,11.06.17c-2.78,1.4-7.83,6.43-7.83,6.43C62.71,188.69,62.27,187.23,60.93,185Zm-9.56,1.46c.83,0,9.6,7.18,10.85,8.87.15.2,1,1.14,2,2.09,2.27,2.28,3.21,3.6,3.22,4.54,0,.44-.4.15-1-.51a64.67,64.67,0,0,0-13.12-11.7c-.64-.35-2.62-3-1.95-3.28Zm30,1.32c-.25,0-.21.23-.07.45,1.39,1.23,5.07,1.18,6.33.18s-.35-.43-.82-.23a5.61,5.61,0,0,1-3.81,0,14.15,14.15,0,0,0-1.63-.42Zm3.39,2c-1.29,0-2.63.4-2.33.87.11.17.46.5,1.3,0,1.21-.6,3.71.19,3.78.21.26.06-.83-.72-1.19-.88A3.88,3.88,0,0,0,84.79,189.79Zm-31,1.34C58.52,194,64.26,199.81,67.71,204a4.21,4.21,0,0,1,1,2.1c0,.75-.15.33-3.29-2.85a89.49,89.49,0,0,0-8.62-7.8c-1.47-1.08-1.73-1.22-2.43-2.49S53.48,191.11,53.8,191.13Zm36,.11h-.07a4.42,4.42,0,0,1-2,.76c-1.3,0-2.45-.8-4.47.08A4.3,4.3,0,0,1,80,192c-1-.35-.79-.05-.4,1.09a6.55,6.55,0,0,1,.29,1.35c0,.25,0,.27.74-.14s.77-.48,2.13-.16,1.4.2,2.05-.14.69-.47,1.08-.32a2.87,2.87,0,0,0,2.58-.07,1.12,1.12,0,0,1,1.34,0c.46.24.65.09.46-.38a6.41,6.41,0,0,1-.21-1.24C90,191.64,89.94,191.26,89.78,191.24ZM25.5,193.08c11.76,14.69,9.88,35.86,9.49,35.69l-9.49,0Zm30.8,3a73.12,73.12,0,0,1,13.38,13c.53.69.1.9.36,1.73.1.31-.42-.14-1.92-1.75-1.85-2-4.91-5-6.92-6.76a24.37,24.37,0,0,1-3.31-3c-.37-.54-1.88-3.14-1.59-3.22Zm26.43,1.35h-.15a1.82,1.82,0,0,0-1.09,3.28,3,3,0,0,0,1.6.56l-.67-.51c-1.19-.92-1.07-2.36.29-2.37.47,0,.5.16,1.59.94,1.28.93,2.79.93,2.77,0,0-.68-.26-1.38-1.41-1.27a3.11,3.11,0,0,1-1,0,4.78,4.78,0,0,1-.76-.35,2.9,2.9,0,0,0-1.12-.27Zm-23.38,4.33c3.59,2.41,8.53,7.88,11.05,11.11a2,2,0,0,1,.39,2c-.06.09-.5-.19-.5-.19-2.92-3.44-6.23-6.57-9.48-9.75C60.81,204.94,58.88,201.82,59.35,201.73Zm32.42,3.47c.69,0,1.51.49,2.41,1.76l-.78.38c-1.17-1.76-2.25-1.79-3.15.28l-.58-.15C89.39,207.2,90.26,205.15,91.77,205.2Zm2.24.25a1.26,1.26,0,0,1,1,.52.43.43,0,0,1-.47.63,4.71,4.71,0,0,1-.71-.85C93.7,205.55,93.76,205.44,94,205.45Zm-15.8.14a2.84,2.84,0,0,1,2.6,2l-.87,0c-1.65-2.18-2.89-.71-3.63.19l-.93-.12a2.54,2.54,0,0,1,2.83-2.13Zm11.05.16a1.22,1.22,0,0,1,.38.07,3.32,3.32,0,0,0-.48,1.43c-.33.14-.81.43-1.17.06C87.32,206.7,88.35,205.73,89.26,205.75ZM75.61,206c.41,0,.29,0,.11.2a4.3,4.3,0,0,0-.61,1c0,.26-.08.37-.32.38a7.94,7.94,0,0,1-1.27-.15c-.35-.33,1-1.42,2.09-1.45Zm5.34.32c.27,0,.21.36.12.51s-.24.27-.34,0a1.11,1.11,0,0,0-.18-.29c-.13-.18-.12-.19,0-.22l.35,0Zm-18.49,1.37c3.38,2.87,5.92,6.13,8.63,9.12a2.35,2.35,0,0,1,.69,1.75c-.13.55-1.24-.75-1.24-.75s-6.6-7.08-6.6-7.08A19.75,19.75,0,0,1,62.46,207.67Zm32.68.37c1,0,.34,1.7-1.07,2.11a5.29,5.29,0,0,1-5.15-.43c-1-.6-1.35-1.22-.45-1,3.4.94,4.23.76,6.28-.57A.64.64,0,0,1,95.14,208Zm-22.58.62A10.1,10.1,0,0,1,74,209c3.25,1,4.23.95,6.1.09,1.2-.55,1.69-.47,1.18.36-.94,1.52-4.26,1.68-6.74.84a7,7,0,0,1-1.88-1.1c-.34-.35-.42-.51-.12-.5Zm15,1a2.74,2.74,0,0,1,1,.46c2.72,1.55,4.73,1.26,6.41.22.31-.27.47-.14.51.13.15.94.19,1.62-.24,2.08a3.47,3.47,0,0,1-1.32.6c-2.64.89-5.85.25-6.46-1.74-.2-1-.33-1.73.1-1.75Zm-21.63,4.25h0c.19,0,.63.42,1.33,1.21,3.63,4.12,5.63,6.49,5.27,7.69,0,0-.06.25-.21.12a24.07,24.07,0,0,1-4.84-5.59c-1.33-2.16-1.88-3.4-1.58-3.43Zm29.22,1.58c.56.23,0,1.35,0,1.33-3.06,2.34-6.78,7.93-7.11,10.68-.07.53,0,1.11-.16,1.3H87c-.28-.05-.36-.19-.33-.52.27-2.94,1.93-7.89,8.53-12.79Zm-22.64.05a2.91,2.91,0,0,1,1,.31,18.9,18.9,0,0,1,5.55,3.07c3.31,2.71,7,9.28,5.93,9.88h-.74c-.41-.74-.7-1.72-1.08-2.41A20,20,0,0,0,74,217.5c-1.51-.74-1.66-.66-1.77-1.27s0-.67.27-.68Zm22.62,2.37c.28,0,.34.48.25,1.49a1.79,1.79,0,0,1-.21.85,20.64,20.64,0,0,0-5,8.55c-.4,0-1.17.05-1.16,0-.24-.12-.26-.83-.19-1.11a20.62,20.62,0,0,1,4.92-8.56c.73-.79,1.17-1.2,1.41-1.22Zm-22,.07a18.16,18.16,0,0,1,10.19,10.84c-.46,0-1.12,0-1.29,0-.35-.13-.53-.79-1.18-2A15.15,15.15,0,0,0,74,220a2.89,2.89,0,0,1-.92-.56c-.18-.36-.41-1.4,0-1.48Zm.78,2.88a11.54,11.54,0,0,1,2.75,1.67c1.85,1.36,4.74,5.68,4.16,6.27h-1.2A22.6,22.6,0,0,0,74,222.52c-.32-.53-1.06-1.79-.08-1.65Zm-4.11.62c.09,0,.44.32,1.06,1,1.86,2,3,4.13,2.77,5.22-.23.93-.5.42-2.63-3.65C70.07,222.33,69.64,221.52,69.76,221.49Zm25.41.06a6.41,6.41,0,0,1-.17,2c-.08.4-.35.59-.6.91a13.72,13.72,0,0,0-2.08,4.35H91.08C91.22,227,92.92,223.94,95.17,221.55Zm-21,2.07c.56.08,4.93,4.66,4.29,5.19-.76,0-.4,0-1.31,0a21.92,21.92,0,0,0-2.93-3.69l-.11-1.45S74.09,223.62,74.12,223.62Zm20.77,1.62h0a10.46,10.46,0,0,1,0,3.57c-.36,0-1,0-1.38,0a.73.73,0,0,1-.25-.76c.2-.6,1.28-2.73,1.63-2.81Zm-20.21,1.49c.45,0,1.66,1.77,1.54,2.08-.51,0-1.41,0-1.47,0a5.43,5.43,0,0,1-.15-2.06A.11.11,0,0,1,74.68,226.73Z"/><path id="path3389-2-3-5-0" d="M111.45,19.5l.62.82-3.63,0c.6.5,14.06,27.66,31.27,59,2.85,5.51,8.28,7.49,14.59,7.73l-16.72-27c1.78-1,5.32-3.57,7.46-3.09.13.66.76.4.77-.19l.78,0,.27.42h3.25l.26-.38,2.8.4c-7.48-9.25-11.43-23.5-10.15-37.41L118.21,20l-.33-.44Zm-29.21.85a50.32,50.32,0,0,1-2.33,18.09C77.09,47.58,70.11,55.09,66,62.66,61.53,70.92,60.49,78.11,61.74,86l.81.07A135.1,135.1,0,0,0,83.45,42.4c.09-.33-.06-.91,0-1.25a1,1,0,0,1,.08-.95c.24-.26.15-1.24,0-2.88a66.69,66.69,0,0,1,0-13c.31-3.38.29-3.91.29-3.91Zm60.31.39c-.8,9.11,1,21.63,5.29,29a3.43,3.43,0,0,1-.22.63c-.41.62-.61.09-.86-.41-.91-1.68-2.63-2-3.38-1-1.66,2.27.14,3.17,1.54,4.45-5.72-.35-7.62-6.66-6.3-9.78a4.09,4.09,0,0,0,.71,2.13c1.6,2.45,3.95.38,3.28-1.55a10.87,10.87,0,0,0-1.31-2.13,7.6,7.6,0,0,0,2-.55,1.61,1.61,0,0,0,.73-1.72,3.41,3.41,0,0,0-.49-1.5,2.3,2.3,0,0,0-1.78-.86c-1.18.08-1.32.9-2.09,1.45-.2-1.46-1.13-2.58-2.66-2.3a2,2,0,0,0-1.29,3c.36.8.86,1,1.37,1.72-8.21-.92-7.32-10.7-6.41-10.52,0,0,.25-.05.18.33-.47,2.39,2.49,3.82,3.79,2.08.83-1.41-1-3.64-1-3.64a7.86,7.86,0,0,0,1.72-.56c2.15-1.24-.14-4.81-2.13-3.93-.7.32-.88,1-1.56,1.32-.46-.51-.49-1.07-1.31-1.53-2.25-1.26-3.66,1.72-2.41,3,.51.53,1.41,1,1.23,1.07-7-.88-6.91-8.29-6.75-8.23Zm-29.47,0h4.83l23.42,36.51-4.28,2.1Zm5.81,0h2.66c.41,8.16,7.26,9.25,8.32,9.13C128.12,35.41,131,41.47,138,42.33c-1.6,5.12,1.23,11.86,6.81,11.68l.59.37a6.56,6.56,0,0,0-.41,2.28,17.91,17.91,0,0,0-2.72.43C135.05,46.18,118.89,20.76,118.89,20.76Zm-36.36,0h1c-.28,4.35-.9,10.08-.5,14.32.47,4.05.5,4.62.21,5s-.19.65-.11,1a2,2,0,0,1,0,1A88.11,88.11,0,0,1,79.8,52.7C75.31,65.13,68,78.67,62.23,85.78c0,0-.26,0-.27,0a36,36,0,0,1,3.55-21.57C69.06,57.33,74.65,51.46,78,44.26A49.67,49.67,0,0,0,82.53,20.8Zm49.1,7.09a1.1,1.1,0,1,1-1.1,1.1A1.1,1.1,0,0,1,131.63,27.89Zm7.77,12.18a1.12,1.12,0,1,1-1.11,1.11A1.11,1.11,0,0,1,139.4,40.07ZM83.6,42.24h0C84,43.83,76.16,67.72,65,82.92l4.86.1.15.54c6.81,10.08,2.55,19-2.94,23.14l1.9,2.54-1.71,1.39-1.72-2c-13.93,10.48-41.12,33.68-41.12,33.68L24.6,146l2.12-1.67c13.79,13.39,43,12.65,50.71-15l2.06,0C74.85,149.63,56,157.56,41.72,154.2L38.38,159l.9.48c-.17-.26-.32-.35-.08-.58L42,155.25C63.36,158,76.23,145.89,80.4,129.5l2.72.05a66.77,66.77,0,0,1-17.94,35.37c-6.63,0-18.27-.18-18.27-.18,4.24,4.12,12.34,16.69,12.66,18,0,0,8.33.26,17.27,0,3.27-1.48,7.65-2.07,9.7-1,3.6,1.81,7,8.56,8.5,19.38a45.82,45.82,0,0,0,.85,4.53c0,.1.27.17.3.15s-.22.5-.23.92a2.26,2.26,0,0,0,.2,1.27.54.54,0,0,1,.18.58,5.27,5.27,0,0,1-.51.53c-.07,6.3,0,12-.38,19.78h1.24c0-12.47,3.74-24,9.53-32,3.52-5.22,7.24-10.84,9.3-16.19A30.72,30.72,0,0,0,116.91,163l-.85,0c-5.08-3.49-7.16-11-.89-16.29l-2.22-2.9c-6.26,4.86-7.69,13.81-1.21,21.22H109.2c-6.32-7.92-4.92-17,2.39-23.5L110,139.5l1.78-1.58,1.6,1.76,40.82-34.19,0-3.74L151,104.29c-18.3-17-45.46-5.06-49.44,15.38l-2.48,0c5.21-22,24.44-28.22,38.35-25.29l3.43-5.21a20.26,20.26,0,0,1-7.31-4.38,18.18,18.18,0,0,1-2.31-2.19c-6.59-7-11.06-16.67-11.27-16.69l-17.91,0c-2.63,1.3-7.13,2.78-9.6.79-5.3-4.3-7.08-13-7.81-18.53-.22-1.74-.41-4.76-.57-5.76a.41.41,0,0,0-.47-.16Zm63.5,9.64A1.09,1.09,0,1,1,146,53,1.08,1.08,0,0,1,147.1,51.88Zm2.33,1.28a13.31,13.31,0,0,1,2.11,3.58c-.42,0-.8.11-1.26-.25A5,5,0,0,0,149,53.63Zm-3.27,1.61a1.93,1.93,0,0,1,.39,1.78c-.44.09-.73.06-.88-.09A1.91,1.91,0,0,1,146.16,54.77ZM74.92,66.68l16.63,0c2.89,2.22,5.72,1.93,9.82.15h18.49l1,1.9H74c.26-.71.9-2.07.9-2.07Zm-1.37,3H121.4l1.21,1.95H72.36Zm4.62,2.84h5.37l-2,3.38H76Zm11.92,0h5.12l-2.28,3.38H87.85Zm16.57,0-2.15,3.38H99.3l2.23-3.35Zm6.43,0h5.13l-1.92,3.38H111ZM44.15,73c-3.33,0-2.71,4.39-2.4,4.25-2.09-.48-3.63.52-3.89,2.3a3.08,3.08,0,0,0,3.59,3.16,3.87,3.87,0,0,0,.33,2.7,11.87,11.87,0,0,1-1.23,3C39,91.56,38.73,91.71,38,89.63s-1.87-3.36-4.84-4.81a17.62,17.62,0,0,1-2.49-1.49c-1.32-1-1.34-1-1.28,1,.08,2.64.88,3.8,3.69,5.35a20.58,20.58,0,0,0,4.49,1.84A14.43,14.43,0,0,1,41,93.1a8.3,8.3,0,0,0,3.14,1,16,16,0,0,0,7.57-1.53c1.21-.7,1.68-1.33,2.58-3.13a20.79,20.79,0,0,1-4.47-.21c-2.92-.18-4.37,0-6.58,1.14-1.85,1-2,1.14-1.18-.45a24.5,24.5,0,0,0,1-2.45c.32-.85.4-.92,1.21-1a3,3,0,0,0,3-3,4.65,4.65,0,0,0,0-1c1.2.18,3.68-.42,3.6-2.93-.07-2.26-1.67-2.78-3.65-2.93a3.16,3.16,0,0,0-3-3.64Zm0,.7c2.92,0,2.85,2.71,1.58,4.23l-1.55-1.28L43,77.82C41.61,77,41.61,73.7,44.19,73.71Zm79.78,0,1.43,2.12h-3Zm-54.44,3H75l-2.2,3.1H67.63s1.16-2,1.9-3.1Zm17.31,0L84.76,80H80l1.92-3.16Zm6.43,0h5l-2,3.44H91.36Zm11.67,0h5l-2,3.44h-5Zm11.38,0h5.18l-2.14,3.44h-5Zm-68,.61a2.25,2.25,0,0,1,2.24,2.45c-.44,2.9-3.22,2.74-4,1.33l1.13-1.3-1.39-1.37A2.25,2.25,0,0,1,48.28,77.41Zm-4,0,2.47,2.5-2.4,2.41L41.85,80Zm-3.61.2a2.34,2.34,0,0,1,1.59.85L40.9,80l1.47,1.42c-.95,1.31-4.57,1.2-3.84-2A2.08,2.08,0,0,1,40.65,77.63Zm86.15.48,1.52,2.1-2.86,0Zm-82.47.54-1.16,1.17L44.33,81l1.17-1.16Zm22.92,2,61.39.2,1.65,2c-21.44.37-42.43-.34-64.32-.36ZM45.67,82c2.43,1.5.63,4.65-2,4.11-1.94-.85-2.34-2.88-.59-4l1.37,1.13Zm21,1.21H65.05l-1.64,1.91c6.17,6.52,5.94,12.17.2,17.09l2.31,2.6c6.45-5.53,7.87-14.22.8-21.61Zm6.34.25c3.45,5.42,6.45,15.68-3.86,25.07L68,107c9-8.78,6.86-16.17,2.84-23.5Zm1,.13L88,83.65c-3,11.4-5.08,18.11-5.4,35.95l-4,0c.43-.41-2.09-10.78-5-14.37,6.18-10.51,2.85-16.44.52-21.67Zm-43.85,0a9.92,9.92,0,0,1,1.7.89c3,1.52,5.34,3,5.92,5.11.4,1.16.15,1.18-1,.09a33.46,33.46,0,0,0-4.12-3.11c-.82-.56-1.08-.47-.6.21a8.65,8.65,0,0,0,2.56,2c1.08.66,2.57,2,2.45,2.18s-.29.16-.81-.07c-.24-.11-1-.43-1.72-.71-3-1.24-4.33-2.76-4.52-5.28C30,84,29.9,83.61,30.17,83.61Zm63.61,0a4.05,4.05,0,0,1,.48.79c.12.5-.37,1-1.92,1.64-.53.24-1,.37-1,.68.07.73,1.46,1.84,1.29,2.83-.32.76-2.25,1.5-2.73,2.39,0,.62,1.25,1.56,1.07,2.4-.1.25-.5.5-1.1,1-1.22,1.07-1.3,1.23-.85,2.06,1,1.92,1.08,1.78-.34,3.15S87.32,102,88,103.18s.7,1.23-.29,2.06-.93,1-.41,2,.62,1-.23,1.74-1.18,1-.48,2.08.78,1.1,0,2-.86.93-.44,1.53c.52.76.62,1,.07,1.79s-.59.84,0,1.68a2.53,2.53,0,0,1,.38,1.49H84.8a4.29,4.29,0,0,0-.21-1.36c-.49-.89-.48-1.16.1-2s.5-.87-.06-1.68-.48-.81.25-1.74.71-1.25.33-1.74c-.91-1.15-.9-1.64,0-2.4.69-.58.75-.84.16-1.84s-.66-1.07.41-2,1.09-1,.35-2.1-.68-1.16.47-2.23S87.79,99.4,87,98s-.72-1.26.67-2.5,1.85-1.3.47-3c-.77-1.31-.22-1.44,1-2.1,2.22-1.35,1.21-1.27.28-3.28-.78-1.35-.33-1.36,1-2a10.57,10.57,0,0,0,1.09-.52c.91-.51.42-1,.42-1Zm2.9,0,6.65.09c-7.71,9.87-11.42,22.51-12.75,35.84l-2.52,0c-.16-10.41,3.11-23.41,8.62-35.89Zm7.61.07h0l3.28.06s.61.74.89,1c1.41,1.6,1.54,1.29-1.58,3-2,1.12-2.84,1.63-3,2.1s.86,1.4,1,2c0,.07-2.67,1.87-3.16,2.13-.68.32-.71.61,0,1.78.77,1.34.71,1.29-1,2.46s-1.94,1-1.25,2.15c1,1.57.51,1.93-1.75,3.15-.57.31-.58.62-.19,1.69.56,1.49.7,1.34-.47,2.15-1.37,1-1.62,1-1.31,1.56.89,1.7,1.24,2.11,0,2.66-.9.42-.92.66-.42,1.78s.63,1.08-.26,1.72-1.32.45-.51,1.41c.64.76.58,1.36.06,1.83-.45.19-.65,1-.52,1.06l-1.15,0a1.3,1.3,0,0,1,.32-2c.14-.28,0-.48-.4-1.14-.5-.91-.48-1,.24-1.55s.75-.39.26-1.58c-.56-1.38-.53-1.53.35-2.17s.89-.77.29-2-.62-1.27.93-2.3c1.09-.73,1.11-.69.53-2-.4-.93-.12-1.26,1.36-2.27.85-.59.92-.7.52-1.39-1.1-1.92-1.09-2,.81-3.21,1.55-1,1.53-1.09.94-2.44s-.71-1.34,1.42-2.62c1.75-1,1.85-1,1.12-2.26-.89-1.57-.83-1.32,2.67-3.32,1.26-.87,2.4-.57,1.15-2-.56-.71-1.24-1.47-1.24-1.47Zm10.63.11,15.93,0c3.81,3.22,6.63,5.06,8.64,5.78,0,0-2.69,4.47-2.89,4.3a32.6,32.6,0,0,0-38,25.51l-2.43,0a53.58,53.58,0,0,1,6.59-20.67,57.23,57.23,0,0,1,12.12-15ZM42.39,86.35c.24,0,.43.29.42.85a6.77,6.77,0,0,1-.76,2.33c-.75,1.58-1.48,2.75-1.87,2.76-.92,0-.89-.2.32-2.58C41.13,88.61,41.79,86.45,42.39,86.35Zm6.52,3.37c1.61,0,3.26.18,4.75.22,0,3.35-10.47,5-11,3.35,1.83-1.44,7.23-.8,8.37-2.09-1.38-.08-3.25.15-4.53.18-1.6,0-4.18.71-4.2,1-.17-.88,2.74-2.54,5.05-2.64.51,0,1,0,1.57,0Zm5.65,5.33S34.12,112,24,120.21l.07,3.66L56.41,97.33Zm-.07.84,1.31,1.59-30.36,24.8-.11-2.6Zm75.79,1c6.45,0,13.39,2.33,20.15,7.67l-1.1,1.17c-29.64-22.12-56.94,11.46-41.89,35.48a6,6,0,0,1-1.18,1.08c-12.84-21.35,3-45.48,24-45.4Zm3.83,2.83a9.69,9.69,0,0,1,6.09,2.75c1.52,1.83,1.08,2.65-.85.92-2.08-1.52-3.8-1.87-.91-.08a4.8,4.8,0,0,1,1.24,1.25c.1.31-.43,0-2.85-.9a8,8,0,0,1-3.74-2.92c-.35-.72.14-1,1-1Zm-6.24,0a4.63,4.63,0,0,1,1.33.13,9,9,0,0,1,3.58,1.55c.54.42.36.72-.26.45a17.07,17.07,0,0,0-3.47-1c-.6.06,0,.46.87.67,1.92.48,2.87,1,1.5,1a34.84,34.84,0,0,1-4.69,0c-1.42-.17-3.54-1.47-3-1.94s2.62-.91,4.19-.92Zm-6.08,2c2.52,0,3.88,1,1.13,1.16-4.73.75-5.63,1.78-.4.55,1.22-.29,1.2.15.36.57-.69.33-1.55.5-2.27.85a10.18,10.18,0,0,1-5.4.22c-1.71-.65,3.64-3.39,6.58-3.35Zm20.23.42c1.27,0,4,1.88,5.19,3.62.79,1.13.39,1.94-.8,1-.24-.18-1.95-1.64-2-1.67s1.42,1.44,1.65,1.87.66,1.18-.2,1.2c-1.33-.17-4.46-3.67-4.48-5.4,0-.47.26-.66.68-.65Zm-15.76,1c.53,0,.26.26-.75,1-1.81,1.28-.86,1,1.25-.07a8.31,8.31,0,0,1,1.7-.64c.27,0,.6-.12.72-.16.57-.18.13.53-.8,1.27a17,17,0,0,1-5.67,3.18c-1.93.48-2.35.54-1.63-.67,1.14-1.93,2.8-3.47,4.38-3.77a6,6,0,0,1,.8-.11Zm6.52,0a15.36,15.36,0,0,1,3.38.49c1.1.35.81.42-.51.57-2.49.27-1.46.56,1,.52,3.31,0-1.65,1.19-3.26,1.44a15.29,15.29,0,0,1-4.36-.51c-1-.19-.42-1,1.56-1.91a5.17,5.17,0,0,1,2.23-.6Zm20.42.45.09,2.13-40,33.54-1.36-1.51Zm-13.61,1.83c1.59,0,3.9,1.09,3.65,1.76-.09.25-.27.24-1.49-.09-.8-.21-2.23-.43-2-.26a10.91,10.91,0,0,0,1.61.6c1.41.34,3.1,1.13,2.72,1.37-.65.4-1.25.09-2,0-1.94-.27-5.11-1.25-5.64-1.74s1.49-1.62,3.21-1.64Zm-18.66.13c.29,0,.39.28.12.65a11.74,11.74,0,0,0-1,1.69,10.22,10.22,0,0,1-3.47,3.69c-1.28.81-1.47.67-1.36-1a5.74,5.74,0,0,1,3.14-4.42c.81-.11,1.27-.32.42.69-1.5,1.81-.47,1.62.93-.43.45-.65.91-.89,1.2-.87Zm-5.2.24h0c.87,0,1.16.3,0,.83a17.33,17.33,0,0,0-3.22,2.13c-.08.28.7-.16,2-.87,1.75-1,1.91-.94,1.06.16a12.2,12.2,0,0,1-5.06,3.36c-2.53.69-2.47.21-1.06-1.67,1.35-2,2.49-3,4.22-3.58a7,7,0,0,1,2-.36Zm-42.84.31c9.16,15.85,4.08,32-6.56,40.17-11.12,8.59-28.41,8.08-38.62-2.23l1.42-1.34s16.09,16.44,36.36,1.85c10.29-7.4,14.54-24.89,6.05-37.08Zm-41.06,0h-.07a20.27,20.27,0,0,0-1.71,5,1.28,1.28,0,0,0,.38,1.15c.24.24.62.09.74,0,.78-.35,1.21-.89,1.88-2.6a4.49,4.49,0,0,0,.43-2.44,1.69,1.69,0,0,0-.6-.74,2.86,2.86,0,0,0-1.05-.47ZM32,107a1.69,1.69,0,0,1,1.18,1c0,.74-.42,2-.73,1.8-.53-.66-1.14-.25-1.24-.49a5,5,0,0,1,.72-2.32Zm99,.59h0a16.67,16.67,0,0,1,11.11,3.84l-1.59,1.46a17.33,17.33,0,0,0-19.92-.16c-4.77,3.33-9,10.7-4.85,21.09l-1.5,1.35a18.7,18.7,0,0,1,6-24.61,20.26,20.26,0,0,1,10.31-3Zm-60.27,1.22c.13,0,.31.41.29.9s-.27,1.38-.68,1.55S69.6,110,69.6,110a5.18,5.18,0,0,1,1.13-1.28Zm73,.47a3.45,3.45,0,0,1,.46,0c.46.06.46.47,0,.86s-.7.45-1.17.11-.44-.53-.08-.79a1.61,1.61,0,0,1,.76-.19Zm-78.28.09L66.78,111l-4.69,3.78-.56,0L25.67,144.6V142Zm64.94.85a14.79,14.79,0,0,1,10,3.18l-4.89,4.05c-9.76-5.09-17.59,4-14.83,12.21l-4.22,3.67C111,118.34,120.89,110.46,130.37,110.17Zm-15.58,0h0a.24.24,0,0,1,.09.06,10.65,10.65,0,0,1-.42,3.44,1.34,1.34,0,0,0-.16.53,21.78,21.78,0,0,1-1.61,3.37,7.69,7.69,0,0,0-.63,1.37c-.56,2.73-1.79-1.66-1.36-4.2.21-1.2,1.9-3.67,2.39-3.49.25.09.24.28-.2,1.24-1.23,2.67-1.53,4-.25,1.46,1.49-3,1.87-3.74,2.1-3.78Zm-83,0a.44.44,0,0,1,.4.33,1.17,1.17,0,0,1,0,.74,1.38,1.38,0,0,1-1.29.9.57.57,0,0,1-.51-.47,1.11,1.11,0,0,1,.31-.9,1.68,1.68,0,0,1,1.08-.6Zm37.19.18c.58,0,1.19,1.58.8,2.3s-.38.47-.94-.66a12.19,12.19,0,0,1-.51-1.23l.47-.37a.28.28,0,0,1,.12,0Zm-1,.65a7.91,7.91,0,0,1,.76,2c.09.54.07.44-.51.22a2.74,2.74,0,0,1-.86-.83,6.08,6.08,0,0,0-.38-.58Zm3.66.24c.31,0,.64.3.94,1.06,1.14,2.87,1,6.08-.24,7.6-.21.25-.27.26-.52.1a2.87,2.87,0,0,1,0-1.87,5.82,5.82,0,0,0,.27-1.41c0-1.1-.27-1.23-.41-.22-.17,1.18-.35,2-.67,1.3a10.15,10.15,0,0,1-.37-1.1c-.64-2.48.11-5.43,1-5.46Zm-4.94.73s1.09,1.42,1.54,1.92c.16.28.15.35-.1.44-.43.17-1.88-.79-2.46-1.09-.3-.25-.17-.44-.17-.44a14.26,14.26,0,0,1,1.19-.83Zm43.09,0h0c.58,0,.58.2,0,1.1-3.48,5-2.78,4.27-.57,1.53,1.23-1.53,1.44-1.67,1.58-1.33a18.23,18.23,0,0,1-2.12,4.29,8.72,8.72,0,0,1-2.4,1.83c-1.65.84-1.47.5-.86-1.58.78-3.22,2.74-5.82,4.41-5.84ZM64.7,113.82C74.22,137.57,48.14,148,36.37,137l1.37-1.09c16.37,11.13,32.53-6.71,25.13-20.66,0,0,.67-.56,1.83-1.44Zm2.2.57c1.57.17,3.89,3,4,4.64.25,1.14-.07,1.34-.63.54-.93-1.74-.82-.64,0,1.09.42.87.52,1.92.08,2-.6-.12-1.91-2.21-2.31-3.07a10,10,0,0,1-1.54-4.35c-.1-.53,0-.81.42-.82Zm-4.74.78c7.26,14-8.35,30.72-24.23,19.89l4.76-3.79c8.29,4,17.53-1,14.88-12.41Zm68.13,1.6a8.19,8.19,0,0,1,4.27,1l-13.09,10.93C119.36,121.63,124.94,116.92,130.29,116.77Zm-20,1h0c.43-.09.79,2.66.87,6.51s.17,4.15-1,2.76a11.45,11.45,0,0,1-1.36-1.62c-.77-1.47-.52-3-.31-5.16s.92-1.7.8.41c-.07,1.35-.06,3,.15,3s.1-.13,0-.31a34.07,34.07,0,0,1,.55-5.27c.08-.22.17-.33.25-.35Zm-36.08,1.66c1,.37,1.22,3.54.19,6.6a4.39,4.39,0,0,1-2.12,2.7c-.72.38-.89.26-.56-.4a11,11,0,0,0,1.15-3.58c.1-1.35-.61-.26-.55.32-.56,2.52-1.29,2.9-1.2.24a6.49,6.49,0,0,1,1.25-4.15c.46-.67,1-1.6,1.84-1.73Zm32.84.32c.39,0,.48.53.13,1.55a29.77,29.77,0,0,0-1,3c.06,0,.94-2.07,1.12-2.4.29-.55.4-.66.66-.64a9.66,9.66,0,0,1-.13,3.34c-.53,2.75-2.4,5.58-3.11,4.74-1.16-1.38-.62-6.94.92-8.63.59-.64,1.07-1,1.37-1Zm-49.86.42c1.41,9.71-6.58,13.85-13.48,10.92C43.81,131,57.14,120.15,57.14,120.15Zm32.64.18,1.39,1.83,2.55.14-1.3,1.92,1.29,2.47-2.84.06-1.63,1.88-1.43-1.7-2.48-.13,1.45-2.32-1.17-2.22,2.68-.12Zm-21.39.84a7.12,7.12,0,0,1,2,2.84c.48,1.86.3,5.36-.36,5.24-.72-2.52-.44-3.83-.7-3.54-.45.47.28,4.34,0,5.29-.12.24-.5-.05-.94-.68-1.15-1.66-1-8.19-.11-9.15Zm85.12,3.93-31.46,26.13,1.82,2.34L153.56,129Zm-45.43.45c.14,0,.45.19,1,.84a16.46,16.46,0,0,1,2.52,4.78,16.31,16.31,0,0,0,.54,1.69c.22.53.24.68.1.84-.54.67-2.82-1-3.55-2.65-1-2.28-1.06-4.33,0-2.33.38.73.85,1.79.84,1.37a13.33,13.33,0,0,0-.81-2.33c-.21-.43-1-2.14-.65-2.21Zm45.09.63.07,2.17-29.3,24.56-1.14-1.4,30.37-25.33Zm-45.73,1.34c.13,0,.21.21.16.65-.13,1.43-.48,4.54-.41,4.81a23.89,23.89,0,0,0,.56-2.45c.5-2.06,1.27,2.86.81,5.07-.08.35-.22.91-.3,1.25a5.41,5.41,0,0,1-.42,1.09c-.83,1.31-2.78-3.9-2.45-6.56C105.59,129.73,106.94,127.47,107.44,127.52Zm-33.89,1.14c.38,0,.45.36.39,1.15-.22,2.72-2,5.57-4,6.33s-2.15.6-1-.81c.88-1.07,1.42-2.19,1.27-2.33s-.28.36-1,1.29c-.89,1.15-1,.17-.23-1.52a7,7,0,0,1,2.69-3.13,5.25,5.25,0,0,1,1.86-1Zm17.81.83A86.57,86.57,0,0,1,82.44,165H77.19c6.42-9.49,10.53-21.25,11.67-35.43Zm2.31,0a9.88,9.88,0,0,1,1.11,1.37c.35.61.45,1.14-.19,1.6-.75.63-1.06.39.15,2,.64.83.44,1-.36,1.66s-.86.75-.1,1.72,1,1.2-.1,2-1,.89-.22,2.07.89,1.06-.43,2.18c-1.13,1-1.15.7-.07,2.46.4.64.38.68-.35,1.34-1.81,1.6-1.72,1.5-1.46,1.92,2,2.84,1.08,2.75-.85,4.11-.39.33-.29.71.58,2.13.75,1.21.64,1.47-1.1,2.67s-1.87,1.41-1,2.68.91,1.17-.54,2.47c-.65.58-1.19,1.12-1.19,1.12h-3.2s.67-.62,1.13-1c2.64-2,2.63-1.75,1.52-3.16-1-1.25-.89-1.33.1-2,.72-.52,1.69-1,2.41-1.57.39-.28.1-.51-.55-1.74-.73-1.38-.77-1.22.59-2.34s1.5-1.17.7-2.72-.82-1.42.2-2.26c1.51-1.23,1.59-1.17.79-2.6-.64-1.15-.64-1.11.43-2.19s1-1,.31-2-.62-1.15.24-1.91.79-.78,0-1.83-.74-1,.18-1.76c.48-.43,1-.86.94-1.06a6,6,0,0,0-1-1.94c-.18-.26.18-.34.75-.94s.56-.46.12-1.26c-.24-.44-.69-1.18-.69-1.18Zm-8.6,0h0l.92,0a4.69,4.69,0,0,0,.37.42c.58.6.61,1,0,1.28s-.35.74.12,1.44.5.65-.22,1.37-1.12.78-.31,1.92c.47.54.41,1.08-.31,1.56-.56.36-1.48.67-.51,2.06.48,1,.52.93-.47,1.63-1.32.94-1.57.78-1,2.14.67,1.52.74,1.54-.64,2.56-1.61,1.18-1.66,1.28-1,2.7s.69,1.06-1,2.39c-1.24,1-1.53,1-1.16,1.83.69,1.5,1,1.9-1,2.94-2.32,1.19-2.44,1.28-1.32,3.05.9,1.45.7,1.24-.79,2.11-2.17,1.25-3.13,1.79-3.19,2.18s1.68,1.75,1.68,1.75l-3,.08s-1.27-1-1.76-1.52c-1.37-1.33-1.38-.9,3.16-3.11,2.51-1.22,2.3-.94,1.89-1.65-1.21-2.11-1.25-2.32,1-3.47,2-1,1.63-1.07,1.15-2.57-.42-1.31-.35-1.19.69-2,2.51-1.87,2.44-1.68,2-2.6s-.68-1.32-.39-1.76c.9-1.3,2.83-1.58,2-3.13-.37-1-.5-1.22.61-2.09s1-.73.37-1.83-.67-1.18.47-2c.81-.75.8-.73.35-1.46-.63-1-.6-1,.3-1.82.73-.64.85-.68.39-1.39-.62-.94-.52-1.14.3-1.61.5-.28.49-.39.45-.87a5.65,5.65,0,0,0-.27-.62Zm11.34.05h4.21a34.67,34.67,0,0,0,5,13.51c-5.32,8.57-4.11,15.68-.86,22l-13.33,0a117.22,117.22,0,0,0,4.93-35.45Zm-28.88,0c.16,0,.27.24.53.69.84,1.44.24,3.48-1,5.62-.92,1.6-1.09.38-.67-1.93.27-1.45-.46.73-.81,2.49-.19,1-.64,1.72-1.14,1.67s-.32-1.41-.31-1.71c.11-2.1.89-3.59,2.41-5.68.57-.79.81-1.14,1-1.15Zm43,4.12a1.58,1.58,0,0,1,.82.27c.27.15.75.45,1.08.63,1.17.64,1.27.84.71,1.49s-1.12.49-2.31-.84C110,134.38,110,133.75,110.49,133.73Zm-.39,1.76a1.63,1.63,0,0,1,1,.64c.77.88.68,1.63-.17,1.41-.35-.51-.53-1.28-.86-1.86C110,135.55,110,135.48,110.1,135.49Zm37.58.11a3,3,0,0,0-2.23,2c-.72,3.06-.72,2.93-.07,3.37l.43.29c.38.3.89.76,1,.67.62,0,1.56-3.92,1.53-4.72s.07-1-.14-1.35a.52.52,0,0,0-.48-.25Zm-38.15.07a.22.22,0,0,1,.18.07,5.88,5.88,0,0,1,.94,2,1.33,1.33,0,0,1-.13.49c-.42.81-1.08,0-1.14-1.38C109.34,136.05,109.38,135.69,109.53,135.67Zm38,.6h.09c.5,0,.42.54-.27,1.29-.37.4-1.12.58-1.37.34s.39-1.33,1.2-1.56a1.8,1.8,0,0,1,.35-.07Zm-84.52.43h.08a.89.89,0,0,1,.66.33,1.8,1.8,0,0,1,0,1.59c-.39,1.4-3,4.11-4,4.12-.55-.1,1.78-3.08,1.85-3.58-.17-.17-1.62,1.51-2.3,2.67a5.56,5.56,0,0,1-.84,1.29c-.49.06-1,.37-1,0,.08-1.49,3-4.72,4-5.62a2.52,2.52,0,0,1,1.55-.84Zm7,.14c2.24,0-2.17,4.89-5,5.6a5.84,5.84,0,0,1-2.64.09c-.12-.18,0-.33.38-.43a15.23,15.23,0,0,0,3.5-2.23c0-.28-1.21.18-2.24.85-.66.43-1,.34-.61-.18a7.89,7.89,0,0,1,6.64-3.7Zm38.8,0c.13,0,.26.26.33.83.41,1,.43,1.34,0,1.65-.66.53-.82.38-.81-.84,0-1,.22-1.66.43-1.64ZM35,138.24s.81.31.47.7-1.24,0-1.24,0Zm112.61,0c.26,0,.27.23.13.85a6,6,0,0,1-1,2.53,3.68,3.68,0,0,1-1.12-.68c-.1-.11-.43-.35-.47-.51a1.6,1.6,0,0,1,.4-1.53,1.21,1.21,0,0,1,.63-.21,3.38,3.38,0,0,0,.86-.28A1.51,1.51,0,0,1,147.62,138.28ZM35.29,139.46a5.72,5.72,0,0,1,1.76.25A22.6,22.6,0,0,1,42.2,142c.68.65-1.09,1.34-3.22,1.37-1.13,0-1.34-.23-2.91-1.16-.2-.14-1.11-.74-.84-1s1.16.08,2.25.64c.35.18,1.21.12,1.21,0a17.79,17.79,0,0,0-3.8-1.51c-1.07-.34-1-.68-.39-.83a5.4,5.4,0,0,1,.79-.05Zm-2.13.75s.45.4,1,.84a7.6,7.6,0,0,1,1.88,1.84c.74.9,1.91,3.15,1.78,3.56-.3.94-3.42-.7-6-3.27a18.62,18.62,0,0,1-1.32-1.45l1-.88s.86.72,1.84,1.59c1.86,1.64,1.85,1.08,0-.65l-1-.93c0-.31.32-.59.82-.65Zm76.33.08s1,1,1.37,1.51c-6.08,6-8.41,14.29-2.54,23.16h-2.81C100.23,154.54,102.73,146.7,109.49,140.29Zm-51.43.24c.38,0,0,.43-.64,1.58-1.25,2.13-1.5,2.67-3.53,3.2a9.16,9.16,0,0,1-1.58.07c-.87.11-.49,0,.86-.87,1.85-1.21.27-.59-1.44.3-1,.51-2,.49-2.13.22s.4-.53.69-.79c2.62-2.35,3.42-2.25,5.85-3.1A12.36,12.36,0,0,1,58.06,140.53Zm-10.93,2.13h0a12.38,12.38,0,0,1,2.61.27c.52.12,1.37.23.65.87a8.76,8.76,0,0,1-4.6,1.88c-.23,0-3.56-.23-2.85-.95a7.83,7.83,0,0,1,1-.13c1.84-.35,1.34-.65-.93-.53-2.84.16-3-.14-.82-.73a18.86,18.86,0,0,1,4.54-.68Zm15.18.23c1.27,0,2.25.21,2.25.7,0,.78-2.38,2.5-4,2.84l-1.16.26a21.41,21.41,0,0,1-3.89-.09c-1.42-.52-.43-.72,2.18-1,1.13-.13,1.68-.43,1.67-.64a4.52,4.52,0,0,0-2.08,0c-1.39.18-1.12-.23.62-1.13a10.55,10.55,0,0,1,4.37-.93ZM38.9,144a6.22,6.22,0,0,1,1.32.45c1.51.44,3.59.94,5,2.5,1.15,1.12,1.43,1.48,1.18,1.87s-3.86.12-5.36-.53a7.08,7.08,0,0,1-2.72-2.12c-1.31-1.91-.76-2.42.91-1.08,2,1.61,2.3,1.77,2.66,1.7.14,0-.21-.36-.89-.86C39.34,144.64,38.51,144,38.9,144ZM51.25,146a6.62,6.62,0,0,1,3.67.87c2,.73,1.55,1.37-2.07,2.27a6.63,6.63,0,0,1-5-.69c-2.92-1.8-2.73-2.16.53-1.35,1.07.26,2.14.31,2.2.11a9.41,9.41,0,0,0-2.29-.83c-1.14-.38-.16-.35,2.12-.37Zm84,7.78-.54.26a13.84,13.84,0,0,1-2.24.28c-3.71.22-6.59,1.12-8.28,4.33,1.49-.1,9.92,1.42,12.26-1.62.49-.64-1.26,4.81-2.16,5.05-2.22-.26-3.15,3.23-2.93,3.08-2.24.88-4,1.39-3.41,4,.25,1.14,1.4,2.49,3.83,2.15-.66,4.53,4.86,5.7,5.47.24,0,0,1.07-.2,1.49-.25,2.51-.6,3.12-4.29-.57-5.46-1-.3-1.08-.49-1.08-.49a3.39,3.39,0,0,0-.46-2.68c.82-1.94,2.85-5.7,2.85-5.7Zm-.31,1c.36,0,.62,0,.7.13.51.68-2.14,1.81-5,2a15.1,15.1,0,0,0-2.06.25c-.3.53,5.45.14,7.25-.87.61-.34.67,0,.4.49-2.08,2.69-7.11,2-11,1.56-.22-.23,0-.51.85-1.22a8.39,8.39,0,0,1,5.33-2c.53,0,2.46-.36,3.53-.37Zm2.84,2.11a.84.84,0,0,1,1,.8,50.21,50.21,0,0,1-2.25,4.68c-.23.23-1.06.39-1-.5s1.8-4.9,2.28-5Zm3.49.13c-.62.05-1.31.45-1.32.94.56,4,3.62,5,6.55,6.28.78.35,1.43,1,2.21,1.39,1.45-2-.19-5.84-2.74-7.09C144,157.67,142.3,157,141.23,157Zm.25.7c3.14-.11,7.14,2.48,7.41,5.67,0,.1.15,2.06-.3,2-.67-.2-1-.88-2.12-1.33-2.24-1.07-5.28-2-6-4.93-.11-.82.16-.9.85-.24,1.53,1.22,3.05,1.64,4.57,2.82.42.33,1.93,1.18.9.13a19.41,19.41,0,0,0-3.86-2.48c-1.52-.73-2.35-1.62-1.48-1.63Zm-115.11,4c-.48,0-1,0-1.48.05L42.24,189c-4.27,2.26-6.37,3.25-13.47,2.7l0,.36-3-.18c5.2,8.15,11.63,18.78,9.8,37.32l21.27,0c.4.58.48.42,1,0l9.56-.05.25.31,4.45,0s-20.33-38.15-30.54-57.09c-3.94-7.12-8-10.53-15.2-10.52Zm108,.95a2.18,2.18,0,0,1,2.28,2.28,4.65,4.65,0,0,1-.67,1.91l-1.55-1.48-1.48,1.48a2.55,2.55,0,0,1-.92-2.41,2.75,2.75,0,0,1,2.34-1.78Zm-18,.55c1.47,5.74,3.05,13.65-9.68,31.94-7.54,10.82-10,21-10.3,33.48h-.77c.36-6.84.41-19.23.41-19.23l.71-.64a4.23,4.23,0,0,1-.46-1.14c-.24-1,0-.7.58-3.5,2.6-13.52,19.51-40.92,19.51-40.92Zm-68,2.63,64.55.29-.85,1.7-62.47-.45Zm86.05.49,2.39,2.34-2.34,2.64L132,168.73Zm-4.06.07a2.87,2.87,0,0,1,2.09.92l-1.31,1.4,1.14,1.19c-1.17,2.46-4.28.54-4.17-1.3a2.26,2.26,0,0,1,2.25-2.21Zm7.83.22a2.42,2.42,0,0,1,2.2,2.22c.18,1.7-2.46,3.61-3.8,1.25l1-1.32-1.18-1.3A2.57,2.57,0,0,1,138.18,166.63Zm-3.76,1-1.16,1.16,1.16,1.17,1.17-1.17Zm-74.29.86,5.29.05-2,3.69-5.36,0Zm11.78,0h4.86l-2,3.74H69.8Zm11.47,0h5.15l-2.09,3.74H81.15Zm11.53,0h5.27l-1.92,3.74H92.79Zm11.75,0h5.08l-2.06,3.74h-5.23Zm-56.12,0H54L52.56,171ZM133,170.8l1.46,1.35,1.21-1.26a2.34,2.34,0,0,1-1.44,4.2A2.39,2.39,0,0,1,133,170.8Zm-69.16,2.07h5L67,176.24H62.09Zm11,0h5.45l-1.92,3.37H73.24Zm11.67,0H92l-1.77,3.37H84.74Zm11.62,0h5.38l-1.68,3.37H96.2ZM53.83,173h3.43l-1.46,2.7Zm2.59,3.9,50.31.45-.85,1.64H57.7Zm1.76,2.93,47.16.12-1.09,2.26L88,182.17c-3.18-2.38-6.81-1.28-11,.07,0,0-12.47.13-17.37,0ZM42.5,189.45l24.87,39.36-5.49-.06-23.62-37Zm-5,2.57L61,228.8c-1.08,0-2.08,0-3.16,0a9.38,9.38,0,0,0-8.31-10.26c1.94-8-3.9-11.41-7.8-12,1.58-10.44-7-11.92-7.17-11.82a8.87,8.87,0,0,0-.23-2.19,11.73,11.73,0,0,0,3.19-.49Zm-3.8.58c0,.22.44,2.3-.49,1.92l-.07-1.92Zm-6,0,1.09,0c.34,1.38,1.05,1.65,2,2.58,0,0-1.23.21-1.52,0A12.06,12.06,0,0,1,27.68,192.61ZM32.44,195a1.09,1.09,0,1,1-1.07,1.09A1.08,1.08,0,0,1,32.44,195Zm2.14.84c3.09-.21,7.56,3.11,6.38,9.33a10,10,0,0,0-.94-2.07c-2.13-2.88-4.64,1.07-3,2.68.83.79,1.21,1.1,1.12,1.17a2.26,2.26,0,0,0-2.55,3.21c1.32,2.42,3.16,1.14,4.22-.3,0,0,.65,2.17,1.3,2.45A2.25,2.25,0,0,0,44,211c.69-1.8-1-2.26-1.37-3.25,3.57.11,8.12,5.35,6,9.89.27-1-.83-3.36-3-2.76-1.08.38-1.45,1.95-.59,3.56a5.51,5.51,0,0,0,.43.71,5.23,5.23,0,0,0-1.17.28c-2.79,1.72.8,6.42,2.88,3.48a6.36,6.36,0,0,1,.56-.75c.34.66.45,1.58,1.07,1.9,2.58,1.29,3.72-1.45,2.64-2.79-.61-.76-1.29-1.63-1.29-1.63-.11-.48,7.7,1.57,6.75,9.19l-20.71,0c1.92-11.71-2.73-25.11-5.11-29.19l1-1.36c.26.5.69,1.78,1.44,2,2.41.78,3.14-.91,2.82-2.64-.17-.92-1.46-1.66-1.87-1.79Zm5.48,11a1,1,0,1,1-1,1A1,1,0,0,1,40.06,206.84ZM47.84,219a1,1,0,1,1-1,1A1,1,0,0,1,47.84,219Z"/></g></g><path id="path147-0-8-1-3-6-7-5-8" d="M130.71,223.29c7.85-.17,11.37-9,5.56-15.86-.85-1-.93-1.57.61-.61,3.92,2.61,11.43.89,11.81-7.1.48-9.86-13.31-12.69-15.9-2.22-.13,1.11-1,1.08-.81-.49a32.49,32.49,0,0,1,3.39-12.12H126A32.49,32.49,0,0,1,129.43,197c.22,1.57-.68,1.6-.82.49-2.58-10.47-16.37-7.64-15.89,2.22.38,8,7.89,9.71,11.81,7.1,1.54-1,1.46-.39.61.61-5.82,6.86-2.29,15.69,5.56,15.86Z"/><path id="path147-0-8-1-0-3-83-6-6-4" d="M47.88,26.16c7.86.17,11.38,9,5.56,15.86-.84,1-.93,1.57.62.61,3.91-2.61,11.42-.9,11.81,7.1C66.34,59.58,52.56,62.42,50,52c-.14-1.11-1-1.08-.82.49a32.75,32.75,0,0,0,3.4,12.12H43.21a32.75,32.75,0,0,0,3.4-12.12c.21-1.57-.69-1.6-.82-.49-2.59,10.47-16.37,7.63-15.9-2.22.38-8,7.89-9.71,11.81-7.1,1.55,1,1.46.39.62-.61C36.5,35.16,40,26.33,47.87,26.16Z"/></g></g></g></svg>