<svg xmlns="http://www.w3.org/2000/svg" viewBox="0 0 178.58 249.45"><defs><style>.cls-1{fill:#fff;}</style></defs><g id="Layer_2" data-name="Layer 2"><g id="svg8"><g id="g5421"><g id="layer1-33-1-8-0-7"><path id="rect6355-6-85-4-0-5" class="cls-1" d="M8.54,0H170a8.53,8.53,0,0,1,8.54,8.53V240.92a8.53,8.53,0,0,1-8.54,8.53H8.54A8.53,8.53,0,0,1,0,240.92V8.53A8.53,8.53,0,0,1,8.54,0Z"/></g><path id="path147-0-8-1-6-7-2-1-6-3" d="M89.29,26.49c-7.86.17-11.38,9-5.56,15.86.84,1,.93,1.57-.62.61-3.91-2.61-11.42-.89-11.81,7.1-.47,9.86,13.31,12.7,15.9,2.22.14-1.11,1-1.08.82.49a32.64,32.64,0,0,1-3.4,12.12H94a32.64,32.64,0,0,1-3.4-12.12c-.21-1.57.68-1.6.82-.49,2.59,10.48,16.37,7.64,15.9-2.22-.39-8-7.9-9.71-11.81-7.1-1.55,1-1.46.39-.62-.61,5.82-6.86,2.3-15.69-5.56-15.86Z"/><path id="path147-0-8-1-6-1-4-5-4-2" d="M89.29,223.63c-7.86-.17-11.38-9-5.56-15.87.84-1,.93-1.57-.62-.61-3.91,2.62-11.42.9-11.81-7.1-.47-9.85,13.31-12.69,15.9-2.21.14,1.1,1,1.08.82-.49a32.64,32.64,0,0,0-3.4-12.12H94a32.64,32.64,0,0,0-3.4,12.12c-.21,1.57.68,1.59.82.49,2.59-10.48,16.37-7.64,15.9,2.21-.39,8-7.9,9.72-11.81,7.1-1.55-1-1.46-.39-.62.61,5.82,6.86,2.3,15.7-5.56,15.87Z"/><path id="path147-6-9-8-7-0-5-4-9-1" d="M164.81,209.47c3.14-.07,4.55-3.75,2.22-6.61-.33-.42-.37-.65.25-.25,1.57,1.09,4.57.37,4.72-3,.19-4.11-5.32-5.29-6.35-.93-.06.46-.42.45-.33-.2a13.8,13.8,0,0,1,1.36-5.05h-3.74a14,14,0,0,1,1.36,5.05c.09.65-.27.66-.33.2-1-4.36-6.55-3.18-6.36.93.16,3.33,3.16,4,4.73,3,.62-.4.58-.17.24.25-2.32,2.86-.91,6.54,2.23,6.61Z"/><path id="path147-6-9-8-7-4-5-9-2-7" d="M13.77,40c-3.14.07-4.55,3.75-2.22,6.61.34.41.37.65-.25.25-1.56-1.09-4.57-.37-4.72,3-.19,4.11,5.32,5.29,6.36.92.05-.46.41-.45.33.21a14.21,14.21,0,0,1-1.36,5h3.73a14.21,14.21,0,0,1-1.36-5c-.08-.66.28-.67.33-.21,1,4.37,6.55,3.19,6.36-.92-.15-3.33-3.16-4-4.73-3-.61.4-.58.16-.24-.25,2.33-2.86.92-6.54-2.22-6.61h0Z"/><path id="path15-9-1-0-1" d="M5.86,37.41,6,35.79c.4-5,1.48-6.73,7.62-12,3-2.55,3.95-3.81,4.09-5.26C18.09,15.11,15,14,13.06,14,10.5,14,7.59,15.56,9,19.19l-2.88.86c-.58-3.38,0-6.56,2.71-8C12.41,10.24,17,11,19.36,13.86a6.93,6.93,0,0,1,1.08,6.74C18,26,9.66,28.34,9,34.56h9.2V31.09h2.72v6.38l-15-.06Z"/><path id="path15-5-7-4-9-4" d="M172.32,212l-.13,1.62c-.4,5-1.48,6.73-7.62,12-3,2.55-3.95,3.8-4.08,5.26-.39,3.44,2.65,4.51,4.63,4.53,2.57,0,5.47-1.54,4.08-5.17l2.88-.86c.58,3.38,0,6.56-2.71,8-3.6,1.84-8.21,1.12-10.54-1.78a6.91,6.91,0,0,1-1.09-6.74c2.46-5.37,10.78-7.74,11.47-14H160v3.46h-2.72V212l15,.06Z"/></g></g></g></svg>