<svg xmlns="http://www.w3.org/2000/svg" viewBox="0 0 178.58 249.45"><defs><style>.cls-1{fill:#fff;}</style></defs><g id="Layer_2" data-name="Layer 2"><g id="svg8"><g id="g5431"><g id="layer1-33-1-4-5-7"><path id="rect6355-6-85-2-7-5" class="cls-1" d="M8.54,0H170a8.53,8.53,0,0,1,8.54,8.53V240.92a8.53,8.53,0,0,1-8.54,8.53H8.54A8.53,8.53,0,0,1,0,240.92V8.53A8.53,8.53,0,0,1,8.54,0Z"/></g><path id="path147-0-8-1-6-7-2-5-9-2" d="M89.29,26.49c-7.86.17-11.38,9-5.56,15.86.84,1,.93,1.57-.62.61-3.91-2.61-11.42-.89-11.81,7.1-.47,9.86,13.31,12.7,15.9,2.22.14-1.11,1-1.08.82.49a32.64,32.64,0,0,1-3.4,12.12H94a32.64,32.64,0,0,1-3.4-12.12c-.21-1.57.68-1.6.82-.49,2.59,10.48,16.37,7.64,15.9-2.22-.39-8-7.9-9.71-11.81-7.1-1.55,1-1.46.39-.62-.61,5.82-6.86,2.3-15.69-5.56-15.86Z"/><path id="path147-0-8-1-6-1-4-3-4-3" d="M89.29,223.63c-7.86-.17-11.38-9-5.56-15.87.84-1,.93-1.57-.62-.61-3.91,2.62-11.42.9-11.81-7.1-.47-9.85,13.31-12.69,15.9-2.21.14,1.1,1,1.08.82-.49a32.64,32.64,0,0,0-3.4-12.12H94a32.64,32.64,0,0,0-3.4,12.12c-.21,1.57.68,1.59.82.49,2.59-10.48,16.37-7.64,15.9,2.21-.39,8-7.9,9.72-11.81,7.1-1.55-1-1.46-.39-.62.61,5.82,6.86,2.3,15.7-5.56,15.87Z"/><path id="path147-0-8-1-6-1-1-0-4-8-8" d="M89.29,105.86c-7.86.17-11.38,9-5.56,15.86.84,1,.93,1.57-.62.61-3.91-2.61-11.42-.89-11.81,7.1-.47,9.86,13.31,12.69,15.9,2.22.14-1.11,1-1.08.82.49a32.64,32.64,0,0,1-3.4,12.12H94a32.64,32.64,0,0,1-3.4-12.12c-.21-1.57.68-1.6.82-.49,2.59,10.47,16.37,7.64,15.9-2.22-.39-8-7.9-9.71-11.81-7.1-1.55,1-1.46.39-.62-.61,5.82-6.86,2.3-15.69-5.56-15.86Z"/><path id="path147-6-9-8-7-0-5-5-1-4" d="M164.81,209.47c3.14-.07,4.55-3.75,2.22-6.61-.33-.42-.37-.65.25-.25,1.57,1.09,4.57.37,4.72-3,.19-4.11-5.32-5.29-6.35-.93-.06.47-.42.45-.33-.2a13.8,13.8,0,0,1,1.36-5.05h-3.74a14,14,0,0,1,1.36,5.05c.09.65-.27.67-.33.2-1-4.36-6.55-3.18-6.36.93.16,3.33,3.16,4,4.73,3,.62-.4.58-.17.24.25-2.32,2.86-.91,6.54,2.23,6.61Z"/><path id="path147-6-9-8-7-4-5-8-2-3" d="M13.77,40c-3.14.07-4.55,3.75-2.22,6.61.34.41.37.65-.25.25-1.56-1.09-4.57-.37-4.72,3-.19,4.11,5.32,5.29,6.36.92.05-.46.41-.45.33.21a14.21,14.21,0,0,1-1.36,5h3.73a14.21,14.21,0,0,1-1.36-5c-.08-.66.28-.67.33-.21,1,4.37,6.55,3.19,6.36-.92-.15-3.33-3.16-4-4.73-3-.61.4-.58.16-.24-.25,2.33-2.86.92-6.54-2.22-6.61h0Z"/><path id="path17-9-7-6-4" d="M5.21,31.68l2-1.49C9,33.06,11,35,14,34.63c4.53-.31,6.41-5.06,5.46-8.64a5.25,5.25,0,0,0-7.65-3.06,7.29,7.29,0,0,1-1.51.74c-.32,0-1-1.41-.93-1.84a93.46,93.46,0,0,1,6.86-8H8.63v3.43H5.72V11.07H20.55v2.09a50.16,50.16,0,0,0-5.28,6.38A7.17,7.17,0,0,1,22,25a14.35,14.35,0,0,1-.41,7.29,9.16,9.16,0,0,1-7.44,5.21c-5,.33-7.66-3.17-9-5.77Z"/><path id="path17-5-0-1-5-7" d="M173.38,217.77l-2,1.49c-1.76-2.87-3.73-4.76-6.75-4.44-4.53.31-6.4,5.06-5.46,8.63a5.25,5.25,0,0,0,7.65,3.07,7.29,7.29,0,0,1,1.51-.74c.32,0,1,1.41.93,1.84a93.46,93.46,0,0,1-6.86,8H170v-3.43h2.91v6.15H158v-2.09a50.86,50.86,0,0,0,5.29-6.38,7.19,7.19,0,0,1-6.78-5.41,14.35,14.35,0,0,1,.41-7.29,9.17,9.17,0,0,1,7.44-5.21c5-.33,7.66,3.17,9,5.77Z"/></g></g></g></svg>