<svg xmlns="http://www.w3.org/2000/svg" viewBox="0 0 178.58 249.45"><defs><style>.cls-1{fill:#fff;}</style></defs><g id="Layer_2" data-name="Layer 2"><g id="svg8"><g id="g5444"><path id="rect6355-6-85-3-72-9" class="cls-1" d="M8.54,0H170a8.53,8.53,0,0,1,8.54,8.53V240.92a8.53,8.53,0,0,1-8.54,8.53H8.54A8.53,8.53,0,0,1,0,240.92V8.53A8.53,8.53,0,0,1,8.54,0Z"/><path id="path147-0-8-1-6-13-2-06-7" d="M130.7,26.49c-7.85.17-11.38,9-5.56,15.86.85,1,.93,1.57-.61.61-3.92-2.61-11.43-.89-11.81,7.1-.48,9.86,13.31,12.7,15.89,2.22.14-1.11,1-1.08.82.49A32.44,32.44,0,0,1,126,64.89h9.33A32.44,32.44,0,0,1,132,52.77c-.22-1.57.68-1.6.81-.49,2.59,10.48,16.38,7.64,15.9-2.22-.38-8-7.89-9.71-11.81-7.1-1.54,1-1.46.39-.61-.61,5.81-6.86,2.29-15.69-5.56-15.86Z"/><path id="path147-0-8-1-6-75-2-83-35-3" d="M47.87,26.49c-7.85.17-11.37,9-5.55,15.86.84,1,.93,1.57-.62.61-3.92-2.61-11.43-.89-11.81,7.1-.48,9.86,13.31,12.7,15.9,2.22.13-1.11,1-1.08.82.49a32.64,32.64,0,0,1-3.4,12.12h9.34a32.45,32.45,0,0,1-3.4-12.12c-.22-1.57.68-1.6.82-.49,2.59,10.48,16.37,7.64,15.9-2.22-.39-8-7.9-9.71-11.81-7.1-1.55,1-1.46.39-.62-.61,5.82-6.86,2.3-15.69-5.56-15.86Z"/><path id="path147-0-8-1-6-7-5-5-7-77-6" d="M130.7,223.63c-7.85-.17-11.38-9-5.56-15.87.85-1,.93-1.57-.61-.61-3.92,2.62-11.43.9-11.81-7.1-.48-9.85,13.31-12.69,15.89-2.21.14,1.1,1,1.08.82-.49A32.44,32.44,0,0,0,126,185.23h9.33A32.44,32.44,0,0,0,132,197.35c-.22,1.57.68,1.59.81.49,2.59-10.48,16.38-7.64,15.9,2.21-.38,8-7.89,9.72-11.81,7.1-1.54-1-1.46-.39-.61.61,5.81,6.86,2.29,15.7-5.56,15.87Z"/><path id="path147-0-8-1-6-75-6-1-2-08-0" d="M47.87,223.63c-7.85-.17-11.37-9-5.55-15.87.84-1,.93-1.57-.62-.61-3.92,2.62-11.43.9-11.81-7.1-.48-9.85,13.31-12.69,15.9-2.21.13,1.1,1,1.08.82-.49a32.64,32.64,0,0,0-3.4-12.12h9.34a32.45,32.45,0,0,0-3.4,12.12c-.22,1.57.68,1.59.82.49,2.59-10.48,16.37-7.64,15.9,2.21-.39,8-7.9,9.72-11.81,7.1-1.55-1-1.46-.39-.62.61,5.82,6.86,2.3,15.7-5.56,15.87Z"/><path id="path147-6-9-8-7-0-5-6-17-9" d="M164.81,209.47c3.14-.07,4.55-3.75,2.22-6.61-.33-.42-.37-.65.25-.25,1.57,1.09,4.57.37,4.72-3,.19-4.11-5.32-5.29-6.35-.93-.06.46-.42.45-.33-.2a13.8,13.8,0,0,1,1.36-5.05h-3.74a14,14,0,0,1,1.36,5.05c.09.65-.27.66-.33.2-1-4.36-6.55-3.18-6.36.93.16,3.33,3.16,4,4.73,3,.62-.4.58-.17.24.25-2.32,2.86-.91,6.54,2.23,6.61Z"/><path id="path147-6-9-8-7-4-5-62-79-3" d="M13.77,40c-3.14.07-4.55,3.75-2.22,6.61.34.41.37.65-.25.25-1.56-1.09-4.57-.37-4.72,3-.19,4.11,5.32,5.29,6.36.92.05-.46.41-.45.33.21a14.21,14.21,0,0,1-1.36,5h3.73a14.21,14.21,0,0,1-1.36-5c-.08-.66.28-.67.33-.21,1,4.37,6.55,3.19,6.36-.92-.15-3.33-3.16-4-4.73-3-.61.4-.58.16-.24-.25,2.33-2.86.92-6.54-2.23-6.61Z"/><path id="path19-0-7-3" d="M14,37.47V35.14h2.1V31.29H5.54V28.57l11.39-17.5h1.86V28.57H22v2.72H18.79l-.06,3.85h1.76v2.33Zm2.1-20L8.83,28.58h7.23Z"/><path id="path19-4-4-9-1" d="M164.62,212v2.33h-2.1v3.85H173v2.71l-11.39,17.51h-1.86v-17.5h-3.22v-2.71h3.22l.07-3.85h-1.77V212Zm-2.1,20,7.23-11.1h-7.23Z"/></g></g></g></svg>