<svg xmlns="http://www.w3.org/2000/svg" viewBox="0 0 178.58 249.45"><defs><style>.cls-1{fill:#fff;}</style></defs><g id="Layer_2" data-name="Layer 2"><g id="svg8"><g id="g5455"><g id="layer1-33-1-41-1-2-6"><rect id="rect6355-6-85-3-7-9-4" class="cls-1" width="178.58" height="249.45" rx="8.54"/></g><path id="path147-0-8-1-6-13-2-8-2-5" d="M130.7,26.49c-7.85.17-11.38,9-5.56,15.86.85,1,.93,1.57-.61.61-3.92-2.61-11.43-.89-11.81,7.1-.48,9.86,13.31,12.7,15.89,2.22.14-1.11,1-1.08.82.49A32.44,32.44,0,0,1,126,64.89h9.33A32.44,32.44,0,0,1,132,52.77c-.22-1.57.68-1.6.81-.49,2.59,10.48,16.38,7.64,15.9-2.22-.38-8-7.89-9.71-11.81-7.1-1.54,1-1.46.39-.61-.61,5.81-6.86,2.29-15.69-5.56-15.86Z"/><path id="path147-0-8-1-6-75-2-83-7-6-4" d="M47.87,26.49c-7.85.17-11.37,9-5.55,15.86.84,1,.93,1.57-.62.61-3.92-2.61-11.43-.89-11.81,7.1-.47,9.86,13.31,12.7,15.9,2.22.13-1.11,1-1.08.82.49a32.64,32.64,0,0,1-3.4,12.12h9.34a32.45,32.45,0,0,1-3.4-12.12c-.22-1.57.68-1.6.82-.49,2.59,10.48,16.37,7.64,15.9-2.22-.39-8-7.9-9.71-11.81-7.1-1.55,1-1.46.39-.62-.61,5.82-6.86,2.3-15.69-5.56-15.86Z"/><path id="path147-0-8-1-6-7-5-5-7-6-8-5" d="M130.7,223.63c-7.85-.17-11.38-9-5.56-15.87.85-1,.93-1.57-.61-.61-3.92,2.62-11.43.9-11.81-7.1-.48-9.85,13.31-12.69,15.89-2.21.14,1.1,1,1.08.82-.49A32.44,32.44,0,0,0,126,185.23h9.33A32.44,32.44,0,0,0,132,197.35c-.22,1.57.68,1.59.81.49,2.59-10.48,16.38-7.64,15.9,2.21-.38,8-7.89,9.72-11.81,7.1-1.54-1-1.46-.39-.61.61,5.81,6.86,2.29,15.7-5.56,15.87Z"/><path id="path147-0-8-1-6-75-6-1-2-4-9-5" d="M47.87,223.63c-7.85-.17-11.37-9-5.55-15.87.84-1,.93-1.57-.62-.61-3.92,2.62-11.43.9-11.81-7.1-.47-9.85,13.31-12.69,15.9-2.21.13,1.1,1,1.08.82-.49a32.64,32.64,0,0,0-3.4-12.12h9.34a32.45,32.45,0,0,0-3.4,12.12c-.22,1.57.68,1.59.82.49,2.59-10.48,16.37-7.64,15.9,2.21-.39,8-7.9,9.72-11.81,7.1-1.55-1-1.46-.39-.62.61,5.82,6.86,2.3,15.7-5.56,15.87Z"/><path id="path147-0-8-1-6-1-1-0-5-6-4-0" d="M89.29,105.86c-7.86.17-11.38,9-5.56,15.86.84,1,.93,1.57-.62.61-3.91-2.61-11.42-.89-11.81,7.1-.47,9.86,13.31,12.69,15.9,2.22.14-1.11,1-1.08.82.49a32.64,32.64,0,0,1-3.4,12.12H94a32.64,32.64,0,0,1-3.4-12.12c-.21-1.57.68-1.6.82-.49,2.59,10.47,16.37,7.64,15.9-2.22-.39-8-7.9-9.71-11.81-7.1-1.55,1-1.46.39-.62-.61,5.82-6.86,2.3-15.69-5.56-15.86Z"/><path id="path147-6-9-8-7-0-5-6-7-4-6" d="M164.81,209.47c3.14-.07,4.55-3.75,2.22-6.61-.33-.42-.37-.65.25-.25,1.57,1.09,4.57.37,4.72-3,.19-4.11-5.32-5.29-6.35-.93-.06.47-.42.45-.33-.2a13.8,13.8,0,0,1,1.36-5.05h-3.74a14,14,0,0,1,1.36,5.05c.09.65-.27.67-.33.2-1-4.36-6.55-3.18-6.36.93.16,3.33,3.16,4,4.73,3,.62-.4.58-.17.24.25-2.32,2.86-.91,6.54,2.23,6.61Z"/><path id="path147-6-9-8-7-4-5-62-2-3-8" d="M13.77,40c-3.14.07-4.55,3.75-2.22,6.61.34.41.37.65-.25.25-1.56-1.09-4.57-.37-4.72,3-.19,4.11,5.32,5.29,6.36.92.05-.46.41-.45.33.21a14.21,14.21,0,0,1-1.36,5h3.73a14.21,14.21,0,0,1-1.36-5c-.08-.66.28-.67.33-.21,1,4.37,6.55,3.19,6.36-.92-.15-3.33-3.16-4-4.73-3-.61.4-.58.16-.24-.25,2.33-2.86.92-6.54-2.23-6.61Z"/><path id="path21-39-8-1" d="M5.45,30.64l2.59,0c.49,1.59,1.59,3.21,3.07,3.66a6.18,6.18,0,0,0,7.77-4.13c1.08-3.34,0-8-2.91-9.68-2.39-1.38-5.94-.22-7.57,2.73L6.59,22.06l1-11H19.4v2.6H9.81l-.16,4.58A7.6,7.6,0,0,1,17,17.82c3.91,1.9,5.72,6.22,5,11.31-1.05,5.06-3.37,7.93-8.61,8.34-5.83.05-7.88-4-7.86-6.83Z"/><path id="path21-3-4-1-8" d="M173.13,218.81l-2.59,0a5.33,5.33,0,0,0-3.07-3.66,6.18,6.18,0,0,0-7.77,4.13c-1.08,3.33,0,8,2.91,9.68,2.39,1.38,5.94.22,7.57-2.73l1.81,1.13-1,11H159.18v-2.6h9.59l.16-4.58a7.6,7.6,0,0,1-7.31.43c-3.91-1.9-5.72-6.22-5-11.31,1.05-5.06,3.37-7.93,8.61-8.34,5.83,0,7.88,4,7.86,6.83Z"/></g></g></g></svg>