<svg xmlns="http://www.w3.org/2000/svg" viewBox="0 0 178.58 249.45"><defs><style>.cls-1{fill:#fff;}</style></defs><g id="Layer_2" data-name="Layer 2"><g id="svg8"><g id="g5495"><path id="rect6355-6-85-3-3-4-3" class="cls-1" d="M8.54,0H170a8.53,8.53,0,0,1,8.54,8.53V240.92a8.53,8.53,0,0,1-8.54,8.53H8.54A8.53,8.53,0,0,1,0,240.92V8.53A8.53,8.53,0,0,1,8.54,0Z"/><path id="path147-0-8-1-6-13-2-2-3-8" d="M130.7,26.49c-7.85.17-11.38,9-5.56,15.86.85,1,.93,1.57-.61.61-3.92-2.61-11.43-.89-11.81,7.1-.48,9.86,13.31,12.7,15.89,2.22.14-1.11,1-1.08.82.49A32.44,32.44,0,0,1,126,64.89h9.33A32.44,32.44,0,0,1,132,52.77c-.22-1.57.68-1.6.81-.49,2.59,10.48,16.38,7.64,15.9-2.22-.38-8-7.89-9.71-11.81-7.1-1.54,1-1.46.39-.61-.61,5.81-6.86,2.29-15.69-5.56-15.86Z"/><path id="path147-0-8-1-6-75-2-83-9-8-9" d="M47.87,26.49c-7.85.17-11.37,9-5.55,15.86.84,1,.93,1.57-.62.61-3.92-2.61-11.43-.89-11.81,7.1-.47,9.86,13.31,12.7,15.9,2.22.13-1.11,1-1.08.82.49a32.64,32.64,0,0,1-3.4,12.12h9.34a32.45,32.45,0,0,1-3.4-12.12c-.22-1.57.68-1.6.82-.49,2.59,10.48,16.37,7.64,15.9-2.22-.39-8-7.9-9.71-11.82-7.1-1.54,1-1.45.39-.61-.61,5.82-6.86,2.3-15.69-5.56-15.86Z"/><path id="path147-0-8-1-6-7-5-5-7-62-3-0" d="M130.7,223.63c-7.85-.17-11.38-9-5.56-15.87.85-1,.93-1.57-.61-.61-3.92,2.62-11.43.9-11.81-7.1-.48-9.85,13.31-12.69,15.89-2.21.14,1.1,1,1.08.82-.49A32.44,32.44,0,0,0,126,185.23h9.33A32.44,32.44,0,0,0,132,197.35c-.22,1.57.68,1.59.81.49,2.59-10.48,16.38-7.64,15.9,2.21-.38,8-7.89,9.72-11.81,7.1-1.54-1-1.46-.39-.61.61,5.81,6.86,2.29,15.7-5.56,15.87Z"/><path id="path147-0-8-1-6-75-6-1-2-41-4-5" d="M47.87,223.63c-7.85-.17-11.37-9-5.55-15.87.84-1,.93-1.57-.62-.61-3.92,2.62-11.43.9-11.81-7.1-.47-9.85,13.31-12.69,15.9-2.21.13,1.1,1,1.08.82-.49a32.64,32.64,0,0,0-3.4-12.12h9.34a32.45,32.45,0,0,0-3.4,12.12c-.22,1.57.68,1.59.82.49,2.59-10.48,16.37-7.64,15.9,2.21-.39,8-7.9,9.72-11.82,7.1-1.54-1-1.45-.39-.61.61,5.82,6.86,2.3,15.7-5.56,15.87Z"/><path id="path147-0-8-1-6-2-00-7-5-5-3" d="M89.29,66.17c-7.86.17-11.38,9-5.56,15.86.84,1,.93,1.58-.62.62-3.91-2.62-11.42-.9-11.81,7.1C70.83,99.6,84.61,102.44,87.2,92c.14-1.1,1-1.08.82.49a32.64,32.64,0,0,1-3.4,12.12H94a32.64,32.64,0,0,1-3.4-12.12c-.21-1.57.68-1.59.82-.49,2.59,10.48,16.37,7.64,15.9-2.21-.39-8-7.9-9.72-11.81-7.1-1.55,1-1.46.38-.62-.62,5.82-6.85,2.3-15.69-5.56-15.86Z"/><path id="path147-0-8-1-6-7-5-7-3-0-4-4-6" d="M130.7,105.86c-7.85.17-11.38,9-5.56,15.86.85,1,.93,1.57-.61.61-3.92-2.61-11.43-.89-11.81,7.1-.48,9.86,13.31,12.69,15.89,2.22.14-1.11,1-1.08.82.49A32.44,32.44,0,0,1,126,144.26h9.33A32.44,32.44,0,0,1,132,132.14c-.22-1.57.68-1.6.81-.49,2.59,10.47,16.38,7.64,15.9-2.22-.38-8-7.89-9.71-11.81-7.1-1.54,1-1.46.39-.61-.61,5.81-6.86,2.29-15.69-5.56-15.86Z"/><path id="path147-0-8-1-6-75-6-6-5-3-2-4-8" d="M47.87,105.86c-7.85.17-11.37,9-5.55,15.86.84,1,.93,1.57-.62.61-3.92-2.61-11.43-.89-11.81,7.1-.47,9.86,13.31,12.69,15.9,2.22.13-1.11,1-1.08.82.49a32.64,32.64,0,0,1-3.4,12.12h9.34a32.45,32.45,0,0,1-3.4-12.12c-.22-1.57.68-1.6.82-.49,2.59,10.47,16.37,7.64,15.9-2.22-.39-8-7.9-9.71-11.82-7.1-1.54,1-1.45.39-.61-.61,5.82-6.86,2.3-15.69-5.56-15.86Z"/><path id="path147-0-8-1-6-2-0-8-6-42-9-6" d="M89.29,183.94c-7.86-.17-11.38-9-5.56-15.86.84-1,.93-1.57-.62-.61-3.91,2.61-11.42.89-11.81-7.1-.47-9.86,13.31-12.7,15.9-2.22.14,1.11,1,1.08.82-.49a32.64,32.64,0,0,0-3.4-12.12H94a32.64,32.64,0,0,0-3.4,12.12c-.21,1.57.69,1.6.82.49,2.59-10.48,16.37-7.64,15.9,2.22-.39,8-7.89,9.71-11.81,7.1-1.55-1-1.46-.39-.62.61,5.82,6.86,2.3,15.69-5.56,15.86Z"/><path id="path147-6-9-8-7-0-5-6-1-6-9" d="M164.81,209.47c3.14-.07,4.55-3.75,2.22-6.61-.33-.42-.37-.65.25-.25,1.57,1.09,4.57.37,4.72-3,.19-4.11-5.32-5.29-6.35-.93-.06.47-.42.45-.33-.2a13.8,13.8,0,0,1,1.36-5.05h-3.74a14,14,0,0,1,1.36,5.05c.09.65-.27.67-.33.2-1-4.36-6.55-3.18-6.36.93.16,3.33,3.16,4,4.73,3,.62-.4.58-.17.24.25-2.32,2.86-.91,6.54,2.23,6.61Z"/><path id="path147-6-9-8-7-4-5-62-4-0-0" d="M13.77,40c-3.14.07-4.55,3.75-2.22,6.61.34.41.37.65-.25.25-1.56-1.09-4.57-.37-4.72,3-.19,4.11,5.32,5.29,6.36.92.05-.46.41-.45.33.21a14.21,14.21,0,0,1-1.36,5h3.73a14.21,14.21,0,0,1-1.36-5c-.08-.66.28-.67.33-.21,1,4.37,6.55,3.19,6.36-.92-.15-3.33-3.16-4-4.73-3-.61.4-.58.16-.24-.25,2.33-2.86.92-6.54-2.22-6.61h0Z"/><path id="path27-3-3-2" d="M5.2,29.74c.12-3.55,1.4-4.88,3.93-6.73A6.09,6.09,0,0,1,6.44,17.6C6.85,13.18,10.26,11,14,11.07s6.92,3,7.17,6.26a5.43,5.43,0,0,1-2.59,5.59c2.35,2,3.85,3.29,3.79,6.78a8.21,8.21,0,0,1-8.2,7.77C9,37.59,5.07,33.28,5.2,29.74Zm14.45,0c.22-3.21-2.62-5.37-5.82-5.4a5.89,5.89,0,0,0-5.91,5.5c0,3.1,3.63,4.78,6,4.79C16.74,34.65,19.45,32.51,19.65,29.75Zm-1-11.48a4.71,4.71,0,0,0-5-4.56c-2.29.07-4.71,1.82-4.71,4.07,0,2.83,2.75,4.24,5.1,4.3C16.15,22.13,18.57,20.31,18.62,18.27Z"/><path id="path27-0-0-5-0" d="M156.23,219.71c.13,3.55,1.41,4.88,3.93,6.73a6.11,6.11,0,0,0-2.69,5.41c.42,4.41,3.83,6.62,7.54,6.53s6.92-3,7.17-6.26a5.44,5.44,0,0,0-2.58-5.59c2.34-2,3.84-3.29,3.79-6.78a8.22,8.22,0,0,0-8.2-7.77c-5.18-.13-9.09,4.19-9,7.73Zm14.45,0c.22,3.21-2.61,5.37-5.82,5.4a5.89,5.89,0,0,1-5.9-5.5c0-3.1,3.62-4.78,6-4.79,2.85,0,5.56,2.13,5.75,4.89Zm-1,11.48a4.72,4.72,0,0,1-5,4.56c-2.28-.07-4.7-1.82-4.7-4.08,0-2.82,2.75-4.23,5.1-4.29C167.18,227.32,169.61,229.14,169.66,231.18Z"/></g></g></g></svg>