<svg xmlns="http://www.w3.org/2000/svg" viewBox="0 0 178.58 249.45"><defs><style>.cls-1{fill:#fff;}</style></defs><g id="Layer_2" data-name="Layer 2"><g id="svg8"><g id="g5510"><path id="rect6355-6-85-3-78-4-6" class="cls-1" d="M8.54,0H170a8.53,8.53,0,0,1,8.54,8.53V240.92a8.53,8.53,0,0,1-8.54,8.53H8.54A8.53,8.53,0,0,1,0,240.92V8.53A8.53,8.53,0,0,1,8.54,0Z"/><path id="path147-0-8-1-6-13-2-9-8-8" d="M130.7,26.49c-7.85.17-11.38,9-5.56,15.86.85,1,.93,1.57-.61.61-3.92-2.61-11.43-.89-11.81,7.1-.48,9.86,13.31,12.7,15.89,2.22.14-1.11,1-1.08.82.49A32.44,32.44,0,0,1,126,64.89h9.33A32.44,32.44,0,0,1,132,52.77c-.22-1.57.68-1.6.81-.49,2.59,10.48,16.38,7.64,15.9-2.22-.38-8-7.89-9.71-11.81-7.1-1.54,1-1.46.39-.61-.61,5.81-6.86,2.29-15.69-5.56-15.86Z"/><path id="path147-0-8-1-6-75-2-83-3-5-0" d="M47.87,26.49c-7.85.17-11.37,9-5.55,15.86.84,1,.93,1.57-.62.61-3.92-2.61-11.43-.89-11.81,7.1-.47,9.86,13.31,12.7,15.9,2.22.13-1.11,1-1.08.82.49a32.64,32.64,0,0,1-3.4,12.12h9.34a32.45,32.45,0,0,1-3.4-12.12c-.22-1.57.68-1.6.82-.49,2.59,10.48,16.37,7.64,15.9-2.22-.39-8-7.9-9.71-11.81-7.1-1.55,1-1.46.39-.62-.61,5.82-6.86,2.3-15.69-5.56-15.86Z"/><path id="path147-0-8-1-6-7-5-5-7-63-0-4" d="M130.7,223.63c-7.85-.17-11.38-9-5.56-15.87.85-1,.93-1.57-.61-.61-3.92,2.62-11.43.9-11.81-7.1-.48-9.85,13.31-12.69,15.89-2.21.14,1.1,1,1.08.82-.49A32.44,32.44,0,0,0,126,185.23h9.33A32.44,32.44,0,0,0,132,197.35c-.22,1.57.68,1.59.81.49,2.59-10.48,16.38-7.64,15.9,2.21-.38,8-7.89,9.72-11.81,7.1-1.54-1-1.46-.39-.61.61,5.81,6.86,2.29,15.7-5.56,15.87Z"/><path id="path147-0-8-1-6-75-6-1-2-46-5-0" d="M47.87,223.63c-7.85-.17-11.37-9-5.55-15.87.84-1,.93-1.57-.62-.61-3.92,2.62-11.43.9-11.81-7.1-.47-9.85,13.31-12.69,15.9-2.21.13,1.1,1,1.08.82-.49a32.64,32.64,0,0,0-3.4-12.12h9.34a32.45,32.45,0,0,0-3.4,12.12c-.22,1.57.68,1.59.82.49,2.59-10.48,16.37-7.64,15.9,2.21-.39,8-7.9,9.72-11.81,7.1-1.55-1-1.46-.39-.62.61,5.82,6.86,2.3,15.7-5.56,15.87Z"/><path id="path147-0-8-1-6-1-1-0-5-61-2-0" d="M89.29,105.86c-7.86.17-11.38,9-5.56,15.86.84,1,.93,1.57-.62.61-3.91-2.61-11.42-.89-11.81,7.1-.47,9.86,13.31,12.69,15.9,2.22.14-1.11,1-1.08.82.49a32.64,32.64,0,0,1-3.4,12.12H94a32.64,32.64,0,0,1-3.4-12.12c-.21-1.57.68-1.6.82-.49,2.59,10.47,16.37,7.64,15.9-2.22-.39-8-7.9-9.71-11.81-7.1-1.55,1-1.46.39-.62-.61,5.82-6.86,2.3-15.69-5.56-15.86Z"/><path id="path147-6-9-8-7-0-5-6-5-2-8" d="M164.81,209.47c3.14-.07,4.55-3.75,2.22-6.61-.33-.42-.37-.65.25-.25,1.57,1.09,4.57.37,4.72-3,.19-4.11-5.32-5.29-6.35-.93-.06.47-.42.45-.33-.2a13.8,13.8,0,0,1,1.36-5.05h-3.74a14,14,0,0,1,1.36,5.05c.09.65-.27.66-.33.2-1-4.36-6.55-3.18-6.36.93.16,3.33,3.16,4,4.73,3,.62-.4.58-.17.24.25-2.32,2.86-.91,6.54,2.23,6.61Z"/><path id="path147-0-8-1-6-75-2-9-77-4-4-2" d="M47.87,79.4c-7.85.17-11.37,9-5.55,15.86.84,1,.93,1.58-.62.62-3.92-2.62-11.43-.9-11.81,7.1-.47,9.85,13.31,12.69,15.9,2.21.13-1.1,1-1.08.82.49a32.64,32.64,0,0,1-3.4,12.12h9.34a32.64,32.64,0,0,1-3.4-12.12c-.22-1.57.68-1.59.82-.49,2.59,10.48,16.37,7.64,15.9-2.21-.39-8-7.9-9.72-11.81-7.1-1.55,1-1.46.38-.62-.62,5.82-6.86,2.3-15.69-5.56-15.86Z"/><path id="path147-0-8-1-6-75-2-8-0-6-4-4" d="M47.87,170.71c-7.85-.17-11.37-9-5.55-15.86.84-1,.93-1.57-.62-.61-3.92,2.61-11.43.89-11.81-7.1-.47-9.86,13.31-12.69,15.9-2.22.13,1.11,1,1.08.82-.49a32.69,32.69,0,0,0-3.4-12.12h9.34a32.5,32.5,0,0,0-3.4,12.12c-.22,1.57.68,1.6.82.49,2.59-10.47,16.37-7.64,15.9,2.22-.39,8-7.9,9.71-11.81,7.1-1.55-1-1.46-.39-.62.61,5.82,6.86,2.3,15.69-5.56,15.86Z"/><path id="path147-0-8-1-6-75-2-9-7-1-36-2-4" d="M130.7,79.4c-7.85.17-11.38,9-5.56,15.86.85,1,.93,1.58-.61.62-3.92-2.62-11.43-.9-11.81,7.1-.48,9.85,13.31,12.69,15.89,2.21.14-1.1,1-1.08.82.49A32.44,32.44,0,0,1,126,117.8h9.33A32.44,32.44,0,0,1,132,105.68c-.22-1.57.68-1.59.81-.49,2.59,10.48,16.38,7.64,15.9-2.21-.38-8-7.89-9.72-11.81-7.1-1.54,1-1.46.38-.61-.62,5.81-6.86,2.29-15.69-5.56-15.86Z"/><path id="path147-0-8-1-6-75-2-8-5-1-55-5-4" d="M130.7,170.71c-7.85-.17-11.38-9-5.56-15.86.85-1,.93-1.57-.61-.61-3.92,2.61-11.43.89-11.81-7.1-.48-9.86,13.31-12.69,15.89-2.22.14,1.11,1,1.08.82-.49A32.49,32.49,0,0,0,126,132.31h9.33A32.49,32.49,0,0,0,132,144.43c-.22,1.57.68,1.6.81.49,2.59-10.47,16.38-7.64,15.9,2.22-.38,8-7.89,9.71-11.81,7.1-1.54-1-1.46-.39-.61.61,5.81,6.86,2.29,15.69-5.56,15.86Z"/><path id="path147-6-9-8-7-4-5-62-7-8-4" d="M13.77,40c-3.14.07-4.55,3.75-2.22,6.61.34.41.37.65-.25.25-1.56-1.09-4.57-.37-4.72,3-.19,4.11,5.32,5.29,6.36.92.05-.46.41-.45.33.21a14.21,14.21,0,0,1-1.36,5h3.73a14.21,14.21,0,0,1-1.36-5c-.08-.66.28-.67.33-.21,1,4.37,6.55,3.19,6.36-.92-.15-3.33-3.16-4-4.73-3-.61.4-.58.16-.24-.25,2.33-2.86.92-6.54-2.22-6.61h0Z"/><path id="path29-2-3-4" d="M6.4,32.38l2.41-.76a4.28,4.28,0,0,0,4.7,3c3.5-.27,4.66-4.18,4.92-7.64a6.94,6.94,0,0,1-5.15,2.11c-5.57-.3-7-4.76-7-9.43-.15-3.94,1.47-6.79,4.27-8.1a9.55,9.55,0,0,1,6.35.13c3.41,1.8,4.68,4.91,4.45,12.34,0,6.11-1.3,13.23-7.85,13.39a6.35,6.35,0,0,1-7-5Zm9.48-6.7a5.7,5.7,0,0,0,2.29-2.4,4.54,4.54,0,0,0,.44-3c-.31-4.43-2.63-6.94-6-6.45a4.06,4.06,0,0,0-3.5,3.29C8,20.75,9.4,25,12,26A5,5,0,0,0,15.88,25.68Z"/><path id="path29-6-1-3-7" d="M172.18,217.07l-2.41.76a4.29,4.29,0,0,0-4.7-3c-3.5.28-4.66,4.19-4.92,7.64a7,7,0,0,1,5.15-2.1c5.57.3,7,4.76,7,9.43.15,3.94-1.47,6.79-4.26,8.1a9.58,9.58,0,0,1-6.36-.13c-3.41-1.8-4.68-4.91-4.45-12.34,0-6.12,1.3-13.24,7.85-13.39a6.35,6.35,0,0,1,7.05,5Zm-9.48,6.7a5.7,5.7,0,0,0-2.29,2.4,4.54,4.54,0,0,0-.44,3c.31,4.43,2.63,6.94,6,6.44,1.88-.28,2.91-1.33,3.5-3.29,1.09-3.61-.29-7.84-2.88-8.82A5,5,0,0,0,162.7,223.77Z"/></g></g></g></svg>