<svg xmlns="http://www.w3.org/2000/svg" viewBox="0 0 178.58 249.45"><defs><style>.cls-1{fill:#fff;}.cls-2{fill:#d40000;}</style></defs><g id="Layer_2" data-name="Layer 2"><g id="svg8"><g id="g6708"><path id="rect6367-6" class="cls-1" d="M8.54,0H170a8.53,8.53,0,0,1,8.54,8.53V240.92a8.53,8.53,0,0,1-8.54,8.53H8.54A8.53,8.53,0,0,1,0,240.92V8.53A8.53,8.53,0,0,1,8.54,0Z"/><path id="path6399-9" class="cls-2" d="M13.77,56A44.16,44.16,0,0,0,8,48a44.51,44.51,0,0,0,5.82-8,45.5,45.5,0,0,0,5.82,8A45.14,45.14,0,0,0,13.77,56Z"/><path id="path6403-1" class="cls-2" d="M164.81,209.47a45.5,45.5,0,0,0-5.82-8,45.14,45.14,0,0,0,5.82-8,45.14,45.14,0,0,0,5.82,8A45.5,45.5,0,0,0,164.81,209.47Z"/><path id="path6413-1" class="cls-2" d="M89.29,143.92c-4.15-6.85-8.51-13.51-14-19.2,5.46-5.68,9.82-12.34,14-19.2,4.15,6.86,8.52,13.52,14,19.2C97.81,130.41,93.44,137.07,89.29,143.92Z"/><path id="path41-87-9-4-8" class="cls-2" d="M5.7,37.47V35.21H7.85l4.59-24.14h2.61l5.06,24.14h1.74v2.26H15.92V35.21h1.6l-.64-3.7h-6l-.46,3.7H12v2.26Zm10.67-8.59L13.77,16,11.34,28.88Z"/><path id="path41-8-5-6-1" class="cls-2" d="M156.73,212v2.26h2.16l4.59,24.14h2.61l5-24.14h1.74V212H167v2.26h1.59l-.63,3.7h-6l-.46-3.7h1.59V212Zm10.68,8.59-2.6,12.92-2.44-12.92Z"/></g></g></g></svg>