<svg xmlns="http://www.w3.org/2000/svg" viewBox="0 0 178.58 249.45"><defs><style>.cls-1{fill:#fff;}.cls-2{fill:#d40000;}.cls-3{fill:#131f67;}.cls-4{fill:#e2cf00;}</style></defs><g id="Layer_2" data-name="Layer 2"><g id="svg8"><g id="g7094"><path id="rect7098-3" class="cls-1" d="M8.54,0H170a8.53,8.53,0,0,1,8.54,8.53V240.92a8.53,8.53,0,0,1-8.54,8.53H8.54A8.53,8.53,0,0,1,0,240.92V8.53A8.53,8.53,0,0,1,8.54,0Z"/><path id="path7130-4" class="cls-2" d="M14.11,56a45.14,45.14,0,0,0-5.82-8,45.5,45.5,0,0,0,5.82-8,45.5,45.5,0,0,0,5.82,8A45.14,45.14,0,0,0,14.11,56Z"/><path id="path7134-0" class="cls-2" d="M164.47,209.47a45,45,0,0,0-5.82-8,44.64,44.64,0,0,0,5.82-8,45.14,45.14,0,0,0,5.82,8A45.5,45.5,0,0,0,164.47,209.47Z"/><path id="path7136-1" class="cls-2" d="M48.06,64.56c-4.15-6.86-8.51-13.52-14-19.2,5.46-5.69,9.82-12.35,14-19.2,4.15,6.85,8.52,13.51,14,19.2C56.58,51,52.21,57.7,48.06,64.56Z"/><path id="path7154-5" class="cls-2" d="M130.52,223.3c-4.15-6.85-8.51-13.51-14-19.2,5.46-5.69,9.82-12.35,14-19.2,4.15,6.85,8.51,13.51,14,19.2C139,209.79,134.67,216.45,130.52,223.3Z"/><path id="path6263-5" class="cls-3" d="M24,230V19.46H154.6V230ZM71,54.47c-4.68-1.28-4.56,3.37-1.14,3.54,3.83.33,5.47-6.21,3.64-8.78C73.51,49.23,71.92,54.15,71,54.47ZM40.7,80.71l-5.61,2.51,0,4.19a23,23,0,0,0,5.63-6.7ZM79,206.61c-1.1-.56-2.43-1.75-2.23-2s.7.09,1.25.33c4.38,1.85,7.78,1.73,13-.17.39-.14,1,.62.76,1-2.31,3.43-9.8,2.21-12.79.78Zm-1.53-5.08c3.24,3,7.64,4,11.41,1.2a.51.51,0,0,0,.15-.51c-.11-.28-.11,0-1.73.58-3.62,1.35-6.67.24-9.64-2-1.23-.95-1.8-1.41-1.8-1.66s.23-.37.64-.3A14.59,14.59,0,0,0,78,199a2.39,2.39,0,0,0,1.77-.39,9.31,9.31,0,0,1,5.88-.88,11.68,11.68,0,0,0,1.17.21c.46-.15-.22-.76-2-2.16a4.58,4.58,0,0,1-.92-.74c-.22-.37,0-.47.27-.47.72,0,4,2.72,5.08,4.34.34.49.57.54.58,1.05a2,2,0,0,0,.42,1.78,7.23,7.23,0,0,1,.81,1.42c0,.05-.08.32-.46.07-.17,0-.25-.22-.57-.17a5.37,5.37,0,0,0-1.2.49c-4.24,2.77-7.72,1.58-11.11-1s-.63-1.39-.26-1.05Zm9.19-.27a4.9,4.9,0,0,0-.78-2.16,2,2,0,0,0-3.11-.16,9.06,9.06,0,0,0-1,2.13,6.47,6.47,0,0,0,.93.22,2.52,2.52,0,0,1,.76-1.91,1.39,1.39,0,0,1,1.42,0c.59.29.84,1.47.85,1.93a1.88,1.88,0,0,0,.91,0Zm-5.5-2.42c-.64.29-1.48.48-1.67.91s.65.72,1.1.93c.65.29.66.19.87-.3l.46-1.08c.48-.93,0-.8-.76-.46Zm7,1.49a.6.6,0,0,0,0-.91,2.66,2.66,0,0,0-1-.54c-.59-.2-.85-.44-.48.36l.53,1.15c.25.49.43.39.77.16a.92.92,0,0,0,.22-.22ZM27.4,161.16a26.08,26.08,0,0,0,3.26-1.09c.79-.31.88-.3.57-.73a3.7,3.7,0,0,1-.1-1.84A4.15,4.15,0,0,0,27.2,159C26.75,159.73,26.59,160.9,27.4,161.16Zm-.17,3.55c.34.31.54.28,1.68-.14a4.86,4.86,0,0,1,2-.71c1.51-.4,1.51-.24,1.08-1.21a2.19,2.19,0,0,1-.2-1.23c.08-.49.14-.56-.14-.65-.73-.22-4.15,1-4.7,2A1.45,1.45,0,0,0,27.23,164.71Zm78.31,33.16c.07.77.08,2,.09,2.62,0,1.26.47,1.56,1,.87.53-1.65.74-4.25,2-5.57.94-.27,2.09.21,2.77-.44a1.85,1.85,0,0,0-1.08-3.31C107.44,192,105.34,195.51,105.54,197.87Zm7.06-4a2.41,2.41,0,0,1-3.11,2.31c-.65-.16-.85,0-1.29.93a33.56,33.56,0,0,0-1.58,6.83c-.11,1.52-.67,5.47-.27,6.73,4.62,5.7,9.47,11.64,14.79,17.52h31.73V190.87l-9.09-8.69V168.4c-9.83,4.63-19.63,9.33-29.45,14,2.14,6.87-5.11,8.3-6.7,3.7-1.38,1.27-2.51,8.08-2,8.42,0,0,.18.24.49-.3a5.41,5.41,0,0,1,1.86-2C110,191,112.46,191.61,112.6,193.83Zm-25.17-.7a2.13,2.13,0,0,1,.57-3.68,4.33,4.33,0,0,1,3,.17,4.38,4.38,0,0,0,2.78.28c.72-.08.58,1.43-.17,1.82-.53.28-1.75.15-3.23-.7-2.55-1.45-3.67.43-2.09,2.14.88.93-.63.18-.85,0ZM34.85,170.56a1.43,1.43,0,0,0-.47-2.69,1.46,1.46,0,0,0-.92,2.69c0,.23-.61,0-.94-.21-.51-.38-.05-1.88-.52-1.94a31.29,31.29,0,0,0-4.28,1.51c-1.59.91-.1,2.94.82,2.71,1.92-.48,4.52-.92,6.31-2.07ZM27,167.65c0,.91.28,1.31.88,1.32a26.55,26.55,0,0,0,3.56-1.19c.91-.29,1.28-.63.59-1.2a1.38,1.38,0,0,1-.3-1.24c.24-.74.06-.78-.26-.82a12.49,12.49,0,0,0-2.89,1c-1,.38-1.16.54-1.41,1.07a2.94,2.94,0,0,0-.17,1.08Zm10.31,11.71a7.48,7.48,0,0,0,.69-2.22c-.1-.66-.58-.8-1-.38s-.38,1.17-.69,1.71a1.09,1.09,0,0,0-.19.55.74.74,0,0,0,1.2.34ZM49.81,98.24c-1.08-1-2.66,2.4-2.71,2.44l-2.19,1.92c11.63,20.06,9.61,43.14-4.61,59.56v1c0,2.29.7,2.19,1.66,1.12s.34-.2-.08.24-.93,1.14-1.08,1.34c.17,1.26.92,3.54.61,4.6C65.71,147,61.23,118.05,49.81,98.24Zm-9.55,67.44a13.84,13.84,0,0,1-.42-2.31c-.06-.52-.08-1-.1-1.52a19.07,19.07,0,0,0-.92-3.86,3,3,0,0,0-2.24-1c-.85-.06-.92,0-1.1.23-.3.48-.09,2.86.22,3.74a3.6,3.6,0,0,1-.14,2.6c-.1.37-.14.39,0,.42.8-.06,1.06-1,1.37-.74.11.11-.17.9-.54,1.71a4.75,4.75,0,0,0,0,3.46,1.91,1.91,0,0,1,0,1.54,10.12,10.12,0,0,0-.29,2.31,2.67,2.67,0,0,1,0,2.21,5.58,5.58,0,0,0-.59,3.28c.11.36.41.06.62-.55.33-1.19.72-1.45,1.7-1.45.71,0,.78.25,1-.07a14.22,14.22,0,0,0,1.86-4,8.92,8.92,0,0,0-.4-6Zm7.58,11.95a2.43,2.43,0,0,0,1.1-1.39c0-.34-2.66-2.93-3.77-3.64-.5-.33-.74-.1-1.62,1.1s-.89,1.07-.75,1.27a35.92,35.92,0,0,0,3.79,2.51,1.61,1.61,0,0,0,1.25.15Zm5-4.6c-.4-.3-3.58-3.83-4.53-4-.35-.07-1.51,1.25-1.51,1.54a35.9,35.9,0,0,0,4.38,4.1C51.62,174.43,52.77,173.5,52.83,173Zm3.38-3.33c0-.21-.36-.64-1.21-1.48-2.18-2.14-3.4-3.13-3.78-3.12A3.54,3.54,0,0,0,50,167c.14.27,3.79,3.58,4.26,3.9.59.56,1.86-.75,2-1.15Zm3.42-3.42c.09-.31-.09-.58-.55-1-1.74-1.54-2.95-3.24-4.8-4.42A2,2,0,0,0,53,162.47c-.09.45.56,1,1.94,2.33,2.38,2.32,2.94,2.8,3.31,2.8a2.45,2.45,0,0,0,1.38-1.32Zm-25.58-2a1.13,1.13,0,0,0-1.08.2c-1.69,1.44.71,3.29,1.69,2.14a1.37,1.37,0,0,0-.61-2.34Zm29.09-1.51c0-.24-.49-.78-2.2-2.41-4.22-4-4-3.87-4.5-3.62a3.12,3.12,0,0,0-.85,1.64c2.25,2.22,3.28,3.85,6.22,5.79.5-.25,1.31-.79,1.33-1.4Zm-29,.16a1.24,1.24,0,1,0-1.66-1.09,1.23,1.23,0,0,0,1.66,1.09Zm32.45-3.54c0-.48-7.23-7.24-7.74-7.24-.35,0-.6.28-.93,1s-.25,1.05.1,1.4c.53.5,1.92,1.79,3.24,3,.79.71,1.69,1.56,2,1.89a4.63,4.63,0,0,0,1.88,1.35,3.17,3.17,0,0,0,1.45-1.43Zm-32.83-.87a1,1,0,0,0-.26-.76,1,1,0,0,0-1.64.45C31.66,159.82,33.71,159.89,33.78,158.48Zm5.35-52.62,1.41-4.32,4.32-.11.61-4.3,4.44-.64L50,92.05l4.25-.58L54,86.72l3.94-.94-.2-4.4,3.59-1.1-.15-3.83.62-.48-1.55-1.58-1.34.43,0,3.94-3.58,1.15.38,4.36-3.61.83,0,4.73-4.15.47-.3,4.18-4,.8-.61,4.09L39,99.64l-1.2,3.6-2.6,0v2.41Zm47,77.34c-.13-.32.22-.27.84.12a4.78,4.78,0,0,0,2.25.75,16.18,16.18,0,0,0,2.22-.4,5.56,5.56,0,0,1,3.28-.18c.86.12,1.74.21,1.93.21a2.58,2.58,0,0,0,1.83-1.09c.71-1.21.54,1,.54,1.25,0,1.14.16,2.44-.65,1.83a2.06,2.06,0,0,0-2,0,1.65,1.65,0,0,1-2,.07c-.64-.25-1-.31-1.47.15s-1.85.32-2.56.09c-1.2-.2-1.88-.38-2.69.26-.43.25-.54.07-.87-.89s-.58-2-.63-2.15Zm3.08-.8c-.08-.12.57-.76,1-1a8.17,8.17,0,0,1,5.67,0c1,.35,1.09.95.17.82-1.93-.4-4.34-.73-6.2.15a1,1,0,0,1-.64,0Zm1.62-3c-1.31-.49-2-1-2-1.17s.28-.15,1.32.14a6.9,6.9,0,0,0,4.47.31c1-.37,1.5-.61,1.5-.38a2,2,0,0,1-1.1,1.2,6.4,6.4,0,0,1-4.23-.1Zm28.59-3.66,1-.13-.34-4.08,3.6-1.07-.25-4.06,3.83-1.32L127,160.5l4-.79.52-4,3.76-.27.78-4.35,4.05-.14.83-3.62h2.69v-2H139.4l-.89,3.91-3.95.12-.84,4.29-4.15,0-.53,4.64-3.9.64v5l-3.76,1,.29,4.27-3.76,1.37.43,4.07Zm24.56-94c.36,1.46,2.39,1,2.61,0a1.13,1.13,0,0,0-.69-1.26c-.09,0-.4,0-.57-.16s.62-.5,1.06-.36a1.7,1.7,0,0,1,1,1.53,1.62,1.62,0,0,0,.14.72,12.68,12.68,0,0,0,2.79-.79c1.63-.45,2.22-1.39,1.86-2.49-.3-.91-1.24-1.27-2.47-.81-1.61.61-3.49.91-4.94,1.78a1.74,1.74,0,0,0-.78,1.89ZM74.77,180.17c5.54-3.89,8.79-6.12,15.89-6.5-2.53-1-2.94-2.41-3.65-3.72a36,36,0,0,0-17.65,6.26,14.65,14.65,0,0,1,5.41,4Zm30.84-5.4a28.43,28.43,0,0,0-9.19-3.93l-2.53,2.63a52.83,52.83,0,0,1,11.72,1.3Zm25.76-25c-17.3-26.61-5.68-50,6.35-64.94.39-.49.48-.51.4-.9a28,28,0,0,1-.17-4.6c-22.24,22.06-22.81,50.79-8.86,73.6,1-.9,3-2.08,2.28-3.16Zm2.6-2.28c-2.85-4.73-18-30.36,5.13-58.95a13,13,0,0,0-.25-2,3.06,3.06,0,0,0-.79-1.38c-9.71,14.58-23.81,32.82-6.19,64.5ZM120.73,99.29a3.33,3.33,0,0,0,.85-1.73c0-.37-.27-.69-2.88-3.34-3.47-3.52-4.07-4.06-4.52-4.06a2.61,2.61,0,0,0-1.51,1.44c0,.19,1,1.29,3.43,3.7,4.48,4.47,4.27,4.29,4.63,4Zm3.21-6.49c0-.22-.33-.64-1.09-1.42a43.64,43.64,0,0,0-5.12-4.69,2.87,2.87,0,0,0-1.43,1.15c-.16.32-.16.39,0,.68.36.56,4.84,4.81,6.11,5.89.77.7,1.46-1.08,1.5-1.61Zm1.73-2.64a3.06,3.06,0,0,0,.94-1.77,24.7,24.7,0,0,0-2.52-2.73c-2.68-2.66-2.83-2.75-3.5-2.16s-1,1.08-.9,1.3a65.69,65.69,0,0,0,4.91,5C125.24,90.32,125.32,90.34,125.67,90.16Zm20.4-.2a1.13,1.13,0,0,0-1.2-1.92,1.22,1.22,0,0,0-.57,1.26A1.3,1.3,0,0,0,146.07,90Zm2.49-.31c2.13-.56,3.15-.93,3.59-1.59.31-.46.34-.75,0-1.49s-.69-.91-2-.18c-.91.51-3,.75-3.66,1.17-.29.24-.15.24.08.39.52.32.77.54.71,1-.12.94,0,1.09,1.31.73Zm-2.25-3.34c1-.52.82-1.8-.33-2.31a1.34,1.34,0,0,0-1.26,2.33A2,2,0,0,0,146.31,86.31Zm3.43-.51c1.49-.51,2.07-.92,2.5-1.74a2.3,2.3,0,0,0,.15-1.58c-.07-1-.55-.85-1.94-.35-.68.26-3.93,1.18-4,1.51,1.57.9,1.17,1.37,1.18,2.52.08.26.82.07,2.09-.36Zm-20.36-1.53c0-.43-4.17-4.52-4.61-4.52-.69,0-1.68,1.07-1.53,1.66a48.43,48.43,0,0,0,4.47,4.5C128.39,86.31,129.34,84.92,129.38,84.27Zm3.11-3.36c.45-.65.42-1-.12-1.37a23.28,23.28,0,0,1-1.94-1.76,17.2,17.2,0,0,0-1.84-1.62c-.72-.1-2,1.06-1.88,1.65a30.94,30.94,0,0,0,4,3.93C131.58,82.18,132.05,81.55,132.49,80.91Zm4.94-5.28c-1.78-.93-5.31-2.88-5.31-2.88a3.69,3.69,0,0,0-2,1.41,26.08,26.08,0,0,0,4.57,4.23C135.29,78,137.34,76.16,137.43,75.63Zm5-1.82a4.34,4.34,0,0,0,.69-2.71.86.86,0,0,0-1,.06,7.78,7.78,0,0,0-.85,2.81c.11.27.81.14,1.19-.16Zm-38.82,77.55a5.59,5.59,0,0,0,2-1.28c1-.88,4.27-2.84,4.62-3.62.16-.45,0-1.09-.3-1.14s-.31.16-2.46,1.71c-1.46,1.05-4,2.93-4.4,3.32A.81.81,0,0,0,103.59,151.36Zm-.3,12.53c2.22-1.54,4-3.14,6.91-4.92a1.19,1.19,0,0,0,.12-1.09c-.17-.45-.4-.27-1.28.34-2.13,1.44-4.33,3.13-6.16,4.38-.59.4-1.09.63-1,.85S103,163.84,103.29,163.89Zm2.15,1c1.46-1.2,3.21-2.34,4.77-3.49a1.28,1.28,0,0,0,.05-1.26c-.18-.24,0-.19-.46,0-.63.36-4.41,2.94-5.11,3.52-.41.34-.75.51-.65.63a3.64,3.64,0,0,0,1.4.55Zm1.84.92c.3-.2,2.9-1.86,3.1-2.08s.17-1.38-.06-1.47c-.65.52-4.11,2.63-4.12,3a1.89,1.89,0,0,0,1.08.58Zm2.77.23c.4-.36.48-.42.49-.83,0-.74-.17-.71-1.23,0-.73.48-1.18.82-1,1.1.52.82,1.27.18,1.79-.31Zm.29,1.52c.21-.08.21-.18.18-.44s-.08-.28-.39-.28C109.29,166.82,110.05,167.58,110.34,167.51Zm-10.1-4.15a7.67,7.67,0,0,1,1.79-3.2c3.49-3.1,2.42-6.91.21-10,2.86-4,5.7-8.23,8.15-12.1v-6.31l.33,0c-.12,13.76.51,36.32.51,36.32l2.83,2.17-.38.19c.47-.08-8.25-5.54-13.44-7.09Zm2.56-1.57c2.41-1.83,4.76-3.26,7.16-5.2.25-.21.4-.22.41-.7,0-.91-.17-.92-1.06-.28-.4.29-1.85,1.3-3.23,2.23a33.35,33.35,0,0,0-3,2.15c-1.35,1.56-1.84,2.3-1.7,2.52s.41,0,1.46-.72Zm2.63-4.42c1.24-.82,4.21-2.88,4.48-3.13.47-.45.55-1.15.13-1.23a28.65,28.65,0,0,0-4.45,3c-.94.72-1.15.89-1.15,1.56C104.44,157.94,104.68,157.86,105.43,157.37Zm1.24-3.21c3.8-2.71,3.71-2.48,3.62-3.49,0-.34-.1-.49-.25-.52a8.4,8.4,0,0,0-1.55,1c-.76.54-1.66,1.25-2.11,1.57-1.32.91-1.76,1.16-1.76,1.69s.14.84.37.84A13.59,13.59,0,0,0,106.67,154.16Zm-.55-2.1a44.11,44.11,0,0,0,3.95-3c.32-.41.26-1.28-.15-1.28-1.75,1.17-3.87,2.72-5.36,3.94-.19.17-.44.33-.51.55a.84.84,0,0,0,.49.68c.29,0,.73-.33,1.58-.93ZM105,147.87c1.34-.91,2.56-2,3.89-2.9,1-.68,1.28-.89,1.22-1.75,0-.5-.47-.21-2.16.91a9.47,9.47,0,0,0-2.25,1.72c-.31.72-1.33,1.38-1.38,2.2,0,.3.2.16.68-.18Zm4.11-5.45c1-.68,1.12-.7,1-1.6-.14-1.13-.25-1.07-1.23.44-.65,1-.87,1.27-.77,1.45s.35.14,1-.29Zm-3.74-8.33c-.11-.5-.27-.39-.78.06-.95.84-1.1,1.44-.51,1.76.31.17.56.15.74-.26A4.72,4.72,0,0,0,105.35,134.09ZM100,142a2.65,2.65,0,0,0-1.12-1.31c-.42-.22-.68-.18-1.08.33s-.2.76.36,1.47c.41.52.58.69.9.69.39-.16,1-.68.94-1.18ZM79.39,161.85c-.28-.52-.85-1.08-1.12-1a1,1,0,0,0-.55.75,1.07,1.07,0,0,0,.88.87C79.23,162.4,79.62,162.3,79.39,161.85Zm2.51-.8a16,16,0,0,0-1.79-1.84c-.28,0-.93.69-.93,1a4.34,4.34,0,0,0,1.3,1.81C81.3,161.92,82.81,162,81.9,161.05Zm3.11.16a26.14,26.14,0,0,0-3.34-3.53c-.3,0-.87.64-.87.94a10.45,10.45,0,0,0,1.9,2.48c.45.48.49.54,1,.46s1.4,0,1.26-.35Zm5.4-.72c0-.66-.34-1-1.72-2.51-.5-.55-1.35-1.49-1.88-2.1-1-1.18-1.48-1.54-1.89-1.54a1.1,1.1,0,0,0-.82.86,61.77,61.77,0,0,0,4.84,5.61c.51.55.74.71,1.23.45.28-.2.24-.52.24-.77Zm-4-7.81c-.52.42-.71.59-.71.88s4.38,5.25,4.77,5.25c.23,0,.2,0,.33-.55.28-1.57-.15-2-1.29-3.07-.76-.7-2.3-3.09-3.1-2.51Zm7.74-3.23c-1.23-1.47-1.9-2.14-2.15-2.14a1.16,1.16,0,0,0-.7.47c-.46.43-.42.42-.13.93a7.37,7.37,0,0,0,.94,1.17c.67.7,1,.92,1.35.59s1-.65.69-1Zm-.64-3.66a1.14,1.14,0,0,0-.8.83,7.63,7.63,0,0,0,1.69,2.12c.56.5.87.68,1.21.3a.91.91,0,0,0,0-1.13c-.49-.57-1.58-2.09-2.14-2.12Zm3.44.36a5.49,5.49,0,0,0-1.66-2.22c-.33,0-1,.77-1,1.12A2.79,2.79,0,0,0,95,146.2c.89,1,1.12,1.26,1.32,1.1A1.68,1.68,0,0,0,97,146.15Zm1.42-1.84c.08-.35-.14-.72-.64-1.35-.63-.79-.94-.84-1.53-.23a1,1,0,0,0-.32.53,5.69,5.69,0,0,0,1.56,2c.56-.07.74-.48.93-.92Zm-2.31,4.14a1.48,1.48,0,0,1-.87,1.14c-4,2.89-3.88,7.6-4.73,11.95-6.49-.07-16.75,2.6-16.69,2.74l34.49-34.82s.43.1.17.41c-2.79,2-2.62,5.91-4.46,7.87-3.06,3.71-5.91,6.92-7.91,10.71ZM77.36,162.67c0-.39-.31-.5-.63-.18s-.18.55.26.5c.23,0,.34-.12.37-.32ZM88,161.21c.12-.33-.18-.64-2-2.7S83.67,156,83.34,156a1.62,1.62,0,0,0-.94,1,2.65,2.65,0,0,0,.65.93c.36.39,1,1.15,1.52,1.69a10.73,10.73,0,0,0,1.51,1.6,1.5,1.5,0,0,0,1,.21C87.78,161.34,87.93,161.36,88,161.21Zm3.19-6.54a7.44,7.44,0,0,0,.31-.92,17.06,17.06,0,0,0-2.76-2.95c-.48-.31-1.38.7-1.15,1.29a14.83,14.83,0,0,0,1.56,1.84c1,1.07,1.52,1.58,1.69,1.56s.19-.28.35-.82Zm1-2.53a1.8,1.8,0,0,0,.31-.74,4.23,4.23,0,0,0-1-1.3c-1-1.18-1.32-1.32-1.9-.77s-.38.81.63,1.95c1.27,1.44,1.41,1.61,1.92.86Zm9-11.32c.4-.46.4-.7,0-1.12l-.49-.59c-.32-.39-.75-.33-1.2.18a1.4,1.4,0,0,0-.35.57,2.63,2.63,0,0,0,.51.73c.62.73,1,.81,1.49.23Zm1.39-1.78c.26-.41.14-.86-.36-1.32s-.71-.45-1-.08-.37.66.11,1.19,1,.69,1.29.21Zm1.11-1.48a.72.72,0,0,0,0-1.11c-.31-.4-.63-.5-1-.33-.57.3-.51.83,0,1.42.34.35.5.39.88,0ZM77.31,211.82c7.06.79,14.65,1.35,28-.73l.06-4.55c-4.17,3.26-9.65,1-10-2.72a38.79,38.79,0,0,1,1.6-9.94c.56-2,.72-2.83.2-3.23-1.16-.65-3.2-.73-3.73-2.09-.25-.71-.27-1.48.09-.93a6.83,6.83,0,0,0,2.55,1.1c1.81.4,2.1.54,2.3,1.28a10.06,10.06,0,0,1-.64,3.56,19.82,19.82,0,0,0-.74,3.06c0,.35.28.41.59.31a13.13,13.13,0,0,0,1.17-1c1.74-1.55,2.24-1.51.76,0-.59.61-1.41,1.44-1.41,1.51,0,.32.3.28,1,0a7.7,7.7,0,0,1,4.52.21c1.33.67,1.39.64,1.36-1.39a46.52,46.52,0,0,0-2.1-11.81c-1.89-5.35-5.81-10.32-11.6-10.09-7.06.37-11.32,3.18-16.12,6.55,2.9,6.44-1.29,11.37-2.81,12-.15.06,1.9,6.55,2.78,9.84.79,3,2.13,9,2.13,9ZM107.36,56.51c-.17-.42-4.1-13.22-5.19-18.58-10.62-.62-18.47-1.5-27.82,1.16,0,0-.2,3.6-.1,3.78.09.44.41.43.68.29,4.32-2.38,9-1.31,9.32,4.55.12,2.23-.63,3.81-.76,5.93-.12,1.85-1.58,4.32-.7,5.73a5.46,5.46,0,0,0,1.59.87c1.58.68,2.2,1.31,2.32,2.34.17.72-.27,1.2-.4.47-.08-.47-.16-.88-2.12-1.55s-2.42-1.41-2.61-1.81a2.29,2.29,0,0,1,0-1.82,20.78,20.78,0,0,0,1-4.67c0-.32-.37-.16-.83.22a23.67,23.67,0,0,1-3.14,2.07,5.36,5.36,0,0,1,1.11-1.36,13.47,13.47,0,0,0,1.89-2c0-.32-.12-.09-.94.15a6.7,6.7,0,0,1-4.18-.15c-.94-.42-1.59-.66-1.73-.43-.35,5.7.5,11.58,2.89,16.17,2.14,4.16,6.59,9.38,13.28,8.21,6.92-1.21,13.65-6.78,13.41-6.78-2.58-5.85.36-10.21,3-12.82ZM52.52,212.2c-5-4.31-12.69-7.29-17-8.28v10.89L26,223.91v4.24H46.33l13.36-19.61s.64-.11.72-.23a93.43,93.43,0,0,0-8.5-22.9,4.48,4.48,0,0,1-6.38-.61c-1.68-1.88-.65-5.2.95-6.42a24.24,24.24,0,0,0-6-3.31c-.38-.09-.95.68-1.14,1.38-.33,1.13-.89,2.14-1.26,3.29-.41.95-.81,1.1-1.42.83-.95-.28-1.21-.38-1.21-.38l0,12.39a26.09,26.09,0,0,1,17,19.62ZM83,79.77l2.17-2.36A60.93,60.93,0,0,1,73.9,75.05,36.93,36.93,0,0,0,83,79.77ZM71,73.13s8.67,4.26,14.72,3.14c-5.51-2.19-9.7-7.3-11.48-17.71-.39,2-1.2,6.22-2.47,6.67-1.78-6.9-9-2.89-6.08,2.75-7.26,5-16,7.81-23.93,11.67,0,0-1.19,3.66-7.13,8.68-.61-5.8.22-14.61-.48-20.53L24.88,59a31.58,31.58,0,0,1,0,4.67,3.06,3.06,0,0,0,1,.74c.6,33.9-.2,98.2-.2,98.2.09,19,.43,37.86.11,56.7l-.31,4.54,9.5-9.05A81,81,0,0,1,35,203.47c6,1.21,11.59,4,16.6,7.12.64.18-3.07-12.33-16.56-17.89,0,0,0-3.91,0-12.4,0-8.2-.13-9.07-.31-9.2-.55.59-7.45,2.92-7.8,2.53.19.06-1.94-14.51-.1-16.72l6.6.14c1.89,1.52,1.13-.33,2.23-.64.66-.18,3.71,1,3.71,1,12.58-14.86,11.33-39.31,2.3-53.06-2.32,1.88-4.78,4.42-7.1,5.52,0-.08,0-7.59,0-7.59,12-7.72,25.1-30.09,24.27-30.17A60.21,60.21,0,0,1,64,77.8L52.09,95c2.72,5.48,5.47,10.44,7.25,15.26.24.65,1,.63,1.17,1.32s-.55,1.4-.45,2c2.5,9.58,3.07,19.76.6,29-.52,2.08.43,3.76,1.71,5.32.1.13-1.19-1.12-1.31-1.19-.44-.27-1.18.67-1.34,1.85.11.72.5.85,1,1.43.92.77,4.55,4.35,6.16,6,1.42,1.45,1.79,1.52,2.75.49.27-.26.55-.6.81-.81.05.08.41-.29.53-.41l21.43-20.94c2.49-2.43-21.4,22-21.4,22S59.43,167.69,56.59,170.5s-3.33,3.53-3.45,3.75c-.21.38,1,.37,1.47.29a3.88,3.88,0,0,1-.93.11c-3-.41-4,2.66-6,3.34-5,3.57-1.65,9.32,3.16,7.42l1.17-.56a108,108,0,0,1,9.1,23.86l-.8.36-12.68,19h71.91c-5.17-5.15-9.56-11.47-14-16.19-7.18,2.14-28.86,1.7-28.52.77,0,0-3.28-13.3-5.14-19.83,5.9-5.06,5.29-13-3.26-16.6a32.11,32.11,0,0,1,18.61-7c2,5,6.65,5.36,8.85.74,0,0,8.27,2.54,11.31,5.34-4.51-.46-9-1.36-13.48-1.58a16.65,16.65,0,0,1,9.32,10.36c.63,1.68,1.6,7.21,1.86,7.23,0,0,1.5-6.39,2.67-6,3,6.22,8.11,1.54,6-3.41,7.59-3.62,16.12-7.67,23.1-11,2-3.07,7-8.67,7.32-8.7l.26,19.79,9.14,8.4s.28-85.38.28-98.16c-.3-21.22-.05-45.55-1-65.39V21.17h-19.4L119.57,41.55a2.53,2.53,0,0,0-.1.47,98.31,98.31,0,0,0,8.14,22.88c5.27-4,9.7,2.57,5.76,6.38-.37.35-.83.86-.83.86,2.57,1.24,4.7,2.63,7,3.53.9-1.34,1.16-3.33,1.77-4.84.15-.58.59-.65,1.46-.55,1.12.13,1.11.6,1.08-6.53l0-6.12c-6.75-3.11-15.68-11-16.1-19.24,3.9,2.84,13.58,7.68,16,8,1,.29.18-2.25.21-3,.28.19.39,3,.39,3-4-1.2-6-1-15.93-6.69,1.7,8.09,9.79,14.47,15.67,17.38,0,0,.24,3.85.23,8.15,0,13.13.09,13.76.09,13.76,1.89-.18,2.38-1.53,8.52-2.32a97.6,97.6,0,0,1,.08,15.66c-4.95,1.09-7.31,2.17-8.4-1-.25.15-.37,1.34-.46,2.59-.12.63-3.39-.47-3.72-.66-14.13,16.28-12.93,35-3.33,52.37a60.41,60.41,0,0,1,7.05-4.45c.06,2.21.1,6.75.1,6.75-11.06,8.12-24.31,29.64-23.86,29.7l-4.5-5.37s2.83-4.5,3.83-5.69a7.76,7.76,0,0,0,.19-1.53l6.87-9.94c-2.93-6.63-6.95-11.73-8-18.21-4.58-20.71.38-31,0-31.8a1.38,1.38,0,0,0-.15-.49c-.15-.13,0-.25.2-.54.33-.58.85-1.76.67-2.1s-3.84-4-7-7c-1.68-1.61-1.61-1.79-2.47-.92-.33.33-1.11,1.26-1.11,1.26C97.34,106,88.2,115.68,76.65,127l-.55-.5c16.8-16.72,33.76-33.26,50.4-50.13l-2.93,0a.73.73,0,0,1,.37-.47,9.21,9.21,0,0,0,4.35-1.14c2.38-1.76,5.78-4.12,6.05-6.45-.17-4.48-4-5.13-6.67-2.94a83.71,83.71,0,0,1-8.4-22.65c-.07-.38-.61-1-.69-1.47.81-2.54,13.68-20.08,13.68-20.08H60L73.75,37.62c0-.65,19.6-3,28.58-.23l5.47,19.43c-5,4.8-6.44,12.7,2.7,16.82.17.38-.87,1-.87,1,.14-.24.4-.49.3-.7a20.07,20.07,0,0,1-5.1-3.81c-5.5,4.3-10.63,6.69-15.66,6.9,0,0,2.65,1.8,3.17,3.78-3.23-5-6.29-3.76-9.35-.86-3.88-1.84-6.31-1.35-11.95-6.84Zm-.73,47.56,2-2a10.22,10.22,0,0,1,2.32-5.36c1.88-2.26,4-4.38,5.48-6.39,1.84-2.41,2.84-4.59,2.35-5.61,2.74-.49,5.25-2.91,5.33-7.29A18.6,18.6,0,0,1,89,88.44s19.1-.65,32.24-13.18c0,0,.92.2.7.36a45.64,45.64,0,0,1-16.53,11l-34.51,34.5Zm3.82-4c.52-.51.63-.68.34-.92-.45-.37-1.3.39-1.3,1.15,0,.49.38.35,1-.23ZM75.92,115c.41-.4.39-.68,0-1s-1.14-.18-1.37.57.67,1.06,1.32.45Zm1.57-1.6a2,2,0,0,0,.38-.54c0-.27-.66-.88-1-.88a1.42,1.42,0,0,0-1,1c0,.29.67.89,1,.89A1.3,1.3,0,0,0,77.49,113.38Zm1.48-3c-.47-.4-.78-.4-1.16,0s-.41.94.13,1.42.58.38,1.13,0S79.62,111,79,110.42Zm1.74-.26c.51-.43.44-.78-.12-1.34s-1-.58-1.44,0a1.06,1.06,0,0,0-.19.53,2.65,2.65,0,0,0,1.22,1.09,1.11,1.11,0,0,0,.53-.31Zm1.68-1.66c.43-.45.37-.77-.25-1.41s-.88-.58-1.34-.15-.37.9.16,1.44S81.9,109,82.39,108.5Zm1.89-1.92c.32-.33.23-.31,0-.67a4.37,4.37,0,0,0-1.65-1.49c-.36,0-.68.58-.68,1.15s.28.8,1,1.36c.48.38.34.42.7.2a2.35,2.35,0,0,0,.62-.55Zm1.51-1.37c.67-.78.55-.93-1.09-2.65-.56-.59-.68-.66-1.07-.62s-.41.12-.6.52c-.36.73-.09,1.11.94,2.2S85.19,105.89,85.79,105.21Zm1.68-1.81a1.13,1.13,0,0,0,.43-.67,6.53,6.53,0,0,0-1.8-2c-.33-.2-.68-.09-1.12.29-.26.22-.25.28-.19.52a7.54,7.54,0,0,0,2.09,2.21A1.18,1.18,0,0,0,87.47,103.4Zm1.66-1.62a1.73,1.73,0,0,0,.51-.78,7,7,0,0,0-1.88-2.22c-.37-.2-.59-.11-1,.41s-.26.87.59,1.85,1.06,1.21,1.21,1.21A2.23,2.23,0,0,0,89.13,101.78Zm1.58-1.69c.36-.22.83-.68.64-1.06a30.61,30.61,0,0,0-3-3.19c-.53-.28-.51.13-.51,1.44V98L89,99.09c1.68,1.65,1.3,1.25,1.7,1Zm2-1.87a1.47,1.47,0,0,0,.39-.66c-1-1.27-4.07-5.27-4.61-5.12-.06,0-.08,0-.12.13a4.94,4.94,0,0,0-.1,1.9c1,.92,3.21,3.91,3.72,4.09.3.12.43,0,.72-.34Zm1.63-1.71a1.06,1.06,0,0,0,.34-.55A3.67,3.67,0,0,0,94,95c-.36-.42-1.06-1.27-1.56-1.9-2.84-3.55-3-3.82-3.49-3.46A1.63,1.63,0,0,0,88.76,91a51,51,0,0,0,4.36,5.27C93.76,96.91,93.89,97,94.37,96.51ZM96,94.94a1.36,1.36,0,0,0,.45-.67A5.56,5.56,0,0,0,95.51,93l-1.78-2.14c-1.28-1.58-1.29-1.63-2.25-1.73-1.44-.15-1.25.17.39,2.08.4.46,1.14,1.38,1.66,2,1.22,1.53,1.75,2.1,2,2.1s.24-.15.48-.38Zm1.68-1.64c.74-.62.59-.82-1.82-3.31C95.07,89.17,95,89,94.4,89s-.82.13-.82.43a40.23,40.23,0,0,0,3.37,4c.31.12.35.14.73-.18Zm1.75-1.79a1.35,1.35,0,0,0,.36-.61,4.56,4.56,0,0,0-1.32-1.7,1.89,1.89,0,0,0-.92-.53,2,2,0,0,0-1.23.43,9.2,9.2,0,0,0,1.77,2.24c.61.64.84.7,1.34.17ZM101,90c.39-.39.39-.75,0-1.27s-.37-.41-1-.41c-1.12,0-1.15.28-.28,1.21C100.35,90.2,100.53,90.42,101,90Zm1.65-1.63c.44-.55.07-.86-.65-.53a.72.72,0,0,0-.3.37C101.45,88.77,102.2,88.88,102.62,88.35ZM75.07,93c-1.59,1-4.27,2.92-6.09,4.19a5.36,5.36,0,0,0,0,1.51c1-.7,4.35-2.82,5.85-4,.08-.45.19-1.24.24-1.69ZM78,88.41c0-.27-.23-.1-.7.3-.62.52-5.86,4.41-7.25,5.39a5.81,5.81,0,0,0-1.08.81,2.84,2.84,0,0,0,.09,1.45c1.14-.87,6.52-4.49,6.61-4.61.55-.89,1.79-2.44,2.33-3.34Zm-.6,11.71S71,107.85,68.9,111.7c0,0,0,4.4-.07,6.94l-.35.1s0-6.8-.12-14.18c-.22-18.44-.4-22.91-.4-22.91l-2.09-1.53-.08-.73s9.26,6.49,13.77,7.53c-3.3,5.17-6.35,7.17-2.17,13.2Zm-7.62,9.24c.12-.31,0-.29-.23-.28a.37.37,0,0,0-.31.39c0,.22,0,.28.18.24S69.7,109.51,69.77,109.36Zm1.54-2.29c.93-1.14,1.69-1.87,1.83-2.71a18.66,18.66,0,0,0-4.06,2.74c0,1.27-.25,1.42.79.86.45-.25.82-.55,1.44-.89Zm.29-2.82c1-.83,4.62-2.78,5-3.74a.7.7,0,0,0-.44-.81c.06,0-5.19,3.21-7.11,4.86a1,1,0,0,0,0,.87c.21.56.63.11,2.52-1.18Zm-1.2-1.52c1.08-.72,3.63-2.49,4.27-2.93,1.08-.75,1.3-1,.91-1.56a.53.53,0,0,0-.73-.2c-3.13,2.18-3.4,2.55-5.77,4.08a1.41,1.41,0,0,0,.12,1.29c.19,0,.49-.21,1.2-.68Zm0-2.35A52.87,52.87,0,0,0,74.88,97c.11-.25.14-1.23,0-1.34-1.06.81-3.89,2.55-5.83,4.12,0,.32-.11,1.05,0,1.21.39.16.51,0,1.34-.65Zm-.34-7.45c2.07-1.54,4-2.88,6.15-4.33,1.83-1.21,2.13-1.48,1.43-1.85a1.68,1.68,0,0,0-1-.22c-2.43,2-5.13,3.85-7.71,5.76a8.14,8.14,0,0,0,0,1.1c0,.39.49,0,1.19-.46Zm-.29-2.2c.17-.15,1.26-.87,2.41-1.71,3.11-2.25,3.48-2.47,3.48-2.7,0-.66-.9-.8-1.72-.13-1.49,1.22-5.07,3.44-5.07,3.76s-.1.92,0,1.12.42,0,.86-.34Zm.9-3c3.15-2.2,3-2.1,3-2.49S73.38,85,72.9,85s-.47.1-1.33.75c-1.85,1.39-2.52,1.78-2.71,2.19-.06.13-.11.64,0,.75S69.34,88.6,70.66,87.68Zm.2-2.19a9.13,9.13,0,0,0,1.16-1c.09-.23-.38-.65-.73-.65s-.68.19-1.62,1-1,.56-.94,1a4.11,4.11,0,0,0,.12.85C69.05,86.91,69.49,86.64,70.86,85.49Zm-1-2.59c-.44-.44-1-.55-1.23-.28a6.56,6.56,0,0,0,0,1.6c0,.37.47.23,1-.24S70.39,83.39,69.91,82.9Zm14-11a3.66,3.66,0,0,1,2-1.29,5.61,5.61,0,0,1,3.49.37c.84.42,1.75,1.43.4.81a8.13,8.13,0,0,0-4.87-.11c-.71.36-1,.46-1,.22ZM83,67.68a8.42,8.42,0,0,1,1.89.37,8.52,8.52,0,0,0,4.92-.33c.42-.12.63.17.37.39a6.77,6.77,0,0,1-3.12,1.09c-2.24.21-4.66-.94-4.06-1.52ZM71.91,64.44c1-.47,2.23-7.14,1.85-8.27-1.17,1.8-2.49,2.6-4.36,2.29-3.07-.51-3.19-4.29-.82-4.67,1-.15,2.11.47,2.3.33,1-.48,1.8-3.88,2.05-5s.45-4.06.49-5c.08-2,0-5,0-5L58.49,21.17H26s-.08,25,0,37.79l9,8.9.12,14.38C45.48,77.72,55.5,73,65.31,67.83c-1.14-1.36-1.13-4.82,1-6.08a3.66,3.66,0,0,1,5.64,2.69Zm8.3,3c.07-.81.67-1.47.71-2.3,0-.18.15-.39.64-.14s.83.1,1.55-.23a2.58,2.58,0,0,1,2.62-.18,1.16,1.16,0,0,0,1.42,0,2.75,2.75,0,0,1,2.4-.46c1.06.37,1.44.58,2,.28.31-.15.7-.7.76-.66.44.65.35,1.68.63,2.25.5,1,.31,1.69-.28,1.2-1.23-1-2.18-1-4-.6a6,6,0,0,1-2.69.32c-3.54-.42-3.78-.31-4.5.17s-1.23.51-1.35.32ZM89.71,61c-1-.25-2.19-1.18-3-.93a1.21,1.21,0,0,1-1.11-1.84c.92-.89,2.34,0,2.89.43,1.2.91,1.37,1,1.86,1,2,0,1.61-1.9.65-2.58-.57-.6-.63-1-.51-1.13s.77,0,1.39.62c1.19,1.12,1.22,3.35-.24,4A2.33,2.33,0,0,1,89.71,61Zm4.16-6.45a23.59,23.59,0,0,1-3-2.71,2.88,2.88,0,0,1-.93-2.22c.07-.57.16-.91-.2-1.09A1.86,1.86,0,0,1,89,47c0-.12.46,0,.72.28.34,0,.27-.14.63-.39,3.79-2.54,6.83-2,10.42-.3,1,.5,3.76,2.57,2.3,1.9-.08,0-1-.46-2-.94-3.12-1.5-6.59-2.4-9.41-.48-.49.34-.78.6-.4.6,1.58-.31,3.15-1,4.79-.87,2.43,0,3.9,1.24,5.72,2.07,2,.88,2.37,1.18,1.65,1.91-.21.23-.37.22-1.33.15s-1.11,0-1.69.32a8.83,8.83,0,0,1-5.23,1.36c-2.07-.18-2.29-.34-2.33,0s.42.51,1,1.07a15.94,15.94,0,0,1,1.14,1.15C95.22,55.09,94.43,54.94,93.87,54.53Zm-1.31-4.88c-.26-.26-.46-.16-1,.23s-.46.53-.08.87c.82.72,1.84.84,1.83.51A4,4,0,0,0,92.56,49.65Zm3.83,1.73c.83-.41,1.68-1.83,1.3-2.3-.23-.27-.43,0-.87.76a4.26,4.26,0,0,1-.72.95c-.68.48-1.58,0-1.95-1-.23-.63-.47-1-.74-.79-.48.43.07,2,1,2.4A2.56,2.56,0,0,0,96.39,51.38ZM99,51.14c.84-.26,1.25-.64,1.18-1s-.67-.66-1.08-.66c-.19,0-.55,0-.68.16a8.23,8.23,0,0,0-.76,1.67c.1.26.38.14,1.34-.16Zm2.92-6.29c-4.21-1.61-7.53-2.25-11.54-.55-1.28.56-2,.62-2.07.16s.87-1.51,1.86-2a10.67,10.67,0,0,1,9-.05,23.39,23.39,0,0,1,4,2.8C103.11,45.38,102.84,45.22,101.9,44.85ZM151.14,92c1-.53,1.46-1.57.85-2.18a.85.85,0,0,0-.64-.18,20.3,20.3,0,0,0-3.5,1c-.33.18-.21.49.11.78a1.12,1.12,0,0,1,.28.73c0,.4-.05.76.21.7a12.2,12.2,0,0,0,2.69-.83Zm-3.74,1a1.22,1.22,0,0,0-.59-1.67c-.39-.21-.7-.1-1,.35C145.05,93,146.9,93.62,147.4,93Zm-3.76.64c.16-1.74.08-6.88.08-6.88a3.76,3.76,0,0,1-1.52.82,10.56,10.56,0,0,1,.79-1.76,11.73,11.73,0,0,0,.24-3c-.06-.86-.66-.89,0-2.44a3.19,3.19,0,0,0,0-2.6,1.18,1.18,0,0,1,.23-1.38c.44-.57.27-.86.26-2,0-1.65,0-1.91-.5-.58-.75,1.1-1.09.89-2.23.75-1.09,2.47-2.38,5-2.43,7.17,0,1.33,0,1.54.78,4.34a7.51,7.51,0,0,1,.44,2.65A7.1,7.1,0,0,0,140,91c.32,1.18,1.64,3.13,3.65,2.62Zm-38.2,110.75v-2.47s-4,1.22-6,.47c-2.06-.56-2.06-.67-2-.44.08.4,1.61,1.21,3,1.54a10.18,10.18,0,0,0,4-.29c.55-.17.61,0,.39.16-2.43,1.9-5.51,1-7.44-.55-1-1-1.72-1-1.17.34,2.66,5.39,9.25,2.21,9.19,1.24Zm-2.67-3.68.9,0a5.3,5.3,0,0,0-.74-2,2.15,2.15,0,0,0-3.16.13,6,6,0,0,0-.69,1.91l.72,0c.27-.7,1.41-4,3-.05Zm-3.6-2.37a4,4,0,0,0-2.18.72c-.2.23-.2.26,0,.58.52.69,1.32,1,1.38.76a8.56,8.56,0,0,0,.76-2.06Zm6,1.74a1.67,1.67,0,0,0-1.05-1.59c-.3-.08-.61-.14-.52.2a9,9,0,0,0,.51,1.41c.15.31.24.47.54.35s.44-.15.52-.37Zm38.62-32.82v-4.19a55.33,55.33,0,0,0-5.72,7.09ZM79.1,51.67c.9-.38,1.55-1.55,1.33-2.15-.14-.36-.52-.07-.89.48-.61.87-.76,1-1.29,1s-.8-.15-1.18-.91-.46-.84-.71-.52c-.12.14-.11.34,0,.87A1.8,1.8,0,0,0,79.1,51.67Zm2.44-.43c1-.34,1.2-.45,1.15-.78s-.84-.81-1.29-.73a4.4,4.4,0,0,0-1.11,1.77C80.4,51.68,80.74,51.52,81.54,51.24Zm-5.73-.58a2,2,0,0,0-.16-.71.58.58,0,0,0-1,.38c0,.37.53.79,1,.79S75.87,51.19,75.81,50.66Zm5.62-2.51c1.41.53,2.13.59,1.36-.13-1.06-1.17-5.91-2.51-8.51-.6-.18.27-.15,1.28.06,1.22a7.76,7.76,0,0,1,7.09-.49Zm-4.85-4c-1.18.4-2.3,1-2.44,1.6-.23.93.18.94,1.74.45a7.49,7.49,0,0,1,6,.63c1.29.94,1.68.63,1.46-.16-.73-2.62-4.78-3.1-6.71-2.52Z"/><path id="path6265-7" class="cls-4" d="M152.89,27.26l-8.74,8.67.12,10.26c.88,1.61-13.49-4.6-15.76-6.48.26,6.86,9.61,14.66,15.68,17.52l.17,21.94a23.59,23.59,0,0,1,7.82-2.27C153.37,62,154.39,42.58,152.89,27.26ZM104.26,38c-.85,0-1.36.24-1.35.79-.25,0,3.23,12.81,4.82,18.18-6.91,6.68-3.78,14,2.8,16.58.77.74-9.38,7.29-18.41,7.29C89.23,74.49,85.18,78,83,80.22c-1.74-.16-8.25-4-11.57-6.25a6.8,6.8,0,0,1,0-1.13c.24,1.52,13,4.79,13.62,3.27-.37,0-5.75-3.64-7.29-7.23a69.92,69.92,0,0,1-3.55-9.6c-.71,2-.47,4.9-2.44,5.92-.59-6.69-10.14-3.28-5.39,3.26-2.67.79-5,2.17-7.54,3.32A44.3,44.3,0,0,0,79.54,87c-1,2.22-7.18,7.21-2.14,13.09.23.18-4.82,5.69-7.3,10-1.87,3.24-1.31,5.73-1.09,5.81A103.64,103.64,0,0,0,79.69,101.4c-.06.91,8.11.41,8-7a21.11,21.11,0,0,1,1.3-6c12.47.59,23.2-3.86,32.26-13.19,3.31,1.66,7.07.3,9.53-2.47,1.35-1.1,2.71-2.16,3.19-3.29,1.78-7.67-6-4.67-6.42-4.26-4.48-6.09-8.26-23.39-8.87-23.53-2.5-.5-11.06-3.78-14.4-3.72ZM73.54,49.75c-.33,0-1.53,5.38-2.6,5.34-4.5-2.9-4.6,3.1-.72,2.83,3.27-.23,5.09-5.51,3.33-8.16Zm-48,10.19q.22,48.84,1.35,97.66c2.94-.73,5.08-1.28,8,0,.27-9.25-.54-32.61-.34-55.22,11-8.55,18.71-18,24.13-30.31L41.89,79.91s-5.49,7.87-7.24,8.37c-.25-1.12-.53-14.43-.3-20.14ZM62.71,80.08l-3.29,4.77s.07,16.4.26,24.3c.14,1.57,1.57,3,.42,4.43.7,0,3.75,21.27.85,29.89-.52,1.55,0,2.64.78,3,4.14,4.59,6.41,9,11.86,6.38,6-5.44,14.4-15,14.4-15L65.65,116.73c-1.92-5.13-2.94-36.65-2.94-36.65Zm81.41,68.38c-9.67,8.13-19.41,18.38-23.21,29.69,5.42-2.18,10.58-4.85,15.86-7.3,2.56-3.07,4.52-6,7.45-9,0,0,.31,13.35.06,20,2.64,2,8.9,8.1,8.9,8.1s1.73-94.79-2-97.19c-3.63.7-5.45,2-6.8-2.18-1,19.29-.26,57.81-.26,57.81ZM109,95.11c-3.9,3.2-17.31,16.36-17.29,16.5,3.56,6,17.61,17.92,24.34,24.61l1,34.05c1-1.33,1.71-2.59,2.78-3.92,0,0-.17-17.24-.59-25.33-.12-2.39-.67-4.27-.5-4.49-1.89-9.81-2.68-20.65,0-31.17-6.36-5.48-8.38-9.13-9.72-10.25Zm1,38.9,0,0c-3.29,4.7-9.59,14.88-10,14.86-.13-.3-6.51,0-7.71,4-1,3-1.09,5.74-1.83,8.82-12.79-.42-22.15,3.63-32,12.72-4.83,0-8.41,1.08-10.09,3.12-2.5,1.82-3.18,3.37-3.06,5.26.23,3.44,6.29,3.92,6.6,1.5,5.51,9.14,8.46,21.6,9.4,25.24,2.26.15,15.93,3.35,15.93,3.35-1.57-7.9-3.52-13.42-5.33-19.85,9.83-8.25-1-17.06-3.55-16.74a36,36,0,0,1,19.09-7c1.1,3.94,6.18,6,8.74.73,0,0,11,3.94,11,5.24-4.54-.68-8.26-1-12.8-1.47,8.7,4.72,9,10.94,10.74,17.14a63.09,63.09,0,0,1,2.53-5.89c3,6.54,8.56,2,6.24-3.28l7-3.24c.8-.41-10.43-13-20.64-14.84a26.17,26.17,0,0,1,1.25-2.59c2.56-2.52,4.54-6.2.63-10.61,2.58-3.61,8.58-12.34,8.2-12.49,0,0,.11-4.08-.2-4Zm-84,40.21s-.28,30.26-.07,45.28a28,28,0,0,0-.41,3.94l9.3-8.74.28-11.3c2.43-.59,17.57,7.1,16.36,7.06,1.15-.48-7-15.87-16.49-17.58-.18-8.72-.27-18.59-.52-21.24A66.91,66.91,0,0,0,26.05,174.22Zm82.59,18.2c-2.61.78-3.69,6.26-2.85,8.92.16.49.06.59.47.11,1-1.49.7-4.46,2.49-6C113.49,196.85,113,190.69,108.64,192.42Z"/><path id="path6267-4" class="cls-2" d="M48.37,228.11l12.32-18.62c14.7,4.92,29.71,5,44.88,2.58l13.55,16h-5.54l-8.53-12.19c-3.09.71-6.31,1-9.51,1.46l4,10.73H95.19L92.05,217.5a101.12,101.12,0,0,1-17.48-1l-1.84,11.58H68.31l3-12A87,87,0,0,1,61.4,214l-9,14.1Zm14.11-11,5.11,1.39-2.5,9.57H55.74Zm13.2,11,1.44-8.46a66.08,66.08,0,0,0,12.64.77L92,228.11Zm24.2-7.84,4-1.07,6,8.91h-7.35ZM41.05,166.48c19.67-22.9,17.05-46.93,6.18-66.31l2.31-2.38c12.57,20.66,15.24,50-7.91,72.81C41.38,169.23,41.05,166.48,41.05,166.48Zm78.44-25.68c2.82,4.81,4.55,9.69,7.54,14.53l-7.09,9.58ZM34.86,156c-.19-15.1,0-45.71,0-45.71l6.64-5.08c7.94,9.65,12.27,35.07-2,52-1-.75-3.86-.44-4.69-1.2Zm94.23-3c-18.21-30.73-8.86-53.17,8.68-73.06,0,1.53.08,3.1.22,4.62-15.06,17.26-21.09,42.78-6.32,65.87ZM96.22,148.4c2.07-3,11.18-14.67,9.89-15.78l2.72-2.64c.51.49,1.55,1.52,1.55,1.52-1.65,6.66-6.67,12.05-10.52,17.62Zm44-54.81c.26-.3,3.55,1.08,3.55,1.08l.21,46.44-6.59,4.24c-1.91,1-16.85-29.51,2.83-51.76Zm-69.4,19.56c3-4.08,6.16-7.62,9.06-11.38a13.64,13.64,0,0,0,2.73.3c.21.12-.67,3.12-2.82,5.19-5.9,7.07-7.24,8.37-7.46,11.29-.07.94-2.15,2-2.15,2L68.68,119a19.4,19.4,0,0,1,2.14-5.83ZM52.11,95.34l6.77-8.87.49,23.07Zm21.6-57.76L60.64,21.24H67L74.76,32.8l9.32-1.06L80.8,21.24h3.86l2.73,10.33c5.72.14,11.31.58,16.73,1.12l2.79-11.45h3.93l-3.57,12L117.8,36l9.38-14.75h4.66L118.55,40.29c-17.38-5.23-31.34-4.63-44.84-2.71Zm37.68-6.84,3-9.51h8.91L116.46,32.1ZM89.84,28.43,88,21.24h15.7l-2,8a69.85,69.85,0,0,0-11.79-.84ZM71,21.24h6.27l2.44,7.44-3.61.41Z"/><path id="path6269-8" d="M58.6,20.18,73.73,38.3c3.15-1.13,19-2.94,28.58-.77,1.66,6.52,3.42,13.09,5.28,19,0,0-.6.7-1,1.14-6.08,7-1.77,13.81,3.8,16-1,2.09-11.68,7.28-18.19,6.67,0-.07-2-4.78-6.06-3.18-1.39.54-2,1.59-3,2.61-3.89-1.17-9-3.73-11.68-6.54,5,2.49,9.9,3.83,14.83,3.17C78,72.92,75.71,64.61,74.2,57.9c-.52,1.57-.75,5.72-2.12,6.58-.35.23-.42.16-.68-.72-1.94-5.08-8.91-1-5.87,4.11l-2.32,1.29v.38l-1.43.68-.3-.2c-6.64,3.21-13.14,6.55-19.91,9.62,0,0-3.6,6-6.89,8.35l-.13-20.28L24.8,58.9l0,4.82.7.74c.13,34,0,67.34,0,98.16l0,28.37L25,191l0,3.31.67.15-.09,4.67-.35,0,0,2.95.53.09v16.7l-.53.67v4.77l10.18-9.68v-11c8,1.51,16.65,7.29,16.65,7.29-1.42-9.22-11.18-16.82-16.79-18.33l0-21.84a35.38,35.38,0,0,1-6.23,2c-1,.15-1.41,0-1.9-.74-.35-.54-.36-1,0-2.14a1.47,1.47,0,0,0,0-1.18,3.48,3.48,0,0,1,0-2.36,2.22,2.22,0,0,0-.13-1.87c-.31-.75-.33-.89-.2-1.32.34-1.15.36-1.33.18-1.84a2.91,2.91,0,0,1,0-2.37c1.5-2.52,4.87-1.9,6.69-1.81.93,1,1.48,1.61,1.57.11.64-1.78,3.16.05,4.33.8,10-13.39,14.91-31.51,2.38-54.2l-7,5.58v-7C44,96.53,54.41,83,58.91,72.37c1.5,1.75,3.22,3.48,4.84,5.25l-1.06,1.77-.31-.18A127.76,127.76,0,0,1,51.6,94.93a157.27,157.27,0,0,1,7.63,16.2l.57-.25.51,1.64-1,.3c3.41,11.19,3.52,21.56,1,31.11l.6,2.54s3.61,3.5,4.58,4.53l5.37,5.21,3.3-3.23-.19-.27L102.78,124l1.8,1.72C86.9,143.57,56.2,174.33,56.2,174.33l-1.07.15a11.15,11.15,0,0,1-2.07.09,2.57,2.57,0,0,0-1.8.32A7.26,7.26,0,0,0,48.77,177a2.53,2.53,0,0,1-1.2.91c-6,3.59-.58,10.82,4.54,7a95.46,95.46,0,0,1,8.68,23.79,3.23,3.23,0,0,1-.67.29L46.63,229h5.19l.54-.92H48.47l12.41-17.94a100.61,100.61,0,0,0,45,2.36l12.8,15.58h-5.08l.73.92,6.57.1-15-17.76c-5.38,1.44-19.59,2.6-28.51,1.09-1.36-6.63-3.61-13.83-5.27-19.56,8.51-6.66,2.12-15.46-3.13-16.68-.26-.49,10.64-7.12,18.41-6.66,2.22,5.35,7.09,4.56,8.84.58,3.22,1.18,7.4,2.36,10.72,5a72.84,72.84,0,0,0-13.77-1.56c8,3.11,10.27,9.67,11.26,15.86a13.62,13.62,0,0,0,.73,2.35,22.12,22.12,0,0,1,2.58-6.45c.61,2.19,2.64,4.26,5.2,2.58,2.29-1.5,1.59-3.64,1.19-5.9l1.79-1,.23.2s2-.84,2.92-1.31c.16-.07-.17-.38-.17-.38l18-8.51a71,71,0,0,1,7.2-8.77c.08,7.55.06,10.66.06,19.62,3.7,3.24,7.14,7.05,10,9.16L154,59h-.15V56.46h.21V49.84l-.18-.11V47.65l.24-.18,0-17.84-.29-.05V25.3l-10,10.64V46c-3.28-.63-9.49-3.47-13.85-5.77-1.23-.75-1.92-1-1.88-.52.53,6,9.17,15.1,15.81,17.49V79.63s1.57-.78,2.53-1.18l.14.4,2.14-.89.17-.46,1.86-.24c0,.38.08.33.08.33,1.66.46,2.39,1.59,1.72,2.86-.23.42-.27,1-.08,1.18.71,1.13.9,2.13,0,3.2a1.14,1.14,0,0,0,0,1.44c.89,1.8.38,1.68-.29,2.76-.15.81.74,1.34.45,2.1a3.12,3.12,0,0,1-1,1.37c-.43.3-.77-.27-.77-.27a13.59,13.59,0,0,1-2.31.76c-.94.31-2.57.86-3.14-.41a5.49,5.49,0,0,1-.08-2.22L144,90.21l0,3.71c-.8.42-4-1.19-4-1.19-13.55,17.58-13.17,37.08-3.12,53.42.1.26,7.09-4.78,7.09-4.78s0,4.14,0,6.38a92.49,92.49,0,0,0-23.59,29.43l-3.8-4.5a2.71,2.71,0,0,0,.66-2.19l2.76-4.12,0-1.07,7.18-10c.11.6-7.4-13.47-8.4-18l.49-.14c-3.37-12.76-2.68-21.7-.24-32.12l-.7-.67-9.46-9.46L106.63,97c-.12.11-.7.05-.81.16-5,4.67-9.77,9.36-14.51,14.24-.12.12.08.64,0,.77-4.75,4.89-9.67,9.53-14.47,14.42L75,124.9c17-17,49.06-48.63,49.06-48.63a.52.52,0,0,1,.36-.26,10,10,0,0,0,2.57-.49c1.06-.24,1.23-.32,1.67-.78a9.71,9.71,0,0,1,1-.87c.46-.35,1.52-1.24,3.18-2.68,3.85-3.91.64-9.16-5.42-6.23a101.37,101.37,0,0,1-8.29-23.22c-.07-.46,0-.59.35-1.17l1.13-1.77c4.33-6.75,8.76-12.41,12.55-18.62h-5.35l-.66,1.06h4.4l-13.1,18.87c-24.16-7.9-43.95-2.89-44.43-2.78L61,21.24h6l-.73-1.06Zm11.75,0L71,21.24h6.26l-.35-1.06ZM80.8,21.24h3.86l-.22-1.06h-4Zm6.91-1.06L88,21.24h15.71l.28-1.06Zm19.2,1.06h3.93l.3-1.06h-4Zm7.79-1.06-.34,1.06h8.92l.67-1.06Zm38.14,7.29v2.92l-6.28,6.79v9.47l-1.95-.44V36.42ZM151,33.71c.05,2.9-.41,5.68.35,8.63a25.34,25.34,0,0,1,1.24,4.89l-2.12,0c-.27-.87-.37-1.83-.69-2.9a16.72,16.72,0,0,1-.84-8.21Zm-46.3,4.73c.08.14.33,1.37.57,2.5a108.23,108.23,0,0,0,4.13,15.58c1.93,5.94,4.8,13.41,7.58,16.88.37.43.55.92.42,1.14s-1.36-.15-2.13-1A12.75,12.75,0,0,1,114,71.51c-1-1.83-2.28-4.48-2.41-4.9,0-.17-.57-1.48-1.14-2.91a72.5,72.5,0,0,1-2.45-7c-.67-2.21-1.28-4.52-2-6.84a86.43,86.43,0,0,1-2.6-10.34,4.64,4.64,0,0,1-.2-1.23A1.53,1.53,0,0,1,104.74,38.44Zm.68.23c-.12-.1,1.11-.12,1.5.21a6.36,6.36,0,0,1,.5,1.79A128.8,128.8,0,0,0,112.14,58a66.3,66.3,0,0,0,5.35,12.32,25.52,25.52,0,0,0,2.7,3.76c.64.75.69.86.52,1.06s-.58.23-1.29-.11a9.69,9.69,0,0,1-2.85-3.1,80.06,80.06,0,0,1-6.7-15.68,114.62,114.62,0,0,1-4.41-16.92c0-.2,0-.41,0-.62Zm3.91.81A4.26,4.26,0,0,1,110,41.4c1.29,5.32,2.35,10.08,3.88,14.45.82,2.35,1.54,4.69,2.42,6.91a38,38,0,0,0,5.25,9.44,12.47,12.47,0,0,0,3,2.6c.74.44.85.55.8.81s-.79.32-1,.3A6.73,6.73,0,0,1,121,74.14c-3.57-3.85-6.12-10.16-8-15.34-3.19-8.91-5.76-20-5.27-19.7,0-.26,1.27,0,1.59.38Zm1.92.39c.67.18.76.27.92,1,1.14,5.09,2.35,9.57,3.69,13.84a79,79,0,0,0,5,12.74,14.1,14.1,0,0,0,5.85,6.4,13.69,13.69,0,0,1,1.25.68c.12.6-.4.6-.82.61a4.38,4.38,0,0,1-2.76-1c-2.81-1.94-5.26-6.32-6.34-8.8a97.93,97.93,0,0,1-3.62-9.62,107.55,107.55,0,0,1-4.09-15.43C110.28,39.66,110.58,39.8,111.25,39.87Zm41.61,10.06c-7.05.46-14.31-2.52-20.12-5.21,4.38,5.82,9,11,20.1,12v1.86c-14.39-.2-24.51-14.78-24-18.42,5.92,3.83,16.56,8.25,23.95,7.92,0,.6,0,1.2,0,1.81Zm-38.72-9.1c1.17,4.39,2,9.27,4,14.16,2.39,6,3.72,11.33,8.15,16.29,1.38,1.41,4.08,1.37,4.08,1.37s-.34.77-.8.89a4.89,4.89,0,0,1-2.33,0c-2.57-1.09-4.53-3.83-5.54-5.69-1-1.39-3.27-7.13-5.18-13-2.07-6.37-3.79-13-3.59-14.33A1.4,1.4,0,0,1,114.14,40.83Zm2,.58c.66.44.49,1.48.75,2.56a98.14,98.14,0,0,0,3.82,12,72.73,72.73,0,0,0,4.42,9.89,22.07,22.07,0,0,0,2.27,3.53c2.62,2.79,5.58.5,4.79-2-.36-1.11-2.52-1.29-2.63-.44a1.5,1.5,0,1,1,.91,2.85c-2.34.54-4-2.63-1.9-4.57,3.5-2.38,6.18.87,5.35,4a4.27,4.27,0,0,1-3.91,2.85c-2.29.07-3.23-.63-5.58-4-2.69-4.32-3.85-8.53-5.74-13.25a57.1,57.1,0,0,1-3.55-13.38c.19-.39.62-.12,1,0Zm1.56.55a1.45,1.45,0,0,1,1.11.46c3.15,11.51,5.78,18.4,8.46,23.27a3.46,3.46,0,0,1-.23,1.14c-.31.46-.47.35-.89-.37-1.68-3.26-3.28-6.86-4.77-10.57a61.42,61.42,0,0,1-4-13.19c-.1-.62-.21-.77.3-.74ZM139,48.53a.81.81,0,1,1-.8.81A.81.81,0,0,1,139,48.53Zm-65.47-.14c-.94,1.27-1.7,5.83-2.68,5.89s-2.37-.63-3.21.33c-1,1.18-.39,2.48.87,3.19a4.28,4.28,0,0,0,2.55.14c3.06-1,4.22-6,2.47-9.55Zm68.53,1.19a1.17,1.17,0,0,1,0,2.34,1.17,1.17,0,0,1,0-2.34Zm-68.48.56c1.72,3.46-2.1,9.81-5.45,7a1.54,1.54,0,0,1,1.15-2.65,2.36,2.36,0,0,1,1.57,1.05c1.06.11,2.28-5.29,2.73-5.38Zm72.54.64a1.32,1.32,0,1,1-1.31,1.32A1.32,1.32,0,0,1,146.11,50.78Zm4.66.93a1.35,1.35,0,1,1-1.34,1.34A1.35,1.35,0,0,1,150.77,51.71Zm-43.35,6.11c.2,0,.34.19.47.58.27.8.26.89-.16,1.43-4.13,5.91-.37,11.82,5.62,12.2.5,0,.76.61,1,1.27,0,.31,0,.31-1.39.34-8.84-.71-11.17-10.46-6.4-15.24C107,58,107.22,57.82,107.42,57.82Zm39.22.64V78.08l-2.09.77V58Zm3.88.75q3.9,9.71.37,17.79l-2.38.34c3.26-7.59,1.87-13,0-18.28ZM25.68,60.29l8.45,8,.29,88.91-1.34-.48-.54-87.45-6.86-6.42Zm83.19,1.11a1.27,1.27,0,0,1,0,1.29c-1.16,2.84-.21,5.55,2.65,6.4.68.22.79.33,1.19,1.17.26.55.38.75.28.87-2,.28-4.81-1.58-5.59-3.44-1-2.47-1-5,.85-7.17C108.47,60.52,108.68,60.86,108.87,61.4ZM75.08,64.05c-.22,1.38-2.18,3.59-3.89,4.39-1.59.61-4,.3-5-.75-3.64-4.27,3.16-8.56,4.87-4.12,1,2.92-3.15,3.61-3.34,1.37,0-.58.19-.76.73-1.13s.42-.63,0-.63a1.81,1.81,0,0,0-.91,2.95c1.43,1.48,3.19.62,4.4-.47,1.63-1.48,1.92-3.7,2.29-5.57a38.8,38.8,0,0,1,.84,4Zm34.48-.61c.08,0,1.75,4,2,4.57-.06.4-.5.37-1.24-.15A3,3,0,0,1,109,65.73C108.9,65.29,108.74,63.7,109.56,63.44ZM75.64,65.13c.36,0,.75,1.35.57,2-.3,1.2-3.44,3.23-5.64,3.64l-1.06.2A1.86,1.86,0,0,1,68,70.27c-.39-.4-.58-.79-.48-.89s1.09.1,1.94.09c2.41,0,4.26-1.7,5.69-3.75a1.66,1.66,0,0,1,.52-.59Zm-47.77,1s1.63,1.47,2.48,2.31c-.09,3.93-1.54,8.17-1.53,11.68,0,3,2,5.59,2.2,8.24a14.75,14.75,0,0,1-1.23,6.19,14,14,0,0,0-1.2,5.58c.1,4.33,3.21,9.07,2.12,13.35-1,4-2.2,6.35-1.89,8.49.6,4.12,2.79,7.78,2.21,11.21-.54,3.19-2,6.38-1.83,9.26.18,3.33,1.42,6.11,1.77,9.14a22,22,0,0,1-.33,5.06l-2.28.18c1.26-4.67-.61-8.89-1.33-13.39-.61-3.82,1.11-6.86,1.62-10.12a12.27,12.27,0,0,0-1-6.54c-2-4.77-1.27-7.87.16-12,1.77-4.42-.66-7.92-1.27-12.15a18,18,0,0,1,1.3-9.47c1-3.12,1.31-4.93-.21-7.93a10.1,10.1,0,0,1-1.22-5.51c.5-4.94,1.83-7.72,1.51-13.56Zm48.85,2c.36,0,.53.25.53.76,0,.92-1.37,2.09-3.8,3.23-1.27.6-2,.68-2.74.34s-.65-.62.1-.84A11.29,11.29,0,0,0,75.6,68.9a4,4,0,0,1,1.12-.8Zm-11,.64C72,75.46,78.14,78.92,82.85,80.53l-.74,1.76c-6.18-2.4-12.49-5.73-17.83-12.89Zm12.09,1.09a2.22,2.22,0,0,1,.81,1,2.78,2.78,0,0,1-.52.9,4.89,4.89,0,0,1-1.82,1.37c-1.41.77-2.26,1-2.87.64s-.4-.59,1.12-1.48a16.71,16.71,0,0,0,2.31-1.65A8.28,8.28,0,0,1,77.81,69.83Zm-16.62,1A38.19,38.19,0,0,0,80.73,85L79.5,86.69A44.75,44.75,0,0,1,59.09,72Zm18,.86c.26,0,.84.66.84,1a1.29,1.29,0,0,1-.25.58A12.83,12.83,0,0,1,77.4,75a1.29,1.29,0,0,1-1.35,0c-.62-.31-.52-.57.49-1.22a14.06,14.06,0,0,0,1.66-1.31,3.58,3.58,0,0,1,.94-.73Zm-20.68.52c-.15.18-7.57,17.19-23.29,29.25l-.07-2.82c8.7-6.92,15-16.38,19.81-24.64Zm22.17,1.22c.24,0,.41.15.57.47s0,.72-.89,1.38a1.61,1.61,0,0,1-1.21.49c-1.17,0-1.14-.3.14-1.45.67-.6,1.09-.88,1.39-.89Zm30.36.84,3.28.25c.88.61-12.81,9.58-22.3,8.78l.25-2.15C100.55,81.39,111.22,74.66,111,74.27Zm-28.11.84c.75.42,1.69.92,1.46,1.08A6.75,6.75,0,0,1,81.25,76c-.38-.21-.36-.32.17-.91S82.18,74.72,82.88,75.11Zm-29.21-.54c-5.2,9.17-11.38,17.54-18.54,23L35,92.71c6.81-5.24,12-14.83,12-14.87Zm65.05.59,1.58.93c-9.9,9.17-20.6,13.12-30.87,12.13l.82-1.86c16.68,1.32,27.76-11,28.47-11.2Zm2.4.32s.53-.06.48,0a77.76,77.76,0,0,1-10.76,8.58c-14,14.39-26,25.75-38.19,38.57l-2-2,1.77-1.87c0-3.81,4.75-8,7.2-11.09,1.51-1.92,3.75-5.12,2.89-6.23,4.24-.85,5.25-4.29,5.34-7.33a19.8,19.8,0,0,1,1.15-5.55C108.24,90.11,120.59,76,121.12,75.48ZM87.7,77.61a3.85,3.85,0,0,1,3.81,4.15c0,1-.38,1.8-1.76,4.5-1.34,2.31-1.52,3.72-2,6.39l-1.37-1.23-2.48,2.24,0-3.26s.85-1.09,2.24-2.64c1.75-2,3.34-4.46,3.27-5.87a2,2,0,0,0-3.06-1.63c-1.32.92-1.93,2.6-2.71,7.6-.14.88-.27,1.92-.34,2.15a12.93,12.93,0,0,1-2.11,2.43,30.71,30.71,0,0,1-.91-3.67l-1.94.32a25.57,25.57,0,0,0,5.11-8.44c1-1.89,2.36-3,4.25-3Zm-42,.77s-3.84,8-10.6,13.2l0-3.13a33,33,0,0,0,6.91-8.28Zm92.56.21c-13.35,13.83-30.77,39.3-9.15,75.08l2.86-3.3c-17.41-32.36-5.08-49.13,6.38-66ZM66.05,79.73C70,82.51,74,85.27,79.31,87c-.28.94-7.53,7-2.33,12.7.22.29-.33,1-1.18,2-2.49,3.4-5,5.82-7,9.65l-.08,7.19-2.08-1.83Zm71.67.66.09,4.1c-19.84,24.12-17.61,45.84-6.39,65.85l-2.15,2.18c-18.38-31.65-6.91-55.51,8.45-72.13ZM88.79,82.82c-.88,2.31-4.7,6.27-4.7,6.27s.5-3.86.82-5.08a7.66,7.66,0,0,1,1.34-2.78C87.79,79.53,89.33,81.46,88.79,82.82ZM62.47,80.65,62.84,113l-2.79-2.82-.41-24.71ZM58.7,87l.56,22a132.91,132.91,0,0,0-6.77-13.71Zm22,6.87c.88-.86,1.53-1.56,2.51-2.52.1,1.29,0,2.27,0,3.63a35.69,35.69,0,0,0,3.24-2.71,6.77,6.77,0,0,1,1,2.87,6,6,0,0,1-3.84,5.76,6.1,6.1,0,0,1-6.28-10.12,10.83,10.83,0,0,1,2.41-1.21s.63,2.94,1,4.3Zm65.87.16c-.2,31.42,0,87.05,0,87.05l6.28,5.93v2.59l-8.37-7.66s-.45-65.58,0-90.38c.66,2,1.17,2.25,2.1,2.47Zm4.17-1c.23,3-.29,6.24.23,9.37,1.82,4.65,1.91,9,.46,12-1.3,3.77-.76,7.4.43,11.21,1.59,5.55-1.5,9.7-1.29,14.31,1.79,7.14,2.21,13,.77,16.67a12.08,12.08,0,0,0-.18,8.48c1.73,4.28,2.12,7.79.51,11.85-1,2.44-.36,4.94,0,7.68l-2.52-2.15a9.34,9.34,0,0,1,.21-6.29c1.92-3.89.89-6.56-.5-10.59a10.78,10.78,0,0,1,0-7.92c1.89-4.45,1.14-9.56.21-13a17.13,17.13,0,0,1-.65-4.83,21.92,21.92,0,0,1,.84-6.07,14,14,0,0,0-.27-9.06c-1.15-3.7-1.43-7.22.13-10.45a11.28,11.28,0,0,0,.44-7.84,37.53,37.53,0,0,1-1.22-12.7Zm-7.07,1.73c-.22,21.53,0,46.18,0,46.18s-6.38,4.47-6.35,4.24c-8.22-13.56-11.35-33.52,3-51.53a19.57,19.57,0,0,0,3.34,1.11Zm-97,5.13c11.63,21.72,13.14,43.66-6.08,66.18a11.75,11.75,0,0,1,.21,5.66c3.75-2.92,33.8-33,8.49-74.78ZM106,98.05l5.71.34.38,4.91-1.84,1.83a19.11,19.11,0,0,0-.35-4,33.32,33.32,0,0,0-.37,4.85,6.56,6.56,0,0,1-1.39,1.31c-.3-.51-.22-2.92-.56-3.84-.29,1.63-.14,3-.36,4.78a3.75,3.75,0,0,1-1.51,1.35c-.36-.76,0-1.58-.61-3.61a24.41,24.41,0,0,0-.32,4.82c-.24.44-1.36,1.39-1.56,1.31-.53-1.27-.27-2.48-.49-3.68-.47,1.59-.23,2.68-.25,4.66a7.48,7.48,0,0,1-1.7,1.68c-.33-1.27-.18-3.32-.48-4.19-.42,1.66-.08,3.14-.26,5a20.8,20.8,0,0,1-1.7,1.79L98.09,112l-6-.26A11.62,11.62,0,0,1,93.87,110c1.67-.29,2.9.08,4.85-.22a20.36,20.36,0,0,0-4-.55c.5-.53,1-1,1.52-1.55,1.47,0,3.37.3,4.6-.17a15.66,15.66,0,0,0-3.73-.56l1.65-1.67a32,32,0,0,0,5-.35c-1.31-.22-4.17-.61-4.17-.61s1-1.08,1.72-1.71a14,14,0,0,0,4.44-.18,11.19,11.19,0,0,0-3.83-.34,18.67,18.67,0,0,1,1.76-1.8c1.44,0,2.88,0,4.33-.09a15.2,15.2,0,0,0-3.56-.61L106,98.05Zm-56.54.06c16,26.11,10.21,54.33-7.6,71.89l-.52-3.43c16.81-20.46,19.75-41.58,6.15-66.44Zm29.71,3.51c-2.87,4.32-7.25,8.57-8.91,12.1-.34.39-.45,1.29-1,1.46-.26,0-.35-.49-.29-1.65a4.16,4.16,0,0,1,.55-2c2.27-4.14,4.89-7.11,7.79-11Zm.67.42,2.65.17c-1,3.53-4.33,6.83-6.65,9.49s-3.67,5.61-3.56,6.86a20.31,20.31,0,0,1-1.81,1.74l-1.54-1.42C70.05,113,75.61,107.59,79.82,102Zm32.43,2.39c1.9.17,3.72.29,5.74.53a10,10,0,0,1,.31,1.14l-1.11,5c-.56-.56-.78-2.31-.89-3.18a18.2,18.2,0,0,0-.15,3.95,7.59,7.59,0,0,1-1.47,1.74c-.18.13-.4-2.27-.58-3.65-.77,1.32-.33,2.75-.32,4.63a7.38,7.38,0,0,1-1.59,1.42c0-1.26-.19-3.33-.64-3.67-.1,1.59,0,2.94-.09,4.58a4.84,4.84,0,0,1-1.51,1.51c-.54-1.1-.36-2.3-.61-3.35a13.62,13.62,0,0,0-.26,4.24,9.33,9.33,0,0,1-1.59,1.44c-.35-.81,0-2-.55-2.92a34.37,34.37,0,0,0-.34,3.89,7.53,7.53,0,0,1-1.44,1.53,20.25,20.25,0,0,1-.37-4.85c-2.06-.19-3.79-.19-6-.34a15.72,15.72,0,0,1,1.79-1.87s4.09.36,4.51-.19c-1.2-.15-3.7-.56-3.7-.56a9,9,0,0,1,1.21-1.36,41,41,0,0,0,5-.16c-.6-.51-3.81-.7-3.81-.7a6,6,0,0,1,1.38-1.5c1.63.07,3.67.13,4.67-.37-1.1-.45-2.43-.24-3.68-.59a6.06,6.06,0,0,1,1.33-1.55,13.16,13.16,0,0,0,4.8-.29c-1.27-.43-2.59-.15-3.69-.65a6.67,6.67,0,0,1,1.34-1.53,18.22,18.22,0,0,0,4.55,0c-.87-.67-2.52-.4-3.51-.83a5.2,5.2,0,0,1,1.29-1.46Zm-70.56,1.08C52.17,124.3,50.6,142,39.44,157.06a10.17,10.17,0,0,0-4.11-1.31l-.28-45.36Zm75.17,7.27a15.39,15.39,0,0,1-.26,2.78,8.15,8.15,0,0,1-2.15-.34,6.94,6.94,0,0,1,2.41-2.44Zm-56.47.92s1.38,0,2.07,0c0,0,.11,3.52.39,5.55l4.49.21-1.74,1.82-3.41-.11c-.6-2.52-1-5.05-1.8-7.48Zm53.55,2.12a16.17,16.17,0,0,1,2.48.47c0,2.47-.34,5.19-.06,8.94a7,7,0,0,0-.58.64,37.26,37.26,0,0,0-.53-3.79,32.41,32.41,0,0,0-.11,4.47,6.27,6.27,0,0,1-1.1.9c-.45-.75-.24-2.26-.9-3.11a38.73,38.73,0,0,0,.18,4,8.24,8.24,0,0,1-1.76,1.6,17.85,17.85,0,0,0-.67-5.12s-1.09-.09-2.21-.14a24.14,24.14,0,0,1-3.24-.34l1.5-1.55s4,.63,4.45,0a15.71,15.71,0,0,1-3.68-.83,7,7,0,0,1,1.26-1.47c1.34.42,4.39.45,4.13.14a12.5,12.5,0,0,1-3.13-1,5.17,5.17,0,0,1,1.19-1.38c1.49,0,3.68.61,4.28.08-1-.41-2.54-.54-3.35-.89a12.79,12.79,0,0,1,1.85-1.62Zm-46,4.23a9.58,9.58,0,0,1,.29,2.7c0,2.12.12,2.79.12,2.79a39.32,39.32,0,0,1,5.11.57c-.64.66-1.15,1-1.56,1.39a40.44,40.44,0,0,0-4.13-.06c.82.63,2.45.42,3.58.89A5.6,5.6,0,0,1,70,129.72a21.5,21.5,0,0,0-4.58.08,19.87,19.87,0,0,0,3.65.61,6.67,6.67,0,0,1-1.65,1.83c-1.48.27-3.18-.14-3.82.28a8.52,8.52,0,0,1,2.84.69,4.27,4.27,0,0,1-1.54,1.6,2.74,2.74,0,0,1-2.43-.26c.24-3.1.24-6.1.24-9.6l.61-.43a16.43,16.43,0,0,0,.71,4,32.15,32.15,0,0,0,0-4.5,5.61,5.61,0,0,0,1.38-1.46,17.43,17.43,0,0,0,.54,3.83,17.55,17.55,0,0,0,.37-4.7A17.69,17.69,0,0,1,68,120.05Zm-5.63,1.77a17.64,17.64,0,0,1,2.53,0,8.48,8.48,0,0,1-2.2,2.19A6.36,6.36,0,0,1,62.32,121.82ZM116.48,126l.41,2.86-3.12-.21Zm-42.09.37c.52,2.18.34,3.2.65,5.72,1,.24,3.73-.23,5,.52a19,19,0,0,1-1.33,1.54,15.52,15.52,0,0,0-4.59.16c1,.64,2.52.12,3.73.55-.48.66-.92,1.09-1.49,1.75a20.28,20.28,0,0,0-4.86,0c.72.77,2.73.46,3.86.85a6.52,6.52,0,0,1-1.22,1.42,25.38,25.38,0,0,0-4.85,0,14.55,14.55,0,0,0,3.76.82,7.21,7.21,0,0,1-1.61,1.67c-1.43,0-3.07-.09-4.56,0,.55.72,2.7.51,3.77.9A4.17,4.17,0,0,1,69.22,144a13.92,13.92,0,0,0-4.49-.07,16,16,0,0,1,3.73.83,5.67,5.67,0,0,1-1.7,1.64l-5.63-.5a9.06,9.06,0,0,1,.28-3.74c.51-2.47.91-3.08,1-2.56a7.37,7.37,0,0,0,.68,2.74,16,16,0,0,0-.23-3.88,10.72,10.72,0,0,1,1.53-1.84s.59,3.06.82,3.56a15.35,15.35,0,0,0-.09-4.25l.83-.84c.75-.76.92-.74.92-.74a36.92,36.92,0,0,0,.74,3.67,40.45,40.45,0,0,0-.06-4.45,14.35,14.35,0,0,1,1.89-2c.63,1.16.33,2.28.61,3.6.49-1.29.21-2.88.16-4.51.55-.55,1.09-1.09,1.67-1.61,0,0,.64,4.82.78,3.33,0-1-.09-2-.12-2.87s0-1.2.28-1.57a12.16,12.16,0,0,1,1.61-1.51ZM107,128.26s1.26,1.07,1.26,1.38c-2,2.59-2.58,2.8-2.68,4.13a14.58,14.58,0,0,1-2,4.21,113.56,113.56,0,0,0-7.34,9.56c-.2.88-.26,1.46-1.07,1.88a6.49,6.49,0,0,0-1,.64A6.7,6.7,0,0,0,91.63,154c-.2.87-.32,1.66-.68,4.37-.15,1.12-.63,3.06-.63,3.06-7.48-.11-14.48,1.19-20.72,4.71Zm10,1.15,1.67,7.56-1.72,0-.17-5.49-5.35-.51,2-1.77Zm-8.11.69c.46.47,1,1,1.44,1.49-1.43,4.78-6,11-10.45,17.14l-3.3-.36a94.81,94.81,0,0,1,6.78-9,17.48,17.48,0,0,0,3.28-6.92c.78-.94,2.25-2.31,2.25-2.32Zm1.77,1.68,2.5,2.52.6,35.81a45.85,45.85,0,0,0-13.2-7l.84-1.92.93-1c3.29-3.56,2.56-7.39.06-10.1,3-4.44,5.8-7.75,8.12-12.09a42.17,42.17,0,0,1,.15-6.26Zm-29.33,6.95a20.54,20.54,0,0,0,2.51.15c2.18.07,2.64.13,2.64.36a9,9,0,0,1-1.25,1.38c-1.41-.05-2.84,0-4.24,0,.51.56,3.53.74,3.53.74-.7.71-1.06,1-1.88,1.84a19.77,19.77,0,0,0-4.35.18,23,23,0,0,0,3.77.54s-1.07,1.08-1.6,1.64a16.53,16.53,0,0,0-4.68.05c1.25.23,3.56.73,3.56.73L77.71,148a13,13,0,0,0-4,0,24.85,24.85,0,0,0,3.36.72,14.44,14.44,0,0,1-1.3,1.41c-1.71.14-2.81-.14-4.36.29,1,.42,2.28.14,3.38.58.17.17-1.45,1.71-1.45,1.71l-5.41-.07-.5-5.73a11.45,11.45,0,0,0,1.4-1.37c.67,1.14.69,3.07,1,3.78a38.5,38.5,0,0,0-.16-4.5c0-.3,1.23-1.59,1.47-1.54.48,1,.15,2,.89,3.34a20.64,20.64,0,0,0-.13-4.26,6.14,6.14,0,0,1,1.5-1.51c.4,1.86.19,3.34.87,3.88a39.66,39.66,0,0,0,0-4.86,10.44,10.44,0,0,1,1.47-1.36c.58,1.11.28,2.72,1,3.63a34.54,34.54,0,0,0-.22-4.47A11.21,11.21,0,0,1,78.25,136c.53,1.32.23,2.93.82,3.85.14-1.58,0-3.2.13-4.62a13.66,13.66,0,0,1,1.6-1.95,15.21,15.21,0,0,1,.47,5.45ZM110,134.3l0,3.5c-1.4,3-4.64,7.4-7.92,12.12l-1.72-.93A93.06,93.06,0,0,0,110,134.3Zm-46,1.32a8.05,8.05,0,0,1-1.63,1.66,6.9,6.9,0,0,1,.15-1.89Zm52.64,2.3,2.42,2.39.61,25.64-2.55,4.16Zm3,3.38a95.78,95.78,0,0,0,7,13.87l-6.48,9.15ZM103.92,154a5.77,5.77,0,0,1-3.09,6.63,4.86,4.86,0,0,1-1.28.31c-.28-1.66-.16-3.26-.54-4.94a33.28,33.28,0,0,1-2.64,2.75s0-2.39,0-3.51L93,158.8a6.19,6.19,0,0,1-.62-1.28,6.26,6.26,0,0,1,2.54-7.3c3.38-2.28,8.42.29,9,3.78Zm39.77-1.79c-5.4,4.19-13.1,13-19.7,24.52l-2.9,1.22c4.58-10.36,13.34-21.35,22.54-28.91,0,1.06,0,2.11.06,3.17Zm0,1,.06,4.67a71.19,71.19,0,0,0-12.5,15.41c-2.11,1-6,2.93-6,2.93-.49-.12,10.61-17.41,18.44-23Zm-48,3.83a5.93,5.93,0,0,1-.74,3.75c-1.75,2.06-4.52,4.86-4.9,7.47-.19,1.39.9,2.7,2,2.56,3.31-.41,3.67-6.31,4-9.22a8.54,8.54,0,0,1,.29-1.55,12.7,12.7,0,0,1,2.39-2.47l.41,4.51,1.87-.63c-5.27,7.17-3.76,7.62-6.54,10.56-2.58,2.72-7.59-.38-6.31-4.53,1.11-2.79,2.84-5.59,3.3-8.58.13-.89.2-1.51.2-1.51l1.2,2.5A35.67,35.67,0,0,1,95.69,157Zm48.19,1.71V162a67.42,67.42,0,0,0-7.09,8.72l-4,1.82c2.61-5,6.88-9.6,11.09-13.76Zm-48.72,2.84a12.05,12.05,0,0,1-.32,4.23c-.27,1.3-1.52,5.08-3.48,4.18-1.68-1.47.36-4.21,1.39-5.5.79-.93,1.65-1.94,2.41-2.91Zm-5.25.39-1.08,2.33c-9.77,0-19.26,3.53-27.71,10.67l-2.13-.7A43.3,43.3,0,0,1,89.91,162Zm10.27,1.79c11,3.69,16.1,9.07,20.26,14.71l-1.74.9c-4.37-5.65-9.75-10.82-19.78-13.81Zm-12.61,3.48-.47,2c-6.16.19-12.67,2.38-19,6.78l-2.29-.37A38.81,38.81,0,0,1,87.57,167.24Zm28.18,13.47-2,.92C108,174.06,102.68,171.9,96.68,170l.65-1.68a31.59,31.59,0,0,1,18.42,12.42Zm-81.37-8.93V192l-1.44-.28V172.16Zm-3.26,1.09c-2.68,10.06-.6,12.66.37,18.53L29.27,191a26.83,26.83,0,0,1-.56-17.66Zm67.48,1.55c.17.16-.13.65-.55.9s-.31.2-1,0-1.41-.82-1.41-1a15.49,15.49,0,0,1,2.91.17Zm1.9.14c.36.05,1.43,0,1.49.36s-.39.52-1.24,1.1c-1.3.89-1.74,1.06-2.12.64s-.25-.81.35-1.37a2,2,0,0,1,1.52-.73Zm-44.23.22a4.9,4.9,0,0,1,2.87,2c.82,1.28,1.75,2.58,2.5,3.87a53.64,53.64,0,0,1,4.15,8.93,118.79,118.79,0,0,1,6,21.18c0,.59-.53.58-1,.44a.85.85,0,0,1-.47-.33c-.6-1.7-.81-3.44-1.27-5.15a110.3,110.3,0,0,0-3.76-12.77,87.11,87.11,0,0,0-4.61-10.83,25.1,25.1,0,0,0-4.25-5.89,13.1,13.1,0,0,1-1-1c0-.29.29-.46.81-.46Zm47,.23c.69.17,2.35.37,1.72.92a13.21,13.21,0,0,0-4.33,2.86,2.62,2.62,0,0,1-.92-1.14C100.79,176.42,102.06,175.89,103.32,175ZM62,177c3,4.42,5.56,10.72,7.68,16.89a99,99,0,0,1,4.34,17.57c0,.14-.33.19-.66.19-.61,0-.7-.15-.85-.63a145,145,0,0,0-6.21-21.82,63.85,63.85,0,0,0-5.09-10.54A22.32,22.32,0,0,1,59,175.2c1-.63,2.53,1,3.06,1.84Zm-9.09-1.89c1.32,0,3.49,1.56,5,3.57,3.14,4.3,4.93,9.32,6.79,14.2a100.53,100.53,0,0,1,4.6,16.68c.16.7.42,1-.24,1.23a1.92,1.92,0,0,1-.89-.38c-2.47-9.7-5.25-20.26-9.66-28-4.73-7.56-6.1-5.46-6.86-6.79.06-.3.58-.51,1.29-.52ZM64.31,177c4,7.07,5.84,11.41,7.08,15.67,1.87,6.47,4.08,11.64,5.06,19.19a5.73,5.73,0,0,1-1.5-.15,4.6,4.6,0,0,1-.47-1.55,126,126,0,0,0-4.25-16.62,70.44,70.44,0,0,0-7.18-15.88c-.84-1.37-1-1.91-.48-1.93.91.06,1.32.76,1.74,1.27Zm42.28-.75a1.46,1.46,0,0,1,1.35.6c.17.27-.29.42-1.33.66a14.91,14.91,0,0,0-4.6,2.85c-.25,0-.86-.67-.86-1a8.65,8.65,0,0,1,5.44-3.16Zm-55.92.17c3.43.11,6.12,4.1,7.53,6.79.55,1.06,1.26,2.2,1.8,3.41a115.51,115.51,0,0,1,6.31,19.06c.56,2.4,1.2,4.17,1,4.64a1.24,1.24,0,0,1-1.16-.19,6.64,6.64,0,0,1-.58-1.71c-.8-2.57-2.13-9.94-5.59-17.67A54,54,0,0,0,55.31,181a7.88,7.88,0,0,0-4.82-3.47c-.87-.14-1.13,0-1.08-.51,0-.3.13-.38.6-.53a2.34,2.34,0,0,1,.66-.11Zm21.47,16c-.23,0-.44-.45-.6-1.19-.08-.36-.18-.62.5-1,4.26-4.54.59-11.2-4.76-11.78-.5-.07-1.14-.08-1.33-.15a5.9,5.9,0,0,1-1-1.5c7.4-1.8,15.26,8.81,7.17,15.66ZM109,177.56c.44.11,1.4,1,1.28,1.2s-1,.24-2.17.45c-2.55.45-3.64,2.11-4.82,3.34-.26.08-.5-.1-.73-.5a2.42,2.42,0,0,1-.32-.79c1.33-1.93,4.87-3.88,6.76-3.7Zm-60.1.57a6.92,6.92,0,0,1,5.55,2.76c4.44,6.65,9.43,21.44,10.63,28.74-.13.24-1.32-.12-1.32-.12.17-.09-5.25-20.09-10.48-27.36a4,4,0,0,0-5-2.13,2.24,2.24,0,0,0-.56,3.7,2.15,2.15,0,0,0,3.07-.48,1,1,0,0,0,0-1,.24.24,0,0,0-.38,0c.08,1.29-1.57,1.38-2.29.87-1.15-.86-.38-3.59,2.75-2.49a2.26,2.26,0,0,1,1,3.12,2.87,2.87,0,0,1-2.9,1.89,3.56,3.56,0,0,1-3.65-3.38,4.44,4.44,0,0,1,2.14-3.83,2,2,0,0,1,1.42-.38Zm18.33,1a6.49,6.49,0,0,1,4.91,10.16c-.71.89-1.15.73-1.45-.43-.15-.47-.32-.54.11-.91,2.46-2.35.44-6.94-3.62-7.12a6.15,6.15,0,0,1-.83-1.69,2.61,2.61,0,0,1,.88,0Zm43.8.42c.4.1,1.24.91,1.24,1.2s-.16.27-1.09.11c-2.21-.4-4.43.88-6.27,3.67-.9,1.68-1,1.52-1.48.08-.24-.75-.25-.73.69-2.1a7.54,7.54,0,0,1,6.91-3Zm2.06,2.84c1.84,1.68,1,5.38-1.52,5.76-2.2.26-4.15-2.12-2.77-3.75,2.45-2.48,4.25,1.59,2.12,1.94-.12,0-.22.14-.22.21,1.62.54,2-1.65,1.34-2.57a2.1,2.1,0,0,0-2.42-.85c-1.49.53-3,2.54-3.86,5.07-.24.71-.38,1.38-.49,1.54-.21.32-.19.31-.39.19a6.54,6.54,0,0,1-.48-2.25,8.3,8.3,0,0,1,.89-2.65c1.61-3,5.22-5,7.8-2.64Zm-45-.75c2.15.13,3.85,3.18,2.92,5.3-.29.39-.71.66-.9.41-.62-1.57-1.16-2.86-1.87-4.49-.34-.73-.59-1.23-.15-1.22Zm-14.61,1.77a88.38,88.38,0,0,1,6.19,14.18,78.17,78.17,0,0,1,3,10.79c.06.33.14.51,0,.65s-1.41-.36-1.41-.36c-2.48-9.55-4.67-16.59-8.85-23.73a2.37,2.37,0,0,1,.44-1.68c.14-.14.32-.16.59.15ZM26,191.61c11.58.78,20.53,5.67,25.32,18.57A50.06,50.06,0,0,0,26,201.72v-1.79c10.66-.09,21.16,5.47,20.94,5.38C43,197.13,33,193.81,26,193.6Zm79.32,4.7c.16,1.93.2,4.12.37,5.76a.53.53,0,0,0,.78.06c.7-1.95.9-4.36,2.06-6.13.25-.32.62-.22,1.67-.1,2.36.21,2.87-3,1.15-3.84C108.6,190.72,106,194.34,105.3,196.31Zm3.54-1.32c-1.68,1.39-1.73,3.39-2.25,5.23-.27,1.24-.66,1.89-.81,0-.26-2.82.23-7.37,4-8.06a1.74,1.74,0,0,1,1.95,2.52,2.07,2.07,0,0,1-2.87.29ZM29,195.82a1.51,1.51,0,1,1-1.51,1.51A1.52,1.52,0,0,1,29,195.82Zm4.81,1a1.35,1.35,0,1,1-1.35,1.34A1.35,1.35,0,0,1,33.84,196.86Zm4.38,1.48a1.1,1.1,0,1,1,0,2.2,1.1,1.1,0,0,1,0-2.2Zm3.11,2a.85.85,0,1,1-.85.85A.85.85,0,0,1,41.33,200.31ZM30.43,203a9.29,9.29,0,0,0,.31,4.48c.86,2.5.47,6.92.47,6.92L28.69,217A52.77,52.77,0,0,0,29,210.2c-.09-1.3-.68-2.53-.83-3.84a24.06,24.06,0,0,1,.07-3.65Zm4,.75v10.67L26,222.79v-2.2l7.18-7.28v-9.89Zm21.36,24.34-.57.92h9.72l.2-.92Zm12.57,0-.23.92h4.5l.15-.92Zm7.37,0-.15.92h16.7l-.25-.92Zm19.51,0,.26.92H99.9l-.37-.92Zm7.43,0,.33.92h7.64l-.64-.92Z"/><path id="path35-67-2-1-9" class="cls-2" d="M14,11.07v2.76h2.68s.06,2.67.09,8.32c0,5.48.13,8.21-.22,9.77-.94,3.6-6.16,3.62-7.2,1a10.57,10.57,0,0,1-.47-4.19H6s0,.76,0,1.69c0,4.05,1.36,6,4.5,6.76s7-.46,8.34-3.22c.8-1.57.7-1.68.72-11.18,0-6.34.11-9,.11-9h2.47V11.07Z"/><path id="path35-6-7-1-4" class="cls-2" d="M164.56,238.38v-2.76h-2.69s-.06-2.67-.08-8.32c0-5.49-.14-8.21.21-9.77.94-3.6,6.16-3.62,7.2-1a10.55,10.55,0,0,1,.47,4.19h2.88s0-.76,0-1.7c0-4.05-1.35-6-4.49-6.75s-7,.46-8.34,3.22c-.8,1.57-.71,1.68-.73,11.18,0,6.34-.11,9-.11,9h-2.47v2.76Z"/><path id="path1549" d="M58.6,20.18,73.73,38.3c3.15-1.13,19-2.94,28.58-.77,1.66,6.52,3.42,13.09,5.28,19,0,0-.6.7-1,1.14-6.08,7-1.77,13.81,3.8,16-1,2.09-11.68,7.28-18.19,6.67,0-.07-2-4.78-6.06-3.18-1.39.54-2,1.59-3,2.61-3.89-1.17-9-3.73-11.68-6.54,5,2.49,9.9,3.83,14.83,3.17C78,72.92,75.71,64.61,74.2,57.9c-.52,1.57-.75,5.72-2.12,6.58-.35.23-.42.16-.68-.72-1.94-5.08-8.91-1-5.87,4.11l-2.32,1.29v.38l-1.43.68-.3-.2c-6.64,3.21-13.14,6.55-19.91,9.62,0,0-3.6,6-6.89,8.35l-.13-20.28L24.8,58.9l0,4.82.7.74c.13,34,0,67.34,0,98.16l0,28.37L25,191l0,3.31.67.15-.09,4.67-.35,0,0,2.95.53.09v16.7l-.53.67v4.77l10.18-9.68v-11c8,1.51,16.65,7.29,16.65,7.29-1.42-9.22-11.18-16.82-16.79-18.33l0-21.84a35.38,35.38,0,0,1-6.23,2c-1,.15-1.41,0-1.9-.74-.35-.54-.36-1,0-2.14a1.47,1.47,0,0,0,0-1.18,3.48,3.48,0,0,1,0-2.36,2.22,2.22,0,0,0-.13-1.87c-.31-.75-.33-.89-.2-1.32.34-1.15.36-1.33.18-1.84a2.91,2.91,0,0,1,0-2.37c1.5-2.52,4.87-1.9,6.69-1.81.93,1,1.48,1.61,1.57.11.64-1.78,3.16.05,4.33.8,10-13.39,14.91-31.51,2.38-54.2l-7,5.58v-7C44,96.53,54.41,83,58.91,72.37c1.5,1.75,3.22,3.48,4.84,5.25l-1.06,1.77-.31-.18A127.76,127.76,0,0,1,51.6,94.93a157.27,157.27,0,0,1,7.63,16.2l.57-.25.51,1.64-1,.3c3.41,11.19,3.52,21.56,1,31.11l.6,2.54s3.61,3.5,4.58,4.53l5.37,5.21,3.3-3.23-.19-.27L102.78,124l1.8,1.72C86.9,143.57,56.2,174.33,56.2,174.33l-1.07.15a11.15,11.15,0,0,1-2.07.09,2.57,2.57,0,0,0-1.8.32A7.26,7.26,0,0,0,48.77,177a2.53,2.53,0,0,1-1.2.91c-6,3.59-.58,10.82,4.54,7a95.46,95.46,0,0,1,8.68,23.79,3.23,3.23,0,0,1-.67.29L46.63,229h5.19l.54-.92H48.47l12.41-17.94a100.61,100.61,0,0,0,45,2.36l12.8,15.58h-5.08l.73.92,6.57.1-15-17.76c-5.38,1.44-19.59,2.6-28.51,1.09-1.36-6.63-3.61-13.83-5.27-19.56,8.51-6.66,2.12-15.46-3.13-16.68-.26-.49,10.64-7.12,18.41-6.66,2.22,5.35,7.09,4.56,8.84.58,3.22,1.18,7.4,2.36,10.72,5a72.84,72.84,0,0,0-13.77-1.56c8,3.11,10.27,9.67,11.26,15.86a13.62,13.62,0,0,0,.73,2.35,22.12,22.12,0,0,1,2.58-6.45c.61,2.19,2.64,4.26,5.2,2.58,2.29-1.5,1.59-3.64,1.19-5.9l1.79-1,.23.2s2-.84,2.92-1.31c.16-.07-.17-.38-.17-.38l18-8.51a71,71,0,0,1,7.2-8.77c.08,7.55.06,10.66.06,19.62,3.7,3.24,7.14,7.05,10,9.16L154,59h-.15V56.46h.21V49.84l-.18-.11V47.65l.24-.18,0-17.84-.29-.05V25.3l-10,10.64V46c-3.28-.63-9.49-3.47-13.85-5.77-1.23-.75-1.92-1-1.88-.52.53,6,9.17,15.1,15.81,17.49V79.63s1.57-.78,2.53-1.18l.14.4,2.14-.89.17-.46,1.86-.24c0,.38.08.33.08.33,1.66.46,2.39,1.59,1.72,2.86-.23.42-.27,1-.08,1.18.71,1.13.9,2.13,0,3.2a1.14,1.14,0,0,0,0,1.44c.89,1.8.38,1.68-.29,2.76-.15.81.74,1.34.45,2.1a3.12,3.12,0,0,1-1,1.37c-.43.3-.77-.27-.77-.27a13.59,13.59,0,0,1-2.31.76c-.94.31-2.57.86-3.14-.41a5.49,5.49,0,0,1-.08-2.22L144,90.21l0,3.71c-.8.42-4-1.19-4-1.19-13.55,17.58-13.17,37.08-3.12,53.42.1.26,7.09-4.78,7.09-4.78s0,4.14,0,6.38a92.49,92.49,0,0,0-23.59,29.43l-3.8-4.5a2.71,2.71,0,0,0,.66-2.19l2.76-4.12,0-1.07,7.18-10c.11.6-7.4-13.47-8.4-18l.49-.14c-3.37-12.76-2.68-21.7-.24-32.12l-.7-.67-9.46-9.46L106.63,97c-.12.11-.7.05-.81.16-5,4.67-9.77,9.36-14.51,14.24-.12.12.08.64,0,.77-4.75,4.89-9.67,9.53-14.47,14.42L75,124.9c17-17,49.06-48.63,49.06-48.63a.52.52,0,0,1,.36-.26,10,10,0,0,0,2.57-.49c1.06-.24,1.23-.32,1.67-.78a9.71,9.71,0,0,1,1-.87c.46-.35,1.52-1.24,3.18-2.68,3.85-3.91.64-9.16-5.42-6.23a101.37,101.37,0,0,1-8.29-23.22c-.07-.46,0-.59.35-1.17l1.13-1.77c4.33-6.75,8.76-12.41,12.55-18.62h-5.35l-.66,1.06h4.4l-13.1,18.87c-24.16-7.9-43.95-2.89-44.43-2.78L61,21.24h6l-.73-1.06Zm11.75,0L71,21.24h6.26l-.35-1.06ZM80.8,21.24h3.86l-.22-1.06h-4Zm6.91-1.06L88,21.24h15.71l.28-1.06Zm19.2,1.06h3.93l.3-1.06h-4Zm7.79-1.06-.34,1.06h8.92l.67-1.06Zm38.14,7.29v2.92l-6.28,6.79v9.47l-1.95-.44V36.42ZM151,33.71c.05,2.9-.41,5.68.35,8.63a25.34,25.34,0,0,1,1.24,4.89l-2.12,0c-.27-.87-.37-1.83-.69-2.9a16.72,16.72,0,0,1-.84-8.21Zm-46.3,4.73c.08.14.33,1.37.57,2.5a108.23,108.23,0,0,0,4.13,15.58c1.93,5.94,4.8,13.41,7.58,16.88.37.43.55.92.42,1.14s-1.36-.15-2.13-1A12.75,12.75,0,0,1,114,71.51c-1-1.83-2.28-4.48-2.41-4.9,0-.17-.57-1.48-1.14-2.91a72.5,72.5,0,0,1-2.45-7c-.67-2.21-1.28-4.52-2-6.84a86.43,86.43,0,0,1-2.6-10.34,4.64,4.64,0,0,1-.2-1.23A1.53,1.53,0,0,1,104.74,38.44Zm.68.23c-.12-.1,1.11-.12,1.5.21a6.36,6.36,0,0,1,.5,1.79A128.8,128.8,0,0,0,112.14,58a66.3,66.3,0,0,0,5.35,12.32,25.52,25.52,0,0,0,2.7,3.76c.64.75.69.86.52,1.06s-.58.23-1.29-.11a9.69,9.69,0,0,1-2.85-3.1,80.06,80.06,0,0,1-6.7-15.68,114.62,114.62,0,0,1-4.41-16.92c0-.2,0-.41,0-.62Zm3.91.81A4.26,4.26,0,0,1,110,41.4c1.29,5.32,2.35,10.08,3.88,14.45.82,2.35,1.54,4.69,2.42,6.91a38,38,0,0,0,5.25,9.44,12.47,12.47,0,0,0,3,2.6c.74.44.85.55.8.81s-.79.32-1,.3A6.73,6.73,0,0,1,121,74.14c-3.57-3.85-6.12-10.16-8-15.34-3.19-8.91-5.76-20-5.27-19.7,0-.26,1.27,0,1.59.38Zm1.92.39c.67.18.76.27.92,1,1.14,5.09,2.35,9.57,3.69,13.84a79,79,0,0,0,5,12.74,14.1,14.1,0,0,0,5.85,6.4,13.69,13.69,0,0,1,1.25.68c.12.6-.4.6-.82.61a4.38,4.38,0,0,1-2.76-1c-2.81-1.94-5.26-6.32-6.34-8.8a97.93,97.93,0,0,1-3.62-9.62,107.55,107.55,0,0,1-4.09-15.43C110.28,39.66,110.58,39.8,111.25,39.87Zm41.61,10.06c-7.05.46-14.31-2.52-20.12-5.21,4.38,5.82,9,11,20.1,12v1.86c-14.39-.2-24.51-14.78-24-18.42,5.92,3.83,16.56,8.25,23.95,7.92,0,.6,0,1.2,0,1.81Zm-38.72-9.1c1.17,4.39,2,9.27,4,14.16,2.39,6,3.72,11.33,8.15,16.29,1.38,1.41,4.08,1.37,4.08,1.37s-.34.77-.8.89a4.89,4.89,0,0,1-2.33,0c-2.57-1.09-4.53-3.83-5.54-5.69-1-1.39-3.27-7.13-5.18-13-2.07-6.37-3.79-13-3.59-14.33A1.4,1.4,0,0,1,114.14,40.83Zm2,.58c.66.44.49,1.48.75,2.56a98.14,98.14,0,0,0,3.82,12,72.73,72.73,0,0,0,4.42,9.89,22.07,22.07,0,0,0,2.27,3.53c2.62,2.79,5.58.5,4.79-2-.36-1.11-2.52-1.29-2.63-.44a1.5,1.5,0,1,1,.91,2.85c-2.34.54-4-2.63-1.9-4.57,3.5-2.38,6.18.87,5.35,4a4.27,4.27,0,0,1-3.91,2.85c-2.29.07-3.23-.63-5.58-4-2.69-4.32-3.85-8.53-5.74-13.25a57.1,57.1,0,0,1-3.55-13.38c.19-.39.62-.12,1,0Zm1.56.55a1.45,1.45,0,0,1,1.11.46c3.15,11.51,5.78,18.4,8.46,23.27a3.46,3.46,0,0,1-.23,1.14c-.31.46-.47.35-.89-.37-1.68-3.26-3.28-6.86-4.77-10.57a61.42,61.42,0,0,1-4-13.19c-.1-.62-.21-.77.3-.74ZM139,48.53a.81.81,0,1,1-.8.81A.81.81,0,0,1,139,48.53Zm-65.47-.14c-.94,1.27-1.7,5.83-2.68,5.89s-2.37-.63-3.21.33c-1,1.18-.39,2.48.87,3.19a4.28,4.28,0,0,0,2.55.14c3.06-1,4.22-6,2.47-9.55Zm68.53,1.19a1.17,1.17,0,0,1,0,2.34,1.17,1.17,0,0,1,0-2.34Zm-68.48.56c1.72,3.46-2.1,9.81-5.45,7a1.54,1.54,0,0,1,1.15-2.65,2.36,2.36,0,0,1,1.57,1.05c1.06.11,2.28-5.29,2.73-5.38Zm72.54.64a1.32,1.32,0,1,1-1.31,1.32A1.32,1.32,0,0,1,146.11,50.78Zm4.66.93a1.35,1.35,0,1,1-1.34,1.34A1.35,1.35,0,0,1,150.77,51.71Zm-43.35,6.11c.2,0,.34.19.47.58.27.8.26.89-.16,1.43-4.13,5.91-.37,11.82,5.62,12.2.5,0,.76.61,1,1.27,0,.31,0,.31-1.39.34-8.84-.71-11.17-10.46-6.4-15.24C107,58,107.22,57.82,107.42,57.82Zm39.22.64V78.08l-2.09.77V58Zm3.88.75q3.9,9.71.37,17.79l-2.38.34c3.26-7.59,1.87-13,0-18.28ZM25.68,60.29l8.45,8,.29,88.91-1.34-.48-.54-87.45-6.86-6.42Zm83.19,1.11a1.27,1.27,0,0,1,0,1.29c-1.16,2.84-.21,5.55,2.65,6.4.68.22.79.33,1.19,1.17.26.55.38.75.28.87-2,.28-4.81-1.58-5.59-3.44-1-2.47-1-5,.85-7.17C108.47,60.52,108.68,60.86,108.87,61.4ZM75.08,64.05c-.22,1.38-2.18,3.59-3.89,4.39-1.59.61-4,.3-5-.75-3.64-4.27,3.16-8.56,4.87-4.12,1,2.92-3.15,3.61-3.34,1.37,0-.58.19-.76.73-1.13s.42-.63,0-.63a1.81,1.81,0,0,0-.91,2.95c1.43,1.48,3.19.62,4.4-.47,1.63-1.48,1.92-3.7,2.29-5.57a38.8,38.8,0,0,1,.84,4Zm34.48-.61c.08,0,1.75,4,2,4.57-.06.4-.5.37-1.24-.15A3,3,0,0,1,109,65.73C108.9,65.29,108.74,63.7,109.56,63.44ZM75.64,65.13c.36,0,.75,1.35.57,2-.3,1.2-3.44,3.23-5.64,3.64l-1.06.2A1.86,1.86,0,0,1,68,70.27c-.39-.4-.58-.79-.48-.89s1.09.1,1.94.09c2.41,0,4.26-1.7,5.69-3.75a1.66,1.66,0,0,1,.52-.59Zm-47.77,1s1.63,1.47,2.48,2.31c-.09,3.93-1.54,8.17-1.53,11.68,0,3,2,5.59,2.2,8.24a14.75,14.75,0,0,1-1.23,6.19,14,14,0,0,0-1.2,5.58c.1,4.33,3.21,9.07,2.12,13.35-1,4-2.2,6.35-1.89,8.49.6,4.12,2.79,7.78,2.21,11.21-.54,3.19-2,6.38-1.83,9.26.18,3.33,1.42,6.11,1.77,9.14a22,22,0,0,1-.33,5.06l-2.28.18c1.26-4.67-.61-8.89-1.33-13.39-.61-3.82,1.11-6.86,1.62-10.12a12.27,12.27,0,0,0-1-6.54c-2-4.77-1.27-7.87.16-12,1.77-4.42-.66-7.92-1.27-12.15a18,18,0,0,1,1.3-9.47c1-3.12,1.31-4.93-.21-7.93a10.1,10.1,0,0,1-1.22-5.51c.5-4.94,1.83-7.72,1.51-13.56Zm48.85,2c.36,0,.53.25.53.76,0,.92-1.37,2.09-3.8,3.23-1.27.6-2,.68-2.74.34s-.65-.62.1-.84A11.29,11.29,0,0,0,75.6,68.9a4,4,0,0,1,1.12-.8Zm-11,.64C72,75.46,78.14,78.92,82.85,80.53l-.74,1.76c-6.18-2.4-12.49-5.73-17.83-12.89Zm12.09,1.09a2.22,2.22,0,0,1,.81,1,2.78,2.78,0,0,1-.52.9,4.89,4.89,0,0,1-1.82,1.37c-1.41.77-2.26,1-2.87.64s-.4-.59,1.12-1.48a16.71,16.71,0,0,0,2.31-1.65A8.28,8.28,0,0,1,77.81,69.83Zm-16.62,1A38.19,38.19,0,0,0,80.73,85L79.5,86.69A44.75,44.75,0,0,1,59.09,72Zm18,.86c.26,0,.84.66.84,1a1.29,1.29,0,0,1-.25.58A12.83,12.83,0,0,1,77.4,75a1.29,1.29,0,0,1-1.35,0c-.62-.31-.52-.57.49-1.22a14.06,14.06,0,0,0,1.66-1.31,3.58,3.58,0,0,1,.94-.73Zm-20.68.52c-.15.18-7.57,17.19-23.29,29.25l-.07-2.82c8.7-6.92,15-16.38,19.81-24.64Zm22.17,1.22c.24,0,.41.15.57.47s0,.72-.89,1.38a1.61,1.61,0,0,1-1.21.49c-1.17,0-1.14-.3.14-1.45.67-.6,1.09-.88,1.39-.89Zm30.36.84,3.28.25c.88.61-12.81,9.58-22.3,8.78l.25-2.15C100.55,81.39,111.22,74.66,111,74.27Zm-28.11.84c.75.42,1.69.92,1.46,1.08A6.75,6.75,0,0,1,81.25,76c-.38-.21-.36-.32.17-.91S82.18,74.72,82.88,75.11Zm-29.21-.54c-5.2,9.17-11.38,17.54-18.54,23L35,92.71c6.81-5.24,12-14.83,12-14.87Zm65.05.59,1.58.93c-9.9,9.17-20.6,13.12-30.87,12.13l.82-1.86c16.68,1.32,27.76-11,28.47-11.2Zm2.4.32s.53-.06.48,0a77.76,77.76,0,0,1-10.76,8.58c-14,14.39-26,25.75-38.19,38.57l-2-2,1.77-1.87c0-3.81,4.75-8,7.2-11.09,1.51-1.92,3.75-5.12,2.89-6.23,4.24-.85,5.25-4.29,5.34-7.33a19.8,19.8,0,0,1,1.15-5.55C108.24,90.11,120.59,76,121.12,75.48ZM87.7,77.61a3.85,3.85,0,0,1,3.81,4.15c0,1-.38,1.8-1.76,4.5-1.34,2.31-1.52,3.72-2,6.39l-1.37-1.23-2.48,2.24,0-3.26s.85-1.09,2.24-2.64c1.75-2,3.34-4.46,3.27-5.87a2,2,0,0,0-3.06-1.63c-1.32.92-1.93,2.6-2.71,7.6-.14.88-.27,1.92-.34,2.15a12.93,12.93,0,0,1-2.11,2.43,30.71,30.71,0,0,1-.91-3.67l-1.94.32a25.57,25.57,0,0,0,5.11-8.44c1-1.89,2.36-3,4.25-3Zm-42,.77s-3.84,8-10.6,13.2l0-3.13a33,33,0,0,0,6.91-8.28Zm92.56.21c-13.35,13.83-30.77,39.3-9.15,75.08l2.86-3.3c-17.41-32.36-5.08-49.13,6.38-66ZM66.05,79.73C70,82.51,74,85.27,79.31,87c-.28.94-7.53,7-2.33,12.7.22.29-.33,1-1.18,2-2.49,3.4-5,5.82-7,9.65l-.08,7.19-2.08-1.83Zm71.67.66.09,4.1c-19.84,24.12-17.61,45.84-6.39,65.85l-2.15,2.18c-18.38-31.65-6.91-55.51,8.45-72.13ZM88.79,82.82c-.88,2.31-4.7,6.27-4.7,6.27s.5-3.86.82-5.08a7.66,7.66,0,0,1,1.34-2.78C87.79,79.53,89.33,81.46,88.79,82.82ZM62.47,80.65,62.84,113l-2.79-2.82-.41-24.71ZM58.7,87l.56,22a132.91,132.91,0,0,0-6.77-13.71Zm22,6.87c.88-.86,1.53-1.56,2.51-2.52.1,1.29,0,2.27,0,3.63a35.69,35.69,0,0,0,3.24-2.71,6.77,6.77,0,0,1,1,2.87,6,6,0,0,1-3.84,5.76,6.1,6.1,0,0,1-6.28-10.12,10.83,10.83,0,0,1,2.41-1.21s.63,2.94,1,4.3Zm65.87.16c-.2,31.42,0,87.05,0,87.05l6.28,5.93v2.59l-8.37-7.66s-.45-65.58,0-90.38c.66,2,1.17,2.25,2.1,2.47Zm4.17-1c.23,3-.29,6.24.23,9.37,1.82,4.65,1.91,9,.46,12-1.3,3.77-.76,7.4.43,11.21,1.59,5.55-1.5,9.7-1.29,14.31,1.79,7.14,2.21,13,.77,16.67a12.08,12.08,0,0,0-.18,8.48c1.73,4.28,2.12,7.79.51,11.85-1,2.44-.36,4.94,0,7.68l-2.52-2.15a9.34,9.34,0,0,1,.21-6.29c1.92-3.89.89-6.56-.5-10.59a10.78,10.78,0,0,1,0-7.92c1.89-4.45,1.14-9.56.21-13a17.13,17.13,0,0,1-.65-4.83,21.92,21.92,0,0,1,.84-6.07,14,14,0,0,0-.27-9.06c-1.15-3.7-1.43-7.22.13-10.45a11.28,11.28,0,0,0,.44-7.84,37.53,37.53,0,0,1-1.22-12.7Zm-7.07,1.73c-.22,21.53,0,46.18,0,46.18s-6.38,4.47-6.35,4.24c-8.22-13.56-11.35-33.52,3-51.53a19.57,19.57,0,0,0,3.34,1.11Zm-97,5.13c11.63,21.72,13.14,43.66-6.08,66.18a11.75,11.75,0,0,1,.21,5.66c3.75-2.92,33.8-33,8.49-74.78ZM106,98.05l5.71.34.38,4.91-1.84,1.83a19.11,19.11,0,0,0-.35-4,33.32,33.32,0,0,0-.37,4.85,6.56,6.56,0,0,1-1.39,1.31c-.3-.51-.22-2.92-.56-3.84-.29,1.63-.14,3-.36,4.78a3.75,3.75,0,0,1-1.51,1.35c-.36-.76,0-1.58-.61-3.61a24.41,24.41,0,0,0-.32,4.82c-.24.44-1.36,1.39-1.56,1.31-.53-1.27-.27-2.48-.49-3.68-.47,1.59-.23,2.68-.25,4.66a7.48,7.48,0,0,1-1.7,1.68c-.33-1.27-.18-3.32-.48-4.19-.42,1.66-.08,3.14-.26,5a20.8,20.8,0,0,1-1.7,1.79L98.09,112l-6-.26A11.62,11.62,0,0,1,93.87,110c1.67-.29,2.9.08,4.85-.22a20.36,20.36,0,0,0-4-.55c.5-.53,1-1,1.52-1.55,1.47,0,3.37.3,4.6-.17a15.66,15.66,0,0,0-3.73-.56l1.65-1.67a32,32,0,0,0,5-.35c-1.31-.22-4.17-.61-4.17-.61s1-1.08,1.72-1.71a14,14,0,0,0,4.44-.18,11.19,11.19,0,0,0-3.83-.34,18.67,18.67,0,0,1,1.76-1.8c1.44,0,2.88,0,4.33-.09a15.2,15.2,0,0,0-3.56-.61L106,98.05Zm-56.54.06c16,26.11,10.21,54.33-7.6,71.89l-.52-3.43c16.81-20.46,19.75-41.58,6.15-66.44Zm29.71,3.51c-2.87,4.32-7.25,8.57-8.91,12.1-.34.39-.45,1.29-1,1.46-.26,0-.35-.49-.29-1.65a4.16,4.16,0,0,1,.55-2c2.27-4.14,4.89-7.11,7.79-11Zm.67.42,2.65.17c-1,3.53-4.33,6.83-6.65,9.49s-3.67,5.61-3.56,6.86a20.31,20.31,0,0,1-1.81,1.74l-1.54-1.42C70.05,113,75.61,107.59,79.82,102Zm32.43,2.39c1.9.17,3.72.29,5.74.53a10,10,0,0,1,.31,1.14l-1.11,5c-.56-.56-.78-2.31-.89-3.18a18.2,18.2,0,0,0-.15,3.95,7.59,7.59,0,0,1-1.47,1.74c-.18.13-.4-2.27-.58-3.65-.77,1.32-.33,2.75-.32,4.63a7.38,7.38,0,0,1-1.59,1.42c0-1.26-.19-3.33-.64-3.67-.1,1.59,0,2.94-.09,4.58a4.84,4.84,0,0,1-1.51,1.51c-.54-1.1-.36-2.3-.61-3.35a13.62,13.62,0,0,0-.26,4.24,9.33,9.33,0,0,1-1.59,1.44c-.35-.81,0-2-.55-2.92a34.37,34.37,0,0,0-.34,3.89,7.53,7.53,0,0,1-1.44,1.53,20.25,20.25,0,0,1-.37-4.85c-2.06-.19-3.79-.19-6-.34a15.72,15.72,0,0,1,1.79-1.87s4.09.36,4.51-.19c-1.2-.15-3.7-.56-3.7-.56a9,9,0,0,1,1.21-1.36,41,41,0,0,0,5-.16c-.6-.51-3.81-.7-3.81-.7a6,6,0,0,1,1.38-1.5c1.63.07,3.67.13,4.67-.37-1.1-.45-2.43-.24-3.68-.59a6.06,6.06,0,0,1,1.33-1.55,13.16,13.16,0,0,0,4.8-.29c-1.27-.43-2.59-.15-3.69-.65a6.67,6.67,0,0,1,1.34-1.53,18.22,18.22,0,0,0,4.55,0c-.87-.67-2.52-.4-3.51-.83a5.2,5.2,0,0,1,1.29-1.46Zm-70.56,1.08C52.17,124.3,50.6,142,39.44,157.06a10.17,10.17,0,0,0-4.11-1.31l-.28-45.36Zm75.17,7.27a15.39,15.39,0,0,1-.26,2.78,8.15,8.15,0,0,1-2.15-.34,6.94,6.94,0,0,1,2.41-2.44Zm-56.47.92s1.38,0,2.07,0c0,0,.11,3.52.39,5.55l4.49.21-1.74,1.82-3.41-.11c-.6-2.52-1-5.05-1.8-7.48Zm53.55,2.12a16.17,16.17,0,0,1,2.48.47c0,2.47-.34,5.19-.06,8.94a7,7,0,0,0-.58.64,37.26,37.26,0,0,0-.53-3.79,32.41,32.41,0,0,0-.11,4.47,6.27,6.27,0,0,1-1.1.9c-.45-.75-.24-2.26-.9-3.11a38.73,38.73,0,0,0,.18,4,8.24,8.24,0,0,1-1.76,1.6,17.85,17.85,0,0,0-.67-5.12s-1.09-.09-2.21-.14a24.14,24.14,0,0,1-3.24-.34l1.5-1.55s4,.63,4.45,0a15.71,15.71,0,0,1-3.68-.83,7,7,0,0,1,1.26-1.47c1.34.42,4.39.45,4.13.14a12.5,12.5,0,0,1-3.13-1,5.17,5.17,0,0,1,1.19-1.38c1.49,0,3.68.61,4.28.08-1-.41-2.54-.54-3.35-.89a12.79,12.79,0,0,1,1.85-1.62Zm-46,4.23a9.58,9.58,0,0,1,.29,2.7c0,2.12.12,2.79.12,2.79a39.32,39.32,0,0,1,5.11.57c-.64.66-1.15,1-1.56,1.39a40.44,40.44,0,0,0-4.13-.06c.82.63,2.45.42,3.58.89A5.6,5.6,0,0,1,70,129.72a21.5,21.5,0,0,0-4.58.08,19.87,19.87,0,0,0,3.65.61,6.67,6.67,0,0,1-1.65,1.83c-1.48.27-3.18-.14-3.82.28a8.52,8.52,0,0,1,2.84.69,4.27,4.27,0,0,1-1.54,1.6,2.74,2.74,0,0,1-2.43-.26c.24-3.1.24-6.1.24-9.6l.61-.43a16.43,16.43,0,0,0,.71,4,32.15,32.15,0,0,0,0-4.5,5.61,5.61,0,0,0,1.38-1.46,17.43,17.43,0,0,0,.54,3.83,17.55,17.55,0,0,0,.37-4.7A17.69,17.69,0,0,1,68,120.05Zm-5.63,1.77a17.64,17.64,0,0,1,2.53,0,8.48,8.48,0,0,1-2.2,2.19A6.36,6.36,0,0,1,62.32,121.82ZM116.48,126l.41,2.86-3.12-.21Zm-42.09.37c.52,2.18.34,3.2.65,5.72,1,.24,3.73-.23,5,.52a19,19,0,0,1-1.33,1.54,15.52,15.52,0,0,0-4.59.16c1,.64,2.52.12,3.73.55-.48.66-.92,1.09-1.49,1.75a20.28,20.28,0,0,0-4.86,0c.72.77,2.73.46,3.86.85a6.52,6.52,0,0,1-1.22,1.42,25.38,25.38,0,0,0-4.85,0,14.55,14.55,0,0,0,3.76.82,7.21,7.21,0,0,1-1.61,1.67c-1.43,0-3.07-.09-4.56,0,.55.72,2.7.51,3.77.9A4.17,4.17,0,0,1,69.22,144a13.92,13.92,0,0,0-4.49-.07,16,16,0,0,1,3.73.83,5.67,5.67,0,0,1-1.7,1.64l-5.63-.5a9.06,9.06,0,0,1,.28-3.74c.51-2.47.91-3.08,1-2.56a7.37,7.37,0,0,0,.68,2.74,16,16,0,0,0-.23-3.88,10.72,10.72,0,0,1,1.53-1.84s.59,3.06.82,3.56a15.35,15.35,0,0,0-.09-4.25,10.59,10.59,0,0,1,1.74-1.61s.5,3.09.75,3.7a40.45,40.45,0,0,0-.06-4.45,14.35,14.35,0,0,1,1.89-2c.63,1.16.33,2.28.61,3.6.49-1.29.21-2.88.16-4.51.55-.55,1.09-1.09,1.67-1.61,0,0,.64,4.82.78,3.33,0-1-.09-2-.12-2.87s0-1.2.28-1.57a12.16,12.16,0,0,1,1.61-1.51ZM107,128.26s1.26,1.07,1.26,1.38c-2,2.59-2.58,2.8-2.68,4.13a14.58,14.58,0,0,1-2,4.21,113.56,113.56,0,0,0-7.34,9.56c-.2.88-.26,1.46-1.07,1.88a6.49,6.49,0,0,0-1,.64A6.7,6.7,0,0,0,91.63,154c-.2.87-.32,1.66-.68,4.37-.15,1.12-.63,3.06-.63,3.06-7.48-.11-14.48,1.19-20.72,4.71Zm10,1.15,1.67,7.56-1.72,0-.17-5.49-5.35-.51,2-1.77Zm-8.11.69c.46.47,1,1,1.44,1.49-1.43,4.78-6,11-10.45,17.14l-3.3-.36a94.81,94.81,0,0,1,6.78-9,17.48,17.48,0,0,0,3.28-6.92c.78-.94,2.25-2.31,2.25-2.32Zm1.77,1.68,2.5,2.52.6,35.81a45.85,45.85,0,0,0-13.2-7l.84-1.92.93-1c3.29-3.56,2.56-7.39.06-10.1,3-4.44,5.8-7.75,8.12-12.09a42.17,42.17,0,0,1,.15-6.26Zm-29.33,6.95a20.54,20.54,0,0,0,2.51.15c2.18.07,2.64.13,2.64.36a9,9,0,0,1-1.25,1.38c-1.41-.05-2.84,0-4.24,0,.51.56,3.53.74,3.53.74-.7.71-1.06,1-1.88,1.84a19.77,19.77,0,0,0-4.35.18,23,23,0,0,0,3.77.54s-1.07,1.08-1.6,1.64a16.53,16.53,0,0,0-4.68.05c1.25.23,3.56.73,3.56.73L77.71,148a13,13,0,0,0-4,0,24.85,24.85,0,0,0,3.36.72,14.44,14.44,0,0,1-1.3,1.41c-1.71.14-2.81-.14-4.36.29,1,.42,2.28.14,3.38.58.17.17-1.45,1.71-1.45,1.71l-5.41-.07-.5-5.73a11.45,11.45,0,0,0,1.4-1.37c.67,1.14.69,3.07,1,3.78a38.5,38.5,0,0,0-.16-4.5c0-.3,1.23-1.59,1.47-1.54.48,1,.15,2,.89,3.34a20.64,20.64,0,0,0-.13-4.26,6.14,6.14,0,0,1,1.5-1.51c.4,1.86.19,3.34.87,3.88a39.66,39.66,0,0,0,0-4.86,10.44,10.44,0,0,1,1.47-1.36c.58,1.11.28,2.72,1,3.63a34.54,34.54,0,0,0-.22-4.47A11.21,11.21,0,0,1,78.25,136c.53,1.32.23,2.93.82,3.85.14-1.58,0-3.2.13-4.62a13.66,13.66,0,0,1,1.6-1.95,15.21,15.21,0,0,1,.47,5.45ZM110,134.3l0,3.5c-1.4,3-4.64,7.4-7.92,12.12l-1.72-.93A93.06,93.06,0,0,0,110,134.3Zm-46,1.32a8.05,8.05,0,0,1-1.63,1.66c0-.7.17-1.9.15-1.89Zm52.64,2.3,2.42,2.39.61,25.64-2.55,4.16Zm3,3.38a95.78,95.78,0,0,0,7,13.87l-6.48,9.15ZM103.92,154a5.77,5.77,0,0,1-3.09,6.63,4.86,4.86,0,0,1-1.28.31c-.28-1.66-.16-3.26-.54-4.94a33.28,33.28,0,0,1-2.64,2.75s0-2.39,0-3.51L93,158.8a6.19,6.19,0,0,1-.62-1.28,6.26,6.26,0,0,1,2.54-7.3c3.38-2.28,8.42.29,9,3.78Zm39.77-1.79c-5.4,4.19-13.1,13-19.7,24.52l-2.9,1.22c4.58-10.36,13.34-21.35,22.54-28.91,0,1.06,0,2.11.06,3.17Zm0,1,.06,4.67a71.19,71.19,0,0,0-12.5,15.41c-2.11,1-6,2.93-6,2.93-.49-.12,10.61-17.41,18.44-23Zm-48,3.83a5.93,5.93,0,0,1-.74,3.75c-1.75,2.06-4.52,4.86-4.9,7.47-.19,1.39.9,2.7,2,2.56,3.31-.41,3.67-6.31,4-9.22a8.54,8.54,0,0,1,.29-1.55,12.7,12.7,0,0,1,2.39-2.47l.41,4.51,1.87-.63c-5.27,7.17-3.76,7.62-6.54,10.56-2.58,2.72-7.59-.38-6.31-4.53,1.11-2.79,2.84-5.59,3.3-8.58.13-.89.2-1.51.2-1.51l1.2,2.5A35.67,35.67,0,0,1,95.69,157Zm48.19,1.71V162a67.42,67.42,0,0,0-7.09,8.72l-4,1.82c2.61-5,6.88-9.6,11.09-13.76Zm-48.72,2.84a12.05,12.05,0,0,1-.32,4.23c-.27,1.3-1.52,5.08-3.48,4.18-1.68-1.47.36-4.21,1.39-5.5.79-.93,1.65-1.94,2.41-2.91Zm-5.25.39-1.08,2.33c-9.77,0-19.26,3.53-27.71,10.67l-2.13-.7A43.3,43.3,0,0,1,89.91,162Zm10.27,1.79c11,3.69,16.1,9.07,20.26,14.71l-1.74.9c-4.37-5.65-9.75-10.82-19.78-13.81Zm-12.61,3.48-.47,2c-6.16.19-12.67,2.38-19,6.78l-2.29-.37A38.81,38.81,0,0,1,87.57,167.24Zm28.18,13.47-2,.92C108,174.06,102.68,171.9,96.68,170l.65-1.68a31.59,31.59,0,0,1,18.42,12.42Zm-81.37-8.93V192l-1.44-.28V172.16Zm-3.26,1.09c-2.68,10.06-.6,12.66.37,18.53L29.27,191a26.83,26.83,0,0,1-.56-17.66Zm67.48,1.55c.17.16-.13.65-.55.9s-.31.2-1,0-1.41-.82-1.41-1a15.49,15.49,0,0,1,2.91.17Zm1.9.14c.36.05,1.43,0,1.49.36s-.39.52-1.24,1.1c-1.3.89-1.74,1.06-2.12.64s-.25-.81.35-1.37a2,2,0,0,1,1.52-.73Zm-44.23.22a4.9,4.9,0,0,1,2.87,2c.82,1.28,1.75,2.58,2.5,3.87a53.64,53.64,0,0,1,4.15,8.93,118.79,118.79,0,0,1,6,21.18c0,.59-.53.58-1,.44a.85.85,0,0,1-.47-.33c-.6-1.7-.81-3.44-1.27-5.15a110.3,110.3,0,0,0-3.76-12.77,87.11,87.11,0,0,0-4.61-10.83,25.1,25.1,0,0,0-4.25-5.89,13.1,13.1,0,0,1-1-1c0-.29.29-.46.81-.46Zm47,.23c.69.17,2.35.37,1.72.92a13.21,13.21,0,0,0-4.33,2.86,2.62,2.62,0,0,1-.92-1.14C100.79,176.42,102.06,175.89,103.32,175ZM62,177c3,4.42,5.56,10.72,7.68,16.89a99,99,0,0,1,4.34,17.57c0,.14-.33.19-.66.19-.61,0-.7-.15-.85-.63a145,145,0,0,0-6.21-21.82,63.85,63.85,0,0,0-5.09-10.54A22.32,22.32,0,0,1,59,175.2c1-.63,2.53,1,3.06,1.84Zm-9.09-1.89c1.32,0,3.49,1.56,5,3.57,3.14,4.3,4.93,9.32,6.79,14.2a100.53,100.53,0,0,1,4.6,16.68c.16.7.42,1-.24,1.23a1.92,1.92,0,0,1-.89-.38c-2.47-9.7-5.25-20.26-9.66-28-4.73-7.56-6.1-5.46-6.86-6.79.06-.3.58-.51,1.29-.52ZM64.31,177c4,7.07,5.84,11.41,7.08,15.67,1.87,6.47,4.08,11.64,5.06,19.19a5.73,5.73,0,0,1-1.5-.15,4.6,4.6,0,0,1-.47-1.55,126,126,0,0,0-4.25-16.62,70.44,70.44,0,0,0-7.18-15.88c-.84-1.37-1-1.91-.48-1.93.91.06,1.32.76,1.74,1.27Zm42.28-.75a1.46,1.46,0,0,1,1.35.6c.17.27-.29.42-1.33.66a14.91,14.91,0,0,0-4.6,2.85c-.25,0-.86-.67-.86-1a8.65,8.65,0,0,1,5.44-3.16Zm-55.92.17c3.43.11,6.12,4.1,7.53,6.79.55,1.06,1.26,2.2,1.8,3.41a115.51,115.51,0,0,1,6.31,19.06c.56,2.4,1.2,4.17,1,4.64a1.24,1.24,0,0,1-1.16-.19,6.64,6.64,0,0,1-.58-1.71c-.8-2.57-2.13-9.94-5.59-17.67A54,54,0,0,0,55.31,181a7.88,7.88,0,0,0-4.82-3.47c-.87-.14-1.13,0-1.08-.51,0-.3.13-.38.6-.53a2.34,2.34,0,0,1,.66-.11Zm21.47,16c-.23,0-.44-.45-.6-1.19-.08-.36-.18-.62.5-1,4.26-4.54.59-11.2-4.76-11.78-.5-.07-1.14-.08-1.33-.15a5.9,5.9,0,0,1-1-1.5c7.4-1.8,15.26,8.81,7.17,15.66ZM109,177.56c.44.11,1.4,1,1.28,1.2s-1,.24-2.17.45c-2.55.45-3.64,2.11-4.82,3.34-.26.08-.5-.1-.73-.5a2.42,2.42,0,0,1-.32-.79c1.33-1.93,4.87-3.88,6.76-3.7Zm-60.1.57a6.92,6.92,0,0,1,5.55,2.76c4.44,6.65,9.43,21.44,10.63,28.74-.13.24-1.32-.12-1.32-.12.17-.09-5.25-20.09-10.48-27.36a4,4,0,0,0-5-2.13,2.24,2.24,0,0,0-.56,3.7,2.15,2.15,0,0,0,3.07-.48,1,1,0,0,0,0-1,.24.24,0,0,0-.38,0c.08,1.29-1.57,1.38-2.29.87-1.15-.86-.38-3.59,2.75-2.49a2.26,2.26,0,0,1,1,3.12,2.87,2.87,0,0,1-2.9,1.89,3.56,3.56,0,0,1-3.65-3.38,4.44,4.44,0,0,1,2.14-3.83,2,2,0,0,1,1.42-.38Zm18.33,1a6.49,6.49,0,0,1,4.91,10.16c-.71.89-1.15.73-1.45-.43-.15-.47-.32-.54.11-.91,2.46-2.35.44-6.94-3.62-7.12a6.15,6.15,0,0,1-.83-1.69,2.61,2.61,0,0,1,.88,0Zm43.8.42c.4.1,1.24.91,1.24,1.2s-.16.27-1.09.11c-2.21-.4-4.43.88-6.27,3.67-.9,1.68-1,1.52-1.48.08-.24-.75-.25-.73.69-2.1a7.54,7.54,0,0,1,6.91-3Zm2.06,2.84c1.84,1.68,1,5.38-1.52,5.76-2.2.26-4.15-2.12-2.77-3.75,2.45-2.48,4.25,1.59,2.12,1.94-.12,0-.22.14-.22.21,1.62.54,2-1.65,1.34-2.57a2.1,2.1,0,0,0-2.42-.85c-1.49.53-3,2.54-3.86,5.07-.24.71-.38,1.38-.49,1.54-.21.32-.19.31-.39.19a6.54,6.54,0,0,1-.48-2.25,8.3,8.3,0,0,1,.89-2.65c1.61-3,5.22-5,7.8-2.64Zm-45-.75c2.15.13,3.85,3.18,2.92,5.3-.29.39-.71.66-.9.41-.62-1.57-1.16-2.86-1.87-4.49-.34-.73-.59-1.23-.15-1.22Zm-14.61,1.77a88.38,88.38,0,0,1,6.19,14.18,78.17,78.17,0,0,1,3,10.79c.06.33.14.51,0,.65s-1.41-.36-1.41-.36c-2.48-9.55-4.67-16.59-8.85-23.73a2.37,2.37,0,0,1,.44-1.68c.14-.14.32-.16.59.15ZM26,191.61c11.58.78,20.53,5.67,25.32,18.57A50.06,50.06,0,0,0,26,201.72v-1.79c10.66-.09,21.16,5.47,20.94,5.38C43,197.13,33,193.81,26,193.6Zm79.32,4.7c.16,1.93.2,4.12.37,5.76a.53.53,0,0,0,.78.06c.7-1.95.9-4.36,2.06-6.13.25-.32.62-.22,1.67-.1,2.36.21,2.87-3,1.15-3.84C108.6,190.72,106,194.34,105.3,196.31Zm3.54-1.32c-1.68,1.39-1.73,3.39-2.25,5.23-.27,1.24-.66,1.89-.81,0-.26-2.82.23-7.37,4-8.06a1.74,1.74,0,0,1,1.95,2.52,2.07,2.07,0,0,1-2.87.29ZM29,195.82a1.51,1.51,0,1,1-1.51,1.51A1.52,1.52,0,0,1,29,195.82Zm4.81,1a1.35,1.35,0,1,1-1.35,1.34A1.35,1.35,0,0,1,33.84,196.86Zm4.38,1.48a1.1,1.1,0,1,1,0,2.2,1.1,1.1,0,0,1,0-2.2Zm3.11,2a.85.85,0,1,1-.85.85A.85.85,0,0,1,41.33,200.31ZM30.43,203a9.29,9.29,0,0,0,.31,4.48c.86,2.5.47,6.92.47,6.92L28.69,217A52.77,52.77,0,0,0,29,210.2c-.09-1.3-.68-2.53-.83-3.84a24.06,24.06,0,0,1,.07-3.65Zm4,.75v10.67L26,222.79v-2.2l7.18-7.28v-9.89Zm21.36,24.34-.57.92h9.72l.2-.92Zm12.57,0-.23.92h4.5l.15-.92Zm7.37,0-.15.92h16.7l-.25-.92Zm19.51,0,.26.92H99.9l-.37-.92Zm7.43,0,.33.92h7.64l-.64-.92Z"/></g></g></g></svg>