<svg xmlns="http://www.w3.org/2000/svg" viewBox="0 0 178.58 249.45"><defs><style>.cls-1{fill:#fff;}.cls-2{fill:#e2cf00;}.cls-3{fill:#d40000;}.cls-4{fill:#131f67;}</style></defs><g id="Layer_2" data-name="Layer 2"><g id="svg8"><g id="g7107"><path id="rect7166-7" class="cls-1" d="M8.54,0H170a8.53,8.53,0,0,1,8.54,8.53V240.92a8.53,8.53,0,0,1-8.54,8.53H8.54A8.53,8.53,0,0,1,0,240.92V8.53A8.53,8.53,0,0,1,8.54,0Z"/><path id="path6307-8" class="cls-2" d="M112.36,21s20.28,29.39,27.16,34.61c.51.24,9-1.39,9-1.39-4.35-10.43-7.14-21.22-4.32-33.32Zm11.27,46.49c-14,4-27.94,7.67-43.1,1.22L64,84.78c-.14.41,20,9.13,20.33,8.11-9.87,26.63,5.52,31.47,15.32,2.17,12.83-1.68,28.22-3.42,40.94-12.28A60.52,60.52,0,0,1,123.63,67.52Zm-84.1,4.74c-5.3-3.26-9.45,3.45-5.57,6.8-.45,2-.61,4.87,1.28,6.15,1.74,1.1,5,0,5.44,0,0,0,.09,3.52-.18,3.51-.51,0-2.4-1.63-3.57-2-4-1.19-9.55-2-9.45-1.76s-.94,1.34,3.47,4.12c1.63,1,6.81-.13,10.93,1.17,2.51.79,4.76,2.06,6.12,1.4,3.6-1,5-5.69,4.76-5.66-.12-.14-10.87,2.78-9.86,3.29l0-4.09c4.24.47,8.06-2.61,3.9-7.89,3.1-3.09-1.24-10.46-7.24-5ZM57.19,91c-10.43,10.53-31.74,30.3-31.74,30.3L25.68,136,46.5,154.68c1.65-19.82,12.88-38.32,23.58-47.58C71.07,104.29,59.45,91.93,57.19,91Zm74.27,3.64c-1.57,12.19-3,28.81-23.63,47.29,3.58,6.11,8.13,12.32,14.68,15.28.46,1.05,18.92-19.15,30.28-28.7l-.06-12.94Zm-93,2.62c-.05.26-.81,3.47-1,3.38,0,.18,2.11-.78,2.35-1.66s.69-1.81.72-2C40.08,93.68,39.19,96,38.49,97.21Zm-7.72,8.52a17.58,17.58,0,0,0-1.2,7.32c3.7,1.85,4.7-5.86,3.71-6.6A9.82,9.82,0,0,0,30.77,105.73Zm114.05,35.35c-.34,1.53-.27,2,.42,2.29,1.19.52,1.73-.11,2.69-2.61.57-1.49,1.08-3.74.62-4.63-2.27-1.58-3.46,3.78-3.73,5ZM80.23,154c-15.16,2.41-30.32,3.89-42.36,13.31,1.35-.16,15.94,13.57,16.7,15.51,22.3-10.92,43.95-2.68,43.95-2.68l16.32-15.76c.63-.3-17.75-7.89-21.21-9.17,12.51-33.77-7.31-28.69-13.4-1.21Zm59.67-3.85a12.07,12.07,0,0,0-2.26,2.56l.78,1.26,2-2.2Zm-14.28,14.2c2.1-1,9.56-4.57,9.88-3.73l-.16,3.63c-1.14-.38-8.5.84-4.24,8.46-2.69,6.06,3.29,9.18,7.48,5.18,8.77,3,7.6-5.79,5.79-7.21,1.42-2.22-.37-6.95-1.26-7,0,0,7.66,1.73,6.91.36a6.53,6.53,0,0,0-2.47-2.83c-2-1.32-5.41-.84-8.2-1.43-3-.62-4.9-1.69-7.41-1.84-3.78.35-7.31,3.67-6.32,6.38ZM40.29,192.93l-10.55,2.83a65.46,65.46,0,0,1,4.88,33.09l30.62.16Z"/><path id="path6309-7" class="cls-3" d="M67.78,228.9c-13.43-19.22-25.88-37.51-42.41-57.66,0,0,0-7.79.07-15.52l50.78,73Zm27.2-31a78.9,78.9,0,0,0-2.24-11.78l9.27-8.76c-1,7.83-2.53,13.83-7,20.54Zm44.31-27.62c2.08,2.76-1.42,4.3-2.75,3.07C133.86,170.81,137.79,168.24,139.29,170.24Zm-91.92-17.4c-1.54,1,2.76-24.09,14.57-37C69.13,136.42,56.45,148,47.37,152.84Zm58.27-.09-7.85-2.12,3.7-11s7.57,1.73,7,4a84.59,84.59,0,0,1-2.8,9.11Zm-36.32-4.23a66.56,66.56,0,0,0,5.22-11.31l7.86-.16-4,10.9Zm47.28-15.43c-6.07-12.12,1.08-31.3,14.29-36.58A58.32,58.32,0,0,1,116.6,133.09Zm-40.8-3.44A63.52,63.52,0,0,0,75,116.83a152.43,152.43,0,0,0,27.61,3.69l1,11.61A126.47,126.47,0,0,0,75.8,129.65Zm20-17.68a59.92,59.92,0,0,1,3.6-10.52L109,101c0-.18-4.08,6.39-5,11.13-1.52-.16-8.12-.16-8.12-.16ZM77.71,109.1c-2.79-1-6.61-1.26-8.09-3.43l2.9-9.23,8.6,2.65Zm24.15-88L108.6,21S141,62.54,153.14,78.71c-.41,1.65.13,15.6.13,15.6C136.07,70.05,101.86,21.06,101.86,21.06ZM39.3,79.66c-2.87-2.9,1.61-5.2,3.25-3C43.87,78.45,41.06,81.43,39.3,79.66Zm36.78-7.44c.11-9.63,6.92-21.06,6.85-20.76-.08,0,1,9.41,2.28,12.38C84.85,64.36,76.4,72.82,76.08,72.22Z"/><path id="path6311-0" class="cls-4" d="M24,19.46V230H154.6V19.46Zm1.63,1.6H83.08s.06.83-.08,4.41c-.25,7.27-.55,14.89-.08,22.3a67.06,67.06,0,0,0,.4,7.64c.36,2.47.51,5.14,1.67,7.44.46,1.25.48,1.15-1.29,2.79a7,7,0,0,0-1.57,1.8s0,.24.1.14.72-.71.79-.79c.48-.57,1.28.16,4,.93A7.29,7.29,0,0,1,88.9,68.8c4.08,3.44,9.82,2.37,14.11.49a9,9,0,0,1,3.48-.82,68.17,68.17,0,0,0,15-4l.94,1.55a.64.64,0,0,1,.61.33c4.17,7.89,17.78,16.91,17.54,16.49l-8.9,4.94c.69.85,1.48,1.76,2.32,2.71l.14,0,0,.19c7.17,8,18.87,18.71,18.87,18.71V129a131.58,131.58,0,0,0-11.4,10.41c-1,1-1.71,1.57-1.33,1.59.91-.14,1.69.76,2.43,1.38.47.52.35.47-.19,1.19-.38.5-.52.65-.52,1a1.77,1.77,0,0,1-.61,1.7,2.45,2.45,0,0,0-.68,1.37,2.39,2.39,0,0,1-.46,1.46c-.67.14-.73,1.12-.61,1.56a1.41,1.41,0,0,1,.44,1.29c-1.34,1.46-2.75,2.72-1.85.69a6,6,0,0,0,.55-1.39s-.65.67-1,1c-.52.48-.71.2-.73-1.29a10,10,0,0,0-.72-3c-.11-.16-.13.13-.08,1.21a6.32,6.32,0,0,1-.27,3.27c-.67,1.92-1.15,2.19-.05,2.13s1.92-.08,2.37.55a2.21,2.21,0,0,0,.78.78,8,8,0,0,1,2,1.51c1.54,1.68,1.1,3.18-1.88,2.16-1.57-.54-.54-1.21,1.14-1.06,1,.1,1.22-.28.32-.56-1.67-.31-1.94-.49-3,.82a10.72,10.72,0,0,1-8.45-5.16c-.52-.88-.68-1.11-.31-1.61-1.9.64-4.23,3.87-5.86,5.38-4.77-2.72-10.67-7.62-14-13.19a80.34,80.34,0,0,0-3.65,8.89l-7.49-2.1-.09.16,7.41,2.14-.73,2.48c-.07.27-1.22,3.09-1.22,3.09l11.57,5.41c-1,1.76-2.78,2.36-3.07,4.26l16-15.34a36.23,36.23,0,0,0,2.84,3.77c.72.66.94.82.1,1-3.77.56-6.69,3.42-5.67,7.26.16.42.49.27,1.21-.18,2.5-2.28,8.62-4.38,8.83-3.85l0,2.45c-6.59.09-5.91,4.95-5.43,7.55,0,.06-1.9,1.73-1.9,1.73a18.13,18.13,0,0,1,2,1.15c-.58,3.24,2.18,7.94,7.58,5.53.47.48.91,1,1.43,1.57A11,11,0,0,0,140,179c2.68,1.22,8.26-1.5,5.41-7.75l1.57-1.5-1.51-1a7.72,7.72,0,0,0-1.23-4.39,28.59,28.59,0,0,0,4.41.76c1.16.11,2.13.14,2-.57a13.32,13.32,0,0,0-.32-1.54c-.56-1.64-3.46-2.84-6.28-3-.46,0-.95,0-1-.13s.14-.55.45-.49a2.94,2.94,0,0,0,3.29-2.33,3.51,3.51,0,0,1,.82-1.22c.81-.88.87-.86.85-2.13A2.22,2.22,0,0,1,149,152a4.11,4.11,0,0,0,.5-3.08,2.52,2.52,0,0,1-.13-1.78c.47-1.46-.57-2.8-1.93-3.57-.8.57-2,.12-2.92-.31-.31-.16,1.06-8.11,3.89-7.4.47.29.66,1.67.63,1.7.13,0,.2-.82,0-1.36a1.25,1.25,0,0,0-1.48-.94,3.92,3.92,0,0,0-1.75,1.43c-1.32,1.68-1.33,2.76-1.77,4.56-.22.84-.24.79-1.41-.12-.84-.66-1.25-.87-1-1.26.13-.17.68-.72.68-.72L153,129.3v99.19H94.69l.41-13c1.08-8.93-.83-27.69-2.27-29.45,1.11-1.26,4.57-4.29,4.38-4.42l-.46-.28L94.92,183l-4.52-1.37a19.39,19.39,0,0,0-5.93-3.09c-3.33-.86-9.74,1.87-9.75,1.9a53.12,53.12,0,0,0-18.34,4.9,8.26,8.26,0,0,1-1.05-1.71c-5.28-7.37-10.48-11.5-17.57-16.54l9-5L25.45,139.8l-.19-18.11L56.11,92.12c.18-.51,9.84,6.84,13.44,12.82a71.85,71.85,0,0,1,3-8.45c.12-.26,6.14,2.23,7.93,2.34a.68.68,0,0,0,.48-.27l-8-2.59,1.63-4.67s.56-1.27-.08-1.48c-3.62-1.17-7-3.25-10.49-5,0,0,1.62-1.81,1.64-1.89s.68-1,.52-1.38c-1.76,1.72-16.15,15.1-16.15,15.1a7,7,0,0,0-2.46-4.51,6.56,6.56,0,0,0,2.65-1.3c2.11-1.54,3.26-4.29,3-5.9A44.94,44.94,0,0,1,46.9,86.8a8.09,8.09,0,0,0-3.6,1.6l-.12-2.57s3.41.6,5-1.69c1.36-2,.8-4.24.49-5.39,0-.26,0-.23.55-.77.43-.4,1.1-.92,1.1-.92s-1.76-.81-2.06-1.41c.48-4.75-3.31-6.59-6.51-5.74-.6.18-.89.29-1.6-.5-.1-.12-1-1-1-1s-.38.88-.57,1.26c-.63,1.24-.8.87-2.15.93-3.44.17-5,3-4.18,6.36.18.8.1.68-.42,1.69-.27.51-.71,1.17-.71,1.17s.63.35,1.06.54c.62.29.66.61.66,1.24a6.23,6.23,0,0,0,1.18,3.5,19.77,19.77,0,0,1-7.19-1c.38,3.75,3.14,5.15,6.52,5.7a2.91,2.91,0,0,1-.73.48,1.71,1.71,0,0,0-1.28,1.55,3,3,0,0,1-.85,1.51,2.28,2.28,0,0,0-.75,2.35,2.17,2.17,0,0,1-.54,1.5,2.81,2.81,0,0,0-.58,2.29,9,9,0,0,1,.11,2.26c-.15,1.56.41,2.15,1.12,3.24.46.72.36.73.25,1.25a28.4,28.4,0,0,1-.79,2.82c-.62,2.11-.64,3.71-.14,4.12a2.13,2.13,0,0,0,2,.31c3-.93,2.47-3.87,2.63-5.84.08-.51.26-.76.42-.73a9.45,9.45,0,0,0,2.89,2.19c-4,4.06-6.52,6.54-11.55,11Zm58.35,0h2.4c-.51,1-2.4,3.9-2.57,3.11Zm3.33,0h1.4a23.42,23.42,0,0,1-5.09,7.18l.06-2.09a18.76,18.76,0,0,0,3.63-5.09Zm2.41,0h1.38A3.43,3.43,0,0,1,91,22.17c-1,3.39-7.55,9.82-7.36,8.85l-.07-1.66c0,.08,4.88-4.78,6.17-8.3Zm2.37,0h1.51c4.94,8.6,13.78,11.62,16,12.2l1.29,1.89a28.16,28.16,0,0,1-18.62-12.9A3.12,3.12,0,0,1,92.07,21.06Zm2.56,0h1.6a23.2,23.2,0,0,0,11.28,9.17c.55.61,1.14,1.71,1.37,2C103.35,30.69,97.15,25.9,94.63,21.06Zm2.42,0h1.46c1.76,2.55,4.52,4.41,6.07,5.63.84.65,1.94,2,1.84,2.26C103,27.85,98.91,23.91,97.05,21.06Zm2.23,0h1.92c.82,1.19,1.56,2.15,2.42,3.37a1,1,0,0,1,.22.61c-.13.34-.52.09-1.59-.87a26.22,26.22,0,0,1-3-3.11Zm2.53,0h41.8c-1.06,11.66-1.25,20.67,4.79,32.76-1.09,1.15-9.3,1.47-11.89,2.83,0,.33.66.89.66.89,2.71-1.26,13.27-2.41,13.27-2.41-4.42-7.72-8.06-22.68-5.32-34.07H153V77.32s.09,10.69.32,16.8c-4.06-5.26-9.28-12.46-12.8-17.91-4.26-6-9-13.06-13.87-19.67-1.44-2.08-3.49-4.79-5.16-7.22-2.62-3.76-4.79-6.68-7.51-10.73-2.91-4.19-5.69-8-9.15-12.85C101.94,21.59,101.81,21.06,101.81,21.06ZM91.73,22.71l1,1.54a32.51,32.51,0,0,1-9.15,10l0-2c4.42-3.19,6.33-6.4,8.21-9.58Zm1.55,2.23h0a29.57,29.57,0,0,0,18.37,11.29A11.51,11.51,0,0,1,113,37.81c1,1.37,1,1.43,1.16,3.69a46,46,0,0,0,2.76,13.26c-.17.88-.32,1.32-2,3.56-6.87,9.3-21.52,18.1-28.73,6.09-2.4-3.85-2.64-11.23-2.79-15.83,0,0,0-.32.06-.41.18-.84.41-.7,1.72-.35,1.32.57,2.69.11,4.09-.27,1.59-.64,1.72-.15.19,1.29a9.07,9.07,0,0,0-1.11,1.22,9.38,9.38,0,0,0,1.35-.7c1.23-.94,1.52-.58,1.06.45-1.93,4.37-2.27,4.54.44,5.75a5,5,0,0,1,1.27.81c1.85,1.75,1.19.81.67,0-.8-1.26-.08-1.92,1.27-1.14a4.29,4.29,0,0,0,2.72.74c1.25-.41,1.63-1.78,1.26-3.29-.29-.83-2-2.3-1.61-.76a1.44,1.44,0,0,1,1,2.39c-.67.91-1.87.42-3.7-.8-1-.76-2.25-.37-2.2.57,0,.63-.86.49-1.44-.32-.33-.44-.11-1.73.5-3,3.81-7.68.6-15.12-6-13l-1.38.42,0-2.94a34.83,34.83,0,0,0,9.72-10.34Zm9,11.91a6.53,6.53,0,0,0-5.16,1.87c-1,1.2-.64,2.27,1.54,1.19a6.94,6.94,0,0,1,4-1c2.75-.1,5.22.78,8.28,2.65,2,1.25,2.31,1.34,1.77.56C111.56,39.92,106.64,37,102.3,36.85ZM86.24,38.94a6.09,6.09,0,0,1,1.56.14c1.91.48,3.74,1.74,3.42,2.26-.11.19-.23.23-.47.1A7.37,7.37,0,0,0,83.91,41c-.35.15-.55-.09-.55-.51C83.36,39.65,84.76,39,86.24,38.94ZM103.53,40a9.09,9.09,0,0,0-4.64,1.47c-1.14.59-1.53.91-2,.64-1.16-.63-.92-.13-.2,1.14.51.9.5,1.08.43,1.63s-.07.63.51,1.27a15.52,15.52,0,0,0,3.79,3.89,11.29,11.29,0,0,0,1.24.73c.16,0,.1-.13-.19-.41-2.09-2-3.73-3.81-1.61-3,2.47.8,4.82-.2,6.74-.86a11.74,11.74,0,0,1,1.82-.45c1.78,0,2.2-.74,1.06-1.87C108.07,41.48,105.92,40.07,103.53,40Zm0,.51A6.89,6.89,0,0,1,108,42.32c.8.73,1.22,1.14,1.14,1.33s-.7-.15-1.73-.69a9.24,9.24,0,0,0-7.32-.52c-2.27.66-1.6-.39.93-1.37a5.86,5.86,0,0,1,2.52-.52Zm-16.74.28a7.21,7.21,0,0,1,4.74,1.59c.85.72.23.89-1.14.33a6.45,6.45,0,0,0-5.51-.2,5.68,5.68,0,0,1-1.32.53.91.91,0,0,1-.16-1.15,5.25,5.25,0,0,1,3.39-1.1Zm28.58.6q.18,0,.6.6c.52.73.54,1.1.11,2.37-.53,1.56-.74,1.31-.87-.87C115.16,42.12,115.15,41.42,115.4,41.43Zm1.72,2.35c.19,0,.42.32.79,1,.26.51.2.66-.6,3-.34,1-.66,1.78-.67,1.78-.24.2-.21.18-.32,0-.57-.73-.53-2.16,0-3.88.38-1.3.58-2,.84-2ZM101.49,44a3.4,3.4,0,0,1,.45.08c0,3.49,2.66,2.79,3,.3,0,0,.67-.06.77.1.32.52-.42,2-1.53,2.51a2.49,2.49,0,0,1-2.57-.33,5.29,5.29,0,0,1-.64-2.19C101.11,44.12,101.3,44,101.49,44Zm-12.32.39c.22,0,.31.11.34.4A2.51,2.51,0,0,1,87,47.23a1.91,1.91,0,0,1-2.18-2.06c0-.83.72-.94.8-.28.23,1.9,1.85,2,2.59,1,.28-.41.22-1.42.7-1.49Zm10.71,0H100a.53.53,0,0,1,.57.4l.58,1.78c-.43.51-2-.52-2-1.3A.86.86,0,0,1,99.88,44.37Zm6.79.38a1.39,1.39,0,0,1,.49.12c1.49.47,1.53.7.26,1.16-1.52.55-1.62.62-1.26-.44C106.35,45,106.41,44.76,106.67,44.75Zm-15.81.17c1.1.07,1.2,1,.22,1.32-1.44.64-1.93.59-1.37-.35C90,45.22,90.29,44.93,90.86,44.92Zm-6.92.33a.77.77,0,0,1,.45.17,13.79,13.79,0,0,0,.67,1.41.92.92,0,0,1-1.12,0c-.69-.55-.57-1.52,0-1.53Zm34.76,1.09c.43,0,.87.68,1,1.19-1.5,1.93-1.27,5.54-1.61,6.63-.31.88-.4.12-1.24-2.18-.34-.92,1.36-5.53,1.75-5.63Zm1.53,2a1.76,1.76,0,0,1,.87,1.32,4.83,4.83,0,0,1-.28,1.46,39.76,39.76,0,0,0-.86,5.8c-.06.93-.06,1.77-.1,1.85-.45.89-1.4-1.5-1.32-3.4C118.84,53.84,119,48.53,120.23,48.32Zm1.39,2.15c.16,0,.39.1.73.57a2.27,2.27,0,0,1,.41.78,4.71,4.71,0,0,1-.24,2.1,26.54,26.54,0,0,0-.14,9.51c.1.69-.38.34-1.11-.86a6.43,6.43,0,0,1-.79-2.64,33.82,33.82,0,0,1,.65-8C121.25,51.19,121.34,50.54,121.62,50.47Zm1.87,2.39,1.21,1.46a44.23,44.23,0,0,0-.51,5.13A77.46,77.46,0,0,0,125,68c-.74-.83-1.09-1.32-1.9-2.37-.09,0-.79-7.16-.31-9.91a21.07,21.07,0,0,1,.69-2.84Zm1.89,2.89c.21,0,.46.22.79.68a2.13,2.13,0,0,1,.45,1.26c0,.37-.18.66-.18,1.32a57.89,57.89,0,0,0,1.17,11.29c.24,1.29-.23.76-1,0a4.31,4.31,0,0,1-1.08-2.09c-.08-.21-.82-7.51-.81-8.06a13.17,13.17,0,0,1,.35-4.08q.12-.26.3-.27Zm-8,.31c1.18,2.57,2.24,5.19,3.66,7.64,0,0-1.41.73-1.77.47-.59-1.62-2.73-6-2.77-6.72a9,9,0,0,1,.88-1.39ZM95.11,58.19a.75.75,0,0,0-.5.31c-.42.5-.92.29-1.94-.16-.52-.16-.44,0-1.31.5A2.31,2.31,0,0,1,90,59.2c-.58,0-.79-.21-.79.2A9.73,9.73,0,0,1,89,61.19c-.19.73-.35,1.05-.25,1.17.3.28.55.11,1.18-.5,1-1,1.74-.72,2.9-.34,1.32.43,1.59.58,2.8.16,1.71-.6,2.74-.6,3.42-.17,1.17.75,1.53.71,1-1.34-.15-.66-.16-1.68-.26-1.86s-.41.37-.72.58c-.59.41-.9.4-2.25,0-.6-.2-1.25-.73-1.79-.66Zm20.78.35c.13,0,.25,0,.36.23.52,1.23,2.59,5.33,2.53,5.79-.41.37-1,.63-1.27.31a38,38,0,0,1-2.18-5.05A1.13,1.13,0,0,1,115.89,58.54Zm11.49.07c.14,0,.45.29.68.59a2.59,2.59,0,0,1,.77,2.09,44.52,44.52,0,0,0,1.59,11.41c.2.66.59,1.46.55,1.57-.35.51-2-.85-2.46-2.93a59.4,59.4,0,0,1-1.28-7.17C127,61,127,58.78,127.38,58.61Zm-12.77,1.67c.13,0,.24.08.34.37.59,1.16,1.34,3.15,1.85,4.34.23.52-1,.93-1.22.75-.47-.35-.69-1.34-1-1.94-1-2.16-1.16-2.2-.62-2.87.21-.3.45-.63.65-.65Zm15.1,1.7c.09,0,.2.08.35.27a5.66,5.66,0,0,1,1.2,1.84,6.87,6.87,0,0,1,.07,1.42c.11,1.88.6,4.45,2,9.71a7.11,7.11,0,0,1,.3,1.29c-.14,1-1.55-.6-2-2.22a47.09,47.09,0,0,1-1.6-6.35c-.53-3.44-.82-6-.36-6Zm-16.77.17c.34.07.52.67.76,1.22,1.18,2.75,1.27,2.74.53,3s-.83.15-1.75-1.72c-.67-1.36-.8-1.54-.24-2a1.24,1.24,0,0,1,.54-.42.3.3,0,0,1,.16,0Zm-15.6.56c-.14,0-.53.3-.93.46a6.78,6.78,0,0,1-3.74.1c-1.87-.75-1.34.22.31.81,1.27.43,3.81.1,4.2-.7C97.42,63.12,97.51,62.71,97.34,62.71Zm13.86,1.35a.3.3,0,0,1,.29.1c1.05,1.62,1.37,2.27,1.19,2.4a1.77,1.77,0,0,1-1.34.31c-.43-.21-.8-1.21-1-2a1.45,1.45,0,0,1,.85-.81Zm-26,.78c.47,0,1.68,1.65,1.44,1.94-.07.16-.53,0-1.6-.29-.35-.13-1.16-.23-.9-.75A2.86,2.86,0,0,1,85.22,64.84Zm24.28.54a.2.2,0,0,1,.11,0,8.89,8.89,0,0,1,.76,1.7c-.11.29-.9.35-1.23.33a4.63,4.63,0,0,1-.45-1.29C108.79,65.92,109.21,65.42,109.5,65.38Zm22.69.13h0c.17,0,.46.3.89.92.81,1.16.7,1.08,1.28,3.86.66,3.16,1.46,5.4,2.26,8.63,0,.53-.21.39-.8,0-1-.59-1.29-1.25-1.59-3-.52-2.83-1.62-5.44-2.05-8.78-.22-1.1-.24-1.7,0-1.7ZM107.8,66.64c.57,0,.49.86.33,1-.42.37-1.57.26-1.77.28C105.92,67.23,107.42,66.66,107.8,66.64Zm27.3,3c.17,0,.62.66,1.46,1.85s.64,1,1.12,2.84c.69,2.6,1.83,4.48,2.49,6.87,0,.27-.33.24-.64.11a7.3,7.3,0,0,1-1.69-1.12c-.36-.39-.35-.88-1.41-4.51-.38-1.31-.47-1.65-1-3.64-.39-1.66-.57-2.42-.38-2.4Zm-88,7.77c2.76,5.09,1.73,7.35-4.2,8-.43-.06,0,2.61,0,3.8,3-1.7,6.57-2.1,9.89-3.17-.91,2.89-2.49,6.18-7.29,5.67-5.13-3.88-10.91-1.55-14.92-3.13a5.24,5.24,0,0,1-3-3.65c2.61.26,5.56.82,8.09.64-2.77-2.14-2-5.09-1.57-6.44-3.29-4-.53-8.68,4.17-7.62a9.84,9.84,0,0,1,1.44.58c5.37-4.68,9.78.67,7.46,5.27Zm91.7-2.48c.19,0,.6.48,1.43,1.64a75,75,0,0,1,4.57,6.85c-.11.6-2.68-.44-3.32-1.3a29.2,29.2,0,0,1-2.82-6.76C138.68,75.09,138.72,74.94,138.82,74.93ZM38.44,89.74c1.29.19,1.65.3,1.63.8S37,91,36.52,90.7s.1-.8.45-.93A3.64,3.64,0,0,1,38.44,89.74Zm88.48.62c-17.77,8.63-25,31.12-16,48.38l-1.25.91c-8.91-18.36-2.28-38,12.19-48,.58-.42,1.88-.74,2.48-1.14,0,0-5.9,1.35-7.9,2.13a4.9,4.9,0,0,0-2.88,1.8,40.5,40.5,0,0,0-4.5,6l-9.29.37v.34l9.12-.21c-9.39,15.5-7.08,30.25-1.29,40.57l.21.19a30.39,30.39,0,0,0,8.52-7.83c-5.27-17.06.39-30.47,15.16-38.12a7.92,7.92,0,0,0-.08-1.07l-1-1c-16.41,7.29-23,25.31-16.3,41.7l-1.1,1.2c-8.36-16.9.52-38,16.1-44.15l-.64-.62a33.63,33.63,0,0,0-16,45.25l-1.05.93c-9.44-18.8.46-39.85,16-47.12Zm-91.27,0s-.12,1,.23,1.35c.16.71-.1.64-.7.49-1.5-.36-.33.5.89,1.19s1,.65,0,1.32c-.7.45-.63.62-.54,1,.14.51.24.17.54-.1a2.22,2.22,0,0,1,1.65-.71c.82,0,.9.66.76,1.18-.33,1.08-1.44,1-2.35.75-1.48-.44-3.91-3-3.87-4.54s1.75-2,3.4-1.89Zm5.79,0h0a3.32,3.32,0,0,1,.89.29c.57.22,1.3.5,2.09.84a12.4,12.4,0,0,1,2.94,1.4,4.85,4.85,0,0,1,1.9,4.69L37.94,108.39l-1.25-.62c-1.9-1-2.36-1.49-1.3-2a1.66,1.66,0,0,0,.75-1.38c.1-.73.06-.61.5-.94.76-.59.8-.83.81-1.8a2.23,2.23,0,0,1,.3-1.34c.57-1.11.32-2,.78-3.07.62-.62.92-2.3,1.47-1.83s.34,1.36.37,1.76A3.13,3.13,0,0,1,41,96.8c.24,0,.47,0,.54.4a12.44,12.44,0,0,0,.16,3.18c.85,2.91.73,2.5.39.08a6.27,6.27,0,0,1,.33-3.59c.5-.87.53-1-.55-1.47-.4-.16-1.09-.44-1.23-.72a2.1,2.1,0,0,0-1.35-1c-1.63-.39-2.58-2-2.34-2.2s.81,0,1.22.06c1.49.06,1.8,0,2.46-.59.35-.3.51-.57.79-.59Zm78,2c-15.22,12.34-17.89,32.3-10.29,47.71l-1.32,1c-9.54-18.07-3.13-37.56,8.59-48.22ZM31.58,93.92c.27,0,.56.37,1.63,1.51a11.14,11.14,0,0,0,1.86,1.67c.89.43.7.25,0,1-.76.87-.34,1.59-1.25,1.16-2.36-1.12-4-4.4-2.49-5.19a.93.93,0,0,1,.3-.11ZM30.4,97.37l.18,0c.3.07.65.62,1,1A7.49,7.49,0,0,0,34,100.3c.83.37.85.46.27,1.11a1.93,1.93,0,0,0-.39.67c0,.16-.06.36-.24.39-.92.18-4-1.68-4.1-3C29.62,98.3,29.93,97.41,30.4,97.37Zm6.49.36c.53,0,.85.46.84,1.23,0,.53-.3.75-.91,1-1.3.49-2.1-.45-1.19-1.48a2,2,0,0,1,1.26-.73Zm-.79,3.13c1,0,1.26.84.54,1.55s-2,.68-2-.06a1.89,1.89,0,0,1,1.49-1.49Zm-6.09,1c.67.2,2.28,1.37,3,1.51,0,.39-.43.5.24,1.24.3.33.33.56.07.7-.82.44-3.62-.93-3.81-2.34-.09-.69.13-1.08.51-1.11Zm3.67,1.69c1,0,2.06.07,1.94.53s-.43,1.23-.87,1.06a2.07,2.07,0,0,1-.57-.44c-.52-.5-.66-1.16-.5-1.15Zm-3,2.31a3.13,3.13,0,0,1,2.66.76c.77,1.93-.24,6.14-2,6.56-.67.16-1.46.41-2-.8A50.18,50.18,0,0,1,30.67,105.85ZM70.85,107a1.9,1.9,0,0,0-.63.59c2.81,2.56,13,29.24-8.27,48.68l-4.52,1.36c20.46-16.1,17.05-39,11.53-48.83a1.45,1.45,0,0,0-.9.77c6.23,9.62,8.56,36.78-16,49.9l.11.12a1.68,1.68,0,0,0,.27.27c0-.35,11.07-3,10.29-3.1C73,147.61,82,125.89,70.85,107Zm-3.7,3.32c-.51.53-.56.46-.73.78,8.85,17.42.63,38.85-15.71,46.95l.6.62a36.41,36.41,0,0,0,15.84-48.35Zm-1.45,1.48c-.39.26-.44.26-.65.67,7.35,14.88,1.59,35.53-15.87,44l.66.68c20.35-11,22.24-31.82,15.86-45.35ZM64,113.54a22.09,22.09,0,0,1-2.08,2.21c2.2,1.67,7.42,26.28-14.69,37.17,0,.79-.67,1.48.79,2.43,16-7.27,23-26.6,16-41.81ZM144.34,144c.59,0,1.12.22,1.67.3,2,.25,3.28,1.71,2.39,2.59-.3.29-.7.13-2-.51-.59-.29-.69-.56-.81-1.22s-.3-.87-.5-.25-.42,1-1.1.84C142.08,145.25,142.8,143.94,144.34,144ZM143,146.47c1,.05.93.74.23,1.37s-1.11.6-1.48.22C141.1,147.41,142,146.42,143,146.47Zm2.44.44a3.86,3.86,0,0,1,2.39,1.09c1.15.95,1.41,3.25.36,3.65-.44.17-.51,0-1.45-.89a8,8,0,0,0-2-1.46c-1.37-.66-1.55-.91-.62-1.36a1.78,1.78,0,0,0,.57-.52c.23-.39.31-.51.74-.51ZM142,149.13a.84.84,0,0,1,.23,1.64c-.25.2-1-.09-1.09.13.06.39-.34.22-.41.08a.91.91,0,0,1-.17-.59,1.41,1.41,0,0,1,1.44-1.26Zm1.78.84H144a2.28,2.28,0,0,1,.81.32c2.32,1.27,3.46,3.27,2.67,4.39-.51.74-1.35.46-2-.59a6.5,6.5,0,0,0-2.4-1.89c-1.25-.64-1.27-.73-.37-1.16a1.8,1.8,0,0,0,.82-.74c.16-.28.21-.33.32-.33Zm-2.36,2.59c.43,0,.86.17,1,.61s-.93.9-1.8.91c-.45,0-1,.1-1.1-.22s.31-.83.49-1a2,2,0,0,1,1-.32,3,3,0,0,1,.43,0Zm2.1,1.06c.44.1.91.87,1.15,1.1,1.75,1.76,1.55,2.71.41,3.42-.78.49-2,.61-2.43.2-.67-.57-.65-1.24.08-1.45s.43-.42-.21-.58c-2.27-.65-3.67-1.86-1.2-1.6a2.23,2.23,0,0,0,1.77-.92.42.42,0,0,1,.43-.17ZM25.12,155.4l51.07,73.09H34.92c1.45-11.63-1.46-24.53-5.32-33a120.53,120.53,0,0,0,12.2-2.93L41,191.55a49.31,49.31,0,0,1-13.34,3.09c5.51,9.4,7.48,22.36,5.83,33.85H25.61V171.75Zm107.46,2.48c3.53,1.09,6.9,2.8,10.17,2.54a11.29,11.29,0,0,1,5.4,1.24c1.18.56,1.8,2.65,1.8,2.65-1.86,1-7.62-.77-7.62-.77,3.66,2.35,2.37,6.7,1.59,7.23,5.05,6.39-2.8,9.67-5.29,7.37-3.69,3.67-10,.6-7.58-5.46,0,0-4.63-8.87,4.5-8.27,0,0,.16-3.59-.1-3.75-3.06-.25-6.74,2.39-9.8,4-.91-4.77,3.64-6.07,6.93-6.8Zm-98.32,8.4a4,4,0,0,1,2.75,2.2,20.76,20.76,0,0,0,1,2.47c0,.2,1.78,3.42,1,3.14-1.55-2.12-4.32-5.71-5-7.47,0-.23,0-.33.23-.34Zm3.77,2a5,5,0,0,1,1.76,1.19,18.08,18.08,0,0,0,1.06,2.83c1.11,2.39,2.81,6.12,2.47,7.19-.12.35-.12.52-.16.5-.79-.93-1.54-2.25-2.28-3.22,0-.08,0-.13-.18-.86-.76-3.46-2-5.28-2.79-7.31C37.84,168.39,37.9,168.3,38,168.3ZM40.78,170c.15.1,2.17,1.53,2.38,1.74.72,2.56,3.59,10.77,2.85,12.24a6.72,6.72,0,0,1-1.51-2.21,27.3,27.3,0,0,0-2.91-9.68c-.37-.88-.67-1.76-.81-2.09Zm3.81,2.88a4.51,4.51,0,0,1,1.68,1.68,6.59,6.59,0,0,1,.62,2c.74,3.34,2.14,6.74,1.51,10.32-.39.53-1.25-.68-1.37-1.88a47.38,47.38,0,0,0-2.14-10.51c-.27-.9-.48-1.61-.3-1.64ZM47.85,176c.14,0,.42.26.89.71a2.65,2.65,0,0,1,1,2.59c0,2.09.73,4.48.83,6.6a28.29,28.29,0,0,1,.1,4.55c-.26.37-1.44-1-1.35-3a24.9,24.9,0,0,0-1-8.58c-.48-2-.73-2.81-.52-2.85h0Zm2.81,3c.34,0,1.16,1.22,1.54,2.3s.23,2.28.48,3.36a38.94,38.94,0,0,1,.38,8.54c-.08.56-.44.33-.93-.2-.71-.78-.61-.8-.61-2.95a68,68,0,0,0-.58-7.32,14.71,14.71,0,0,1-.41-3.63c0-.08.06-.11.13-.1Zm32,.35a12.08,12.08,0,0,1,1.47.09c3.69.59,6.64,3.11,8.32,7.26s2,10,2.29,15.28c0,1.27-.54,1-1.9.16s-1.81-.52-4,0c-1.36.31-1.24-.62,1-2.16.76-.49,1.64-1.16,1.35-1.26a2.27,2.27,0,0,0-1.32.53c-2.19,1.78-2.78,2.21-2.15.49.16-.44.67-1.65.88-2.23.79-2.17-.12-3.1-2.82-4.48-.68-.34-1.12-.91-.45.29.56,1-.58,1.77-2,.62a2.79,2.79,0,0,0-3.59.73,2.5,2.5,0,0,0,.93,3.35c1.07.46,1.47.13.43-.59-1.33-.92-1.07-2.48.42-2.48a10.53,10.53,0,0,1,2.67,1.31c1.18.64,2,.37,2-.58,0-.64.37-.59,1.15-.2,1,.51.93,1,.37,2.43-.37,1-.55,2.16-.9,3.21-.88,3.56-1,7.58,0,8.84,2.59,3.34,5.34,3,7.69.78l-.1,3.65c-2.4,1.93-5.2,3.25-9.53,10.41-1.51-1.9-8-9.67-18.37-11.43l-2.34-3.2c0-.2-1.74-11.92-2.91-15.91,0,0,1.29-2,2.45-3.4,4.37-5.4,11.57-11.53,18.94-11.5Zm-11.25,2.6c.37,0,.36.44-.82.82-.4.12-.53-.68-.31-.83a7,7,0,0,1,1.13,0Zm-2.62.2a.43.43,0,0,1,.44.15c.56.72.79,1.15.28,1.55-.68.56-1.29.42-1.67-.65-.24-.77.33-1,1-1Zm-15.72,0a10.78,10.78,0,0,1,1.77,2.27c.35,2.08.34,4.24.49,6.43a12.63,12.63,0,0,1-.39,4.93c-.35.83-1,.26-1.22-.88,0-.28.19-3.1.19-4.65,0-2.67-.68-6-.84-8.1Zm13.67.7A5,5,0,0,1,68,185c0,.21-.22.39-.63.72s-.53.35-1-.36c-.71-1.1-1-1.83-.9-2.21.45-.41.87-.58,1.27-.3Zm24.51.05a22.14,22.14,0,0,1,3,.78l-1.5,1.45c-.44-.74-1-1.49-1.48-2.23Zm-27.71.58a1.22,1.22,0,0,1,.93.18,8.13,8.13,0,0,1,1.47,3.3,1.72,1.72,0,0,1-.59.58c-.19.05-.35-.27-1-1.37-1.08-1.92-1.4-2.46-.83-2.69Zm-1.25.62a13.12,13.12,0,0,1,2.09,4.2,1,1,0,0,1-.22.58c-.91,1-.68.82-2-2-1.14-2.3-1.44-2.52-.69-2.78C61.74,184,62.06,183.86,62.29,184.06Zm-2.17.75c.4,0,.51.66,1.28,2.17,1.29,2.86,1.78,3.26,1.49,3.57s-.58.77-.92.22c-.78-1.27-1.55-2.89-2.28-4.32-.58-1.06-.63-1.19-.26-1.45A1.31,1.31,0,0,1,60.12,184.81Zm24.48.7a7.1,7.1,0,0,0-1.39.11c-.49.14-2.44.76-1.25.87.25,0,.86-.13,1.29-.16,1.21-.08,3.73.15,3.64-.09-.15-.54-1.29-.71-2.29-.73ZM59.05,187c1.89,3.54,2.86,4.86,2.54,5.42-.27.34-.69.77-.93.67-.4-.16-.93-1.33-2.24-4s-1.5-2.93-.8-3.28C58.51,185.39,58.7,186.38,59.05,187Zm-3.11-.71c.25,0,.51.59.65.82.85,1.37.73,1.19.72,5.67,0,2.79-.36,4.57-.82,5.26-.25.36-.68.14-.89-.56-.1-.32.18-.8.23-1.31C56.16,192.86,55.93,189.5,55.94,186.33Zm22.06.58c-.09,0-.16,0-.18.09-.08.22.09.57.56,1.25s.3,1,.3,1.77c0,1.07.07,1.15.81.61s.71-.51,1.87.28a1.71,1.71,0,0,0,2.13,0c.4-.37.54-.2,1.07-.06.58.32.75.37,2-.24.84-.37.88-.42,1.38-.16.88.78,1,.5.89-.52a7.35,7.35,0,0,1,.21-1.45c.44-1.8-.27-1.82-1.21-.67a1.65,1.65,0,0,1-1.94.28,7.66,7.66,0,0,0-4.07-.1,3,3,0,0,1-2.78-.67,1.92,1.92,0,0,0-1-.41Zm-19.66,3.87c.18,0,.47.52.89,1.69.54,1.52-.4,6.81-1,7.67-.31.46-.5.73-1.12-.11-.25-.37,0-.48.19-1.52a32.56,32.56,0,0,0,.71-5.33C58,191.64,58.12,190.83,58.34,190.78Zm1.9,5.13c.14,0,.29.31.51.91a6.67,6.67,0,0,1-.24,3.64,10.24,10.24,0,0,1-.85,2.11c-.14.36-.83.23-1-.56-.12-.5.3-1.12.5-1.92s.43-1.82.54-2.33c.22-1.25.37-1.87.56-1.85ZM75,198.25h0l0,0s1.44,1.63,1.84,2.08c.2.18,2,2.33.87,1.84a7.55,7.55,0,0,0-8,1.34c-.25.25-.46,0-1.21-.06-1.56-.11-2.12.5-1.18,1.27.15.12.45.17.58.36s.09.48.16.57c3,4,8.57,4.78,12.07,2.17.44-.33.68-.45,1.09-.32.82.24.89-.45.17-1.4-.31-.41-.7-.89-.47-1,.44-.38.66-1-.11-1.25a2.5,2.5,0,0,1-1.43-1.58c-.35-1-3.77-3.94-4.29-4ZM61.33,200c.15,0,.24.19.26.23a7.89,7.89,0,0,1-.28,4.82c-.37.44-1.22-.39-1.09-1.23a29.15,29.15,0,0,1,.94-3.71A.34.34,0,0,1,61.33,200Zm13.34,2.43a3,3,0,0,1,1.89.78c.32.3.89,1.56.66,2.06-.07.25-.75.24-.81.05-.37-2.55-2.44-2.92-3.09-.54,0,0-.43.36-.48-.34.14-1.35.78-2,1.83-2Zm16.62.22h0a1.7,1.7,0,0,1,1.61,1,1.58,1.58,0,0,1,.16,1.12c-.07.16-.29.09-.29.09-1-2.88-2.48-1.55-3,0,0,0-.54.17-.61,0a1.37,1.37,0,0,1,.19-1,2.21,2.21,0,0,1,1.93-1.32Zm-14,.18a2.36,2.36,0,0,1,1.48.77c.49.48.53.77.14,1.14-.23.21-1.06.43-1.22.05L77,203.13c-.06-.16.14-.31.31-.32Zm-5,.08c.42,0,.5.1-.15,1.62-.14.32-1.81-.15-1.49-.78a2.78,2.78,0,0,1,1.64-.84Zm17.13.22a9.72,9.72,0,0,0-.78,1.65c-.6-.07-1.32,0-1.44-.47s.11-.75,1-1.07C88.58,203,89.31,203,89.35,203.11Zm4.54.31a1,1,0,0,1,.7,1.05c-.06.21-.38.24-.57.05a1.73,1.73,0,0,1-.48-.9c0-.31.26-.23.35-.2Zm-31.58,1.49c.2.36.55,2.45.14,2.39s-.59-.73-.66-1.3c0-.11.34-1.08.52-1.09Zm7,1.11a3,3,0,0,1,1.34.53,10.44,10.44,0,0,0,7.07.7c1.43-.37,1.8-.59,2-.35.34.42-.2.84-2.22,1.52-2.21.74-4.5.62-7.52-1.52-.81-.57-.91-.85-.67-.88Zm25,.42a.27.27,0,0,1,.2.15c.37.7-.89,1.44-1.55,1.55a7.18,7.18,0,0,1-4.9-.68c-1-.71-.56-1.22.5-.67a6.4,6.4,0,0,0,4.7.1c.47-.22.82-.49,1-.45Zm-28,1.46c-.13,0,.08.35.53.83,3.1,3.5,10.52,5.39,14.69,1.79,1.31-1.23,1.11-1.78-1-.8-3.42.85-7.89,1.65-13.07-1.12C66.77,208.08,66.4,207.87,66.29,207.9Zm21.3,0h.11a7,7,0,0,1,1.27.53,7.18,7.18,0,0,0,4.23.07c1.64-.64,2,.16.42,1a4.75,4.75,0,0,1-5.55-.72c-.43-.39-.67-.88-.48-.91Zm-20.51,6.26c6.12.56,15.69,7,19.3,14.3H84c-3.62-5.76-9.19-10.73-15.8-12.45-.26-.21-1.26-1.6-1.12-1.85ZM94,215.56v2a35,35,0,0,0-7.75,9.11,13.4,13.4,0,0,0-.85-1.25c2.95-5.17,5.91-8.13,8.6-9.85Zm-24.52,1.55c1.4-.1,10.54,5.16,13.62,11.38H81.48c-3.46-4.52-7.31-7.8-10.73-9C69.92,218.63,69,217.15,69.48,217.11ZM94,218.59v2.66a25,25,0,0,0-5,7.24H87.26a4.87,4.87,0,0,1-.51-1.08A29.76,29.76,0,0,1,94,218.59Zm-22.14,2.18c.82,0,7.34,4.8,8.26,7.72H78.48a20.15,20.15,0,0,0-5.34-5.32c-.77-1-1.71-2.15-1.36-2.34,0,0,0-.06.08-.06ZM94,222.51s0,0,0,.09v2.19a26.83,26.83,0,0,0-2.93,3.7h-1.4c1.2-2.59,4.06-6.15,4.33-6Zm-18.88,3.14h.06c.51.13,2.36,2.24,2.3,2.83h-.83a17.55,17.55,0,0,1-1.35-2.17c-.18-.34-.31-.65-.18-.67Zm18.88.49h0v2.35h-2A7.83,7.83,0,0,1,94,226Z"/><path id="path6313-8" d="M122.56,20.68q-10.68,0-21.21.11l52.33,74.42,0-16.53L136.93,57a63.48,63.48,0,0,1,12.16-2.33c-4.72-10.48-7.08-20.33-5-33.83q-10.86-.12-21.53-.12Zm20.66.47c-.41,4.76-.95,10.07-.08,16-2.73-1-3.37.7-3.82.88-.51-1.14-2.41-3.12-4.56-.8-1.12,1.22-.57,3.49,2,4.52-3,.23-4.51-2.32-5-4.94-1.61-1-3.29-2-3.45-5.66l.82.14a2.53,2.53,0,0,0,3.86,2.6c1-.76,1.1-1.93.71-3.75a2.65,2.65,0,0,0,2.16-3.34c-.68-3.3-4.07-2.91-5.61-.74-1.29-1.6-3.65-1.89-4.59.58a2.65,2.65,0,0,0,2,3.24c-3,.58-4.56-3.61-4.73-6.44l-1.25-2.24c8.18,0,11.76,0,21.51,0Zm-41,.08h6.07l44.36,57.53.09,14.32Zm15.36,0h1a12.55,12.55,0,0,0,8.63,10.51c.26,4.14,2.25,9.76,9.8,11.66-.22,4.67,2.77,9.13,6,11.27a12.06,12.06,0,0,1-1.54.28c-4.31-3.42-5.8-10.55-5.8-10.55-1.37-.49-8.36-3.06-9.82-12.43-3.14-.58-8.06-5.66-8.22-10.75Zm-3.91,0h3.41a13.61,13.61,0,0,0,8.37,11.34c1.29,6.62,3.93,9.59,9.78,12.32.88,3.85,3.2,8.66,5.61,10.22l-1.34.3Zm16.63,6.24a1.4,1.4,0,1,1,0,2.79,1.39,1.39,0,0,1-1.39-1.39A1.4,1.4,0,0,1,130.29,27.49Zm-47,7.63c.08.2-19,16.41-17.18,46.92l-.56.62.15.22c-.63.72-1.24,1.3-1.93,2a68.92,68.92,0,0,0,10.9,5.22l-1.32,3.07,8.26,2.68-1.1,2.91-8.13-2.7a72.52,72.52,0,0,0-2.75,8.08c-.08.22-.26.12-.56-.31C64.8,96.5,56,91.2,56.29,91.73L25,121.46l-.22,18.37,21.64,22.35s-6.26,3.09-9.23,5.11c2.31,1.89,4.91,3.34,7.2,5.12,4.74,3.35,7.94,8.27,11,11.6a52.8,52.8,0,0,1,41.65-2.42c-1.47,1.54-3.1,2.88-4.62,4.56,3.66,9.63,2.49,28.75,2.31,29.27a63.46,63.46,0,0,0,17.44-48.1l3.21-3.22c-.06-.17-8-4.44-11.34-5.37l.92-2.93-8-2.49.89-2.32,7.91,2.3c1.5-3.69,3.09-8.86,3.09-8.86a40.82,40.82,0,0,0,13.82,13.44l31.08-29.81-.2-19.16L132.48,87.69l8.8-4.6c-.84-.69-2.07-1.34-2.94-2-.06,0,.17-.2.11-.25-.22-.17-.38-.31-.61-.46-.05,0-.21.19-.26.16a53.28,53.28,0,0,1-8.33-6.69c-.06-.06,0-.32,0-.38-1.22-1.31-2.44-2.53-3.68-3.82a19.08,19.08,0,0,1-1.53-2L124,67.2l-1.34-1.68c-4.3,2.54-22.65,8.93-40.4,1.86L85.59,64a26.25,26.25,0,0,1-1.71-6.58c-.93-8-.57-22.3-.57-22.3Zm56,4.5a1.48,1.48,0,1,1-1.47,1.48A1.48,1.48,0,0,1,139.27,39.62Zm4.6,1.76a66.9,66.9,0,0,0,4,12.58l-2,.22c-1.59-1-3.27-2.55-3.45-4.7-4.3,0-5.56-6.73-4-5.92a2.57,2.57,0,0,0,3.08,3c1.39-.2,2.6-2.13.94-4.27a2.36,2.36,0,0,0,1.34-.91Zm-61,10.84a60.62,60.62,0,0,0,2.06,11.66l-8.51,8a43.94,43.94,0,0,1,6.45-19.7Zm40.79,15.45,1.08,1.55c-12.29,7.24-33.27,7.75-46,1.65l1.69-1.62C91.62,74.34,109.92,74.72,123.66,67.67ZM43.83,70.08a6.85,6.85,0,0,0-4.18,1.62c-5.64-2.58-9.34,3.44-5.85,7.43-.52,2.87-.9,3.41,1.25,6.31-2.29.29-5.18-.31-7.64-.69.42,4.25,6.49,5.24,9,4.77a9.06,9.06,0,0,1,5.41.8c1.6.45,2.6,1.22,4.18,1.59,3,.36,6.42-2,6.94-6.15-1.78.45-3.74,1.1-5.48,1.48a10.34,10.34,0,0,0-4.28,1.85l-.1-3.51c8.83.42,5-8,4.48-8.36,1.65-3.32-.33-7.09-3.75-7.14Zm80.29.27L126,75l-5.11,1.74-1.3-4.54Zm-80.66.14c3,0,5.69,3.2,2.8,6.75,5.59,4.94-1.57,10.23-5,6.56-4.54,4.17-9.37-.19-6.83-4.73-4.84-4.34,1.13-10.17,5.21-6.42a4.44,4.44,0,0,1,3.8-2.16Zm34.86,1.69A1.31,1.31,0,1,1,77,73.49,1.31,1.31,0,0,1,78.32,72.18Zm-33.17.09a.08.08,0,0,0-.09,0c-1.23.87-1.94,2.17-3,3.22A3.83,3.83,0,0,0,38.5,76c-1.48-.78-1.88-1.38-3.34-2.09-.47-.23-.5.31-.35.45A26.55,26.55,0,0,0,38,76.74a5.07,5.07,0,0,0,.48,2.84c-.82,1.56-1.6,2-2.3,3.67-.11.26.12.4.31.25a17.92,17.92,0,0,0,2.85-3.34,3.59,3.59,0,0,0,3.1-.13,24.6,24.6,0,0,0,3,2.18c.39.22.41-.35.4-.37A34.27,34.27,0,0,1,43,79.45c.54-2,0-2.65-.42-3.3a43.59,43.59,0,0,0,2.7-3.6c0-.08-.06-.25-.15-.28Zm36.1.29L85.85,74l-1,4.79-4.9-1.58Zm33.27,1.18,1.29,4.68L111,79.69l-.78-5Zm3.36.08a1.31,1.31,0,1,1-1.3,1.3A1.3,1.3,0,0,1,117.88,73.82Zm10.87.17,4,3.58-4.46,2.26-2.15-4.67ZM90.84,75l4.67.55-.18,5L90,79.89Zm-16.2.06,5.2,2.28L78,82.61l-5.32-2.29Zm13.4.4a1.31,1.31,0,1,1-1.31,1.31A1.31,1.31,0,0,1,88,75.48Zm16.8,0,.64,5-4.85.29-.1-5.11Zm-64.22.43a1.9,1.9,0,1,1-1.89,1.89A1.89,1.89,0,0,1,40.62,75.92Zm67.56.15a1.3,1.3,0,1,1-1.31,1.3A1.3,1.3,0,0,1,108.18,76.07Zm-10.09.42a1.31,1.31,0,1,1-1.3,1.3A1.3,1.3,0,0,1,98.09,76.49Zm22.84.32L122.82,82l-5.3,1.71L116,78.38Zm-80.28,0a1,1,0,1,0,1,1A1,1,0,0,0,40.65,76.85Zm84,.1a1.31,1.31,0,1,1-1.3,1.3A1.3,1.3,0,0,1,124.65,77Zm9.16,1.47,3.42,2.42-1.69,1C135.09,80.73,134.31,79.46,133.81,78.42Zm-48.94.47,5,1.1-.77,5.3-5.51-1.1Zm-15,.29,2.68,1.26-1.77,4.43-4.34-2.32Zm12,.29a1.31,1.31,0,1,1-1.31,1.3A1.3,1.3,0,0,1,81.84,79.47Zm29.19.29.9,5.3-5.7.81-.35-5.41Zm21.34.1a1.31,1.31,0,1,1-1.3,1.3A1.3,1.3,0,0,1,132.37,79.86Zm-4,0,1.88,4.68-5.57,2.33L123,82.23Zm-14.22.33a1.31,1.31,0,1,1-1.31,1.31A1.31,1.31,0,0,1,114.11,80.23Zm-18.84.54,5.34.09-.06,5.37-5.85-.16Zm42.69.37,2.09,1.46c-21.6,13.93-52,15.65-75.63,1.94,0,0,1-1,1.52-1.53,21.35,12.81,52.52,11,72-1.87Zm-45.58.6a1.31,1.31,0,1,1-1.3,1.31A1.31,1.31,0,0,1,92.38,81.74Zm11,.3a1.31,1.31,0,1,1-1.3,1.31A1.31,1.31,0,0,1,103.33,82Zm-25.41.72,5.57,1.61-.95,4.41L76.43,87Zm-3.69,0a1.31,1.31,0,1,1-1.3,1.3A1.3,1.3,0,0,1,74.23,82.79Zm43.29.94,1.33,5L112.69,90l-.75-4.87Zm3.54.72a1.31,1.31,0,1,1-1.3,1.3A1.3,1.3,0,0,1,121.06,84.45Zm-80.51.77h0v3.47c-1-.85-2.18-1.75-3.36-2.65a6.5,6.5,0,0,0,3.37-.82Zm-12.68.08a14.15,14.15,0,0,0,1.72.23c2.51,0,7.19.77,8.58,1.92a5.85,5.85,0,0,1,1.53,1.32c0,.29-.41.3-1-.07A15,15,0,0,0,33,87c-.47-.07-.53,0-.53.17s.43.43,1.8.66a15.37,15.37,0,0,1,2.53.57c1,.29.37.67-.71.77-4.39.42-7.69-1.48-8.35-3.65C27.69,85.35,27.74,85.3,27.87,85.3Zm61.28.08,5.53.72-.25,4.64-6.06-.69Zm-47.68.16a1.39,1.39,0,0,1,.61.24c1,.67.3,3.07-.22,3.75-.34.38-1.14.18-1.14-.36s0-2.77.06-3.48a1.6,1.6,0,0,1,.69-.15Zm64.75.45.29,4.79-6,.27,0-4.7Zm-20.37.32a1.31,1.31,0,1,1-1.3,1.31A1.31,1.31,0,0,1,85.85,86.31Zm-33.65.07C52.43,89.89,47,92.27,45,91.2c-.89-.48-.52-.78,1.25-1.13,2.28-.61,3.79-1.2,3.79-1.63,0-.26-.34-.23-1.28.12-1.43.48-2.92.69-4.29,1.3-1,.47-1.43.63-1.66.35-.48-.58,1.79-2.07,4.16-2.46C48.77,87.45,50.56,86.5,52.2,86.38Zm57.35.44a1.3,1.3,0,1,1-1.3,1.3A1.3,1.3,0,0,1,109.55,86.82Zm-12.1,1a1.31,1.31,0,1,1-1.3,1.31A1.31,1.31,0,0,1,97.45,87.77Zm29,2.22c8.71,8.31,18.25,17.88,26.13,25.76,0,4.11,0,12.35,0,12.35l-30.07,28.65a39.1,39.1,0,0,1-14.3-14.89,12,12,0,0,0,1.45-1.23l-1.75,1c-5.55-8.9-7.9-26.62,1.52-40.82l-9.52.35L101.42,98l10.37-.57L116,92.87s1.33-.24,2.43-.5,3.31-.89,5-1.42,3-1,3.09-1Zm-70.31,2.3a37.73,37.73,0,0,1,13.92,14.64C54,120.79,48,136.92,46.58,153.71,37.84,145.51,33.42,141,25.52,133l.28-11.88Zm33.79,1.55a126.45,126.45,0,0,0-6.09,16.23l-2.49-.74s1.61-.68,2.33-1.11l-1.29-2.08,2.45-1-1.45-1.77,2.48-1.45-1.24-1.56,2.28-1.14-1.42-1.64,2.39-1.33-1.24-1.56Zm.77,0,.69.14c.09,0-.45,1.3-.39,1.35.87.18.92.13,1.18.21l.67-1.38,1.08.21A90.74,90.74,0,0,0,88,110.66l-1.28-.27s.38-1.24.38-1.4c-.15,0-.88-.34-1.1-.43-.08.2-.53,1.63-.53,1.63l-1,0A77.29,77.29,0,0,1,90.7,93.85Zm4.17.19,2.27,1.89-2.58,1,1.34,1.78-2.74,1,1.57,1.85-2.7,1,1.61,2.24-2.82,1,1.78,2-2.54,1.19,1.52,1.51-1.67.55a5.41,5.41,0,0,1-1.32-.2A88.18,88.18,0,0,1,94.87,94ZM39.56,95c-.63.41-.27,1.3-1.06,2.06-.13.13-.14.45-.18.72s-.67,2.69-.67,2.69a3.37,3.37,0,0,0,.41-1c.21-.68.4-2,.51-2.18.58-.17.67-2.07,1.26-1.81.34.15.28.46.08,1.19-.42,1.45-.58,2.07.14,1.07,1.07-1.29,1.18-2.46,0-2.71a3,3,0,0,0-.46,0Zm16.24.54L27.7,122l-.08,9.87,9.78,9.93,6.94,6.75c2.52-15.11,8.29-29.52,22.52-42a33.93,33.93,0,0,0-11.06-11Zm75.74.27C115,103.59,111.23,119.54,116.35,134,124.22,123.84,130.39,114.31,131.54,95.81Zm-58.76.81L80.28,99l-2.83,9.65-6.75-2.06-.69-1.7Zm57.93.25a59.78,59.78,0,0,1-14,35.41A28.22,28.22,0,0,1,130.71,96.87Zm-40.38.07-.47,1.2,1,.29.44-1.22Zm-1,2.83L88.87,101l1.06.36.4-1.23Zm44.23.23c-2.31,17.9-12,34.19-22.15,42.5A39.59,39.59,0,0,0,122.32,154L151,126.44l-.11-9.2Zm-76.66.55c1-.06,1.27,2.39.78,4.2-.18.65-.24,1-.24,1a6.53,6.53,0,0,1,1.2-.79c5.65-2.82,3.83,1.47,1.17,3.06-.59.31-1.21.69-1.21.69s.57.13,1.18.24c3.42.71,2.69,2.72-.88,2.41-.52,0-1.15-.15-1.15-.12a13.05,13.05,0,0,0,.47,1.41c1.2,3-1,3.28-2.52,1.35-.21-.27-.67-1-.67-1s-.15.57-.24,1.11c-1.28,4.76-4.42,4.64-3.25-.19.15-.5.33-1.4.33-1.4a16.2,16.2,0,0,1-1.48.78c-4.08,1.82-4.74,0-1-2.8,1.06-.78,1.42-1.09,1.42-1.09a10.11,10.11,0,0,1-1.8-.29c-3-.74-3.74-2.51,1-2.43l1.41.06s-.23-1-.48-1.78c-1.14-3.55,1.16-4,3.11-.79.41.67.53.68.53.68.26-1.85,1.14-4.17,2.37-4.28Zm51.56.67a40,40,0,0,0-4.51,10.58l-7.67-.13a41.18,41.18,0,0,1,3.51-10.08C102.87,101.5,105.68,101.37,108.42,101.22Zm-20.25,1.54-.44,1.29,1.11.34.4-1.25Zm-57.38,2.42a47.69,47.69,0,0,0-1.55,6.43c-.19,1.11,0,1.57.66,1.82A2.83,2.83,0,0,0,33,112.21c.43-.62.74-1.89.81-4.13l.07-2a20.75,20.75,0,0,1-3.06-.9Zm56.34.27-.37,1.18,1.08.4.4-1.19Zm49.68.45h0a4.14,4.14,0,0,1,2.73.85l2.28,2.35a3.15,3.15,0,0,0,2.18,5.43,5.46,5.46,0,0,0,2.2-.91l3.62,3.75c-2.28.88-4-.83-5.18-2.38-.12,1.54-1.25,6.46-3.56,6.86-1.77-.29,0-7.34,0-7.18-1.22,1.29-7.15,2.66-6.74,1.22.83-2.86,5.27-4,5.85-4.46-2.36-1.42-5.35-5.37-3.43-5.53ZM31.08,106a5.14,5.14,0,0,1,1.78.36c.23.06.24.26.27.45,0,.84.22,3.32-.57,3.35a3.63,3.63,0,0,0-2.25.6c-.46.36-.61.1-.49-.8s.56-2.71.74-3.45A.54.54,0,0,1,31.08,106Zm23.44,0a3.16,3.16,0,1,0,3.15,3.16A3.15,3.15,0,0,0,54.52,106Zm0,1.11a2,2,0,1,1-2,2.05A2,2,0,0,1,54.52,107.13Zm16.23,0c7.21,12.48,6.37,29.6-2.13,42.05l9.14-.64-1.2,2.35-9.74,1c-1.49,1.37-2.84,2.93-4.31,4.39v.51a89,89,0,0,0-10.09,2.9c-1.79-1.76-5.17-5.3-5.15-5.39l.22-1.14c23.16-11.85,16.39-35.61,14.75-37.57a88.25,88.25,0,0,1,8.52-8.41Zm-16.26,1.47a.54.54,0,1,0,0,1.07h0a.53.53,0,0,0,.53-.53h0A.54.54,0,0,0,54.49,108.63Zm80.55.8a1.71,1.71,0,1,1-1.7,1.71A1.71,1.71,0,0,1,135,109.43Zm7.56.46,1.07,1.11a.53.53,0,0,0,.35.94.52.52,0,0,0,.39-.17l1,1.06a2,2,0,0,1-3.48-1.45A2,2,0,0,1,142.6,109.89Zm-97.78.37a1.7,1.7,0,1,1-1.7,1.7A1.7,1.7,0,0,1,44.82,110.26Zm-13.1.65a1.14,1.14,0,0,1,.46.06c.79.27.61,1-.42,1.67a1.76,1.76,0,0,1-1.86.2C28.93,112.32,30.57,111,31.72,110.91Zm13.59,4.23-10.23,9.93a14.38,14.38,0,0,0,.71-4.95c3.08.32,4.37-1.24,3.92-4.47A18.31,18.31,0,0,0,45.31,115.14Zm16.4,1.13c4.75,13.57.63,27.93-14.22,36.24C48.1,139.51,53.55,127.08,61.71,116.27Zm13.53,1.19a107.87,107.87,0,0,0,27,3.14,65.11,65.11,0,0,0,1,11.31,101.27,101.27,0,0,0-27.37-3C76.33,125.05,75.66,120.65,75.24,117.46Zm60.41,2L127,129.64l.37-5.55c2.92.37,4-1.18,3.53-4.23A15.18,15.18,0,0,0,135.65,119.47Zm-84.3.56-.69,4.06c-1.73,0-3.43.67-3.41,4.54l-5.17-.06Zm95.47.75a1.71,1.71,0,1,1-1.69,1.7A1.7,1.7,0,0,1,146.82,120.78Zm-103.34.52a1.7,1.7,0,1,1-1.7,1.7A1.7,1.7,0,0,1,43.48,121.3ZM143,123l-.91,6.15c-2.37-.2-4.34.16-3.73,4.33a40.12,40.12,0,0,0-6.64.44Zm-8.48,1.12a1.7,1.7,0,1,1-1.7,1.7A1.7,1.7,0,0,1,134.56,124.16ZM31,125.48a1.7,1.7,0,1,1-1.7,1.7A1.7,1.7,0,0,1,31,125.48Zm5.64,2c2.17.49,1.16,5.56.68,6.94,0,0,6-3.2,6.41-1.77.24,2.87-5,4.86-5,4.86s3.56,3.1,3.66,5c0,1.26-1.49,1-3.43-.57-.83-.82-1.48-1.43-2-2a3.15,3.15,0,1,0-4.45-4.43c-.45-.44-1-.94-1.65-1.59-1.12-1-1.91-1.89-1.79-2.27,1.48-1,4.43,1.76,4.69,2-.22-.55,1.41-5.94,3-6.24ZM126,131.83c1.6,0,.83,3.29.33,4.89a10.19,10.19,0,0,1,1.26-.87c2.81-1.32,3.85.18,2.44,1.91-.68.89-1.61,1.09-2.37,1.84,1.92.12,3.48.45,4.52,2.11-.8,1.48-3.43,1.08-5.49.57,1.2,1.43,1.74,5.21.25,5.25-1.5-.41-2.24-2.08-2.83-3.29a9,9,0,0,1-2,3.78c-1.06,1-1.61.17-1.56-1.51a22.21,22.21,0,0,1,.51-2.66c-6.32,2.14-5.85-.75-.91-3.29-3-1.46-4.9-2.76.28-3.06-.14-.13-1-2.9-.08-3.55s2.82,1.47,2.91,1.57c.57-2,1.21-3.69,2.77-3.69Zm-91.13,3.71a2,2,0,0,1,1.27,3.65c-.5-.5-.74-.73-1.1-1.1a.53.53,0,0,0,.22-.43.54.54,0,0,0-.54-.54.53.53,0,0,0-.43.22l-1-1A2,2,0,0,1,34.84,135.54Zm113.23.13c-1.1.1-1.79,1.08-2.3,1.93-.1.17-.29.24-.36.46a28.49,28.49,0,0,0-1.1,5.44,5.68,5.68,0,0,0,3,.51c.19-.08.13-.59.2-.75C147.89,142.14,150.53,135.48,148.07,135.67Zm-.32.34c.29,0,.54.1.71.5.28.68-.61,1.41-1.76,1.4-.69,0-.91.1-.6-.5A2.83,2.83,0,0,1,147.75,136ZM133,136a1.7,1.7,0,1,1-1.7,1.7A1.7,1.7,0,0,1,133,136Zm-89.63.12a1.71,1.71,0,1,1-1.69,1.7A1.7,1.7,0,0,1,43.41,136.16Zm80.39.69a3.16,3.16,0,1,0,3.14,3.15A3.15,3.15,0,0,0,123.8,136.85Zm-42,.42a51.48,51.48,0,0,1-3.7,10.55c-3,.18-6.31.32-8.47.63,3.6-6.32,3.68-7.81,5-11.16Zm5.21.52c.86.1,1.79.23,2.63.39a99.05,99.05,0,0,1-6.23,16.46l-1.61-.25-.75-.94,2.54-1-2-2,3.28-1-2-2,3.24-.81-1.73-2.11,2.91-1.14L85.4,141l3.1-.86Zm36.83.16a2.05,2.05,0,1,1-2,2.05A2.05,2.05,0,0,1,123.8,138Zm-33.62.31,1.08.18-.33,1.16,1.23.26.4-1.25a6.35,6.35,0,0,1,1.09.17c-1.29,5.27-5.85,16.3-5.9,16.25l-1.18-.18.31-1.11-1.09-.16s-.38.79-.53,1.2l-1.16-.1A115.42,115.42,0,0,0,90.18,138.26Zm57.41.42c.86,0,.81.45.19,2.08s-.82,2.16-1.1,2.36c-.69.48-2.16.08-2-.63.39-2.3.53-3.28,1.12-3.59a10.5,10.5,0,0,1,1.83-.22Zm-53.06.19,2.82.55L95,140.83l1.5,1.75-2.9,1.24,1.76,1.82-2.8,1.15,1.7,2L91.35,150l2,1.71-3.27,1,1.24,1.91-1.23.68-1.51-.23C91.07,149.25,92.69,144.41,94.53,138.87Zm29.28.59a.54.54,0,0,0-.54.53h0a.54.54,0,1,0,.54-.53Zm-22.35.82,5.52,1.51,1.1,2-2.59,8.77-7.36-2.16Zm-11,.85L90,142.57l1.22.25.47-1.48Zm-1.07,3.3-.53,1.44,1.15.23.54-1.46Zm-1.08,2.91-.53,1.43,1.11.23.53-1.43ZM140.22,150a6.45,6.45,0,0,0-.71.59c.12.33.48.83.43,1.17s-.33.45-.74.89c-1,1.21-1.41,1.08-.81-.21a4.26,4.26,0,0,0,.29-.79,8,8,0,0,0-.58,1.06l-.67,1.28A5.49,5.49,0,0,1,139,155s.22-.59.37-1.15a2,2,0,0,1,1.13-1.38,3.31,3.31,0,0,0,.63-.47A5.15,5.15,0,0,1,140.22,150Zm-53,.35-.57,1.53,1.11.27.62-1.56ZM24.7,154.17c-.11,6.07.09,10.07-.12,16.63L41,192.12l-2.56.86s0,.3-.16.33c-3.51,1-9.2,1.93-9.2,1.93,4.23,9.69,7,21.8,5.09,33.89L76.63,229Zm54.24,1.25a77.43,77.43,0,0,1,35.58,9.05l-1.46,1.47c-21.6-11.72-51.35-11.68-73.06,2.51l-1.77-1.3a74,74,0,0,1,40.71-11.73Zm-53.45.88,50,72-5.87.08-44.08-57.8Zm107.28,1.3c-5.27,1-7.85,3.13-7.44,6.69.1,1.42,1.73-.08,1.73-.08a20.47,20.47,0,0,1,8.43-3.43l-.19,3.27c-6.87,0-6.5,5.45-4.52,8.3-.69,1.31-2.21,5.91,2.78,7.66a6.47,6.47,0,0,0,5-1.64c4.59,2.18,9.92-1.47,5.77-7.79,1.56-2.76.46-4.8-1-6.56a42.89,42.89,0,0,0,7,.92c0-3-2.45-4.3-7.57-4.7-3.63.51-10-2.66-10-2.64Zm-55.34.33h.74L77.93,163l-5.58.26L72,158.21c1.92-.13,3.7-.27,5.44-.28Zm6.69.14,6,.73-.91,4.75-5.51-.6Zm48.54.06c.5.05.34.63-.34.76-1.07.21-3.84,1.82-3.84,2.24s.14.23,1.15-.31c1.44-.72,2.83-1.2,4.32-1.82.93-.42,1.39-.13,1.06.66-.23.53-.31.57-2.47,1.25s-3.38,1.55-5.35,2.62c-1.27.66-1.53.66-1.53-.22C125.81,159.63,130,158.44,132.66,158.13Zm-51.8.61a1.36,1.36,0,1,1-1.35,1.36A1.36,1.36,0,0,1,80.86,158.74Zm-14.81.36.44,4.61L61,165.12l-1.26-4.75C61.85,159.85,64,159.49,66.05,159.1Zm70.7.35c1.5.23,1.38,3.69.61,4.28-1.18.86-1.91-.93-1.38-3.3C136.13,159.72,136.4,159.47,136.75,159.45Zm-67.59.19A1.36,1.36,0,1,1,67.81,161,1.36,1.36,0,0,1,69.16,159.64ZM96,160l6.21,1.7-1.52,4.82-5.82-1.65Zm-3.38.1a1.36,1.36,0,1,1-1.35,1.36A1.36,1.36,0,0,1,92.59,160.13Zm50.76.4c2.67,0,6.2,1.37,6.21,3.45-.06.58-5.6-.2-8.17-1.23-.9-.37-2-1.48-2-1.95,0-.28.54-.26.76,0,.36.44,1.64.9,4.57,1.64,2.26.57,2.48.59,2.48.25-.36-.66-3.65-1.06-5.29-1.6-1.34-.45.9-.54,1.45-.57Zm-4.72,1.07c.68.32.92,1,1.29,1.28a3,3,0,0,1-1.42.5A4.94,4.94,0,0,1,138.63,161.6ZM57.38,162A1.36,1.36,0,1,1,56,163.33,1.35,1.35,0,0,1,57.38,162Zm-3.65.38,1.46,4.71L50,169.35l-1.86-4.66A45.34,45.34,0,0,1,53.73,162.36Zm24.25.77,5.62,0-.34,5.31-5.21,0Zm-5.58.29.29,5.3-5,.68-1-5.33Zm31.73.05a1.36,1.36,0,1,1-1.35,1.36A1.36,1.36,0,0,1,104.13,163.47Zm36.32.12c3.06,0,6,3.54,3,7.23,5,3.82-.43,10.24-4.81,6.5-6.26,6.16-9.76-2.21-7.17-4.43-3.82-6.3.88-10.28,5.73-7.5a3.94,3.94,0,0,1,3.3-1.8Zm-51.16.15L94.8,165l-1.11,5.24-5.38-1.09Zm18.23.13,5,2.51-3.9,3.76-2.9-1.44Zm-32.28.59a1.36,1.36,0,1,1-1.36,1.36A1.36,1.36,0,0,1,75.24,164.46Zm10.88.17a1.36,1.36,0,0,1,0,2.72A1.36,1.36,0,0,1,86.12,164.63ZM61,165.4l1.23,5.24-5.11,1.73-1.82-5.11Zm3.5.37a1.36,1.36,0,1,1-1.35,1.36A1.36,1.36,0,0,1,64.54,165.77Zm77.4.46a.57.57,0,0,0-.44.25c-.73.93-1.56,1.86-2.34,2.75a3.51,3.51,0,0,0-3.32.25,28.77,28.77,0,0,0-3.23-2.44c-.19-.12-.41,0-.29.19.77,1.14,2,1.78,2.92,2.89a3.29,3.29,0,0,0,.34,3.18c-.53.9-1.61,2-2.28,3.28-.25.47.29.41.33.38,1.08-.82,1.6-1.91,2.79-2.88,1.26.34,2,.65,3.23-.4,1.2.55,1.89,1.4,3.24,2.18.44.26.57-.3.38-.5a31.08,31.08,0,0,0-3.06-2.55,3.11,3.11,0,0,0-.46-3.09c.85-1,1.23-1.46,2.35-3,.21-.29.07-.5-.16-.51Zm-41.23.46,5,2.09L103.9,174l-4.8-2ZM46,167a1.36,1.36,0,1,1-1.35,1.36A1.36,1.36,0,0,1,46,167Zm50.84.14a1.36,1.36,0,1,1-1.36,1.36A1.35,1.35,0,0,1,96.87,167.18Zm-54.31.37,1.63,4-3.7-2.77Zm40.78,1,5,.59-.78,4.73-4.27-.39Zm-5.4,0,0,4.86-4.7.21-.4-4.86Zm-24.19.89a1.36,1.36,0,1,1-1.36,1.36A1.35,1.35,0,0,1,53.75,169.49Zm-3.75.1,1.91,4.88-3,1.44-4-3.78Zm17.7.06.76,4.65-4.9,1.21-1.19-4.73Zm70.08,0a1.94,1.94,0,1,1-1.94,1.94A1.93,1.93,0,0,1,137.78,169.69Zm-57.38.15a1.36,1.36,0,1,1-1.35,1.36A1.36,1.36,0,0,1,80.4,169.84Zm13.36.5L99,172l-1.76,4.2L92.71,175Zm-23.17.18a1.36,1.36,0,1,1-1.36,1.36A1.35,1.35,0,0,1,70.59,170.52Zm67.18.09a1,1,0,1,0,1,1A1,1,0,0,0,137.77,170.61Zm-47.3.41a1.36,1.36,0,1,1-1.36,1.36A1.35,1.35,0,0,1,90.47,171Zm-33.2,1.59,1.8,4.15-4.92,2.14L52,174.66Zm3.49.25a1.36,1.36,0,1,1-1.36,1.36A1.36,1.36,0,0,1,60.76,172.86Zm18.12,1.25a55.36,55.36,0,0,1,21.21,4.11l-1.74,1.63c-19-6.53-31.39-3.59-44.12,2l-1.29-1.59A58.84,58.84,0,0,1,78.88,174.11Zm21.47,0A1.36,1.36,0,1,1,99,175.52,1.35,1.35,0,0,1,100.35,174.16Zm-49.46,3h0c1.08.07,1.19,2.1.68,1.51l-1.21-1.41a1.23,1.23,0,0,1,.53-.11Zm50.74.86c0,1.54-1.5,11.89-6.43,19a51,51,0,0,0-2.13-10.77S98.37,181.32,101.63,178Zm-63,15.69,25.63,34.65-2.69,0a14.31,14.31,0,0,0-9.2-11.66,13.42,13.42,0,0,0-9.3-12.17,14,14,0,0,0-6.15-10.3Zm-2.55.79c4.91,3.77,5.15,4.68,6.55,10.49,7,2.37,8.78,7.6,9.24,12a13.84,13.84,0,0,1,9.06,11.29H59.51c-1-6.33-5-8.86-9.19-10,.33-9-6.61-11.74-9-12.16.14-6.44-4-9.1-6.7-11.27.52-.13,1-.23,1.49-.34Zm-4.1.93c2.1.68,3.69,3.61,3.53,5,2.76.35,5.67,3,5,5.82a.68.68,0,0,1-.85-.18c.74-5.41-7.32-2.73-4.1,1.18l-1.44.95A67.37,67.37,0,0,0,30,195.72c.56-.15,2-.32,2-.32Zm6.68,11.35a1.3,1.3,0,1,1-1.3,1.3A1.29,1.29,0,0,1,38.65,206.75Zm3.32.63c1.88-.13,3.69,3.35,3.6,5.22a5.58,5.58,0,0,1,4,5.13h-.68c-1.08-5-6.71-2.26-4.36,1.69-3,1.11-2.77,3.89-1.88,5a3.2,3.2,0,0,0,5.29-.86c2.92,3.79,7-.46,3.4-4,2.92,1.08,3.38,5,3,6.22a5.93,5.93,0,0,1,2.7,2.6H35.12s1.06-8.84-.07-15.51c1.46.35,2.43.7,4.1-1.27,2.71,2.25,4.66.55,4.51-1.39a3.63,3.63,0,0,0-2.06-2.75,1.21,1.21,0,0,1,.37-.07Zm6,11.44a1.34,1.34,0,1,1-1.33,1.34A1.34,1.34,0,0,1,48,218.82Z"/><path id="path7198-0" class="cls-3" d="M14.11,56a45.14,45.14,0,0,0-5.82-8,45.5,45.5,0,0,0,5.82-8,45.5,45.5,0,0,0,5.82,8A45.14,45.14,0,0,0,14.11,56Z"/><path id="path7202-9" class="cls-3" d="M164.47,209.47a45,45,0,0,0-5.82-8,44.64,44.64,0,0,0,5.82-8,45.14,45.14,0,0,0,5.82,8A45.5,45.5,0,0,0,164.47,209.47Z"/><path id="path7204-2" class="cls-3" d="M48.06,64.56c-4.15-6.86-8.51-13.52-14-19.2,5.46-5.69,9.82-12.35,14-19.2,4.15,6.85,8.52,13.51,14,19.2C56.58,51,52.21,57.7,48.06,64.56Z"/><path id="path7222-2" class="cls-3" d="M130.52,223.3c-4.15-6.85-8.51-13.51-14-19.2,5.46-5.69,9.82-12.35,14-19.2,4.15,6.85,8.51,13.51,14,19.2C139,209.79,134.67,216.45,130.52,223.3Z"/><path id="path37-2-1-6-5" class="cls-3" d="M8.3,28.73H6.09v-3H8.3s0-1.62.08-4.48c.13-6.1.29-7,2-8.72,3.48-3.31,9.32-.61,9.25,4.37-.1,7,0,13.74-.24,14.69-.36,1.68-.4,1.77-.25,2.08.31.61,2.94.88,2.94.7v3a5.48,5.48,0,0,1-4.46-1.19,6.6,6.6,0,0,1-6.5.8C9.32,36.08,7.92,33.83,8.3,28.73ZM15.75,34c-1.09-1.57-2.93-3.73-4.66-4.5-.11,1.82.05,3.34.69,4.16A2.52,2.52,0,0,0,15.75,34Zm.91-17.37c-.81-2.3-2.9-3.08-4.42-1.64-1,.89-1.1,1.84-1.12,7,0,3.16,0,4.48,0,4.48,3,1,5.74,4.42,5.72,4.38l.07-9.55a26.45,26.45,0,0,0-.23-4.62Z"/><path id="path37-3-27-1-5" class="cls-3" d="M170.29,220.71h2.2v3h-2.2s0,1.62-.08,4.48c-.14,6.1-.29,7-2.06,8.72-3.48,3.31-9.31.61-9.24-4.37.1-7,0-13.74.23-14.69.36-1.68.4-1.77.25-2.08-.3-.61-2.94-.88-2.94-.7v-3a5.48,5.48,0,0,1,4.46,1.19,6.61,6.61,0,0,1,6.5-.8c1.85.87,3.26,3.12,2.88,8.21Zm-7.46-5.25c1.09,1.58,2.93,3.74,4.66,4.51.11-1.82,0-3.34-.68-4.16A2.54,2.54,0,0,0,162.83,215.46Zm-.91,17.38c.81,2.3,2.9,3.08,4.42,1.64,1-.9,1.11-1.84,1.13-6.95,0-3.16,0-4.48,0-4.48-3-1-5.74-4.42-5.71-4.38l-.08,9.54a27.53,27.53,0,0,0,.23,4.63Z"/></g></g></g></svg>