<svg xmlns="http://www.w3.org/2000/svg" viewBox="0 0 178.58 249.45"><defs><style>.cls-1{fill:#fff;}.cls-2{fill:#131f67;}.cls-3{fill:#e2cf00;}.cls-4{fill:#d40000;}.cls-5{fill:#100f08;}</style></defs><g id="Layer_2" data-name="Layer 2"><g id="svg8"><g id="g7120"><path id="rect7234-2" class="cls-1" d="M170,249.45H8.54A8.53,8.53,0,0,1,0,240.92V8.53A8.53,8.53,0,0,1,8.54,0H170a8.53,8.53,0,0,1,8.54,8.53V240.92A8.53,8.53,0,0,1,170,249.45Z"/><path id="path6351-0" class="cls-2" d="M24,19.46V230H154.59c-.07-63.5,0-141.37,0-210.53Zm36.85,1.76c23,0,44.85,0,68.6.14-2.12,5.06-7.9,14.18-11.53,21.49.88,2.25-.2,2.64.25,3.17a2.28,2.28,0,0,1-1.35,3.4c-6.71.72-13.88-1.13-19.8-3.4a54.17,54.17,0,0,0-25.86-3.6s-.76-.08-1.1-1.86C67,31.25,63.7,27.35,60.83,21.22Zm-35.18.26H59.7s1.61,2.85,5,9.41c1.42,2.77,2.63,4,2.75,6.15a3.54,3.54,0,0,0,1.52,3.35c.35.2.94,0,.74.51s.45,1.54.64,1.74.07.44.1,1.75a9,9,0,0,0,.35,2.75c.69,2.41.84,3.62.45,4.87a70,70,0,0,1-3.44,8.57C67,62.32,67.1,63,69.54,64.25c1.82.94,2.06.93,1.83,2.31a2.72,2.72,0,0,0-.07,1.36,2.46,2.46,0,0,0,.56.61c.24.21.17.63-.08.94s-.24.75,0,1.49c.78,1.88-1.37,4.53-3.8,5.47-.7-2.5-4.24-3.37-6.3-1.76-1.79,1.4-2.08,3-1.61,5.21C55.71,82.53,51,85.64,46.25,88a19.43,19.43,0,0,1-1.11-3.41c-.31-1.07-.27-1.15-.16-3.25.11-1.89.16-2.33-.28-2.45-2.52-.28-3.09.62-3.57,2.25-.21.72-.61.58-.86.27-1-1.75-2.17-3.57-3-4.82-1-1.59-2.67-2.38-3.55-1.63-.18.62-.33.64-1.44.38a1.68,1.68,0,0,0-2.25,1.45c0,.4.24.38-.48.78-1.8,1.33-1.11,3.15-.84,4.24A1.64,1.64,0,0,0,28,83.27c-.08,5.33,4.51,13,4.41,12.81l-6.71,4Zm105.15,0h21.8v3.95l-10.72,11v8.1c-5.75-1.45-8.13-7.93-8.59-12.42-10.66,9.78-10.39,24.5-.33,33.73,1.16-4.67,5.7-11.63,8.92-11.59V83.39l-6.4-6.45-13,.1c2.22-2.55,1-8.35-.18-11.49C120,59.64,116.73,50,117,49.83c0,0,1.88-.49,2-1.68.25-1.78-.52-1.65.59-3.25a1.8,1.8,0,0,0-.18-1.58,1.49,1.49,0,0,1,0-1.45Zm22.53,4.35,0,67.19c-.79,5.46-.45,11-.49,16.54l-5.36,2.84L127.35,85.9a7.39,7.39,0,0,1,1.18-1.41c-.43-1-1.85,1.44-2,1.82,7.29,9.09,20.85,26.88,20.85,26.88l5.65-3c0,5.46-.12,11-.17,16.41-9.86,5.7-15.74,14.91-20,24.35-3.91,1.28-8,3.1-11.95,4.74l5.66,8.54-2.24,1.21C99.22,127.2,110,100.27,130.11,77.86l3.7-.07,8.63,8.06-.16-49c3.59-3.76,7.58-7.16,11.05-11ZM132.63,34c.16.58.51,2,.55,1.94-5.92,6.19-8.71,16.34-.14,26.74a15.18,15.18,0,0,0-.43,1.64c-9.21-9-7.84-23.22,0-30.32Zm.89,2.59A17.25,17.25,0,0,0,138.83,44c-1.42,3.17-2.27,6.47.39,10.65a20.67,20.67,0,0,0-5.66,7.65c-8.3-9.68-5.64-19.79,0-25.71Zm-55.46,6c3.92,0,8.43.46,11.39,1.6,1.21,9.16,7.64,22.73,6.81,26.24-1.64-2.49-8.54-1.83-6.46,5.14a14.56,14.56,0,0,1-1.69,2c-2.89,3-3.61,3.45-2.23.84a34.28,34.28,0,0,0,2.43-5.11c0-.4-.28-.49-.53-.17a8.53,8.53,0,0,0-.58,1.26c-1.73,4.06-4.67,7.72-6.71,8.6-.52.23-.49,0-.13-.46a31.68,31.68,0,0,0,5.52-9.37.34.34,0,0,0-.64-.18c-2.24,4.73-2.91,5.8-5.67,9.13-1.08,1.31-2.09,2-2.9,1.9s-.49-.18.16-.87a33.87,33.87,0,0,0,2.39-2.75c2.08-2.62,4.16-6.89,3.4-6.67-.14-.36-.79.78-1.34,1.86-1.52,2.56-3.13,5.95-6.73,8.17a6.49,6.49,0,0,1-2.3.5c-1,0-.42-.29,1.75-1.8s5.6-6.14,6-7.87c.19-.79-.31-.85-.87.23-2.56,5-7.42,9.5-11.87,9.3-2.18-.1-3.35-.7-1.55-.95,4.94-.61,8.64-3.45,11.87-9.1,0-.13-.29-.12-.63.1-3,3.64-6.58,8.6-12.44,8.21A3.88,3.88,0,0,1,63,75c3.07-1.44,5.84,2.5,3.25,4.52a1.52,1.52,0,0,1-1.28.18s.28,0,.79-.39c1.87-1.52-.26-4.5-2.5-3.37a2.37,2.37,0,0,0-.66,3.71c2.46,3,7.77.72,11.48-4.19.38-.51.72-1.64.39-1.52a2.94,2.94,0,0,0-1.26,1.21,11.12,11.12,0,0,1-4.12,3.75,5.25,5.25,0,0,1-1.39.51,2.58,2.58,0,0,0,.67-1.72,5.41,5.41,0,0,1,.69-.58c2.3-1.49,3.66-3.63,3.71-4.95,0-1-.66-2.22.1-2.48,1.29-.61,4.82-.11,5.77,1.11.68.88.94.37.43-1.06-.34-.94-.32-1.47-.83-1.38-.65.35-1.09.27-2.35-.42a10.36,10.36,0,0,0-2.33-.8c-1.19-.27-1.44-.16-1.41-.68a6.18,6.18,0,0,1,0-.88c.19-1.56-1.11-2.1-2.88-3.12-1-.6-.62-1.22.58-4.19.62-1.34,1.15-3.15,1.91-4.52A7.51,7.51,0,0,0,72,48.58c-.86-3.55-1.47-5.36,0-5.68a40.81,40.81,0,0,1,6-.34Zm61,1.71a13.19,13.19,0,0,0,2.85,1.11v8a12.52,12.52,0,0,0-2.56.87h0a8.83,8.83,0,0,1-.28-10Zm-48.56.09,1.38.42c1.38,8.83,5.56,17.06,6.91,25.18,1.41,6.22-5.94,9.68-8.4,4.32a3.23,3.23,0,0,1,1.76-4.07c2.69-1.37,5.58,2.28,3.46,4.28-1.61,1.52-4,.39-3.47-1.55a1.34,1.34,0,0,1,2.56-.07c.09.43.3.85.45.62,1-2.34-2.33-3.43-3.71-1.26a2.64,2.64,0,0,0,3,3.56c3.14-.59,3.43-5.12,2.17-9.81-2.19-8.08-5.7-15.32-6.14-21.62Zm2.39.77,1.43.52c1.56,7,4.17,14.29,5.87,20.49,1.15,4.21,2.44,9-2.1,11.08l-1.31,0A6.67,6.67,0,0,0,98.07,76c5.15-4.73-3.2-18.09-5.13-30.26,0-.13-.08-.59-.08-.59Zm-15.12.43c-2.31-.05-4.53.65-4.36,1.65.13.7.64.87,2.43.64,4-.77,7.75.86,10.63,2.66a7.34,7.34,0,0,0,1.35.81c.13,0,.2-.17,0-.37-2.2-2.78-6.38-5.28-10.09-5.39Zm17.72.37,1.47.6c1.34,7.41,4.64,15.09,6.23,21.76.93,3.91.67,6.38-1.49,8.52a3,3,0,0,1-.68.46h-1.3c3.29-2.79,2.56-6.91,1.34-11.09C98.78,58.45,95.08,46,95.46,45.93Zm2.55,1,1.32.57c1.37,6.4,1.71,6.55,5,16.8,1,3.08,1.9,5.79,1.72,8.36,0,1.46-1.31,4.36-2.65,4.59h-.82c3.14-3.59,1.75-8.49.38-12.59A142.3,142.3,0,0,1,98,46.94Zm2.37.86,1.63.59c1.63,6.53,3.67,12.87,5.4,18.09a19.24,19.24,0,0,1,1.25,6.14,6.21,6.21,0,0,1-2.21,4.59h-1.26A15.16,15.16,0,0,0,106.91,73c.28-3-.67-5.47-1.74-8.86-2.63-8.26-4-10.92-4.79-16.29Zm2.62.93,1.38.41c1.81,5.73,3.44,11.59,5.24,16.54A18.56,18.56,0,0,1,111,72.24a7.7,7.7,0,0,1-2,4.85h-1.21a9,9,0,0,0,1.62-4.65,21.26,21.26,0,0,0-1.23-6.16C106.15,59.41,104.11,54.84,103,48.73Zm-26.72.67c-.34.07-.62.26-.55.61s.42.41.83.3c3.75-1.13,7,1.4,9.93,2.89a.72.72,0,0,0,.44.15c.16,0,.22-.11,0-.31C83.21,50.87,80.74,48.51,76.28,49.4Zm29.15,0,1.46.3c1.82,5.6,3.68,11.58,5.58,16.72,1.15,3.14,1.6,8.5-1,10.82l-1.39,0a9,9,0,0,0,1.65-5,17.62,17.62,0,0,0-1.18-6.24c-2.18-6.18-3.82-11.49-5.14-16.57Zm2.61.48,1.38.19c1,5.86,3.76,11.38,5.32,16.33a17.33,17.33,0,0,1,1.09,7.33,6.8,6.8,0,0,1-2,3.58h-1a16.57,16.57,0,0,0,1.48-4.7,18.77,18.77,0,0,0-1-6.34c-2-5.92-4-11.23-5.27-16.38ZM74.14,50c-.24.09-.1.71.33,1.57s.66.89.49,1.44c-.4,1.25.17,1.5.91.39.56-.87.62-.85,1.15.27.7,1.39.37,2-.69,1.13-.8-.69-1-.18-1.32.36-.41.72-.35,1.36.38,1.3a1.42,1.42,0,0,1,1.15.53,6.2,6.2,0,0,0,3.09,1.82c.39,0,.26-.37-.65-1C76.79,56.27,76.6,56,78.72,56a6.26,6.26,0,0,0,1.86-.51c2.77-.93,2.9-.85,4.22-.54.45.1.89.29,1.09.11s.63-.46.25-.86a6.57,6.57,0,0,0-1.4-.89c-3.21-1.85-3.51-2.29-7.29-2.39-.43,0-.65.21-.9.22A2,2,0,0,1,75,50.45C74.55,50.06,74.28,49.92,74.14,50Zm42,.07c1.46,5.14,3.41,10.34,5.08,15.07,1.28,3.91,3.23,9.7-.38,12.2h0l-1,0c1.75-2.36,2-4.39,1.37-7.34-2.07-8.92-6-14-6.42-19.81Zm-6.08.07,1.62.08c1.09,6.06,4.25,10.46,6,17.85.87,3.21,1.44,6.93-1.63,9.19h-.93a13.47,13.47,0,0,0,1.55-4.06c.16-2.69-.88-5.61-1.82-8.77C113.42,59.52,111,54.84,110.09,50.11Zm2.34.08,1.44,0c1.59,7.15,4.91,12.26,6.64,20.14.61,3.28.08,5.3-2,6.87l-1,0s.15-.28.53-.93c1.82-3.32.82-6.38-.09-9.81C116.29,60,113.16,55,112.43,50.19Zm-32.31,3c-.25.64-.46,1.52-1.3,1.81-.17.06-.29-.08-.28-.13A5.51,5.51,0,0,1,79.11,53c.08-.21.22-.24.42-.28C80.14,52.66,80.26,52.68,80.12,53.2Zm1.37,0c.43.2.81.8.54,1a3.69,3.69,0,0,1-1.62.48c-.27,0-.28-.09-.17-.33A8.5,8.5,0,0,1,81,53.28C81.13,53.05,81.43,53.19,81.49,53.22Zm-5.91,6.53c-.34,0-.35.34.38.79a1.23,1.23,0,0,1-.71,2.24c-.53,0-.9-.25-2.26-1.26-1.12-.83-2.18-.89-2.41.23-.15.67.08,1,.79.8.31-.08.5.1.93.4.92.54,1.82,1.33,2.83,1.1,2.38-.66,2.88-3,1.33-4A1.68,1.68,0,0,0,75.58,59.75Zm5.63,3.47c-.14.2,0,.5.54.57,1.5.5,2,2.27.68,3-.74.39-1.92.14-3.34-.92-2.55-1.9-5.66-2-5.26-.1.1.46.3.53,2.16.78a6.92,6.92,0,0,1,2.86,1.05,5.43,5.43,0,0,0,2.73.77c3.56-.2,3.22-4.57,1-5.31A1.83,1.83,0,0,0,81.21,63.22ZM35.05,75.82c.76,0,1.1.58,1.47,1.09,1.38,1.93,2.37,3.83,3.77,6l-.19,2a1.1,1.1,0,0,0-.57,0c-.4.19-.64.83-.87,1.68S36.11,89.08,35.27,90a.63.63,0,0,0-.28.38c0,.33.94.1,1.56-.61.91-.81,1.3-.53,1.27.5.09,1.28.87.64.91-.61a2.86,2.86,0,0,1,1.12-2.14c1.3-1,1.09-.78,1-2.23-.1-2.52.87-4.6,1.5-3.22.23.49.49,1,1.06,1.07.4,0,.6.41.82,1.39.33,1.58.79,2.6,1.2,4l-12,6.86C31.31,93,29.79,88.9,29,86.24c-.39-1.33-.43-2.84-.09-3s.5,0,.44.81-.07,1.17.21,1.16c.81-.21.84,1,.76,1.32a4,4,0,0,1-.2.44c-.2.48.32.42.86.42s.61.28.59.74.68.41,1.06,0,.27-.76-.2-1c-.67-.42-1.31-1.44-2.89-5-.92-2-.64-3.5.45-3.49.75,0,1.63,2.11,2.35,3.65.18.39-.28.84-.44,1-.42.55-.36.73.26.73s.83,0,1.18.68a1.81,1.81,0,0,1,.18,1c-.3.8.32,1,.92.68s.74-1-.41-2.09c-.73-1.22-.54-1.14.16-2,.15-.29.06-.47-.25-.47-.89.27-1.86-1.34-1.59-1.89.27-.23,1-1.09.29-.93-1.46.4-2.35-1.75-1.49-2.48,1.29-.65,1.59-.45,3.57,3.53.61,1.23,1.35,2.56,1.44,2.69a1.63,1.63,0,0,1,.13.8c-.08.72.22.88.84.59.47-.11.89-.49.3-.86-.69-1.2-.93-1.39-.56-1.69.87-.69.49-.66-.47-.86a1.22,1.22,0,0,1-.85-.68c-.5-1.13-1.38-2.72-1.47-3-.29-.83.24-1.2,1-1.16Zm55.24.54c1.55.66,2.93,1.29,4.17,1.88-3.84,7.58-8.34,10.31-16.26,13.67l.74,3.38C87.37,92.14,92.73,88.35,97,81c5.14.07,25.93.22,26,.15-8.48,9.7-15.17,24.33-15.9,35.74-.18,2.22.13,1.15-.84,1.82l-1.54,1.84-1.21-1.82s-.87-1.11-1.42-.18c-1.55,15.9.09,34,7.71,46.69a6.51,6.51,0,0,1-4-.65,80.63,80.63,0,0,1-5.5-21.46,103.28,103.28,0,0,1,.15-24.55l-.51-.07a103.32,103.32,0,0,0,.38,29.64,76.51,76.51,0,0,0,4.5,15.79c.43,1,.77,1.2.36,1.35-9.29.78-13.56,3.9-16.89,8.87a19.14,19.14,0,0,0-5-2.49,27.61,27.61,0,0,1,16.52-13.21,3.34,3.34,0,0,0-1.26-2.53,10.51,10.51,0,0,1,.36,2.22c-7.75,2-14.57,9.63-16.32,13.56l-34.06.37c25.25-24.35,26.26-58.63,5.66-87.36l2.37-1.39c15.87,23.91,15.71,46.94,11,62.37a61.86,61.86,0,0,1-14,24.07s18.47.26,27.66-.08A38.57,38.57,0,0,1,85.42,164s-4.67,4.53-4.55,5.32c-8.52,0-17.3.5-25.81-.1,10-12,14.86-24.35,15.72-36,0-1.51.12-.67.62-1.22L73,129.59l1.26,2.55c.85.28,2.54-.17,3.25.09,3.5-15.71,0-34.68-4.64-47,2.51-.8,5.27-.05,8.3-1.59a4,4,0,0,1,.93-.74c3.79-1.38,8.22-6.56,8.22-6.49Zm-26.15.17a1.35,1.35,0,1,1-1.34,1.35A1.34,1.34,0,0,1,64.14,76.53Zm31.31,1.53h33.61c-12.91,14-18.83,25.77-19.76,41.73-.89,15.21,3,29.09,14.64,45.8l-2.41,1.6c-20-30.34-19.07-62.58,3.21-87l-28.18,0C93,87.34,87,91.68,79.35,94.35l-.66-2.24c8.78-2.83,13.23-7.53,16.76-14Zm-51.3,1.88c.39.17.17,2.22-.36,2.22s-1.32-1.74-.87-2.08a1.12,1.12,0,0,1,1.23-.14Zm16.29.91a6.37,6.37,0,0,0,1.23,1.38,5.83,5.83,0,0,1-2.13-.74,3.35,3.35,0,0,0,.9-.64Zm1.85,3,4.16,1.6L65.71,90l-4.2-1.68Zm10.2,1.71c5.6,14.48,6.82,32.31,4.63,46.33l-1.46-.06c2.4-23.74-2.31-35.76-6.47-46.21,0,0,0-.42.15-.54A2.82,2.82,0,0,1,72.49,85.59ZM53.54,85c27.67,38.79,10,72-6.09,87.47l-3.3.18a78.34,78.34,0,0,0,7.2-7.77c-6.8-9.4-14.34-19.58-20.69-27.72a15.92,15.92,0,0,0-2.19,1.48c0,.08.18.52.22.42a10.68,10.68,0,0,1,1.78-1.18l20.08,26.52s-1.09,1.31-1.42,1.72c-1.56.52-5.91,5.92-6.12,5.81-3.4-2.62-13.66-13.73-17.62-17.14L25.34,124c.41-1.24,11.35-6,19.08-23.74,3.89-2.18,8.19-3.36,12.2-5.27a15,15,0,0,0-1.52-2c.61,1.33.72,1.58-.67,2.15L25.52,106.92l.05-2.39c2.9-2.26,22.07-16.21,28-19.5ZM37,85.91a23.22,23.22,0,0,0-3.26,3.16c-.26.49,0,.6.1.48a39,39,0,0,1,3.56-2.68,2.85,2.85,0,0,0,1.06-1.23c-.2-.26-1,0-1.46.27Zm29.13,5,3.74,1.69-.95,4.46-3.65-1.77Zm2.92,7,3.29,2.34-1.56,3.6-3.11-2.12Zm-9.63,2.24a91.24,91.24,0,0,1-12.79,23.19c4.08,5.37,15.76,20.85,16.17,20.69h0c5-15.74,3.52-30.78-3.38-43.87Zm-15.73.69A59.84,59.84,0,0,1,36.72,112,77.86,77.86,0,0,1,25.9,122.64l-.18-2.89.71,1.06,1.3-1-.91-1.22-1.13.89-.07-1.16c7.21-5.25,10.33-11.27,13.25-15.79l1.31-.55,1.48.47.72-1.29Zm-4,1.81L39,103.94l1.46.75.77-1.33Zm-1.72.14c-3.35,5.75-7.3,11.08-12.85,15.31L25,107.83Zm.77,1.74-.77,1.35,1.44.81.77-1.33Zm32.14.46,3,2.33-1.49,3.3-3-2Zm44.31.25c-5.23,15.76-3.28,30.53,2.86,44.18,3.64-7.78,7.23-15.8,13-21.86Zm-77.57,1.21-.82,1.33,1.38.85.83-1.29Zm22.2.77c3.19,10,4.63,19.91,1.59,30.64L49.92,123A77.4,77.4,0,0,0,59.77,107.24Zm-23.49,1.19-.91,1.29,1.39.9.89-1.25ZM35,110.28l-1,1.2,1.29,1,1-1.2Zm37.62,1.28L75.1,114l-1.88,3.24-2.44-2.61Zm-39.18.64-1,1.14,1.24,1.08,1-1.14Zm83.18.48,11.34,14.4A104.12,104.12,0,0,0,118.3,142,43.26,43.26,0,0,1,116.57,112.68Zm-84.75,1.25L30.76,115l1.16,1.12L33,115.06Zm-1.65,1.73-1.14,1,1.06,1.13,1.14-1Zm28.71.57-5.27,7.17,6,7.37C60,130.77,60.28,121,58.88,116.23Zm-30.44,1-1.18,1,1,1.17,1.18-1Zm44.62.69,2.24,2.63-2,2.64-2-2.51Zm45.25,1.66a37.45,37.45,0,0,0,.76,15.32l5.24-7.61Zm-13.76,1.57,1.84,2.93-2,2.65-1.94-2.8ZM73.3,124.22l1.91,2.42-2,2.52-1.76-2.38Zm31.18,3,2,2.31-2.07,2.81-2.15-2.52Zm48.18,0c0,.77,0,.91,0,1.28l-.55.39.54.92c0,.47,0,.83,0,2-4.24,3.4-8.58,6.42-13.55,16.07l-1.51.73.09-.26-1.38-.66-.71,1.37.48.19c-.76.44-.77.35-2.25,1.09,0,0,1.11-2.62,1.93-4.16,3.92-6.83,9-13.64,16.9-18.92Zm-1.24,2.19-1.24.9.9,1.24,1.24-.9Zm-2,1.53-1.18,1,1,1.2,1.18-1Zm-1.78,1.47-1.13,1,1,1.13,1.13-1Zm5.43.09.22,9.5-13.09,5.54a33.41,33.41,0,0,1,12.87-15Zm-48.63.62,2.61,2.4-1.66,3.24-2.57-2.45Zm41.35,1-1.05,1.11,1.1,1.06,1-1.1ZM144,136.06l-1,1.17,1.16,1,1-1.16ZM142.45,138l-.94,1.21,1.2,1,.94-1.21Zm-37,1.69,2.94,2.44-1.77,3.31-2.87-2.73Zm35.55.15-.86,1.27,1.26.86.86-1.27Zm-1.27,1.89L139,143l1.3.8.8-1.3Zm13,1.29v2.29s-21.62,8.07-29.4,12.52l-1.19-1.8c10.29-4.1,21.06-9.51,30.59-13Zm-14.23.6-.77,1.33,1.32.77.77-1.33Zm-1.15,2.08-.76,1.33,1.32.77.76-1.33Zm-30.5.5,3.18,2.21-1.47,3.81-3.16-2.31Zm45.66,3.65v78.27H117.86l-8-14.58a3.58,3.58,0,0,0-.5-2.65,3.08,3.08,0,0,1-.42-1.26c-.08-.72-.08-.72-1.13-1.67-.22-.2-.26-.32-.18-.53.35-.88.14-2.69-.54-4.84-.87-2.72-1.1-2.69.52-6.33.34-.76.75-1.77,1.18-2.71,2-4.12,2.31-5.23-1.12-7.43a1.91,1.91,0,0,1-1-2.39c.19-1,.23-1.58-.24-2.13-.3-.35-.57-.41-.5-.69a4.57,4.57,0,0,0,.2-1.67c-.2-1.82,1.91-4.49,3.81-5.45a4,4,0,0,1,.42-.16s.15.34.29.6c2,3.49,6.92,2.07,7.25-2.09a4,4,0,0,0-.07-1.53c6-3.61,9.78-6.06,14.06-8.54,1.87,3.27,1.21,6.17.82,9,0,.49.46.58,1.09.59a3.69,3.69,0,0,0,2.94-2.09c.28-.86.46-1.42.72-1.42s.39.35,1,1.6a18.13,18.13,0,0,0,2.8,4.42c1,1.2,1.85,1.35,2.82.46.68-.62.66-.08,1.24.23,1,.69,2.5.08,2.54-.89,0-.8,0-1.41.85-1.47s1.3-1.23,1-2.91c-.13-.88-.16-1,.11-1.35a2.82,2.82,0,0,0,.51-3.25c-1.37-4.2-3.36-7-5.23-10.85,0,0,4.61-2.71,7.43-4.29Zm-43.53,3.27,3.88,2.19-1.12,4.18-3.85-2ZM149.67,165c.83,1.81,0,3-1,1.55-.42-.57-.2-.93,0-2,0-.2-.15-.12-.49-.18-.54.06-.8-.43-.78-1.25.34-1.18-.13-.55-.36-.49-.42,0-.52-.26-.76-.75-.15-.69-.45-.49-.89,0s-.37.37.37,1.26a18.67,18.67,0,0,1,3.49,6.41,2.21,2.21,0,0,1,0,1.22c-.57,1.3-1.37,1.31-2.24-.51a10.66,10.66,0,0,0-.65-1.11,2.51,2.51,0,0,1-.53-1.68c.26-.65.3-.66.07-.75a3,3,0,0,1-1.57-2.12c0-.91-.2-1.4-.92-.86s-.47.87.34,1.66c.84,1,.89,1.88.39,2.61-.08.24,0,.31.26.28a1.38,1.38,0,0,1,1.25,2.1c-.31.55-.28.69.17.71a2,2,0,0,1,.79.07c.29.54.9,1.3.89,1.93-.28.87-.73,1.22-1.19,1.22h0a2,2,0,0,1-1.49-1.15c-.93-1.58-2.06-4.23-2.78-5.69a1.73,1.73,0,0,1-.17-.87c-.06-.86-.34-1.18-.85-.79s-1.19,1-.38,1.11c.82.62,1.27,1.52.77,2.07s-.23.67.07.69c1.14,0,2.84,3.42,2,4.16-1.08,1-2.28-.24-4.82-5.31-1.12-2.24-1.18-4.69-.21-3.48.32.31.26.15.64-.82a5.28,5.28,0,0,1,1.62-2.13,10.68,10.68,0,0,0,2.18-2.54c.05-.42-.73,0-1.29.72-1.27,1.25-1.32,1.58-1.31-.07,0-1.5.09-1.77-.18-1.76s-.64,1.2-.84,2.63a3.69,3.69,0,0,1-2,2.64c-.3.2-.31.34-.25.9.21,1.82-.82,5.21-1.29,4.37-.06-.19-.27-.63-.38-.94-.08-.48-.38-1-.84-1.05-.57-.43-.57-.66-.76-2.23-.18-1.07-.62-2.05-.84-3.11,0,0,7.52-4.71,11.45-7A69.49,69.49,0,0,1,149.67,165ZM25.4,156l10.2,10.09s.2,13,.19,18.32S35.7,195,35.72,196s0,5.19-.09,9.51c-.06,9.06.76,7.94-.91,9.67l-9.21,8.66Zm86.49,3.77,4.93,2.29-.92,4.81-4.7-2.24Zm31.57,1.1c-1.21,1.61-2.88,2.3-3.9,3.76-.16.28,0,.39.25.38a3,3,0,0,0,1.48-.91c1.35-1.23,3.13-3.25,3.14-3.63-.34-.19-.74.09-1,.4ZM105.6,165.6c1.41,0,.91.36-.38,1.19-2.75,1.78-6.62,6.9-7.25,8.71-.14.43,0,.68.29.65,2.27-3.65,5.27-7.67,8.75-9.35,1.88-.9,4.24-1.08,5.41-.51.85.42.64.57-.88.66-3.64.37-7.91,3.8-10,7.44-1.24,2-.37,1.55,1-.39,2.41-3.32,7.19-6.49,10.16-6.24s4.73,2.51,4.35,4.52a3.49,3.49,0,0,1-2.77,2.81c-2.88.6-4.76-4-2.13-4.84a2.47,2.47,0,0,1,1.44.07c-2.77.57-1.45,3.61,0,3.68a2.11,2.11,0,0,0,2.29-2.17c0-1.2-1-2.38-3-2.41-2.34,0-5.94,1.67-8.12,4.79-1.55,2.39-.12,1.58,1,0a13.33,13.33,0,0,1,4.45-3.3,4,4,0,0,0-.12,1.62c0-.28-5,3.17-4.65,5.74.19,1.87-.09,2.44-2,2.41-1.44,0-3.28-.52-3.81-1.19s-1.17-.87-.89.25c.44,1.8-.09,2.1,1,1.75.71-.23,1.35.35,2.07.86a4.68,4.68,0,0,0,3,.76c.9,0,1.3,0,1.16.87a3,3,0,0,0,0,1.53c.28.64,1.4,1.29,2.66,2.23,1.49,1.1,1.22,1.17-2,8.52-1.33,3.09-1.34,3.73-.54,6,1.26,3.6,1.46,5.05-.9,5.55a37.1,37.1,0,0,1-4.12.23,44.39,44.39,0,0,1-12.6-1.92c-2.54-12.88-7-21.53-7-26.58,1.84,1.64,4.69,2.12,6.62-.5,1.22-1.6,0-3.83.62-4.77,1.18-1.74,4.22-5,4.73-4.86s.31.24-1,2.25-2.4,4-2,4.47c.19.19.29-.22,1.3-2,2.38-4.16,4.48-6.73,5.31-6.4.38.16.18.5-1.58,2.84-2,2.65-2.54,4.3-2.34,5,.15.56.46-.35,1.28-2a56.1,56.1,0,0,1,3.76-5.47,3.4,3.4,0,0,1,1.6-1.36,4.34,4.34,0,0,1,1.75-.51c.24,0,.08.17-.25.49a30.3,30.3,0,0,0-6,8.38c-.19.37.08.89.4.5,1.9-3.36,4.54-7.55,7.41-9.41a5.49,5.49,0,0,1,2.39-.66Zm-69.31,1.49,6.21,6,13.31-.17c-2.19,3.58-2.24,6.42-.82,9.78,2.39,5.49,6.09,18,5.8,18a.56.56,0,0,1-.4.34,2,2,0,0,0-1.49,2.61c.06.41.05.32-.23.86a4,4,0,0,0,.21,3.87L47.21,228.07H25.65v-3.36l10.64-10.82v-8.11c4.06,1.55,7.38,7.24,8.49,11.58C55,209.79,55.47,193,44.33,184.44c-.1,3.71-3.06,11-8,11.54Zm79.95.62c.86.13,3.16.79,2.08,1.31l-1,.46A3.51,3.51,0,0,1,116.24,167.71ZM135.06,169c.05.26.05.52.12.56.42.27-.28,1.05-.93,1s-.62-1.83-.24-2.35c.59-.83,1,.27,1.05.75ZM114,170.75a1.3,1.3,0,1,1-1.29,1.29A1.28,1.28,0,0,1,114,170.75Zm-26.29,4.51a3.3,3.3,0,0,1-1.83,4.56c-3.47,1.24-6-3.2-2.61-4.57,1.76-.71,3.43.57,2.64,2.05a1.37,1.37,0,0,1-2.49-.14c-.3-1.15-.8-.61-.58.17a2.05,2.05,0,0,0,4-.39c0-2.82-3.07-3.48-4.9-1.9-1.42,1.27-1.57,3.55-1.21,5.54.48,4.12,2.8,9.46,4.45,15.56A85.71,85.71,0,0,1,87.63,206l-1.23-.35s-3.84-13.18-6-19.61c-1.67-5.23-3.12-11.68,3-13.07a4.24,4.24,0,0,1,4.33,2.34Zm-8.07-2.48v0h1.68s0,.1-.73.66c-4.08,3.07-1.65,9.83-.1,15,2.68,8.31,5.08,16.81,5,16.8l-1.69-.66c-.93-5.4-5.29-15.71-6.83-23.41-.43-4.63-.5-6,2.62-8.46Zm-8,0,1.16,0c-4.42,8.3,2.27,16.89,4.91,29.6l-1.57-.48C73.92,192.51,65.7,177.06,71.56,172.79Zm-1.84,0h.49c-2,3.1-1.66,7-.57,11.22,1.46,5.67,4.3,11.91,5.25,17.5a8.44,8.44,0,0,0-1.7-.55c-1.66-7.13-4.69-14.14-6.07-20.78C66.66,176.58,67.45,173.86,69.72,172.82Zm4.18,0h1.33a9,9,0,0,0-1.5,6c.52,8.45,4.81,16.66,6.36,24.45l-1.46-.54C76.94,193.43,68.58,179.53,73.9,172.82Zm2.88,0h1.45c-1.55,1.55-2.59,2-2.15,7.4.68,6.93,5.23,15.59,6.83,24.16l-1.59-.61s-.42-1.24-.57-2c-1.55-6.89-5.75-14.63-6.24-22.69C74.4,176.49,74.85,174,76.78,172.84ZM62.05,173h1c-1.95,2.33-1.86,5.52-1,8.95,1.38,5.66,4.71,12.49,5.55,18.16L66.15,200c-1.39-6.08-4.09-12-5.84-18.07a14.46,14.46,0,0,1-.5-4.29c.24-2.58,1.31-4.62,2.24-4.62Zm3.44,0c-1.88,2.52-2.15,5.14-1.29,8.54,1.76,7,4.42,13,5.74,18.83l-1.35-.25c-1.57-5.61-4.25-12.56-5.86-18.35-1-3.56-.59-7.94,1.62-8.75Zm-7.28,0c-1.34,1.26-1.8,3.38-1.59,5.58.61,6.21,5,14.84,6.57,21.46l-1.55.32a170.2,170.2,0,0,0-5.79-17.75c-1.56-3.13-1.09-7.76,1.25-9.59Zm2.2,0c.17,0-1.57,2.7-1.42,5a12.92,12.92,0,0,0,.44,3.85c2.18,6.27,4.33,12,6,17.93l-1.4.06c-1.92-7.43-5.63-14.09-6.53-21.14a6.63,6.63,0,0,1,1.8-5.69Zm6.28,0h1.4a7.82,7.82,0,0,0-1.71,7c.52,3,2.05,7.7,3.31,11.85,1.47,4.81,2.66,8.89,2.52,8.92l-1.58-.24c-3-13.8-9.54-22.37-3.94-27.49Zm30.36,9a3.06,3.06,0,0,0-2.94,1.81c-.39,1.29-.08,3.66,2.52,3.66.88,0,1.44-.66.33-.86-3.95-.71-1.3-4.83,1.49-2.71,2.51,2.28,5.87,2.27,5.91.65,0-.41,0-.42-.61-.54a21.58,21.58,0,0,1-4.29-1.31,11.07,11.07,0,0,0-1.1-.5,3.66,3.66,0,0,0-1.31-.2ZM45,185.75c10.06,9.18,8.2,22.34.46,30l-.56-1.64c4.27-2.46,9.5-16.19-.1-26.26Zm58.5.6c-1.84,0-3.32,1.75-2.17,3.55a2,2,0,0,0,1.32.84.35.35,0,0,0,.12,0c.1-.06-.13-.47-.46-.93-1.53-2.07.59-2.69,2.08-1.58s3.63,1,3.31-.15c-.11-.42,0-.62-.8-.63a2.05,2.05,0,0,1-1.52-.49A3.19,3.19,0,0,0,103.48,186.35Zm-58.93,2.18c7.57,7.7,5.89,18.86.16,25.26-1.47-3-3.14-5.74-5.41-7.39A12,12,0,0,0,39,195.84c1.45-.8,3.47-2.94,5.57-7.31Zm52.78,3.05c-.85,0-.49.52.49.9a4.54,4.54,0,0,1,2.14,1.68c0,.22-.3.09-2,.56a17.69,17.69,0,0,0-2.25.88,2.92,2.92,0,0,1-1.91.3c-2-.06-2.25,0-.88,1,2.77,2.07,6.46,3.41,8.42,2.55.59-.26.58-.1,1,.15a2.86,2.86,0,0,0,1.32.47c.58,0,.59-.54-.34-1.35-.56-.5-.52-.33-.48-.64.13-1.35-.08-2.58-.63-1.2-.15.37-.36.79-.58.74-.4-.13-.2-.88-.39-1.26-.34-.67,0-.84.82-.63.59.15.62-.17,1-.57.63-.7.53-1.12-.44-.9a.94.94,0,0,1-.42,0,4,4,0,0,1-1.31-.82,9.58,9.58,0,0,0-3.09-1.81,2.45,2.45,0,0,0-.43,0Zm1.82,4.11c.15,0,.31,0,.36.06.18.27-.43,1.53-.78,1.7s-.39,0-.52-.14,0-.25,0-.4c.22-.41.62-1.19.62-1.19l.28,0Zm-1,.16-.58,1.07c-.12.23-.18.31-.27.31a1,1,0,0,1-.25-.07c-.5-.2-1.37-.61-1-.93a3.66,3.66,0,0,1,2.09-.38Zm-59.75.71c2.72,4.75.48,9.47.3,9.25l-2.45-.92v-7.65Zm53.15.54c-.18,0-.27.14-.17.38a8.39,8.39,0,0,0,2.12,1.59c2.06,1.25,4,2.33,6.17,2.35a7.2,7.2,0,0,0,2.31-.36c.83-.32.72-1,0-.84l-1,.18c-1.89.33-4.22-.35-7-2.07-.69-.42-1.43-.81-1.61-1a1.18,1.18,0,0,0-.71-.28Zm-1.53,2.41c-.45.05.1.89,1.45,1.71,3.48,2.11,7,3.68,10.45,3.53,2.55-.11,3-.3,3-.86,0-1-.41-1.52-2.78-1.26a15.83,15.83,0,0,1-7.08-1c-2.33-1-2.89-1.25-3.73-1.69a3,3,0,0,0-1.28-.45ZM93.37,208a67.88,67.88,0,0,0,14,.44c.85-.06.9,2,.9,2,.6,6.29,5,11.5,8.1,18.34-22.54-.61-45.22.05-67.93-.12,0,0,8.25-14.45,10.75-19,.55-1,.61-1.71.31-2.12a2.12,2.12,0,0,1,.1-2.36c.55-.26.33-.71.09-1.23-.41-1.39.64-2.35,1.73-2.79,11.27-1.92,21.51,4.91,32,6.82Z"/><path id="path6353-8" class="cls-3" d="M129.16,21.21s-9,17.51-12.15,22.11c-17,1.83-13.36-6.83-48.42-6.75L61,21.43Zm15.68,17.44.24,48.44L142.79,85l-.54-48,10.22-9.84.05,2.88Zm-6.19,5.45c-2.43,4.93.29,10.94.29,10.94-1.42-.35-5.35,7.16-5.7,6.94-6-7.43-7.06-18.49.29-25.34a19.57,19.57,0,0,0,5.12,7.46Zm-4.49,33.8c-4.58,4.7-8.2,8.36-11.83,13.62-.3.43,19.3,25.46,19,25.9-3,3.36-7.08,5.83-10.23,9.88,0,0-16.07-21.15-16.44-21C113,113,111.84,119,112.15,125.87c1,17.7,8.51,28.54,8.57,28.33,6.39-25.49,33.63-41.94,32.47-39.15l0,11.37c-.3-.57-12.88,7.28-19.94,24.1-.4,1-12.35,4.89-12.27,5,.51,1.31,5.79,8.82,5.79,8.82a21.55,21.55,0,0,1-2.37,1,68.7,68.7,0,0,1-13.76-30.54c-2.13-11.56-3.5-33.28,19.54-57ZM65.09,107.79a64.28,64.28,0,0,1,1.85,31c-2.53,14.74-11.8,25.29-19.23,33.34l-3.26-.11a46.93,46.93,0,0,0,11.19-13.93L36.41,132.86l-11,2.38s.33-11.31,0-11.31c8.52-7.09,14.64-13.5,19-23.83,2.7-1,11.63-4.88,11.63-4.88,2.66,3.55-12.32,29.2-9.42,28.1,1.32,1.1,16,21,16.24,20.92,6.75-20.78.17-42.59-11.71-57.83a8.56,8.56,0,0,1,2.46-1.36c5.08,7.1,9.54,15.57,11.42,22.74Zm35.12,10.42C99.45,117,96,143.56,105,164.8c-.85.65-8.27,2.08-8.27,2.08l-2-6.36,5.06-2.15-.93-3c-3.93,1.92-12.43,4.75-17.67,13.49,0,0-25.42.22-26,.17s5.18-5.55,10.6-16.69a50.58,50.58,0,0,0,4.85-19.41c.09-1.52,5.82,7.18,5.82,7.18-1.43,7.36-5.25,14.6-9.06,21.84,0,0,5.84.34,9.93.22,6.35-7,10.33-10.66,19.91-14-2.19-11,4-12.13-20.1-15.63,2.73-14.24,1.52-31.3-4.31-47.53a30.78,30.78,0,0,0,8.73-1.52l2,5.92-5.45,2.52.89,3.34s12-3.65,17.89-14.17l26.27,0c-10.13,11.06-14.26,22-16.46,36.45-2.15-.39-6.56.68-6.56.68ZM35.59,213.67c-3.3,2.78-9.93,10-9.93,10L25.57,220l7.52-7.87L33,163.52,35.57,166Zm3.48-17.78c1.35-.65,4.06-3.85,5.34-7.43,8.72,7.83,5.13,22.22.36,25.22-1.39-3.14-5.4-7.31-5.3-7.22C40.39,203.17,41.09,199.83,39.07,195.89Zm77.19,32.62L49,228.39c3.84-7.59,7.36-13.73,11.43-21.21,2.12-2.57,48,8.31,48.26,7.23Z"/><path id="path6355-9" class="cls-4" d="M152.61,30.88l.45,63.8-7.64-7.46-.46-49ZM117.54,43.24c1.58.77,0,2.77,1,4.39-1,3.25-9.35,1.69-14.46.55-12.74-3.32-15.62-7.62-33.18-6-.15-.24-1.94-4.88-1.82-5.37C84.18,33.8,103.47,45,117.54,43.24Zm-27.24,33a9.65,9.65,0,0,0,4.56,1.63c-2.59,4.59-5.73,8.76-11,11.38l-2.44-6.07a25.54,25.54,0,0,0,8.85-6.94Zm31.84,15.77a27.93,27.93,0,0,1,4.4-5.53c6.35,8.56,20.54,26.78,20.54,26.78l6-3.07A35.86,35.86,0,0,1,153,114c-16.27,8.43-27.43,24.36-32.35,39.28,0,0-2.62-2.68-2.27-3.82a75.28,75.28,0,0,1,23-32.43Zm-20.29,17.36-20.54,0-.91-7.18c7.87-2.65,14.36-8.06,20.43-14.32l9.74.17c-3.2,7-7.63,14.17-8.72,21.36Zm-76,30.25c-.66-2,0-4.21-.25-4.12,24.6-12.23,31.63-39.09,31.63-39.09s2.34,3.72,2.23,4.3c-12.73,28.46-21.25,29.3-22.89,32.4l19.37,25.2-4.38,6L30.75,137.16C28.68,138.12,27.5,138.92,25.81,139.66Zm12.13-36.82c-4.17,7.54-8.47,11.93-12.76,15l.21-10Zm115,29.61-.1,9.66-12.67,5.48C143.68,139.91,148.44,135.8,153,132.45ZM96.5,141.14l.75,6.79a56.49,56.49,0,0,0-20,14.06c-5.9.29-9.92-.11-9.89,0a81.32,81.32,0,0,0,9-20.94ZM32.77,212.51l-7,7.11L25.54,156l7,6.86ZM94.3,160.8l2.23,6.3c-3.5,1.32-6.14,4.19-8.61,7a7.16,7.16,0,0,0-4.79-2.32C87.5,164.94,91.18,162.67,94.3,160.8Zm13.13,47.68s.88.51.78,1.22c-.29.93.93,3,.93,3-14.91,4.55-36.62-8.25-49.51-5.56a10.3,10.3,0,0,1,.33-2.83c-.41-1.82-.7-1.88,1.07-3,9-2.58,18.59,2.91,27.43,5.54,7.22,2.29,13.08,1.7,19,1.58Z"/><path id="path6357-5" class="cls-5" d="M130.21,20.78l-70.08.13,8.43,15.87s-.68,2.62.67,2.93a1.12,1.12,0,0,1,.77.89,2.66,2.66,0,0,0,.81,2.14A47.56,47.56,0,0,1,88,43.35c10.74,3.22,19.32,8,28.91,6.13a2.23,2.23,0,0,0,1.69-3c-.23-.57-.59-.57-.17-.92.46-.54.71-1.79.2-2.25s-.76.25-.12-.92Zm-1.42.75-5.74,10.66a2.73,2.73,0,0,0-3.12,3.18c-2.25-1.61-4.68,2.41-1.38,3.57-2.7,2.83-6.69.21-6.45,0,3.84.73,4.05-3.59,1.54-4.3,3.45-4.76-5.58-6.61-3.92-.73-4.58-.83-3.75,4.41-.35,4.36-.79,1.95-7.07.47-6.8-1,4.24-.45,2.55-4.34.71-4.35,4.44-4.23-4.45-8.12-4.21-1.75-3.57-.75-4,4-.56,4.32-1.25,1.77-5.74.66-7-1.38,3.54-.47,3.32-3.59.55-4.1,3.51-4.49-5.13-6.15-4.23-.93-3.1-1.07-4.79,3.08-.78,4.27C83,35.84,78.5,32.17,79,32.1c4.69.28,3.76-4.45.36-4.19,2.16-4.9-6.39-5.18-4.22-.09-3.85-.07-3.51,4.41.18,4.71-2.32,1.7-4.94,1.85-6.62.26,3.5-.93,2-5-1.48-3.89-.33-3.43-3.1-2.7-3.16-2.6l-2.49-4.66Zm24.82,3.84L142.14,36.88l.15,47.74c-2.44-2.31-4.52-4.76-7.31-7l-4.77,0c-12.46,12.74-19.28,23.65-20.78,43.17-1,13.07,3.32,29.5,14.76,45.42l2.8-1.71-5.52-8.37,11.7-5.21c4.66-9.88,10.18-19,20.28-24.22l.06-12.79.18-.26-.14-4-5,2.69c-1.5-2.2-6.3-8.58-11-14.76-5-6.54-9.67-12.66-9.67-12.66l-.32.25.65-.8L149,111.75s3.28-1.62,4.25-2.16l-.14-13.89.57,0Zm-1.31,1.95.08,2.56L144.63,38q0,24.12.09,48.25l-1.91-1.9-.26-47.55ZM77.57,28a1,1,0,0,1,.7,1.62c-1,1.73-.26,3.18,2.29,4.52,3.59,1.89,9.45-.23,8.24-3-.77-.89,0-1.52,1-1.48s1.54.81.8,1.64c-.92,1.06-.68,2.13.39,3.36,3.23,4.61,9.75,2.78,8.89-1.26-.38-1,.69-1.41,1.81-1,.72.29.61,1.39-.17,1.79-.9.09-1,1.39-.92,2.23.16,1.22,2,2.42,3.72,3.06a8,8,0,0,0,3.41.47,2.85,2.85,0,0,0,2.76-3.56c-.19-1.2.14-2.44,1.53-1.78.77.36.58,1.23-.2,2-2.75,2.7,2.78,6,6.11,3.72a2.5,2.5,0,0,1,1-.55c-2.09,5.23-8.64.33-8.58.12-6.9,3.87-9.82-1.48-10.81-2.34-6,1.34-7.22.68-10.59-3-6,3-9,.45-11.49-1.15-3,2.78-6.72,2.86-8.67,1.46a10.67,10.67,0,0,1-.92-1.63c0-.18.25,0,.93.52,3.55,2.56,9.44-.62,7.86-4-.42-.91-.35-1.3.28-1.66a1,1,0,0,1,.68-.18ZM66.28,29.8c1,0,1.3,1.67.75,2a18.48,18.48,0,0,1-1-2l.22,0Zm86,1.74.43,62.67-7-7-.39-48.67ZM77.51,34.21a12.18,12.18,0,0,0,2.19,1.53l-3.8-.24A9.82,9.82,0,0,0,77.51,34.21Zm11.28,1.16a20.44,20.44,0,0,0,1.83,1.79l-3.49-.85Zm31.93.53c.16,0,.12.24-.21,1-.16.34-.31.61-.43.61-.3-.24-.09-.91.15-1.14A1.88,1.88,0,0,1,120.72,35.9Zm12.9.49c-9.49,9.68-5,21-.14,26.51,1.06-3.85,6.1-7.85,6-7.94-2.17-3.41-2-8.36-.2-10.93,0,.06-3.9-3.19-4.45-4.87A7.29,7.29,0,0,0,133.62,36.39Zm-.21.54.61,1c-6.85,8-3.94,17.84,0,22.5l-.74,1.44c-9.21-11.5-3.14-22,.08-25Zm-60.79.21c7.43-.09,15.72.47,22,2.94,7,2.1,13.46,6.14,23.1,3.43.28,0,.42.42.4.8a1.09,1.09,0,0,1-.46.9c-12.59,3.2-19.33-3.64-29.39-5.54a72,72,0,0,0-15.78-1.05c-2.44.25-3,.17-2.94-.86C69.54,37.12,69.47,37.13,72.62,37.14Zm26.74,1.2,1.85,2.31L97,39.07A12.26,12.26,0,0,0,99.36,38.34Zm34.79.76c.06,0,.13,0,.24.13.59.67-1,.73-.41,0,.07-.07.12-.13.17-.14ZM74.63,40a57.66,57.66,0,0,1,24.46,4.75c6.18,2.34,11.85,3.12,16.34,2.43,2.46-.38,2.83-.44,2.82.23-.48,2.07-3.14,1.88-5.08,1.89a40.69,40.69,0,0,1-15.76-3.49A46,46,0,0,0,72.08,42,1.24,1.24,0,0,1,71,41.67c-.78-.86-.25-1.41,1.68-1.59l2,0Zm60,.41a1.55,1.55,0,0,1,1,.45c.48.63-.13,2.39-.77,2.38S133.66,41,134,40.6A.73.73,0,0,1,134.58,40.44Zm-24.3.37a18,18,0,0,0,2.56,1.85,31.79,31.79,0,0,1-5.69-.5A19,19,0,0,0,110.28,40.81Zm22.7.3c.18,0,.32.29.48.87.35,1.23.32,1.37-.38,1.55-.41.1-.76.31-1.16.37s-.29-.63.4-1.95C132.61,41.38,132.81,41.1,133,41.11Zm3.54,1.32,1.92,1.65a11.26,11.26,0,0,0,.24,10.49l-2,1.88C133.91,50.84,134.08,46.46,136.52,42.43ZM134,44.08c.37,0,.63.12.69.46-.15.9-.6,2.46-1.1,2.35-.77-.17-2.06-2.22-.93-2.55A5.58,5.58,0,0,1,134,44.08Zm6.47.57-1.3,4.64,1.43,4.77.72-.22-1.36-4.56,1.24-4.42Zm-9.33.81c.48,0,1.78,1.42,1.76,1.86a10.54,10.54,0,0,1-1.94,1.49c-.27.2-.25.09-.25-.14a13.1,13.1,0,0,1,.28-3.11A.15.15,0,0,1,131.11,45.46Zm2.61,2.62c.27,0,.24.4.22,1.54,0,.86,0,1.42-.19,1.44a3.37,3.37,0,0,1-1.19-.7c-1.27-1-1-1.64.46-2.11.25-.08.43-.14.57-.17ZM131,50.13a2.09,2.09,0,0,1,.74.51c1,.86,1.13,1.06.25,1.77-.26.21-.6.49-.77.49-.36,0-.52-.68-.56-1.85C130.63,50.35,130.71,50.06,131,50.13Zm2.83,1.8c.4,0,.61.42.93,1.82.2.93.34,1.3.09,1.29a4.33,4.33,0,0,1-1.35-.23c-1.87-.57-1.93-1.82-.14-2.72A1.45,1.45,0,0,1,133.83,51.93Zm-1.89,3.14a3.91,3.91,0,0,1,1.94.76,4,4,0,0,1-.81,1.83c-.46,0-1.12-1.51-1.19-2.57,0,0,0,0,.06,0Zm3.12.67a.27.27,0,0,1,.24.09c.17.35.38.65.54,1s.07.64-.37,1.07c-.6.56-1.08.6-1.53.26C133.78,57.9,134.49,55.84,135.06,55.74ZM134.18,59l.46.09-.31.6C134.27,59.47,133.91,58.93,134.18,59ZM90.37,75.86a28,28,0,0,1-8.93,7l-.18.52a16.55,16.55,0,0,1-1.91.52,9,9,0,0,0-1.26.3,3.35,3.35,0,0,1-1.82.35,11,11,0,0,0-3.83.39c5.75,15.94,7.11,30.32,4.86,47-2.11,0-6.76-.1-6.76-.1a65.21,65.21,0,0,1-2.49,13.83,53.49,53.49,0,0,1-7.64,15.82c-2,3-3.78,5.2-5.86,8L81,169.54c3.51-5.93,10.26-10.88,15.69-12.94,1.85-.7,2.11-.6,2.42.28.55,1.56.52,1.49-.93,1.91-7.09,2.51-11.48,7-15.13,12.7-.39.61-.48.86-.31,1,2.38-.37,3.85,1.16,5.28,2.29,1.51-2.18,4-5.06,6-5.91a2.93,2.93,0,0,0,1.76-1,1.27,1.27,0,0,1,1.39-.48,6.63,6.63,0,0,0,2.82-.71,4.63,4.63,0,0,1,2.1-.46,7.55,7.55,0,0,0,2.63-.59c.92-.27.59-.54.06-1.73a89.65,89.65,0,0,1-5.31-21.56,101.18,101.18,0,0,1,.5-23.66c2.57,0,4.19.12,6.89.07,1.85-15.09,6.86-27.08,16.87-37.86l-27.07-.07C93.63,89.1,79.48,95.45,79,95l-.75-3s10.18-1.46,17-14.45c-.7.43-3.26.13-4.94-1.63Zm.06.61a9.32,9.32,0,0,0,3.94,1.75A24.86,24.86,0,0,1,84,89l-2.23-5.87a26,26,0,0,0,8.69-6.64Zm43.35,1.44c-14.72,14.2-21.24,26.35-21.75,42.38-.59,18.43,5,30.7,14.44,43.77l-2,1.15c-9-12.07-15.52-28.45-14.44-44.6,1-18.79,8.12-29.62,20.56-42.63ZM115.91,81.2h6.64l-4.86,6.3-5.87-.18ZM97,81.25h17.86l-4,6.23-10.57.05A43.22,43.22,0,0,1,80.56,101.6s-1-5.82-1.26-6.25C88.8,91.75,94.35,86.43,97,81.25Zm12.55.18-2.42,2.79L109,86.65l2.66-2.45Zm-5.67.25-2.18,2.84L104,86.78l2.23-2.38Zm-6.41.15L97,85.51l3.24,1.77.38-3.59Zm18.91.38-2.32,3.57,2.82.12,2.69-3.69ZM81,83.81l2.07,5.69a5.7,5.7,0,0,1-1.78.72l-1.74-6Zm-2.12.69,1.72,6a13.68,13.68,0,0,1-2.1.77L76.63,84.9Zm-25.37.22L51.06,86.2l-.39-.26-25.87,15v4.54l30-12.67a14.47,14.47,0,0,1,1.45,2.13l-12,5.15c-3.61,10-11.77,18.25-19.37,24.06,0,9.91.08,30.66.08,30.66L43,172.9a78.32,78.32,0,0,0,6.43-6.71L28.7,138.69l1.84-1.2L51.1,164.84l-.53.61c-.36-.46-4.54-5.84-9.34-12.09-5-6.51-10.31-13.48-11.4-15.15l-.44.29c1.14,1.76,6.41,8.67,11.42,15.19,4.84,6.29,9.1,11.77,9.4,12.17-2.18,2.52-4.5,4.8-6.82,7.08l4.13-.06c2.9-3,23.91-22.45,20.37-51.85-1.51-12.58-5-23.45-14.34-36.31Zm22.14.1C79.55,95.9,82.63,111.67,79.5,132c0,0-1.12,0-1.62,0,3.21-16,.26-33-4.69-46.88Zm-22.19.33c18.43,24.83,21.76,61.57-6.4,86.92L44.69,172a80.21,80.21,0,0,0,5.7-5.87l.16.2L51,166l-.21-.28c21.57-24.91,18.77-54.72.69-79.29Zm74,.12s4.68,6.1,9.64,12.63c4.67,6.14,9.47,12.53,11,14.69l-.72.38L126.8,86.12Zm-1,1.5,20.21,26.29-5.1,3.7-19-25.08Zm-33,0-.12,3.55,3.21.5,0-3.79Zm17.9,1.41,1.92.09L110.69,90l1.62,2.08,2.59-1.7-1.44-2.11,3.79.09-2.61,4s-5.58-.16-5.58-.16Zm-1.09.12c-.21,0-7.84,14.46-8.72,20.75l-19.93.09-.78-6.76a45.52,45.52,0,0,0,19.9-14c1.06.07,9.53-.07,9.53-.07Zm-20.5,2.16-.63,3.31,2.86.62.57-3.3Zm32.33,2,18.73,24.89-2,1.37L120.61,94.54Zm-13.45.58,5.63.16L111.81,98l-5.54-.07Zm-23.47.29-.4,3.4,3,.82L88.11,94Zm25.28,0-2.63,1.78,1.69,2.37,2.73-1.77Zm-29.34,2-1,3,2.79,1.5.88-2.83ZM54.73,96c.83,1-.49,5.7-2,2.72-.34-.61-.79-1.49-.79-1.49l.8-.3c.65,2.22,1.24,1.39,1.31-.56a3.66,3.66,0,0,0,.73-.37Zm2.72,1.36,1.67,3.13c-10.55,26.12-24.76,33.83-33.35,39.05l0-3.66C48.72,124.42,57.32,97.36,57.45,97.36ZM51,97.58a12.65,12.65,0,0,1,1.35,2.8c.07.42-.14.58-.61.84-1.26.62-2.67,1-3.69.47-.3-.5.94-3.3.94-3.3Zm68.37.61a5.41,5.41,0,0,1,2.77,1.25c1.71,1.39,2.45,3.25,2.65,6.9.13,2.34.3,2.82,1,1.85,1.22-2.15,4.14-1.1,4.51,1.18.2,1.21-.86,2.08-1.2,1-.9-2.28-3.12-1.73-2.76.53.24,1.49,1.72,2.31,4.65,3.14,3.52,1,4.57,2.21,5.25,5.11.31,1.29.26,2-.42,2.63-.33.33-.76.67-.76.67s-.47-2-.66-2.86c-.35-1.66-2.68-1.57-2.41.16.15,1,.18,1-.32,1-2.4-.12-2-3.92.78-3.63.58-.07.66-.3.17-.51a17.38,17.38,0,0,0-2.63-.68c-3,0-7.36-4.64-7.25-8.77.07-2.7-.84-4.65-1.77-4.87-.74-.17-1.81.5-1.72,1.33.13,1.14-.8.79-1.33,0-.81-1.14.24-2.77,2.17-2.64.82-.16-.61-.69-1.66-1-1-.06-.15-1.24,0-1.46a.94.94,0,0,1,.61-.27Zm-13.44.43,5.64,0-1.81,4.77-5.7-.06Zm-58,.26a57.27,57.27,0,0,1-22.22,27.7l0-2.68c1.8-1.33,13.24-9.66,19.16-23.69Zm59.87.08-2.62,1.82,2,2,2.73-1.74Zm-53.26,1.56a.59.59,0,1,1-.58.58A.58.58,0,0,1,54.53,100.52Zm4.95.51c5.63,13.23,7.69,26.12,3.3,42.74L47,123.15c4.72-6,9.42-13,12.51-22.12Zm-6.9.78c.3,0,.32.38.24,1.2-.22,2-1.53,4.13-2.33,4.2-.27,0-.62-.5-.73-.95a9.43,9.43,0,0,0-1.67-2.59c-.74-.83-.7-1,.37-1a14.11,14.11,0,0,0,3.23-.62A2.2,2.2,0,0,1,52.58,101.81Zm-14,.53-13.88,5.38,0,10.94a46.57,46.57,0,0,0,13.84-16.32Zm12.58.7c-.55,0-1.54.53-1.61.87s.69,1.4,1.1,1.45c.69-.11,1-1.68.86-2.22C51.43,103,51.3,103,51.12,103Zm-13.68.18a49,49,0,0,1-11.73,14l-.14-9Zm78.81,0L132.67,125l-1.54,1.54-15.94-20.58Zm-69.3.65c1,0,2.62,3.71,2.12,4.38-.26.37-2.2.2-3.24,0s-1.17-.21-.83-1.06a16.25,16.25,0,0,1,1.76-3.31.33.33,0,0,1,.19-.06Zm56.75.17,5.88.11-1.42,5.13-6,0Zm2.39.24-2.87,1.95,2.26,2.28,2.77-1.91Zm8.7,2.55,15.86,20.75A68.77,68.77,0,0,0,118,149.2,61.6,61.6,0,0,1,114.79,106.84Zm-64,1.31a.58.58,0,1,1-.58.58A.58.58,0,0,1,50.79,108.15Zm-6.42.75a1.5,1.5,0,0,1,.7.14c1.25.54,4.15,0,4.22.25.44.62-.21,2.31-1.44,3.48a3,3,0,0,1-1.46,1c-.31,0-.37-.44-.61-1.19a21.14,21.14,0,0,0-1.6-3.41C44.12,109,44.2,108.91,44.37,108.9Zm-.9,1.22c.49-.12,1.06.93,1.55,2.5s.22,1.81-.63,1.83a8.75,8.75,0,0,1-1.12,0c-2.17,0-2.9-.15-2.26-1.22.84-1,1.34-2,2.26-3a.41.41,0,0,1,.2-.13Zm3.85.07a1.28,1.28,0,0,0-1,.43,1.12,1.12,0,0,0,.46,1.44c.33.17,1.26-1.22,1-1.64a.58.58,0,0,0-.51-.23Zm54.8.06,5.81.13-1.06,6.09Zm50.52.53,0,3c-18.51,10.59-26.1,23.11-32.45,39l-1.76-3q9.63-24.66,29.95-36.65l0,0,.44-.29v0c1.23-.71,2.48-1.39,3.76-2Zm-105.88,4a.58.58,0,1,1-.58.58A.58.58,0,0,1,46.76,114.8Zm-6.43,0c.23,0,.78.21,1.59.3,1.09.11,2.83-.07,3.26.23.19.25,0,.9-.33,1.62a5.87,5.87,0,0,1-2.06,2.3c-1.7.79-1.3-.21-1.58-1.23-.15-.59-.4-1.34-.58-1.87C40.18,115.15,40.09,114.85,40.33,114.81Zm-1.11,1c.44,0,.75.57,1,1.68.57,1.87.7,2.59-.73,2.43a8.4,8.4,0,0,1-1.62-.16c-1.67-.35-1.86-.5-.86-1.68l1.23-1.46C38.65,116.15,39,115.89,39.22,115.86Zm113.46.12v1.62c-1.36.48-2.23,1.63.06,2l0,1.28c-1.05-.38-2-.94-3-1.31-.7-.24-.51-.81.22-1.61a7.3,7.3,0,0,1,2.72-2Zm-109.56.23a1.79,1.79,0,0,0-.72.08c-.57.21-.18,1.58.37,1.58s1.27-1.11.95-1.49A1,1,0,0,0,43.12,116.21Zm104.41,1.93a.58.58,0,1,1-.58.58A.58.58,0,0,1,147.53,118.14Zm-48.8.43a7.51,7.51,0,0,1,1,.14c-.2-.07-.89,8.78-.84,14.34a87.39,87.39,0,0,0,6,31.54,9.31,9.31,0,0,1-2.73.73c-2.6-7.95-4.91-16.51-5.2-24.62-.25-8.84-.38-14.17,1.09-21.94,0-.1.14-.16.29-.18A1.92,1.92,0,0,1,98.73,118.57Zm-12.86.18h6.35V123h4.53l-.37,4.8H92.22V132H85.87v-4.22h-5l.39-4.8h4.58ZM35.74,120a1.27,1.27,0,0,1,.72.21,7.76,7.76,0,0,0,3.18.53c1-.08,1,.2.69,1.06-.53,1.53-2.58,3.17-3.55,3.17-.32,0-.53-.16-.52-.57a19.36,19.36,0,0,0-.57-3.36c-.22-.65-.2-1,.05-1Zm113.09.15a6.38,6.38,0,0,1,2.76,1.08c1.09.62,1.3,1,.75,1.39-.93.57-3.65,2.76-4.15,2.63-.66-.57-.53-4.17.21-4.94A.58.58,0,0,1,148.83,120.11Zm-106.57.15a.59.59,0,1,1-.58.58A.58.58,0,0,1,42.26,120.26Zm104.7.06c.36,0,.51.2.41.58-.41,1.58,0,4.08-.13,4.66a20.84,20.84,0,0,0-4.12-1.39c-.45-.06-.57-.15-.36-.55a6.58,6.58,0,0,1,3.33-3.13A2.61,2.61,0,0,1,147,120.32Zm-112.43.51c.5,0,.84.84,1,2.24s-.08,2.24-1.21,2.06A5.25,5.25,0,0,1,33,125c-2-.45-2.43-.91-.73-2.26a13.1,13.1,0,0,0,1.48-1.36c.29-.35.54-.51.77-.51Zm3.36.76a1.32,1.32,0,0,0-.7.11,1.73,1.73,0,0,0,.08,1.56c.58.2,1.75-1,1.4-1.46A1.35,1.35,0,0,0,37.89,121.59Zm107.94.6a1.63,1.63,0,0,0-.72.35c-.73.52-.7.84.12,1.34.42.36.89.4,1,.19a2.77,2.77,0,0,0-.1-1.61C146.1,122.27,146,122.18,145.83,122.19Zm-4.34.71a.58.58,0,1,1-.58.58A.58.58,0,0,1,141.49,122.9Zm-54.95.41v4.2H91.6v-4.2Zm66.13,0,.05,2.88c-13.9,8.43-19.91,24.2-19.91,24.21l-3.24,1.23c4.53-10.85,10.72-20.32,23.1-28.32ZM46.83,124l15.62,20.48-1,2.58L45.22,125.58Zm-16.09.88a1.76,1.76,0,0,1,.64.27,6.91,6.91,0,0,0,2.7.88c.93.08,1,.46.71,1.08a6.47,6.47,0,0,1-3.62,2.45c-.68.23-.32-1.84-.6-3.77C30.52,125.1,30.53,124.83,30.74,124.83Zm112.85.17c1.33.11,3.12.86,3.11,1.52a14.67,14.67,0,0,1-3.32,2.83c-.73,0-1.55-3.87-.89-4.21A2.14,2.14,0,0,1,143.59,125Zm-2.7.28c.38,0,.53.26.49.93a8,8,0,0,0,.72,2.92c.32.7.68,1.17.33,1.18a12.09,12.09,0,0,1-1.43-.43,9,9,0,0,0-2.32-.36c-1.58,0-1.79,0-1.11-1.32a7,7,0,0,1,2.36-2.56A2.76,2.76,0,0,1,140.89,125.28Zm-111.46.06c.45-.06.6.43.64,1.67.06,1.85-.14,2.85-1.12,2.87a5.21,5.21,0,0,1-1.92-.61c-1.85-.91-1.8-1.12.71-2.91A4.71,4.71,0,0,1,29.43,125.34Zm7.1.64a.58.58,0,0,1,0,1.16.58.58,0,0,1,0-1.16Zm-4.61.51c-.2,0-.28.16-.25.5.12,1.21.08,1.34,1.16.66.6-.38.85-.65,0-1a2.43,2.43,0,0,0-.88-.21Zm108.25.57a.86.86,0,0,0-.71.39c-.71.82-.56,1.19.46,1.41a2.41,2.41,0,0,0,1,0c.47-.11,0-.71-.23-1.24-.14-.34-.34-.53-.56-.56Zm-98,1.55c.29,0,.37.55.4,1.14.18,3.19,4.64,3.69,3.08.86-.51-.91-.19-1.27.73-.8,1.45.73,1.93,2.47.52,3.27-1.67.68-1.11.82,1,1.55,4.56,1.57,6.51,4.44,6.75,9.91-.09,2.49.25,3.38,1.42,3.72s2.27-1,1.51-1.77c-.42-.39-.76-.75-.54-1,.71-.69,2.48.43,2.46,1.63,0,.79-.3,1-1.47,1.88-.33.25-.05.74.42.74,1.79-.58,1.67,1.81.7,1.88-3.29-.09-6.76-3.7-6.4-6.68.24-2.1-.16-3.65-.73-2.8-1.25,1.9-5,.64-4.92-1.64,0-1.21.83-1.41,1.29-.32.68,1.62,2.6,1.66,2.89,0s-1.08-2.76-4.66-4.06c-4.2-1-6.89-4.9-5.23-6.95.34-.43.58-.59.75-.57Zm93.55,0a.58.58,0,0,1,0,1.16.58.58,0,1,1,0-1.16Zm-110,1c.89.27,1.45.65,2.47,1,.62.21,1,.36.44,1A10.43,10.43,0,0,1,25.84,134v-1.34c1.68-.75,1.52-1.44,0-1.82Zm113.45.56a3.85,3.85,0,0,1,2.55.87,38,38,0,0,1-3.3,3.71c-1.2-1-1.36-2.91-1.32-4.33a6.85,6.85,0,0,1,1.54-.25Zm-3.14.32c.27,0,.31.27.38,1a21.46,21.46,0,0,0,1.22,4.13c-1.08-.08-2.32-.44-3.46-.43h0c-1.37,0-1.77.12-1.76-.39a5.19,5.19,0,0,1,2.81-4,2.87,2.87,0,0,1,.81-.31Zm-105.33,0a.58.58,0,1,1-.58.58A.58.58,0,0,1,30.76,130.5Zm122.89,1.1a40.89,40.89,0,0,0-14.23,16.65l14.15-6Zm-115,.09,18.47,24.08-1.34,2L36.88,133.1Zm96.34.76a.86.86,0,0,0-.46.28c-.57.62-.65,1.11-.29,1.37a3.71,3.71,0,0,0,1.52.25c.54,0,.26-.37-.14-1.32C135.44,132.62,135.23,132.43,135,132.45Zm17.73.44,0,9.06-12.1,5.12A36.94,36.94,0,0,1,152.72,132.89Zm-81.81.39,5,7.18-6,0Zm-34.7.35,19,24.75-4,5.28-20-26.33Zm94.95.77a.57.57,0,0,1,.58.58.58.58,0,1,1-1.16,0A.57.57,0,0,1,131.16,134.4Zm2.44,1.44a8.84,8.84,0,0,1,3.36.57c.37.33-.83,1.71-1.5,2.69-.35.41-.73,1.52-1.26,1-.94-.88-2.13-4-1.52-4.21a3.08,3.08,0,0,1,.92-.08Zm-2.33.54c.46.05.72.61.89,1.64a7.92,7.92,0,0,0,1.27,2.43c.62.9.37,1.05-1.2.68a15.19,15.19,0,0,0-3.45.1c-1-.07-.05-3.23,1.43-4.38A1.65,1.65,0,0,1,131.27,136.38Zm-.51,1.82a1.19,1.19,0,0,0-.55.33c-.84.74-.49,1.53.66,1.49.91,0,1-.15.54-1.14C131.19,138.38,131,138.16,130.76,138.2Zm-3.8,2.65a.59.59,0,1,1-.58.59A.58.58,0,0,1,127,140.85Zm-30.61.43a51.08,51.08,0,0,0,.63,6.49c-8.48,3.12-15,7.78-19.87,13.95l-9.11.05c2.75-5.14,6.54-11,8.67-20.48Zm-26.51,0,6,.09-1.57,4.67-5.7-.06Zm61.56.29c.89,0,2,.21,1.89.63a24.11,24.11,0,0,1-2.45,4c-.53,0-1.72-1.83-2.05-3.14-.25-1,0-1.18,1.85-1.46A3.16,3.16,0,0,1,131.4,141.61Zm-59.13.26-2.81,1.74,2.26,2.19L74.37,144ZM127.58,143c.31,0,.54.25.68.89a8,8,0,0,0,1.37,2.57c.81,1.05.8,1.08-.39,1.15s-2.39.62-3.42.74c-1.39,0-.7-3.74,1.11-5a1.26,1.26,0,0,1,.65-.32Zm25.77,1.23-30.82,13.29L127,164.1l26.41-15.48Zm-26,1c-.28,0-.52.21-.74.71s0,.75.55.76c1,0,1.34-.47.72-1.13A.93.93,0,0,0,127.39,145.26Zm-59.32,1.82,5.92,0-1.84,4.34-5.57-.1Zm2.81.31-3.09,1.45L69.54,151l2.78-1.61Zm58.53.89c.59,0,.68.41.25,1.35-.86,1.84-1.19,2.83-1.76,2.83s-1-.55-1.57-1.61c-.88-1.54-.85-1.64.58-2.08a14.4,14.4,0,0,1,2.21-.48Zm-5.73,0a.59.59,0,0,1,.58.59.58.58,0,0,1-1.16,0A.59.59,0,0,1,123.68,148.28Zm-26.59.34.51,2.52-3.12-.84-.66,3.09,3.11,1,.67-3.2.81,4a31.64,31.64,0,0,0-17.59,13.66l-17.39-.08,3.82-6.06,10.31-.13A43.37,43.37,0,0,1,97.09,148.62ZM124.84,150a1.13,1.13,0,0,1,.55.4c.29.31,1.59,2.44,1.59,2.44l-1.11.56c-1.35-2.17-1.35-1.12-1.86.73l-1.29.59c-.16,0,.52-3.82,1.53-4.52a.83.83,0,0,1,.59-.2Zm-58.72,2.25,5.68.09-2.37,4.79-5.73,0Zm1.78.07-2.39,1.91c-.05,0,1.75,2.51,1.75,2.51l2.58-2.16Zm21.92.1-.59,3.49,3.11.65.79-3.26ZM85.44,155l-.59,4,2.93.6.85-3.35Zm-60.51.05s.1,47.21.24,70L36,213.94l0-47.85Zm.91,1.3,6.44,6.47v49.81l-6.44,6.49Zm37.39,1.55L69,158l-2.11,3.9-6-.09Zm2.13.29-2.83,1.08,1.83,2.21L66.93,160Zm33.93.6,2.08,6.62-1.71.37-2.28-6.36Zm-14.9.64-3.5.08.26,3.49,3.35-.17Zm12.39.25,2,6.42-1.69.67-2.21-6.15ZM94.19,161l2.12,6c-5.2,2.43-6.59,4.87-8.43,6.86a7.1,7.1,0,0,0-4.47-2.28A29.8,29.8,0,0,1,94.19,161Zm-34,1.69,6.28,0-4.08,6.06-6.87,0Zm17.56.13-.45,3.4,3.15,1.6.42-4Zm-3.91.21-2.26,2.57,2.35,2.62,2.39-2.66Zm-4.78.18-2.51,2.47,2,2.6,2.41-2.53Zm-35.57.8L35.34,166V213.3l-9.5,10v-2.76l7.62-7.9Zm26.89.06L58,167.61l3.52.07,2.26-3.55Zm-16,24c-1.3,2.94-3,6.69-5.86,7.88,2.1,4.19,1.82,8.38.33,10.68a21.41,21.41,0,0,1,5.68,7.82c6.72-6,7.81-18.25-.15-26.38Zm.16.56c5.31,5.62,7.63,17.52,0,24.67l-.46-1.15c6-7.37,4.14-17.05-.2-22.22ZM43.19,192a.41.41,0,0,1,.19,0c.39.08.56.64.18,1.37s-.8,1.27-1.27,1.21-.47-1.38.22-2.15a1.17,1.17,0,0,1,.68-.43Zm1.58.78c.25,0,.53.38,1,1.35s.7,1.7.35,1.73a3.81,3.81,0,0,1-2.18-1.17c-.34-.4.11-1.17.59-1.75a.34.34,0,0,1,.24-.16Zm-3.65,1.77c1.12.47,3.59,9.73.22,13.48l-1.77-1.5A13,13,0,0,0,39.22,196C39.44,196,40.72,194.72,41.12,194.51Zm2.34,1a3.09,3.09,0,0,1,2.1.93c.34.53-.64,2.13-1.35,2.55a.41.41,0,0,1-.53,0,6.43,6.43,0,0,1-.72-3.39.68.68,0,0,1,.5-.14Zm-6.1.84-.72.22L38,201.1l-1.24,4.42.73.21,1.3-4.64Zm9.19,1c.32-.05.51.44.58,1.57,0,.66.1,1.17-.1,1.2a4,4,0,0,1-1.09-.57c-.8-.47-.82-.68-.13-1.57.3-.39.54-.61.74-.63ZM44,199.51c.61,0,1.88.44,2.09,1.22s-1.07,1.75-1.91,1.74a.58.58,0,0,1-.38-.12l-.14-2.77c0-.06.13-.08.34-.07Zm21.86,1.09c-4.73,0-7.25,1.21-6.35,3.45.58.58.19.8-.06,1.15-1,1-.44,1.78.17,2.92l-11.76,21.1,69.17.18-2.72-5.16.47-.32c-.74-1.24-1.37-2.64-2.13-3.87l-.55.06c-.89-1.72-1.25-2.36-2.43-4.4h.53c-.27-.91-1-1.51-1-2.16,0-.81.2-1.64-.3-2.19s-.65-.83-.53-1.21a1.6,1.6,0,0,0-1.52-2,47.37,47.37,0,0,1-19.8-1.88c-6.69-2-12.53-5-19-5.55q-1.15-.08-2.16-.09Zm-.87.34c8.7-.2,14.67,3.54,22,5.72a45.81,45.81,0,0,0,20,1.91c1,.09,1,.66,1,1.22a48.55,48.55,0,0,1-24.74-3c-8.29-3.13-17.41-6.26-23.4-3.46,0,0,0-1.19.64-1.53a6.23,6.23,0,0,1,2.75-.8c.6,0,1.2-.08,1.78-.1Zm-18.08.63c.33,0,.36.62.2,1.85-.13,1-.3,1.62-.56,1.62s-.6-.57-1-1.31c-.35-.58-.28-.8.5-1.5C46.42,201.79,46.72,201.57,46.91,201.57Zm-3.07,1.6c.24,0,1.92,1.42,1.75,2.16-.34.93-1.51.73-2.23.7l.45-2.83a0,0,0,0,1,0,0Zm21.16.62h.86c5.13.13,11.42,2.32,16.15,4.08a57.33,57.33,0,0,0,25.8,3.39c.54.11,1,1.53.1,1.54-11.49.13-9.63,1.57-27.5-3.7-6.94-2-12.5-5.25-20.53-2.4l0-1.57A9.85,9.85,0,0,1,65,203.79Zm-18.87,2.54c.29,0,.24.33,0,1s-.52,1.14-.79,1.15-.42-.22-.68-.65c-.49-.84-.42-1,.53-1.31a3.25,3.25,0,0,1,1-.22Zm-3.16.78a8,8,0,0,1,1.34,1.63c.3.78-.61,1-1.49,1.07L42,208.72Zm23.49.36a12.61,12.61,0,0,1,4.87.76l-3.77,1.29-2.62-2c.49,0,1-.05,1.52-.06Zm-3.95.8a6.13,6.13,0,0,1,4.94,2.24c4.17-2.42,7.87-1.91,11,2.15a10.57,10.57,0,0,1,10.83,3.12c4.24-2.14,8.18-1.24,11.67,1.15,2.59-2.46,5.32-2.85,8.15-1.67l.84,1.7c-.21.08-1.13-1.7-5.56-.87-1.49.28-4.05,2.79-2.61,4,.65.93.67,1.35.09,1.92a1.26,1.26,0,0,1-1.87-.29,1.29,1.29,0,0,1,.24-1.42c1.55-1.94-3.34-5.32-6.86-4.73-2.68.45-5,2.06-4,3.29.8,1,.28,2-.69,2s-1.78-.79-.92-1.88c1.91-2.42-1-5.25-5.47-5.31-3.15,0-4.2.74-4,3,.08,1.05-.13,1.35-.86,1.51-1.17.25-1.76-1.09-.79-2.12,2.1-2.22-.28-5.48-4.24-5.69-1.45-.08-1.74,0-3.35.91-1.27.72-1.71,1.8-1.09,2.64a1.22,1.22,0,0,1-1.52,1.85c-.89-.38-1.32-1.07-.34-2.22,1.29-1.53.64-2.69-1.81-3.63a4.49,4.49,0,0,0-3.52-.16,6,6,0,0,0-1.55,1c.61-1.05,1.15-2,1.15-2a5.88,5.88,0,0,1,2.16-.53Zm14.06,1.18a38,38,0,0,1,4.92,1.88l-2.64.55Zm-14.4.92h.52a3.73,3.73,0,0,1,2.42,1c-2.75-.37-3.72,3.28-.36,4.1-4.43,3.31,3.87,8.26,4,1.42,3.91.69,3.4-4.5.92-4.91,1.27-1.4,5-1.44,6.94,1.52-3.31-1.73-5.1,2.74-1.66,4-4.25,3.74,4.07,7.19,3.88,1.14,3.13,1.87,5.29-2.89,1.1-3.62.24-.86,5.72-.87,7.11,1.35-3.89-.89-4.06,3.86-.63,4.25-3.45,4.39,5.29,6.62,3.82.62,3.38,1.34,4.66-2.89,1.37-4.25-.18-.67,5.32-1.24,7.25,1.19-4.23.64-2.75,4.76,0,4.43,0,0,0,.12-.19.52-1.3,4.14,5.66,4.49,4.7.1-.16-.41-.33-.95-.33-.95,1.92.4,3.09-.39,3-2.2-.47-2.4-1.74-2.23-3.35-1.75-.68-.71,3.89-3.09,6.77-1-3.52,1-1.74,5.16,1.2,4.6.12,1.32,1.55,3.17,3.42,2.27l2,3.9H49.14l5.72-9.93a3,3,0,0,0,3.82-2.4c4,1,3.37-4.15,1.37-4.5-.07-.41.92-.88,2.12-.93Zm-18.05,0c.31,0,.61,0,.49.18l-.57.71-.44-.62C43.5,210.52,43.81,210.42,44.12,210.39Zm14,2.17c.44.5.57,1.55-.77,1.58Zm29.65.77,3.6.77-1.89.91Zm11.15,1.47,3.66,0L101,216.09Zm11.76,3.77s.08,0,.15.14.89,1.39.86,1.43c-.35,0-.7-.34-.85-.62h0c-.19-.37-.25-.91-.16-1Z"/><path id="path12536" class="cls-4" d="M130.52,184.89c4.15,6.85,8.51,13.51,14,19.2-5.46,5.69-9.82,12.35-14,19.2-4.15-6.85-8.51-13.51-14-19.2C122,198.4,126.37,191.74,130.52,184.89Z"/><path id="path12538" class="cls-4" d="M164.47,193.47a45.14,45.14,0,0,0,5.82,8,45.5,45.5,0,0,0-5.82,8,45.5,45.5,0,0,0-5.82-8A45.14,45.14,0,0,0,164.47,193.47Z"/><path id="path12540" class="cls-4" d="M48.06,64.55c4.15-6.86,8.52-13.52,14-19.2-5.45-5.69-9.82-12.35-14-19.2-4.15,6.85-8.51,13.51-14,19.2C39.55,51,43.91,57.69,48.06,64.55Z"/><path id="path12542" class="cls-4" d="M14.11,56a45.14,45.14,0,0,1,5.82-8,45.5,45.5,0,0,1-5.82-8,45.5,45.5,0,0,1-5.82,8A45.14,45.14,0,0,1,14.11,56Z"/><path id="path12544" class="cls-4" d="M163.83,214.89h-2.65l3.9,9.74,3-4.11,0-5.63H166V212h7.37v2.91h-2.43v21h2.43v2.54h-7.48v-2.63h2.06l0-10.21-6.54,10.3h2.31v2.54h-8v-2.54h2.1l5.38-8.42L158,214.88h-2.34V212h8.19l0,2.91Z"/><path id="path12546" class="cls-4" d="M14.75,34.56H17.4l-3.9-9.75-3,4.12,0,5.63h2.1v2.91H5.26V34.56H7.69v-21H5.26V11.07h7.48v2.62H10.68l0,10.22,6.54-10.3H14.86V11.07h8v2.54H20.72L15.34,22l5.27,12.54H23v2.9H14.77l0-2.91Z"/></g></g></g></svg>