<svg xmlns="http://www.w3.org/2000/svg" viewBox="0 0 178.58 249.45"><defs><style>.cls-1{fill:#fff;}.cls-2{fill:#d40000;}</style></defs><g id="Layer_2" data-name="Layer 2"><g id="svg8"><g id="g6725"><path id="rect6554-0" class="cls-1" d="M8.54,0H170a8.53,8.53,0,0,1,8.54,8.53V240.92a8.53,8.53,0,0,1-8.54,8.53H8.54A8.53,8.53,0,0,1,0,240.92V8.53A8.53,8.53,0,0,1,8.54,0Z"/><path id="path6584-3" class="cls-2" d="M89.29,64.56c-4.15-6.86-8.51-13.52-14-19.2,5.46-5.69,9.82-12.35,14-19.2,4.15,6.85,8.52,13.51,14,19.2C97.81,51,93.44,57.7,89.29,64.56Z"/><path id="path6586-2" class="cls-2" d="M13.77,56A44.16,44.16,0,0,0,8,48a44.51,44.51,0,0,0,5.82-8,45.5,45.5,0,0,0,5.82,8A45.14,45.14,0,0,0,13.77,56Z"/><path id="path6590-7" class="cls-2" d="M164.81,209.47a45.5,45.5,0,0,0-5.82-8,45.14,45.14,0,0,0,5.82-8,45.14,45.14,0,0,0,5.82,8A45.5,45.5,0,0,0,164.81,209.47Z"/><path id="path6600-5" class="cls-2" d="M89.29,143.92c-4.15-6.85-8.51-13.51-14-19.2,5.46-5.68,9.82-12.34,14-19.2,4.15,6.86,8.52,13.52,14,19.2C97.81,130.41,93.44,137.07,89.29,143.92Z"/><path id="path6606-3" class="cls-2" d="M89.29,223.29c-4.15-6.85-8.51-13.51-14-19.2,5.46-5.69,9.82-12.35,14-19.2,4.15,6.85,8.52,13.51,14,19.2C97.81,209.78,93.44,216.44,89.29,223.29Z"/><path id="path17-2-9-4-8" class="cls-2" d="M5.2,31.68l2-1.49C9,33.06,11,35,14,34.63c4.53-.31,6.41-5.06,5.46-8.64a5.25,5.25,0,0,0-7.65-3.06,7.29,7.29,0,0,1-1.51.74c-.32,0-1-1.41-.93-1.84a93.46,93.46,0,0,1,6.86-8H8.63v3.43H5.72V11.07H20.55v2.09a50.86,50.86,0,0,0-5.29,6.38A7.17,7.17,0,0,1,22,25a14.35,14.35,0,0,1-.41,7.29,9.16,9.16,0,0,1-7.44,5.21c-5,.33-7.66-3.17-9-5.77Z"/><path id="path17-5-3-3-8" class="cls-2" d="M173.38,217.77l-2,1.49c-1.76-2.87-3.73-4.76-6.75-4.44-4.53.31-6.4,5.06-5.46,8.63a5.25,5.25,0,0,0,7.65,3.07,7.29,7.29,0,0,1,1.51-.74c.32,0,1,1.41.93,1.84a93.46,93.46,0,0,1-6.86,8H170v-3.43h2.91v6.15H158v-2.09a50.86,50.86,0,0,0,5.29-6.38,7.19,7.19,0,0,1-6.78-5.41,14.35,14.35,0,0,1,.41-7.29,9.17,9.17,0,0,1,7.44-5.21c5-.34,7.66,3.17,9,5.77Z"/></g></g></g></svg>