<svg xmlns="http://www.w3.org/2000/svg" viewBox="0 0 178.58 249.45"><defs><style>.cls-1{fill:#fff;}.cls-2{fill:#d40000;}</style></defs><g id="Layer_2" data-name="Layer 2"><g id="svg8"><g id="g6735"><path id="rect6622-5" class="cls-1" d="M8.54,0H170a8.53,8.53,0,0,1,8.54,8.53V240.92a8.53,8.53,0,0,1-8.54,8.53H8.54A8.53,8.53,0,0,1,0,240.92V8.53A8.53,8.53,0,0,1,8.54,0Z"/><path id="path6654-0" class="cls-2" d="M13.77,56A44.16,44.16,0,0,0,8,48a44.51,44.51,0,0,0,5.82-8,45.5,45.5,0,0,0,5.82,8A45.14,45.14,0,0,0,13.77,56Z"/><path id="path6656-6" class="cls-2" d="M130.7,64.56c-4.14-6.86-8.51-13.52-14-19.2,5.45-5.69,9.82-12.35,14-19.2,4.15,6.85,8.52,13.51,14,19.2C139.22,51,134.85,57.7,130.7,64.56Z"/><path id="path6658-8" class="cls-2" d="M164.81,209.47a45.5,45.5,0,0,0-5.82-8,45.14,45.14,0,0,0,5.82-8,45.14,45.14,0,0,0,5.82,8A45.5,45.5,0,0,0,164.81,209.47Z"/><path id="path6660-7" class="cls-2" d="M47.88,64.56c-4.15-6.86-8.52-13.52-14-19.2,5.45-5.69,9.82-12.35,14-19.2,4.15,6.85,8.51,13.51,14,19.2C56.39,51,52,57.7,47.88,64.56Z"/><path id="path6676-4" class="cls-2" d="M47.88,223.3c-4.15-6.85-8.52-13.51-14-19.2,5.45-5.69,9.82-12.35,14-19.2,4.15,6.85,8.51,13.51,14,19.2C56.39,209.79,52,216.45,47.88,223.3Z"/><path id="path6678-8" class="cls-2" d="M130.7,223.3c-4.14-6.85-8.51-13.51-14-19.2,5.45-5.69,9.82-12.35,14-19.2,4.15,6.85,8.52,13.51,14,19.2C139.22,209.79,134.85,216.45,130.7,223.3Z"/><path id="path19-3-1-9-0" class="cls-2" d="M14,37.47V35.14h2.1V31.29H5.54V28.57l11.39-17.5h1.86V28.57H22v2.72H18.79l-.06,3.85h1.76v2.33Zm2.1-20L8.83,28.58h7.23Z"/><path id="path19-4-46-7-7" class="cls-2" d="M164.62,212v2.33h-2.1v3.85H173v2.71l-11.39,17.51h-1.86v-17.5h-3.22v-2.71h3.22l.06-3.85h-1.76V212Zm-2.1,20,7.23-11.1h-7.23Z"/></g></g></g></svg>