<svg xmlns="http://www.w3.org/2000/svg" viewBox="0 0 178.58 249.45"><defs><style>.cls-1{fill:#fff;}.cls-2{fill:#d40000;}</style></defs><g id="Layer_2" data-name="Layer 2"><g id="svg8"><g id="g6746"><path id="rect6690-8" class="cls-1" d="M8.54,0H170a8.53,8.53,0,0,1,8.54,8.53V240.92a8.53,8.53,0,0,1-8.54,8.53H8.54A8.53,8.53,0,0,1,0,240.92V8.53A8.53,8.53,0,0,1,8.54,0Z"/><path id="path6722-9" class="cls-2" d="M13.77,56A44.16,44.16,0,0,0,8,48a44.51,44.51,0,0,0,5.82-8,45.5,45.5,0,0,0,5.82,8A45.14,45.14,0,0,0,13.77,56Z"/><path id="path6724-6" class="cls-2" d="M130.7,64.56c-4.14-6.86-8.51-13.52-14-19.2,5.45-5.69,9.82-12.35,14-19.2,4.15,6.85,8.52,13.51,14,19.2C139.22,51,134.85,57.7,130.7,64.56Z"/><path id="path6726-3" class="cls-2" d="M164.81,209.47a45.5,45.5,0,0,0-5.82-8,45.14,45.14,0,0,0,5.82-8,45.14,45.14,0,0,0,5.82,8A45.5,45.5,0,0,0,164.81,209.47Z"/><path id="path6728-7" class="cls-2" d="M47.88,64.56c-4.15-6.86-8.52-13.52-14-19.2,5.45-5.69,9.82-12.35,14-19.2,4.15,6.85,8.51,13.51,14,19.2C56.39,51,52,57.7,47.88,64.56Z"/><path id="path6736-0" class="cls-2" d="M89.29,143.92c-4.15-6.85-8.51-13.51-14-19.2,5.46-5.68,9.82-12.34,14-19.2,4.15,6.86,8.52,13.52,14,19.2C97.81,130.41,93.44,137.07,89.29,143.92Z"/><path id="path6744-9" class="cls-2" d="M47.88,223.3c-4.15-6.85-8.52-13.51-14-19.2,5.45-5.69,9.82-12.35,14-19.2,4.15,6.85,8.51,13.51,14,19.2C56.39,209.79,52,216.45,47.88,223.3Z"/><path id="path6746-2" class="cls-2" d="M130.7,223.3c-4.14-6.85-8.51-13.51-14-19.2,5.45-5.69,9.82-12.35,14-19.2,4.15,6.85,8.52,13.51,14,19.2C139.22,209.79,134.85,216.45,130.7,223.3Z"/><path id="path21-9-8-2-7" class="cls-2" d="M5.45,30.64l2.59,0c.49,1.59,1.59,3.21,3.07,3.66a6.18,6.18,0,0,0,7.77-4.13c1.08-3.34,0-8-2.91-9.68-2.39-1.38-5.94-.22-7.57,2.73L6.59,22.06l1-11H19.4v2.6H9.81l-.16,4.58A7.6,7.6,0,0,1,17,17.82c3.91,1.9,5.72,6.22,5,11.31-1.05,5.06-3.37,7.93-8.61,8.34-5.83.05-7.88-4-7.86-6.83Z"/><path id="path21-3-0-8-6" class="cls-2" d="M173.13,218.81l-2.59,0a5.33,5.33,0,0,0-3.07-3.66,6.18,6.18,0,0,0-7.77,4.13c-1.08,3.33,0,8,2.91,9.68,2.39,1.38,5.94.22,7.57-2.73l1.81,1.13-1,11H159.18v-2.6h9.59l.16-4.58a7.6,7.6,0,0,1-7.31.43c-3.91-1.9-5.72-6.22-5-11.31,1.05-5.06,3.37-7.93,8.61-8.34,5.83,0,7.88,4,7.86,6.83Z"/></g></g></g></svg>