<svg xmlns="http://www.w3.org/2000/svg" viewBox="0 0 178.58 249.45"><defs><style>.cls-1{fill:#fff;}.cls-2{fill:#d40000;}</style></defs><g id="Layer_2" data-name="Layer 2"><g id="svg8"><g id="g6758"><path id="rect6758-6" class="cls-1" d="M8.54,0H170a8.53,8.53,0,0,1,8.54,8.53V240.92a8.53,8.53,0,0,1-8.54,8.53H8.54A8.53,8.53,0,0,1,0,240.92V8.53A8.53,8.53,0,0,1,8.54,0Z"/><path id="path6790-5" class="cls-2" d="M13.77,56A44.16,44.16,0,0,0,8,48a44.51,44.51,0,0,0,5.82-8,45.5,45.5,0,0,0,5.82,8A45.14,45.14,0,0,0,13.77,56Z"/><path id="path6792-5" class="cls-2" d="M130.7,64.56c-4.14-6.86-8.51-13.52-14-19.2,5.45-5.69,9.82-12.35,14-19.2,4.15,6.85,8.52,13.51,14,19.2C139.22,51,134.85,57.7,130.7,64.56Z"/><path id="path6794-1" class="cls-2" d="M164.81,209.47a45.5,45.5,0,0,0-5.82-8,45.14,45.14,0,0,0,5.82-8,45.14,45.14,0,0,0,5.82,8A45.5,45.5,0,0,0,164.81,209.47Z"/><path id="path6796-2" class="cls-2" d="M47.88,64.56c-4.15-6.86-8.52-13.52-14-19.2,5.45-5.69,9.82-12.35,14-19.2,4.15,6.85,8.51,13.51,14,19.2C56.39,51,52,57.7,47.88,64.56Z"/><path id="path6806-6" class="cls-2" d="M47.88,143.9c-4.15-6.85-8.52-13.51-14-19.2,5.45-5.69,9.82-12.35,14-19.2,4.15,6.85,8.51,13.51,14,19.2C56.39,130.39,52,137.05,47.88,143.9Z"/><path id="path6808-6" class="cls-2" d="M130.7,143.91c-4.14-6.85-8.51-13.51-14-19.2,5.45-5.69,9.82-12.35,14-19.2,4.15,6.85,8.52,13.51,14,19.2C139.22,130.4,134.85,137.06,130.7,143.91Z"/><path id="path6812-0" class="cls-2" d="M47.88,223.3c-4.15-6.85-8.52-13.51-14-19.2,5.45-5.69,9.82-12.35,14-19.2,4.15,6.85,8.51,13.51,14,19.2C56.39,209.79,52,216.45,47.88,223.3Z"/><path id="path6814-4" class="cls-2" d="M130.7,223.3c-4.14-6.85-8.51-13.51-14-19.2,5.45-5.69,9.82-12.35,14-19.2,4.15,6.85,8.52,13.51,14,19.2C139.22,209.79,134.85,216.45,130.7,223.3Z"/><path id="path23-5-3-5-5" class="cls-2" d="M6,29.35a52.21,52.21,0,0,1,0-9.67c.82-5.2,2.81-7.58,6.14-8.36s7.78.08,8.77,4.43l-2.7.06c-1.46-2.94-5.16-2.16-7.25-.88-1.66,1-2.41,5.28-2.09,5.54,0,0,3.14-2.33,5.62-2.16,5.3.55,7.49,5.15,7.3,9.49-.17,5.22-1.82,9.39-7.44,9.67C9,37.26,6.53,34.35,6,29.35ZM19.19,28c0-3.62-1.61-6.34-4.73-6.63s-6.25,2.73-6,6.42,1.65,6.83,5.43,6.81C17.91,34.56,19.17,30.55,19.19,28Z"/><path id="path23-6-5-6-6" class="cls-2" d="M172.56,220.1a52.21,52.21,0,0,1,.05,9.67c-.82,5.2-2.81,7.58-6.14,8.36s-7.78-.09-8.77-4.44l2.7-.05c1.47,2.94,5.17,2.16,7.25.88,1.66-1,2.42-5.28,2.09-5.54,0,0-3.14,2.33-5.62,2.16-5.3-.55-7.49-5.15-7.3-9.49.17-5.22,1.82-9.39,7.44-9.67,5.34.21,7.79,3.12,8.3,8.12Zm-13.17,1.38c0,3.62,1.62,6.34,4.73,6.63s6.25-2.73,6-6.43-1.65-6.82-5.42-6.8C160.67,214.89,159.41,218.9,159.39,221.48Z"/></g></g></g></svg>