<svg xmlns="http://www.w3.org/2000/svg" viewBox="0 0 178.58 249.45"><defs><style>.cls-1{fill:#fff;}.cls-2{fill:#d40000;}</style></defs><g id="Layer_2" data-name="Layer 2"><g id="svg8"><g id="g6785"><path id="rect6894-2" class="cls-1" d="M8.54,0H170a8.53,8.53,0,0,1,8.54,8.53V240.92a8.53,8.53,0,0,1-8.54,8.53H8.54A8.53,8.53,0,0,1,0,240.92V8.53A8.53,8.53,0,0,1,8.54,0Z"/><path id="path6926-2" class="cls-2" d="M13.77,56A44.16,44.16,0,0,0,8,48a44.51,44.51,0,0,0,5.82-8,45.5,45.5,0,0,0,5.82,8A45.14,45.14,0,0,0,13.77,56Z"/><path id="path6928-9" class="cls-2" d="M130.7,64.56c-4.14-6.86-8.51-13.52-14-19.2,5.45-5.69,9.82-12.35,14-19.2,4.15,6.85,8.52,13.51,14,19.2C139.22,51,134.85,57.7,130.7,64.56Z"/><path id="path6930-6" class="cls-2" d="M164.81,209.47a45.5,45.5,0,0,0-5.82-8,45.14,45.14,0,0,0,5.82-8,45.14,45.14,0,0,0,5.82,8A45.5,45.5,0,0,0,164.81,209.47Z"/><path id="path6932-2" class="cls-2" d="M47.88,64.56c-4.15-6.86-8.52-13.52-14-19.2,5.45-5.69,9.82-12.35,14-19.2,4.15,6.85,8.51,13.51,14,19.2C56.39,51,52,57.7,47.88,64.56Z"/><path id="path6938-4" class="cls-2" d="M89.29,104.23c-4.15-6.85-8.51-13.51-14-19.2,5.46-5.69,9.82-12.35,14-19.2,4.15,6.85,8.52,13.51,14,19.2C97.81,90.72,93.44,97.38,89.29,104.23Z"/><path id="path6942-4" class="cls-2" d="M47.88,143.9c-4.15-6.85-8.52-13.51-14-19.2,5.45-5.69,9.82-12.35,14-19.2,4.15,6.85,8.51,13.51,14,19.2C56.39,130.39,52,137.05,47.88,143.9Z"/><path id="path6944-9" class="cls-2" d="M130.7,143.91c-4.14-6.85-8.51-13.51-14-19.2,5.45-5.69,9.82-12.35,14-19.2,4.15,6.85,8.52,13.51,14,19.2C139.22,130.4,134.85,137.06,130.7,143.91Z"/><path id="path6948-4" class="cls-2" d="M47.88,223.3c-4.15-6.85-8.52-13.51-14-19.2,5.45-5.69,9.82-12.35,14-19.2,4.15,6.85,8.51,13.51,14,19.2C56.39,209.79,52,216.45,47.88,223.3Z"/><path id="path6950-4" class="cls-2" d="M130.7,223.3c-4.14-6.85-8.51-13.51-14-19.2,5.45-5.69,9.82-12.35,14-19.2,4.15,6.85,8.52,13.51,14,19.2C139.22,209.79,134.85,216.45,130.7,223.3Z"/><path id="path6956-4" class="cls-2" d="M89.29,183.6c-4.15-6.85-8.51-13.51-14-19.2,5.46-5.69,9.82-12.35,14-19.2,4.15,6.85,8.52,13.51,14,19.2C97.81,170.09,93.44,176.75,89.29,183.6Z"/><path id="path27-00-7-8-6" class="cls-2" d="M5.2,29.74c.12-3.55,1.4-4.88,3.93-6.73A6.09,6.09,0,0,1,6.44,17.6C6.85,13.18,10.26,11,14,11.07s6.92,3,7.17,6.26a5.43,5.43,0,0,1-2.59,5.59c2.35,2,3.85,3.29,3.79,6.78a8.21,8.21,0,0,1-8.2,7.77C9,37.59,5.07,33.28,5.2,29.74Zm14.45,0c.22-3.21-2.62-5.37-5.82-5.4a5.89,5.89,0,0,0-5.91,5.5c0,3.1,3.63,4.78,6,4.79C16.74,34.65,19.45,32.51,19.65,29.75Zm-1-11.48a4.71,4.71,0,0,0-5-4.56c-2.29.07-4.71,1.82-4.71,4.07,0,2.83,2.75,4.24,5.1,4.3,2.14.05,4.56-1.77,4.61-3.81Z"/><path id="path27-0-1-9-8" class="cls-2" d="M156.23,219.71c.13,3.55,1.41,4.88,3.93,6.73a6.11,6.11,0,0,0-2.69,5.41c.42,4.41,3.83,6.62,7.54,6.53s6.92-3,7.17-6.26a5.44,5.44,0,0,0-2.58-5.59c2.34-2,3.84-3.29,3.79-6.78a8.22,8.22,0,0,0-8.2-7.77c-5.18-.13-9.09,4.19-9,7.73Zm14.45,0c.22,3.21-2.61,5.37-5.82,5.4a5.89,5.89,0,0,1-5.9-5.5c0-3.1,3.62-4.78,6-4.79,2.85,0,5.56,2.13,5.75,4.89Zm-1,11.48a4.72,4.72,0,0,1-5,4.56c-2.28-.07-4.7-1.82-4.7-4.08,0-2.82,2.75-4.23,5.1-4.29,2.13-.05,4.56,1.77,4.61,3.81Z"/></g></g></g></svg>