<svg xmlns="http://www.w3.org/2000/svg" viewBox="0 0 178.58 249.45"><defs><style>.cls-1{fill:#fff;}.cls-2{fill:#d40000;}</style></defs><g id="Layer_2" data-name="Layer 2"><g id="svg8"><g id="g11103-4-9"><g id="g10276-9-9"><path id="rect10278-0-6" class="cls-1" d="M8.54,0H170a8.53,8.53,0,0,1,8.54,8.53V240.92a8.53,8.53,0,0,1-8.54,8.53H8.54A8.53,8.53,0,0,1,0,240.92V8.53A8.53,8.53,0,0,1,8.54,0Z"/></g><path id="path10308-5-1" class="cls-2" d="M47.88,117.47s-3.73-6.13-8.77-13.33c-3.37-4.82-6.06-10-6.31-14.53-.29-5.13,2.43-10.28,7.35-10.53s6.92,4,7.73,7.43c.81-3.47,2.81-7.68,7.73-7.43s7.64,5.4,7.35,10.53c-.25,4.5-2.94,9.71-6.31,14.53C51.61,111.34,47.88,117.47,47.88,117.47Z"/><path id="path10310-7-8" class="cls-2" d="M13.77,56S12,53.43,9.59,50.43c-1.6-2-2.89-4.19-3-6.06-.13-2.14,1.16-4.28,3.51-4.39s3.3,1.65,3.68,3.1c.39-1.45,1.34-3.2,3.69-3.1A3.88,3.88,0,0,1,21,44.37c-.12,1.87-1.4,4.05-3,6.06C15.55,53.43,13.77,56,13.77,56Z"/><path id="path10312-3-5" class="cls-2" d="M164.81,193.47S163,196,160.63,199c-1.61,2-2.89,4.18-3,6.06a3.88,3.88,0,0,0,3.5,4.39c2.35.1,3.3-1.65,3.69-3.1.39,1.45,1.34,3.2,3.68,3.1a3.88,3.88,0,0,0,3.51-4.39c-.12-1.88-1.4-4.05-3-6.06C166.59,196,164.81,193.47,164.81,193.47Z"/><path id="path10314-8-8" class="cls-2" d="M89.29,98.67s-3.73-6.13-8.77-13.33c-3.37-4.82-6.06-10-6.31-14.53-.29-5.13,2.43-10.28,7.35-10.53s6.92,4,7.73,7.43C90.1,64.24,92.1,60,97,60.28s7.64,5.4,7.35,10.53c-.25,4.5-2.94,9.71-6.31,14.53C93,92.54,89.29,98.67,89.29,98.67Z"/><path id="path10318-3-7" class="cls-2" d="M47.88,64.56s-3.73-6.13-8.77-13.33c-3.37-4.82-6.06-10-6.31-14.53-.29-5.13,2.43-10.28,7.35-10.53s6.92,3.95,7.73,7.42c.81-3.47,2.81-7.67,7.73-7.42S63.25,31.57,63,36.7c-.25,4.49-2.94,9.71-6.31,14.53C51.61,58.43,47.88,64.56,47.88,64.56Z"/><path id="path10322-4-6" class="cls-2" d="M130.7,117.47s-3.73-6.13-8.76-13.33c-3.37-4.82-6.07-10-6.32-14.53-.28-5.13,2.43-10.28,7.36-10.53s6.91,4,7.72,7.43c.82-3.47,2.81-7.68,7.73-7.43s7.64,5.4,7.36,10.53c-.25,4.5-2.95,9.71-6.32,14.53C134.44,111.34,130.7,117.47,130.7,117.47Z"/><path id="path10324-9-8" class="cls-2" d="M130.7,64.56s-3.73-6.13-8.76-13.33c-3.37-4.82-6.07-10-6.32-14.53-.28-5.13,2.43-10.28,7.36-10.53s6.91,3.95,7.72,7.42c.82-3.47,2.81-7.67,7.73-7.42s7.64,5.4,7.36,10.53c-.25,4.49-2.95,9.71-6.32,14.53C134.44,58.43,130.7,64.56,130.7,64.56Z"/><path id="path10332-8-6" class="cls-2" d="M89.29,150.78s-3.73,6.12-8.77,13.33c-3.37,4.81-6.06,10-6.31,14.53-.29,5.13,2.43,10.28,7.35,10.53s6.92-4,7.73-7.43c.81,3.47,2.81,7.68,7.73,7.43s7.64-5.4,7.35-10.53c-.25-4.5-2.94-9.72-6.31-14.53C93,156.9,89.29,150.78,89.29,150.78Z"/><path id="path10334-5-0" class="cls-2" d="M130.7,132s-3.73,6.12-8.76,13.33c-3.37,4.81-6.07,10-6.32,14.53-.28,5.13,2.43,10.28,7.36,10.53s6.91-4,7.72-7.43c.82,3.47,2.81,7.68,7.73,7.43s7.64-5.4,7.36-10.53c-.25-4.5-2.95-9.72-6.32-14.53C134.44,138.1,130.7,132,130.7,132Z"/><path id="path10336-3-5" class="cls-2" d="M47.88,132s-3.73,6.12-8.77,13.33c-3.37,4.81-6.06,10-6.31,14.53-.29,5.13,2.43,10.28,7.35,10.53s6.92-4,7.73-7.43c.81,3.47,2.81,7.68,7.73,7.43S63.25,165,63,159.84c-.25-4.5-2.94-9.72-6.31-14.53C51.61,138.1,47.88,132,47.88,132Z"/><path id="path10338-2-9" class="cls-2" d="M130.7,184.89S127,191,121.94,198.22c-3.37,4.82-6.07,10-6.32,14.53-.28,5.13,2.43,10.28,7.36,10.53s6.91-4,7.72-7.43c.82,3.47,2.81,7.68,7.73,7.43s7.64-5.4,7.36-10.53c-.25-4.5-2.95-9.71-6.32-14.53C134.44,191,130.7,184.89,130.7,184.89Z"/><path id="path10340-9-7" class="cls-2" d="M47.88,184.89s-3.73,6.13-8.77,13.33c-3.37,4.82-6.06,10-6.31,14.53-.29,5.13,2.43,10.28,7.35,10.53s6.92-4,7.73-7.43c.81,3.47,2.81,7.68,7.73,7.43s7.64-5.4,7.35-10.53c-.25-4.5-2.94-9.71-6.31-14.53C51.61,191,47.88,184.89,47.88,184.89Z"/><g id="g7724-24-8-9-7"><g id="g8345-9-7-5-1"><path id="path31-8-2-9-8" class="cls-2" d="M5.76,37.47V11.07H8.32v26.4Z"/><path id="path33-2-3-1-6" class="cls-2" d="M15.9,11.07c-2.46,0-4.44,2.25-4.44,5V32.43c0,2.79,2,5,4.44,5h1.44a4.77,4.77,0,0,0,4.45-5V16.11a4.77,4.77,0,0,0-4.45-5Zm.75,2.5a2.56,2.56,0,0,1,2.62,2.51V32.6a2.63,2.63,0,0,1-5.25,0V16.08A2.56,2.56,0,0,1,16.65,13.57Z"/></g></g><g id="g7724-2-5-0-2-7"><g id="g8345-5-0-9-6-9"><g id="g10963-5-1"><path id="path31-1-3-2-1-5" class="cls-2" d="M172.82,212v26.4h-2.56V212Z"/><path id="path33-5-5-3-3-1" class="cls-2" d="M162.68,238.38c2.46,0,4.44-2.25,4.44-5V217c0-2.79-2-5-4.44-5h-1.44a4.77,4.77,0,0,0-4.45,5v16.31c0,2.8,2,5,4.45,5Zm-.74-2.5a2.56,2.56,0,0,1-2.63-2.51V216.84a2.63,2.63,0,0,1,5.25,0v16.53A2.56,2.56,0,0,1,161.94,235.88Z"/></g></g></g></g></g></g></svg>