<svg xmlns="http://www.w3.org/2000/svg" viewBox="0 0 178.58 249.45"><defs><style>.cls-1{fill:#fff;}.cls-2{fill:#d40000;}.cls-3{fill:#e2cf00;}.cls-4{fill:#131f67;}</style></defs><g id="Layer_2" data-name="Layer 2"><g id="svg8"><g id="g5943"><path id="rect10346-5-7" class="cls-1" d="M8.54,0H170a8.53,8.53,0,0,1,8.54,8.53V240.92a8.53,8.53,0,0,1-8.54,8.53H8.54A8.53,8.53,0,0,1,0,240.92V8.53A8.53,8.53,0,0,1,8.54,0Z"/><path id="path10378-7-1" class="cls-2" d="M13.77,56S12,53.43,9.59,50.43c-1.6-2-2.89-4.19-3-6.06-.13-2.14,1.16-4.28,3.51-4.39s3.3,1.65,3.68,3.1c.39-1.45,1.34-3.2,3.69-3.1A3.87,3.87,0,0,1,21,44.37c-.12,1.87-1.4,4.05-3,6.06-2.4,3-4.18,5.55-4.18,5.55Z"/><path id="path10380-5-9" class="cls-2" d="M164.81,193.47S163,196,160.63,199c-1.61,2-2.89,4.18-3,6.06a3.88,3.88,0,0,0,3.5,4.39c2.35.1,3.3-1.65,3.69-3.1.39,1.45,1.34,3.2,3.68,3.1a3.88,3.88,0,0,0,3.51-4.39c-.12-1.88-1.4-4.05-3-6.06C166.59,196,164.81,193.47,164.81,193.47Z"/><path id="path35-67-2-8-6" class="cls-2" d="M13.69,11.07v2.76h2.68s.07,2.67.09,8.32c0,5.48.13,8.21-.22,9.77-.94,3.6-6.16,3.62-7.19,1a10.22,10.22,0,0,1-.47-4.19H5.69s0,.76,0,1.69c0,4.05,1.36,6,4.5,6.75s7-.45,8.34-3.21c.8-1.57.71-1.68.73-11.18,0-6.34.1-9,.1-9h2.47V11.07Z"/><path id="path35-6-7-4-8-8" class="cls-2" d="M164.9,238.38v-2.76h-2.69s-.06-2.67-.09-8.32c0-5.49-.13-8.21.22-9.77.94-3.6,6.16-3.62,7.2-1a10.55,10.55,0,0,1,.47,4.19h2.88s0-.76,0-1.7c0-4.05-1.36-6-4.5-6.75s-7,.46-8.34,3.22c-.8,1.57-.7,1.68-.72,11.18,0,6.34-.11,9-.11,9h-2.47v2.76h8.17Z"/><g id="g3347-7-8-1"><g id="g3498-4-3-9"><g id="g2997-9-2-6"><g id="g3884-5-1-3"><g id="g3000-2-1-2"><path id="path2993-7-5-1" class="cls-3" d="M153.16,29.1l-9.21,6-.13,7c-5.46-2.63-7.84-6.92-8.7-12-1.54,1.95-1.69,11.88-1.69,11.88-1.4.73-1.46,1.61-2.36,2.46a30,30,0,0,0,3.38,3.94s-1.15,10.26.21,10.67c1.25-4.39,2.91-8.22,9-12.24,0,0,.09,16.36-.3,32.16-2.58-1.78-8-5-11.57-8.24,4.58-5.91-.09-13.61-6.91-8.5C119.12,55.48,120.05,45,117.46,38c0,0-14.57-4-20.83-3.71,5.26,13.72,4.24,30.44-19,33.57-11.15,5.11-24,10.8-36.53,21.43-2.31,15.83-10.46,23.62-16.21,27.93,0,6.41,0,12.76.22,19.24,0,0,5.25-3.46,6.08-2.82,4.39,28.61,20.48,34.28,18.87,35.08-.26.13-5.27,5.29-5.27,5.29L25.13,161c-.67,19.78-.28,39.95,0,59.76,3.47-2,9.84-6.66,9.84-6.66l.1-6.73c0-.64,8.93,5.61,9,13.05.7.47,2.23-10.71.84-11.92l3.67-3.79-4-3.82s1-6.33-1-10a14.22,14.22,0,0,1-8.25,11s-.14-30.52-.32-30.55l12.35,7.83c-6.69,9.12,5.08,12.08,6.46,7.64,7.59,7.08,4.66,15.56,8,25.61l21.55,4c-8.88-16.5.75-35.3,18.18-34a41.9,41.9,0,0,0,6.23-3.33,65.84,65.84,0,0,0-4.91-6.84l-37.31-.62L82.88,139l-11.44-.36c8-13.76,8.49-13.4,6-28.12l11.06.22c.4-4.55-4.94-21.93-12.49-33.29l41.94.38-23.61,33,12.68.37c-7.6,13.7-9,13.4-6.35,27.71l-11.25.23c1.94,16.83,14.42,34.71,18.81,40.19,7.26-1.72,20.8-12.11,29.21-18.56,1.09-11.3,5-20.92,15.13-28.09l0-18.6s-5.8,3.74-5.8,3.48c0-4-2.07-12.4-5.93-19.87-4.15-8-10.95-15.28-12.52-15.73,3.6-5.46,5.14-6,5.09-6l19.61,12.6Zm-99.23,40c-7.44,1.9-17.53.17-19.62,6.74-.49,1.48.58,2,1.37,2.42C40.15,72.69,51.67,80.38,53.93,69.1ZM29.15,91.44c-1.73.22-1.15,3.79-.57,4.23C29.78,95.4,30.13,91.32,29.15,91.44Zm63.11,29.82-5.8,0,0,6.82h5.84Zm57,33.94c-.12.68-.65,3.61.77,3.08C151.67,157,150.15,151.19,149.23,155.2Zm-5.46,17.12c-.68-1-2.8,1.49-4.54,1.58-7.72.42-13.42-.62-14.38,7.48,4.46-2.85,10.7-1.55,14.72-2.47C142.48,177.94,145.82,175.3,143.77,172.32Z"/><path id="path3504-0-2-5" class="cls-4" d="M23.69,19.12v211.2h131.2V19.12Zm38.46,1.72,66.08.22c-2,5.75-7.33,9.67-10.09,15.37a2.51,2.51,0,0,0-.32,2.56,52.16,52.16,0,0,1,1.49,6.65c.42,4,.85,9.06,3,13.5.3,1,2.28,3.48,2.76,3.48,2.88-4,10.35-1.58,8.2,5.4-.84,2.7-2.21,2.67-1.62,3.18l11.88,8.12s.35-31.95,0-31.94c-6.22,3.71-6.48,5.88-9,11.76-1.62-2.21.24-7.65-.05-10.57l-3.58-3.93s2.81-3.09,2.81-3.09,1-11.57,1.24-11.41c.57,4,4.45,10.54,8.92,12L144,35,153.46,29l-.35,58.63-.94,1v2.54s-7-4.6-7.2-4.92c-.08-.75-2-2.28-2.47-1.51l-2.11-1.53c.31-.09-2.18-3.61-2.53-2.52a3.89,3.89,0,0,0,0,1l-2.06-1.54s-.2-.48-.27-.67a6.31,6.31,0,0,0-.92-1.48c-.78-.92-1.53-1-1,.42l-1.26-.82-.76.95L134,80v1.76L131,79.61c-.8,0-.89.11-.73.81L134,82.7v1.93c-1.51-.95-4.53-2.95-4.53-2.95l-.37.51c9,7.94,16.49,21.51,17.91,35.32,2.27-1.12,5.8-4.48,5.41-2.47,0,.48.59,1,.59,1l.61,30.1c-6,5.39-9.3,9.66-16.28,14.93-9.42,7.54-22.81,15.45-35.54,21.24-3.63.22-6.85-.78-13.24,3.84-7.21,4.53-9.45,12.52-8.18,21.2.65,3.14,1.86,7.54,2.34,8.08.14.16.46-.14.51-.14s-.09-.22-.09-.22c-.67-1.47-3.39-8.65-2.69-14,.26-1.87.32-4.54,2.38-5.13a1.66,1.66,0,0,1,1.89.66c.78,1,.26,2.18-.23,3.17,2.66-1.11,1.26-6.14-2.51-4.92a5,5,0,0,1,.31-.74c1.89-4,6.88-9.42,13.1-11a15.39,15.39,0,0,1,6.63-.25c1.1.23,1.08.7,1,2.32a3,3,0,0,0,1.19,2.73c1.34,1.47-2.47,2-4.61.69a8.07,8.07,0,0,0-.82-.44s.15.38.54,1.12c.61,1.17,1,2.15,1.57,1.9.68-.49.15-.85,2-.26.65.18,1.61.41,2,.49.86.17.83.44.62,1.11-.58,1.84-.09,2.36,2.67,4,2.33,1.23,2.14,1.27.43,5.06-.89,2-1.88,4.32-2.84,6.48a2.14,2.14,0,0,0,.31,2.34,10.22,10.22,0,0,1,.82,4c3.34,4.22,6.09,9.28,9.61,14.41l-65.91-.39s6.72-10.14,10.16-14.87a1.71,1.71,0,0,0,.47-2c-.06-.18-2-13.37-2-13.41-.77-3.9-1.76-8.29-5.49-11-1.41,1.6-5,2.58-6.94.51a4.62,4.62,0,0,1-1.38-2.89A10.17,10.17,0,0,1,46,180.3c.26-.4.84-.76.83-1,0-.56-1-1-2.49-1.83-3.11-1.71-9.2-5.92-9.2-5.92s-.2,22,0,30.81c5.92-2.5,8.67-10.8,8.67-10.8,1.51,1.88.39,7.6.49,9.52,1.29,1.57,2.5,2.05,3.73,3.75a9.79,9.79,0,0,1-3.24,3.73,19.23,19.23,0,0,1-.55,10.85c-2.25-6.69-4-8.86-9.09-12.05.18,2.59-.23,4.62,0,6.89l-10,6.9-.83-60.75,20.43,14,.28-.54L25.38,160.13v-2.07l1.9,1.18s.19,1.45.73,1.8,1.86,0,1.68,0l3.18,2.17c-.4.79,2.11,4.12,2.54,1.76l2.48,1.57c.29.71.21,1.9,1.61,2.61.53.19,1.19.09.93-.67l1.86,1.11c.34,1.27,2.23,3.83,2.57,2.67a5.61,5.61,0,0,0,0-.9l1.31.95s1.32-.31.72-.91l-2.21-1.41,0-1.57,2.86,2s.68-.52.59-.89l-3.46-2.38.08-1.54c1.41.75,2.88,1.71,4.34,2.69,0,0,.24-.46.25-.46C39,159.4,32.83,145.41,30.92,133.32c-1.66,1-4.46,2.66-6.19,2.93l0-32.36A127.25,127.25,0,0,1,43.55,87.4C53.69,79.2,65,73.7,74.24,69.29c1.6-.52,3.1-1.35,4.77-1.49,2.43-.11,3-.1,7.12-1.82C96.91,60.71,104,52.65,96.28,34.31A58.65,58.65,0,0,1,98.84,45c.35,3.68-.37,6.94-1,7.82-1.35,1.67-3.33,1.49-3.27-.87a6.91,6.91,0,0,1,.53-1.84c-1.91-.21-3.13,6.39,2.23,4.56-2.44,6.48-12.79,12.26-17.43,12.61-2.42.36-3.57-.27-3.65-2a8.13,8.13,0,0,0-1.13-3.59c-1.31-1.46,2.24-2,4.37-.69.69.43.87.33.49-.29a4.38,4.38,0,0,1-.62-1.17c0-.72-.06-1-1-.64-.58.2-.92-.09-1.37-.29a6.45,6.45,0,0,0-2-.42c-1.65-.14-1.57.4-1.28-1.35s-.07-2-2.07-3.3c-3.23-2-3.06-1.42.18-7.81,2.22-4.36,2.32-4.79,1.44-6.91-.71-1.72-1.33-3.32.5-3.56C70,34,66.33,24.3,62.15,20.84ZM25.53,21H61.18c3.12,4.25,10.71,14.89,10.71,14.89A5.78,5.78,0,0,0,72.54,39c.61,1.1.51,2.36-.51,4.26-.67,1.27-1.46,3.15-2.3,4.91-1.85,3-1.83,3.85-.57,4.77s3.36,1.83,4,2.43c.42.39-.06,1.43-.19,2.15-.09.39-.37,1.35,0,1.8.63.7.76.9.47,1.66-.18.46.74,1,.89,1.34a5.24,5.24,0,0,1,.91,2,2.47,2.47,0,0,1,0,1c-3.29-1.35-9.14-.3-7.91,6.46A179,179,0,0,0,43.69,86.12c-1.71-5.66-4.65-7-7.51-7.36-.15-.21.11-.59.49-1C38,76.45,41,76.17,43.06,76.27c6.91,0,9.35-1.2,11.16-5.7A8.35,8.35,0,0,0,54.6,67a9.67,9.67,0,0,1-.8.93c-1.69,1.5-4.73,1.82-7.15,1.86-4.24,0-6.45.44-7.79,1.06-2.68,1.26-4.74,3.12-5,4.82-.11.62-.19.62-1.45.49s-2.09.68-2.31,2c-.1.6.08.65-.87,1a2.42,2.42,0,0,0-1.34,3.31c.2.55.17.67-.44,1.09a2,2,0,0,0-.79,2.54c.14.42.25.53-.11,1-.91,1.28.17,3.31,1.42,3.79-.65,4.18-.36,4.38-.35,4.86s.52.68,1,.66c1.4-.06,1.19-1.18,1.42-2.32l1.66,2L25.53,102Zm104.58,0h22.67v7.55l-9.4,6V41c-6.74-4.32-7.15-9-7.87-12.3-9.51,10.15-6.95,25.26-.17,32.26-.23-.29,1.22-9.71,8-12.94V78.16l-11.07-7.5c5-5.62-1-14.73-7.45-8.68-4.8-4.78-4.34-14.9-6.62-23.11-.25-.93.07-1.76,1.38-3.53,3.47-4.73,7-9.91,10.49-14.36Zm3.82,10.88s-.63,1.77-.41,9.6l-3.4,2.72A22.51,22.51,0,0,1,133.93,31.86Zm-59.21,5.4c-1,0,.11,1.55,1,1.93,4.36.31,7.13-.44,11.63,3.61,1.27.89,1.19-.07-.06-1.38a13.48,13.48,0,0,0-9.35-4,25.92,25.92,0,0,1-3-.16l-.24,0Zm1.22,4c-.32,0-1-.52-1-.47,0,.84,1.22,2.57,1.53,3,0,.23,0,.66,0,1.33-.13.3-1.94.29-1.3,1.1.21.26,1,.18,1.63.26,1.16.16,3.67,2.48,5.4,2.78a4.35,4.35,0,0,0,1,0,13.48,13.48,0,0,1-3.59-2c-.81-.78,1-.76,1.58-.85a7.75,7.75,0,0,0,2-.63c1.06-.49.67-.61,1.77-.22.62.22,1.26.56,1.59.63,1.53.3,1-.83-1.4-2-.34-.16-.92-.69-1.39-1-1.92-1.25-3.14-1.71-4.64-1.62a13.25,13.25,0,0,1-1.45,0,5.88,5.88,0,0,1,3.41-.47c2.23.41,4.44,2.27,6.51,3.56C84.65,40.8,78.81,39,75.94,41.24Zm4.15,2.33c.19,0,.34.19.34.49a5.67,5.67,0,0,1-1.13,1.62c-.45.29-.42-.34-.14-1.36A.94.94,0,0,1,80.09,43.57Zm1.13.37c1.44.21,2.32,1.15,1.19,1.57-.62.23-2.25.51-2.24.26S80.89,43.89,81.22,43.94Zm48.94.82,4,3.84A58.65,58.65,0,0,0,133.5,57,20.48,20.48,0,0,1,130.16,44.76Zm-54,4.59a2.05,2.05,0,0,0-.58.17,7.31,7.31,0,0,0,.67.42C78.72,51.26,77.7,53.71,75,52c-1.87-1.19-3.28-1.44-3.53-.06-.11.57-.08,1,.8.82.35-.1,1.29.38,2.08.67,1,.38,3.09,1.26,4-1,.33-1.41-.86-3.14-2.13-3.09Zm7.15,4.16a2.58,2.58,0,0,0-.89.18,4.58,4.58,0,0,0,.86.27c2.64.4,2.48,4.85-3.44,1.75-2-1-3-.66-4,.24-.81.73-.36,1.17,1,1,1.69-.16,2.89.53,4.49,1C86.22,59.16,87.51,53.67,83.35,53.51Zm-11.11,12a6,6,0,0,1,4.13,2l-.73.42c-1.16-.38-1.83-.69-3-1.09A4.31,4.31,0,0,1,73,68.24a15.19,15.19,0,0,0-2.53-.62c.43.87.76,1.72.76,1.72l-1.94,0,.67,1.09-1.66.8a4.24,4.24,0,0,1,4-5.68ZM53.59,69.15C53.85,72,51.44,75.79,43,75.71c-3.26-.07-5.07,0-7.54,2.68L34,77.16c.47-1.81,1.26-5,8-6.48,3.9-.59,7.55.5,11.65-1.53ZM32.3,77a2,2,0,0,1,1,.29c1.51,1,1.75,1.71.23,2.53-.87.47-1.06.56-1.85-.17C30.41,78.57,31,77,32.3,77Zm44.13.46c3.19,5.73,10.81,19.59,12.4,33.21l1.43,0L113.87,78ZM36.22,79.61a6,6,0,0,1,2.61.64,7.42,7.42,0,0,1,2.22,2.07,7.57,7.57,0,0,1,1.54,3.79,1.27,1.27,0,0,1-.12.82A37.22,37.22,0,0,1,38,90.56a4.14,4.14,0,0,1,0-5.9c.93-.72,1.22-1-.36-.93-1.16.06-1.26.11-1.19-.64.15-1.8-.25-1.16-1,0a3.08,3.08,0,0,1-2.13,1.19c-.62,0-.54-.46,0-.81.86-.5.93-1.34.62-2.34s.8-1.47,2.18-1.47Zm-6.2.51c1.38-.1,2.38,1.07,1.12,1.93-1,.68-.89,1.23.16,2.11.55.46.89.7.84.83-.2.78-2.19-1.33-3.28-2.06a1.55,1.55,0,0,1,.55-2.68,2.66,2.66,0,0,1,.61-.13Zm105.9,1.27,2.64,1.81v1.49l-2.64-1.54Zm-102.84.26c.76-.08.58,1.14-.45,1.66-.6.31-1.06.12-1.06-.43,0-.27.64-.89,1.12-1.12a1.16,1.16,0,0,1,.39-.11Zm-4.45,2.47c1.28.1,3,1.45,2.71,2-.12.27-.89.94-.76,1.35.22.69-.3.69-1.39,0-1.81-1.2-2.27-2.08-1.6-3a1.12,1.12,0,0,1,1-.38Zm107.25,0L138.56,86v1.79L135.84,86Zm4.71.43,2.66,1.66.21,1.8-2.83-1.7Zm-8,.27c.87.46,1.61.63,2.23,1.75.34.27.69.51.69.51l.66-.07,2.64,1.71a3.36,3.36,0,0,0,.53,1.37,3.88,3.88,0,0,0,1.44,1.07c.21,0,.15-.66.08-1l3.23,2.2s.57,1.84.57,1.84l1.89,1.16s-.16-1.11-.22-1.49l2.81,1.9s.09.25.5,1.23c.54,1.46,2,2.43,2,1.09h.52v2.08L137.44,90.3a16.14,16.14,0,0,1-1.82-2c-1-1.29-3-3.49-3-3.49Zm-98.83.26c.94,0,1.1.1.62.59s-1.53.21-1.44-.39C33,85,33.15,85.11,33.75,85.08Zm2.15,0c.31,0,.57.31.44.86a5.22,5.22,0,0,0,1,5.13L32.92,95c-.33.17-.8,0-1.3-.39-1.49-1.21-2-2.33-.75-2.26.83,0,1.89-.78,1.59-1.77-.18-.59-.06-1,.58-1.16a1.87,1.87,0,0,0,.89-2c-.17-.55-.09-.72.31-.67s.86-.36,1.15-1.08c.13-.35.33-.52.51-.54Zm-3.61,1.74a1.15,1.15,0,0,1,.79.5c.55,1.1-.91,1.62-1.49,1.11a1,1,0,0,1,.7-1.61Zm108.36.45,2.88,1.9.34,2-3.11-1.83ZM27.8,87.65a1.23,1.23,0,0,1,.81.26c.23.17.87.68,1.22.89.76.46.88.82.22.86a.92.92,0,0,0-.7.87c-.38.35-1.42-.19-2.13-1.09a1,1,0,0,1,.58-1.79Zm117.72.09,2.92,2,.25,1.91-2.94-1.76ZM31,90.23a.43.43,0,0,1,.22.06c.59.29.81.74.24,1s-.8.27-1.11,0,.14-1.07.65-1Zm114.75.54L149,93l.06,1.72-2.9-1.62Zm-116.78.52c1.3.82.81,4.68-.08,4.66C27.55,95,27.68,92.27,28.93,91.29Zm121.91.08,1.33.86V94l-1.26-.75Zm-12.61.43,13.94,9.29v1.69L139.79,94.4ZM151,94.34l1.13.69v1.83l-1-.72Zm-10,2.14,11.11,7.45v1.9l-9.69-6.49Zm2.18,4.56,8.93,5.84v2l-7.84-5.21Zm1.45,3.79,7.48,4.93v1.86l-6.69-4.52Zm1.19,3.53,6.29,4.25v.66l-.78.55-5.08-3.32Zm.7,3.16,4.11,2.72-1.29.89L147,113.22Zm-67.8,1c.07.88-.23,2.95.23,3.73l1.31-2.09h1.61c-.73,1.69-2.57,5.48-2.57,5.48h6.51a58.43,58.43,0,0,1,2.69-5.2h1.53l-2.42,5.2h6.14l2.75-5.26h2L96,119.66h4.46l.9-2.08h-2l2.31-5h-6.6l-2.61,5H90.93l2.64-5H87.09l-2.68,5h-2l2.46-5Zm68.43,2,1.52,1-1.25.73A13.27,13.27,0,0,0,147.21,114.54ZM78.3,130.24l-1.13,1.93h2.29c-.75,1.72-2.39,5-2.39,5h6.3l2.74-5H88.3l-2.5,5h5.76l2.74-5h2l-2.43,5H100l-.31-4.47-1.27,2.46H97l2.18-4.88H93l-2.49,4.88H88.94l2.32-4.88H84.61l-2.51,4.88H80.29l2.28-4.88Zm-47.77,3.91.1.71-.82-.32Zm-1.62.89,2,1.26.27,1.58-3.42-2.23Zm-2.05,1,4.65,3.16.41,1.88-6.54-4.24ZM25.38,138l7,4.86.7,2.06s-5.87-3.81-7.65-5.41Zm63.53.82L65.49,171.64l37.05.34a111.26,111.26,0,0,1-13.63-33.17Zm-63.53,1.81,8.1,5.67,1.13,2.3-9.23-6.23Zm0,2.8s6.68,5.05,9.92,6.68c.38.73,1.61,3,1.61,3l-11.53-8Zm0,2.81,12.1,8.35,2.28,3.27-14.38-9.79ZM152.78,148v80.64H118.13c-3.35-4.94-6.52-9.67-10.2-15.15-.67-.92-.61-2.12-1.12-3.12a3.12,3.12,0,0,1,0-2.9c1.41-3.07,3-5.89,4-9.17.43-1.44-2.5-2.49-4-3.45-1.16-.77-1.13-1.18-.7-2.8.39-1.15.43-1.71-.3-2.1-.41-.22-.42-.2-.31-.78s0-1-.75-1.63a4.31,4.31,0,0,1-1-1.44c-.15-.45-.26-1.54.58-1.46,4.82,1.88,8.33-1,7.29-6.07,0,0,16.11-9.26,23.39-15.08,1,4.35,3.44,7.79,7.84,7.95-2.11,2.31-5.45,2.26-8.43,2.21-6.93-.12-9.8,2.86-10.24,9.31,1.88-2.72,6.1-3,10.25-2.87,4,.16,9.52-1.18,10.88-6.49,1.92.71,3.33.72,4.08-1.75a1.62,1.62,0,0,1,.6-.8c1.72-.67,1.9-2,1.41-3.52-.13-.45-.12-.58.48-1.41a3.12,3.12,0,0,0,.14-2.68A3,3,0,0,1,152,162a3.65,3.65,0,0,0-.82-2.71c-.55-.75-.59-.77-.29-2.06.36-1.58.47-3.52.11-3.82-.52-.42-2.08-.55-2.13-.06a13.75,13.75,0,0,0-.16,1.8c-.33-.31-1.85-1.35-1.81-1.34Zm-127.4,1c4.79,3.18,9.79,7.13,15.56,10.67l2,2.35-1.81-.22s-1-.13-1.61-1.58c-.45-1.14-2.2-2.43-2.88-1.49l-1.74-1.06s-.29-.46-.51-.91c-.9-1.82-2.88-3.35-2.88-2.24,0,.15,0,.67,0,.67l-1.85-1s-.27-.65-.4-.94c-.51-1.17-2.09-2.63-2.27-2.12-.09.28-.21.76-.21.76l-1.33-.69Zm0,3.27,1.78,1.16.08,1.57-1.86-1.07Zm120.77,2.19c1.37.67,2.48,1.84,2.41,2.53,0,.41-.34.54-.86.62-1.27.2-1.34.61-1.32,1.58,0,.8,0,.73-.69,1.19-.87.58-1.06.68-1,2,.07.87,0,.8-.47,1-1.12.22-1.22.49-1.4,1.22s-.63.88-.51.23a6.07,6.07,0,0,0-.88-6.14S144.49,155.69,146.15,154.41Zm3.62-.63c1.88,1,.45,4.77-.16,4.72C148.6,157.38,149.17,155,149.77,153.78Zm-120.08,1.4,2.66,1.76v1.59l-2.71-1.79Zm-4.31,0,1.75,1.22,0,1.53-1.72-.92Zm4.23,2.86,2.88,1.9v1.67l-2.91-1.87Zm118.45.35c.79,0,1.33.73.78,1.33-.14.15-.31.16-.6.16-1.28,0-1.67-1.06-.53-1.43a1.12,1.12,0,0,1,.35-.06Zm-113.14.21,2.76,1.92v1.57l-2.75-1.77Zm105.88.44c1.29,2,1.72,3.2.27,5.85-.53.69-.58.81,0,.9s1.37.91,1.27,1.21.27.19,1.17-.57c1.09-1,1.66-1.27,1.51-.6-.37,1.22-1.11,1.31-.79,2.62.07,1.13.47,1-.61,1.53-2.49,1.11-5.14-.54-6.86-4.2-.68-1.47-.93-2.2-.5-2.94,1.16-1.25,4.55-3.72,4.58-3.8Zm9.38.47c.65.1,1.08,1.8,1,2.24s-2-.7-2-1.26.64-1,1-1Zm-3.67,1.59a1.22,1.22,0,0,1,.68.28.81.81,0,0,1-.2,1.48c-.69.25-1.09.17-1.33-.41a.9.9,0,0,1,.85-1.35Zm2,.48a2.87,2.87,0,0,1,.84.47c2,1.26,2.41,2.32,1.46,3.32-.53.56-.48.51-1.46-.11-1.93-1.22-2.23-1.36-1.55-2.12.21-.23.53-.63.51-.93C148.29,161.76,148.36,161.6,148.54,161.62Zm-113.64.07,2.69,1.8,0,1.64-2.71-1.61Zm5.14.55,2.08,1.26v1.78L40,163.87Zm106.14,2a5.33,5.33,0,0,1,1.64.93c3,2.08,3.76,4.14,1.85,4.89-.81.32-1.74-.61-2.29-1.36-.35-.48,0-1.09.37-1.61s.27-.93-.71-1.8c-.76-.68-1-1-.86-1.05Zm-2,.07a2.75,2.75,0,0,1,.49,0c.12.05.43.17.09.57-.07.09-1,.46-1.14-.12,0-.23.15-.42.56-.46ZM40,165.3l2.08,1.32v1.73L40,167.1Zm106.51,1a.43.43,0,0,1,.4.52,2.39,2.39,0,0,1-.77,1.47c-1,.71-1.88-.14-1.15-1.18A1.78,1.78,0,0,1,146.55,166.26Zm-.29,3.22a2.06,2.06,0,0,1,.58.25c1.72.89,2.29,2.1,1.11,3.09-.86.73-2.2.49-3.43-.82-1-1.08-.92-1.12.51-2C145.76,169.61,146,169.45,146.26,169.48ZM143,172s.53.16,1.36,1.27c1,1.42-.82,2.73-2.69,4.79-4,2.66-11.1,0-16.63,3.26.14-5.3,3.54-7.57,10.73-7.32A9.22,9.22,0,0,0,143,172ZM35.54,172l10.6,7.31a6.21,6.21,0,0,0-1.49,4.44c.09,3.71,4.38,7.75,8.75,4.29,1.29-.58,3.29,3.12,4.35,6,1.4,3.48,1.09,9.82,3.16,17.42L49.44,228.59H25.53v-7l10-7.16v-6c6.08,3,7.78,9,8.05,14,6.58-8.18,9.86-22.55-.66-34.35-.31,5.51-2.06,9.78-7.39,13.17Zm75.31,6.85c1.81,5.13-5.06,7.41-7.63,3.54l1.12-.41a13.56,13.56,0,0,0,2.19.86,3,3,0,0,1-.36-1.18,14,14,0,0,0,2.55.3,3.27,3.27,0,0,1-.67-1.38c.71-.08,1.53,0,2.29-.05-.56-.5-.75-.31-.75-1Zm-14.61,12.2a3.3,3.3,0,0,0-.95.11,2.61,2.61,0,0,0-1.5,4.48,3.09,3.09,0,0,0,3.54.16,3.85,3.85,0,0,1-2.71-.48c-1.68-1.69.36-3.95,2.88-2.59,3.06,1.6,4.5,2,5.52,1.44s1-1.65.15-1.47c-1.69.3-4.62-1.6-6.93-1.65ZM45,192.1c2.32,3.64,3.85,8.9,3.65,12.12L44.77,201A40.34,40.34,0,0,0,45,192.1Zm57.86,3.52a2.2,2.2,0,0,0-1.79.64c-1,1-.58,4.17,1.87,3.52,0,0-1.19-.42-1.46-1.13-.53-1.4,1.28-2.75,2.94-.81,1.26,1.46,3.25,1.15,3.39-.14.06-.58-.23-1-1-.72-.44.16-.84,0-1.49-.44A5.59,5.59,0,0,0,102.88,195.62Zm-6.08,4.81c-1,0-.66.25.66.75,2.05.77,3.42,1.34,3,1.71.09,0-3.59,0-5.34,1.14a4.71,4.71,0,0,1-1.46-.48c-1.77-.86-2.47.06-.89,1.16,3.23,2.23,5.86,3.33,8,3.1,1.41-.15,2.18-.22,1.34.32-4.07,1.73-7.35-1.23-10.08-3-.49-.32-.69-.42-.69-.42a3.33,3.33,0,0,0,.61.77c3.06,2.67,6.2,4.52,10.41,3.33.72-.29.75-.52,1-.4,1.22,1.1.84-.65,0-1.6a2.13,2.13,0,0,1-.68-1.71c-.08-.7-.13-.77.49-1.06,1.38-.64.56-.76-.24-.82a12.43,12.43,0,0,1-3-1.71,6.42,6.42,0,0,0-3.2-1Zm2.44,3.31-.94,1.68a5.9,5.9,0,0,1-2-.67c-.13-.13,0-.27.29-.41a6.51,6.51,0,0,1,2.62-.6Zm.81.35c.15,0,.29.08.33.34a5.43,5.43,0,0,1-.64,1.32c-.2.26-.41.16-.62.05-.45-.24.1-1,.49-1.44a.77.77,0,0,1,.44-.27Zm-51.5,1.27c.71,3-2.12,11-3.15,11.61.05,0,.65-5.54-.22-8.29Zm41.75.56c-.13,0-.06.17.2.56a12.15,12.15,0,0,0,10.1,5.81c1.47.08,3.8.22,4.08.31.68.23.71.4.8.12.52-1.61-1.5-3-5.25-2.45-2.65.38-5.67-1.13-8.89-3.65A4.13,4.13,0,0,0,90.3,205.92Z"/><path id="path3502-5-8-1" class="cls-2" d="M80.15,228.64l1-5,9.28.45s1.08,3.17,1.51,4.59Zm-21.43-.12,4.92-8.14,7,1.9L69,228.64Zm13.6.12L74.44,220c-4-.88-7.77-1.46-12.19-2.66l-7.16,11.35-4.32-.12c3.72-5,10.5-15,10.5-15a92.13,92.13,0,0,0,47,3.44s5.82,7.69,7.91,11.86l-4.11-.21-5.1-8.55c-3.55.39-7,.86-10.74,1l2.53,7.53H94.73l-2.31-7.51c-4.45-.17-8.18.17-13.5-.66L77,228.64Zm29.36,0-1.4-5.35,5-.58s2.32,4.07,3.59,5.92ZM56.74,179c6.23-9.48,28.2-39.89,28.2-39.89l3.27,0S68.49,166.67,59,180.51ZM25,164.22l7.67,5.53.05,43.08-7.79,5.49ZM56.82,93.74l4.65,9.1c-19.73,18.73-15.86,40.7-5.29,56.37a64.1,64.1,0,0,0-4.35,7.23c-14.3-9.44-18.65-34-18.54-34.26C49.05,118.1,51.17,113.62,56.82,93.74Zm80.62,67.11c1-13.87,7.79-22.93,15.37-28.46l.39,14.1C148.23,151.26,143,156.19,137.44,160.85Zm-20.6-14c17.28-16.16,17.87-39.11,5.28-56l5.15-7.21c7.3,7.83,14.46,16,17.51,35.09-10.94,8.64-20.61,22.92-23.18,37.33ZM93,128.08l0-6.61,6.37,0V128ZM79.37,128l-.09-6.59,6.39,0-.1,6.67Zm10.85-17.39s21.63-30.27,30-41.11L122,70.85,93.56,110.57ZM40.41,89.4c0,11.85-7.6,21.24-15.34,27.36l.1-13.49A183.54,183.54,0,0,1,40.41,89.4ZM152.93,32.23l0,52.58-7.23-4.36.61-44.1Zm-34.5,3.11c-16.33-4.25-31.22-5.53-46.86-2.17-2-2.43-8.89-12.58-8.89-12.58l3.95.06,5.6,9,10.66-1.39-2.74-7.3h4.39l2.19,7.17c0-.06,8.68.08,13.52.66.76-2.66,2.19-7.95,2.19-7.95h4.85c-.63,2.54-2.3,8.58-2.3,8.58a112.18,112.18,0,0,1,11.4,2.51c2.58-3.66,5-7.31,7.31-11l4.72,0C127,23.28,118.7,35.46,118.43,35.34Zm-3-6.3-7.22-1.69L110.09,21h10.09ZM74,26.73l-3.35-5.91h6.46L79.21,26Zm14.66-1.2-1-4.71H99.38l-1.2,5Z"/><path id="path3500-9-6-1" d="M61.82,20.42,72.25,35.5c4.18-.36,11.4-2.37,24-1.19,0,0,1.78,5.4,2.38,8,1.8,7.16-.58,14.44-4.77,18.17A27.62,27.62,0,0,1,86,65.82c-4.13,1.73-4.55,1.72-7,1.83a4.59,4.59,0,0,0-2.65.6c-.27.09-.45.38-.69.46a1.5,1.5,0,0,1-.59,0A164.4,164.4,0,0,0,43.21,87c-.09.07-.15.37-.24.45-.65.53-1.25.93-1.88,1.42-.09.06-.28-.06-.37,0a188.09,188.09,0,0,0-16.56,14.73l.19,33.54s4.25-2.19,6.42-3.52A54.09,54.09,0,0,0,49,168l-4.43,6.12L24.14,160.05l.29,61.89,10.85-7.55v-6.53c3.23,2.18,6.39,3,8.68,13,1.84-3.49,1.68-8.69.86-12.16a18.4,18.4,0,0,0,3.59-4l-4-3.58s1-8.68-.86-10.43c-1.5,3.94-2.7,8.11-8.32,11.15l-.07-30.14c2.8,1.78,5.45,3.78,8.22,5.6l.38-.08,2.87,2a11.83,11.83,0,0,1-.59,1c-3.48,5.29,2.32,11.78,7,7.87,1.85-1.53,5.32,4.83,6,10.94.67,3.95,1,8.86,2.1,12.29a1.71,1.71,0,0,1-.51,2.17L49.73,228.83H55l.37-.61H51.48c3.33-4.43,6.5-9.59,10-13.92,12.86,4.85,33.92,6,46.63,3,2.63,3.69,5.18,7.55,7.71,11.31h-3.66l.5.79h5l-10.42-15.37c-7.18,2.14-24.69,1.31-24.38,1.13l-.65-1.86c-3-9.73-3.29-18.36,4.26-25.33,4-3.57,8.48-5.92,13.48-5.47,2.23-.05,2.27-.17,3.2-.59a12.34,12.34,0,0,1,1.58-.48l5.06-2.81.67-.13,1.46-.77.3-.36,2.35-1.19.27,0,3.17-1.84,0-.25,1.25-.78.3.32A156.4,156.4,0,0,0,137,161.29l.32.11c5.9-4.78,13.92-12.33,16.3-15.19l-.12-14.36-.21-.17-.08-15.9h-.46l0-2c-2.61,1-5.48,3.4-5.67,3.3a55.94,55.94,0,0,0-18-35l4.31-6,20,13.47.06-3.93h.24c.25-15.09.38-54.21.38-54.21l-.19,0V28.39l-10.22,6.53-.14,6.61c-4.53-1.49-7.4-6.94-8.35-11.79-1.32.53-1.65,11.89-1.65,11.89a38,38,0,0,0-3.21,2.85s2.57,2.88,3.92,4.05c-.28.61-.84,9.17-.25,10.24.27.79,1.22.68,1.22-.16,1.38-6.74,7.76-11.16,8.12-10.76l-.15,31.09-11.35-8c2.39-2.69,2.89-7.24-.11-9.46a4.46,4.46,0,0,0-6.65,1.08c-3.68-2.41-4.92-11.31-5.46-14.8a42.49,42.49,0,0,0-1.07-6.08,20.8,20.8,0,0,1-.74-3.71,1.94,1.94,0,0,1,.55-1.48l11-15.67-5.63,0,0,.1h4.43L118.18,35.1a96.61,96.61,0,0,0-47.06-2.86l-8.2-11.55,3.72,0-.14-.25Zm8.65.14.16.28,6.44,0L77,20.58Zm9.56,0,.12.34,4.39,0-.13-.34Zm22.44.12,0,.16h4.84l0-.15Zm-14.84,0,0,.2H99.36l0-.18Zm22.5.11,0,.16h10.08l.09-.16Zm42.57,8.62,0,2.13L146,35.88c-.17,9.1-.43,44.09-.43,44.09l-1.62-1.06.32-43.82s6-3.86,8.48-5.65Zm-17.79,1.71h.23l.07.49h-.39Zm.49,1.29.17.66h-1l.12-.64Zm17.1.34v1.39l-5.85,3.66V36.45Zm-18.05,1.16L136,34l.31.76h-2Zm-37.55.41,1,.15a47.11,47.11,0,0,1,3.35,15.42c.94,6.49,2.82,13,4.13,15.73h-1.5a77.33,77.33,0,0,1-4-15,28.55,28.55,0,0,1-.17-3.14A47.72,47.72,0,0,0,96.9,34.35Zm1.93.22,1.3.14c.91,4,2.24,7.73,2.78,11.72.87,6.39,1.33,12.93,4.41,19.22H106.1a53.27,53.27,0,0,1-3.77-13.51c-.58-2.76-.59-4.83-.9-7.32a65.07,65.07,0,0,0-2.6-10.25Zm2,.19,1.31.2c.86,3.94,2.33,8.29,2.72,11.86.79,7.27,1.93,14,4.22,18.83h-.91c-3.54-6.86-3.6-13-4.59-19.41C103,42.45,101.74,38.66,100.81,34.76Zm2.08.31,1.16.18c.8,3.92,2.24,8.37,2.57,12.36a50.49,50.49,0,0,0,4.46,18H110c-3.16-5.54-3.59-12.29-4.57-19.18C104.88,42.66,103.66,38.82,102.89,35.07Zm49.61,0V36.8l-5.85,3.76v-1.7Zm-47.72.33,1.2.19c.78,3.79,2.22,7.83,2.56,11.52a59.07,59.07,0,0,0,4.34,18.53h-1.11a48.89,48.89,0,0,1-4.46-18.05c-.29-3.81-1.76-8.47-2.53-12.19Zm31.84,0,.64,1.16h-3l0-1.15Zm-29.86.36,1.43.27c1.52,6,1.92,11.77,3,17.52,1.3,7.14,2.66,10.74,3.77,12.07h-1.18c-2.9-6.18-3.92-12.3-4.6-18.67C108.74,43.23,107.51,39.53,106.76,35.79Zm2.19.4,1.09.22a105.9,105.9,0,0,1,2.46,14c1,8.49,3.87,14.91,4.47,15.2h-1.2c-2.62-3.61-3.59-9.78-4.87-18.48-.57-3.82-1.13-7.41-2-11Zm1.75.36,1.23.3S113,41.19,113.87,47c.69,4.81,1.06,14.27,6.27,19.71,2.61,2.71,7.19,5.07,10.32,2.51a4.26,4.26,0,0,0,1.4-4.93c-1.35-3.28-5.93-2.72-4.41.72.17.83-.9.86-1.65.06a2.12,2.12,0,0,1,0-2.75c1.17-1.9,4.32-2.09,6.17-.4,3,2.9,1.68,7.88-2.06,9.46-4.31,1.83-9.87-2-12.07-5.57-3.64-6.29-4.2-12.27-5-18.62C112.33,43.71,111.49,40.11,110.7,36.55Zm1.85.51,1.24.3s1.37,6.12,1.82,9.74c.55,4.48,1.17,9.75,3.08,13.82a15.35,15.35,0,0,0,4.67,5.89,5.62,5.62,0,0,0,4.85,1.31c2.31-.51,2.41-4.09.21-4.1-1.13,0-.39-1.09.54-1.12,3.32-.11,3.42,5.14.29,6.31-3.58,1.34-7.45-1.19-9.85-4.36-4.2-6.53-4-12.48-5-17.74a100.26,100.26,0,0,0-1.9-10Zm25.14.18.76,1h-4.22l0-1Zm-23.29.34,1.19.41a91.25,91.25,0,0,1,1.91,10.35c.86,5.4,1.14,9.9,3.93,13.8,1.17,1.63,3.36,3.79,4.74,4,.86.18,1.74,0,2-.66.36-1.06,1.27-.57,1.29.4a1.78,1.78,0,0,1-1.34,1.62c-4.11.71-7.86-4.45-9-7.07-1.55-3.81-2.21-8.07-2.88-13.37-.28-2.24-1.64-9.39-1.8-9.53Zm38.1.18,0,1.72-5.83,3.68V41.49Zm-36.31.34,1.33.36a81.07,81.07,0,0,1,1.78,9.33c.67,5.22,2.12,11.29,4.81,14.43a5.1,5.1,0,0,1,.52.69c.2.43,0,1.15-.23,1.15-4.81-2.51-6-12.58-6.36-16a80.72,80.72,0,0,0-1.85-10Zm18.14.93h4.8l1,1h-5.76ZM152.5,40.3v1.42l-5.85,3.71V44Zm-15.56.54c1.43,0,3.15,0,4.3,0l2.13,1.26c0,.09-9.66,0-9.66,0a3.45,3.45,0,0,0,.66-1.26Zm15.56,1.71v1.7l-5.85,3.67v-1.6Zm-19.26.32,10.13.11v.88H131.66Zm-1.78,1.93,11.91,0V46H132.66Zm21,.22V46.8l-5.85,3.63V48.74Zm-19.1,1.91s6.65,0,10,0l-2,1h-6.56Zm19.1.58v1.68l-5.85,3.68V51.22Zm-17.7,1.28h5.69l-1.11,1.08-4.74-.07ZM152.5,50v1.79l-5.85,3.58V53.79Zm-17.93.65h4l-.71.93h-3.42Zm-35.18.53c.46,4.9,2.27,9.88,3.89,14.5H102A56.89,56.89,0,0,1,98.6,54.39a19.56,19.56,0,0,0,.79-3.24Zm34.93,1.16h3l-.66,1.22h-2.45Zm18.18.28v1.57l-5.85,3.6V56.33Zm-18.28,1.59h2l-.47,1.1H134.2ZM152.5,55V56.7l-5.85,3.64V58.72Zm-54.41.3a50.52,50.52,0,0,0,3.37,10.32h-1.11c-.13.4-3-8.53-3-8.53s.23-.59.79-1.79Zm36.11.75h1.19l-.21.67-1,0Zm.11,1.49h.61l-.14.6h-.39Zm18.19,0V59l-5.85,3.71V61.37Zm-55.76.15c.88,2.64,1.76,5.33,2.81,7.9H98.24a67.14,67.14,0,0,1-2.31-6.82Zm-1.32,1.76,2.17,6.14H96.36a48.89,48.89,0,0,1-1.93-5,11.46,11.46,0,0,1,1-1.1Zm57.08.38v1.6l-5.85,3.63V63.73ZM94,61c.67,1.45,1,3.1,1.75,4.61H94.17a27.06,27.06,0,0,1-1-3.86Zm-1.41,1.2a29.42,29.42,0,0,0,1,3.41H92.09A9.11,9.11,0,0,1,91.64,63Zm60,.22v1.68l-5.85,3.53V66.11Zm-61.4.93a16.44,16.44,0,0,0,.36,2.26H90.17A6.71,6.71,0,0,1,90,64.1Zm-1.74,1.15s.09,1.12.1,1.11h-2C88.13,65.3,89.36,64.54,89.36,64.54Zm63.14.63v1.35l-5.85,3.65V68.81ZM83,67.3l35.13,0A7,7,0,0,0,119.6,69c-13.37.09-26.61.28-43.29,0l1.84-1A28.16,28.16,0,0,0,83,67.3Zm69.51.2V69l-5.85,3.54V71.09ZM53.64,68.92a15.57,15.57,0,0,1-7.43,1.4c-4.24-.34-10.73,1.43-12,5.51-.41,1.45-.41,1.49.37,2.22a2.26,2.26,0,0,0,.83.61,9.25,9.25,0,0,1,2.56-2.06c3.79-1.37,7.21-.26,10.7-1.21C51.43,74.61,54,72.32,53.64,68.92Zm-.12.37c-.47,5.64-6.58,6.38-9.26,6.22-5.44-.33-7.58,1.3-8.44,2.31-.29.27-.45.2-.41,0,.63-3.13,5.68-3.25,8.22-3.21,6.22.28,7.79-2.72,7.62-2.75-.47.21-.82.4-1.3.62-.21.09-.16,0-.7-.35,0,0-.62,1.44-1.42.12,0,.06-.56,1.17-1.65.13,0,.12-.66,1.07-1.72.09-1,.86-1.47.39-1.9-.21-.31.19-1.24,1.44-2,.09-.82.52-1.16,1.09-1.87.75-1.65.3-3.07,2-3.65,3.54-.19.54-.55.62-.6,0-.19-1.62,2.47-4.42,5.14-5.2a20.25,20.25,0,0,1,8.06-.86,17,17,0,0,0,5.89-1.28Zm66.65.42,1.65,1.12-28.66,39.7H90.63Zm-46,0h3.26v5.4H74.65l-1-1.5a1.67,1.67,0,0,0,.89.24,1.75,1.75,0,1,0-1.75-1.74,2.29,2.29,0,0,0,0,.25l-1-1.56a15.57,15.57,0,0,1,1.51-.74c.28-.13.94-.35.94-.35Zm10,0h5.52v5.4H84.24Zm12.1,0h5.71v5.4H96.34Zm12.33,0h5.72v5.4h-5.72Zm43.75.13.08,1.68-5.85,3.56V73.45Zm-41.1.56a1.85,1.85,0,1,0,1.85,1.85A1.85,1.85,0,0,0,111.32,70.43ZM87,70.52a1.85,1.85,0,1,0,1.85,1.85A1.84,1.84,0,0,0,87,70.52Zm12,0a1.85,1.85,0,1,0,1.84,1.85A1.85,1.85,0,0,0,99.06,70.56Zm-18.28.24a1.56,1.56,0,1,1-1.55,1.56A1.55,1.55,0,0,1,80.78,70.8Zm36.72.06a1.44,1.44,0,0,1,1,.37l-1.69,2.29a1.43,1.43,0,0,1,.73-2.66Zm-12.22,0a1.55,1.55,0,1,1-1.55,1.55A1.55,1.55,0,0,1,105.28,70.87Zm-12,0a1.55,1.55,0,1,1-1.55,1.55A1.54,1.54,0,0,1,93.24,70.87ZM74.53,71a1.16,1.16,0,1,1-1.16,1.16A1.15,1.15,0,0,1,74.53,71ZM71,71h0a84.74,84.74,0,0,1,17.38,39.49H86.71A87,87,0,0,0,69.46,71.65Zm40.34,0a1.23,1.23,0,1,1-1.22,1.23A1.23,1.23,0,0,1,111.32,71.05ZM87,71.15a1.23,1.23,0,1,1-1.22,1.22A1.23,1.23,0,0,1,87,71.15Zm12,0a1.23,1.23,0,1,1-1.23,1.23A1.23,1.23,0,0,1,99.06,71.18Zm30.63.88c.65,5-.63,8.18-4.41,8.7-4.83.67-5.46,1-5.48,5.61,0,5.42-.83,7-4.67,7.42-4.32.48-5.32,1-4.93,6.37.28,3.92-1.26,5.59-4.58,6.31-2.6.57-4.85,1.44-5.82,4.06H97.43c.62-4.13,4.76-6.06,7.42-6.2,2.86-.68,3.46-1.64,3-6.67-.35-3.79,1-4.94,5.47-5.8,3.55-.71,4.42-1.73,4.23-4.63-.41-6.24,0-7.18,3.53-7.94,1.81-.42,4.74-.62,5.86-2,1.28-1.56,1-2.9.83-4.83Zm22.81.17v1.63l-5.85,3.61V75.88Zm-85.93,1c-1.25,5.41,3.05,6.59,5.67,7.5,3,1.06,3.78,2.6,3.44,8-.27,4.06.18,5,2.81,6.36,4,2.08,5.1,5,3.31,9.35-1.1,2.66-.52,3.84.17,6.16H80a7.54,7.54,0,0,1-.39-6.52c1.67-3.75,1.62-5.64-2.09-7.33-2.87-1.3-3.75-2.54-3.93-5.23a19.8,19.8,0,0,1,.2-4.16c.33-3.1-.77-4.44-5.35-6.15-2-.76-3.43-2.53-3.85-5.33a7.27,7.27,0,0,1,0-1.69Zm68.55.59L152.55,85.4,152.43,88l-18.5-12.37ZM123.88,74a1.53,1.53,0,1,1-1.52,1.53A1.52,1.52,0,0,1,123.88,74Zm-54.83.66a1.39,1.39,0,0,1,0,2.78,1.39,1.39,0,1,1,0-2.78Zm83.4.17-.06,1.55L146.65,80V78.42ZM69,75.31l-.37.63-.37.64h1.47l-.36-.64Zm6.25.58h39.8l-1,1.37H76.25ZM61.49,76c5.27,6.88,10.45,14.09,14.45,27.45l-1.71.66a80.56,80.56,0,0,0-14.35-27.2Zm91,1.22v1.71l-4.4,2.68-1.29-.85Zm-93.34.18.78,1C58.36,79.79,55.4,81.2,55,83a3.09,3.09,0,0,0,3.07,3.6c2.21-.16,3.91-1.72,5.84-2.93l.67,1s-3.35,2.51-5.31,3.08C55,89,51.78,83.54,55,80.3a16,16,0,0,1,2.33-1.69c.84-.55,1.87-1.25,1.87-1.25ZM76.88,78l36.59.22L90.11,110.53h-1A88.22,88.22,0,0,0,76.88,78ZM60.93,79.4l2.14,3a19.63,19.63,0,0,1-3.7,2.6c-1.84,1-3.84-.83-2.68-2.49S60.93,79.4,60.93,79.4Zm91.57.3v1.57L150,82.82l-1.16-.74ZM60.75,80.9a5.16,5.16,0,0,0-3.36,2.2.9.9,0,0,0,.07,1.08c.35.45.76.42,2-.23,2.49-1.32,3-2.11,1.86-2.89a1,1,0,0,0-.54-.16Zm0,.62a1.2,1.2,0,0,1,.38,0c.45.12.3.71-.15.84-.1-.16-.85-.18-.8.58-.18.43-.17.4-.72.46a.58.58,0,0,0-.67.32c-.38.21-.84.14-.93-.09s.23-.85.49-.85.35-.18.58-.34c0-.41.48-.47.62-.47a.82.82,0,0,0,.83-.35.65.65,0,0,1,.37-.14Zm91.8.4v2.4l-1.84-1.17ZM51,82.22A67.82,67.82,0,0,1,65.5,110.1l-1.34.92c-2-8.14-5.13-16.74-14.32-27.92Zm78,.13a54.75,54.75,0,0,1,17.74,34.92l-1.66,1a56,56,0,0,0-17.15-34.54Zm-6,.72a1.53,1.53,0,1,1-1.53,1.53A1.53,1.53,0,0,1,123,83.07Zm-73.85.6s1.4,1.44,1.39,1.78c0,.68-.54,1.07-3.76,2.24-.54.2-2.92.75-2.92.75l.06-1.18c1.21-.44,4.32-1.2,4.56-1.89.12-.27-.46-1-.34-1Zm22.2.29a1.39,1.39,0,1,1-1.39,1.39A1.38,1.38,0,0,1,71.33,84Zm56.08.4A56.09,56.09,0,0,1,144.32,119c-11.73,9.56-19.7,21.57-22.86,36.6-1.57-2.61-2.9-5.62-4.35-8.55,15.66-13.78,19-38.6,5.41-56Zm-56,.21-.37.64-.37.63H72.1l-.37-.63Zm-5.56,1.67.71,1.09c-1.28,1.2-5.15,2.29-5.5,4.91-.19,1.9,1.15,3.9,3,3.59a15,15,0,0,0,5.47-2.35l.55,1.15A17,17,0,0,1,65.56,97c-2.79,1-5.44-.72-5.93-4-.36-2.35.66-3.61,4.74-5.93.45-.24,1.44-.85,1.44-.85Zm48,.52a1.53,1.53,0,1,1-1.53,1.53A1.52,1.52,0,0,1,113.81,86.76Zm-62.25.06h0l.92.87a9.86,9.86,0,0,1-2.67,2c-2,1.23-2.25,1-1.23,1.89,1.89,1.61,4.52,5.16,4.51,6.07s-.81,1.7-2.32,2.39c-.83.37-4.12,1.54-4.6,1.63-1,.1-1.23.49-.27,1.36,1.63,1.87,3,5.88,2.46,7.1-.63,1.38-1.38,1.61-7.42,1.89-.68,0-1-.17-.64.72a21.05,21.05,0,0,1,1.09,4.23c.48,2.43.4,3.52-.54,4-.54.28-4.73.18-6.47-.16-2-.39-2.2-.42-1.88.88.42,1.79.68,6.58-.67,7.5-.56.37-1.17.28-3.63-.55-1.57-.53-2.94-1.14-2.94-1.14l0-1.49c1.28.53,4.8,2,5.79,1.57,1.19-1.7-.46-7.66-1.08-8.94-.76-1.52,0-1.85,1.78-.91.91.65,8.82,3.77,8.37,1s-1.34-5.67-3-7.56-.77-2.47.94-1.7c3,1.36,9.31,1,9-.39-.42-2.29-2.49-5.39-5.34-7.8-.79-.67-.82-1,.12-1.12,2.65-.21,10.25-1,9.19-2.78a18.2,18.2,0,0,0-3.17-4A14.05,14.05,0,0,0,43.7,91l0-1.1c3.46-.28,5.26-1.33,7.81-3.11Zm-8.38,1.07c-1.24,13-6.68,23.78-17.92,31.27l-.06-1.47c9.88-7.43,14.62-18,15.9-28.21Zm9.54.62.92.83a8.67,8.67,0,0,1-1.56,1.43c-1,.79-.68.48,0,1.43.62.75,1.74,2.26,1.74,2.26l-.33,2a33.93,33.93,0,0,0-3.88-4.67c-.88-.91-.83-.93.43-1.59.94-.52,1.71-1.15,2.65-1.71Zm14.35.17a37,37,0,0,1,1.86,3.59c-2.18,1.36-4.94,3.61-6.34,1.1a2,2,0,0,1,.95-2.58,24.35,24.35,0,0,1,3.53-2.11Zm10.87,1.13a1.39,1.39,0,0,1,0,2.77,1.39,1.39,0,1,1,0-2.77Zm-11.2.11a11.17,11.17,0,0,0-3.34,2c-.27.19-.06,1.14.2,1.47s.92.35,1.64,0c.3-.17.85-.44,1.21-.61,1-.47,1.44-.82,1.4-1.21s-.58-1.69-1.11-1.65Zm-26.56.51c.29,1.46-.59,4-1.09,5.48-3,3.87-7.24,5.85-11.32,7.2a5.77,5.77,0,0,1-2.12.15A99.65,99.65,0,0,1,40.18,90.43Zm37.76,0-.37.63-.37.64h1.48l-.37-.64Zm-11.06.09c.21,0,.34.37.45.73-.64.35-1,0-.91.54,0,0,.07.75-.87.77a.8.8,0,0,0-.81.11c-.65.27-1.22-.3-.51-.63.19-.09.66-.23.79-.53s.37-.65.7-.45c.17,0,.56,0,.69-.23s.34-.33.47-.31Zm-38.25.61-.33,0c-.28.25-.71,4.29-.43,4.58s1.49.51,1.59,0a36.57,36.57,0,0,0,.42-4.1,1.5,1.5,0,0,0-1.25-.56Zm.42.43c.6.25.31,2.39,0,3.38-.16.6-.62.47-.8-.09A5.48,5.48,0,0,1,28.57,92c.18-.32.34-.45.48-.42Zm26.1,0,1,1.2c-2,19.45-15.91,36.27-30.71,42.94l0-1.29c16.93-8.91,27.12-23.74,29.79-42.85Zm67,.08L124,94.23l-2.63.09Zm-78.74.83c.91,0,5.73,3,5.09,4.45C48,98.16,44,98.26,42.09,98.09L42.37,97a8.13,8.13,0,0,0,2.72,0c2.26-.15,2.09-.92-.5-2.57-1.11-.69-1.37-.87-1.37-.87Zm13.37,1.59A69.68,69.68,0,0,1,61,102.68c-18.24,17.24-16.83,40.71-5.33,56.12l-4.95,6.7A57,57,0,0,1,33.61,132c14.46-10.42,21.26-26,23.17-37.89Zm67.72.77L125.59,97l-2.61,0Zm-11.29,1a1.53,1.53,0,1,1-1.53,1.53A1.53,1.53,0,0,1,113.21,95.93Zm-42.44.41.52,1.19c0,.15-3.66,1.35-4.88,2.83-2.54,3.07.55,5.75,3.21,4.94a24,24,0,0,0,4-1.79l.26.76c-1.91,1-3.52,2.22-5.61,2.26a4.14,4.14,0,0,1-2.55-7.34,24.54,24.54,0,0,1,5.08-2.85Zm47.7.74c11.89,17.18,3.75,36-3.93,42.68l-.2-2a32.46,32.46,0,0,0,3-39.65Zm7.65.77.94,2.12-2.76-.29Zm-47.94.69a1.39,1.39,0,0,1,0,2.78,1.39,1.39,0,0,1,0-2.78Zm38.87.27c10.43,15.18,4.61,39.37-15.27,46.74l-.1-1.7C122,135.36,123.94,112.76,115.8,100Zm-45.19.1,1.32,3.56A10.07,10.07,0,0,1,69,104.22a1.78,1.78,0,0,1-1.48-3.17A18.39,18.39,0,0,1,71.86,98.91Zm-33.81,0c.24,0,0,.6-.65,2.12-1.38,3.37-1.48,3.44-5,4a17.38,17.38,0,0,1-4.46.24c-1.95-.19-2.78-.74-1.52-1a31.33,31.33,0,0,0,10.34-4.54,5,5,0,0,1,1.26-.8Zm40.14.29-.37.63-.37.64h1.48l-.37-.64Zm26.12.12a1.72,1.72,0,1,1-1.71,1.72A1.72,1.72,0,0,1,104.31,99.33Zm-51.59.48-.38,1.32s-2.12,1.12-3.12,1.54c-.76.31-.82.38-.57,1.09a25.52,25.52,0,0,0,1.45,3.18l-.89,2a23.53,23.53,0,0,0-2.1-5.39c-.94-1.32-1.11-1.48.35-1.76a31.63,31.63,0,0,0,5.26-2Zm18.65.43c-1,.05-3.2.92-3.41,1.75-.12.47,0,1.13.41,1.28a4.37,4.37,0,0,0,3.81-1.3c.17-.25-.1-.77-.29-1.09S71.78,100.22,71.37,100.24Zm0,.69.12,0c.17,0,.81.79.1.72a.82.82,0,0,0-.68.28c0,.39-.58.54-.85.41a.41.41,0,0,0-.5.22c-.41.29-.92.28-1,.07s.27-.74.62-.71a1.68,1.68,0,0,0,.56-.37c.12-.41.54-.34.81-.32s.53-.3.8-.32Zm56.07.08.77,2.13-2.74-.25Zm-12.66.47a1.32,1.32,0,0,1,.92,2,1.86,1.86,0,0,1-1.91.69,2,2,0,0,1,.32,2.64c-1,1-2.93-.55-2.79-.69Zm-74.23.78s4.21,3.63,4.24,5.25a.84.84,0,0,1-.68,1c-1.66.55-6.25-.86-6.25-.86l.59-1.13c.72.2,4.28,1.13,4.59.67s-3-3.69-3-3.69Zm20.88,1.51.5,1.76-1.72-.43Zm67.18.32.44,2.42-2.75-.64Zm-52.51,0,.41,1.42c-18.28,8.49-23.61,28-14.08,44.07l-1.08,1.48c-12.76-20.7.16-41.72,14.75-47Zm-41.56,1.43c.3,0,.44.13.38.42a16.22,16.22,0,0,1-2.45,3.18c-1.29.52-6.29-1.57-7-3.19-.15-.47.35-.27,1.45,0,2.67.76,5.38-.1,7.31-.35a1.45,1.45,0,0,1,.35,0Zm48.63,0A1.39,1.39,0,1,1,81.77,107,1.38,1.38,0,0,1,83.16,105.59Zm-23.54,0,.25,2.16-2.12-.12Zm23.51.65-.37.64-.37.64h1.47l-.36-.64Zm-57.53,1A12,12,0,0,0,30.85,110c1.13.25.8.36-.25,1.44s-.9,1.16-1.89.65c-1.67-.84-3.47-2.76-3.4-3.81,0-.43.1-.93.29-.93Zm103.79.23.34,2.31-2.6-.91ZM57,108.36l.84,2.07-2.31-.07Zm57.16.49a1.41,1.41,0,0,1,1.52,1.48,6.41,6.41,0,0,1-.08.78c1.36-.87,3.17-.16,3.11,1.24-.07,2-1,2-2.61,1.73.86,1.43-.16,2.81-1.78,2.28s-1.19-2-.5-3a3.59,3.59,0,0,0-.39,7c-.81-1.25-1-2.75.74-3s2.32,1,1.62,2.49c1.53-.53,3,.35,2.51,1.84-.56,1.81-2.16,1.68-3.1.59a1.58,1.58,0,0,1-2.08,2.17c-1.86-1-.94-2.78.31-3.25-4.8-.5-5.92,6.16-2.38,7.11-.91-.57-1-3.19,1.07-2.83s1.55,2.3.24,3.17c1.58-.34,3.06,1,2.1,2.44-1.13,1.64-2.7.47-3.28-.65.19,1.5-.77,2.46-2,1.9-2.1-1-.55-3.39,1.1-3.24-3.34-2-7.89,2.17-5.21,5.61-.1-1.56.67-2.84,1.74-2.67a1.78,1.78,0,0,1,1.51,2,2.56,2.56,0,0,1-1.93,1.45c2.55.28,2.77,2.1,1.71,3-1.8,1.52-2.63-.24-3-1.26-.36,2.54-3.36,1.68-3.46-.16-.1-2,2.22-2,2.64-1.86a8.39,8.39,0,0,0-4.1-2.24v-.73a19.06,19.06,0,0,0,8.34-21.87l.46-.54c1.27,1,2.54,3,4.89,2.29a7.71,7.71,0,0,1-.82-.65c-1.2-1.19-.52-2.6,1.16-2.68Zm-51.26,1.48.8,1.18c-11.8,13.85-9.65,29.69-2.86,40.18l-1,1.19c-6-7.71-10.91-26.4,3-42.55Zm-37.39.17a22,22,0,0,1,2.53,2.16c.7.57.69.67.11,1.21-1.3,1.26-2-.56-2.46-1.31-.52-1-.57-2-.18-2.06Zm45.87.06A1.64,1.64,0,0,1,73,112.24a3.4,3.4,0,0,0,0,.56,6,6,0,0,0,.46-.7c1-1.68,3.17-.71,2.82,1.23-.17.9-1.7,1.26-2.12,1,.4,1.08,1.47,1.34,2.78,1.81.46.08,1.36.31,1.36.31v.73c-7.07,4.46-11.17,12-8.58,22.39l-.78,1.06c-1.43-3.44-2.73-3.36-5.08-3.5a6.08,6.08,0,0,1,.92.81c.71.85.4,2.32-.59,2.47-2.28.35-2.3-1.27-2-2.37,0,0-.41.35-.61.48a1.4,1.4,0,0,1-2.14-1.19c-.09-1.1.28-1.82,1.41-2a4.05,4.05,0,0,1,1,.05l-.34-.68c-.55-1.06.64-2,1.73-1.74,1.72.42,1.59,1.9.59,3.07,2.67.2,4.07-1.55,3.87-3.28a3.63,3.63,0,0,0-3.31-3.63s.34.53.48.79a1.46,1.46,0,0,1-1.36,2.12A1.51,1.51,0,0,1,62,130c.1-.26.54-.58.47-.61s-.64.17-.8.2a1.54,1.54,0,0,1-1.7-2.24,1.94,1.94,0,0,1,2.55-.67c.15,0,.32.25.35.21a4.2,4.2,0,0,0-.13-.53c-.29-1.12.25-1.72,1.46-1.64,1.7.11,2.33,1.49,1.19,2.74l-.74.8c0,.25,2.42.43,3.62-.84,1.4-1.47,1.62-4.53.22-5.52l-.7-.5c.67,1.35-.56,2.89-1.65,2.61-2.17-.53-2-2.31-.55-2.87A5.47,5.47,0,0,1,63.74,120a1.46,1.46,0,0,1,.32-2.17,2,2,0,0,1,2.77.64c.37-1.13.89-1.89,2.43-1.27,1.07.51,1.06,2-.12,2.73a6.19,6.19,0,0,1-1.06.49,5.17,5.17,0,0,0,2.26.59,3.7,3.7,0,0,0,3.32-5,5.15,5.15,0,0,0-.68-1,4.37,4.37,0,0,1-.2,1,1.62,1.62,0,0,1-2.58.41,1.33,1.33,0,0,1,0-2,3.46,3.46,0,0,1,1.32-.77c-.63-.22-1.34-.37-1.65-1a1.48,1.48,0,0,1,.67-1.89,1.46,1.46,0,0,1,.83-.23Zm58.58.29.16,2.44-2.71-1ZM55.16,111l1,2.22H53.61Zm52.7,0c2.37,8.77-1.36,15.56-7.69,20.49v-1.4c4.94-4.21,8.34-9.17,6.71-18Zm-72.67,0s3.66,4.75,2.93,6.36c-1,1.53-6.75-1.77-6.67-2l.72-.69c.92.37,3.77,2,4.41,1.7.22-1.44-1.47-3.3-2.1-4.54Zm43.61.4h27.81l-.84,1.33h-2.16l-4.3,7.87h-20Zm-31.21.37-1,1.74c-.9.28-3.61.33-3.83.51a27,27,0,0,1,.69,3.51l-1.07,1.37c-.29-1.68-.77-3.82-1.19-5.38-.36-1.33-.26-1,2.56-1.25A24.1,24.1,0,0,0,47.59,111.8Zm5.71,2.1,1.14,2-2.32,0ZM25.45,114c.13-.06.85.75,1,1-.05.53-.87.82-1,.63a6.1,6.1,0,0,1,0-1.59s0,0,0,0Zm104.89,0,0,2.55-2.76-1.22Zm21.87.58,0,1.65c-10,4.88-25,18.13-29.23,41.67l-.78-1.17a61.81,61.81,0,0,1,30.05-42.15ZM51.73,116.91,53,118.78l-2.24.25Zm78.66.72-.22,2.25-2.71-1.5Zm-52.09.47c0,.53,0,.92,0,1.45-6.15,4-8.23,10.27-7.21,18.18L70.24,139A18.4,18.4,0,0,1,78.3,118.1Zm-50.47.3s2.34,5.29,1.41,6.54c-.9.74-3-.49-3.92-1l0-1.26s.72.37,1.44.66c1.49.66,1.49-.13.68-2.34-.29-.77-.57-1.67-.57-1.67Zm121.75.16a19.09,19.09,0,0,0,2.66,1l0,1.5L148,119.52Zm-99.31,1.63,1.61,1.69-2.24.51Zm97.3.19a2.54,2.54,0,0,1,.47,0,15.46,15.46,0,0,1,4.15,1.15v1.67a35.82,35.82,0,0,0-4.48-1.4c-1.16-.16-1.09.49-1.1,2.14a14.33,14.33,0,0,0,1.62,6.46c.88,1.84.42,2.33-1,1.51-2.59-1.78-8.1-3.12-8.95-2.08s.85,6.36,2.84,8.88c.8,1,.71,1.1.33,1.5s-.65.44-1.52.16c-2.87-.91-7-1.12-8.21-.34s1.9,6.07,4.49,7.78c1.68,1.2,1.36,1.8-1.36,1.86-4.43,0-7.84,1-7.65,2.22.32,2.07,3.19,4.89,6.48,6.39,2,.83,1.18,1.16-.16,1.63A44.57,44.57,0,0,0,127,163l-1-1.3s2.12-1.35,4.43-2.65c.54-.3.51-.42-.25-1.05-2.46-2.07-4.26-4.37-4.64-5.92s.39-2.46,2.62-3.31a18.41,18.41,0,0,1,3.11-1c1.75-.39,1.78-.45,1-1.8l-1.22-2.22c-2.62-4.48-1.24-6.1,4.83-6.19,1.49-.08,1.78-.09,1.7-.6-.33-2.11-1.26-4.54-1.13-6.32.28-2.7,3.05-3.35,7.92-2.14,1.12.28,1.2.23,1-.68-.89-3.86-.08-7.35,2.19-7.52Zm-17.39.3-.43,2.62-2.59-1.73Zm-96.93.62,7.15.47-1.14,1.34L34.94,123l-.16,3.69-1.4,1.37Zm46.33.28h5.83v6.24H79.58Zm7,0h5.48v6.24H86.59Zm6.56,0H99v6.24H93.15Zm51.29.5a38.16,38.16,0,0,0,.33,5.75c-.09.37-.35.31-1.89,0a22.38,22.38,0,0,0-4-.47L140.1,126c1,.12,1.81.11,2.86.24,0-1.05,0-3.05,0-3.05Zm-95.1,1.24L51,125l-2.1.54Zm80.27.54-.66,2.66-2.38-2.14Zm19.24.07a4.59,4.59,0,0,1,3.29,1.34v1.36l-2.34-1a13.5,13.5,0,0,0,1.34,4.35l-1.19,1a11.07,11.07,0,0,1-1.61-5.25c0-.64-.07-1.73.5-1.76ZM48.53,126.62l2,1.16-2.17.88Zm80.33.6-1,2.74-2.09-2.37Zm-103.55.87,5.54,2-1.21.82-4.38-1.39Zm54.06.73H99.23l.44,9.72-27.84-.23,1-1.38h1.8Zm-31.21.75L50.23,131l-2.15,1Zm104.1.86V132c-6.72,5-14.07,13.46-15.31,28.62l-1.73,1.55c.89-14.8,7-24.92,17-31.76Zm-24.52.06-1,2.47-1.93-2.3Zm8,.45a39,39,0,0,0,1.14,6,23.38,23.38,0,0,0-5.58.43l.93-1.66s.86-.09,1.61-.24c1.56-.31,1.4-.13,1-1.48a12.74,12.74,0,0,1-.36-1.54,14.93,14.93,0,0,1,1.22-1.54Zm5.13.31c1.83,0,4.57,1.66,5.8,2.6l-.65.72c-.18.06-2.74-1.31-4.76-1.64a24.23,24.23,0,0,0,2.44,4.36l-1,1.17c-.28-.06-3.93-5.71-3-6.93A1.93,1.93,0,0,1,140.88,131.25ZM33,132.52h0c2.41,14.59,8.16,24.62,17.23,33.63l-.93,1.21a56.28,56.28,0,0,1-18-33.9Zm15,.61,2,1.07-2,1.18Zm104.24,0,0,2.14L151,134.07a7.38,7.38,0,0,1,1.24-.9Zm-25.84.44-1.34,2.46-1.75-2.33Zm23.94,1.06c1.77.25,2.34,3.81,1.75,4.5a23.61,23.61,0,0,0-3.83-2.6A7.61,7.61,0,0,1,150.34,134.67Zm-28.58,1.83,2.84.27-1.51,2.35ZM48,136.5l2.22,1.08-2,1.42Zm100.05,1a3,3,0,0,1,1.31.45c2,1.12,3.05,2.34,2.94,3.43-.05.5-.33.6-.65.24a9.61,9.61,0,0,0-4.26-1.84c-1.29-.25-1.4-.36-1-1,.59-.91,1.07-1.32,1.68-1.32Zm-34.26,1a65.54,65.54,0,0,0,15.42,28.18l-1.54,1.1c-5.16-5.94-10.84-12.88-15.48-27.89Zm-36.31.58h2.32c.33,0-1,5.15-5.5,5.49-2.87.48-3.19,1-3.23,5.42-.06,6.06-1,7.47-6,7.84-3.27.25-3.7.92-3.15,5.62.53,4.48-1.16,6.76-5.32,6.76-3.61.29-5.1,2-5.1,5.33,0,1.35,0,1.68,0,1.68l-2.33.18a30.29,30.29,0,0,1,.18-3.27c.71-4.33,2.57-6.07,6.47-6.05,3-.23,3.49-.72,3.38-5.3s-.18-4.63,1-5.85a4.75,4.75,0,0,1,3.26-1.29c4.93-.46,5.32-.79,5.31-5.86-.46-4.21.7-6.79,3.37-7,5.31-.41,5.25-3.7,5.25-3.7Zm7.64,0h2.51L58.79,180.07l-1.53-1.15Zm3.51,0C91.37,149,93.5,158.88,102,171.79l-36.19-.24Zm.93,0h1.29c3.17,17.12,13.19,33.32,18.69,39.24l-1.07.57c-8-10-15.31-21.63-18.91-39.81Zm7,0h2.06c.21-.1,1.06,5.23-.21,7.58-1.14,3.18-.58,5,1.9,6.13,4.25,2,5.33,4,4.79,8.87-.38,3.42.65,5.07,3.86,6.17,3.82,1.32,5.5,3.38,5.48,6.75a4.09,4.09,0,0,1-.2,1.11L112.14,177s0-.46.1-1c.56-3.74-.15-4.76-4.56-6.52-4.17-1.67-5.2-3.6-4.49-8.41a7.12,7.12,0,0,0-.74-4.34c-1.09-1.95-3.5-1.93-5.23-3.71-1.43-1.52-1.59-3.64-.37-7.28.92-2.77.9-4.07-.26-6.6Zm23.38,0,2.84.43-1.66,2.13Zm-71.58.74,2.46.68L49,142.54Zm97.49.51a9.29,9.29,0,0,1,3.81.94c3.06,1.53,3.61,2.78.93,2.1a12.81,12.81,0,0,0-5.78.23c-2.22.55-2.17.57-1.41-.77,1-1.7,1.22-2.46,2.45-2.5Zm-11,.64a15,15,0,0,1,5.49,1.17l-.56,1a15,15,0,0,0-4.35-.65,14.81,14.81,0,0,0,2.87,3.49l-.45,1c-.11.13-3.53-2.73-4.21-4.65-.31-.87,0-1.25,1.21-1.28Zm-40.22.22A1.67,1.67,0,1,1,93,143,1.66,1.66,0,0,1,94.62,141.31Zm34.35.05s2.7,5.36,2.53,5.56c-1.67.74-3.5,1.13-5.34,1.8l.35-1.56a11.93,11.93,0,0,0,2.67-.83c1-.37-1.07-3.12-1.07-3.12Zm-11,.4,2.8.51-1.87,2.09Zm-52.39,0c.66-.05,1.68,1.24,1.68,1.24l-3.39,4.7a1.46,1.46,0,0,1,.2-2.85c.35,0,1,.06,1,.06a2.71,2.71,0,0,1-.72-.6c-1-1.2,0-2.44,1.26-2.55Zm28.23.72.37.63.37.64.37-.64.37-.63H93.83Zm16.44.45c3.94,0,4,4.88,3.24,6.48-.55,1.1-1.39,1.71-3.91,2.86-2.19,1-2.43.92-2.43.92l-.52-1.17s1.27-.56,2.64-1.12c2.84-1.15,3.53-2,3.22-4.08-.44-2.91-2.69-3.36-7-1.41-.5.23-1.14.45-1.14.45l-.29-.58a28.76,28.76,0,0,1,5.38-2.29,4.15,4.15,0,0,1,.84-.06Zm-61,.52,2.23.74-1.63,1.6Zm99.41.63c2,0,3.59.33,3.59,1,0,.34-.08.36-1.85.61-2.69.37-7.19,2.68-9.72,4.81-1.5,1.27-1.11,1-.48-.86s1.56-4,2.07-4.34c1.27-.83,4.15-1.25,6.39-1.25Zm-32.25.25,1.9.42-1.24,1.2Zm-6.36,1a1.61,1.61,0,0,1,1.32,2.57c-1.14,1.57-5.21,2.85-5.21,2.85l-1.38-3.72S108,145.28,110.07,145.38Zm-6.42.45a82.37,82.37,0,0,0,15.45,27.23l-1.37.86A79.27,79.27,0,0,1,102.13,146Zm48.5.34c.2,0,.33.07.28.28-.11.5-7.9,8-12.41,11.83-2.06,1.74-2,1.73-2.17,1.51a21.74,21.74,0,0,1,1.3-6.71,24.39,24.39,0,0,1,12.2-6.78A4.7,4.7,0,0,1,152.15,146.17Zm-42.41.11a8.72,8.72,0,0,0-2.39.75c-1.55.59-1.68,1.32-1,2.21.31.39.62.31,2.11-.28s2.17-.88,2.26-1.42c.13-.79-.3-1.28-1-1.26Zm.08.42c.54,0,.53.34.59.57s-.35.47-.71.47a1,1,0,0,0-.64.27c-.2.29-.32.56-.68.49a1.06,1.06,0,0,0-.73.08c-.69.61-1.38.11-1.06-.5.08-.16.36-.23.59-.23s.65,0,.71-.29.52-.37.83-.36a.7.7,0,0,0,.69-.26.74.74,0,0,1,.41-.24Zm-35.65.09a1.67,1.67,0,1,1-1.66,1.66A1.66,1.66,0,0,1,74.17,146.79Zm-24,0,2.51.34-1.58,2Zm50.19,1.28a1.66,1.66,0,1,1-1.66,1.66A1.66,1.66,0,0,1,100.36,148.11Zm-.77,1.14.37.64.37.63.36-.63.37-.64H99.59Zm-48.3.74,2.73.17-1.56,2.09Zm14.4.4A1.66,1.66,0,1,1,64,152.05,1.66,1.66,0,0,1,65.69,150.39Zm68.14,1c1.14,0,2.46.1,2.46.1L136,152.8c-1.39.13-3.17-.25-4.65.37.55.9,3.79,2.18,4.14,2.5a9.71,9.71,0,0,1-.26,1.36c.08.31-5.48-2.27-5.67-4.44,0-.74,2.41-1.14,4.3-1.17Zm-19.14,1.33c3.16,0,4.73,4.45,3.5,6.41-1.55,2.14-3.25,3-5.58,4.21l-.83-1.28c4-1.69,6.74-4.11,5-6.62-2-2.77-4.92-.27-8.11.9l-.57-1C108.25,155.43,112.55,152.84,114.69,152.75Zm10.19.17a18.8,18.8,0,0,0,4.8,5.67s-2.57,1.65-4.11,2.71l-.9-1.07,2.2-1.89-2.48-3.48Zm-71.94.29h2.49l-1.06,2.24Zm96.17.41a40.32,40.32,0,0,0-.44,4.67,2.11,2.11,0,0,0,1.46.72,11.71,11.71,0,0,0,.6-5,3,3,0,0,0-1.62-.37Zm.87.48c.18,0,.35.27.38.7a7.26,7.26,0,0,1-.29,3c-.23.53-.76.33-.77-.38a12,12,0,0,1,.22-2.65C149.61,154.28,149.8,154.08,150,154.1Zm-35.48,1.28c1.63.12,2.26,1.49,1.66,2.47-1.47,1.88-3,2.22-4.91,3.31l-1.93-3.61s3.75-2.12,5.18-2.17Zm0,.8c-1.09-.05-1.76.66-2.67,1.1-1.11.55-1.47,1.39-.72,2.15.83.93,3.88-1.18,4.21-1.81.46-.88,0-1.4-.82-1.44ZM55,156.34l2.43,0-1.31,1.86Zm59.39.22a.76.76,0,0,1,.36.17.54.54,0,0,1-.26,1c-.29.07-.8.07-.81.47s-.46.4-.71.36-.71-.07-.79.26-.39.46-.71.14-.17-.77.48-.84a.84.84,0,0,0,.63-.45c0-.28.18-.44.48-.37a1.23,1.23,0,0,0,1-.58.44.44,0,0,1,.29-.12Zm-13.9.21a1.66,1.66,0,1,1-1.66,1.65A1.65,1.65,0,0,1,100.47,156.77Zm-.69,1.17.37.64.37.63.36-.63.37-.64H99.78Zm-34.73,1.88a1.67,1.67,0,1,1-1.66,1.67A1.66,1.66,0,0,1,65.05,159.82Zm69.61,1.24,0,.17,0,1.16a36.35,36.35,0,0,1-3.86,2c-.5.28-.17.89-.14,1.44l-.76.53s-1.14-.87-1.27-1.35c-.37-1.51,4.2-3.49,6-3.95Zm-109.29.24,19,13-1.29,1.9-17.65-12Zm95.56.33a5.53,5.53,0,0,1,3.7,5.81c-1.41,2.65-3.06,3.46-5.43,4.91l-.9-1.11c2.9-1.41,6.29-3.81,4.44-6.77-2-2.78-5.22.21-8.27,1.6l-.84-1.15C116,163.91,118.39,161.68,120.93,161.63Zm-13.46.94a1.67,1.67,0,1,1-1.66,1.67A1.67,1.67,0,0,1,107.47,162.57ZM56,163a1.66,1.66,0,1,1-1.65,1.66A1.66,1.66,0,0,1,56,163Zm50.76.7.37.64.36.63.37-.63.37-.64h-1.47Zm13.62.78a2,2,0,0,1,1.38.42c2,2-2.36,4.58-4.07,5.53l-2.39-3.31s2.87-2.57,5.08-2.64Zm0,.71c-1.12-.06-2.86,1.26-3.47,2-.38.54-.21,1.07.52,1.75.62.37,4-2,3.94-2.6C121.3,165.58,120.91,165.26,120.4,165.23Zm-94.9.11.53.35-.53.42Zm94.92.3a.61.61,0,0,1,.44.28.54.54,0,0,1-.41.86.81.81,0,0,0-.74.48.85.85,0,0,1-.78.45c-.39-.09-.6.14-.62.32a.6.6,0,0,1-1,.07c-.23-.24.18-.93.45-.92,0,0,.34.08.69-.39a.78.78,0,0,1,.77-.55c.29.1.47-.22.58-.41a.92.92,0,0,1,.58-.19Zm-93.65.53.76.51-2,1.44V167Zm1.48,1,1,.69-3.78,2.71v-1.47Zm1.93,1.24,1.1.72L25.5,173V171.5Zm2.08,1.05v1.26l-6.76,4.73v-1.28Zm.77.91,1.45,1L34.85,214l-9.11,6.26v-1.86l7.65-5.54Zm109.88,1.15c-2,2.33-4.79,2.49-7.18,2.43-6.44.09-10.43.43-11.26,8.12,2.62-2,5.4-2.22,8.62-2.12,4.08,0,5.92-.28,7.57-1.11,2.67-1.33,4.35-3.71,4-5.38C144.37,173.07,143.55,171.58,142.91,171.49Zm-110.65.37v1.47l-6.76,4.54v-1.5Zm77.2.14a1.66,1.66,0,1,1-1.66,1.66A1.66,1.66,0,0,1,109.46,172Zm33.72.24c.36,0,.41.47-.34,1.21-1.43,1.4-2.91,2.09-7.61,2-5-.09-6.9.69-8.18,2.9-.38.65-.37.9.17.41s1.49-1.58,1.91-.59c.85-.56,1.57-1.4,2-.33.24-.06,1.67-1.49,2-.22.68-.77,1.27-1,1.59.08,1-.46,1.49-1.34,2-.13.78-.56,1.37-1.26,1.83-.19.67-.2,1.35-1.43,1.74-.45a8.53,8.53,0,0,0,3.16-2.87c.56-1.27,1.08-.42.44.87-1.63,3.18-4.43,4.34-10.85,4.35-3.9,0-5.51.38-6.74,1.1-2,1.15-.91-1.75.47-3.5,1.74-2.21,3.72-2.86,9.14-2.67,3,0,4.86-.39,5.66-1A3.6,3.6,0,0,1,143.18,172.24Zm-77.85,0c11.94.37,37.31,0,37.31,0l1.35,1.65H64.11Zm-10.26.63a1.67,1.67,0,1,1-1.65,1.67A1.66,1.66,0,0,1,55.07,172.91Zm53.69.3.37.64.37.64.36-.64.37-.64h-1.47Zm-76.5.93v1.5l-6.76,4.62v-1.53Zm32.69.72H70.2v5.55H65Zm11.75,0h5.65v5.55H76.7Zm12.57.18h5.44v5.37H89.27Zm11.8.11,3.63.12s2,2.57,2.86,3.75l-2.68,1.38h-3.81Zm-33.6.37a1.85,1.85,0,1,0,1.85,1.85A1.84,1.84,0,0,0,67.47,175.52Zm12.06.19a1.85,1.85,0,0,0,0,3.7,1.85,1.85,0,1,0,0-3.7Zm12.34,0a1.85,1.85,0,1,0,1.85,1.84A1.84,1.84,0,0,0,91.87,175.76ZM73.46,176A1.49,1.49,0,1,1,72,177.47,1.49,1.49,0,0,1,73.46,176Zm-11,.15a1.43,1.43,0,0,1-.83,2.6,1.41,1.41,0,0,1-.76-.22Zm5,0a1.23,1.23,0,1,1-1.22,1.22A1.23,1.23,0,0,1,67.47,176.15Zm36.68,0a1.85,1.85,0,1,0,1.85,1.85A1.85,1.85,0,0,0,104.15,176.2Zm-18.46,0a1.49,1.49,0,0,1,0,3,1.49,1.49,0,1,1,0-3Zm-6.16.12a1.23,1.23,0,1,1-1.22,1.22A1.23,1.23,0,0,1,79.53,176.33Zm-47.27,0v1.5l-6.76,4.73v-1.47Zm59.61,0a1.23,1.23,0,0,1,0,2.45,1.23,1.23,0,1,1,0-2.45Zm6,0a1.49,1.49,0,1,1,0,3,1.49,1.49,0,0,1,0-3Zm6.25.41a1.22,1.22,0,1,1-1.22,1.22A1.21,1.21,0,0,1,104.15,176.83Zm-52.58,1.28a10.66,10.66,0,0,1,8.48,4.22c2.9,3.9,4.85,8.86,5.73,15.38.44,3.23,1.94,12.93,2.79,15.22l-1.17-.23c-.16.08-1.67-6.1-2.62-14.25A32.23,32.23,0,0,0,62,188c-2-4.06-5.39-8.36-9.92-8.71-2.64-.19-5.12,1.46-5.38,3.8a3.7,3.7,0,0,0,2.11,4.13c1.39.57,3,.15,3.24-1.75a2.05,2.05,0,0,0-.11-.92,1.24,1.24,0,0,1,1.39.73c.14,0,0,2.76-2.14,3.29-2.59.85-5.58-1.71-5.82-4.33A6,6,0,0,1,49,178.54a8.07,8.07,0,0,1,2.55-.43ZM32.26,179v1.52l-6.76,4.67v-1.53Zm19.46,1c3.78-.1,7.46,4.12,9,6.9a33.36,33.36,0,0,1,3.36,11.86c.75,7.38,2.16,13.41,2.46,13.68l-1-.22c-.21.14-1.64-6.52-2.5-13.94a31.07,31.07,0,0,0-3.86-11.46c-1.69-2.93-4-5.12-6.67-5.44-1.69-.17-3.43.32-3.78,2.11a1.74,1.74,0,0,0,1.61,2.16l.63.06c.65.11-.38,1.18-1.06,1.09a3.12,3.12,0,0,1-1.63-5.31A5.34,5.34,0,0,1,51.72,179.92Zm8.09,1.3h42.47s0,1-2.61.86a13.42,13.42,0,0,0-5.19.65H61.12Zm-27.55.28v1.41l-6.76,4.74v-1.56Zm19.74.6a4.55,4.55,0,0,1,2.27.56c5.26,3.05,7.27,10.63,8,15.4,1,7.06,2,13.62,2.34,13.78l-1.14-.26a91.79,91.79,0,0,1-2.19-13c-.63-5.55-2.53-11.12-6.28-13.47-2.41-1.64-2.89-1.8-4-.84s-1.94-.42-1.14-1.44A3.24,3.24,0,0,1,52,182.1ZM32.26,184v1.16l-6.76,4.72v-1.38Zm30,.18h.94c.08-.08,3.65,5.84,4.78,15.4.59,5,2.29,13.62,2.56,13.69l-1.23-.13c-1.27-5.07-2-9.86-2.64-14.18-.76-4.88-1.38-9.12-4.42-14.78Zm1.75,0h1.11a45.82,45.82,0,0,1,4.59,14.73,73.16,73.16,0,0,0,2.93,14.9l-1.18-.33c-1.49-4.16-2-9.2-2.81-14.41A43.59,43.59,0,0,0,64,184.19Zm2,0h1A47.44,47.44,0,0,1,71.6,199c1,7.11,2,13.52,3.12,15.19l-1.23-.08a75.39,75.39,0,0,1-3.09-15.36A44,44,0,0,0,66,184.19Zm1.9,0h1c.1-.16,3.68,6.95,4.51,14.83a72.55,72.55,0,0,0,3.46,15.45l-1.14,0c-1.32-1.53-2.31-8.78-3.4-15.54a50.25,50.25,0,0,0-4.42-14.72Zm2,0h.89c1.93,5,3.19,7.31,4.07,13.48a89.46,89.46,0,0,0,3.85,17.12l-1.11,0a67,67,0,0,1-3.46-15.87,47.65,47.65,0,0,0-4.24-14.68Zm1.7,0h1.21a45.11,45.11,0,0,1,4.41,15.21A72.55,72.55,0,0,0,80.53,215l-1-.06a74.06,74.06,0,0,1-3.82-16.17,52.25,52.25,0,0,0-4.13-14.56Zm1.93,0H75a68.94,68.94,0,0,1,4.18,14.21s.34,1.84.37,2.44c-.09,5.12.8,8.78,2.7,14.29l-.87-.06A69.94,69.94,0,0,1,78,199.77a44.86,44.86,0,0,0-4.47-15.58Zm2.26,0h1.13c1.5,3.76,2.66,7.68,3.71,11.31-.14.78-.74,2.69-.78,3.55C79.8,196.11,78,189,75.8,184.19Zm1.78,0H79c1.1,3,2.17,5.79,2.93,8.63l-.77,1.82A105.79,105.79,0,0,0,77.58,184.19Zm2.12,0h1.16l2.3,6.66-.75,1.32C81.73,190,80.89,187.24,79.7,184.19Zm1.85,0h1.2c.48,1.39,1.77,5,1.77,5l-.81,1.07S82,185.59,81.55,184.19Zm1.86,0h1.06c.32.91,1.34,3.65,1.34,3.65l-.73.79Zm1.83,0h1.24l.87,2.33-.92.78s-1-2.23-1.19-3.11Zm2,0h.94l.49,1.29-.76.58Zm1.69,0h1.79c-.53.31-1.07.72-1.47,1Zm-34.44,1.7c4.4,2.32,5.61,9.28,6.09,13.1a108.82,108.82,0,0,0,2,12.25l-1-.16s-.72-3.43-1.22-6.69c-.42-2.71-.74-5-.85-6-.07-.65-.18-1.4-.24-1.68a18.47,18.47,0,0,0-1.6-5,14.54,14.54,0,0,0-3.5-4.65Zm-22.26.35v1.32l-6.76,4.78v-1.5Zm0,2.3v1.52l-6.76,4.46v-1.34Zm0,2.58v1.4l-6.76,4.72v-1.45Zm11.29,1.41h.6l0,.93h-.92Zm-11.29,1.22v1.49l-6.76,4.47v-1.39Zm10.6.57h1.42v1H42.43ZM42,196h2.34v1H41.46Zm-9.77.21v1.57l-6.76,4.5v-1.58Zm8.57,1.63h3.44l0,.86H40.14Zm-8.57.92v1.53L25.5,204.6v-1.38Zm7.14.77h4.71l-.11.84H38.62Zm-7.14,1.63v1.48L25.5,207V205.6Zm5.37.09h6.21l1.3,1.05H35.48a15.92,15.92,0,0,0,2.15-1.05Zm-2,2.09H46.27l1,.82H35.59Zm-3.33.34v1.57l-6.76,4.43v-1.43ZM35.59,205l12,.06-1,.95h-11v-1Zm-3.33,1.19v1.44l-6.76,4.59V210.6Zm3.2.75H45.69l-1.2,1.14H37.42Zm-3.2,1.77v1.38L25.5,215v-1.54Zm6.2.18h6l.18.82H39.41Zm1.66,1.66h4.67c.07.35.08.69.15,1H41Zm-7.86.74v1.27l-6.76,4.73V215.9Zm9.31,1h3.48v1.1H42.35Zm1.08,1.76H45l-.08,1.07H43.08Zm.67,1.87h1.51l-.13.82H43.53Zm.45,1.92h.74l-.13.63H44Zm15,10.63-.36.45H68.94l.12-.45Zm13.62,0-.19.61h4.77l.14-.61Zm7.79.12-.15.57h12.2l-.21-.57Zm14.59,0,.25.7h4.1l-.27-.7Zm14.15,0h-7.2l.26.78h7.45Z"/></g></g></g></g></g><path id="path163-0-2-5-8-7-5-0-7-4" class="cls-2" d="M47.88,64.56s-3.73-6.13-8.77-13.33c-3.37-4.82-6.06-10-6.31-14.53-.29-5.13,2.43-10.28,7.35-10.53s6.92,3.95,7.73,7.42c.81-3.47,2.81-7.67,7.73-7.42S63.25,31.57,63,36.7c-.25,4.49-2.94,9.71-6.31,14.53-5,7.2-8.77,13.33-8.77,13.33Z"/><path id="path163-0-2-5-8-7-7-8-0-0-6" class="cls-2" d="M130.7,184.89S127,191,121.94,198.22c-3.37,4.82-6.07,10-6.32,14.53-.28,5.13,2.43,10.28,7.36,10.53s6.91-4,7.72-7.43c.82,3.47,2.81,7.68,7.73,7.43s7.64-5.4,7.36-10.53c-.25-4.5-2.95-9.71-6.32-14.53C134.44,191,130.7,184.89,130.7,184.89Z"/></g></g></g></svg>