<svg xmlns="http://www.w3.org/2000/svg" viewBox="0 0 178.58 249.45"><defs><style>.cls-1{fill:#fff;}.cls-2{fill:#d40000;}.cls-3{fill:#131f67;}.cls-4{fill:#e2cf00;}</style></defs><g id="Layer_2" data-name="Layer 2"><g id="svg8"><g id="g6073"><path id="rect10414-2-6" class="cls-1" d="M8.54,0H170a8.53,8.53,0,0,1,8.54,8.53V240.92a8.53,8.53,0,0,1-8.54,8.53H8.54A8.53,8.53,0,0,1,0,240.92V8.53A8.53,8.53,0,0,1,8.54,0Z"/><path id="path10446-4-8" class="cls-2" d="M13.77,56S12,53.43,9.59,50.43c-1.6-2-2.89-4.19-3-6.06-.13-2.14,1.16-4.28,3.51-4.39s3.3,1.65,3.68,3.1c.39-1.45,1.34-3.2,3.69-3.1A3.87,3.87,0,0,1,21,44.37c-.12,1.87-1.4,4.05-3,6.06-2.4,3-4.18,5.55-4.18,5.55Z"/><path id="path10448-8-7" class="cls-2" d="M164.81,193.47S163,196,160.63,199c-1.61,2-2.89,4.18-3,6.06a3.88,3.88,0,0,0,3.5,4.39c2.35.1,3.3-1.65,3.69-3.1.39,1.45,1.34,3.2,3.68,3.1a3.88,3.88,0,0,0,3.51-4.39c-.12-1.88-1.4-4.05-3-6.06C166.59,196,164.81,193.47,164.81,193.47Z"/><path id="path37-2-5-5-0" class="cls-2" d="M8,28.73H5.75v-3H8s0-1.62.08-4.48c.14-6.1.29-7,2.05-8.72,3.49-3.31,9.32-.61,9.25,4.37-.1,7,0,13.74-.23,14.69-.37,1.68-.41,1.77-.26,2.08.31.61,2.94.88,2.94.7v3a5.49,5.49,0,0,1-4.46-1.19,6.6,6.6,0,0,1-6.5.8C9,36.08,7.58,33.83,8,28.73ZM15.41,34c-1.09-1.57-2.93-3.73-4.66-4.5-.11,1.82.05,3.34.69,4.16a2.52,2.52,0,0,0,4,.34Zm.91-17.37c-.81-2.3-2.89-3.08-4.42-1.64-1,.89-1.1,1.84-1.12,7,0,3.16,0,4.48,0,4.48,3,1,5.73,4.42,5.71,4.38l.07-9.55a26.45,26.45,0,0,0-.23-4.62Z"/><path id="path37-3-27-3-0-9" class="cls-2" d="M170.62,220.71h2.21v3h-2.21s0,1.62-.08,4.48c-.13,6.1-.29,7-2,8.72-3.48,3.31-9.32.61-9.25-4.37.1-7,0-13.74.23-14.69.37-1.68.41-1.77.26-2.08-.31-.61-2.94-.88-2.94-.7v-3a5.48,5.48,0,0,1,4.46,1.19,6.6,6.6,0,0,1,6.5-.8c1.85.87,3.25,3.12,2.87,8.21Zm-7.45-5.25c1.09,1.58,2.93,3.74,4.66,4.51.11-1.82-.05-3.34-.69-4.16A2.53,2.53,0,0,0,163.17,215.46Zm-.91,17.38c.81,2.3,2.9,3.08,4.42,1.64.95-.9,1.1-1.84,1.12-6.95,0-3.16,0-4.48,0-4.48-3-1-5.74-4.42-5.72-4.38l-.07,9.54a26.52,26.52,0,0,0,.23,4.63Z"/><path id="path3054-4-0-3" class="cls-3" d="M23.69,19.12v211.2h131.2V19.12Zm2.1,1.71H79.84l-.18,13.54a1.59,1.59,0,0,1-.17.47c1.05.61,1.25,9,.86,11.86a13.55,13.55,0,0,1,.11,2.48,40.87,40.87,0,0,0-6.42,14c-.56.22-1.39.68-2,.84l-.17.71a43.21,43.21,0,0,1,4.9-1.85c16.13,7.9,28,6,40.66.09-1.71,7.92,1.81,18.34,12.66,18.32.35-.11-2.34-6.16-3-6.52-3.49-1.52-4.93-5.1-4.56-9.2l-.58-1c-1.19,5,1.68,10,5.61,11.28l1.06,2.32c-7.13-2.15-10.17-8.87-7.8-15.51-1.23-5.55-2.9-6.28-3.85-7.77-6.2-2.38-7.36-8.15-6.27-12.82.12-.89-2-4.15-1.95-4.11-2.12,4.64-3,10.5,1.85,16.43A42.16,42.16,0,0,1,98.9,64.71c-6.63,3.48-11.61,1.13-14.81-6.57a35.64,35.64,0,0,1-2.6-14.07c0-3,0-3.08,1.15-2.58a6.4,6.4,0,0,0,4.68-.16c.79-.41,1.22-.53,1.31-.38s-.41.9-1.56,2.09a17.26,17.26,0,0,0-1.19,1.41A4.37,4.37,0,0,0,88,43.1c.45-.45,1.28-1.46,1.28-1.46s-.21,1.17-.4,1.79c-.07.24-.29,1.25-.5,2.24s-.49,2.15-.63,2.58c-.54,1.72-.39,2.52,1.24,3.31a12.51,12.51,0,0,1,2.33,1.84,7.64,7.64,0,0,1-.22-2.06c.16-.6.87-.18,1.6.17,1.61.78,2.54.8,3.4.07a2.37,2.37,0,0,0-.62-3.83c-1.08-.43-1.27,0-.19.73,1.62,1.13-.21,2.88-1.58,1.8-1.07-.85-2.94-1-3.15-.24s-.4.55-1.14.11c-1.15-.68-1.16-.8-.19-4.54,1.83-7.1,1.65-9.7-.78-11.86a6.6,6.6,0,0,0-7.85-.56V30.77c4.52-1.81,7.81-4.91,10.47-9.94h.51c2.65,5.75,6.92,10,15,13,.7.39-1.27-4.51-1.7-4a19.7,19.7,0,0,1-10.16-9h1.16A21.88,21.88,0,0,0,104,28.18c.2-1.06-2.84-5.86-3.53-7.35h37c-1.18,9.07-2.83,18.78,3.68,36.44-3-1.61-15.3,1.83-13.15,2.51,1.09-1.26,8.89-3.11,14.67-1.74-.48-.42-8.81-19.9-4-37.21h14.11v82.11c-.05-.47-1.19-1-1.08-1.28a4.26,4.26,0,0,0-.54-2.79,5.87,5.87,0,0,1-.74-.94A3.92,3.92,0,0,0,149,96.24c-.24-.1-.52-.15-.55-.32s-.11-.66-.22-1.12c-.25-1.17-.48-1.13.26-2.3,2.74-4.72,4.26-8.8,2.7-14.22-2.47,2.49-4.26,5.57-5.94,7.84a79.2,79.2,0,0,1-.38-8.31c1.32-.37,2.12-1.08,2.69-2.89,0,0,1.41,1.11,2.28,1l-.57-2.1c3.79-1.17,4.3-6.14-.17-7.19l.41-2.62c-.72.3-2.21.79-2.21.79-2.24-4.35-6.15-2.61-7.06.2l-1.75-.74a7,7,0,0,1,.26,2.68c-3.67,1.64-2.76,6.13.16,6.72l-.25,2.1,2.2-.72a3.36,3.36,0,0,0,1.91,2.67c0,4.39-.11,7.14,0,11a18.15,18.15,0,0,0-8.39-5.2,14.34,14.34,0,0,0,.19,2.38c.08.48.06.41-.16.41-.5,0-2.88-3.82-2.88-3.82-3.9,8.24-10,21.52-18,29.38a28.86,28.86,0,0,0-7.64,13,14.66,14.66,0,0,1-3.14-.32c2-9.31,6.36-28.26,6.36-28.26a38,38,0,0,1,4.91-1.08l0-.73-4.27,1,.21-1.62,4-.79v-.39l-4.26.58.7-2.71s-9.57,1.41-13,1.31c.22,10.51-.61,19.24-.17,30.57l-4.67-2.85c-.42-7.88-.54-27.8-.54-27.8l-12.91-2,.43,3.13C69,88.58,58.21,84.66,50.31,76.32c4.87-3.76,13-7.48,13-7.48l-.27-.6c-20,10.35-27.21,17.54-37.24,26.47Zm54.84,0h1.63a4.13,4.13,0,0,1-1.67,1.83Zm2.8,0h1.75a13.18,13.18,0,0,1-4.56,4.62l0-1.71A23.77,23.77,0,0,0,83.43,20.83Zm2.89,0h1.61c-2.19,3.38-4.43,5.74-7.31,7.18V26.63A25,25,0,0,0,86.32,20.83Zm2.47,0h1.3a18.35,18.35,0,0,1-9.47,9v-1A19.86,19.86,0,0,0,88.79,20.83Zm3.56,0h1.57a22,22,0,0,0,11.53,10.23l.75,1.74C99.73,30.47,95.44,27,92.35,20.83Zm4.54,0H98A16.67,16.67,0,0,0,102.28,25l1,2A20.9,20.9,0,0,1,96.89,20.83Zm2,0h1.25l1.66,2.93c-1.1-.63-1.94-2-2.91-2.93ZM97.5,32.07a6.89,6.89,0,0,0-4.41,1.4c-1.19,1-.31,2,1.4,1.24,2.93-1.36,6.29-.75,9.92,1.25,3,1.68,2-.07-.87-1.94A11.17,11.17,0,0,0,97.5,32.07ZM83.7,34.28c2.46,0,5.28,1.11,5.35,2.56-1.63-1.37-4.91-2-8.06-.62-.24-.06-.27-.92-.13-1.23a4.76,4.76,0,0,1,2.84-.71Zm14.91.93A4.56,4.56,0,0,0,95,36.5c-.34.42-.43.46-.8.4-.72-.12-.68.3.14,1.46.41.55.34,1.19-.2,2s-.49.89,1.34,1.79a13.86,13.86,0,0,1,1.83,1.1,9,9,0,0,0,3,1.69,21.14,21.14,0,0,0-2.65-2.3,9.43,9.43,0,0,1-1.65-1.4l1.55.37a9.52,9.52,0,0,0,3.78.23A6.48,6.48,0,0,0,104,40.34c.22-.1.44,0,1,0,2.05.08,1.6-.53-1.34-2.14s-5.19-1.89-7.05-1c-.79.37-1.24.46-1.12.23a1.69,1.69,0,0,1,.69-.73c3-1.81,5.42-.31,8.07,1a3.25,3.25,0,0,0,1.58.65,10.41,10.41,0,0,0-7.18-3.2ZM85,36.06a8.91,8.91,0,0,1,4,1.25c.5.2.28.78-.19.6C86,36.66,85.48,36,82.17,37.2c-1.09.39-1.53,0-.18-.53A7.18,7.18,0,0,1,85,36.06Zm2.12,2.72c-.75,3.84-4.55,2.66-4.12,0h.7c0,2.32,2.36,2.31,2.76,0Zm22.11,0,1,2.2a11.3,11.3,0,0,0,7.41,14.8c-.16.06.87,1.72.85,1.86C106.08,54.89,107,43,109.2,38.79Zm-11.75.14.34,0c1.08,2.68,2.63,1.14,2.94,0l.79,0c-.24,2.77-4.43,3.24-4.07,0ZM87.88,39c.5-.06.67.7.53.84s-1,.94-1.07.41A1,1,0,0,1,87.88,39Zm-5.79.08h.13a1.31,1.31,0,0,1,.27,1.32c-.18.19-.93-.07-1.07-.36a.67.67,0,0,1,.67-1Zm20.13.26c.24,0,.92.3.85.62,0,.09-.95.78-1.16.67-.41-.22.15-1.22.23-1.28a.11.11,0,0,1,.08,0Zm-5.48.12h0a.71.71,0,0,1,.16,1.12,1.57,1.57,0,0,1-.72-.28c-.06-.4.45-.82.55-.84Zm15,4.86c-.15,3.19.68,6.28,4.14,8.27l-.75-1.37c-.88-.71-2.74-2.74-2.51-5.15ZM80.69,50l.39,2.09a47.72,47.72,0,0,0-4.54,10l-1.8.66a39.5,39.5,0,0,1,6-12.72Zm.76,3.26.51,1.8a27.78,27.78,0,0,0-2.54,6l-2,.74A29.16,29.16,0,0,1,81.45,53.29Zm6.31.75h-.09c0,.35,0,1.34.06,3,0,.3.31.17,1.16-.26s.66-.44,1.37-.2a5.25,5.25,0,0,0,3.65.18,2.51,2.51,0,0,1,2.34.24,6.42,6.42,0,0,0,1,.43c.54.2.33,0,0-1.52-.42-1.65-.24-1.84-.9-1.41a2.5,2.5,0,0,1-.79.36c-.58.07-1.54-.64-2.11-.42-1.39.55-1.37.41-2.66.09-.65-.16-1.26.23-1.82.34-.32,0-.73-.81-1.17-.8Zm23.6.86c2.35,2.16,4.75,2.9,7.37,3.72a36.83,36.83,0,0,0-1.24,3.69c-13.61,7.23-27.28,7-40.17.44L84,60.17c3.65,6.37,8.34,8.07,13.61,6A35.62,35.62,0,0,0,111.36,54.9ZM82.29,56.17l.58,1.56L82,60.08l-1.64.67a13.49,13.49,0,0,1,1.92-4.58ZM94.59,58a13.88,13.88,0,0,1-2.43.3c-.76,0-1.35-.06-1.65,0-.61.12.1.4,1.47.79s3-.2,3.25-.8c0-.14-.13-.32-.64-.29Zm-11.34.77.36.79-.61.22Zm36.17.44,1,2.33c-1.76,3.83-2.93,14.33,8.82,17.59l.51,1.51c-8,.15-16-10.07-10.35-21.43Zm-26.9.8a5.07,5.07,0,0,0-3.12.89c-.7.56.15.91,1.06.46a5,5,0,0,1,4.31.2c.88.61,1.34.5.75-.42A3.66,3.66,0,0,0,92.52,60Zm51.08,2.67c2.26,0,4.8,2.64,2.48,5.17,7.44-3.16,7.61,6.43,1,5.16.35,4.12-2.58,4.5-2.6,4.5.17,3.48.58,10.59.58,10.59s2.94-6.27,6.06-8.42c1,5-1.72,10.41-3.76,13.44-1.26,1.82-4.26.87-4,2.1a4.16,4.16,0,0,0,1,1.22,1.61,1.61,0,0,0,1.36.46c1.28,0,1.78-.3,1,.82-.61.88-2.73,1.06-3,1.52-.55,1.07-.17.83-1.12,1.77-.73.8-.48.39-.15,1.05.52.85.31,2.55-.21,3.7a3.59,3.59,0,0,0-.37,1.59,5.91,5.91,0,0,0,1.53-2.71c.3-1.25.64-1.87.64-1.17,0,.88.15,2.07.94,2.53.62.36.71.72.61,1.16s.38.87.86,1.25c.11.11.49.26.45.5-.13.77.18,1.67.74,1.82.25.12,1.82,0,2.08-.91,0-.28,0-1.45-.63-1.52-.44-.2-.4-.33.28-.73a9.13,9.13,0,0,1,2.23-1.13,2.68,2.68,0,0,0,1.3-.81l.12,48.12A140.32,140.32,0,0,1,132,172a103.26,103.26,0,0,0-16.27-11.61l-2-1.19.72-.92L111,153.61l3.92-3.17,1,1.27-1.86,1.8,2.78,3.1,6.25-6.13-4.11-4,2.14-4,1.37.68-1,2.56,3.13,2,3.92-7.83-5-2.28,1.26-5.26,1.53.17-.51,3.78,3.87.78,1.58-8.93-5.69-1,.49-5.1,1.58,0-.23,2.81,4,.58.76-7.79-5.58-.93.72-6,1.28.18-.25,3.7,4.09.71c.45-2.52.81-5.67,1.48-8.14l-5.27-2,1.87-5,1.18.41-1,2.74,3.89,1.66,3.28-6.51-4.58-3.26a21.3,21.3,0,0,1,3.51-4.72l.9.79-1.56,2.52,3.13,2.32,2-2.36A14.46,14.46,0,0,1,143,95l.13-.48c-1.57-.89-8.3-5.9-8.29-9.84,4,.76,6.08,3.1,8.84,5.8a128.21,128.21,0,0,1-.39-12.87,4.35,4.35,0,0,1-2-4.31c-5.21,1-6.45-6-.27-6-.36-3.4,1.06-4.65,2.61-4.65ZM49.79,76.54c8.12,6.88,13.3,11.5,29.83,16.68L80,95.69c-9.5-2.21-19.87-6.68-32.2-17.78Zm-2.45,1.59A84.26,84.26,0,0,0,63.09,89.72L65,90.85l-1,1,3.14,4.55-4,3.31-1-1,2.11-2.08-3-3-6.12,6.22,4.19,3.73-2.43,3.76L56,107l1.29-2.62-3.89-2.13-4.35,8,5.54,2.53-1.25,4.94-1.29-.07.43-3.86-4.16-.75-1.41,9,5.36.85-.12,5.2-1.43,0,.1-2.94L46.6,125l-.38,7.59,5.21.68-.52,6.15-1.28-.33.14-4-4-.4-1.37,8.5,5.36,1.54-1.89,5.3-1.17-.65.76-2.73c-1-.43-3.72-1.58-3.72-1.58l-3.5,6.6,4.54,3.11-3,5.72-.95-1,2-3.38-3.77-2.38-2,2.83c-.91-.79-2.69-1.79-3.31-2.53a1.92,1.92,0,0,0-2-.5c-.68.16-1.33.29-1.18.05a36.78,36.78,0,0,1,3.33-2.25c.55-.35,1-.66,1-1s.3-.6.69-.85.34-.51.27-.79a8.87,8.87,0,0,1,.61-5.35c.49-1,.65-1.23.32-1.24-.95.13-2.12,3.62-2.34,4.6a10.44,10.44,0,0,1-.25-1.35c-.12-.64-.21-1-.72-1.16s-.42-.44-.48-.9a1.73,1.73,0,0,0-1.09-1.49c-.61-.25-.68-.36-.65-1a2.57,2.57,0,0,0-.88-1.56l-2.12.76a1.6,1.6,0,0,0,.4,1.56c1.07,1-.49,1-1.56,1.68-.29.19-.63.6-.87.46-2.32-.81-.69-36.69-1.13-47.38,5.69-5.93,22.27-18.29,22.27-18.29Zm86,8.66.82.91a42.66,42.66,0,0,0-10.42,21.55c-1.23,6.6-1,13.23-2.14,19.56-1.11,9.18-3.68,14.07-9.25,19.28-2.45,2.29-10.08,6.62-10.29,6.58l-1.8-.45c15.63-8.05,19.54-13.6,21.23-32.66.33-23.9,11.14-33.16,11.85-34.77Zm1.54,1.6h0l.84.81-4.56,6.48,4.5,3.19-1.79,4.19-1.36-.51,1-2.86-3.79-1.6-3.06,8.33,5.4,1.71-.89,5.42-1.09-.29v-3.7l-4-.82-1.16,9.3,5.89.82-.43,4.8-1.4-.09-.05-2.86-4.09-.22-.94,8.06,5.81,1-1,5.73-1.24-.29.28-3.78-3.89-.52-2.25,7.74,4.88,2.48-2.4,5-1-.73,1.33-2.93-3.8-1.89-3.68,6.4,4,3.95-3.89,4.1-.87-1.12,2-2.18-3-3-6.24,5,3.18,4.22-.37.53-3.29-1.33-1.58-2.09-1.88.83-1.49-.57c9.22-4.86,15.21-10.5,17.69-19,1.36-4.69,1.76-9.82,2.21-15,.64-6.91,1.37-14.48,3.71-20.18a48,48,0,0,1,7.87-12.5Zm-49.6,3.2L91.63,95l-.1,2.23-5.85-3Zm1.78.07,4.51.62,0,1.83Zm-20.33,0,2.63,1.2,2.23,2.59,1.67-1.11,1.82.69c-5.74,3-10.83,6.51-14.79,12.63-4.41,6.81-4.91,15.74-5.47,24.36-1.67,14.85-4.65,22.41-11.06,30.27l-.75-.85,4.07-7.06-4.78-3.11,2.17-4,1.1.38-.85,2.39,4,2.1,3-8.54-5.58-1.75.94-5.34,1.4.13-.37,3.82,4,.64,1.14-9-5.37-.83.12-4.77,1.32.13v2.9l4.24.23.33-8.23L48.6,121l.65-5.81,1.47.15-.34,3.49,4.06.58,1.92-7.53-5.27-2.39,2.85-5.08,1.27.59-1.3,2.81,3.65,1.79,3.83-5.89-4.07-3.92,4-4.21,1,1L60.13,99l3,2.8,6-5-2.9-4.4Zm37.87.28-.18,2.11-6.35,3.62V95.66Zm34.06.08,1.3.9-.92,1.18-1.22-.78Zm-36.72.3-3.8,2.2V92.38Zm44.7,2a1,1,0,0,1,.78.21.83.83,0,0,1-.25,1.12c-.57.39-2.11.37-2.26,0s.59-1,1.33-1.22a2,2,0,0,1,.4-.07Zm-60.54.88,5.45,3,0,2.09-5.24-2.9Zm17.76.07-.32,2.72-5.61,3,0-2.35Zm-27.18,0,2.24.57c-8.28,3.72-16.46,9.1-19.64,18.5a43.74,43.74,0,0,0-2.1,10c-.21,4.23-.49,8.41-1,11.91-.94,7.21-2.3,16.58-11.25,27.4l-.67-.82c13.54-15,10.32-35.49,13.42-46.89,3-9.48,7.51-14.76,19-20.62Zm72.19,1.86.29,0c.95.14.74,1.91-.68,3.07-.8.65-1.16.56-1.75,0a1.3,1.3,0,0,0-1-.35c-.87,0,.86-1.79,2.37-2.56a1.72,1.72,0,0,1,.8-.23ZM86.76,98.79l4.86,2.51,0,2.07-4.5-2.46Zm16.48.28-.26,2.27L97.92,104l0-2.09Zm47.38.85a.46.46,0,0,1,.42.19c.69.77-.62,3.11-2.11,3.81a1.1,1.1,0,0,1-1.4-.18c-.23-.2-.57-.47-.77-.45-.85.09-.38-.87.31-.92a14.64,14.64,0,0,0,2.28-1.67,3.07,3.07,0,0,1,1.27-.78Zm-5.15.91c1.08,0,1.47.88.2,1.27-.91.28-1.42.08-1.41-.53C144.45,100.94,145,100.86,145.47,100.83Zm-58,1.22,4.31,2.17,0,2.23-4-2.08Zm15.43.31-.3,2.1-4.64,2.4v-1.74Zm48.7.88c.29,0,.38.35.38.93a2.62,2.62,0,0,1-1.6,2.3c-.71.32-1.2.3-1.55-.08a1.06,1.06,0,0,0-.49-.32c-1.5-.06-1.26-.44.17-1a13.78,13.78,0,0,0,2-1.24,2.22,2.22,0,0,1,1.12-.54Zm-5.51.69c.74,0,1.38.52,1,.86a2.16,2.16,0,0,1-1.74.15C144.84,104.49,145.24,103.92,146.05,103.93Zm-57.91,1.5,3.68,2,0,2.12-3.51-2Zm14.11.16-.09,2.17-4.22,2.09,0-2.07Zm45.41.9c.71.05.62.75.05,1.08a.86.86,0,0,1-1.22-.21c-.51-1,.65-.86,1.17-.87Zm.83,2c.26,0,.51,0,.59.19a.58.58,0,0,1-.17.8,1.4,1.4,0,0,1-1.25-.24c-.1-.2-.08-.3.12-.5A1.44,1.44,0,0,1,148.49,108.53Zm-59.81.23,3.14,1.72,0,2.09-2.89-1.69Zm13,0-.15,2-3.65,1.82,0-2Zm-38.24,1.27c.78,0,1.38.53.92,1.42a15.11,15.11,0,0,1-3.32,2.82c-1.12.78-.73-.85.67-3.26A2,2,0,0,1,63.49,110.08Zm38,1.78-.28,2.21-3.27,1.68v-2.13Zm-12.28.21,2.64,1.31,0,2.15-2.4-1.26Zm31.76.21a.45.45,0,0,1,.25.12c0,1-.15,1.64-.2,2.5-.15.33-.92-1.58-.83-2.09a.83.83,0,0,1,.78-.53Zm-55.56.35c1.07,0,1.85.72,1.48,1.81s-2.82,1.71-3.91,2.43c-.71.36-.89,0-.67-.65.1-.28.18-.51-.36-.59-1.32-.19-.51-.84,1.9-2.46A2.93,2.93,0,0,1,65.37,112.63Zm53,.69a1.91,1.91,0,0,1,1.33.75c.83.9,1.43,2.81,1,3.31-.35,0-.52.47-.54.68-.05.6-1.14-.5-2.18-2.22-.83-1.4-.42-2.51.41-2.52Zm-44.49.32c3.26,0,9.47.66,18.08,6.07a38.25,38.25,0,0,0,3.44,2.08,31.36,31.36,0,0,0,10.16,3.75l-.11,2.19c.69,2.46.87,5.94,1.32,7.61l1,2a59.55,59.55,0,0,1-7.51-.51c-3.78-.62-10.69-3.84-14-6.38A34.54,34.54,0,0,0,73,125l-.06-1.88a71.67,71.67,0,0,0-.8-7.34l-.83-2C71.51,113.81,72.38,113.65,73.86,113.64ZM101,115.06l-.25,2.16-2.87,1.35v-1.85Zm14.49.08c1.11.08,2.92,2.16,3.79,3.89a.27.27,0,0,1-.33.35c-.55-.1-.75-.3-.91.38,0,.17.07.48-.12.42-1-.29-3.76-3.11-3.59-4a1.12,1.12,0,0,1,1-1Zm-25.73.16,2.09,1.12.09,2.13-1.86-.8Zm-22.41.54a1.39,1.39,0,0,1,1.2.84c.49,1.21-.38,1.93-3,2.48-2.25.54-2.2.57-1.89-.27.21-.55-.48-.62-.87-.76-.65-.25-.12-.33,1.77-1.27A6.4,6.4,0,0,1,67.38,115.84Zm-7.58.58c3.81,3.53,3,11.15-2,13.12l.24-2s4.74-3.15,1.25-9.64C59.47,117.42,59.63,116.92,59.8,116.42Zm53.38,1.33c1.29,0,4.9,3.31,3.36,3.43-.18,0-.12.25-.12.4a2.26,2.26,0,0,1,0,.54c-.11.29-.53.23-1.18-.16a12.12,12.12,0,0,1-2.59-1.83c-1.12-1.06-.8-2.38.58-2.38Zm-12.73.57,0,1.78-2.57,1.25v-1.6Zm-32.16,1.31c1.41.24,2,1.73.49,2.56-.69.36-3,.11-4,0s-.49-.46-.43-.57c.17-.27.3-.31-.33-.68-.49-.53-.78-.66.46-.82s2.6-.54,3.84-.5Zm52.28.39h0c.13,0,.12.21.06.76l-.08,1.19c-.79.13-4.71,5-1.53,10.74l-.26,1c-.13.5-.17.57-.58.26-2.39-1.66-3.16-10.11,1.79-13.6a2.54,2.54,0,0,1,.6-.36Zm-9.31,1a4.23,4.23,0,0,1,1.67.44,8.31,8.31,0,0,1,2.74,1.61c.15.23-.08.42-.38.51s-.42.26-.32.69c0,.26.07.53-.25.55a7.91,7.91,0,0,1-3.19-1.09C109.31,122.52,109.61,121,111.26,121ZM100,121v2.16l-2.11-1ZM64.52,122.9c.84.09,1.62.2,2.51.25,2.41,0,3.41,1.66,1.42,2.51-.93.39-2.41-.28-4.2-.76-.72-.2-1-.43-.49-.59s.48-.46.2-.87C63.89,123,64,122.89,64.52,122.9Zm56,0c-.34,3.35-.62,6-1.12,9.24C119.07,132,116.47,125.81,120.56,122.9Zm-10.15,1.6a11.3,11.3,0,0,1,3.4.83c1.13.42,1.27.53.49.86-.45.21-.42.44-.27.69s.77.57,0,.61a22.55,22.55,0,0,1-3.36-.17c-1.81-.32-2.31-2-.82-2.73a1.4,1.4,0,0,1,.58-.09Zm-46.7.85a4.63,4.63,0,0,1,1,.27c3.26,1,4.59,2.29,3,3.51-.47.35-1.19.2-2.54-.56a12.63,12.63,0,0,1-2.35-1.49c-.25-.27-.11-.59.28-.56s.46-.24.42-.7,0-.47.16-.47Zm14.79,2,1.65.75-1.88.93Zm-16.22.38a.7.7,0,0,1,.29.08,10.05,10.05,0,0,1,1.46,1c1.41,1,2.23,1.74,2.26,2.37a1.09,1.09,0,0,1-.57.9c-.85.45-1.66.08-3.5-1.8A15.28,15.28,0,0,1,61.05,129c-.21-.32,0-.62.3-.49,1.3.59.47-.77.93-.81Zm50,.47c.42,0,.83,0,1.28,0,.81,0,.8.39.57.55a.48.48,0,0,0,.11.87c.27.12.16.39-.16.58a5.07,5.07,0,0,1-.86.34c-2.26.71-3.92.5-4.35-.56s.22-1.62,2.16-1.77l1.25,0ZM81,128.49h0L85.27,131,86,158.28c15.67,1.58,27.33,5,40.33,17.24-4.2,2.28-6.17,3.43-10.24,5.62l-.59.85a150.65,150.65,0,0,0,37.33-26.1v72.49h-54c0-4.27,0-8.53,0-12.8-.64-3.66-.12-7.85-.73-11.39l-.23-3.41c3.35-3.91,5.16-8.85,6.75-13.89,0,0,1.61-.63,2.4-.91l.27-1c-1.56.8-5.13,2.14-5.13,2.14-11.41-6.49-27.61-6.75-40.32-.08a1,1,0,0,1-.5.19c2.35-6.27-1.1-15.75-12.62-17.74l.14.65c12.23,1.38,15.1,14.39,10.39,20.43.24.43.45.83.65,1.12a21.29,21.29,0,0,0,1.9-4.1,42.56,42.56,0,0,1,20.65-5.15,38.35,38.35,0,0,1,19.11,4.62c-1.84,1-7.72,2.47-7.72,2.47-3.3-3.73-5-7.46-11-5.55-6.25,1.62-11.89,7.06-15.06,10.68a14.35,14.35,0,0,0-7.71-2.53c.14.36.37.74.43,1,10.38,0,14,11.71,9.22,18.19a6,6,0,0,1,.39.76,13.06,13.06,0,0,0-1.51-16.74c3.9-4.37,11.39-11.37,17.87-11,2.36.15,4.68,3,6.23,5.31,3.28,4.85,4.12,11.62,4.36,15.48.05,1,.19,1.75.19,2.28,0,1.55-.29,1.36-1.28,1.11a8.38,8.38,0,0,0-4.22,0,3,3,0,0,1-1.32.25c-.29-.13.26-.79,1.42-2.24s1-1.87,1-1.87a4.86,4.86,0,0,0-1.38,1.39c-.81,1.26-1.22,1.71-1.31,1.42a15.66,15.66,0,0,1,1-4.1c.84-2.79.75-3-1.53-4.73a5.38,5.38,0,0,1-2.16-1.91,3.23,3.23,0,0,0,.17,1.59c.38.74-.42,1.08-1.82.32-3.3-1.84-5.45,1.88-2.51,3.5.7.38,1.09.06.55-.44-1.81-1.68-.55-3.1,1.9-1.61,1.42.87,1.95.59,2.43-.49.26-.44,2.46,1.14,2.46,1.76a14.52,14.52,0,0,1-.51,2.56,47,47,0,0,0-1.2,4.78c-.55,2.87-.54,4.34,0,5.6a6,6,0,0,0,7.57,3,8.9,8.9,0,0,1,1.23-.3l0,2.07c-5.72,2.18-9.85,9-9.66,9.21h-2a24.21,24.21,0,0,0-13.52-11.72,7.77,7.77,0,0,0,1.65,3.6c2.88,1.47,6.68,4.07,8.78,8.12l-1.45,0a23.73,23.73,0,0,0-6.2-6.11c.16-.08,1.66,5,2.45,6.44l-37.27.65c2.54-10,3-21.11-2.93-35.67A28.21,28.21,0,0,0,51,191.16l-.36-1A27,27,0,0,1,36,192.24c3.81,7.09,7.15,21.83,3.9,36.14H25.78V149.32a7.65,7.65,0,0,0,1,2,3.6,3.6,0,0,1,.84,1.55c.15.6.32.63,1.17,1.27.41.31.65.58.65.74a1.54,1.54,0,0,0,.24,1.06c.75.92.62,1.5.06,2.09-2.62,2.75-4.27,8.51-2.94,14.59,3.11-2.1,6.31-7.61,6.41-7.62l.3,7.52A3.24,3.24,0,0,0,31.28,175a5.24,5.24,0,0,1-2.78-.43l.62,2.21a3.62,3.62,0,0,0,.34,6.93s-.34,1.71-.63,2.64l2.4-.37c1.4,4.19,6.76,2.85,6.73-.07,0,0,1.63.61,2.25.88l-.53-2.88c3.27,0,4.93-6,.14-7,0-.8.31-1,.65-2l-2.46.15a4.44,4.44,0,0,0-2.17-2.52l-.34-10.76a31.4,31.4,0,0,0,6.16,4.6c1.41.75,2,.92,2.22.46a8.43,8.43,0,0,0-.65-3.77c.72.13,3.16,3.47,3.36,5A181.34,181.34,0,0,0,63.9,155.4l4.33-.75-.38,2-3.92.74,0,.68,4.42-.91-.31,2.6a107.36,107.36,0,0,1,12.84-1.58s.1-21.69.09-24.05c0-2.55,0-5.61,0-5.61Zm-.6.41,0,1.63L78,131.66l.26-1.65Zm-19.89.51c.2,0,.54.33,1,.93,2.26,2.78,2.56,3.32,1.82,4.06s-2.1,0-3.43-2.41a6.4,6.4,0,0,0-.52-.9c-.49-.58-.27-.75.34-.71.34,0,.5-.09.51-.44S60.3,129.4,60.46,129.41Zm53.89,1.41c1,.07.57.4.4.62s-.37.56.22.83c.1,0,.32.32.12.44a24.22,24.22,0,0,1-3.33,1.53c-1.48.5-2.39-.71-1.52-1.92a7.5,7.5,0,0,1,4.11-1.5ZM58.18,131c.48,0,1,1.21,1.1,1.39,1.5,2.25,1.68,3.3.7,3.95-.63.48-2-.21-2.27-1.66a5.87,5.87,0,0,1,0-3.2c.14-.35.29-.48.45-.48Zm22.16.45v1.76l-2.84,1.44.26-1.94Zm5.8.07,2.68,1.75.15,1.5-2.77-1.53ZM116,133.3c.08,0,.11,0,.11.11s0,1,.35,1c.79.13.61.38-.08,1a13.07,13.07,0,0,1-2.33,1.93c-2.32.87-3-1.58-.85-2.88a8.47,8.47,0,0,1,2.8-1.15Zm-29.78.9,3.1,1.84.11,1.85-3.08-1.58Zm-6,.17V136l-3,1.74.26-1.79Zm37.3,1.43c.2,0,.25.19.25.57,0,1.09-1.84,5.12-3.26,3-.39-.76,0-1.56,1.25-2.51,1-.75,1.5-1.1,1.76-1.11ZM57.1,136c.24.36.62.82.79,1,0,.31-.53.44-.94.55A14.7,14.7,0,0,1,57.1,136Zm23.17.93,0,2.05-3.59,2,.38-2.27Zm5.94.29,3.55,1.91.42,2.25-3.94-2ZM80.26,140v2.06l-4,2.08.27-2Zm6,.18,4,2.27.53,2.15-4.44-2.31Zm-56.38.06a.62.62,0,0,1,.39,1.14c-.32.3-1.25.24-1.33,0C28.55,141,29.12,140.26,29.9,140.25ZM31,142.44a2.22,2.22,0,0,1,.36,0,.81.81,0,0,1,.47,1.19c-.53.72-1.93.22-1.72-.68a1.17,1.17,0,0,1,.89-.52Zm49.17.68V145l-4.39,2.33.28-2.06Zm6.21.25,4.53,2.45.35,2.06-4.87-2.54ZM29,143.43a.5.5,0,0,1,.49.21,1.41,1.41,0,0,0,.5.71c.58.34.64.41-.47.9a15.4,15.4,0,0,0-1.71,1.06c-1,.67-1.39.44-1.46-.34C26.21,145,28,143.48,29,143.43Zm3.4,1.51a1,1,0,0,1,.61.13.6.6,0,0,1,0,1c-.83.53-2.13-.2-1.44-.84a1.26,1.26,0,0,1,.79-.3Zm47.82,1,0,2.39-4.9,2.6.32-2.42Zm-50.24.28a1.35,1.35,0,0,1,.89.26,1.21,1.21,0,0,0,.85.49c.84,0,.57.34-.31.75a10.3,10.3,0,0,0-2.94,2.08c-.91.85-1,1-1.28.68C26,149.17,28.21,146.31,29.94,146.21Zm56.53,0,5.14,2.82.44,2.39-5.58-3.12Zm-53.16,1.68a.91.91,0,0,1,.56.17c.36.3.15.88-.35,1.14a1.42,1.42,0,0,1-1.34-.08C31.69,148.66,32.57,147.94,33.31,147.92Zm-2.48,1.2c.31,0,.6.37.85.81.09.1.44.06.69.06,1,0,1.1.42.16.94a17.22,17.22,0,0,0-1.76,1.35c-1.61,1.54-2.49,1.18-2.28-.4a3.3,3.3,0,0,1,2.34-2.76Zm55.64.15,5.67,3.12.55,2.57-6.22-3.37Zm-6.24,0,0,2.36-5.33,2.84.42-2.4Zm6.33,3,6.34,3.86.23,2.51-6.57-3.81Zm-6.34.42v2.31l-5.89,3,.3-2.19Zm-47.84,1.53a1,1,0,0,1,.41.07c.69.32.51.88-.53,1.45s-1.42.47-1.64-.18.95-1.32,1.76-1.34Zm66.21.31c11,2.54,21.82,8,32.3,17.61l-2.19,1.56s-9.18-10.53-29.59-16.71Zm-12,1.11,3.06,1.81V158l-3.06-.25Zm-52.1,0a6.31,6.31,0,0,1,1.53.67c4.39,3.19,6.15,5.11,7.24,8.6.65,2.1.64,2-1.51.87a21.09,21.09,0,0,1-6.57-5.18,99,99,0,0,0,.33,12.21c2.74,1.36,1.86,4.9,1.85,4.88,7.06-1.94,5.51,7.42.25,5.4,1.25,7-6.74,6.46-5.92.44-6.37-.25-5.24-7.23,0-6.27a3.54,3.54,0,0,1,2.16-4.53l-.3-9.2s-5.19,7.49-6.06,7.37c-.5-.06-1.27-.93,0-7.49.67-3.42,4.28-7.58,6.29-7.72.36,0,.51-.06.65-.05Zm5.07.07.93.64-.92,1.74-1.14-.85Zm40.6.45,0,1.38-2.86.17Zm-30.3,15.63a.9.9,0,0,0,.42.87c6.73,1,10.84,9.32,7.73,15.31a5,5,0,0,0,.58,1.09C61.9,184.46,59.46,173,49.89,171.87Zm1.51,3.07c.41.92.43,1,.7,1.24,2.37.89,4.92,4.68,4.31,8.57.11.21.41.78.56,1.11,1-3.06-.27-9.07-5.57-10.92Zm52.48,12.29A38.88,38.88,0,0,1,97.74,200L97.36,198A44.36,44.36,0,0,0,102.13,188Zm-2.66,1.16c.17.28-2.74,7.26-4.18,8.53l-.56-1.8A37.84,37.84,0,0,0,99.33,189Zm-17.78,0c-.09,0-.12.08-.12.26,0,.64.66,1.14,1.87,1.42,1.64.37,3.93-.2,3.93-1,0-.45-.31-.49-1.25-.05-1.18.55-2.21.44-3.75-.38-.35-.19-.56-.3-.68-.28Zm14.73,1a14.75,14.75,0,0,1-2,4.43l-.41-1a32.68,32.68,0,0,0,1.5-3.15Zm-1.87.62a4.84,4.84,0,0,1-1,1.79l-.65-1.4Zm-10.42,1.29c-1,0-2.14.38-2.23,1-.05.29.38.18,2.44-.07,1.09-.14,1.61.51,2.6.44.51-.06,0-.53-.12-.66A4.32,4.32,0,0,0,85.88,191.35Zm-4.66,1.29c-.12,0,0,.31.42,1a5,5,0,0,1,.33,1.69c-.06,1.23,0,1.19.55.48.39-.38,1.13-.3,2.3,0,.76.21.94.28,1.47-.05s.75-.19,1.27-.09a3.26,3.26,0,0,0,1.53-.25,2,2,0,0,1,1.39,0c.9.43.77.39.85-1.15s0-1.62-.88-1.11a2.68,2.68,0,0,1-2.72.27,3,3,0,0,0-2.61-.07c-1.21.37-1.76.49-2.72-.1a5.39,5.39,0,0,0-1.18-.68Zm-19.71,2.29.54.88c4.87,1.76,8.18,5.76,6.23,12.52l.46.75C71.18,202.27,68.4,196.64,61.51,194.93ZM63,197.81l.66,1.37c3.67,1.78,3.45,6.69,3.25,6.5L67.5,207C68.42,203.78,66.75,199.09,63,197.81Zm15,7.39s.22.47,1.9,1.64c1.44,1,2.55,1.74,2.47,1.89a5,5,0,0,1-1.59-.32,7.29,7.29,0,0,0-5.53,1.08c-.36.24-.94,0-1.45-.15a2.3,2.3,0,0,0-.87-.06c-1,.28,0,1.29,2.53,2.59,3.14,1.6,4.85,1.75,6.76.78,1.26-.66,1.72-.17.33.58-5,1.6-6.87-1-10.32-2.55,3.26,3.92,9.42,5,11.78,2.49a2.49,2.49,0,0,1,.55,0c.65,0,.68-.21,0-1.3-.42-.66-1.25-1.35-.24-2.15.78-.61.72-.9-.21-1.18-.25-.07-.22.09-.59-.21a31.63,31.63,0,0,0-3.37-2.41,5.39,5.39,0,0,0-2.15-.7Zm1.28,3.51a2.43,2.43,0,0,1,2.18,2.07,3.29,3.29,0,0,1,.07.36l-.8,0c-.67-2.67-2.66-1.78-2.86-.22l-.72-.1c.26-1.49,1.19-2.16,2.13-2.14Zm14.63.16a2.36,2.36,0,0,1,2,2.12l-.53.08c-.35-1-1.93-2.3-2.68.09l-.68,0c.24-1.62,1.09-2.3,1.94-2.26Zm-12.21.65c.21,0,.62.06.71.22.22.5-.41.88-.49.71A1.6,1.6,0,0,1,81.73,209.52Zm10.07.12c.25.16-.17.83-.38,1.08s-.69,0-.89-.19a.64.64,0,0,1,.25-.82A.8.8,0,0,1,91.8,209.64Zm4.72,0c.43.13.71.19.77.57a.64.64,0,0,1-.62.54.91.91,0,0,1-.6-1C96.15,209.54,96.39,209.62,96.52,209.66Zm-20,0a.42.42,0,0,1,.37.13c.12.18-.1.72-.15.8a1.93,1.93,0,0,1-.73-.05,1.47,1.47,0,0,1,.1-.76A1,1,0,0,1,76.57,209.69ZM90,211.58h0a.78.78,0,0,1,.36.12c2,1.32,4.59,1.9,6.46,1,.41-.21.69-.2.68,0s-.46.67-1.32.93c-1.92.58-5.08-.18-6.18-1.36-.32-.35-.19-.68,0-.66ZM72.36,213c-.19,0-.25.11-.21.34.13.79,5.5,3.89,7.75,4.31a6.26,6.26,0,0,0,4.41-.47c2.74-1.6,2-3.77-.64-2.14-1.81,1.1-6.38.6-9.09-1A7.54,7.54,0,0,0,72.36,213Zm17.81.33a1.36,1.36,0,0,1,.57.19,6.6,6.6,0,0,0,5.2.84c1.36-.52,1.63-.61,1.78-.48.69.58-.45,1.48-2.51,1.84a4.86,4.86,0,0,1-4.53-1.08c-1.1-.81-1-1.31-.51-1.31ZM73,217.55c4.71,1.76,10,5.85,12.38,10.8l-1.47,0a23.2,23.2,0,0,0-10.2-9.06c-.24-.76-.75-1.38-.71-1.72Zm24.79,2.28v1.57a17.53,17.53,0,0,0-7.26,6.95l-1.67,0a19.81,19.81,0,0,1,8.93-8.49Zm0,2.39v1.93a13.58,13.58,0,0,0-4.5,4.2h-2A15.1,15.1,0,0,1,97.83,222.22ZM76.2,223.79a14.43,14.43,0,0,1,4.46,4.6l-.75,0a26.8,26.8,0,0,0-3-3,3.49,3.49,0,0,1-.7-1.61Zm21.63,1.15s0,0,0,0v1.53a11.09,11.09,0,0,0-2,1.84h-1.6a8.83,8.83,0,0,1,3.61-3.41Zm0,2.54v.87h-1a3.5,3.5,0,0,1,1-.87Zm-19.59.22a1.74,1.74,0,0,1,.53.73l-.27,0Z"/><path id="path3052-2-5-5" class="cls-4" d="M37.57,193.81c3.31.09,10.29-1.15,10.18-1S69.42,229,68.54,228.63c-.29.45-27.76.43-27.76.43C40.18,229.07,46.61,215.65,37.57,193.81Zm9.82-25.51C58,159.5,69,159.44,80.89,158.23l.27-29.9,4.3,2.58.09,27.4a68.44,68.44,0,0,1,40.82,17.06c.15.22-16.81,9.34-24.24,11.75-14.87-7.75-28-5.75-40.54-.12,2.39-14.44-8.81-16.71-12.76-17.38C48.34,169.54,47.75,168.47,47.39,168.3ZM33.84,173a69,69,0,0,0-.24-9.3c-.06-.72-6.18,9.36-6.52,6.91-.85-6.12,2.17-13.89,6.91-14.85.47-.64,9.88,5.21,9.45,10.27-.14,1.64-8.39-5.57-8.42-5.14-.2.85.24,12.13.49,12.11,2.38,1.34,1.86,3.07,2.12,4.5,6.36-.94,6,6.15,0,5.93.37,8.39-7.37,4.6-5.85.13-7.8-.37-3.95-7.69-.07-6.08-.24-1.85.22-3.78,2.12-4.48Zm9.35-35.45-17-1.14L27,96.73c9.71-19.2,35.73-8.91,35.75-7C48.16,99,43.26,116.24,43.19,137.52ZM72.65,121.1l-.5-4.4c-1.27-2.73,33.1,13.23,33.49,13.57l1,4.69C106.83,137,84.78,126.6,72.65,121.1Zm62.56-7.81c-2.57,19.76-2.42,39.64-17,46.51,11,10.66,20.1,2.45,33.88-4.46.38,0-.45-42.31-.69-42.28C146,113.35,140.57,113.48,135.21,113.29ZM135.09,85c-.79-1,6,1.81,8.65,5.75-.4-.45-.46-13.93-.59-13.4-.29.16-2.38-1.34-1.83-4.15-6,1.33-5.65-6.48-.43-6.16-.68-7.11,8-4.5,5.66.26,7.39-1.37,6.11,7,.53,5.61.47,3.16-.82,4-2.64,4.67.12,1.33.61,10.17.61,10.17s5.46-8.42,5.86-7.69c1.92,1.83-1.52,13.9-6.07,14.25-3.91.76-10.66-7.3-9.75-9.31ZM117.48,63c-2.47,8.54,4.29,18.3,10.67,18.27,1.28-.2,3.74.5,2.89,1.19C121,90.63,97.49,92.34,97.48,92c.25,10.06-.2,20.23-.44,30.29l-4.3-2.61c-.14-9.17-.37-18.56-.58-27.74-15-2-28.57-6.85-39.26-17.23C60,69.4,68.48,66.1,76.62,62.76c10.26,5.36,24.53,8.45,40.86.22ZM109,20.66s19.42.19,28.81.08c-3.16,13-.92,24.73,3.16,36-1.09-.26-8.27.33-10,1.12-.28.28-22-37.15-22-37.15Z"/><path id="path3050-3-4-7" class="cls-2" d="M69.11,228.58,48,192.7l3.17-1.39,21.79,37.32Zm-37.62-48,3.06-3.16,3.06,3.12-3.2,3Zm67.82-20.12-.43-2.57a65.4,65.4,0,0,1,29.32,16.15l-1.71,1.26c.53-.15-17.3-13.6-27.18-14.84Zm-35-2.34,3.47-.75-.11,2.16-3.37.67Zm70.9-1.89-2.11-1.71,1.52-1.8,2,1.62ZM63.7,138.86c8.21-6.06,8.82-13.22,8.79-13.2l2.85.68-6.58,27.51-4.55,1C64.19,149.59,63.69,144.12,63.7,138.86Zm34.4,15.56c-1.77-5.79-5.26-18.88-5.26-18.88.13.42,11.34,3.63,15.34,2.46a46.68,46.68,0,0,0,5.57,6.31A48.29,48.29,0,0,1,98.1,154.42Zm47-21.08-2-1.72,1.77-2.18,2.17,1.66Zm-25.8-1.15c-1.61-2.9-1.72-6.19,1.26-9.43Zm-61.39-5.06a31.66,31.66,0,0,1,1-8.49C60.66,121.78,60.64,124.93,57.91,127.13Zm45.16-2.71s4.34-20.23,6.22-28.16l4.8-1.12-.22,16.39c-4.77,3.91-8.12,13.24-8,13.24Zm-69.79-3.37-2.1-2,2.08-2,1.78,2Zm37.56-7.88a58.61,58.61,0,0,0-5.76-6.78c3.56-5,9.49-7.88,15.76-10.14l4.25,19c-4.8-1.46-10-3-14.25-2.09Zm-29.44-17,1.48-1.84,1.93,1.53-1.47,2Zm69.45-5.56,3-.67.11,2.33-3.58.67ZM50.37,76.14l2.28-1.43A67.81,67.81,0,0,0,79.16,89.77l.32,2.69c-10.88-3.37-20.83-8-29.11-16.32ZM144,73.25l-3-2.94,2.67-3,3.17,2.76A18.87,18.87,0,0,1,144,73.25ZM127.54,58.94l-22.21-38.1,3.21,0,21.85,36.69Z"/><path id="path3048-5-8-9" d="M105.13,20.2l-5.31,0,30.12,60.91c-9.2,0-14.58-9.77-12.26-18.5-18.65,8.49-30.19,5.36-41,0l-4.59,1.77c.3-2.79,3.73-13.26,8.87-18.19V40.89l-.13-2.5-.4-4.52C72.82,41.1,63.92,52.47,62.8,68.63c0,0-6.95,3.59-12.88,7.56.33,0,9.24,11,30.65,17.14l-.94-3.51A91.67,91.67,0,0,0,91.84,92l.6,27.58,5.11,3,.18-30.54a68.15,68.15,0,0,0,12.46-1.31l-.61,2.94,4.26-.84V95l-4.67,1.11-6.64,28.54,3.87.87c1.13-5.75,4-10.4,8.14-13.25l-.05-1.1c2.66-1.91,8.19-3.44,8.22-3.4C124.6,98.53,129,92.12,133.65,86l-2.22-3,8.51-3.14L128.12,59.62c4.55-3.16,13.57-2,13.57-2-3.87-10.5-7.27-21.32-3.45-37.21l-32.88,0Zm31.91.58c-2.09,12.16-1.4,24,3.45,35.26,0,0-.71.05-.8,0s.09-.61.05-.77c-.1-.42-.79-.22-1.38.17a8.49,8.49,0,0,1-.73.47,17.28,17.28,0,0,1-3.65.27c1-.67,2.39-2.58,1.58-3.69-.18-.24-.3-.13-.47.19-.87,1.55-1.3,1.79-2.46,1.77-1.81,0-3.11-1.15-3-2.85s2.57-2.54,2.21-.93c-.1,1.43,1.31,1.71,1.57.28.1-.53,0-.28.14-.91,2.82-1.51,1.26-4.58-1.37-3.93-.62.16-.7.22-1.14,0-.81-.42-1.49-.29-1.79.3s.14.94.74.94.75.31.75.68c0,.88-1.51,1.3-2.51.79-2.64-1.35-1.66-4.87,1.4-4.86.93,0,1.32.06,1.36-.14.11-.57-1.31-1.55-2.11-1.4s-1.1.31-.74-.6a3.56,3.56,0,0,0,0-2.07c-.49-1-.48-.49-.78.32-1,1.69-2.53,2.06-3.84,1.14s-1.18-2.48,0-3.63c.8-.81,1.66-.26,1.18.64a.62.62,0,0,0,.32.92c.72.19,1.17-.24,1.17-1.12,0-.49-.15-.6.73-1.1a2.1,2.1,0,0,0-2-3.7c-.56.25-.69.5-.94.38-1.07-1-2.59.27-1.69.94a3.08,3.08,0,0,0,1,.28c.22.13.15.44-.17.84-1.06,1.24-3.45.63-4-1.14-.66-2,1.42-4.18,3-3,.47.35.87.39.88-.14a2.06,2.06,0,0,0-2.31-1.65c-1.32.1-1.17.27-.46-.93a2.66,2.66,0,0,0,0-2.73c-.35-.48-.72-.58-.68-.07a2.3,2.3,0,0,1-3.06,2.42,2.73,2.73,0,0,1-1.46-3.71c.65-1.31,2.25-1.44,2-.05-.13.9.55,1.37,1.2.84.23-.19.29-.36.31-.94s-.24-.82.17-1.2c1.07-.14,1.14-2.45,1-2.54Zm-25,.07h3.87C115.91,23.51,112.46,23.24,112,20.85Zm5.71,0c.68,0,1.25.23,1.25.92a1.24,1.24,0,1,1-2.48,0C116.52,21.09,117.06,20.86,117.75,20.86Zm-12.13.08h2.75L130.1,57.35l-2.58,1.26Zm4.52,1.28a10,10,0,0,0,4.18,1.54,9,9,0,0,0-1,3.91Zm4.42,7.33c1.34.48,2.51,1.21,4.71.47a8.89,8.89,0,0,0-2.34,3.63Zm11.3,4.4a1.15,1.15,0,1,1-1.14,1.15A1.14,1.14,0,0,1,125.86,34Zm-7,2.87a7.78,7.78,0,0,0,3.11.55,6,6,0,0,0-.79,3.28Zm3.32,5.74a6.1,6.1,0,0,0,3.84.87,6.27,6.27,0,0,0-1.1,3.65ZM133,46.79a1.21,1.21,0,1,1-1.2,1.2A1.2,1.2,0,0,1,133,46.79Zm-6.75,2.71a5.27,5.27,0,0,0,2.46.6,8.72,8.72,0,0,0-.53,2.62Zm3.78,6.2a7.14,7.14,0,0,0,3.22.71,13.9,13.9,0,0,0-2.45.71Zm13.77,6.81c-2.81.18-3.46,2.35-3.13,4.55a3.46,3.46,0,0,0-3.87,4.2c.63,2.37,2.82,2.45,4.34,2.29a3.87,3.87,0,0,0,1.89,4.15L143.38,90s-1-1-1.7-1.62c-2.92-2.93-7.32-5-7-3.4,0,.24.13.86.2,1.37.47,2.78,4.19,5.8,6.73,7.31a7.92,7.92,0,0,1,1.46,1c-4.74,5.11-7.29,10.55-7.93,16-.59,5-1.07,9.55-1.54,14.16-1.93,23.12-11.8,28.94-12.27,30.07l-.18,3.08-2.76-.2-3.17,2.76c10.4,5.4,16.46,11.92,16.38,12a169,169,0,0,0,22.23-17.82l-.13-51.49a4.21,4.21,0,0,1-.71.21c-.51,0-.58.23-.76,1.21a3.38,3.38,0,0,1-.65,1.36c-.46.66-.3.33.29.56,1.33.55-.4,3-2.29,3.3-1.37.22-2.13.47-2.36.79-2.87,2.52-5.73,2.92-7.89,2a4.37,4.37,0,0,1-2.61-2.23c-.89-2.53,1-6.17,2-8.28A26.32,26.32,0,0,1,144,95.43l-.54-.59c1.49-.08,3.67-.92,4.33-1.85,3.19-4.44,4.76-10.42,3.25-13.75-2.25,1.73-4.52,5.78-5.84,8.16-.46-3.53-.6-9.7-.6-9.7.48-.53,3.18-.23,2.58-4.66A3.25,3.25,0,0,0,152,70.17c-.16-3.58-2.91-3.47-5.14-3a3.36,3.36,0,0,0-3-4.64Zm0,.3c2.93.09,3.51,3.35,1.71,5.2,0,0-1.16-.9-1.78-1.42-.59.47-.76.87-1.4,1.35a3.24,3.24,0,0,1-1.23-2.54A2.81,2.81,0,0,1,143.8,62.81Zm-67.05.1c11.87,6.68,26.76,7.15,40.39.35L117,64.39l-1.5.85.85,1.56.47-.23v1C105.57,73.7,86.75,75,72,64.83a14.82,14.82,0,0,1,2.91-1l-.71.87,1.84,1.2.87-1.31-1.39-1Zm1,2-.68,1.55,1.71.91.65-1.56Zm-6.46.17c18.29,11.55,35.31,8.11,45.54,3.39l.13,1.23c-13.2,5.65-30.55,7.16-47.06-4Zm43.05.74-1.63.66.65,1.5,1.67-.72Zm-45.23.28c14.86,9.64,30.8,11.53,48,4.47l.65,1.84c-16.73,6.76-34.38,6-50.51-5.51Zm11.42.06-.67,1.61,1.84.71.54-1.59Zm31.25.67-1.61.52.5,1.55,1.67-.57Zm-28.44.44L83,68.94l1.89.53.32-1.63Zm65.16,0a2.89,2.89,0,0,1,2.9,2.67c.26,2.76-3.81,4.1-5.34,1.52l1.34-1.64-1.2-1.13a2.79,2.79,0,0,1,2.3-1.42Zm-81.68.09,4.43,3.06-3.22,5L63.3,72.28Zm73.16,0a2.4,2.4,0,0,1,1.92.93l-1.58,1.85,1.71,1.83a2.8,2.8,0,0,1-5-1.83A3.13,3.13,0,0,1,140,67.45Zm3.67.1L146.51,70l-2.58,3-2.64-2.68Zm-34.57.12-1.69.5.39,1.5,1.75-.46Zm-22.81.47L86,69.74l1.94.42.33-1.6Zm20,.27-1.8.39.31,1.6,1.8-.38Zm37.55.37-1.48,1.47,1.48,1.55,1.5-1.55Zm-54.45,0-.23,1.62,2,.27.16-1.63Zm13.7.22-1.83.21.19,1.59,1.9-.24Zm-10.8.19,0,1.66,1.79.14V69.4Zm7.87.15-1.8.07,0,1.6,1.83-.11,0-1.56Zm-32.7,0a1.92,1.92,0,1,0,1.91,1.92A1.92,1.92,0,0,0,67.5,69.41Zm29.69,0-1.76,0V71.1h1.81Zm46.69,0,.78.78-.78.76-.79-.76Zm0,.5a.27.27,0,1,0,.29.27A.28.28,0,0,0,143.88,70Zm-76.38.12a1.26,1.26,0,0,1,0,2.52,1.26,1.26,0,1,1,0-2.52Zm-6.79.09,2.54,2.08a49.44,49.44,0,0,1-3.37,4.83L55.2,73.31l2.45-1.39a1.92,1.92,0,0,0-.21.86,1.88,1.88,0,1,0,2-1.88Zm-1.42,1.33A1.27,1.27,0,1,1,58,72.78,1.26,1.26,0,0,1,59.29,71.51Zm86.24.6a2.49,2.49,0,0,1,.86.53,2.86,2.86,0,0,1-2.34,4.55,2.68,2.68,0,0,1-1.53-4.79L144,73.82ZM76.26,73l5.25,2-2,5.74-5.74-2.36Zm-21.59.6a63.34,63.34,0,0,0,74,7.92l1.35,0,.71.74A65.31,65.31,0,0,1,53,74.63Zm59,1.15,1.69,5.68-5.81,1.54-1.29-5.75Zm-61.2.21a64.24,64.24,0,0,0,26.5,15l.27,2.32C67.77,88.75,59.11,84.13,50.68,76.1ZM77.65,75a1.89,1.89,0,1,0,1.88,1.89A1.88,1.88,0,0,0,77.65,75Zm-9.34.42,5.42,2.88L71,83.76l-5.75-3.11Zm9.31.2a1.27,1.27,0,1,1-1.25,1.27A1.26,1.26,0,0,1,77.62,75.64Zm9,.77,5.2.76L91.56,83l-6.07-.74c.23-2,1.11-5.83,1.11-5.83Zm25.14.15a1.89,1.89,0,1,0,1.88,1.88A1.88,1.88,0,0,0,111.74,76.56Zm0,.62a1.27,1.27,0,1,1-1.26,1.26A1.27,1.27,0,0,1,111.72,77.18Zm-42.33.08a1.89,1.89,0,1,0,1.88,1.89A1.89,1.89,0,0,0,69.39,77.26Zm33.28,0,.75,5.83-5.69.28-.33-5.81Zm40.74.52h.81a139.5,139.5,0,0,0,1.05,15.12c.08.64.12.83.06.94-.56,1-1.21-.26-1.46-3.11-.07-.79-.16-1.93-.26-2.68C143.32,85.78,143.41,77.79,143.41,77.79Zm-96.07.09h0c-8.55,5.36-22.77,18.17-22.68,18.47l.06,49.22,1.11.05.92-1.81c-1.43-.36-1-3,1.7-3.58a9.17,9.17,0,0,0,2.23-.84,10.05,10.05,0,0,1,7.78-1.9c3.44.89,4.43,3.55,2.49,7.84-1.66,3.66-3.49,7.8-6.94,9.52a9.07,9.07,0,0,0,.77.65c6.68-3.88,10-17.8,9.87-26.47.27-8.87,1.79-17.77,5.35-24.25,5.89-10.7,13.67-15,13.63-15S53.14,83.33,47.34,77.87Zm22,0a1.26,1.26,0,1,1-1.26,1.26A1.26,1.26,0,0,1,69.37,77.89Zm51.92.2,2,5.42-5.64,2.31-2-5.69Zm-32.41,0A1.89,1.89,0,1,0,90.76,80,1.89,1.89,0,0,0,88.88,78.11Zm11.46.47a1.89,1.89,0,1,0,1.87,1.89A1.89,1.89,0,0,0,100.34,78.58Zm-11.48.16A1.26,1.26,0,1,1,87.6,80,1.26,1.26,0,0,1,88.86,78.74Zm11.45.47a1.26,1.26,0,1,1-1.26,1.26A1.25,1.25,0,0,1,100.31,79.21Zm19.16.64a1.89,1.89,0,1,0,1.88,1.89A1.88,1.88,0,0,0,119.47,79.85Zm31.4.5c.92,2.9-.76,6.69-.84,6.93-1,2.92-2.26,5.3-2.7,5.44s-.55,0-.55-.3a46.26,46.26,0,0,1,2.24-6.7,11.93,11.93,0,0,0,.76-2.8c-.86,1.54-3,5.7-3.37,8.37-.2,1.77-.54,1.52-.78-.6-.35-2.94.29-4.45,3.58-8.54A13.49,13.49,0,0,1,150.87,80.35Zm-31.42.12a1.27,1.27,0,1,1-1.26,1.27A1.26,1.26,0,0,1,119.45,80.47Zm-39.79.1L85.29,82,84,88l-6.36-1.7Zm29.86,1.35,1.63,5.82-6.65,1.14-1-5.9Zm-27.83.59a1.89,1.89,0,1,0,1.88,1.89A1.89,1.89,0,0,0,81.69,82.51Zm9.94.38,6,.34,0,6L91.17,89Zm-10,.24a1.27,1.27,0,0,1,0,2.53,1.27,1.27,0,0,1,0-2.53Zm25.27.54a1.89,1.89,0,1,0,1.87,1.89A1.88,1.88,0,0,0,106.94,83.67Zm-12.49.48A1.89,1.89,0,1,0,96.33,86,1.88,1.88,0,0,0,94.45,84.15Zm12.46.14a1.27,1.27,0,1,1-1.26,1.27A1.26,1.26,0,0,1,106.91,84.29Zm-12.48.48A1.27,1.27,0,1,1,93.17,86,1.26,1.26,0,0,1,94.43,84.77Zm41.51.39c1.49.19,5.78,3.31,6.9,5.23,1,1.76.47,2.45-.64.89a50.43,50.43,0,0,0-5-4.41,14.59,14.59,0,0,0,2.2,2.46c1.79,1.75,3.67,4,3.67,4.44s-.35.24-.86-.08a22.36,22.36,0,0,1-3.85-3c-1.59-1.41-3.43-4.58-3.08-5.41.1-.25.36-.15.64-.11Zm-84.46.46A2.33,2.33,0,0,1,54,87.68c0,1,.1,1,1,1s3.22.3,3.22.3v2.69s-1.15,0-2.47-.07c-2.26-.11-2.25-.11-2.53.88a1.43,1.43,0,0,1-.73.9c-2,1.34-4-1.09-2.72-3.38.43-.78.46-1,.16-1.52a2,2,0,0,1,1.59-2.91ZM52,87a1.1,1.1,0,0,0-.77.36,1.76,1.76,0,0,0,0,1.83c.31.53.31.67-.07,1a1.6,1.6,0,0,0,0,2.29c.58.41,1.2-.14,1.2-1s.65-.91.65-.91l4.23.08V90l-3.07-.15a2.11,2.11,0,0,1-1.2-.27c-.35-.24-.75-.66-.37-1.18A.81.81,0,0,0,52,87ZM42.8,88.58l2,3.43,2.34.09.21,2.09L50.2,96l-2.91,1.72-.15,2.1-2.2.28-2.06,2.58-2-2.58H38.75l0-2.15-3-1.93L39,94.21l0-2.46,2.31-.15Zm70.94,1.56.09,2.08-3.28.58.42-2.11ZM92.67,92.23l4.43.14-.25,29.11h-1l0-1.14-1.42,0-1.44-.88ZM42.8,93l-2.6,3.31L43.35,99l2.77-3.23Zm51.2.44v1.34h1.86V93.41ZM42.86,94.56l1.83,1.35L43.3,97.76l-1.77-1.54Zm71,.76-.06,15.93c-6.08,4.8-8,13.26-8,13.26l-2.48-.15L109.6,96.3Zm-33,.35c-5.48,2.62-11,4.61-16.43,10.86a30.33,30.33,0,0,1,6.3,7.08c4.52-.67,9.56.14,15,2.31ZM94,96v1.39h1.86V96Zm-63.84.06c1.37-.13,2,1.17,2.28,1.94a4.4,4.4,0,0,1,.18.88c4-.34,3,4.35.43,4.51-.3,0,.25.83.85,1.08a2.71,2.71,0,0,0,3.61-1.11,8.42,8.42,0,0,0,.81-1.17l2.48,1.32s.07,0-.37,1.11c-.79,2.08.37,4.63,1.27,2.77a2.4,2.4,0,0,1,2.85-1.15c1.14.48,1.54,2.53.74,3.81-.24.39-.25.47-.1.84a4.24,4.24,0,0,1,.12,2.38c-.3.59-.65.72-1.33.24a8.2,8.2,0,0,0-3.09-1.37c-2.86-.54-3.41-1.56-4.55-3.92-3.38,1-8.45-1.11-7.77-6.17.3-1.11.39-3.25-.18-3.69C27.28,97.53,28.5,96.29,30.16,96.09Zm50.16.48,4.4,18.54c-4.83-1.78-9.57-3.17-13.77-2.14a29.64,29.64,0,0,0-5.69-6.61c4.15-5,9.43-7.85,15.06-9.79Zm-49.81.9a1.44,1.44,0,0,0-.94.42,2,2,0,0,1,.46.59c.26.55.26.55,0,1.75-1.34,4.83,1.84,8,6.37,6.63,1.11-.35,1.07-.31,1.39,1,.53,2.16,2.05,3.28,5.07,3.69a1.84,1.84,0,0,1,.74.23c1.33.86.79-.28.42-.72a4.44,4.44,0,0,0-.73-.69s.4-.26.59-.36c.86-.46,1.17-2.24.47-2.62s-1.73.18-1.74.84c0,1.21-1.52,1.34-2.84.33-1.71-1.29-.2-4.54-.19-4.53l-1-.43c.13.12-2,3.19-4.66,2.12-1.85-.75-3.15-2.9-2.29-3.51.62-.17,1.37.17,1.84-.19.94-.75.18-2.06-1.16-2a8.4,8.4,0,0,0-.93.14,6.52,6.52,0,0,0,.15-1.63A1.14,1.14,0,0,0,30.51,97.47ZM94,98.88V100h1.84V98.9Zm0,2.36v1.17h1.86v-1.17Zm0,2.53V105h1.86v-1.21Zm0,2.37v1.27h1.86v-1.27Zm0,2.37v1.19h1.86v-1.19Zm0,2.42v1.2h1.86v-1.2ZM33.34,112.1l1.84,2.66,1.85.08.08,1.83,3.16,2.42-2.76,2-.2,2-2.19.07-1.78,3-2.18-2.64-1.75-.28-.2-2.4-2.7-2,2.53-2,.21-2.13,2.07.19Zm103.06,1.27a1.14,1.14,0,0,1,.55.16,5,5,0,0,0,2.57.45c2,.1,2.68.28,3.66.94.59.4.62.4,1.26,0,2.77-1.85,5.95-.16,6.18,3.28a4.65,4.65,0,0,0,.5,2c.24.53.49,1,.35,1.28-.45,1-2.58,1.09-3.75-.43a.89.89,0,0,0-.71-.33c-.58.22-2.06-1-2-1-.14.82-.21,1.47-.36,2.65l-2.59,0s-.05-.48-.17-2.14c-.14-1.92-.62-2.48-1.23-1.44a2.18,2.18,0,0,1-4-1.13c0-.71-.09-.81-.48-1.11-1.32-1-.93-3.15.25-3.13Zm-42.4.11v1.06h1.86v-1.06Zm42.7,1.14c-.51-.07-.22.95.63,1.44.48.27.48.27.42,1.12-.12,1.53,1.35,2.28,2,1a1.07,1.07,0,0,0,.12-.68c-.27-1.11,2.12-.81,2.69.34a6.34,6.34,0,0,1,.36,1.68c.06.67.08,1.45.08,1.45h.76s0-.46,0-.9c.19-1.91,1-3.11,2.15-3.1.49,0,.5.08.17.71-.57,1.06,0,1.83,1.31,1.84.84,0,.84,0,1.15.61s.61.87.93.75.23,0-.07-2.22c-.44-3.37-2.39-4.27-5.08-2.37-.76.54-.92.53-1.6-.13-1-1-1.65-1.21-3.63-1.28-.81-.05-1.65-.19-2.43-.28Zm-63.82,1c-.44,0-.95.1-1.39.14.49,2.6.72,5.2,1,7.8,2.26-.39,5.19,0,9.06,1.79a59.28,59.28,0,0,1,8.32,5.16,29.13,29.13,0,0,0,10.43,4.41c4,.88,7.21.8,7.13.61a35.4,35.4,0,0,1-1.28-7.75,32.41,32.41,0,0,1-15-5.36c-5.41-3.7-11.66-6.91-18.26-6.8ZM94,115.8v1.08h1.86V115.8ZM33.34,116l-3.23,3.09,3.23,3,2.68-3Zm0,1.56,1.43,1.58-1.45,1.58-1.76-1.63Zm41.06.09c.4,0,.78.28,2.07,1,1.09.76,2,1.23,1.64,0,.25-.34,1.45.76,2.87,1.46,1.71,1.38,1.72,1,1.94.36.23-.5.55-.16,1.91,1.11,1.8,1.67,1.64,1.68,2,1.26.41-.78.55-.77,2,.92s1.84,2.07,2.17,1.34c.5-.38.76,0,2.82,1.93,1,1,1.26.86,1.45.18s.25-.55,2,.82c2,1.6,2.18,1.71,2.26,1.16.14-.88.75-.57,2.79.91,1.24.89,1.71,1.14,2,.91.27-.47-.67-1.4,1.33-.53l.54,2.92-.69-.2c-.42-.12-1.35-.44-1,.47.2.52-.3.46-1.85-.47-2.22-1.33-2.63-1.63-2.8-1.36-.29,1-.25,1.06-1.75-.12-1.74-1.33-2.09-1.7-2.34-1.24,0,1-.51.8-2.14-.61-1.37-1.21-1.67-1.84-2.28-.92-.17.32-.34.24-.57.07a32,32,0,0,1-2.86-2.79c-.35-.39-.56-.26-.85.06s-.29.21-1.18-.61c-2.12-2-2.51-2.44-2.81-2.17-.24.46,0,1.08-1.64-.21-2-1.48-2.92-2.14-2.78-1.17-.35.44-.11.52-2.15-.61s-2.19-1.41-2.47-1a.59.59,0,0,1-.84.34l-.39-3h.69a4,4,0,0,1,1-.28Zm-15.57.25c-.16.46-1.23,3.1-1.24,9.83.13.16,2.65-2.43,2.78-4.84A10.54,10.54,0,0,0,58.83,117.91ZM94,118.1v1.22h1.86V118.1Zm-35,1c2.36,3.76-.24,7.31-.89,7.56A34.86,34.86,0,0,1,59,119.07Zm62,3.16c-3.88,2.46-3.26,9.12-1.35,10.82A62.35,62.35,0,0,0,120.93,122.23Zm-.53.82-1.05,8.57C118,130.11,117.75,125.6,120.4,123.05Zm24.47,1.45,2,2.59,1.83.14.4,1.87,2.66,2.18-2.66,1.81-.24,2.08-2,.2-2,3.1-1.92-3-1.84-.19-.06-2-2.88-2.15,2.75-1.66.06-2.26h2.16Zm-72.62.81a20,20,0,0,1-8.8,13.36l0,.63-7.39,3a46.76,46.76,0,0,1-10.64,22l1.7,3.48-8.26,2.85L50.71,191c.81,0-5.73,3.11-13.63,2.3,5,12.31,6,25.05,3.26,36.21l38.71-.16L49.47,171,49,170c-.43-.81,15.51,1.78,12.3,17.34-.05.34.08.39.27.24,3.14-2.71,24-10.22,40.6-.3l4.95-2.06c-2.35,8.28-5,14-9.54,19L98.33,216a50.23,50.23,0,0,0,17.79-34.66c3.59-1.76,6.72-3.76,10.07-5.64l.44.14,2.17-1.3c-7-7.65-21.14-15-30.23-16.87l.54,2.58a74.14,74.14,0,0,0-12.67-2.06l-.6-27.43-5-3L80.63,158a117.78,117.78,0,0,0-12.46,1.54l.39-2.58-4,.82-.07-2.52L69,154l6.51-27.79Zm.55.62,2.08.42L68.42,153.6a28,28,0,0,1-3.84.86c-.29-5.11-.4-15.52-.4-15.52,6.37-5.34,7.37-9.12,8.62-13Zm-44.29,2c1,0,2,.7,2.08,1.34.17.39.31.56.57.6,1.63.22,1.68.66,1.73,1.6-.23,1.81,1,.29,1.31-1.51,0-.18,0-1.56,0-1.56h2s.07,1.43.1,1.66c.17,1.39.76,2.52,1.17,1.78,1.4-2.53,4.61-1.24,4.11,1.2-.13.58-.12.61.27,1.05a2.22,2.22,0,0,1,.67,2.13c-.21.65-.66.74-1.62.35a7.66,7.66,0,0,0-2.47-.29c-2,0-2.75-.16-3.53-1.38a4.31,4.31,0,0,1-5.23.62c-1-.52-1.6-1.77-1.75-3.71,0-1-.32-1.78-1-2-.34-.32,0-1,.63-1.56a1.55,1.55,0,0,1,.91-.28Zm116.19.29L142,131.65l3.25,2.93,3-3.58Zm-63.42.49,3.79,2.19.49,27-4.29-.12ZM28.72,130.3a3.23,3.23,0,0,1,.17,1.47c-.4,3,3,4.47,5.42,2.41.65-.74.75-.7,1.3.1s1.64,1.12,3.68,1c.93-.06,1.55.44,2,.11s0-.78-.55-1.11c-.35-.2-.36-.23-.29-.92.17-1.76-1.27-2.22-2.29-.74-.84,1.22-2.11.41-2.52-1.61-.25-1.55-.44-1.53-.63-.17-.19,1.65-2.35,3.43-3.21,2.62-.24-.24-.24-.18,0-1,.31-1.06.06-1.45-1.09-1.73a.77.77,0,0,1-.48-.35c-.57-.89-.59-1.19-1.4-1.27s-.23.67-.07,1.2ZM145,129.72l1.74,1.51L145.2,133l-1.85-1.43Zm-62.51,1V132h1.62v-1.28Zm0,2.58v1.34h1.62v-1.34Zm9.77,1.54Q95,145,97.72,155.16c1.73-.69,11.72-5.15,16.43-10.86a31.37,31.37,0,0,1-5.72-6.63C103.72,138.45,98.3,137.45,92.24,134.8Zm-9.77.81v1.26h1.62v-1.26Zm10.79.34c4.3,1.29,9.8,3.07,14.86,2.16a22.37,22.37,0,0,0,5.33,6.1c-3.83,4.19-9.37,7.39-15.11,9.85Zm40.75.49a1,1,0,0,1,.65.27,4.25,4.25,0,0,0,2.59,1,5.24,5.24,0,0,1,4.43,3.64c.2.79.31.83,1.42.55,4.22-1.07,7.48,2.45,6.47,7.15-.35,1.64-.45,1.83,0,2.48,1.08,1.16,1.31,1.18.14,2.2a2.34,2.34,0,0,1-3.65-1.06c-.43-.86-.42-.93-1.13-1a2.39,2.39,0,0,1,0-4.72,2.68,2.68,0,0,0,.48,0c.74-.33-.8-2.08-2.07-1.82-1.56.33-2.34,1.34-3,2.92l-2.46-1.41c.62-1.28,1.07-2.94.53-4-.43-.86-1-.89-1.14-.07-.39,1.94-2.79,2.52-4.37.94a2.37,2.37,0,0,1-.33-3.1c.42-.83.43-.89.25-1.24-.62-1.21.22-2.74,1.15-2.74ZM82.47,138v1.31H84.1V138H82.47Zm51.85.11c-.5,0-.5.49,0,1.09.41.41.49.61-.08,1a1.89,1.89,0,0,0-.37,2.42,1.22,1.22,0,0,0,2.24-.84c-.13-.94.6-1.37,1.78-1a3.23,3.23,0,0,1,1.84,4.36c-.13.36-.38,1.21-.38,1.21l.51.31s.59-1,.83-1.25c1.93-2.39,6.51-1.18,6,1.81-.08.94-.08,1.07-1.09.77-.68-.35-1.33.38-1.31,1.29A1.44,1.44,0,0,0,146,150.6c.77-.14,1-.12.91.93a1.71,1.71,0,0,0,.83,1.47c1.15.48,1.75-.18.82-1.15a2.18,2.18,0,0,1-.17-2.36,6.87,6.87,0,0,0-.44-4.53c-.93-1.82-3.53-2.59-5.71-1.68-1,.54-1.11.66-1.2-.28a5.2,5.2,0,0,0-4.46-4.24,13.72,13.72,0,0,1-2.23-.63Zm-51.85,2.38v1.2H84.1v-1.2Zm0,2.36v1.33h1.62v-1.33Zm0,2.6v1.33s.89,0,1.62,0v-1.33Zm53,2.13,1.78,2.64,2,.13.23,2.14,3,1.86L139.81,156l0,2.06-2.46.21-2.18,2.91-1.85-2.57-1.86,0-.43-2.29-3.29-1.68,3.37-1.93-.09-2.4,2.29,0Zm-53,.32v1.36h1.62v-1.36Zm0,2.5v1.35h1.62v-1.35Zm52,1-2.54,3.4,3.43,2.85,2.72-3.44Zm-52,1.36v1.48h1.62v-1.48Zm52.24.18,1.76,1.37L135.21,156l-1.76-1.35Zm-52.24,2.55v1.24h1.62v-1.24Zm-48.27.16c-3.13,0-6.08,5.11-6.79,7.52-.84,3.09-1,8.68-.17,8.84,2.8-2,4.13-5.47,6.24-8,.33,3,.27,8.71.27,8.71a5.81,5.81,0,0,0-1.91,1.71,3.2,3.2,0,0,0-.23,2.86,3.37,3.37,0,0,0-4.54,3c.1,4.07,4.52,3.5,4.54,3.45s-.87,4.33,3,4.79c1.41.17,3.89-.87,3.15-4.83,2.48.41,4.62-1,4.65-3.36a3.06,3.06,0,0,0-3.35-3.06,9.69,9.69,0,0,0-1.39.2,4.07,4.07,0,0,0-2-4.64L35.25,161s1,1.08,1.44,1.49a21.88,21.88,0,0,0,5.36,3.83c2.15,1.14,1.88.86,1.51-1.3-1-3.25-3.13-5.7-7.62-8.77A3.08,3.08,0,0,0,34.2,155.68Zm.31.26.63,16.68h-.93L33.41,156Zm92,.55h.25a2.17,2.17,0,0,1,1.64,3.45c-.36.4-.49.49-.3.73.87,1.11.38,2.86-.48,3.13-2.73.85-3.14-.65-3.13-2.42l-4.22-.16,0-2.47,4.65.09a1.75,1.75,0,0,1,1.56-2.36Zm-93.92,0c.43,0,0,1.22-1.24,3a15.68,15.68,0,0,0-3.13,9,29.66,29.66,0,0,1,4.34-9.29c.41-.37.51-.14.5,1.08,0,2.76-1.32,5.67-4.42,9.07a10.5,10.5,0,0,1-1.25,1.18c-.3,0-.29-.63-.29-1.94,0-5.21,2-9.83,4.91-11.87A1.18,1.18,0,0,1,32.61,156.51Zm3.08.24c1.36.41,3.81,2.6,4.81,3.73,1.17,1.26,2.73,4.77,2.46,5.3-.1.24-.29.2-1-.18-4.33-2.45-7.43-5.47-6.62-6.45.23-.27,1.16.29,2.4,1.45.85.76,1.72,1.52,2.49,2.29,1.22,1.21,1.49,1.38.76.05A19.63,19.63,0,0,0,36.24,158c-.92-.69-1.13-1.25-.55-1.24Zm91.1.71-.15,0c-.85.37-.5,1.48-.59,2.33l-4.68-.16,0,.65,4.39.24c.08.66-.27,2.1.3,2.34,1.22.52,1.9-1.07.85-2-.37-.33-.77-.48.26-.95a1.57,1.57,0,0,0,.21-2.23.94.94,0,0,0-.57-.21Zm-59.21.19-.24,1.75-2.71.68-.07-1.86Zm32,.62c10,2.71,21.17,8.88,28.4,15.84l-1.45,1A68.23,68.23,0,0,0,100,160.15Zm-17.27.27c16.51,0,31.56,6.41,43.7,16.83l-2,1.25c-11.07-9.2-23.34-15.34-39.85-16.07-10.79-.48-23.11,2.3-35.24,9l-.9-1.65c11.78-6.46,23.35-9.34,34.28-9.37ZM81,161l6.49.19-.4,6.06-5.9-.19Zm-7,.43.92,5.85-5.65,1.06-1.6-5.86Zm20.55.77L101,164l-2.13,6-5.66-1.62Zm-10.33.09a1.87,1.87,0,1,0,1.86,1.86A1.85,1.85,0,0,0,84.26,162.33Zm0,.64A1.23,1.23,0,1,1,83,164.19,1.23,1.23,0,0,1,84.26,163Zm-12.8,0a1.86,1.86,0,1,0,1.85,1.86A1.86,1.86,0,0,0,71.46,163Zm0,.64a1.22,1.22,0,1,1-1.24,1.22A1.23,1.23,0,0,1,71.46,163.63Zm25.53.75a1.87,1.87,0,1,0,1.85,1.87A1.87,1.87,0,0,0,97,164.38Zm-35.94.22L63,170.3l-5.47,2.23-2.05-5.63ZM97,165a1.22,1.22,0,1,1,0,2.44A1.22,1.22,0,1,1,97,165Zm10.72,1.36,5.8,3.09-3,5.45-5.41-2.84Zm-48.6.5A1.86,1.86,0,1,0,61,168.75,1.85,1.85,0,0,0,59.11,166.89Zm21.93.17.27,5.76-5.14.37-.93-5.73Zm6.17.31,5.85.81-1.37,5.55-5.31-.86Zm-28.1.16a1.22,1.22,0,1,1-1.23,1.22A1.23,1.23,0,0,1,59.11,167.53Zm19.19.75a1.86,1.86,0,1,0,1.86,1.86A1.85,1.85,0,0,0,78.3,168.28Zm-9.36.23,1.52,5.6-5.65,1.63-1.73-5.39Zm20.51.09a1.87,1.87,0,1,0,1.86,1.86A1.85,1.85,0,0,0,89.45,168.6Zm-11.15.32a1.22,1.22,0,1,1-1.23,1.22A1.22,1.22,0,0,1,78.3,168.92Zm11.15.32a1.23,1.23,0,1,1-1.23,1.22A1.23,1.23,0,0,1,89.45,169.24Zm19.83,0a1.86,1.86,0,1,0,1.85,1.86A1.85,1.85,0,0,0,109.28,169.26Zm-10,.54,5.66,1.94-2.26,5.33L97.23,175Zm10,.1a1.22,1.22,0,1,1-1.24,1.22A1.23,1.23,0,0,1,109.28,169.9Zm-42.59.2A1.87,1.87,0,1,0,68.55,172,1.85,1.85,0,0,0,66.69,170.1Zm0,.64A1.22,1.22,0,1,1,65.46,172,1.23,1.23,0,0,1,66.69,170.74Zm34.3,1.09a1.87,1.87,0,1,0,1.86,1.86A1.85,1.85,0,0,0,101,171.83Zm0,.64a1.23,1.23,0,1,1-1.23,1.22A1.24,1.24,0,0,1,101,172.47Zm-66.31.65a2.93,2.93,0,0,1,2.66,2.8c0,1.05-1.29,2.44-1.29,2.44l-1.56-1.45L33,178.3c-.26.08-1.42-1.91-1.07-2.94A2.88,2.88,0,0,1,34.68,173.12Zm84.17,0,4.48,3.69L121,178.23a1.68,1.68,0,0,0,.07-.5,1.86,1.86,0,1,0-2.28,1.81l-1.07.61-2.37-2Zm-35.68.18c9,.13,18.71,2.82,28.58,9.68l-2,.82c-12.21-8.06-28.91-12.48-48-4.36l-.66-1.59A55.16,55.16,0,0,1,83.17,173.3Zm27.5,1.62,4.8,3-3,4.71-4.69-3ZM82,175.8a50.47,50.47,0,0,1,27.25,8.26l-2,.76c-14.9-9.63-30.79-9.11-45-3.34L62,180.12A49.35,49.35,0,0,1,82,175.8Zm37.25.71a1.22,1.22,0,1,1-1.23,1.22A1.22,1.22,0,0,1,119.21,176.51Zm-89,.88a2.71,2.71,0,0,1,2.27,1.32l-1.65,1.69,1.51,1.7a6.29,6.29,0,0,1-.83.6,2.76,2.76,0,0,1-4.05-2.48,2.89,2.89,0,0,1,2.75-2.83Zm81.13,0a1.86,1.86,0,1,0,1.85,1.86A1.86,1.86,0,0,0,111.36,177.43Zm-72.15.07A2.79,2.79,0,0,1,42,180a2.85,2.85,0,0,1-1.59,2.76c-1.58,1-3.41-.6-3.38-.69l1.33-1.33-1.6-1.64a3.32,3.32,0,0,1,2.48-1.56Zm-4.61.32,2.73,2.74-2.89,2.71-2.68-2.71Zm72,7.29-1.53.71L103,184.55l-.62,1.19,1.16.74-1.21.46c-13.92-7.87-29.65-5.59-40.11-.37,0,0,.09-.81.1-.81l1.13-.58L63,183.73l-.61.18,0-1.61A46.77,46.77,0,0,1,83,178.06,46.14,46.14,0,0,1,106.6,185.11Zm4.76-7a1.22,1.22,0,1,1-1.24,1.22A1.23,1.23,0,0,1,111.36,178.07Zm-76.82,1-1.46,1.46,1.45,1.55,1.42-1.5Zm45.58.32-1.91.09.1,1.56,1.86,0Zm1.3,0,0,1.57h1.73v-1.55Zm3.07,0L84.4,181l1.72.08.12-1.55Zm-7.42.19-1.95.22.22,1.57,1.84-.22Zm10.62,0-.14,1.61,1.77.2.23-1.54Zm-53.14,0,.85.91-.85.84-.9-.88Zm39.23.47-1.88.3.2,1.62,1.83-.36Zm17.09,0-.31,1.5,1.76.43.28-1.53Zm-56.33.15a.27.27,0,1,0,.29.27A.28.28,0,0,0,34.54,180.26Zm36.15.51-1.58.42.34,1.58,1.67-.41Zm23.19.06-.33,1.52,1.79.49.36-1.46Zm-25.8.76-1.66.59.43,1.46,1.68-.57Zm28.88.17-.55,1.46,1.55.63.68-1.33Zm-60.53.78c1.65,1.47,1.62,4.9-1.3,5.47-2.55.5-4.88-3.34-2.18-5.35l1.59,1.6Zm28.91.07-1.57.65.65,1.45,1.49-.68ZM99.8,183l-.61,1.34,1.71.76.59-1.29ZM51,191.59l21.59,36.9-3.41-.07-20.9-35.65ZM47.46,193l1.19,1.86c-2.34-1.87-5.77-.3-5.63,2.06.12,1.06,1,1.7,1,.68s1.39-2,2.47-1.93c2,0,3.22,2.61,1.84,3.9-.91.84-2.14.8-1.72-.35.06-.4,0-.55-.16-.72a.88.88,0,0,0-1.37.92c.17.49.22.61-.37,1-2.29,1.62-.69,4.8,2.08,3.35.56-.2.79-.23,1.05-.13,1.15.44,1.94-.56.85-1.09-.64-.3-.65-.82,0-1.23,1.31-.88,3.35.49,3.34,2.25,0,1.24-1.64,2.17-3.2,1.8-.93-.21-1,.42-.19,1.08,1.65,1.27,4.12.22,4.86-2.08a2.56,2.56,0,0,0,.2-.87l2.2,3.66s-.68-.32-1.09-.45c-2.08-.64-4.4.72-4.41,2.56,0,.87.51,1.21.79.53a2.6,2.6,0,0,1,3.62-1.54,2.52,2.52,0,0,1,1.47,3.28c-.57,1.31-2.46,1.7-2.25.46.1-.6-.25-1-.88-.9-.24,0-.55.72-.47,1.06s0,.39-.79,1c-1.92,1.51-.44,4,2,3.26a1,1,0,0,1,.92.07c.87.42,1.78.16,1.78-.51,0-.47-.21-.64-.75-.64-.82,0-.64-.95.27-1.4,2.28-1.15,4.62,1.75,3.23,4-.6,1-1,1.07-3.12.83-.34,0-.5.2-.29.48.63.91,2.51,1.19,3.61.69a3.83,3.83,0,0,0,2-3.34l2.42,4.24a3.23,3.23,0,0,0-5.64,1.61c0,.71.65,1.09.87.5a2.42,2.42,0,0,1,4.68,1,1.6,1.6,0,0,1-.37,1.08c-.68,1.32-2.42,1.65-2.11.46.14-.37-.14-.77-.62-.88s-.77.28-.76,1c0,.55,0,.71,0,.71a2.7,2.7,0,0,0-1.62,2.16l-16.91,0c2-11.79,1.54-22.43-2.31-32.5-.33-.87-.8-2.14-.8-2.14l3,.08c.72.63,3.44.38,4.5-.59Zm2.87,4.62,1.75,3.16a5.82,5.82,0,0,0-2.59-.79A6.79,6.79,0,0,0,50.33,197.62ZM45.74,201a1.16,1.16,0,0,1,0,2.31,1.16,1.16,0,1,1,0-2.31Zm12,9.42,1.68,3a6.54,6.54,0,0,0-2.79-.72A6.7,6.7,0,0,0,57.78,210.4Zm-4.85,3.23a1.1,1.1,0,1,1-1.09,1.1A1.09,1.09,0,0,1,52.93,213.63ZM65.12,223l2.48,4.43a5.61,5.61,0,0,0-3.35-1.14A5.86,5.86,0,0,0,65.12,223Zm-4.66,4a1.37,1.37,0,0,1,1.35,1.53H59.15c.23-1,.77-1.49,1.31-1.54Zm3.87.4a2.54,2.54,0,0,1,2.18,1.15H63.16a1.15,1.15,0,0,1,1.17-1.16Z"/><path id="path163-0-2-5-8-7-5-8-8-7" class="cls-2" d="M47.88,64.56s-3.73-6.13-8.77-13.33c-3.37-4.82-6.06-10-6.31-14.53-.29-5.13,2.43-10.28,7.35-10.53s6.92,3.95,7.73,7.42c.81-3.47,2.81-7.67,7.73-7.42S63.25,31.57,63,36.7c-.25,4.49-2.94,9.71-6.31,14.53-5,7.2-8.77,13.33-8.77,13.33Z"/><path id="path163-0-2-5-8-7-7-8-4-8-6" class="cls-2" d="M130.7,184.89S127,191,121.94,198.22c-3.37,4.82-6.07,10-6.32,14.53-.28,5.13,2.43,10.28,7.36,10.53s6.91-4,7.72-7.43c.82,3.47,2.81,7.68,7.73,7.43s7.64-5.4,7.36-10.53c-.25-4.5-2.95-9.71-6.32-14.53C134.44,191,130.7,184.89,130.7,184.89Z"/></g></g></g></svg>