<svg xmlns="http://www.w3.org/2000/svg" viewBox="0 0 178.58 249.45"><defs><style>.cls-1{fill:#fff;}.cls-2{fill:#d40000;}.cls-3{fill:#e2cf00;}.cls-4{fill:#131f67;}</style></defs><g id="Layer_2" data-name="Layer 2"><g id="svg8"><g id="g7559"><path id="rect6355-6-85-90-3-5" class="cls-1" d="M8.54,0H170a8.53,8.53,0,0,1,8.54,8.53V240.92a8.53,8.53,0,0,1-8.54,8.53H8.54A8.53,8.53,0,0,1,0,240.92V8.53A8.53,8.53,0,0,1,8.54,0Z"/><path id="path163-0-2-7-7-1-8-7-00-1-2" class="cls-2" d="M13.77,56S12,53.43,9.59,50.43c-1.6-2-2.89-4.19-3-6.06-.13-2.14,1.16-4.28,3.51-4.39s3.3,1.65,3.68,3.1c.39-1.45,1.34-3.2,3.69-3.1A3.88,3.88,0,0,1,21,44.37c-.12,1.87-1.4,4.05-3,6.06-2.4,3-4.18,5.55-4.18,5.55Z"/><path id="path163-0-2-7-7-1-8-1-9-4-6-8" class="cls-2" d="M164.81,193.47S163,196,160.63,199c-1.61,2-2.89,4.18-3,6.06a3.88,3.88,0,0,0,3.5,4.39c2.35.1,3.3-1.65,3.69-3.1.39,1.45,1.34,3.2,3.68,3.1a3.88,3.88,0,0,0,3.51-4.39c-.12-1.88-1.4-4.05-3-6.06-2.4-3-4.18-5.55-4.18-5.55Z"/><path id="path39-51-8-0-0" class="cls-2" d="M14.42,34.56h2.66l-3.9-9.75-3,4.12,0,5.63h2.09v2.91H4.93V34.56H7.36v-21H4.93V11.07h7.49v2.62H10.35l0,10.22,6.53-10.3H14.53V11.07h8v2.54H20.4L15,22l5.26,12.54h2.34v2.9H14.45l0-2.91Z"/><path id="path39-3-9-6-0-8" class="cls-2" d="M164.17,214.89h-2.66l3.91,9.74,3-4.11,0-5.63h-2.1V212h7.38v2.91h-2.43v21h2.43v2.54h-7.49v-2.63h2.07l0-10.21-6.53,10.3h2.31v2.54h-8v-2.54h2.1l5.38-8.42-5.26-12.54H156V212h8.19l0,2.91Z"/><path id="path3876-2-1-7" class="cls-3" d="M64.83,211.62a229.33,229.33,0,0,0,43.17.93c3.82,5.32,11.5,16.17,11.5,16.17l-69.57.57Zm-18.07,3.7c1.87-3.79,2.23-7.44,1.88-12.71-.28-4,2.22-7.19,4.81-6,2,.93,1.08,4.75-1,4-.79-.31-1.49,0-1.38,1.78.18,4.48,1.37,9.52.35,13.81C50.72,220.34,45,218.42,46.76,215.32Zm-17.47-5.84c-2.2-3.33,1.74-6.44,4.2-4.91,1.17.55,1,1.75-.47,1.11-2.05-.89-4.27,2.27-2.48,3.54.83.58,1.14.5.51-.23-1.66-2,2.6-2.82,2.48-1.53a23.55,23.55,0,0,1-.47,2.54c-.87,1.37-2.54.67-3.77-.52Zm6.13-14a3.66,3.66,0,0,1,.31-5.25c.7-.77-5.66-12.72-4.85-12.79,8-.87,16.15-.22,24.2,0,0,0-4.29,7.77-6,11.62-.69,1.55.93,3.38.26,4.53-2.07,2.28-.78,4.81-2.08,4.92a26.34,26.34,0,0,0-11.11,0c-.33,0-.28-2-.72-3Zm34.77-83c4.06,20.84-1.93,42.92-15.66,57.49-1.94-1.88-3.42-5.44-5.35-7.76-5.37-1.63-9.23.29-13,2.16a21.23,21.23,0,0,0-10.78-3l-.11-3.22c3.71-.08,7.63.27,10.94,2.33l5.17-2.12L25.28,141.48l.22-2.88,19.57,19.9,2.52.09C42.05,143.75,46.9,120.18,70.19,112.5Zm27.29,26.13,2.83,13.61S84.44,168.09,76.1,176.19l-7-.64c3.48-5.22,5.46-10.5,7.77-15.76Zm56.24,18.66c-6.64,7.5-14.58,12.27-23.4,17.52-3.52-4-7.8-8.33-10.27-12.24,7.69-4.15,15-7.36,22.56-14.61-.42.47-9.61,3.62-9.58,3.26-.33,1.54-.13,2.5-1.63,2.9-1.77-2.49-3.48-4.51-6.28-5.63a6.25,6.25,0,0,1-2.72-.67c.78-.16.43-9.73,0-9.84.85-.28,1.72-.94,2.9.37.55.37,5.85-5,7.65-6.84,7.09-.59,13.36.11,20.34-.08,0,8.52.43,17.35.43,25.86Zm-45-21.57c-.18-.36-2-14.47-.27-23.32,4.67-14.89,3.48-19,15.53-33.68.79-.78,3.56,1.74,5.63,6.1,6,3.82,13.73-1.11,13.73-1.11s3,2.46,9.77,3.81L153,90.17c0,.77-7.61-.82-9.24-2.36,0,0-5.68,1.91-5.68,2.25,0,1.49,15.12,15.58,15.12,15.58l-.09,3.3c.1,0-20.73-21.78-21-19.5C138,115,128,128,108.74,135.72Zm-25-4.49-.34-13.54,12.76.16.53,13.67ZM25.31,116.6c.34-.48-.49-25.22-.44-25.22,8.12-8.15,16.06-12.71,24-17.66,3.6,3.6,6.66,6.63,9.31,11l-11,6.82c.42,1.67-.67,2.27,6.41,8.74.12-.44,2.46-1.76,2.86.21-1,4.17.43,7.7.61,9.94-1,1.31-3.13-.09-3.13-.09-1.4-1.48-6.88,5.79-8.44,6.6-6.83-.26-20.6.21-20.22-.33Zm76.75-44c0,.09,7,0,7,.18-1.27,3.14-4.16,9.38-7.06,16.29-2.42,4-19.74,20.77-19.74,20.77-.83-4.86-2.06-9.6-3.34-14.32Zm30.11-23.32c2.51,1.08,9.56.51,10.68,0,1.44,1,.54,2.29.36,3,1.47,1.88,2.28,2.55.6,5.58-.38,0,5.15,12.55,5.29,12.56s-5.83-2.8-7.89-4.69l-4,5.41-4.68-6.1c0,.55-9,6.57-9.12,6.28-.28-.29,8.22-9.52,6.53-14.94-.4-1.31.53-2.63,1.16-3.78.44-.79-.15-2.32,1.1-3.37Zm-4.67-1.13c.38-.44-2.19-11.79.59-16.37,1.18-1.66,3.31-1.75,4.2-.38.68,1.89-1.35,4.53-1.76,5.82-1.31,3.59.64,8.33-.31,11.73-2.86,7.41-7.93-.73-2.72-.8Zm19-5c-1.51.07-.45-4.48-.21-5.78,0-.26,2.76-.91,3.76.88C151.69,40.88,149.75,44.25,146.53,43.11Zm-18-22.91-14.2,17.42C100,36,85.6,34.9,70.92,37.16L59.12,20.54Z"/><path id="path3874-3-1-4" class="cls-4" d="M23.69,19.13V230.32h131.2V19.13Zm104.73,1.09h0c-5.59,6.51-10.49,14-16.11,19.66a89.1,89.1,0,0,0,4,9.89c2.27,4.75,8,13.46,4.42,20.43-.35.6-.67.89-1.11.89-.61,0-.59-.37-.23-1.07a15.15,15.15,0,0,0,1-7.12,27.67,27.67,0,0,0-2.17-6c-6-11.14-7.84-17.08-7.5-17.08a7.19,7.19,0,0,0-1-.37c2.07,7,5.44,13,8.1,18.44C120,63,120.2,65,119.06,68.68c-.44,1.43-1.24,2.35-2,2.35-.59,0-.56-.13-.15-.85,2.09-3.8,1.61-7.94-1-12.76-3.78-8-6-13-7.39-18.09l-.92-.28c1.12,5.31,4.25,11.44,7.16,17.71,2.41,4.83,3.11,8.35,2.24,11.13-.29,1.2-1.2,3-2.35,3-.44,0-.51-.24-.09-.86,1.79-3.09,2.1-6-1.09-12.44-2.94-6-5.89-12.65-6.9-18.48,0-.32-1-.2-1.06-.25,1.57,6.89,4.71,14,8,20.83,1.88,4.27,2.07,7,.67,9.39-.79,1.34-1,1.64-1.58,1.66s-.69,0-.31-.77c1.71-3.6,1.43-6.76-.85-11.95-3.12-7.12-5.75-13-6.88-19.28-.2-.06-1.26-.47-1.11-.16a103.51,103.51,0,0,0,6.14,17.11,57.68,57.68,0,0,1,2.83,7.62c.89,3.61-1.12,8.56-3.75,8.81-1,.09-.86-.4.23-1.43,1.88-1.76,2.25-4.58,1.61-7.85a41.83,41.83,0,0,0-2.44-8c-2.29-5.55-4.79-11.36-5.58-16.49.16,0-.91-.08-.73,0A59.08,59.08,0,0,0,105.19,50c1.62,4.17,4,8.84,4.83,14,.65,4.19-1.94,8.14-5.08,8.38-3.78.28-4.52-3.5-3.61-5.27,1.48-2.64,5.79-1.13,4.51,1.57a1.49,1.49,0,0,1-2.9-.56c0-.15.22-.62.18-.65s-.41.26-.52.45c-.76,1.39,1.54,3.24,3.13,2.13,5.35-2.93,1.74-11.86-.59-17.32a56.53,56.53,0,0,1-4.63-14.38c-.2-.14-1.08-.37-1-.2.65,2.51,1,4.63,1.59,6.74,1,3.31,2.83,7,4.3,10.72s2.7,6.76,2.08,10.56a2,2,0,0,1-.43,1c-.24.26-.44.22-.51-.75,0-.13-.2-.31-.22-.47a12,12,0,0,0-.33-4.2,20.44,20.44,0,0,0-2.17-4.46c-.49-.82-1.79-3.31-1.34-1.59a24.18,24.18,0,0,0,2.08,4.71,9.59,9.59,0,0,1,1,4.14c-.19.5-.62.53-.83.36s-.18-.87-.23-1.31a13.69,13.69,0,0,0-3.29-6.19c-.91-1,2.15,4.37,2.37,5.81.1.61.28,1.1.08,1.4s-.41.2-.68.13-.25-.25-.52-1.18a9.29,9.29,0,0,0-2.26-3.81c-.41-.49-.68.12,0,.92A9.23,9.23,0,0,1,102,64.88c-.59.84-.88.68-2.11-1.46-.82-1.41-1.3-1.77-1.52-1.76-.54,0,0,.7,1.49,3.11.78,1.29.8,2.09-.09,2.08a9.46,9.46,0,0,1-2.42-2.7c-.35-.68-.79-1.19-.79-.37a10.76,10.76,0,0,0,1.77,2.91c1.13,1.32,1.46,1.59,1.6,2.18.07.28.21.77.3,1.09.29,1,.15,1.22-.44.72-.27-.71-.48-.78-1.21-1.33a11.68,11.68,0,0,1-2-2.48c-.21-.32-.4-.72-.61-1.05-.55-1-1.28-1.12-.75-.08a14.71,14.71,0,0,0,1.08,1.88c.71,1,.56,1.56-.28,1.55-.36,0-1.38-1.34-2-2.39-.41-.68-1-1.17-1-.49a7.57,7.57,0,0,0,1.26,2.31c.81,1,.92,1.56.13,1.56-.54,0-1-.52-1.69-1.58s-1.06-1.36-1.24-1.24.94,2.13,1.9,3.22.24,1.61-.81.7a11.75,11.75,0,0,1-2-2.68c-.57-1.26-.94-.91-.57.08a9.07,9.07,0,0,0,1.8,3.08c.4.41,1.22.73,1.62,1.08,1.14,1,1.86,1.92,1.77,2.08-3.25.19-5.91-3.32-6.64-5.44-.52-1.39-1.11-1.6-.55.37,1.58,4.89,6.52,7.44,9.93,5.24,2.06-1.32.24-4.77-1.44-3.66-.46.31-.48,1.16.1.7,1.1-.86,2.2,1.27,1,1.89-1.68.89-3.54-.84-2.4-2.94s5.66-.91,4.77,2.56a6.18,6.18,0,0,1-4.9,3.54c-3.74.07-6.33-2.82-7.77-5.69-.18-.37-.51-1.09-.79-1.68a7.21,7.21,0,0,0-.44-.89c.42,3.48,3.7,7.78,6.65,8.49,4.89,1.16,6.22-1.78,9.42-4.83,0,0,2.34.31,2.43.26a28.48,28.48,0,0,1,4.67-.21,106.62,106.62,0,0,0-1.12,99.06c1,2.11,1.17,1.71-.48,1.28s-3.24.24-4.63-.08c-2.86-.59-3.47,1.38-5.67,2.44-2.74,1.05-2.12,3-2.78,4.83-.2.29-.35.53-.24.49a1.73,1.73,0,0,0,.81-1.09,4.46,4.46,0,0,1,1-2.7c.47-.46.8-.7.91-.5a1.73,1.73,0,0,1-.21,1.16c-.67,1.27.22,5.52.27,2.49a7.59,7.59,0,0,1,3.5-6.17c1.61-.8,2.11-.71.8.51a8.71,8.71,0,0,0-2.57,5.81c0,1,.36,1.77.5.91-.06-4.44,4.32-9.38,9-6.92.23.17.43.49.36.67-4.55-.77-8.52,1.74-7.93,7.69a20.13,20.13,0,0,0,.63-2.33c.72-3.64,4.8-5.24,7.67-4.24.53.23,1,1,.88,1.1-3.5-1.11-7.34,2.23-7.56,5.86-.08,1.17,0,2.19.55.06,2.26-8.05,9.23-4.4,8.38-3.74-5.4-.65-7.36,3-7.23,7.26.08.39.27.52.44.88a13.28,13.28,0,0,1,1.1,5.87c-.06.75.56,5.51-.06,5.31-2-.74-3.45-1.6-6.85-.06-.3,0-.4-.15-.3-.42a10.07,10.07,0,0,1,1.6-2.12,6.35,6.35,0,0,0,1.17-1.52,12.16,12.16,0,0,0-2,1.43c-.37.34-.58.48-.67.4s.15-1.22.85-3.52c.42-1.39.16-1.56-1.66-2.5a8.74,8.74,0,0,0-2.47-.75,6,6,0,0,0,.89.65,13.19,13.19,0,0,0,2,1.08c.83.46.73.65.12,2.66-1.19,3.9-1.61,5.32-1.54,8,.15,6.38,6.17,5.75,9.6,4.31l.14,4.21,12.91,18.36L50.17,229c-.12.06,14.92-17,16.85-20,.08,0-1.62-5.17-2.52-7.43-4.22-10.67-9.77-15.15-6.55-22.15.69-1.39.81-1.86,1.34-1.86.71,0,.94.48.14,1.84-3.45,5.85,3.9,15.93,6.39,22.36a76,76,0,0,1,2.32,7.33l.88.16c-.91-3.27-2-6.81-2.57-8.09-2-4.75-4-8-6-12.63-1.07-2.93-1.64-6.32,0-9.36.6-1.11.77-1.72,1.17-1.78s.55.12.57.41a3.28,3.28,0,0,1-.62,1.59c-2.9,5,2.26,13.05,4.81,18.8a45.14,45.14,0,0,1,3.67,11.23v0l.91.16c-1.14-6.54-4.34-12.89-7.14-19-2.43-4.84-3.35-9.07-.1-13.05.28-.28.89-.23.93.18a5,5,0,0,1-.69,1.86c-2.86,6,1.57,10.95,3.64,16.72,2,4.66,3.79,8.62,4.59,13.52l1,.18c-1.49-7.23-4.67-13.73-7.44-20-1.28-2.73-1.73-4-1.82-5.87-.12-2.51,1.13-5.69,2.26-6.53.29-.22.47-.26.73-.11s.3.33-.43,1.71a10,10,0,0,0-.21,8.71c2.2,4.8,4.06,8.74,5.37,12.27a42.1,42.1,0,0,1,2.55,10l.87.15a.31.31,0,0,0,0-.13,55.11,55.11,0,0,0-3.49-12.34C70.23,194.36,68.47,191,67,187.5a8.87,8.87,0,0,1,3.27-11l1.64,0c-.1,0-3.74,1.42-3.93,6.68-.18,5,2.16,8.09,3.86,12.33,2.06,5.1,3.9,9.57,4.36,15l1,.19a53.19,53.19,0,0,0-3-11.44c-1.62-4.57-3.22-6.59-4.72-11.39-1-3.25-.87-7.64,1.38-9.65,3.38-3.45,8.09-1,6.91,2.95-.91,2.78-4.67,2.23-4.65-.38A1.46,1.46,0,0,1,75.9,180c.15.24.26,1.33.33,1.37a3.07,3.07,0,0,0,.28-1.05,2.31,2.31,0,0,0-3.23-1.85c-1.89,1-3.11,3.17-3,6.13.13,3.14.69,5.17,3.24,10.1,3,5.75,4,12,4.58,16.15.28-.11.6,0,.71,0a48,48,0,0,0-4.61-16.46c-2.8-5.9-3.59-9.52-2.65-12.17.14-.39.27-.68.44-.7s.41.46.7,1.52a3.54,3.54,0,0,1-.09,1.23c-.25,2.42,1.44,7.46,3,9.7.46.64,1,.62.53-.51a19.29,19.29,0,0,1-2.71-9.15c0-1,1.16-.57,1.19-.05a12.33,12.33,0,0,0,1.06,5.13c1.63,2.82,2.54,2.94.87-.21-.37-.73-1.43-3.82-1-4.88.23-.22.52-.25.67,0A12,12,0,0,0,78.5,189c.61.7.7.39.39-.49-.54-1-2.2-4.39-1.43-5.15.24-.21.1-.1.77,1a12.67,12.67,0,0,0,1.9,2.6c.61.6.75.2.13-.86-1.25-2.1-2-3.86-1.52-4.3s.54-.23,1.52,1.47c.44.75,1.08,1.86,1.3,2.13s.41.33.41.11a8.27,8.27,0,0,0-2.67-4.79,11.62,11.62,0,0,1-.06-1.81c2.61,1.36,2.72,2.9,4.45,5.26.18.18.43,0,.36-.36a14.27,14.27,0,0,0-1.73-3.28c-.51-.67-.53-1.06-.1-1.26.69-.32,1.66.72,2.69,2.58.48.86,1.12,1.36,1.12.91a10.34,10.34,0,0,0-1.5-3.11c-1-1.07-.52-1.82.66-.83a5.35,5.35,0,0,1,2,2.42c.44,1,.82,1.08.82.32a6.56,6.56,0,0,0-2.38-3.53c-.75-.45-1.17-1-1-1.28.65-1,3.28,1.49,4.18,3.78.27.68.73,1,.85.73s-.34-1.8-.88-2.57c-.91-1.75-3-3.43-4.31-3.23-.24,0-.91-1.39-.91-1.39,3.22-.53,6.36,3.37,6.92,4.83,1,2.77,1.59,2.44.67,0-1.81-4.75-7.43-7.41-10.54-5.11-1.78,1.31-.72,4.43,1.11,3.9.72-.27,1.43-1,.15-.77a1.27,1.27,0,0,1-.42-2.48c2.32-.7,2.86,3,1,3.88a2.54,2.54,0,0,1-3.71-2.58c.34-4.09,5.32-5.27,10.23-2,1.38.93,3.08,4,3.67,5.88.19.63.84.85.92.77s-1.36-3.56-1.87-4.41c-2.14-5-9.88-5.19-9.88-4.94a28.62,28.62,0,0,0-5.72,5.1l-6.91-.64C87,147.22,88.41,105.25,70.15,75.4c.23.15,3.47,1,4.59.11a1.92,1.92,0,0,1,2-.2,3.1,3.1,0,0,0,3.22-1c.84-.78.86-1,1.4-.95,1.61.21,2.67-.73,3-3.07.13-.91.22-1.87.09-1.73A8.93,8.93,0,0,0,84,70a3.7,3.7,0,0,1-1.15,2.32c-.88.73-1.38.32-1-.8A4.89,4.89,0,0,0,82,68.05c-.08-.15-.1.42-.22.88-1,3.66-2,5.52-3.68,5.95-.81.2-1.18.07-.92-.4,3.05-3.27,2.84-6.9,2.61-6.59C79.17,70,78,73.12,76,74.4a5.53,5.53,0,0,1-5.59.29c-.79-.53.4-.69,2.19-.71,3,0,5.81-4.09,5.35-7.51-.11-.63-.28,0-.53,1.08-1.11,3.7-3,6.3-7.36,5.53a2,2,0,0,1-.75-.42c-.71-.5-.44-.84,1-.65,3.14.41,5.88-2.56,5.86-6.15,0-1.73-.25-1.71-.52-.43-.38,1.82-1.78,7.37-6.86,5.56-.92-.5-1.42-1.14-1.1-1.24,3,.6,5.69,0,6.74-4A8.28,8.28,0,0,0,74.28,61c-.15-.94-.46-1.66-.57-2.62a54.28,54.28,0,0,1-.57-8.21c.25-.24.29-.19,1.14.38,1.68,1.13,2.94.87,4.65.2,2.19-.8,2-.65-.3,2a4.9,4.9,0,0,0-1.17,1.81,5.23,5.23,0,0,0,1.48-1.24c1.14-1.45,1.38-1.78,1.61-1.78a19.26,19.26,0,0,1-.77,4.74c-.38,1.42-.38,1.75.52,2.11.39.16,1.13.47,1.55.67a4.25,4.25,0,0,0,1.58.37,5.89,5.89,0,0,0-1.37-1c-2-1.15-2-1.1-1.46-3A47.87,47.87,0,0,0,82,49c.9-5.49-3.2-8.51-8.65-6.59-.31.16-.67-2.88-.62-3.69C68.17,34,63,26.63,59.3,20.6c23.92.06,47.48-.44,69.12-.38Zm1,.49h23.74V71.17l-2.35,0A67.82,67.82,0,0,1,144.6,58c0-.19.05-.35.28-.62a4,4,0,0,0-.18-4.73c-.31-.38-.47-.25-.46-1.16a3.7,3.7,0,0,0-.12-1.69c-.34-.67-.57-.72-.08-1.46a12.62,12.62,0,0,0,1.48-3c.47-1.6.14-1.9,1.18-1.52a3.54,3.54,0,0,0,4.71-3.68,3.73,3.73,0,0,0-4.53-3.61c-.55.14-.66.09-1.51-.44a5.75,5.75,0,0,0-.93-.61c-.4-.15-.72-.14-.89-.42A3,3,0,0,0,141,33.62a5.11,5.11,0,0,1-2-.38c-.43-.22-1.62,0-3.15-.27a5.82,5.82,0,0,0-1.55.17c-.93,0-.55-.11-.73-.82-1.17-3.75-4.6-3.31-6.17-.49a13,13,0,0,0-1.21,4.3H117Zm-71.46.11c3.44,4.43,6.74,9.4,10.22,13.92,4.28,5.48,4.42,6.1,3.27,11.62-.64,3.11-.92,3.83-2.22,3.6a2.16,2.16,0,0,0-2.42,2c-.31,2.3,1.89,3.72,4.1,2.57,1.17-.61,1.21-.68.82,1.34-.56,2.88-1.67,5.36-2.39,5.28-1.86-4-6.37-1.15-4.87,3-.47.72.14,1.63.38,2.39a12.77,12.77,0,0,1-2.57.95C49.58,71.24,34.13,81.12,25.56,90.39V21Zm72.84,9.49c2-.1,2.34,3.15.58,5.55-1.6,3.67-1.17,6.56-.8,10.42,0,2.23-.76,4.36-1.95,5.28A2.12,2.12,0,0,1,125.28,49c.51-1,1.6-.42,1.86-1.37.42-5.53-1.66-10.51.64-15.44C129,30.9,130,30.35,130.76,30.31Zm5.35,3.58h0a.61.61,0,0,1,.24.07c1.09.52,1.67,3.44.65,5.22-.21,0-1.8,0-1.81.06a9.7,9.7,0,0,1,.2-1.73,3.37,3.37,0,0,0,0-1.64c-.42-1.49-.69-1.82.45-2Zm2.47,0a1.28,1.28,0,0,1,.49.13c1.06.48,1.58,2.83,1.21,5.32-.06.41-.09.84-.24.93a6.37,6.37,0,0,0-2.12.4A2.88,2.88,0,0,1,138,39a6.23,6.23,0,0,0,0-3.63c-.29-1.16-.31-1.39.33-1.45l.19,0Zm-5.33.06c1.25-.06.78,1.94.35,2.31s-1.17.38-1.25-.08A5.19,5.19,0,0,1,133,34a.93.93,0,0,1,.27,0Zm8.22.67a1.54,1.54,0,0,1,.3,0c1.46.25,1.55,4.33.95,5.66-.14.19-.69.15-.89.22-1.24.36-1,.55-.82-1.45a13.52,13.52,0,0,0-.08-3.57c-.09-.49-.14-.84.22-.87a1.73,1.73,0,0,1,.32,0Zm-7,1.63c.58.81.11,2.67-.33,3.36s-.71.83-.44,1.16a1.66,1.66,0,0,1,.22,1.17c-.28.56.43.66,1.08,1,1,.56,1.56,1.59,2.35,3.46.27.65.84.44.56-.26s-.32-1.48-.48-2.07,0-.91.71-.73c1,.26.89,0,1.27-.13.83-.46,1.39.2.89.56a6.43,6.43,0,0,1-1.59.53c-.58.16-.44.72.14.72a17.46,17.46,0,0,0,3.09-.75c2.88-.88,3-1.35,2.71.31a5.06,5.06,0,0,1-3.5,4.4,17.57,17.57,0,0,1-7.39-.17c-1.66-.77-1.77-1.3-2.28-2.78-.69-2-1.09-5.47-.3-7.47.7-1.68.63-1.51,1.3-1.42a1.44,1.44,0,0,0,1.57-.39c.09-.18.32-.5.42-.5Zm10.11.17c.45,0,.9.51,1,1.24A5.72,5.72,0,0,1,145.4,40c-.18.33-1.4.31-1.79.32a8.83,8.83,0,0,0,.25-3.39A.81.81,0,0,1,144.6,36.43Zm3.18.53a3.29,3.29,0,0,1,3,3.55c-.18,3.53-5.71,3.23-5.07.89.57-1.24.17-2.79.33-3.92A2.75,2.75,0,0,1,147.78,37Zm-31.51,0h3v.68h-3.48Zm9.92.09V38H122v5.74h4.72l.12,1.19-6.44,0,0-7.82Zm-11.31,1.59h4.35v.94h-5Zm9.56.73,1.47,1.46-1.47,1.47L123,40.85Zm11.84.59c.79.09.86,1.31.54,1.67a.88.88,0,0,1-1.42-.4A1,1,0,0,1,136.28,40Zm-22.59.55h5.54v.81h-5.59l-.15-.49Zm30.57.32c.75,0,1.21.62.74,1.16C144.29,42.81,142.85,41.59,144.26,40.85ZM91.47,41a8.13,8.13,0,0,0-5.07,1.57c-1.22,1-.24,2.06,1.37,1.07,3.47-2.11,8.6-.44,11.93,1.33.66.34.75-.45.1-1A13.18,13.18,0,0,0,91.47,41Zm47.54.12c.85,0,.84,1.08.3,1.46a1,1,0,0,1-1,0c-.49-.2-.12-1.49.71-1.49Zm3,0c1,0,.89,2.09-.63,1.36A.78.78,0,0,1,142,41.09ZM114,42.19h5.28V43H114.3ZM76.64,43.32a5.88,5.88,0,0,1,3.21.87c1.44,1.16,1,1.23-1.39.38a7.24,7.24,0,0,0-4.1.26c-1.16.47-1.42.33-.92-.45a4.23,4.23,0,0,1,3.2-1.06Zm15.61.37a6.77,6.77,0,0,0-5.46,2.42c-.15.36-.64-.29-1.31-.16-1,.18-.68.22.33,1.39s1.34,1.43,1.27,1.88c-.09.66.1,1,.74,1,.32,0,.69.33,1.16.77a16.74,16.74,0,0,0,3,2.51,3.1,3.1,0,0,0,1.38.32,9.82,9.82,0,0,0-1.57-1.42c-1.6-1.12-2.48-2-2.34-2.22s.34-.1.85.09a8.29,8.29,0,0,0,5.94-.58c.68-.41,1.1-1,2.06-.74,1.34.44,1.86-.36,1.48-.81-.61-.4-2-.87-3.32-1.77a8.17,8.17,0,0,0-7.77-.24c-1.17.68-1.58.2-.43-.48C92.64,43.21,96.15,45.24,99,47a4.38,4.38,0,0,0,1.18.6,14.2,14.2,0,0,0-1.79-1.76,12.93,12.93,0,0,0-6.13-2.17Zm22.39.21h4.59v.9H115ZM77.33,45.06c1.27,0,4,1.15,4,2.11-.06.36-.75,0-1.35-.34a6.77,6.77,0,0,0-4.62-.59c-1.29.24-1.7.46-1.89.3-.44-1,2.69-1.47,3.87-1.48Zm38.06.69h11.53a6.24,6.24,0,0,1,0,1.64c-2.49.18-3,3-1.41,4.55,1.31,1.28,3.48.77,4.56-1a11.39,11.39,0,0,0,1.13-3l.41.69c-1,1.28-1.16,2.07-1,2.68.17.86-.07,1.08-.64,1.82a3.64,3.64,0,0,0-.46,3.82c.15.31.48.75.43,1,.32,0-2.83,8.92-7.43,13.41-.76.52-1.32-.09-.93-.92,3.75-8.68-3.41-16.83-6.19-24.58Zm-21.74,1.5c.21,0,.43,0,.65,0-.53,4-4.35,3.35-4.5.1l.55,0c.68,2.67,3.06,2.22,3.3-.13Zm-21.6.07a2,2,0,0,1,.27.7c0,.93,0,2.27,0,2.68-.22,3.85-5,4.56-4.66,1.27a1.26,1.26,0,0,1,2.45-.29c.62,1.59.74-.38.74-1A17.4,17.4,0,0,0,72,47.32Zm23.18.28a1.4,1.4,0,0,1,.83.48c.31.34.2.52-.54.9s-1.17.38-.88-.46c.18-.53.33-.93.59-.92Zm-6.16.32c.47,0,.49,1,.41,1.23s-.25.16-.67-.2-.44-.66,0-1a.7.7,0,0,1,.23-.08Zm-14.15.18c.8,2.58,2.44,2.25,3.17.13h.7c-.15,3.31-4.29,3.25-4.33.05Zm-1.42.3c.16,0,.07.37.09.43a3.14,3.14,0,0,1,0,.41s-.67-.34-.28-.73a.5.5,0,0,1,.24-.11Zm6,.24a.81.81,0,0,1,.42.18c.4.27.33.43-.13.81-.71.6-1,.27-.64-.53C79.33,48.8,79.43,48.65,79.54,48.64Zm63.09.75c.8,0,1.34,1.42.9,2.48-.21.51-.17.57.47,1.24a3.44,3.44,0,0,1,.36,3.91c-.5,1-.47.93.13,2.68a62.45,62.45,0,0,0,5.13,10.8l-2.63-1s-11.91,10.38-20.3,10.77l3,4.81a14.28,14.28,0,0,0,13.73-1.34c-.11.4,5.32,3.09,9.78,3.38l0,3.24c-3.31-.38-6.66-.46-9.74-2.42,0,0-2.82,1.2-5.65,2.1l15.85,16.62v2.78S147,103,140,95.82l.15,35.5,13.71.13s-.25,15.25-.16,25.83a90.61,90.61,0,0,1-23.64,17.54,69.16,69.16,0,0,1-9.92-12.32c.4-.43.16-.44-.43-.69-1.72-2.59-5.7-9.76-5.07-9.93,1.22.09,6.87-.62,8-4-.14-2.59.81-5.61,0-8-1.21-3.24,2.44-2.2,2.56-2V125.59c-4.75,3.86-9.54,7.66-15.9,9.25-4-20.19,2.12-45.42,20.18-62.45h-1c-18.35,19.25-23.16,40.46-20,62.76,0,0,.11.69.13.93,0,.55-.09.77-.57,1.17s-.89.64-.85,1l.11.61-.34.15a2.47,2.47,0,0,0-1.37.12l.22-.56-1.39.67-.85-.95-.81,1.2-1.7-.16a30.63,30.63,0,0,1,2,3.1c0,.1-.28.56-.3.66a1.64,1.64,0,0,0,1.16,2c-.07,0-.76,2.74,1.19,2.66a19.71,19.71,0,0,1,2.18.32,1.06,1.06,0,0,1-.31,1.06l-1.35-.69-.35,1.63-1.8-.13,4.38,5.48.51-4.27,5.11.65c.82,2.16,6,14.14,15.87,23.08-.11.29-6.8,3.09-6.8,3.09l-1.05-3.33-.85,1.24-1.51-.39-.18,1.39-1.35.44L120,179l-6.15,1.78c-17.23-28.18-25-67-3.53-108.42l5.42.07-1.06,1.83,1.54-.25.44,1.34,1.13-.54,1.14,1.44,1.3-3.82s3.6.07,4.08,0,8.35-6.65,8.19-6.9-8.43,6-8.71,5.74c0,0-.84.2-.19-.58a30.48,30.48,0,0,0,3.18-4.53c1.36-2.65,4.33-7.92,3.21-9-1.13-3.06,1-3.61,1.28-5.15a2.3,2.3,0,0,1,.45-2.43c3,.09,7.1.95,10.75-.14l.16,0ZM87.15,54.7c-.43-.05-.87.33-.48.49h0c3.4,1.42.67,4.55-1.86,1.82-1.32-1.44-2.37-1.35-3.09-.3-.33.47.15,1.3.57,1s.79-.53,1.35,0c4.31,4,7.4-1.61,3.69-3a.41.41,0,0,0-.18,0Zm-14.5.36a.28.28,0,0,1,.12,0,4.53,4.53,0,0,1,0,2.11c-.54,3-2.66,10.06-7,6.62C64,62.47,65.6,59,67.67,60.21c1.62.91.53,3.08-1.23,1.83-.85-.6-.58.64.14,1,1.22.65,3.43-.46,4.46-2.43a19.35,19.35,0,0,0,1.24-4.18c.21-1,.23-1.36.37-1.37ZM73,60.3c.36,2.18-1.28,6-3.62,6.58-1.79.43-4-.75-3.84-1.84,0-.32.17.1,1.79.37,2.27.38,3.71-.86,5-3.71A9.36,9.36,0,0,1,73,60.3Zm15.62.53a1.23,1.23,0,0,0-.46.36,1.28,1.28,0,0,1-1.58,0,2.44,2.44,0,0,0-2.3.09c-.38.31-.93.35-1.66-.15-.49-.34-.77-.16-1.36.11a1.5,1.5,0,0,1-1.91-.22c-.48-.36-.71-.24-.72.29a7.58,7.58,0,0,1-.22,1.33c-.24,1-.39,1.42.72.91a3.06,3.06,0,0,1,2.9-.06,4,4,0,0,0,3.83-.06c1.24-.42,1.85-.43,2.55,0,1.27.74.84.27.67-1.6-.07-.82-.24-1.06-.46-1ZM73.75,62.91c.13,0,.15.51.06,1.52-.42,3.75-3.31,5.84-6.72,4-1.5-.87-1.29-1.48.18-.94,2.34.86,4.71-.34,5.87-3.42.3-.79.5-1.19.61-1.19Zm7.62,1.75c-.65-.06-.44.42.45.81,1.1.41,3.13.7,4.36-.14.37-.58-.39-.47-.79-.37a5,5,0,0,1-3.09,0,3.73,3.73,0,0,0-.93-.26Zm-16.89,3A41.9,41.9,0,0,1,68.84,74C82.6,97.7,87,127.63,78,154.81a97.57,97.57,0,0,1-9.91,21.28l-4.71,0L65,174.27l-2.19.16-.13-1.23-1.67.54-.8-1.86-1.5,4.27-8.74,0C70.38,156,74.41,131.59,70.59,112c0,0,1.71-1.08,2-1.72.06-.15.18-.81.3-.9.47-.31.84-.62,1.15-.79a1.37,1.37,0,0,1,.49-.11s.82.63,1.26,1.06l.65-1.7,2.14.46s-.82-1-1.19-1.52l-1.09-1.55a2.22,2.22,0,0,0-.87-2.38c.12-2.22-1-2.53-3.41-3a1.51,1.51,0,0,0,.53-1L73.9,100l.5-2.09,1.9.1-5.49-5.38a42.48,42.48,0,0,1,0,4.52c-2.58-.14-5.12-1-5.15-.83A69.77,69.77,0,0,0,50,73.71l6.07-3,1.72,3.33.42-1.89,1.51.27L60,71.25,61.64,71,59.8,69.25Zm36.18,3.89c.23.3.41.32.72.59l-.62.45A3,3,0,0,0,100.66,71.58ZM60.24,72.69a1,1,0,1,0,.93,1A.95.95,0,0,0,60.24,72.69Zm5.07.15a1,1,0,1,0,.94,1A.95.95,0,0,0,65.31,72.84ZM49,73.54c3,2.53,5.78,5.83,9.13,11l-.07.69,1,.39s5.58,7.44,5.29,10.75c-1.92.41-3.67-.12-7.09,3.13-1.62-.88-2.58-.6-4.25-.11a1.19,1.19,0,0,0,.61,1,2.15,2.15,0,0,1,3-.38c-.23.1-.84,7.49.34,9.07.88,2.51-1.44,2-3.06,1.41l.47,11.75c5.3-6.14,16.51-10.23,15.72-9.79,5.62,30.12-7.75,50.22-21.75,64.95l7.34,0s-6.33,10.29-6.8,13.13c.36.94,1.35,2.9-.33,4.28-.56.63-.62,3.49-.62,3.49-3.86.14-7.2-1.22-11.65.36-.46.16-.56-2.45-.59-2.93-2.48-2.23-.21-6.07.13-5.78a90.69,90.69,0,0,0-6-13.11l-3.91-.22c-.31-.26-.51-7.22-.2-7.39,11,.88,28.2-.13,28.2-.13l-4.61-6.54c-5.69-2.25-13.5,1.59-13.13,1.8,0,0-6.24-3.47-10.59-3l.14-3.42a20.07,20.07,0,0,1,10.53,2.57l5.28-2L25.29,141.36l.18-2.84c5.28,4.95,13.93,14.53,13.93,14.53l0-36.15-13.92,0c-.17-9-.73-16.79-.61-25.43C31.62,84.77,49,73.54,49,73.54Zm11.9,1,1.62,7.21,1.09-1.37,1.67.53.11-1.66,1.53-.53Zm55.31,1.2a1,1,0,1,0,.94,1A.95.95,0,0,0,116.19,75.75Zm-4.38.59a1,1,0,1,0,.94,1A.94.94,0,0,0,111.81,76.34Zm-53.63.84a1,1,0,1,0,.93.95A.95.95,0,0,0,58.18,77.18Zm57,.58L108.66,84l1.82-.07.33,1.81,1.63-.76,1.33,1.24Zm2.77,2.08a1,1,0,1,0,.94,1A.95.95,0,0,0,117.94,79.84ZM66.16,81.06a1,1,0,1,0,.94,1A.95.95,0,0,0,66.16,81.06Zm4,.8a.95.95,0,0,0,0,1.89.95.95,0,0,0,0-1.89Zm-3.68,1.41c.18,2.53.48,5.54.54,8.08l1.24-1.23,1.42.59.51-1.56,1.55-.08Zm40.09,2.11a1,1,0,1,0,.94,1A.95.95,0,0,0,106.62,85.38Zm-42.77.17a1,1,0,0,0,0,1.9,1,1,0,0,0,0-1.9Zm46.48.23a.94.94,0,0,0-.93,1,.94.94,0,1,0,1.87,0A.94.94,0,0,0,110.33,85.78Zm-.55,2-5.4,5.63,1.77.16.56,1.6,1.13-1,1.37,1Zm3,1.21a.95.95,0,1,0,.94.94A.94.94,0,0,0,112.74,89ZM70.19,90.79a1,1,0,0,0,0,1.9,1,1,0,0,0,0-1.9Zm-23.06.77-1.37,1.06A4.18,4.18,0,0,1,47.52,94,22.15,22.15,0,0,1,47.13,91.56Zm27.48.64a.95.95,0,1,0,.94,1A.93.93,0,0,0,74.61,92.2Zm-6.7,1.35a1,1,0,1,0,.93,1A.94.94,0,0,0,67.91,93.55Zm38.65,1.91a1,1,0,1,0,.94,1A.95.95,0,0,0,106.56,95.46Zm-3.69,1.39a1,1,0,1,0,.93,1A.95.95,0,0,0,102.87,96.85Zm37.69.24,1.95,2.14v31.34l-1.9,0Zm-75.68.22h0c1.58,0,3.35.23,3.91,1.21.87,1.09-1,.67-2.55.91s-.61.48,1.43.6c2.82.17,3.92.24,4.34.9a4.93,4.93,0,0,1,.12,1.68l-3.2-.15a17.92,17.92,0,0,0-3.12.1c-.39.1-.28.42-.14.56a25.43,25.43,0,0,0,2.82.12c4,.11,4.88.25,5.17,1.55s-.75,1-4.86.56a5.77,5.77,0,0,0-3.07.42c-.46.22,1.3.44,1.87.35a29.77,29.77,0,0,1,4,.41c.82.13.1.1-.32.61-.27.41-.18.89-.61,1.13s-1.56.28-3.42.28c-2.13,0-3.12.52-.2.65,1.89.08,2,0,2.15.6.43,1.36-.48,1.6-2.4,1.91a16,16,0,0,1-3.32,0c-4.08-.3-5.49-1.28-6-3.1-2-6.79.48-10.94,6.42-11.27q.49,0,1,0Zm41.17.3-4.6,6.79,1.77-.7.85,1.84,1.42-1,1.41.88Zm-35.63.22a1.84,1.84,0,0,1,1.21.61c.24.29.14.51-.26.73a1.63,1.63,0,0,1-1.27-.11c-.5-.22-.55-1.12-.14-1.21a1.4,1.4,0,0,1,.46,0Zm-32.1.26-2.12,2.33s1.95-.7,3-1.12Zm70.6,1a1,1,0,1,0,.94,1A.95.95,0,0,0,108.92,99.13Zm34.25.82s2.34,2.35,3.3,3.33h-.87l0,1.85,2.77,0,1.52,1.51-4.23,0v1.89h5.24l0-.81,2.07,1.9.25,21h-2.29v-.29h-5.28c0,.71,0,.27,0,.27h-2.42C143.21,120.4,143.22,110.17,143.17,100ZM74,101.08a1.08,1.08,0,0,1,.46.15c.31.17.31.57.14,1s-.46.46-1,.23c-.81-.33-.7-1.24-.08-1.34a1.39,1.39,0,0,1,.49,0Zm3.75,1.55a.95.95,0,1,0,.93,1A.94.94,0,0,0,77.79,102.63Zm-3.3.73a1.57,1.57,0,0,1,.94.41c.51.53.33,1-.24,1.32s-1.1-.12-1.28-.9A.6.6,0,0,1,74.49,103.36Zm29.37,2.48a1,1,0,1,0,.94,1A.95.95,0,0,0,103.86,105.84ZM72.94,107a.79.79,0,0,1,.63,1.31.9.9,0,1,1-.63-1.31Zm27.57.38a1,1,0,1,0,.94,1A.94.94,0,0,0,100.51,107.38Zm3.32.63-4.18,7.12,1.69-.68,1,1.38,1.06-.94,1.6.79ZM71,109.2c.74,0,1,.6.41,1.15a.83.83,0,0,1-1.22,0C69.53,109.87,70,109.2,71,109.2Zm35.79.09a1,1,0,1,0,.93.95A.94.94,0,0,0,106.77,109.29ZM76.28,110a.9.9,0,0,0-.89.94.94.94,0,1,0,1.87,0A1,1,0,0,0,76.28,110Zm69.37.21v2h5.28v-2ZM76.35,112l-2,7.48,1.69-1,1.06,1.09,1-1.22,1.76.47Zm3.6.81a.95.95,0,1,0,.93,1A.94.94,0,0,0,80,112.85Zm-6.59.38a1,1,0,1,0,.93,1A.94.94,0,0,0,73.36,113.23Zm72.29.59v1.81h5.28v-1.8Zm-43.42,2.36a1,1,0,1,0,.94.95A.95.95,0,0,0,102.23,116.18Zm43.42,1v2h5.28v-2Zm-108.79.24,1.85,0,0,33.94-1.81-1.93Zm-.77.07-.1,31-3.51-3.75h.93v-2.12l-3,0-1.3-1.28h4.34v-2.08l-5.15,0v1.26l-2.53-2.74,0-20.26,2.5,0v.22l5.17,0v-.29Zm66.28,1-2.82,7.38,1.77-1,.92.91,1-.87,1.61.8Zm-74.1.35v2h5.17v-2Zm77.29.4a1,1,0,1,0,.93,1A.95.95,0,0,0,105.56,119.2Zm-6.37.11a.95.95,0,1,0,.94.94A.94.94,0,0,0,99.19,119.31Zm-22,.35a1,1,0,0,0,0,1.9,1,1,0,0,0,0-1.9Zm68.48.77v2.08h5.28v-2.08ZM77.06,121.6l-.78,1.23-1.8-.62,2.45,7.49L80,121.89l-1.76,1Zm-48.79.55v2h5.17v-2Zm117.38,1.77V126h5.28v-2.07ZM28.27,125.65v2h5.17v-2Zm74,.38a1,1,0,1,0,.94,1A.94.94,0,0,0,102.3,126Zm-28.17,1a1,1,0,1,0,.94,1A.94.94,0,0,0,74.13,127Zm6,.18a1,1,0,1,0,.94,1A.94.94,0,0,0,80.14,127.2Zm65.51.13v1.87h5.28v-1.87Zm-43.36.87-1.12,1.19-1.6-.46,3.64,6.89,1.84-7.41-1.61,1Zm-74,.7v2.25h5.17V128.9Zm48.82,1a1,1,0,1,0,.94,1A.95.95,0,0,0,77.09,129.92Zm-.06,2c-.4.29-.57.8-1,1.06l-1.71-.74,1,9.38,4.75-8.86-2.17.37Zm-48.76.31v2.35h5.17v-2.35ZM106,133.28a1,1,0,0,0,0,1.9,1,1,0,0,0,0-1.9Zm-6.07.11a1,1,0,1,0,.94,1A.94.94,0,0,0,99.89,133.39Zm-71.62,2.2v2.35h5.17v-2.35Zm75,.53a1,1,0,1,0,.94.95A.94.94,0,0,0,103.28,136.12Zm12.53.14a19.36,19.36,0,0,1,3.51.3c2.61.45,3,2.71,3,7.1s-1.3,6.29-4.55,7.16a22.15,22.15,0,0,1-6.86-.38c0-.39-.64-1.29-.78-2a18.8,18.8,0,0,1,3.24.24c1.55.15,2-.11,1.46-.42-2.92-.69-4.91-.51-7.71-1.05a4.39,4.39,0,0,0-.72-1.84c.15-.06,4.33.39,6.53.32,1,0,.38-.5,0-.58-2.57-.38-4.24-.32-7-.66a2.64,2.64,0,0,0-.72-1.89s1.38,0,4.2,0c1.49,0,2.79.08,3.44.06,1.1,0,1-.52,0-.59-1.16-.13-5.71-.16-5.71-.16a4,4,0,0,0,.61-2.24s1.18,0,1.93,0c3.64-.14,4.27-.08,4.34-.22.48-.45-.82-.62-2.16-.62-.58,0-1.43.14-1.42-.19a3.44,3.44,0,0,0-.31-1.52,19.56,19.56,0,0,1,5.57-.87Zm-42.65,1.09a1,1,0,1,0,1,1A1,1,0,0,0,73.16,137.35Zm35.89.2c.62,0,.82,1.14.24,1.31-.9.27-1.38.06-1.35-.48C108,138.08,108.65,137.55,109.05,137.55Zm-29.75,1a1,1,0,1,0,.94,1A.94.94,0,0,0,79.3,138.54Zm26.75,1.07c2.13,0,1,2.91-.61,1.85C104.63,140.94,105.2,139.61,106.05,139.61ZM72.43,142s-.06,0-.06.15l.49,8.91L78,142.68l-2,.77-.88-1.34L74,143c-.45.36-1.3-1-1.54-1Zm31.65.91c1,.14,1.59,1.1.93,1.57C103.52,145.09,102.72,142.93,104.08,142.86Zm-2.29,2a1,1,0,1,0,.94,1A.94.94,0,0,0,101.79,144.82Zm3.62.8a.83.83,0,0,1,.39,1.56,1.16,1.16,0,0,1-.91,0c-1-.71-.45-1.45.52-1.53Zm-35.18,1.47a1,1,0,1,0,.94,1A.95.95,0,0,0,70.23,147.09Zm71.76,1.2-3.48,1.18v1.67c1.52-.49,2.39-1.74,3.48-2.85Zm-33.27.71a1.63,1.63,0,0,1,.64.09c.61.26.77,1.09.25,1.37a1.93,1.93,0,0,1-1.79-.18C107.3,149.42,108,149,108.72,149Zm-32.18.42a1,1,0,1,0,.94,1A.95.95,0,0,0,76.54,149.42Zm-3.85,1.65a.84.84,0,1,0,.83.84A.83.83,0,0,0,72.69,151.07Zm39.05,1.41a1,1,0,1,0,.94,1A1,1,0,0,0,111.74,152.48Zm-42.08.05,0,8.42,5.54-6.89-1.93.43-.82-1.71-1.18.78Zm35.15,1.94a1,1,0,1,0,.94,1A.95.95,0,0,0,104.81,154.47Zm27.71,0a3.29,3.29,0,0,1-.91,1.57l2.58-1.46Zm-24,1.12a1,1,0,1,0,.94,1A.94.94,0,0,0,108.56,155.63Zm3.17,1-1.13,1.63-1.48-.48-.44,1.54-1.77-.06,5.77,5.09Zm-45,.65a1,1,0,0,0,0,1.91,1,1,0,0,0,0-1.91Zm86.37,2.29V228.8H120.94l-13.51-19a25.07,25.07,0,0,1,1.15-10.27c1.32.93,4.21.43,4.11-3.17-.06-2.35-3.64-3.56-5.43-1.79.1-2.27,1-5.69,2.32-6.7.9.83,1.1,2.06,3.14,1.71a2.81,2.81,0,0,0,2-3.79,5.26,5.26,0,0,1-.25-1.47,9.24,9.24,0,0,0,0-1.49,10.62,10.62,0,0,1-.14-1.08c15-3.47,28.16-12.7,38.86-22.19Zm-79.8.28a1,1,0,1,0,.94.95A.95.95,0,0,0,73.32,159.87Zm-4.43.93a1,1,0,1,0,.94.95A.95.95,0,0,0,68.89,160.8Zm46.49.46a1,1,0,1,0,.94,1A.94.94,0,0,0,115.38,161.26Zm-49.86,1-1.46,8.87,6.39-6.63-1.73,0L68.37,163l-1.62.54ZM109,164.16a1,1,0,1,0,.94,1A.95.95,0,0,0,109,164.16Zm4.15,1a1,1,0,1,0,.94,1A.95.95,0,0,0,113.16,165.2Zm-51.62,1.16a1,1,0,1,0,.94.95A.94.94,0,0,0,61.54,166.36Zm55.36.71-1.53,1.18-1.41-.87-.33,1.88-1.2.64,5,3.58Zm3.72,2.54a1,1,0,1,0,.94.95A.95.95,0,0,0,120.62,169.61Zm-53.13.32a1,1,0,1,0,.94.95A.95.95,0,0,0,67.49,169.93Zm-4.17,1.25a1,1,0,1,0,.94.95A.94.94,0,0,0,63.32,171.18Zm54.89,2.51a1,1,0,1,0,.94,1A.95.95,0,0,0,118.21,173.69Zm-3.94.86a1,1,0,1,0,.94.95A.94.94,0,0,0,114.27,174.55ZM77.9,175.9h0a1.66,1.66,0,0,1,.14,1.42c-.15-.07-.83-.71-.66-.92s.41-.51.5-.51Zm-21.32,1.5a6.19,6.19,0,0,1,1.11.13,5.47,5.47,0,0,1-.46,1.33,11.41,11.41,0,0,0-.09,9.45c2.09,4.2,7.44,14.79,6.94,14.93H52v-1.88c3.42-.14,4-2.26,3.11-4a3,3,0,0,0-3.77-1.27c-2.19.92-2.33,2-3.11,3.72l-.35-.45a3.87,3.87,0,0,0,.82-2.71c0-.95-.08-.69.25-1.21a4.58,4.58,0,0,0,.66-4.78c-.23-1.67,5.71-12.27,7-13.24Zm-30.25.22h0c.79,0,1.62,0,2.36,0,3.47,2.8,6.47,12.22,6.29,12.36a4.13,4.13,0,0,0,0,6,5.55,5.55,0,0,0,.37,2.67c-1.25,2.64-1.47,2.84-1.58,5,0,0-.21,0-1.38,0-5.74,0-6,7.38-.27,7.79.79.05,1.06-.13,1.53.35s.91,1.21,1.73.9a1.53,1.53,0,0,1,.84.49,2.42,2.42,0,0,0,2.5,1.09,5.19,5.19,0,0,1,1.26.32,2.17,2.17,0,0,0,2.06.41,1.25,1.25,0,0,1,.91,0,2.09,2.09,0,0,0,2-.09c.77-.41.94.24.9.84a2.66,2.66,0,0,0,1.78,3.16c2.76.86,4.15-.86,4.74-4.27l.28-1.39h9.24L48.65,228.8H25.56V177.64l.77,0Zm83.15,2.43a7.09,7.09,0,0,1,2.28.4c1.68.66,1.82,1.86.14,1.34a5,5,0,0,0-6.27,3.25,3.9,3.9,0,0,1-.3.87c-.39.46-.37,0-.25-1.3A4.67,4.67,0,0,1,109.48,180.05Zm1,2.27a4.09,4.09,0,0,1,2.48.67c.63.7.44,1.17,0,1.14-2.29-1-5.19.21-6.33,3.13-.69,1.79-.82.83-.51-.56a5,5,0,0,1,4.4-4.38ZM95,183a3.75,3.75,0,0,0-2.42.66c-.91.88-.15.89,1.51.31a6.23,6.23,0,0,1,3.34.19c.83.3,1.13.42,1.08.16C98.51,183.51,96.7,183,95,183Zm16.2,1.73a2.61,2.61,0,0,1,2.41,1.2c.42,1,.15,2.69-1.31,2.87-1.73.2-2.63-2.74.53-2.22-.41-1.18-1.83-.85-2.52-.56-1.43.63-2.4,2.05-3.27,4.66-.26.78-.45,1.18-.55,1.1a4.69,4.69,0,0,1,.13-2.77c.69-2.61,2.37-4.19,4.14-4.24a2.18,2.18,0,0,1,.44,0Zm-22.34.07c-.15,0,.12.58.54,1.43a4.55,4.55,0,0,1,.39,1.2c0,.47.35.58.86.28s.69-.6,1.53-.22a2.29,2.29,0,0,0,2.3.26c.39-.23.65-.22,1.41,0s1,.28,1.7,0a2.29,2.29,0,0,1,2.11.13c.21.23.09-.09.56-1.2.22-.51.53-1.13.45-1.31s-.91,0-1.76.26a3.26,3.26,0,0,1-1.8-.17,5.44,5.44,0,0,0-4.23.18c-.66.32-2.3-.12-4-.8a.14.14,0,0,0-.1,0Zm3.69,5.09a2.17,2.17,0,0,0-2,1.26c-.41,1,.28,2.89,1.34,3.05s.9-.44.43-.6c-.72-.24-1.56-1.28-1-2.18.37-.62,1.5-.62,2.29.15,1.59,1.54,3.4,1.64,3.75.3.1-.53-.3-1.24-.92-1a3.16,3.16,0,0,1-2.52-.44,2.5,2.5,0,0,0-1.4-.49Zm16.75,4.89c4-.24,2.3,5.36,0,3.93-.84-.52-.47-2.41,1.75-2.37-2.17-1.72-3.66.37-3.13,2.72a19.94,19.94,0,0,0-.94,3.05c-.49.94-.88-1.53-.38-3.91S107.9,194.85,109.34,194.76Zm-23.7.13s.82,1,1,1.1c2.52,2,3.76,3.25,1.73,2.59-3.3-.8-4.14.15-6.65,1.27-.46.22-.59.08-1.15-.09-2.2-.66-2,.75.26,2,3.48,1.91,6.35,2.34,9,.91.71-.37,1.23-.61,1.23-.61a1.91,1.91,0,0,1-1,1.31c-2.61,1.54-5.34,1.41-9.38-1a10.34,10.34,0,0,0-2.12-1.09,4.63,4.63,0,0,0,1.8,1.64c3.3,1.9,7.52,3.39,11,.52.73-.66.88-1,1.44-.71,1.48.75,1-.56,0-1.79-.35-.44-.62-.79-.59-1.09.08-1.06-.5-1.06-1-1s-.56-.19-1.34-1.06a19.68,19.68,0,0,0-1.66-1.65,5.27,5.27,0,0,0-2.51-1.27Zm-32.85,1.59c2.4.25,3.07,3.93,0,4.16-1.4.12-1.72.18-1.38,3.09.07.55.31,2.19.38,2.8.83,7.62.15,11-1.94,11.93a2.59,2.59,0,0,1-2.05,0c-1.33-.54-1.87-2.17-.91-4.11a13,13,0,0,0,.7-1.8c.13-.47.41-1.5.63-2.28a21.87,21.87,0,0,0,.5-7.6,5.09,5.09,0,0,1,.3-3.31c1-1.88,1.67-2.85,3.81-2.87Zm49.37,1.76a1.88,1.88,0,0,1,2.1,2.23h0l-.65,0c-.79-2.67-2.44-1.81-2.71.06h-.56c0-1.56.9-2.25,1.82-2.33Zm-60.81.19c.45,0,.9,0,1.34.06h0c4.48.45,5.29,1.57,5.64,7,0,2.65-.14,4.25-.54,4.86-.67.32-1.31-.29-2.26.33-.53.32-.43.36-.65,0a5.84,5.84,0,0,1,.37-2.85c.33-1.07-.23-1.69-1.71-3a5.42,5.42,0,0,1-1.11-1.62c-.77-2.1-1.16-1.17-.52.63.32.78.39,1.17-.57.83a1.84,1.84,0,0,0-1.51.27c-1.22.32-2.28-.36-1.22-.77a10.33,10.33,0,0,1,2.17-.61c.26,0,.39,0,.39-.18,0-.52-2.37-.47-4.17.16-2.22,1-2.35.85-2.14-.76.45-3.57,3.38-4.4,6.49-4.36Zm45.1.41a2.15,2.15,0,0,1,2,2.41l-.55,0c-.25-2.12-2.23-2.21-2.76.17l-.79,0c.5-1.84,1.33-2.52,2.11-2.56Zm13.3,0c.46.27.14,1-.34,1.15-.18.05-.76-.36-.62-.61A2,2,0,0,1,99.75,198.89Zm5.13.36a.72.72,0,0,1,.78.59c0,.63-.45.5-.61.44C104.74,200,104.62,199.27,104.88,199.25Zm-15.68.5c.84.1,1.14,1.17.19,1.24C89,201.07,88.94,200,89.2,199.75Zm-5.11.12c.1,0,0,.87-.26,1-.41.26-.94,0-.92-.28,0-.64.8-.73,1.18-.72ZM98.73,202a8.22,8.22,0,0,0,5.63.51c.71-.27,1.28-.59,1.28-.29s-.56.81-1.59,1.1a5.24,5.24,0,0,1-5.07-.73C98.57,202.28,98.43,202,98.73,202Zm-.66.91c2.59,1.53,4.93,1.69,7,.57.85-.3.88,0,.88.53C102.19,207.39,97.45,203.88,98.07,202.91ZM32,204.05a3.68,3.68,0,0,1,2.5,1.2c-.64,1.31-1,4.55-2,5.51C26.6,210.42,28.55,204,32,204.05Zm47.3,0a.81.81,0,0,0-.48.12c-.32.26,0,1.22.65,1.49,5.48,2.39,8.29,2.67,11.4,1.57a3.11,3.11,0,0,0,2.06-2c.07-.62-.76-.68-2.22,0-4.44,1.77-7.22.39-10.81-1a1.46,1.46,0,0,0-.6-.14Zm-27.2.18h5.81l0,8H52.72l0-1.08h3.84v-5.78H52.08Zm7,0h5.49l.32.83H59.08Zm-21.3,1.1c.88,0,.95.87.29,1.47a1,1,0,0,1-1.18.13C36.34,206.4,36.9,205.37,37.78,205.37Zm2.69.15c.79,0,1.05.75.45,1.35-.41.37-.61.4-1,.12A.88.88,0,0,1,40.47,205.52Zm-5.13.2a.51.51,0,0,1,.52.22c.48,1-1.09,1.68-1.42.94S34.81,205.74,35.34,205.72Zm29.75.11.42,1-6.43,0v-1Zm-21.79.3c.89.11.75,1,.34,1.43-.71.66-1.41.45-1.22-.45.11-.56.47-1,.88-1Zm10.94.69,1.47,1.47-1.47,1.47-1.47-1.47Zm-15.64.61c.17.06,0,.62-.13,1.68-.31,1.14.36,3.45.16,3.69a1.13,1.13,0,0,1-1.45.08c-1.08-.71-1.15-4.84-.11-5.09.68.34,1.13-.27,1.44-.36a.14.14,0,0,1,.09,0Zm20.48.13H65.7l.34.75-.25.47H59.08Zm-18,.14c.28,0,.42.6.24,1.3a8.16,8.16,0,0,0-.09,3.69c.15.52.31.87.21,1-.31.51-1.28.16-1.7-.51-1-1.89-.84-5.43.36-5.15.45.23.71-.13,1-.34Zm-5.69.1c.26,0,.47.1.28.37-.29.49-.08,3.18-.11,3.4s-.8.13-1.22-.06c-1-.5-.76-1.75-.56-2.77.23-.8.73-.86,1.35-.93Zm8.63.52c.33,0,.38.24.3,1.23a8.34,8.34,0,0,0,0,2.18c.27,1.57.3,2-.09,2.3a1.19,1.19,0,0,1-1.56-.18c-1-.79-1-4.67-.27-5,.71.18,1.17-.4,1.58-.53Zm21.39,1.17h0l-1.08,1.11H59.08V209.5Zm-18.85,1.65c.81,0,.68,1.47.24,2.39-.37.55-.65.61-1.2.09s.11-2.49,1-2.48Zm17.12.26-.73.83H59.08v-.83Z"/><path id="path3872-3-7-5" class="cls-2" d="M38,182.34l-6.56-5.05c7.56-.17,15.32,0,22.88.14l-7.55,5.45c-1.06-1.85-3.91-5.53-4.65-5.32C41.56,177.45,39,180.74,38,182.34Zm55.46-1.84c-.18-.11-.29-.35-.42-1.17-1.89-8.92-11.16-8.29-11.1-8-.07-.36,11.53-11,18.35-19.3,2.06,6.36,8.3,20.91,8,20.85,0,0-1.8,0-6.49-.1-4.26,2-7.23,3.85-7.09,6.61,0,1-.26,1.37-.58,1.28a5.75,5.75,0,0,1-.72-.15Zm21.13-28.64c6-.09,7.18-3.08,7.86-3.44,4-.66,6.42,2,8.15,4.75,2.22,1.36,1.94.11,2.4-2l5.53-1.64v1.78a27.94,27.94,0,0,0-4.24,3.32l-1.68-.11-1,1.31c-3.84,2.1-7.6,4.61-11.65,6.23,0,0-4.84-6.35-5.4-10.2Zm-75.18.56-.06-35.28c2.49-.17,7.09-.15,7.09-.15,1.92-3.44,4.54-5,7.24-7a117.4,117.4,0,0,1,.44,12.85c-7.15,8.85-11.12,19.74-6.71,36l-2.65-.3Zm39.52,2a124.47,124.47,0,0,0,4.27-22.53l13.61-.21.27,4.73Zm46.35-16.06-.25-13.2c9.93-12,10.52-22.53,6.84-35.8,3.28.77,5,3.36,8.1,6.94v34.41c-2.18.33-7.57.65-7.57.65-.16,1.62-4.71,5.47-7.12,7ZM83.19,117.53l-.6-5.82,17.69-17.13c-1.46,7.43-3.23,15-3.75,23ZM53.84,99.35c-1.26.84-5.91-4.06-6.68-7.36,1.17-1.59,11.41-6.68,11.41-6.68s6,7.79,5.74,11c-2.65.71-5,.92-7,3.11-1.15.11-1.56-1.21-3.49-.11Zm-8.08-6.58c1.43.23.51,2.18.3,3.61l-7.53,2.26c2.59-2.24,4.42-4.15,7.23-5.87ZM70.27,75.55c1.55,0,3.16.6,4.36.11a4.18,4.18,0,0,1,2.31-.26c2.25.7,3-1.81,4.47-1.82,1.86,0,2.89-1.31,2.9-4,0-1.14.1-1.27.31-1.38A1,1,0,0,1,86,69c1.33,4.86,4.69,9.22,10,8.88C91.79,82.25,79,95.65,79,95.65a129.29,129.29,0,0,0-8.68-20.1Zm54.62-4.19,7.74-5.69,4.63,5.71,4-5.43c2.35,1.71,7.7,5.51,7.7,5.51s-16,.24-24.07-.1Z"/><path id="path3870-4-7-1" d="M129.28,19.78l-71.09.46L72,39c14.68-3,27.46-1.06,40.72,1.29Zm-1.82.95-4.73,6c-1.31-1.2-4.23-.77-3.82,1.86-3.62-1.91-4.39,3.33-1.31,3.12-.39,1-3.5,1.3-4.38-.57-3.19,1.82-4.16.06-5-1.09,4.06,2.79,6-2.94,1.57-3.27,1.75-3.59-4.5-5.23-4.14-.54-4.12-.95-3.18,4.93-.15,3.73-2,3-5.19,1-5.85.4-1.66,1.26-4.8,1.3-5.68-.72,4.6.94,4.09-5.19,0-3.78,2.17-4.71-5.06-4.07-3.31-.22-4.11-.16-3.2,5,.41,4.11-3.21,3.07-5.61.21-6.12.15-1.9,2.13-5.24,1-5.7-.3,3.28,1.32,4.35-4.26.22-3.93,1.06-3.59-4.88-4-3.57.06-3.27-.76-3.45,4.56.22,3.73.22,1.46-2.66,2.85-4.44,1.44-1.3.73-2.72,1.85-4.42.19,2.58-.43,3-4.85-1.16-3.89.2-2.72-1.34-2.86-3.24-2.18l-3-4.17Zm-50.17,5c.79,0,1.63.53,1.13,1.65-.23.5-.61.85-.52,1.23A4.53,4.53,0,0,0,78.74,30c3.56,4.7,10.77,4.55,12.94-.3.44-.9.35-1.11-.18-1.87a1.12,1.12,0,1,1,1.68.07C92,29.45,95.32,33,98.69,33.55c4.32.71,8.41-2.36,7.84-5.12,0-.16-.11-.3-.15-.47-.46-2.31,3.16-1.2,1.86.27-.49.53-.76.69-.69,1.27,1,4.89,6.91,5.4,9.7,3.9-3.6,6-9.31,1.36-10.31-2.8C101.88,38,95.81,36.46,92.43,30c.4.4-6.67,11.66-14.69.12-3.4,9.28-9.59,3-9.17,2.63,2.85,1.6,8,1,8.51-3.94.07-.62-.39-.66-.66-1.14-.67-1.23.08-1.85.87-1.88ZM65.05,28c.64.06.75.33.64,1Zm55.17,1.74-.93,1.19C119.07,30.36,119.06,29.83,120.22,29.75Zm10.06.39c-3.12.09-3.76,5.84-3.73,7.33,0,2,.4,7,.53,7.78.19,1,0,2.46-.38,2.61a2.21,2.21,0,0,0-.79,3.91,2.63,2.63,0,0,0,3.68-1.1,9.49,9.49,0,0,0,1-6.41c-.51-2.92-.13-6.56.86-8.26,1.77-3.07,1.74-5.07-.09-5.7A2.92,2.92,0,0,0,130.28,30.14Zm0,.47A1.82,1.82,0,0,1,131.32,34a1.92,1.92,0,0,1-1.91-.14c-.76-.45-.66.06.13.64s1.32.63.82,2.23a19.51,19.51,0,0,0-.45,6.51c.69,5,.11,7.48-2,8.34a1.84,1.84,0,0,1-2.41-1c-.44-1.3.35-2.42,2.3-2.11,0,0,.13-.41-.37-4.74-.71-6-.43-10.22.66-11.69A3,3,0,0,1,130.24,30.61Zm17.46,6.21a3.93,3.93,0,0,0-1.91.55,53.09,53.09,0,0,1-.26,5.49c3.15,1.92,5.76-.55,5.46-3A3.41,3.41,0,0,0,147.7,36.82Zm.11.5a3,3,0,0,1,2.76,3,2.78,2.78,0,0,1-3.41,2.56,3.39,3.39,0,0,1-1.1-.51l.1-.88a4.75,4.75,0,0,0,1.15.21c3.23.09,2.26-3.95.3-3.48-.42.11-.48.31,0,.45,1.53.7,1,1.67.43,2.07s-1.67-.18-1.85-.57l.11-2.52a2.59,2.59,0,0,1,1.5-.36ZM132.3,48.89a4.43,4.43,0,0,0-.87.54,2.14,2.14,0,0,0-.44,2.32c.13.38.11.44-.36,1.06-1.33,1.77-1.51,2.65-.82,4.24.31.73.31.73,0,1.68a37.63,37.63,0,0,1-6.4,12,3.28,3.28,0,0,0-.58,1,3,3,0,0,0,1-.21c2.74-1.38,5.64-4.06,8.33-5.82-4.26,3.5-8.8,6.74-8.8,6.74h5.8C128,74.1,102.42,96.06,109,135.16c7.94-2,11.63-5.32,15.86-9.16,0,3.16.11,11.65.14,11.65s-3.68-1.43-2.78,1.7c.53,1.72.8,6.07-.15,8.52,0,.1.41.27.36.37s-.6.11-.6.11c-2,3.19-5,3.08-7.62,3.17,1.23,4.25,3.53,7.73,5.24,10.51l.78.11-.45.42a20,20,0,0,0,1.29,1.87l0,.42s1.64,2.3,2.51,3.39c.06.07.2-.11.26,0,.49.59,1.07,1.25,1.56,1.84,0,0-.07.22,0,.26.93,1,2.76,3.11,2.76,3.11l.36-.09L130,175c11.95-5.51,24.43-17.69,24.3-17.66l.1-26.22-14.14,0-.06-34.73,14.13,14.16-.1-4.07c-3.2-3.08-16.08-16.26-16.08-16.26a15.66,15.66,0,0,0,5.45-1.85,15.78,15.78,0,0,0,10.11,2.24V86.7a12.41,12.41,0,0,1-8.84-3.18l-2.64-.09c-4.88,3.76-8.32,2-12,1.28l-2.56-3.88h26.05v-9h-4l-2.59-1.94,3,1.29a3.67,3.67,0,0,0-.65-1.45,62.77,62.77,0,0,1-4.9-10.06C144,57.93,144,58,144.47,57a3.7,3.7,0,0,0-.37-4.07c-.64-.67-.62-.82-.41-1.32A1.76,1.76,0,0,0,142.48,49c-4.39,1.71-10.29-.06-10.18-.11Zm10.22.72c.88,0,1,.39,1,1-.07,1.21-1.63,1.65-2.34,1.82-3.37.79-9.25.32-9.63-1.27-.28-1.17.44-1.82,2.83-1.24C138.2,50.81,140.58,49.9,142.52,49.61ZM131.64,53a1.06,1.06,0,0,1,.89.94,3.79,3.79,0,0,1-.85,2.33c-1.07.85-2-.47-1.32-1.9C130.77,53.55,131.19,53,131.64,53Zm11.5.16a1.3,1.3,0,0,1,.63.17c.85.61.93,2.72.14,3s-1.56-.54-1.55-1.88c0-.82.3-1.32.78-1.31Zm-2.69.44a1.11,1.11,0,0,1,.54.12c.71.33,1,2.54.35,3.24a1.23,1.23,0,0,1-2.06-.62C138.88,55,139.51,53.65,140.45,53.6Zm-6,.06c1,0,1.27,2.34.25,3.31-.84.8-2.14,0-1.73-1.59C133.19,54.59,133.66,53.72,134.47,53.66Zm2.94.37c1.52.27,1.39,4-.59,3.65C135.68,56.88,135.71,54.09,137.41,54Zm-6.63,4,2.15.2c-.06,0-3.41,7.19-6.41,9.1A58,58,0,0,0,130.78,58.07Zm12.85,0a103.59,103.59,0,0,0,4.25,10.28c-2.6-2.53-4.9-6.43-7-10.1Zm-10.07.33,1.41,0a10.87,10.87,0,0,0,2.26,4.79,21.8,21.8,0,0,0,1.86-4.66l1.13,0c.43.26-1.33,6.87-3.05,7.67C135.35,64.73,133.81,60.67,133.56,58.43ZM133,60c-.12.16,2.2,5.82,4.17,7.63A15.37,15.37,0,0,0,141,60.54l6.1,8.67-5.94-4.12a30.67,30.67,0,0,1-4,5.49,71.67,71.67,0,0,1-4.52-5.93c-2.29,1.73-3.9,3.57-6.88,5.17,0,.07,5.83-6.36,7.21-9.83Zm-.57,6.17,4.14,5.13-11-.16Zm9,.08,7,4.86L138,71.21ZM85.88,68.63a3.67,3.67,0,0,0,.13.49c1.23,5.11,4.64,9.36,9.77,8.86L78.92,95.06A99.55,99.55,0,0,0,70.5,75.67l1.83.37a5.82,5.82,0,0,0,3-.5,3,3,0,0,1,1.89.25c1.16.22,1.95-.44,3.4-1.73.39-.35.54-.27,1-.26,1.82,0,3-1.58,2.77-4l-.09-1.09-.23,1.22c-.43,2.31-.73,3.31-3,3.4-.54,0-.75.4-1.61,1.15-1.21,1-2.07,1.14-2.92.73s-1-.17-1.78.23a5.27,5.27,0,0,1-3.56,0c-1.73-.5-1.52-.33-1.52-.33,10,18.07,13.54,35.41,13.32,50.82a99.63,99.63,0,0,1-14.53,50.34s1.14-.12,2.15-.27a2,2,0,0,1,1.35.17,2.5,2.5,0,0,0,1.24.1,9.87,9.87,0,0,1,1.73.08c1.23.18,1.31,0,2.66-1.3,3.81-3.76,3.56-3.62,6.32-3.53,4.14.14,7.45,2.91,8.83,7.4.18.57.41,1.37.44,1.37L93,179.11c-1.21-6-6.29-8.23-10.53-8.15l17.9-18.19c-.1,0,4.14,13.84,7.84,20a7.28,7.28,0,0,0-3.18-.22,11,11,0,0,1-3.08-.12c-.9,0-1.45.25-2.58,1.19a6.07,6.07,0,0,1-1.81,1.24c-2.17.93-3,1.9-3,4.32a8.25,8.25,0,0,0,0,1.38,4.2,4.2,0,0,0,.62-1.77c.31-1.81.68-2.44,2.37-3.24a13.94,13.94,0,0,0,2-1.28c1.56-1.26,2.08-1.55,3.34-1.25a5.83,5.83,0,0,0,2.3.14,4.44,4.44,0,0,1,2.44.12c.84.22,1.87.43,1.87.43-17.35-35.32-16.78-68.06.35-101.28,0,0-5.07.06-5.29.2a5,5,0,0,1-1.37-.13c-1.38-.26-1.07-.09-4.33,3.23-4,4.1-10.46.83-12.4-6a3.05,3.05,0,0,0-.34-.83,1.37,1.37,0,0,0-.18-.22Zm16.4,4c.75.08,1.68,0,1.59.73l-24.28,24-.37-1.53Zm5,.14c-.3.59-1.09,1.33-1.44,1.88l1.3,1.64-.72,1.33-2-1.71-3.8,3.81,3.17,3.61-3,3.07-1-1.15,1.59-1.68-2.47-2.34L94.6,85.55l3.54,3.64-2.6,2.53-1-1,1.36-1.52-2.31-2.42-4,4.18,3.2,3.61-2.48,2.49-1.09-1.13,1.19-1.25-2.29-2.43-4.12,4.12,3.34,3.68-2.46,2.22-.87-.92,1.19-1.3-2.25-2.44L80.33,100l-.43-1.61,25.3-25.48Zm1.46.38-1.07,2.17-.82-.92L108,73.32Zm-59.68.14c-.65.16-15.72,8.67-24.29,18l0,3.47-.32.42.16,5.38.21.29.07,2.2-.34.58v6l.46.08.07,7.37,14.09,0v35.26s-8.28-9.22-14.23-14.66l0,4.12,15.76,16.5A12.27,12.27,0,0,0,36.1,160a17.37,17.37,0,0,0-11-2.25l0,4.2a15.5,15.5,0,0,1,11.1,2.85c3.25-2.23,7.17-3.59,13-1.82a42.08,42.08,0,0,0,3.86,5.79H25.2v8.86c1.24,0,4.33,0,4.33,0,1.57,3.11,4.66,7,5.94,12.37-1.76,2.14-1.62,3.86.09,6,0,1-.3,2,.78,3.13,3.55-1.76,7.55-1,10.54-.08,1,.3,1.39-.86,1.35-2.33-.08-.84-.08-1.2.56-1.76,1.51-1.34.57-4.08.34-4.14-.09-2.4,7.5-14.44,7.51-14.22l-1.51.55-6.5,0c17.08-16.7,24.23-35.75,22.73-57.26a34.35,34.35,0,0,0-1.16-7.9c-6,2.71-11,4.68-15.77,9.9l-.32-11.22a2.39,2.39,0,0,0,2.85.35c.55-.37.6-.75.09-2.12-.73-2-.9-6.21-.36-7.65a5.64,5.64,0,0,0,.17-1c.06-.59-.07-.62-.12-.61.14,0,.73.08.8,0a10.85,10.85,0,0,1,6.95-3.09l.07-1.34c-2-5.13-3.7-7.14-5.51-10a2.08,2.08,0,0,0-.84-.1l.42-.45c-2.55-4.1-6.17-7.82-9.5-11.36,0,0,0,0,0,0ZM49,74l1.81,1.69a96,96,0,0,0-25.5,18.7l.12-3.06A108.36,108.36,0,0,1,49,74Zm55.35,3.07,1.09,1.1L103.93,80l1,1-.54,1.35-2.5-2.64Zm-53.81.13s.1,0,.23,0c.54.12-.11.21.26.62s.53-.23.58.32-.23,0-.5.43.37.44-.13.66,0-.24-.57-.35-.29.5-.66.09.21-.11.16-.65-.57-.13-.29-.61.16.17.66,0,.16-.4.26-.47Zm73.76,1.45c17.57,19.82,8.55,48.63-14.9,55.56l-.27-1.63c23.67-8.08,29.12-35.23,13.77-52.23Zm-70.71.13,1.12,1.32c-10,4.84-19.79,12.11-29.23,22.59l-.09-2.64A100.43,100.43,0,0,1,53.58,78.8Zm-6.47.39s.1,0,.23,0c.54.12-.11.22.25.62s.54-.23.59.32-.23,0-.51.44.39.43-.12.65,0-.23-.57-.35-.29.5-.66.09.21-.1.15-.65-.56-.13-.28-.6.16.17.66,0,.16-.41.26-.47Zm-3.12,2s.09,0,.23,0c.53.12-.11.21.25.62s.53-.23.59.32-.23,0-.51.43.38.44-.12.66,0-.24-.57-.35-.3.5-.66.09.21-.11.15-.65-.56-.13-.29-.61.17.18.67-.05.16-.41.26-.47Zm10.42.69a1,1,0,1,1-1,1A1,1,0,0,1,54.41,81.85ZM99,82.57l1,1.1-1.63,1.66,2.32,2.45L103,85.6l-1.12,3.25L82.19,108.78l-.41-2.09,1.55-1.58L81,102.71l-.42-1.6,2.34-2.22,1,1-1.37,1.6,2.2,2.19,4-3.72-3.3-3.67,2.72-2.67.94.93-1.3,1.36L90,98.45l4.1-4-3.36-3.6,2.7-2.71,1,1-1.36,1.66,2.33,2.28,4-4-3.3-3.52Zm-58.12.68s.1,0,.24,0c.53.12-.11.21.25.62s.53-.23.59.32-.23,0-.51.43.38.44-.12.66,0-.23-.57-.35-.3.5-.66.09.21-.11.15-.65-.56-.13-.29-.6.17.17.67-.06.16-.4.25-.47Zm16.21.22.78,1.32C46,90.9,37.74,97,25.54,111.07V109.3A95.28,95.28,0,0,1,57.13,83.47Zm-6,.16a1,1,0,1,1-1,1A1,1,0,0,1,51.14,83.63Zm92.26.4c2.11,1.89,6.52,3.79,9.37,3.58l.08,2.29c-5,.47-9.31-2.75-9.31-2.75a14.52,14.52,0,0,1-11.77,1.64l-1.56-3.39c6,2.83,11.66.13,13.19-1.37Zm-23.82.55,1,1c4.63-1.23,6.13,3.61,4,6.38l.62,2c4.11.81,5.25,5.07,1.47,7.36l0,2.24a8.4,8.4,0,0,1,1.92,1.85,3.51,3.51,0,0,1-1,5,3.61,3.61,0,0,1-2.17.72l-1.07,2.53a3,3,0,0,1,1.36,2.11,4.07,4.07,0,0,1-1.9,4,5.12,5.12,0,0,1-3.68.09l-1.52,1.54a5.27,5.27,0,0,1,.29,2.92,3.78,3.78,0,0,1-4.12,2.55,4.11,4.11,0,0,1-2.21-1.05l-1.69.65s0,2.16-.82,2.82a11.37,11.37,0,0,1-1.22.9l-.12-1.49a2.88,2.88,0,0,0,.85-2.53l3.63-1.8a3.61,3.61,0,0,0,1.68,1.25,2.38,2.38,0,0,0,2.85-2.11,7.76,7.76,0,0,0-.55-1.89l3.09-3.24c1.28.45,2.17.52,2.75.19a2.58,2.58,0,0,0,1.16-2.72,3.74,3.74,0,0,0-1.12-1.61l1.72-4.41a3.17,3.17,0,0,0,1.93-.55,2.41,2.41,0,0,0,.57-3.28,2.5,2.5,0,0,0-1.7-1.11l.12-4.58s1.76-.85,1.93-1.87c.42-2.56-1.2-3-3.13-2.93l-1.44-4.15c2.28-1.41,1.56-3.66.4-4.41a3.53,3.53,0,0,0-2.94-.06s-.79-.79-1.39-1.43Zm-61.09.91A48.44,48.44,0,0,1,64,95.3a5.63,5.63,0,0,1,0,1c-4.05.36-5.45,2-6.89,3.1-1.12-.58-1.59-1.26-3.61,0,0,.06-5.15-3.15-6.13-7.52a116.16,116.16,0,0,1,11.13-6.38Zm-20.58,0s.1,0,.23,0c.54.11-.11.21.26.61s.53-.22.59.32-.24,0-.51.44.38.43-.12.65,0-.23-.58-.35-.29.5-.66.09.21-.1.16-.65-.57-.13-.29-.6.16.17.67,0,.16-.41.25-.47Zm9.75.22a1,1,0,0,1,0,2.08,1,1,0,0,1,0-2.08ZM118,87c4.4,6.16,6.17,13,5,20-1.57,9.16-7.67,14.21-14.61,17.18l0-1.79c6.46-2.37,11.45-7.31,13.13-15.87a22.77,22.77,0,0,0-4.32-18Zm-83.27.85s.1,0,.23,0c.54.12-.11.21.26.62s.53-.23.59.32-.24,0-.51.43.38.44-.12.66,0-.23-.58-.35-.29.5-.66.09.22-.1.16-.65-.57-.13-.29-.6.16.17.67-.06.15-.4.25-.46Zm9.73,0a1,1,0,1,1-1,1A1,1,0,0,1,44.44,87.86Zm87.75,1.76c2.28.25,5.06,4.44,7.6,6.84l0,34.17-7.58.15c-1,2.41-3.28,4.78-6.93,7.13V125.1c12.44-13.51,9.06-28.3,6.88-35.48ZM31.93,90s.1,0,.24,0c.53.11-.11.21.25.62s.53-.23.59.32-.23,0-.51.43.38.43-.12.66,0-.24-.57-.35-.3.49-.66.09.21-.11.15-.66-.56-.12-.29-.6.17.17.67-.05.16-.41.25-.47Zm103.31.17,2.29.09L153,106.12l-.06,2.32Zm-94,0a1,1,0,1,1-1,1A1,1,0,0,1,41.28,90.2ZM47,91.77l.41,2c-.5-.8-.52-1.1-1.39-1.24Zm-8.39.58a1,1,0,1,1-1,1A1,1,0,0,1,38.58,92.35Zm77.91.29,3.07,2.19-1,4-3.13-2.86Zm-87.2,0s.1,0,.23,0c.54.11-.11.21.25.62s.54-.23.59.32-.23,0-.51.43.38.44-.12.66,0-.24-.57-.35-.29.5-.66.09.21-.11.15-.65-.56-.13-.28-.61.16.17.66,0,.16-.41.26-.47ZM45.78,93l.55.33L45.69,96l-7,2.57A53,53,0,0,1,45.78,93Zm1.15,1.26h0a36.33,36.33,0,0,0,2.92,7.49c-.9.48-4.15,2.34-4.14,3.21.46,1.57,3.89,3,3.89,3a39.72,39.72,0,0,0-3.55,7.56c-.59-1-.66-5,.61-6.67A15.68,15.68,0,0,1,42.41,106c.83-3,4.4-4.79,4.55-4.81-.06.15-1.05-6.27,0-7Zm-11.43.51a1,1,0,1,1-1,1A1,1,0,0,1,35.5,94.73Zm78.46.08c4.57,8.64,1.85,16.14-5.44,21.51l.25-2c5-3.7,8.21-11,4.53-17.94Zm-87.16.24s.1,0,.23,0c.54.11-.11.21.26.62s.53-.23.59.32-.24,0-.51.43.38.44-.12.66,0-.24-.57-.35-.3.49-.67.09.22-.11.16-.65-.57-.13-.29-.61.17.17.67,0,.16-.41.25-.47Zm73.17.06a106,106,0,0,0-3.67,22h-13l-.51-4.58Zm-52,.35s2.82,2.66,5.36,5l-.31.61-2.46.33A47.32,47.32,0,0,1,47.93,95.46Zm-2.34,1.4h0l.15,1.89c-.84,0-10,3.85-17,10a22.12,22.12,0,0,1,4.53-5.2c3.64-3.62,12.34-6.73,12.34-6.73Zm-13,.43a1,1,0,1,1-1,1A1,1,0,0,1,32.56,97.29Zm5.77,1.18.52.55-2.43,1.27Zm17,.56h.1a1.18,1.18,0,0,1,.75.41,5.11,5.11,0,0,0-1.39-.13.78.78,0,0,1,.54-.29Zm-9.3.39.22,1.41c-5.27,3-11.54,5.91-20.66,14.65v-2.9A65.54,65.54,0,0,1,46,99.42Zm7.09.13a1.8,1.8,0,0,0,.92,0s-.19.38-.42.39-.5-.41-.5-.41Zm2.23.08c.67,0,1.12.58,1,1.37a17.07,17.07,0,0,0,.06,7.3c.43,1.48.54,2,.18,2.24-3.1,2.18-4.81-7.62-2.21-10.4a1.66,1.66,0,0,1,1-.51ZM29.93,100a1,1,0,1,1-1,1A1,1,0,0,1,29.93,100Zm89.3.24,1.93,3.28-2.69,3.06L116.83,103ZM52.72,102h0l-.1,1.14A9.73,9.73,0,0,0,49,105.07c-.2.17,3.21,1.73,3.57,1.37v1.21c0,.4-5.65-1.41-6-2.75.64-.9,4.18-3,6.21-2.9Zm-25.49.61a1,1,0,1,1-1,1A1,1,0,0,1,27.23,102.61ZM42.5,103.8h0a8.36,8.36,0,0,0-1.1,2.9c-3.84,2.36-7.78,4.57-12.58,10l-2.58,0-.06-.69A71.21,71.21,0,0,1,42.5,103.8Zm9.9.33h0l0,1.43a3.88,3.88,0,0,1-2-.63,3.7,3.7,0,0,1,2-.8Zm28.92.15.72.77-.45.42Zm-38.94,3,1.43.89A39.57,39.57,0,0,0,33,116.69H30.13C33.69,112.77,37.53,109.27,42.38,107.25Zm75.9,1,.28,3.88-3.57,2,.07-4.09Zm-68,0,2.45.27.26,1.06a38.59,38.59,0,0,0-5.58,4.51,22.21,22.21,0,0,1,2.87-5.84Zm-5.9.42,1.06.49L45.06,111a27.52,27.52,0,0,0-8,5.66H34.19a41,41,0,0,1,10.23-8Zm9.15,1.71a0,0,0,0,1,0,0l.38,12c-10.61,12.6-10,24.78-6.94,35.83l-2-.09a72.15,72.15,0,0,0-5.48-6V117.36l7.32,0c1.73-4,6.47-6.93,6.75-7Zm-8.65,1.68.09,1.6a21,21,0,0,0-3.9,3H38.36c1.9-1.8,3.79-3.6,6.56-4.59Zm25,.78.41,1.88c-24.65,9-29.1,35.31-14.56,53.35l-1,1.12C38.05,151.05,45.37,121.35,69.88,112.88Zm-24.76,1.88s.13,1.45.17,1.93H42.53A4.9,4.9,0,0,1,45.12,114.76Zm69.34.61-1.58,3.75-4.24.07,1.92-3.76Zm-26.82,2.57H91.5v3.74H87.64Zm-16.71.37L71,120c-1.71.89-1.28,2.29-1.71,2.27A29.32,29.32,0,0,0,65.45,124a2.43,2.43,0,0,0-2.94-.24,2.9,2.9,0,0,0-.8,3l-3,3.5c-1.42-.62-2.81-.58-3.5.38s-.49,2.44.8,4l-1.6,4.18c-.19-.25-2.88.55-2.91,2.17s2.22,2.83,2.22,3l-.11,4.61c-.1-.22-2.31.69-2,2.9.27,2,3,1.79,3.06,2l1.49,4.41c-.1-.14-2,1.76-.84,3.55,1,1.5,3.81.53,3.79.44l.78,1.12-.87,1s-.38-.45-.59-.41A4.2,4.2,0,0,1,54.1,162c-1.21-1.88.13-4.83.56-4.81l-1-2.54a3.74,3.74,0,0,1-3.51-3.13,4.36,4.36,0,0,1,2.22-4.16l.07-2.76a4,4,0,0,1-2.31-3.25,4.53,4.53,0,0,1,2.51-3.55l1-.48.92-2.26a6,6,0,0,1-1-3.85c.63-2.92,4.39-2.72,5-2.44l1.75-2.21a3.6,3.6,0,0,1,2.56-4.75,13.88,13.88,0,0,1,3.28.44l2.24-1.17C68.36,119.87,69.69,119.06,70.93,118.31Zm12.71,4.09H87v3.74H83.64Zm8.82,0h3.73v3.74H92.46Zm-21.26.94,0,1.43c-21.36,10.5-12.62,32.24-9.57,34.77l-.69,1.54c-3.75-2.31-13.41-27.4,10.31-37.74Zm16.44,3.78h4l0,3.85h-4ZM70.27,129,69,132.5l-3.93.33,1.45-3.49Zm80.16,2.57h2.68c-5,6-10.43,10-15.78,12.23a6,6,0,0,0,.07-2.12,38.28,38.28,0,0,0,13-10.12Zm-9,0c.27.69-7.05,4.7-7.07,4.36l0-1.34,3.94-3Zm1.58,0h2.07c-1.86,3-11.7,8.38-11.29,7.62l.4-2.18a44.62,44.62,0,0,0,8.82-5.45Zm3.47,0h2.71c-4.08,5.25-8.21,7.17-12.18,9.42a2,2,0,0,0-.88-.1l-1.35-1.07c.25.23,9.11-5,11.7-8.26Zm-12.62,0c.82,0,2.84,0,2.84,0a8.8,8.8,0,0,1-2.45,2.13Zm-63.2.18-.09,1.58c-5.7,5-8,11.33-5,18.7l-.71,1.57c-3.19-7.86-2.25-15.51,5.82-21.85Zm12.73.27H96.6l.3,4.25L79.2,153.75A128.29,128.29,0,0,0,83.36,132Zm69.94,1v2.38c-7,7.79-14,11.29-20.09,12.7l-.14-.92,2.82-1.75C145,141.4,148.93,137.37,153.3,133Zm-21.19.07c.13,1.71-1.38,5-3.11,6.78h-3l-.32-1.3a18.94,18.94,0,0,0,6.38-5.48Zm.89.51c1.09,1.77-.54,6.34-.61,6.16-.13.32,9.28,2.33-.38,7,.21,1.39,1.11,4.35.41,6.17-.21-.7-1.9-5.44-3.19-6.66,3-.87,5.18-2.74,5-3.36-.49-.88-1.84-1.95-4.11-2.74a16.82,16.82,0,0,0,2.93-6.62Zm-69.08.86.31,3.61-3.44,2.1-.26-4Zm59.77,3.36h0a.91.91,0,0,1,.65.21c1.69.69,1.82,9.09.28,9.94a1.22,1.22,0,0,1-1.87-.64,25.3,25.3,0,0,0,0-8.95c0-.39.53-.57,1-.56Zm29.61.12v3c-10,10.48-20.73,18.74-31.71,23.39l-1-1.73a99.77,99.77,0,0,0,32.71-24.65Zm-1.88.44c-4.6,6.43-10.2,10.63-17.84,12.54l-.15-1.85c8.85-2,16.95-9.51,18-10.69Zm-125.65.89c6,6.24,12.19,12.42,18.31,18.82l-2.43.13L25.7,141.42Zm71.65.31.22,1.54-1.75,2,2.76,3,.15.72-2.38,2.51-1.08-1.07,1.32-1.5-2.23-2.38-4.14,4,3.41,3.75-2.57,2.48-1-1.06L91.43,152l-2.29-2.45-4.21,4.25,3.19,3.58L86,159.78l-1-1.08,1.09-1.27L83.76,155l-4.05,4L83,162.71l-2.71,2.74-1-1,1.52-1.68-2.5-2.41-2,1.92s.75-1.91.86-2.23.83-.85,5-5.06c5-5.08,10.19-9.84,15.21-15.39Zm28.87,1a14.12,14.12,0,0,1,5.19,1c2.25,1.21,1.54,2.15.08,2.86a11.69,11.69,0,0,1-5.17,1.32l.06-1a13.73,13.73,0,0,0,3.36-1.14,2.32,2.32,0,0,0,.87-.71,5.2,5.2,0,0,0-1.76-1.1,13.7,13.7,0,0,0-2.54-.39Zm-65.83,1.3,1.85,2.81-2.19,3.73L58,145.21Zm37.36.3c.06.53.72,2.59.38,2.19L97,143Zm28.58.27a8.6,8.6,0,0,1,2.85.49,5.86,5.86,0,0,1-2.83,1Zm25.7,1.41A1.14,1.14,0,1,1,151,145,1.13,1.13,0,0,1,152.1,143.87Zm-57.79,2,1,.94L94,148.23l2.24,2.39L99,148l.37,1.67-26,25.91-1.44-.1,1.65-2-1.88-2,.86-1.4,2.13,2,4.06-3.94-3.29-3.51,2.81-2.92,1.06.92-1.61,1.78,2.35,2.43,4.25-4.24L81.06,159l2.66-2.57,1,.94-1.23,1.32,2.42,2.56,3.58-3.78-3.26-3.63L89.1,151l.89.9-1.34,1.51,2.44,2.55L95,151.87l-3.22-3.54Zm55.19.67a1.14,1.14,0,1,1-1.12,1.14A1.13,1.13,0,0,1,149.5,146.51Zm-21.11.06a12.35,12.35,0,0,1,3,7,21,21,0,0,0-5.55-5.77l.4-1.05Zm24.91.17v2.53a85.38,85.38,0,0,1-27.23,20.59l-1.67-2.05C136,162.56,144.39,156,153.3,146.74Zm-11.58,1.77L138.53,151v-1.09Zm-19.29.15c1.44.55,1.74.62,2.85,0a13,13,0,0,1,6.35,7A121.73,121.73,0,0,1,120,161.85a54.37,54.37,0,0,1-5.21-9.81c6,0,7.63-3.35,7.67-3.38Zm24.34.53a1.15,1.15,0,0,1,1.14,1.09,1.12,1.12,0,1,1-2.24,0C145.79,149.49,146.28,149.18,146.77,149.19Zm-8.28.74V151c-1.53,1.36-4.49,3.55-4.49,3.55l-1.23-.07.4-3.11a44.63,44.63,0,0,0,5.31-1.47Zm-78.14.13,2.93,2.44-.89,3.79-2.89-2.22Zm39.35.72.27,1.09L75.9,176l-1.37-.22Zm44.4.93a1.14,1.14,0,1,1-1.12,1.13A1.13,1.13,0,0,1,144.1,151.71Zm8.73.11c.11,0-.05.32.35.4s.3-.49.66-.08-.21.1-.15.65.56.13.29.6-.17-.17-.67.05.05.58-.49.46.11-.21-.25-.61-.53.22-.59-.32.23,0,.51-.44-.38-.43.12-.65a.36.36,0,0,1,.22-.06Zm-12,2.42a1.14,1.14,0,1,1-1.12,1.14A1.13,1.13,0,0,1,140.86,154.24Zm9.19.09c.1,0-.06.32.34.41s.3-.5.67-.09-.22.11-.16.65.56.13.29.6-.17-.17-.67.06,0,.57-.48.46.11-.21-.26-.62-.53.23-.59-.32.24,0,.51-.43-.38-.44.12-.66c.13-.06.19-.07.23-.06Zm-17.28.21,1.2.07-2.19,1.31a4.91,4.91,0,0,0,1-1.38Zm20.52.58,0,2.34a89.79,89.79,0,0,1-23.09,16.94L128.86,173a86.5,86.5,0,0,0,24.43-17.89Zm-15.63,1.28a1.14,1.14,0,1,1-1.12,1.13A1.12,1.12,0,0,1,137.66,156.4Zm9.74.19c.11,0-.05.32.35.41s.3-.5.66-.09-.21.11-.15.65.56.13.28.6-.16-.17-.66.06.05.57-.49.46.11-.21-.25-.62-.54.23-.59-.32.23,0,.51-.43-.38-.44.12-.66A.36.36,0,0,1,147.4,156.59Zm-120,1.79A14.38,14.38,0,0,1,36.1,161c3.8-2.24,6.86-2.5,11.21-1.82l1.3,2.6c-4.24-.77-8.7-.7-12.52,2.29-4-2.54-7-3.27-10.21-2.85l-.06-2.75c.53-.07,1.05-.11,1.56-.13Zm107.19.19a1.14,1.14,0,1,1-1.12,1.13A1.12,1.12,0,0,1,134.57,158.57Zm10,.57c.1,0-.06.32.34.4s.3-.49.67-.08-.22.1-.16.64.56.13.29.61-.17-.17-.67,0,.05.58-.49.46.12-.21-.25-.62-.53.23-.59-.31.23,0,.51-.44-.38-.43.12-.66c.13-.05.19-.07.23-.05Zm-13.4,1.59a1.14,1.14,0,1,1-1.11,1.13A1.13,1.13,0,0,1,131.2,160.73Zm10.24.77c.11,0-.06.32.35.41s.29-.5.66-.09-.22.11-.16.65.57.13.29.61-.16-.18-.67,0,.06.57-.48.46.11-.21-.26-.62-.53.23-.59-.32.24,0,.51-.43-.38-.44.12-.66c.13-.06.19-.07.23-.06Zm-13.69,1.23a1.15,1.15,0,1,1-1.13,1.15A1.15,1.15,0,0,1,127.75,162.73Zm10.68,1.09c.11,0-.05.32.35.4s.29-.49.66-.09-.21.11-.16.65.57.13.29.61-.16-.17-.66.05.05.57-.49.46.11-.21-.26-.62-.53.23-.58-.32.23,0,.51-.43-.38-.43.12-.66c.12-.05.19-.07.22-.05Zm-14,.65a1.14,1.14,0,1,1-1.12,1.14A1.13,1.13,0,0,1,124.44,164.47Zm-49.5,1,2.78,2.58L74.84,171l-1-1,1.6-1.7-1.09-1.48Zm60.43.37c.11,0-.05.32.35.4s.3-.49.66-.08-.21.1-.15.65.56.13.29.6-.17-.17-.67.05.05.58-.49.46.11-.21-.25-.62-.54.23-.59-.31.23,0,.51-.44-.38-.43.12-.65a.36.36,0,0,1,.22-.06Zm-3.26,1.9c.11,0-.06.32.35.41s.29-.5.66-.09-.21.11-.16.65.57.13.29.6-.16-.17-.66.06,0,.57-.49.46.11-.21-.26-.62-.53.23-.59-.32.24,0,.52-.43-.39-.44.12-.66a.36.36,0,0,1,.22-.06Zm-3.49,1.92c.11,0-.06.32.35.41s.29-.5.66-.09-.21.1-.16.65.57.13.29.6-.16-.17-.67.05.06.58-.48.46.11-.21-.26-.61-.53.22-.59-.32.24,0,.52-.44-.39-.43.12-.66a.4.4,0,0,1,.22-.05Zm-57.5,3,1,.87-1.43,1.74-1.08,0Zm-17.46,4.82a27.47,27.47,0,0,0-6.89,4.55l-3.17-4.4Zm-21.59.15h8.45l-2.81,4a16.48,16.48,0,0,0-5.64-4Zm10.07.32c.91.29,3.31,3.75,4.44,5.64,2.4-1.93,4.75-4.1,7.32-5.26a57.88,57.88,0,0,0-7.64,9.91c-.54-1.47-2-5.69-3.95-7.52A17.6,17.6,0,0,0,38.12,187a54.57,54.57,0,0,0-5.81-8.2c-.37-.51,2.74,1.45,5.82,4.49.87-2.22,3.19-5.25,4-5.33ZM32,180.15c1.45,1.17,5.39,6.3,5.85,9.39l-1.89.12C34.94,186.49,33.25,183.32,32,180.15Zm21,.53c-1.43,3-3.2,6-4.47,9.29l-1.87-.08C48.71,185.36,49.45,184.53,53,180.68ZM42.29,182h.05a17.93,17.93,0,0,1,3.14,7.75l-1.37,0a26.45,26.45,0,0,0-1.62-4c-.42-.63-.76-.55-1.06,0a17,17,0,0,0-1.32,3.81l-1.57-.12c-.3-2.2,3.2-7.36,3.75-7.42ZM42,190.46c.65,0,1.32.72,1.31,2,0,.58-.4,1.86-.88,1.93-.89.48-1.95-1-1.69-2.26C41,191,41.48,190.46,42,190.46Zm3.15.22c1.38.2,1,3.36.32,3.83-1.11.59-2-.4-1.59-1.89C44.23,191.42,44.68,190.71,45.19,190.68Zm-6.26,0c1.27.11,1.55,3,1,3.58a1.51,1.51,0,0,1-2.3-.85C37.15,192.12,38.08,190.71,38.93,190.7Zm9.45.5c1.58.18.67,3,0,3.54-1,.79-2-.39-1.49-1.81.37-1.1,1-1.73,1.51-1.73Zm-12.77.09c1.15.19,1.82,2.83,1.13,3.58-.35.43-1.4-.2-1.87-.92S34.83,191.29,35.61,191.29Zm6.57,4.08c2.4,0,5.44.36,5.68,1.67s-.89,1.39-3.86.71a17.29,17.29,0,0,0-5.53.13c-2.28.42-2.61.26-2.6-.69s1.28-1.72,4.25-1.81c.53,0,1.26,0,2.06,0Zm10.31.86c-3.54.33-4.49,4.83-4.1,6.49a22,22,0,0,1-.35,7.6,23.15,23.15,0,0,1-1.32,4.08c-.93,1.88-.69,3.27.69,4a2.78,2.78,0,0,0,3.41-.55c1.58-1.72,1.77-5.38.8-13.67-.34-2.93-.16-3.51,1.24-3.35,2.94,0,2.82-4.62-.37-4.62Zm0,.55a1.7,1.7,0,1,1-.48,3.23c-.79-.31-1.33.42-1.22,2.23a22.81,22.81,0,0,0,.26,2.44c1.15,8,.72,13.29-1.69,13.55-2.1.34-3.52-1.22-2.5-2.84.58-.92,1.08-1,2.21-.56,1.55,1,1.16-.45-.23-1.5-.9-.64-1-.64-.48-2.65a23.51,23.51,0,0,0,.62-8.07c-.33-2.42.47-5.64,3.51-5.83ZM32.32,204a3.58,3.58,0,0,0-3.45,1.93,3.34,3.34,0,0,0,1.46,4.56,3.38,3.38,0,0,0,2.93,0,18.42,18.42,0,0,1,1.52-5.4,3.68,3.68,0,0,0-2.46-1.1Zm-.51.47h0a5.66,5.66,0,0,1,1.52.15c1.13.24,1,1.45-.11,1-2.54-1.21-4.61,2.44-2.56,3.82,1.05.6,1.51.26.47-.56-.42-.5-.32-.7-.06-1.2.53-1,2.47-.84,2.34-.11-.45,2.31-.74,3-1.42,3-3.59.19-4.53-6-.18-6.14Zm35.09,4.31s-11.77,13.49-17.44,20.41l71.07-.34L107,209.93c-11.6,2.72-25.24,1.94-40.11-1.15Zm-.35,4.31c1.78,0,3.79,1.33,5.54,5.68.1,0,7.82-11.88,14.5.47,1.09-2.78,7.39-10,14.67-.73,2.59-6.21,8.55-4.11,9.11-1.94-.13-.46-5.68-1.8-8.09,2.31-.44.88-.47,1.7,0,2.19a1.19,1.19,0,1,1-1.47,1.87,1.18,1.18,0,0,1-.19-1.69c1.2-.91-1.27-3.76-3.31-4.78-2.79-1.4-6.68-.78-8.56,1.23A6.67,6.67,0,0,0,87,220.53a.76.76,0,0,0,.18.79c.82,1,.28,2.36-.82,2.19-1.44-.21-1.25-1.58-.28-2.32.29-.15.18-.33.09-.58-2.63-7.51-12.43-6.08-13.49-.88a1.66,1.66,0,0,0-.08.58c.11.5.4.92.29,1.31a1.27,1.27,0,0,1-2.51-.19c0-.6.6-.78.92-1.33a1.27,1.27,0,0,0,.09-1.14c-2.66-5.64-7.21-4.46-9.48-3.19,0,0,2-2.71,4.62-2.68Zm-2.95,3.27h0a3.39,3.39,0,0,1,2.69,1.42c2.78-1.49,4.76,1.09,4.43,1.34-3.94-2.59-5.22,3.45-1.34,3.22-1.71,3.58,4.39,5.11,3.71.54,3.76,1.33,4.38-3.91.57-3.83,1.23-2.16,4.42-1.56,5.77-.21,1.59-2,5.5-.09,5.88,1.59-4.37-2.27-4.82,4.67-.58,3.2-1.25,4.42,5.49,3.79,3.62,0,4.2,1.4,3.63-5-.49-3.67-.25-.33,3.26-4,5.81-.55.34-.61,4.33-2.61,6.51.52-4.73-1.62-3.83,4.83-.45,3.55-.9,4.27,5.21,3.58,3.65-.06,4.73,1.21,2.64-6.1-.69-3.4.54-2.94,4.52-1.72,4.48-1.27,0,0,2.11-2.31,4.48-.62-3.7.32-2.44,5.37,1,3.93a2.33,2.33,0,0,0,3.27,2.27l3,4.23L50.82,229l5.45-6.58c1.82,1.53,3.7.81,3.94-1.59,4,2.47,5-3.38,1.27-3.64a4,4,0,0,1,2.12-.81Zm-3.8,1.9c.23.17-.09,1-.61.75Zm53.12,1.7c.2.29.35.48.55.78S112.41,220.6,112.92,220Z"/><path id="path163-0-2-5-8-7-5-6-5-5" class="cls-2" d="M47.88,64.56s-3.74-6.13-8.77-13.33c-3.37-4.82-6.06-10-6.31-14.53-.29-5.13,2.43-10.28,7.35-10.53s6.92,3.95,7.73,7.42c.81-3.47,2.81-7.67,7.73-7.42S63.25,31.57,63,36.7c-.25,4.49-2.94,9.71-6.31,14.53-5,7.2-8.77,13.33-8.77,13.33Z"/><path id="path163-0-2-5-8-7-7-8-9-1-8" class="cls-2" d="M130.7,184.89S127,191,121.94,198.22c-3.37,4.82-6.07,10-6.32,14.53-.28,5.13,2.43,10.28,7.36,10.53s6.91-4,7.72-7.43c.82,3.47,2.81,7.68,7.73,7.43s7.64-5.4,7.36-10.53c-.25-4.5-2.95-9.71-6.32-14.53C134.44,191,130.7,184.89,130.7,184.89Z"/></g></g></g></svg>