<svg xmlns="http://www.w3.org/2000/svg" viewBox="0 0 178.58 249.45"><defs><style>.cls-1{fill:#fff;}.cls-2{fill:#d40000;}</style></defs><g id="Layer_2" data-name="Layer 2"><g id="svg8"><g id="g11398-8-7"><g id="g9732-9-3"><path id="rect9734-4-5" class="cls-1" d="M8.54,0H170a8.53,8.53,0,0,1,8.54,8.53V240.92a8.53,8.53,0,0,1-8.54,8.53H8.54A8.53,8.53,0,0,1,0,240.92V8.53A8.53,8.53,0,0,1,8.54,0Z"/></g><path id="path9766-0-8" class="cls-2" d="M13.77,56S12,53.43,9.59,50.43c-1.6-2-2.89-4.19-3-6.06-.13-2.14,1.16-4.28,3.51-4.39s3.3,1.65,3.68,3.1c.39-1.45,1.34-3.2,3.69-3.1A3.88,3.88,0,0,1,21,44.37c-.12,1.87-1.4,4.05-3,6.06C15.55,53.43,13.77,56,13.77,56Z"/><path id="path9768-3-3" class="cls-2" d="M164.81,193.47S163,196,160.63,199c-1.61,2-2.89,4.18-3,6.06a3.88,3.88,0,0,0,3.5,4.39c2.35.1,3.3-1.65,3.69-3.1.39,1.45,1.34,3.2,3.68,3.1a3.88,3.88,0,0,0,3.51-4.39c-.12-1.88-1.4-4.05-3-6.06C166.59,196,164.81,193.47,164.81,193.47Z"/><path id="path9772-1-7" class="cls-2" d="M89.29,64.56s-3.73-6.13-8.77-13.33c-3.37-4.82-6.06-10-6.31-14.53-.29-5.13,2.43-10.28,7.35-10.53s6.92,3.95,7.73,7.42c.81-3.47,2.81-7.67,7.73-7.42s7.64,5.4,7.35,10.53c-.25,4.49-2.94,9.71-6.31,14.53C93,58.43,89.29,64.56,89.29,64.56Z"/><path id="path9786-2-1" class="cls-2" d="M89.29,184.89s-3.73,6.13-8.77,13.33c-3.37,4.82-6.06,10-6.31,14.53-.29,5.13,2.43,10.28,7.35,10.53s6.92-4,7.73-7.43c.81,3.47,2.81,7.68,7.73,7.43s7.64-5.4,7.35-10.53c-.25-4.5-2.94-9.71-6.31-14.53C93,191,89.29,184.89,89.29,184.89Z"/><path id="path15-34-0-0-4" class="cls-2" d="M6.26,37.41l.13-1.62c.4-5,1.48-6.73,7.62-12,3-2.55,4-3.81,4.09-5.26.39-3.44-2.66-4.51-4.64-4.53C10.9,14,8,15.56,9.38,19.19l-2.88.86c-.58-3.38,0-6.56,2.71-8,3.6-1.84,8.22-1.12,10.55,1.78a6.93,6.93,0,0,1,1.08,6.74c-2.46,5.37-10.78,7.74-11.47,14h9.2V31.09h2.72v6.38l-15-.06Z"/><path id="path15-5-4-5-2-7" class="cls-2" d="M172.32,212l-.13,1.62c-.4,5-1.48,6.73-7.62,12-3,2.55-3.95,3.8-4.08,5.26-.39,3.44,2.65,4.51,4.63,4.53,2.57,0,5.47-1.54,4.08-5.17l2.88-.86c.58,3.38,0,6.56-2.71,8-3.6,1.84-8.21,1.12-10.54-1.78a6.91,6.91,0,0,1-1.09-6.74c2.46-5.37,10.78-7.74,11.47-14H160v3.46h-2.72V212l15,.06Z"/></g></g></g></svg>