<svg xmlns="http://www.w3.org/2000/svg" viewBox="0 0 178.58 249.45"><defs><style>.cls-1{fill:#fff;}.cls-2{fill:#d40000;}</style></defs><g id="Layer_2" data-name="Layer 2"><g id="svg8"><g id="g11369-4-9"><g id="g9800-8-2"><path id="rect9802-4-3" class="cls-1" d="M8.54,0H170a8.53,8.53,0,0,1,8.54,8.53V240.92a8.53,8.53,0,0,1-8.54,8.53H8.54A8.53,8.53,0,0,1,0,240.92V8.53A8.53,8.53,0,0,1,8.54,0Z"/></g><path id="path9834-5-2" class="cls-2" d="M13.77,56S12,53.43,9.59,50.43c-1.6-2-2.89-4.19-3-6.06-.13-2.14,1.16-4.28,3.51-4.39s3.3,1.65,3.68,3.1c.39-1.45,1.34-3.2,3.69-3.1A3.88,3.88,0,0,1,21,44.37c-.12,1.87-1.4,4.05-3,6.06C15.55,53.43,13.77,56,13.77,56Z"/><path id="path9836-5-8" class="cls-2" d="M164.81,193.47S163,196,160.63,199c-1.61,2-2.89,4.18-3,6.06a3.88,3.88,0,0,0,3.5,4.39c2.35.1,3.3-1.65,3.69-3.1.39,1.45,1.34,3.2,3.68,3.1a3.88,3.88,0,0,0,3.51-4.39c-.12-1.88-1.4-4.05-3-6.06C166.59,196,164.81,193.47,164.81,193.47Z"/><path id="path9840-3-6" class="cls-2" d="M89.29,64.56s-3.73-6.13-8.77-13.33c-3.37-4.82-6.06-10-6.31-14.53-.29-5.13,2.43-10.28,7.35-10.53s6.92,3.95,7.73,7.42c.81-3.47,2.81-7.67,7.73-7.42s7.64,5.4,7.35,10.53c-.25,4.49-2.94,9.71-6.31,14.53C93,58.43,89.29,64.56,89.29,64.56Z"/><path id="path9850-2-3" class="cls-2" d="M89.29,143.92s-3.73-6.12-8.77-13.32c-3.37-4.82-6.06-10-6.31-14.53-.29-5.13,2.43-10.29,7.35-10.53s6.92,3.95,7.73,7.42c.81-3.47,2.81-7.67,7.73-7.42s7.64,5.4,7.35,10.53c-.25,4.49-2.94,9.71-6.31,14.53C93,137.8,89.29,143.92,89.29,143.92Z"/><path id="path9854-8-0" class="cls-2" d="M89.29,184.89s-3.73,6.13-8.77,13.33c-3.37,4.82-6.06,10-6.31,14.53-.29,5.13,2.43,10.28,7.35,10.53s6.92-4,7.73-7.43c.81,3.47,2.81,7.68,7.73,7.43s7.64-5.4,7.35-10.53c-.25-4.5-2.94-9.71-6.31-14.53C93,191,89.29,184.89,89.29,184.89Z"/><path id="path17-2-9-8-4" class="cls-2" d="M5.2,31.68l2-1.49C9,33.06,11,35,14,34.63c4.53-.31,6.41-5.06,5.46-8.64a5.25,5.25,0,0,0-7.65-3.06,7.29,7.29,0,0,1-1.51.74c-.32,0-1-1.41-.93-1.84a93.46,93.46,0,0,1,6.86-8H8.63v3.43H5.72V11.07H20.55v2.09a50.86,50.86,0,0,0-5.29,6.38A7.17,7.17,0,0,1,22,25a14.35,14.35,0,0,1-.41,7.29,9.16,9.16,0,0,1-7.44,5.21c-5,.33-7.66-3.17-9-5.77Z"/><path id="path17-5-3-9-1-3" class="cls-2" d="M173.38,217.77l-2,1.49c-1.76-2.87-3.73-4.76-6.75-4.44-4.53.31-6.4,5.06-5.46,8.63a5.25,5.25,0,0,0,7.65,3.07,7.29,7.29,0,0,1,1.51-.74c.32,0,1,1.41.93,1.84a93.46,93.46,0,0,1-6.86,8H170v-3.43h2.91v6.15H158v-2.09a50.86,50.86,0,0,0,5.29-6.38,7.19,7.19,0,0,1-6.78-5.41,14.35,14.35,0,0,1,.41-7.29,9.17,9.17,0,0,1,7.44-5.21c5-.34,7.66,3.17,9,5.77Z"/></g></g></g></svg>