<svg xmlns="http://www.w3.org/2000/svg" viewBox="0 0 178.58 249.45"><defs><style>.cls-1{fill:#fff;}.cls-2{fill:#d40000;}</style></defs><g id="Layer_2" data-name="Layer 2"><g id="svg8"><g id="g11338-3-7"><g id="g9868-8-1"><path id="rect9870-7-0" class="cls-1" d="M8.54,0H170a8.53,8.53,0,0,1,8.54,8.53V240.92a8.53,8.53,0,0,1-8.54,8.53H8.54A8.53,8.53,0,0,1,0,240.92V8.53A8.53,8.53,0,0,1,8.54,0Z"/></g><path id="path9902-6-7" class="cls-2" d="M13.77,56S12,53.43,9.59,50.43c-1.6-2-2.89-4.19-3-6.06-.13-2.14,1.16-4.28,3.51-4.39s3.3,1.65,3.68,3.1c.39-1.45,1.34-3.2,3.69-3.1A3.88,3.88,0,0,1,21,44.37c-.12,1.87-1.4,4.05-3,6.06C15.55,53.43,13.78,56,13.77,56Z"/><path id="path9904-6-0" class="cls-2" d="M164.81,193.47S163,196,160.63,199c-1.61,2-2.89,4.18-3,6.06a3.88,3.88,0,0,0,3.5,4.39c2.35.1,3.3-1.65,3.69-3.1.39,1.45,1.34,3.2,3.68,3.1a3.88,3.88,0,0,0,3.51-4.39c-.12-1.88-1.4-4.05-3-6.06C166.59,196,164.81,193.47,164.81,193.47Z"/><path id="path9910-2-6" class="cls-2" d="M47.88,64.56s-3.73-6.13-8.77-13.33c-3.37-4.82-6.06-10-6.31-14.53-.29-5.13,2.43-10.28,7.35-10.53s6.92,3.95,7.73,7.42c.81-3.47,2.81-7.67,7.73-7.42S63.25,31.57,63,36.7c-.25,4.49-2.94,9.71-6.31,14.53C51.61,58.43,47.88,64.55,47.88,64.56Z"/><path id="path9916-8-0" class="cls-2" d="M130.7,64.56s-3.73-6.13-8.76-13.33c-3.37-4.82-6.07-10-6.32-14.53-.28-5.13,2.43-10.28,7.36-10.53s6.91,3.95,7.72,7.42c.82-3.47,2.81-7.67,7.73-7.42s7.64,5.4,7.36,10.53c-.25,4.49-2.95,9.71-6.32,14.53C134.44,58.43,130.71,64.55,130.7,64.56Z"/><path id="path9930-7-9" class="cls-2" d="M130.7,184.89S127,191,121.94,198.22c-3.37,4.82-6.07,10-6.32,14.53-.28,5.13,2.43,10.28,7.36,10.53s6.91-4,7.72-7.43c.82,3.47,2.81,7.68,7.73,7.43s7.64-5.4,7.36-10.53c-.25-4.5-2.95-9.71-6.32-14.53C134.44,191,130.71,184.9,130.7,184.89Z"/><path id="path9932-9-8" class="cls-2" d="M47.88,184.89s-3.73,6.13-8.77,13.33c-3.37,4.82-6.06,10-6.31,14.53-.29,5.13,2.43,10.28,7.35,10.53s6.92-4,7.73-7.43c.81,3.47,2.81,7.68,7.73,7.43s7.64-5.4,7.35-10.53c-.25-4.5-2.94-9.71-6.31-14.53C51.61,191,47.88,184.9,47.88,184.89Z"/><path id="path19-3-8-2-9" class="cls-2" d="M14,37.47V35.14h2.1V31.29H5.54V28.57l11.39-17.5h1.86V28.57H22v2.72H18.79l-.06,3.85h1.76v2.33Zm2.1-20L8.83,28.58h7.23Z"/><path id="path19-4-46-0-1-9" class="cls-2" d="M164.62,212v2.33h-2.1v3.85H173v2.71l-11.39,17.51h-1.86v-17.5h-3.22v-2.71h3.22l.06-3.85h-1.76V212Zm-2.1,20,7.23-11.1h-7.23Z"/></g></g></g></svg>