<svg xmlns="http://www.w3.org/2000/svg" viewBox="0 0 178.58 249.45"><defs><style>.cls-1{fill:#fff;}.cls-2{fill:#d40000;}</style></defs><g id="Layer_2" data-name="Layer 2"><g id="svg8"><g id="g11305-8-4"><g id="g9936-1-0"><path id="rect9938-9-5" class="cls-1" d="M8.54,0H170a8.53,8.53,0,0,1,8.54,8.53V240.92a8.53,8.53,0,0,1-8.54,8.53H8.54A8.53,8.53,0,0,1,0,240.92V8.53A8.53,8.53,0,0,1,8.54,0Z"/></g><path id="path9970-5-6" class="cls-2" d="M13.77,56S12,53.43,9.59,50.43c-1.6-2-2.89-4.19-3-6.06-.13-2.14,1.16-4.28,3.51-4.39s3.3,1.65,3.68,3.1c.39-1.45,1.34-3.2,3.69-3.1A3.88,3.88,0,0,1,21,44.37c-.12,1.87-1.4,4.05-3,6.06C15.55,53.43,13.77,56,13.77,56Z"/><path id="path9972-9-9" class="cls-2" d="M164.81,193.47S163,196,160.63,199c-1.61,2-2.89,4.18-3,6.06a3.88,3.88,0,0,0,3.5,4.39c2.35.1,3.3-1.65,3.69-3.1.39,1.45,1.34,3.2,3.68,3.1a3.88,3.88,0,0,0,3.51-4.39c-.12-1.88-1.4-4.05-3-6.06C166.59,196,164.81,193.47,164.81,193.47Z"/><path id="path9978-0-4" class="cls-2" d="M47.88,64.56s-3.73-6.13-8.77-13.33c-3.37-4.82-6.06-10-6.31-14.53-.29-5.13,2.43-10.28,7.35-10.53s6.92,3.95,7.73,7.42c.81-3.47,2.81-7.67,7.73-7.42S63.25,31.57,63,36.7c-.25,4.49-2.94,9.71-6.31,14.53C51.61,58.43,47.88,64.56,47.88,64.56Z"/><path id="path9984-9-5" class="cls-2" d="M130.7,64.56s-3.73-6.13-8.76-13.33c-3.37-4.82-6.07-10-6.32-14.53-.28-5.13,2.43-10.28,7.36-10.53s6.91,3.95,7.72,7.42c.82-3.47,2.81-7.67,7.73-7.42s7.64,5.4,7.36,10.53c-.25,4.49-2.95,9.71-6.32,14.53C134.44,58.43,130.7,64.56,130.7,64.56Z"/><path id="path9986-7-3" class="cls-2" d="M89.29,143.92s-3.73-6.12-8.77-13.32c-3.37-4.82-6.06-10-6.31-14.53-.29-5.13,2.43-10.29,7.35-10.53s6.92,3.95,7.73,7.42c.81-3.47,2.81-7.67,7.73-7.42s7.64,5.4,7.35,10.53c-.25,4.49-2.94,9.71-6.31,14.53C93,137.8,89.29,143.92,89.29,143.92Z"/><path id="path9998-0-9" class="cls-2" d="M130.7,184.89S127,191,121.94,198.22c-3.37,4.82-6.07,10-6.32,14.53-.28,5.13,2.43,10.28,7.36,10.53s6.91-4,7.72-7.43c.82,3.47,2.81,7.68,7.73,7.43s7.64-5.4,7.36-10.53c-.25-4.5-2.95-9.71-6.32-14.53C134.44,191,130.7,184.89,130.7,184.89Z"/><path id="path10000-8-2" class="cls-2" d="M47.88,184.89s-3.73,6.13-8.77,13.33c-3.37,4.82-6.06,10-6.31,14.53-.29,5.13,2.43,10.28,7.35,10.53s6.92-4,7.73-7.43c.81,3.47,2.81,7.68,7.73,7.43s7.64-5.4,7.35-10.53c-.25-4.5-2.94-9.71-6.31-14.53C51.61,191,47.88,184.89,47.88,184.89Z"/><path id="path21-9-5-1-8" class="cls-2" d="M5.45,30.64l2.59,0c.49,1.59,1.59,3.21,3.07,3.66a6.18,6.18,0,0,0,7.77-4.13c1.08-3.34,0-8-2.91-9.68-2.39-1.38-5.94-.22-7.57,2.73L6.59,22.06l1-11H19.4v2.6H9.81l-.16,4.58A7.6,7.6,0,0,1,17,17.82c3.91,1.9,5.72,6.22,5,11.31-1.05,5.06-3.37,7.93-8.61,8.34-5.83.05-7.88-4-7.86-6.83Z"/><path id="path21-3-0-6-3-8" class="cls-2" d="M173.13,218.81l-2.59,0a5.33,5.33,0,0,0-3.07-3.66,6.18,6.18,0,0,0-7.77,4.13c-1.08,3.33,0,8,2.91,9.68,2.39,1.38,5.94.22,7.57-2.73l1.81,1.13-1,11H159.18v-2.6h9.59l.16-4.58a7.6,7.6,0,0,1-7.31.43c-3.91-1.9-5.72-6.22-5-11.31,1.05-5.06,3.37-7.93,8.61-8.34,5.83,0,7.88,4,7.86,6.83Z"/></g></g></g></svg>