<svg xmlns="http://www.w3.org/2000/svg" viewBox="0 0 178.58 249.45"><defs><style>.cls-1{fill:#fff;}.cls-2{fill:#d40000;}</style></defs><g id="Layer_2" data-name="Layer 2"><g id="svg8"><g id="g11270-7-7"><g id="g10004-9-9"><path id="rect10006-6-1" class="cls-1" d="M8.54,0H170a8.53,8.53,0,0,1,8.54,8.53V240.92a8.53,8.53,0,0,1-8.54,8.53H8.54A8.53,8.53,0,0,1,0,240.92V8.53A8.53,8.53,0,0,1,8.54,0Z"/></g><path id="path10038-5-0" class="cls-2" d="M13.77,56S12,53.43,9.59,50.43c-1.6-2-2.89-4.19-3-6.06-.13-2.14,1.16-4.28,3.51-4.39s3.3,1.65,3.68,3.1c.39-1.45,1.34-3.2,3.69-3.1A3.88,3.88,0,0,1,21,44.37c-.12,1.87-1.4,4.05-3,6.06C15.55,53.43,13.77,56,13.77,56Z"/><path id="path10040-7-6" class="cls-2" d="M164.81,193.47S163,196,160.63,199c-1.61,2-2.89,4.18-3,6.06a3.88,3.88,0,0,0,3.5,4.39c2.35.1,3.3-1.65,3.69-3.1.39,1.45,1.34,3.2,3.68,3.1a3.88,3.88,0,0,0,3.51-4.39c-.12-1.88-1.4-4.05-3-6.06C166.59,196,164.81,193.47,164.81,193.47Z"/><path id="path10046-1-1" class="cls-2" d="M47.88,64.56s-3.73-6.13-8.77-13.33c-3.37-4.82-6.06-10-6.31-14.53-.29-5.13,2.43-10.28,7.35-10.53s6.92,3.95,7.73,7.42c.81-3.47,2.81-7.67,7.73-7.42S63.25,31.57,63,36.7c-.25,4.49-2.94,9.71-6.31,14.53C51.61,58.43,47.88,64.56,47.88,64.56Z"/><path id="path10048-2-0" class="cls-2" d="M130.7,143.92s-3.73-6.12-8.76-13.32c-3.37-4.82-6.07-10-6.32-14.53-.28-5.13,2.43-10.29,7.36-10.53s6.91,3.95,7.72,7.42c.82-3.47,2.81-7.67,7.73-7.42s7.64,5.4,7.36,10.53c-.25,4.49-2.95,9.71-6.32,14.53C134.44,137.8,130.7,143.92,130.7,143.92Z"/><path id="path10052-3-1" class="cls-2" d="M130.7,64.56s-3.73-6.13-8.76-13.33c-3.37-4.82-6.07-10-6.32-14.53-.28-5.13,2.43-10.28,7.36-10.53s6.91,3.95,7.72,7.42c.82-3.47,2.81-7.67,7.73-7.42s7.64,5.4,7.36,10.53c-.25,4.49-2.95,9.71-6.32,14.53C134.44,58.43,130.7,64.56,130.7,64.56Z"/><path id="path10056-4-2" class="cls-2" d="M47.88,143.92s-3.73-6.12-8.77-13.32c-3.37-4.82-6.06-10-6.31-14.53-.29-5.13,2.43-10.29,7.35-10.53s6.92,3.95,7.73,7.42c.81-3.47,2.81-7.67,7.73-7.42s7.64,5.4,7.35,10.53c-.25,4.49-2.94,9.71-6.31,14.53C51.61,137.8,47.88,143.92,47.88,143.92Z"/><path id="path10066-9-2" class="cls-2" d="M130.7,184.89S127,191,121.94,198.22c-3.37,4.82-6.07,10-6.32,14.53-.28,5.13,2.43,10.28,7.36,10.53s6.91-4,7.72-7.43c.82,3.47,2.81,7.68,7.73,7.43s7.64-5.4,7.36-10.53c-.25-4.5-2.95-9.71-6.32-14.53C134.44,191,130.7,184.89,130.7,184.89Z"/><path id="path10068-1-2" class="cls-2" d="M47.88,184.89s-3.73,6.13-8.77,13.33c-3.37,4.82-6.06,10-6.31,14.53-.29,5.13,2.43,10.28,7.35,10.53s6.92-4,7.73-7.43c.81,3.47,2.81,7.68,7.73,7.43s7.64-5.4,7.35-10.53c-.25-4.5-2.94-9.71-6.31-14.53C51.61,191,47.88,184.89,47.88,184.89Z"/><path id="path23-5-2-7-3" class="cls-2" d="M6,29.35a52.21,52.21,0,0,1,0-9.67c.82-5.2,2.81-7.58,6.14-8.36s7.78.08,8.77,4.43l-2.7.06c-1.46-2.94-5.16-2.16-7.25-.88-1.66,1-2.41,5.28-2.09,5.54,0,0,3.14-2.33,5.62-2.16,5.3.55,7.49,5.15,7.3,9.49-.17,5.22-1.82,9.39-7.44,9.67C9,37.26,6.53,34.35,6,29.35ZM19.19,28c0-3.62-1.61-6.34-4.73-6.63s-6.25,2.73-6,6.42,1.65,6.83,5.43,6.81c4.05,0,5.31-4,5.33-6.6Z"/><path id="path23-6-5-1-7-1" class="cls-2" d="M172.56,220.1a52.21,52.21,0,0,1,.05,9.67c-.82,5.2-2.81,7.58-6.14,8.36s-7.78-.09-8.77-4.44l2.7-.05c1.47,2.94,5.17,2.16,7.25.88,1.66-1,2.42-5.28,2.09-5.54,0,0-3.14,2.33-5.62,2.16-5.3-.55-7.49-5.15-7.3-9.49.17-5.22,1.82-9.39,7.44-9.67,5.34.21,7.79,3.12,8.3,8.12Zm-13.17,1.38c0,3.62,1.62,6.34,4.73,6.63s6.25-2.73,6-6.43-1.65-6.82-5.42-6.8c-4.06,0-5.32,4-5.34,6.6Z"/></g></g></g></svg>