<svg xmlns="http://www.w3.org/2000/svg" viewBox="0 0 178.58 249.45"><defs><style>.cls-1{fill:#fff;}.cls-2{fill:#d40000;}</style></defs><g id="Layer_2" data-name="Layer 2"><g id="svg8"><g id="g11195-3-7"><g id="g10140-6-7"><path id="rect10142-4-2" class="cls-1" d="M8.54,0H170a8.53,8.53,0,0,1,8.54,8.53V240.92a8.53,8.53,0,0,1-8.54,8.53H8.54A8.53,8.53,0,0,1,0,240.92V8.53A8.53,8.53,0,0,1,8.54,0Z"/></g><path id="path10174-9-0" class="cls-2" d="M13.77,56S12,53.43,9.59,50.43c-1.6-2-2.89-4.19-3-6.06-.13-2.14,1.16-4.28,3.51-4.39s3.3,1.65,3.68,3.1c.39-1.45,1.34-3.2,3.69-3.1A3.88,3.88,0,0,1,21,44.37c-.12,1.87-1.4,4.05-3,6.06C15.55,53.43,13.77,56,13.77,56Z"/><path id="path10176-9-9" class="cls-2" d="M164.81,193.47S163,196,160.63,199c-1.61,2-2.89,4.18-3,6.06a3.88,3.88,0,0,0,3.5,4.39c2.35.1,3.3-1.65,3.69-3.1.39,1.45,1.34,3.2,3.68,3.1a3.88,3.88,0,0,0,3.51-4.39c-.12-1.88-1.4-4.05-3-6.06C166.59,196,164.81,193.47,164.81,193.47Z"/><path id="path10178-8-4" class="cls-2" d="M89.29,104.24s-3.73-6.12-8.77-13.32c-3.37-4.82-6.06-10-6.31-14.54-.29-5.13,2.43-10.28,7.35-10.53s6.92,4,7.73,7.43c.81-3.47,2.81-7.68,7.73-7.43s7.64,5.4,7.35,10.53c-.25,4.5-2.94,9.72-6.31,14.54C93,98.12,89.29,104.24,89.29,104.24Z"/><path id="path10182-1-9" class="cls-2" d="M47.88,64.56s-3.73-6.13-8.77-13.33c-3.37-4.82-6.06-10-6.31-14.53-.29-5.13,2.43-10.28,7.35-10.53s6.92,3.95,7.73,7.42c.81-3.47,2.81-7.67,7.73-7.42S63.25,31.57,63,36.7c-.25,4.49-2.94,9.71-6.31,14.53C51.61,58.43,47.88,64.56,47.88,64.56Z"/><path id="path10184-9-1" class="cls-2" d="M130.7,143.92s-3.73-6.12-8.76-13.32c-3.37-4.82-6.07-10-6.32-14.53-.28-5.13,2.43-10.29,7.36-10.53s6.91,3.95,7.72,7.42c.82-3.47,2.81-7.67,7.73-7.42s7.64,5.4,7.36,10.53c-.25,4.49-2.95,9.71-6.32,14.53C134.44,137.8,130.7,143.92,130.7,143.92Z"/><path id="path10188-5-4" class="cls-2" d="M130.7,64.56s-3.73-6.13-8.76-13.33c-3.37-4.82-6.07-10-6.32-14.53-.28-5.13,2.43-10.28,7.36-10.53s6.91,3.95,7.72,7.42c.82-3.47,2.81-7.67,7.73-7.42s7.64,5.4,7.36,10.53c-.25,4.49-2.95,9.71-6.32,14.53C134.44,58.43,130.7,64.56,130.7,64.56Z"/><path id="path10192-3-6" class="cls-2" d="M47.88,143.92s-3.73-6.12-8.77-13.32c-3.37-4.82-6.06-10-6.31-14.53-.29-5.13,2.43-10.29,7.35-10.53s6.92,3.95,7.73,7.42c.81-3.47,2.81-7.67,7.73-7.42s7.64,5.4,7.35,10.53c-.25,4.49-2.94,9.71-6.31,14.53C51.61,137.8,47.88,143.92,47.88,143.92Z"/><path id="path10196-7-3" class="cls-2" d="M89.29,145.21s-3.73,6.12-8.77,13.32c-3.37,4.82-6.06,10-6.31,14.53-.29,5.14,2.43,10.29,7.35,10.54s6.92-4,7.73-7.43c.81,3.47,2.81,7.68,7.73,7.43s7.64-5.4,7.35-10.54c-.25-4.49-2.94-9.71-6.31-14.53-5-7.2-8.77-13.32-8.77-13.32Z"/><path id="path10202-2-8" class="cls-2" d="M130.7,184.89S127,191,121.94,198.22c-3.37,4.82-6.07,10-6.32,14.53-.28,5.13,2.43,10.28,7.36,10.53s6.91-4,7.72-7.43c.82,3.47,2.81,7.68,7.73,7.43s7.64-5.4,7.36-10.53c-.25-4.5-2.95-9.71-6.32-14.53C134.44,191,130.7,184.89,130.7,184.89Z"/><path id="path10204-9-4" class="cls-2" d="M47.88,184.89s-3.73,6.13-8.77,13.33c-3.37,4.82-6.06,10-6.31,14.53-.29,5.13,2.43,10.28,7.35,10.53s6.92-4,7.73-7.43c.81,3.47,2.81,7.68,7.73,7.43s7.64-5.4,7.35-10.53c-.25-4.5-2.94-9.71-6.31-14.53C51.61,191,47.88,184.89,47.88,184.89Z"/><path id="path27-00-0-7-4" class="cls-2" d="M5.2,29.74c.12-3.55,1.4-4.88,3.93-6.73A6.09,6.09,0,0,1,6.44,17.6C6.85,13.18,10.26,11,14,11.07s6.92,3,7.17,6.26a5.43,5.43,0,0,1-2.59,5.59c2.35,2,3.85,3.29,3.79,6.78a8.21,8.21,0,0,1-8.2,7.77C9,37.59,5.07,33.28,5.2,29.74Zm14.44,0c.23-3.21-2.61-5.37-5.81-5.4a5.89,5.89,0,0,0-5.91,5.5c0,3.1,3.63,4.78,6,4.79,2.85,0,5.56-2.13,5.75-4.89Zm-1-11.48a4.71,4.71,0,0,0-5-4.56c-2.29.07-4.71,1.82-4.71,4.07,0,2.83,2.75,4.24,5.1,4.3,2.14.05,4.56-1.77,4.61-3.81Z"/><path id="path27-0-1-0-8-9" class="cls-2" d="M156.23,219.71c.13,3.55,1.41,4.88,3.93,6.73a6.11,6.11,0,0,0-2.69,5.41c.42,4.41,3.82,6.62,7.54,6.53s6.92-3,7.17-6.26a5.44,5.44,0,0,0-2.58-5.59c2.34-2,3.84-3.29,3.79-6.78a8.22,8.22,0,0,0-8.2-7.77c-5.18-.13-9.09,4.19-9,7.73Zm14.45,0c.22,3.21-2.62,5.37-5.82,5.4a5.89,5.89,0,0,1-5.9-5.5c0-3.1,3.62-4.78,6-4.79C167.78,214.8,170.49,216.94,170.68,219.7Zm-1,11.48a4.72,4.72,0,0,1-5,4.56c-2.28-.07-4.7-1.82-4.7-4.08,0-2.82,2.75-4.24,5.1-4.29,2.13-.05,4.56,1.77,4.61,3.81Z"/></g></g></g></svg>