<svg xmlns="http://www.w3.org/2000/svg" viewBox="0 0 178.58 249.45"><defs><style>.cls-1{fill:#fff;}.cls-2{fill:#d40000;}</style></defs><g id="Layer_2" data-name="Layer 2"><g id="svg8"><g id="g11153-5-1"><g id="g10208-4-1"><path id="rect10210-5-4" class="cls-1" d="M8.54,0H170a8.53,8.53,0,0,1,8.54,8.53V240.92a8.53,8.53,0,0,1-8.54,8.53H8.54A8.53,8.53,0,0,1,0,240.92V8.53A8.53,8.53,0,0,1,8.54,0Z"/></g><path id="path10240-7-9" class="cls-2" d="M47.88,117.47s-3.73-6.13-8.77-13.33c-3.37-4.82-6.06-10-6.31-14.53-.29-5.13,2.43-10.28,7.35-10.53s6.92,4,7.73,7.43c.81-3.47,2.81-7.68,7.73-7.43s7.64,5.4,7.35,10.53c-.25,4.5-2.94,9.71-6.31,14.53C51.61,111.34,47.88,117.47,47.88,117.47Z"/><path id="path10242-3-8" class="cls-2" d="M13.77,56S12,53.43,9.59,50.43c-1.6-2-2.89-4.19-3-6.06-.13-2.14,1.16-4.28,3.51-4.39s3.3,1.65,3.68,3.1c.39-1.45,1.34-3.2,3.69-3.1A3.88,3.88,0,0,1,21,44.37c-.12,1.87-1.4,4.05-3,6.06C15.55,53.43,13.78,56,13.77,56Z"/><path id="path10244-4-5" class="cls-2" d="M164.81,193.47S163,196,160.63,199c-1.61,2-2.89,4.18-3,6.06a3.88,3.88,0,0,0,3.5,4.39c2.35.1,3.3-1.65,3.69-3.1.39,1.45,1.34,3.2,3.68,3.1a3.88,3.88,0,0,0,3.51-4.39c-.12-1.88-1.4-4.05-3-6.06C166.59,196,164.81,193.47,164.81,193.47Z"/><path id="path10250-9-0" class="cls-2" d="M47.88,64.56s-3.73-6.13-8.77-13.33c-3.37-4.82-6.06-10-6.31-14.53-.29-5.13,2.43-10.28,7.35-10.53s6.92,3.95,7.73,7.42c.81-3.47,2.81-7.67,7.73-7.42S63.25,31.57,63,36.7c-.25,4.49-2.94,9.71-6.31,14.53C51.61,58.43,47.88,64.56,47.88,64.56Z"/><path id="path10254-7-3" class="cls-2" d="M130.7,117.47s-3.73-6.13-8.76-13.33c-3.37-4.82-6.07-10-6.32-14.53-.28-5.13,2.43-10.28,7.36-10.53s6.91,4,7.72,7.43c.82-3.47,2.81-7.68,7.73-7.43s7.64,5.4,7.36,10.53c-.25,4.5-2.95,9.71-6.32,14.53C134.44,111.34,130.7,117.47,130.7,117.47Z"/><path id="path10256-4-7" class="cls-2" d="M130.7,64.56s-3.73-6.13-8.76-13.33c-3.37-4.82-6.07-10-6.32-14.53-.28-5.13,2.43-10.28,7.36-10.53s6.91,3.95,7.72,7.42c.82-3.47,2.81-7.67,7.73-7.42s7.64,5.4,7.36,10.53c-.25,4.49-2.95,9.71-6.32,14.53C134.44,58.43,130.7,64.56,130.7,64.56Z"/><path id="path10258-5-9" class="cls-2" d="M89.29,143.92s-3.73-6.12-8.77-13.32c-3.37-4.82-6.06-10-6.31-14.53-.29-5.13,2.43-10.29,7.35-10.53s6.92,3.95,7.73,7.42c.81-3.47,2.81-7.67,7.73-7.42s7.64,5.4,7.35,10.53c-.25,4.49-2.94,9.71-6.31,14.53C93,137.8,89.29,143.92,89.29,143.92Z"/><path id="path10266-8-9" class="cls-2" d="M130.7,132s-3.73,6.12-8.76,13.33c-3.37,4.81-6.07,10-6.32,14.53-.28,5.13,2.43,10.28,7.36,10.53s6.91-4,7.72-7.43c.82,3.47,2.81,7.68,7.73,7.43s7.64-5.4,7.36-10.53c-.25-4.5-2.95-9.72-6.32-14.53C134.44,138.1,130.7,132,130.7,132Z"/><path id="path10268-2-7" class="cls-2" d="M47.88,132s-3.73,6.12-8.77,13.33c-3.37,4.81-6.06,10-6.31,14.53-.29,5.13,2.43,10.28,7.35,10.53s6.92-4,7.73-7.43c.81,3.47,2.81,7.68,7.73,7.43S63.25,165,63,159.84c-.25-4.5-2.94-9.72-6.31-14.53C51.61,138.1,47.88,132,47.88,132Z"/><path id="path10270-1-4" class="cls-2" d="M130.7,184.89S127,191,121.94,198.22c-3.37,4.82-6.07,10-6.32,14.53-.28,5.13,2.43,10.28,7.36,10.53s6.91-4,7.72-7.43c.82,3.47,2.81,7.68,7.73,7.43s7.64-5.4,7.36-10.53c-.25-4.5-2.95-9.71-6.32-14.53C134.44,191,130.7,184.89,130.7,184.89Z"/><path id="path10272-0-7" class="cls-2" d="M47.88,184.89s-3.73,6.13-8.77,13.33c-3.37,4.82-6.06,10-6.31,14.53-.29,5.13,2.43,10.28,7.35,10.53s6.92-4,7.73-7.43c.81,3.47,2.81,7.68,7.73,7.43s7.64-5.4,7.35-10.53c-.25-4.5-2.94-9.71-6.31-14.53C51.61,191,47.88,184.89,47.88,184.89Z"/><path id="path29-5-8-5-4" class="cls-2" d="M6.4,32.38l2.41-.76a4.28,4.28,0,0,0,4.7,3c3.5-.27,4.66-4.18,4.92-7.64a6.94,6.94,0,0,1-5.15,2.11c-5.57-.3-7-4.76-7-9.43-.15-3.94,1.47-6.79,4.27-8.1a9.55,9.55,0,0,1,6.35.13c3.41,1.8,4.68,4.91,4.45,12.34,0,6.11-1.3,13.23-7.85,13.39a6.35,6.35,0,0,1-7-5Zm9.48-6.7a5.7,5.7,0,0,0,2.29-2.4,4.54,4.54,0,0,0,.44-3c-.31-4.43-2.63-6.94-6-6.45a4.06,4.06,0,0,0-3.5,3.29C8,20.75,9.4,25,12,26a5,5,0,0,0,3.89-.28Z"/><path id="path29-6-2-3-6-6" class="cls-2" d="M172.18,217.07l-2.41.76a4.29,4.29,0,0,0-4.7-3c-3.5.28-4.66,4.19-4.92,7.64a7,7,0,0,1,5.15-2.1c5.57.3,7,4.76,7,9.43.15,3.94-1.47,6.79-4.26,8.1a9.58,9.58,0,0,1-6.36-.13c-3.41-1.8-4.68-4.91-4.45-12.34,0-6.12,1.3-13.24,7.85-13.39a6.35,6.35,0,0,1,7.05,5Zm-9.48,6.7a5.7,5.7,0,0,0-2.29,2.4,4.54,4.54,0,0,0-.44,3c.31,4.43,2.63,6.94,6,6.44,1.88-.28,2.91-1.33,3.5-3.29,1.09-3.61-.29-7.84-2.88-8.82a5,5,0,0,0-3.89.28Z"/></g></g></g></svg>