<svg xmlns="http://www.w3.org/2000/svg" viewBox="0 0 178.58 249.45"><defs><style>.cls-1{fill:#fff;}.cls-2{fill:#d40000;}.cls-3{fill:#ff0;}.cls-4{fill:#131f67;}</style></defs><g id="Layer_2" data-name="Layer 2"><g id="svg8"><g id="g6186"><path id="path6061" class="cls-1" d="M8.5,0H170.08a8.48,8.48,0,0,1,8.5,8.5V240.94a8.48,8.48,0,0,1-8.5,8.51H8.5A8.48,8.48,0,0,1,0,240.94V8.5A8.48,8.48,0,0,1,8.5,0Z"/><path id="path6123" class="cls-2" d="M114.5,76.87h0a4.28,4.28,0,0,0-1.7.32,2,2,0,0,0-.5.36.11.11,0,0,0-.12-.07,4.33,4.33,0,0,0-.66.46,5.59,5.59,0,0,0-1.21,1.44c-.08.09,0,.27.1.26a.34.34,0,0,0,.18-.11c-.14.15-.28.29-.41.45a1.69,1.69,0,0,0-.35.89c0,.09,0,.25.1.25s.2-.14.29-.21c-.15.17-.34.32-.47.5a3.11,3.11,0,0,0,0,.61.15.15,0,0,0,.26.12l.32-.3a2.8,2.8,0,0,0-.49.6A.84.84,0,0,0,110,83c.1.12.25,0,.33-.07l.16-.16a4.47,4.47,0,0,0-.42.45c0,.14.09.26.13.39s.1.26.23.21a4.81,4.81,0,0,0,.48-.42c-.17.19-.36.35-.51.55s.1.25.16.37.16.21.27.13a1.07,1.07,0,0,0,.16-.14c-.08.1-.25.18-.19.33a2.08,2.08,0,0,0,.32.4c.16.07.27-.11.37-.19s.15-.14,0,0-.23.19-.25.33.17.17.26.26.21.19.31.08l.48-.47a3.38,3.38,0,0,0-.45.55c0,.14.14.2.24.26s.26.17.39.08.1-.13,0,0,.13.26.27.28a.45.45,0,0,0,.43-.09l.33-.3c-.1.14-.27.25-.3.43s.2.16.32.2a.31.31,0,0,0,.32,0c.27-.21.51-.46.76-.69a6.62,6.62,0,0,0-.51.56.17.17,0,0,0,.16.25.85.85,0,0,0,.73-.21l.41-.38c-.1.11-.29.24-.21.42s.29,0,.42,0a1.27,1.27,0,0,0,.65-.31,4.59,4.59,0,0,0,.39-.37c-.06.12.1.24.21.16a4.75,4.75,0,0,0,1-.81,4.94,4.94,0,0,0,1.2-2.24,5,5,0,0,0,.09-1.73,4.85,4.85,0,0,0-1.28-2.68,4.65,4.65,0,0,0-3.37-1.5Zm1,.7a5.59,5.59,0,0,1,.95.47,4.64,4.64,0,0,1,2.14,3.81,2.7,2.7,0,0,1-.07.85c-.1.13-.29.13-.42.21-.31.17-.58.4-.87.59a6.65,6.65,0,0,0-.15-1.89,5.18,5.18,0,0,0-1.52-2.4,3,3,0,0,0-.9-.61,4.45,4.45,0,0,1-.48-.26,4.79,4.79,0,0,0,1-.48,3.26,3.26,0,0,0,.36-.29Z"/><path id="path6128" class="cls-3" d="M19.88,101.26a3.82,3.82,0,0,0-1.49.24,4.9,4.9,0,0,0-2.72,2.57c0,.12-.18.31,0,.41s.29-.16.43-.25.11-.1,0,0a3.59,3.59,0,0,0-.68.83,1.15,1.15,0,0,0,0,.66c.05.11.19.08.26,0a.85.85,0,0,0-.3.66c0,.14,0,.39.17.38s.36-.29.53-.43a4,4,0,0,0-.56.67.82.82,0,0,0,.12.55c.13.15.27,0,.37-.13s.26-.25.14-.11-.36.35-.39.59.1.43.31.38a1.46,1.46,0,0,0,.42-.32,3.1,3.1,0,0,0-.46.5,1.38,1.38,0,0,0,.34.46c.16.11.28-.11.39-.19s-.11.13-.15.18a.2.2,0,0,0,0,.32c.1.11.17.34.35.3.26-.24.5-.49.75-.72-.23.24-.48.46-.69.72,0,.18.18.25.3.35a.21.21,0,0,0,.33,0c.06,0,.25-.24.1-.08s-.24.24-.08.33.36.32.55.16a4.88,4.88,0,0,0,.55-.47,2.36,2.36,0,0,0-.45.55c0,.2.24.21.38.28s.27,0,.35-.12l.79-.78a7.21,7.21,0,0,0-.74.83c-.05.19.19.2.32.22a.46.46,0,0,0,.47-.11c.23-.21.45-.44.67-.66a5.88,5.88,0,0,0-.58.64c0,.19.2.19.33.18a1.38,1.38,0,0,0,.57-.11l.48-.5c-.08.1-.25.28-.09.39s.4-.09.59-.14a3.48,3.48,0,0,0,1.14-.92,9.52,9.52,0,0,0,1.34-1.5,4.75,4.75,0,0,0,.39-2.68,4.31,4.31,0,0,0-1.08-2.46,4.64,4.64,0,0,0-1.48-1.2,3.63,3.63,0,0,0-1.69-.46Zm.21.5a3.85,3.85,0,0,1,2.53,1.12,4.74,4.74,0,0,1,1.5,3,.2.2,0,0,1-.11.24,5,5,0,0,0-1,1,5.28,5.28,0,0,0-.42-1.52A4.88,4.88,0,0,0,20,103.11a6.74,6.74,0,0,0-1-.26,8.63,8.63,0,0,0,.92-1C19.94,101.77,20,101.75,20.09,101.76Z"/><path id="path6130" class="cls-4" d="M160.7,101.23a4.46,4.46,0,0,0-2,.4c-.12,0-.22.15-.36.17a3.94,3.94,0,0,0-.85.62,5.18,5.18,0,0,0-1,1.26c-.07.12.1.26.2.16a1.54,1.54,0,0,0,.19-.17,4.8,4.8,0,0,0-.74.88,2.9,2.9,0,0,0-.17.75c0,.13.17.15.24.06a1.2,1.2,0,0,0,.21-.17,3.14,3.14,0,0,0-.49.59,2.32,2.32,0,0,0,0,.59.15.15,0,0,0,.26.09l.16-.14c-.12.16-.31.29-.35.5a1,1,0,0,0,.1.47c.11.13.26,0,.35-.09l.18-.17a5.57,5.57,0,0,0-.46.51c0,.14.09.27.14.4s.15.24.27.16a1.5,1.5,0,0,0,.23-.2,3,3,0,0,0-.33.38,1.4,1.4,0,0,0,.24.43.14.14,0,0,0,.25,0l.33-.33a2.56,2.56,0,0,0-.39.48c0,.18.17.29.27.4a.16.16,0,0,0,.27,0c.11-.11,0,0,0,.05s.09.23.17.32.19.26.32.16l.27-.28c-.08.11-.22.18-.25.31s.16.18.26.26a.29.29,0,0,0,.38,0,1.5,1.5,0,0,0,.23-.2c-.08.1-.25.22-.18.37s.3.16.45.24.25-.12.36-.2.23-.23.13-.12-.25.2-.18.35.3.13.45.18.21,0,.28-.1l.55-.55a3.17,3.17,0,0,0-.45.52c0,.13.1.19.21.19a.77.77,0,0,0,.65-.15c.15-.13.3-.28.45-.42-.09.12-.25.21-.27.36s.2.14.31.11a1.49,1.49,0,0,0,.87-.4,2,2,0,0,0,.3-.28.13.13,0,0,0,.2.16,4.77,4.77,0,0,0,1.2-1,4.83,4.83,0,0,0,1.2-2.89,4.9,4.9,0,0,0-.22-1.82,4.44,4.44,0,0,0-4.34-3.29Zm0,.53a3.43,3.43,0,0,1,1.56.45,3.08,3.08,0,0,1,.9.66,4.51,4.51,0,0,1,1,1.23,5.1,5.1,0,0,1,.54,1.64,1,1,0,0,1,0,.34,3.76,3.76,0,0,0-.9.88l-.13.2a6.42,6.42,0,0,0-.39-1.49,5,5,0,0,0-2.07-2.26,3.69,3.69,0,0,0-1.4-.51l-.23-.05a12.65,12.65,0,0,0,.95-1c0-.06.05-.12.13-.1Z"/><path id="path6063" d="M150.31,235.91v-.5h.81c1.74,0,2.69-.32,3.06-1,.13-.25.13-.29.16-8.45,0-9.2,0-8.54.51-9.58a3.9,3.9,0,0,1,.74-1c1.47-1.54,3.77-2.24,7.81-2.36l1.29,0v1.12l-.85,0c-2.08.1-3.2.45-4.05,1.26a2.65,2.65,0,0,0-.68.9c-.5,1-.46.26-.48,9.51,0,5.6,0,8.33,0,8.48a1.64,1.64,0,0,0,.75.8,4.6,4.6,0,0,0,2.08.36l1.11,0,0,.48,0,.48H150.31v-.49Zm-40.7-16.12a6.51,6.51,0,0,1-5-4.77,4.75,4.75,0,0,1-.17-1.64,5.61,5.61,0,0,1,.45-2.53,6.6,6.6,0,0,1,3.07-3.33,6.38,6.38,0,0,1,1.66-.57c.32,0,.32,0,0-1.2a56.86,56.86,0,0,0-3.54-10.15,51.74,51.74,0,0,0-3-5.19c-2.5-4-3.21-4.77-4-4.31a1.66,1.66,0,0,0-.42.42c-.21.28-5,9.74-5.79,11.52A32.53,32.53,0,0,0,90,207.32a11.23,11.23,0,0,1-.28,1.2c-.08.07-.15-.23-.44-1.77a31.74,31.74,0,0,0-2.48-7.95c-.44-1-5.09-10.41-5.65-11.46-.47-.87-.91-1.36-1.22-1.36s-.59.16-1,.64a26.7,26.7,0,0,0-2.65,3.85,41.32,41.32,0,0,0-5.55,12c-.35,1.15-1.25,4.41-1.22,4.43L70,207a6.21,6.21,0,0,1,2.55,1.5,6.6,6.6,0,0,1-1.68,10.63,6.23,6.23,0,0,1-7.25-1.34,6.57,6.57,0,0,1-1.65-3,4.78,4.78,0,0,1-.14-1.61A5,5,0,0,1,62,211.7a6.56,6.56,0,0,1,3.77-4.46,5,5,0,0,1,2.34-.44c.94,0,1,0,1-.13l-.51-1.76c-.87-3-1.78-6.74-2.19-9a27.92,27.92,0,0,1-.59-6.22,18.43,18.43,0,0,1,.14-3,42.2,42.2,0,0,1,1.25-5.87,7.9,7.9,0,0,0,.27-1.14,7.57,7.57,0,0,0-1.13.53c-.6.31-1.78.87-2.61,1.25a57.8,57.8,0,0,0-8.58,4.55,24.19,24.19,0,0,0-5.55,4.73,8.34,8.34,0,0,1-.72.79c-.14,0-.17-.18-.09-.8a19.74,19.74,0,0,1,1.38-4.72c1-2.44,2.46-4.74,6.08-9.88a37.18,37.18,0,0,0,2.62-3.87,3.73,3.73,0,0,0-.49-.3l-.44-.26-.93.39c-2.75,1.13-10.65,4.79-15,6.94l-2.41,1.2.47.48a6.32,6.32,0,0,1,1.27,1.75,6.69,6.69,0,0,1,0,5.84,6.31,6.31,0,0,1-9.79,2.12,7,7,0,0,1-2.09-3.36,4.88,4.88,0,0,1-.17-1.67,5,5,0,0,1,.16-1.65,6.52,6.52,0,0,1,5-4.76,7.06,7.06,0,0,1,1.21-.08,5,5,0,0,1,1.44.17A8.35,8.35,0,0,1,39,180l.19.13.14-.33a98.88,98.88,0,0,1,6.9-10.62,34.27,34.27,0,0,1,6.39-6.35,27.09,27.09,0,0,1,10.94-4.86,13.45,13.45,0,0,1,4.5,0c.18,0,.33.06.33,0a4.25,4.25,0,0,0-.24-.53c-1.73-3.45-3.64-9.47-5.11-16.1A78,78,0,0,1,61.17,128a36.1,36.1,0,0,0-1.27-8.47,81.85,81.85,0,0,0-6.78-17.48C50,96.45,46.61,93.27,41.81,91.31A19.66,19.66,0,0,0,30.58,90a14,14,0,0,0-5.93,2.92c-1.52,1.33-2.58,3-3.84,6l-.62,1.47c-.14.31-.18.49-.13.5l.52.09a5.17,5.17,0,0,1,2.73,1.42,5.45,5.45,0,0,1,1.31,5.52,5.35,5.35,0,0,1-3.6,3.49,5,5,0,0,1-1.91.15,5.13,5.13,0,0,1-4.1-2.87,4.71,4.71,0,0,1-.57-2.45,4.54,4.54,0,0,1,.13-1.35,5.32,5.32,0,0,1,4.73-4l.47,0,0-.38a32.17,32.17,0,0,1,.59-3.23,12.59,12.59,0,0,1,4.53-7.15,27.6,27.6,0,0,1,5.48-3.74,25.41,25.41,0,0,1,8.77-2.62,32,32,0,0,1,4.8-.28,37.82,37.82,0,0,1,6.87.59,89.91,89.91,0,0,1,12.92,3.36,11.4,11.4,0,0,0,1.4.41c.17,0,.22-.05.42-.37a3.47,3.47,0,0,1,1.33-1.19A2.28,2.28,0,0,1,68.1,86l.77,0L70,84.76a8.13,8.13,0,0,0,1.36-1.59,1.88,1.88,0,0,1,1-1l.39-.18,0-.23a14.87,14.87,0,0,0-.54-1.46A18.11,18.11,0,0,1,70.7,75a24.48,24.48,0,0,1,.07-4.67,35,35,0,0,1,6-14.93C79.9,50.88,85.11,46,91.71,41.47c4.45-3.07,6.77-4.17,8.77-4.17a6.81,6.81,0,0,1,4,1.43,19.56,19.56,0,0,1,3.16,2.74,28.31,28.31,0,0,1,6.51,9.29A36.41,36.41,0,0,1,117.24,63c.08,1.23.08,5.87,0,8.13-.17,4.51-.19,5.24-.15,5.61s0,.42-.06.54-.09.15.28.41a5.44,5.44,0,0,1,.12,8.54,4.92,4.92,0,0,1-3.16,1.11h-.64l.14.25c.12.2.17.25.33.25a11.4,11.4,0,0,0,1.4-.41,75.13,75.13,0,0,1,16.91-3.87,56.68,56.68,0,0,1,5.83,0c5.63.49,9.61,1.83,13.59,4.58a25.25,25.25,0,0,1,4.92,4.47,14.2,14.2,0,0,1,2.58,7c.09.6.17,1.14.19,1.21s.07.12.78.13a4.08,4.08,0,0,1,1.31.17,5.31,5.31,0,0,1,3.74,4,6.54,6.54,0,0,1,0,2.53,5.41,5.41,0,0,1-3.22,3.67,4.65,4.65,0,0,1-1.86.33,5.11,5.11,0,0,1-4.2-2.15,5.51,5.51,0,0,1-1-3.75,5.13,5.13,0,0,1,.53-1.83,5.3,5.3,0,0,1,3.3-2.78,1.18,1.18,0,0,0,.45-.16c0-.13-1.13-2.76-1.61-3.73a12.2,12.2,0,0,0-9.42-7.26c-4.25-.78-9.6.37-13.88,3s-7.56,7-10.82,14.55a82.42,82.42,0,0,0-4.81,14.85,34.59,34.59,0,0,0-.63,5.48c-.11,2.1-.13,2.38-.28,3.83-.85,8.45-4,20.39-6.79,26l-.21.44a1,1,0,0,0,.33-.05,13.5,13.5,0,0,1,4.51,0,27.7,27.7,0,0,1,8.36,3.15,32.29,32.29,0,0,1,9.12,8.24,103.84,103.84,0,0,1,6.65,10.24c.1.21.19.39.2.4a4.9,4.9,0,0,0,.62-.26,6.21,6.21,0,0,1,4.56-.31,6.54,6.54,0,0,1,4.29,4.57,4.84,4.84,0,0,1,.17,1.67,5,5,0,0,1-.16,1.64,6.43,6.43,0,0,1-6.81,4.82,6.07,6.07,0,0,1-3.81-1.82,6.51,6.51,0,0,1-1.75-3.06,5.21,5.21,0,0,1-.15-1.61,4.7,4.7,0,0,1,.16-1.63,6.91,6.91,0,0,1,2.24-3.5c.24-.2.25-.2.13-.3S135.4,178.11,133,177c-6.22-2.92-11.21-5.16-11.51-5.16a2.25,2.25,0,0,0-.54.26c-.45.25-.46.26-.37.41s1.24,1.84,3.37,4.87c3.4,4.82,4.85,7.36,5.85,10.21.63,1.81,1,3.94.74,4a2.21,2.21,0,0,1-.52-.52,20,20,0,0,0-3.49-3.38,48.56,48.56,0,0,0-10.26-5.89c-.87-.4-2.2-1-2.95-1.41s-1.39-.67-1.41-.66a4.4,4.4,0,0,0,.19.8,48.14,48.14,0,0,1,1.33,6.09,30.43,30.43,0,0,1,0,6.87,91.54,91.54,0,0,1-3.11,13.22c0,.08.07.1.68.14a6.36,6.36,0,0,1,5.73,4.12,5.7,5.7,0,0,1,.41,2.45,4.66,4.66,0,0,1-.17,1.6,6.83,6.83,0,0,1-1.76,3,6.4,6.4,0,0,1-5.53,1.72Zm2-1.73c.58-.62.76-.78.89-.78s.09.08-.56.73c-.4.4-.73.75-.73.77s.15.05.33.05h.32l.81-.83a4,4,0,0,1,1-.88c.16,0,.07.08-.58.74a7.66,7.66,0,0,0-.74.82,1.93,1.93,0,0,0,.46-.1c.42-.13.44-.15,1.42-1.13.55-.55,1.18-1.15,1.41-1.33a2.57,2.57,0,0,0,.92-1.65,6.56,6.56,0,0,0,0-2.72,5.65,5.65,0,0,0-1.7-2.86,5.07,5.07,0,0,0-2-1.19,5.29,5.29,0,0,0-3.47,0,3,3,0,0,0-1.9,1.38,8.5,8.5,0,0,1-.84,1,2.82,2.82,0,0,0-.91,1.52c0,.17,0,.14.41-.27s.46-.44.43-.28a1.85,1.85,0,0,1-.51.67c-.48.49-.48.5-.52.9l0,.4.47-.46c.42-.41.47-.45.47-.31s-.13.29-.47.62-.46.47-.44.73a1.07,1.07,0,0,0,.07.3,2,2,0,0,0,.47-.42c.38-.41.43-.44.43-.3s-.11.27-.43.59-.44.43-.4.67a1.32,1.32,0,0,0,.07.3s.24-.14.49-.39.46-.44.5-.34-.08.23-.42.58l-.47.47.07.22a.53.53,0,0,0,.14.23,2.07,2.07,0,0,0,.48-.45c.35-.38.44-.45.51-.39s0,.16-.41.58-.5.52-.43.66c.17.33.18.33.72-.2s.52-.5.55-.4-.08.23-.46.61l-.5.51.13.17c.07.09.15.17.18.17a4.75,4.75,0,0,0,.58-.55c.42-.43.54-.52.6-.46s0,.18-.46.62a4.32,4.32,0,0,0-.54.61.53.53,0,0,0,.16.21l.16.15.6-.6c.81-.8.93-.72.16.12l-.6.65.18.14.18.15.66-.66c.5-.5.69-.64.77-.61s0,.16-.55.71c-.37.36-.66.68-.66.69a.73.73,0,0,0,.22.16l.22.12.66-.7a3.48,3.48,0,0,1,.77-.69c.06,0,.11,0,.11,0a7.44,7.44,0,0,1-.69.74l-.69.69.19.1a1,1,0,0,0,.27.1,5.22,5.22,0,0,0,.79-.71c.62-.63.93-.86.86-.66a10.07,10.07,0,0,1-.69.78l-.66.71.25.07.25.08.79-.78c.59-.59.81-.77.89-.74s0,.19-.63.78c-.8.79-.81.82-.31.83.2,0,.27,0,1-.76Zm-.91-1.58c-1.84-1.08-2.72-1.92-3-2.93a1.69,1.69,0,0,1,1.55-2.35,1.55,1.55,0,0,1,1.3.72c.14.21.21.21.26,0a1.68,1.68,0,0,1,1.13-1.24,1.56,1.56,0,0,1,1.67.51c.75.85.53,2.36-.57,3.92a17.14,17.14,0,0,1-1.52,1.8l-.77-.43ZM69.06,218c.57-.6.77-.77.9-.77s.07.09-.58.74a5.12,5.12,0,0,0-.7.78,1,1,0,0,0,.38,0l.35,0,.76-.79a4,4,0,0,1,.94-.84c.16,0,.08.07-.55.71a7.47,7.47,0,0,0-.7.79,1.5,1.5,0,0,0,.46-.1c.41-.13.45-.17,1.38-1.11.53-.53,1.13-1.09,1.33-1.24a1.86,1.86,0,0,0,.78-1.13,6.05,6.05,0,0,0,.34-2.28A5.76,5.76,0,0,0,70,207.5a4.18,4.18,0,0,0-1.42-.15,4.6,4.6,0,0,0-2.42.53,1.83,1.83,0,0,0-.84.66c-.19.23-.41.52-.49.64a8.83,8.83,0,0,1-.77.86c-.57.6-.63.69-.76,1.09a4,4,0,0,0-.14.49,1.85,1.85,0,0,0,.46-.39c.41-.41.45-.44.43-.28a2.19,2.19,0,0,1-.52.67l-.49.5,0,.4,0,.4.47-.46c.42-.42.48-.45.48-.31s-.14.29-.47.62-.46.48-.46.67c0,.46.09.45.55-.06s.43-.44.44-.3-.12.27-.44.58-.44.44-.4.68a1.32,1.32,0,0,0,.07.3s.24-.15.49-.39.47-.44.5-.35-.08.23-.43.59l-.46.47.09.23c0,.13.12.24.15.24A3.89,3.89,0,0,0,64,215c.34-.37.44-.45.51-.39s0,.16-.42.58l-.51.51.14.23.14.23.52-.51c.42-.43.52-.5.55-.41s-.08.24-.45.62l-.5.5.16.21.16.2.54-.57c.44-.47.56-.56.62-.5s0,.18-.46.62a4.32,4.32,0,0,0-.54.61.53.53,0,0,0,.16.21l.16.15.6-.6c.39-.39.63-.59.68-.55s-.11.24-.51.67l-.59.62.14.13a.57.57,0,0,0,.2.13A6.32,6.32,0,0,0,66,217c.48-.48.66-.62.74-.59s0,.16-.56.71l-.67.67.24.15.23.14.66-.69c.56-.6.87-.83.87-.65a4.6,4.6,0,0,1-.53.58c-.29.28-.59.6-.66.69l-.12.17.22.1.23.11.72-.72c.66-.66.88-.83.88-.67a6.39,6.39,0,0,1-.65.73c-.36.38-.65.7-.65.72s.11.06.23.1l.24.06.77-.76c.59-.58.8-.76.88-.73s0,.18-.6.75c-.39.39-.71.73-.71.75s.11.07.49.11a5.26,5.26,0,0,0,.83-.77Zm-1.46-1.25c-.09-.1-1.35-2.42-1.87-3.46-.16-.3-.22-.49-.19-.58a36.83,36.83,0,0,1,3.38-3c.13,0,.18.08,1,1.69,1.09,2,1.2,2.26,1.16,2.42a34.82,34.82,0,0,1-3.38,3.07S67.65,216.8,67.6,216.74Zm47.25.64a5.21,5.21,0,0,0,1-1.24,9.31,9.31,0,0,0-.9.83c-.49.5-.9.92-.9.95s.37-.16.79-.54Zm-42.52-.14a4.23,4.23,0,0,0,.92-1.11,17.38,17.38,0,0,0-1.62,1.61C71.52,217.94,71.8,217.74,72.33,217.24Zm-7-8.86a3.43,3.43,0,0,0-.9.79c-.66.71-.54.69.21,0a5.17,5.17,0,0,0,.69-.74Zm42.44.19a4.65,4.65,0,0,0-1.15,1.15,6.12,6.12,0,0,0,.59-.54A5.7,5.7,0,0,0,107.79,208.57ZM70,201.8c.32-.27.72-1.12,1.55-3.33a41.8,41.8,0,0,1,4.22-8.32,23.77,23.77,0,0,1,3.31-4.6,16.63,16.63,0,0,1,4.36-3,28.71,28.71,0,0,0,3.89-2.58,5.28,5.28,0,0,0,1.61-2.08c.31-.69.52-1.67.33-1.55s0,0,0-.11a.62.62,0,0,0,.06-.45l0-.29-.61.6c-.38.38-.64.59-.7.57s.07-.21.58-.75c.69-.71.7-.73.65-1a1.08,1.08,0,0,0-.07-.28,11.29,11.29,0,0,0-1,1c-.78.8-1,1-1.16,1s0-.17,1-1.16c1.26-1.26,1.37-1.43.92-1.43-.24,0-.29,0-1.47,1.26-.93,1-1.26,1.27-1.37,1.27s.06-.22,1.06-1.25c.67-.68,1.21-1.27,1.21-1.29s-.13-.06-.3-.06h-.3l-1.22,1.24a6.7,6.7,0,0,1-1.34,1.23c-.08,0,.19-.33,1.08-1.26,1.26-1.3,1.27-1.32.8-1.33-.17,0-.32.14-1.39,1.21-.89.9-1.24,1.21-1.33,1.19s.14-.28,1.08-1.24a7.07,7.07,0,0,0,1.12-1.25l-.3-.06c-.22,0-.23,0-1.4,1.18-1,1-1.2,1.21-1.29,1.18s.08-.25,1-1.23c1.22-1.24,1.22-1.23.79-1.31-.19,0-.24,0-1.35,1.14-.83.86-1.17,1.17-1.24,1.15s.16-.32,1-1.17c.6-.62,1.09-1.16,1.1-1.19s-.1-.09-.22-.12l-.23-.05-1.13,1.12c-1,1-1.28,1.23-1.28,1.06s.48-.55,1.06-1.14,1-1.09,1-1.11a.57.57,0,0,0-.25-.11l-.25-.08-1.09,1.13a7.35,7.35,0,0,1-1.2,1.12c-.07,0-.12,0-.12,0s.49-.54,1.08-1.13,1.09-1.1,1.09-1.13a.6.6,0,0,0-.26-.12l-.26-.08L81.65,174c-.91.94-1.22,1.22-1.34,1.22s0-.11.62-.79l1.24-1.26.46-.48-.25-.1-.24-.11L80.65,174A12.17,12.17,0,0,1,79,175.57c-.17.06.06-.21,1.15-1.33.75-.78,1.45-1.49,1.56-1.59a.83.83,0,0,0,.19-.24.53.53,0,0,0-.21-.15l-.22-.1-1.65,1.7c-.92.93-2,2.06-2.47,2.52s-1.09,1.07-1.44,1.38S74.7,178.9,74,179.62s-2.59,2.74-4.3,4.49l-3.1,3.17,0,.35a2.08,2.08,0,0,0,0,.38s.67-.65,1.46-1.46c3.4-3.46,3.55-3.6,3.39-3.29A27.73,27.73,0,0,1,68.92,186l-2.37,2.42,0,.39,0,.38,2.08-2.1c1.67-1.69,2.06-2.05,2-1.83a20.92,20.92,0,0,1-2.08,2.26l-1.94,2v.74l1.71-1.75c.94-1,1.72-1.73,1.74-1.72s-.31.56-1.78,2.06l-1.67,1.7v.7L68,189.7c1.3-1.32,1.65-1.6,1.33-1.09,0,.06-.69.74-1.42,1.49l-1.34,1.37v.32a.67.67,0,0,0,0,.31s.62-.57,1.31-1.28c1-1,1.25-1.25,1.22-1.11a9,9,0,0,1-1.28,1.46l-1.24,1.27,0,.27a.74.74,0,0,0,.06.29,13.78,13.78,0,0,0,1.12-1.07c.94-1,1.08-1.07,1-.88a5.68,5.68,0,0,1-1.08,1.24c-.94.94-1,1-1,1.24,0,.5,0,.49,1-.5.5-.51.93-.93.94-.93s0,.07,0,.16a7.38,7.38,0,0,1-.93,1.08c-.88.93-.89.93-.84,1.16a1.78,1.78,0,0,0,.07.28,5.33,5.33,0,0,0,.83-.77c.66-.68.8-.8.8-.68s-.21.37-.8,1l-.8.82.06.24a2.26,2.26,0,0,1,0,.31,5.3,5.3,0,0,0,.69-.62c.58-.58.68-.66.68-.53s-.18.33-.65.81l-.65.65.06.24a1,1,0,0,0,.09.27,2.53,2.53,0,0,0,.63-.57c.5-.54.58-.6.58-.47s-.1.26-.35.5-.45.46-.58.62-.24.29-.17.55l.06.26.52-.51c.46-.46.52-.5.52-.36s-.14.29-.49.64l-.49.48.07.26a1.53,1.53,0,0,0,.08.28,2.33,2.33,0,0,0,.49-.43c.61-.6.63-.42,0,.25l-.44.48.07.27.07.26.43-.43c.38-.37.43-.41.43-.27s-.13.27-.38.54l-.39.38.08.25c0,.14.09.25.12.25a2.37,2.37,0,0,0,.36-.32c.27-.26.33-.3.33-.2a1.33,1.33,0,0,1-.31.48c-.31.35-.32.36-.24.55a1.54,1.54,0,0,0,.1.23s.16-.11.33-.28.31-.29.31-.14a.66.66,0,0,1-.25.39c-.27.26-.28.32-.18.56s.16.2.4,0,.33-.08.06.24l-.2.24.14.18c.14.17.15.17.26.07s.22-.13.18.09,0,.19.15.16a1,1,0,0,0,.29-.12Zm40.16-.12c.72-.72,1.68-3.8,2.28-7.31a24.24,24.24,0,0,0,.38-4.33,20,20,0,0,0-.57-5,16.54,16.54,0,0,0-4.23-7.95c-.28-.31-.84-1-1.25-1.43a22,22,0,0,0-5-4.05c-1-.67-1.18-.81-1.23-1a1.83,1.83,0,0,0-.57.31,18.64,18.64,0,0,1-7.72,2.93l-.47.07-.91.91-.9.91v.74l.74-.74c.53-.53.74-.71.74-.62a4.14,4.14,0,0,1-.72.88c-.69.73-.71.77-.67,1a.52.52,0,0,0,.09.25,3.16,3.16,0,0,0,.7-.62c.55-.58.64-.65.66-.52s-.13.28-.62.78l-.64.63.09.25a.53.53,0,0,0,.12.25s.3-.27.64-.6.6-.57.6-.46a2.41,2.41,0,0,1-.56.72l-.56.58.1.19c0,.11.12.19.15.19a4.67,4.67,0,0,0,.61-.57c.47-.47.57-.55.61-.46s-.09.25-.53.69c-.61.61-.63.66-.34.9.08.07.16,0,.65-.47s.57-.53.61-.49-.13.27-.49.66l-.55.59.19.14.19.14.55-.55c.43-.43.56-.53.62-.47s0,.19-.47.63l-.54.54.21.17.2.17.51-.54c.37-.39.53-.53.61-.5s0,.16-.43.6l-.55.56.21.16.21.15.54-.54c.43-.43.56-.53.62-.47s0,.19-.45.61l-.52.52.15.12a.6.6,0,0,0,.22.12,2.86,2.86,0,0,0,.57-.5c.38-.39.52-.49.61-.46s0,.12-.4.55a3.64,3.64,0,0,0-.5.57s.08.12.19.18l.19.11.54-.52c.7-.7.84-.64.19.07a6.42,6.42,0,0,0-.49.58.41.41,0,0,0,.19.14l.19.1.54-.53c.41-.41.55-.51.62-.47s0,.16-.42.58A2.2,2.2,0,0,0,95,182a.61.61,0,0,0,.23.14l.19.08.48-.51c.38-.42.5-.51.59-.48s0,.12-.4.57-.52.53-.4.62c.28.21.33.19.87-.35.35-.34.54-.49.58-.45s-.09.23-.4.56a4.87,4.87,0,0,0-.46.54s.08.08.19.14l.19.1.51-.5c.38-.39.52-.49.59-.44s0,.15-.38.54a4.34,4.34,0,0,0-.48.51.61.61,0,0,0,.22.15l.23.12.45-.48c.34-.37.47-.48.56-.45s0,.13-.37.53l-.49.48.19.13a.71.71,0,0,0,.24.14,3.91,3.91,0,0,0,.51-.47c.36-.35.49-.44.56-.4s0,.15-.38.54l-.48.48.2.13.2.14.47-.46c.35-.35.49-.45.57-.42s0,.12-.37.53a3.06,3.06,0,0,0-.45.5l.21.16.18.14.48-.48c.61-.61.71-.5.13.14l-.44.48.19.15.18.15.45-.44c.43-.42.6-.53.6-.36a2.69,2.69,0,0,1-.45.52l-.44.45.17.15a.61.61,0,0,0,.22.16,3.46,3.46,0,0,0,.46-.46c.35-.39.44-.46.51-.4s0,.16-.39.56l-.48.48.18.19.18.19.48-.48c.38-.38.5-.46.56-.4s0,.18-.41.57l-.5.49.17.18.17.18.48-.49c.38-.39.49-.47.56-.41s0,.16-.42.57l-.5.51.14.18.16.21a3.86,3.86,0,0,0,.51-.46c.32-.32.51-.47.55-.43s-.1.24-.42.58l-.48.53.13.2.13.2.51-.51c.41-.41.52-.49.57-.42s-.06.21-.44.6l-.5.5.11.19c.06.11.15.2.18.2a2.67,2.67,0,0,0,.53-.47c.29-.31.47-.45.51-.41s-.1.24-.41.58a3.81,3.81,0,0,0-.47.57.48.48,0,0,0,.12.22l.12.16.48-.48a4.5,4.5,0,0,1,.53-.48c.15,0,0,.27-.42.68l-.48.48.1.19a1,1,0,0,0,.16.22,2,2,0,0,0,.53-.47c.37-.4.48-.5.53-.42s-.07.22-.44.6-.5.53-.41.65a1.83,1.83,0,0,0,.13.22c0,.07.18,0,.54-.4s.5-.47.55-.39-.06.21-.43.59l-.5.49.13.2a.62.62,0,0,0,.17.2,4.62,4.62,0,0,0,.49-.47c.36-.4.46-.47.51-.39s0,.19-.42.57l-.47.48.1.21c.06.12.13.22.16.22a3.72,3.72,0,0,0,.48-.43,3.31,3.31,0,0,1,.47-.43c.16,0,0,.27-.38.65a3.56,3.56,0,0,0-.43.46,1.19,1.19,0,0,0,.12.24l.13.21.42-.46c.35-.37.44-.44.51-.38s0,.17-.38.54l-.46.46.12.22a.73.73,0,0,0,.16.22,5.42,5.42,0,0,0,.43-.4,2.76,2.76,0,0,1,.45-.4c.15,0,0,.27-.36.62a4,4,0,0,0-.4.43,1,1,0,0,0,.12.23l.12.2.42-.44c.35-.36.43-.41.46-.32s-.06.22-.36.53-.41.41-.33.6a.61.61,0,0,0,.14.23s.24-.14.45-.35.39-.36.43-.28-.08.23-.36.52l-.4.41.1.19a1.33,1.33,0,0,0,.12.21,2.49,2.49,0,0,0,.41-.36c.33-.33.4-.37.44-.28s-.06.21-.34.49-.39.39-.31.58a.77.77,0,0,0,.14.23s.22-.12.42-.32.36-.33.39-.25-.08.23-.32.48l-.36.39.09.24.09.23.37-.35c.3-.3.36-.34.4-.25s-.06.21-.32.47l-.35.36.11.21a.93.93,0,0,0,.13.23,1.42,1.42,0,0,0,.35-.3c.26-.25.34-.3.37-.23s-.08.23-.3.47l-.34.36.1.23.1.24.32-.33c.28-.27.34-.3.37-.21s0,.2-.28.43l-.32.33.07.25a.66.66,0,0,0,.12.25,1.89,1.89,0,0,0,.34-.29c.27-.27.3-.28.3-.14a.9.9,0,0,1-.28.43l-.29.29.1.23.1.24.26-.26a1.4,1.4,0,0,1,.31-.25c.12,0,0,.24-.22.47l-.25.27.08.25a.6.6,0,0,0,.12.25,2.08,2.08,0,0,0,.26-.23c.24-.23.24-.23.24-.08a.57.57,0,0,1-.21.36l-.21.2.1.25.09.24.21-.2.21-.2v.16a.5.5,0,0,1-.16.3l-.15.14.13.24c.12.24.13.25.24.14s.12-.1.12.05a.37.37,0,0,1-.06.21c-.1.09.39.52.59.52a.72.72,0,0,0,.41-.26Zm34.64-11.34c.66-.69.89-.89,1-.91s.09.07-.67.82a5.86,5.86,0,0,0-.81.9,1,1,0,0,0,.37,0c.33,0,.33-.05,1.29-1a7.6,7.6,0,0,1,1.24-1.12c.24-.13.16,0-.68.84a6.86,6.86,0,0,0-.88,1,3,3,0,0,0,.63-.27,4.16,4.16,0,0,0,1.39-1.16,5.11,5.11,0,0,0,1.09-1.38,5.38,5.38,0,0,0,.57-2.53,5.11,5.11,0,0,0-.57-2.53,5.53,5.53,0,0,0-7.47-2.62,5.82,5.82,0,0,0-2.47,2.44,2.51,2.51,0,0,0-.16.37,1.88,1.88,0,0,0,.44-.38c.24-.24.42-.38.4-.32a.74.74,0,0,0,0,.18,5.06,5.06,0,0,1-.54.63c-.51.52-.55.59-.62.93a1.15,1.15,0,0,0,0,.4,1.61,1.61,0,0,0,.45-.41,4.08,4.08,0,0,1,.45-.45c.13,0-.09.35-.51.79l-.49.52v.7l.5-.49c.44-.44.49-.48.49-.34s-.13.29-.49.64-.49.5-.46.71c.06.42.07.42.57-.07a4,4,0,0,1,.52-.48c.13,0,0,.19-.45.69l-.5.54.08.26.07.25L139,187c.42-.42.53-.5.58-.43s-.07.22-.47.63l-.53.53.09.23c.05.12.12.22.15.22a5.25,5.25,0,0,0,.57-.52c.72-.72.78-.57.08.2l-.54.58.12.21.12.22.6-.6c.48-.48.63-.59.69-.53s0,.2-.54.69l-.61.61.15.19a1,1,0,0,0,.19.19,8.43,8.43,0,0,0,.65-.65c.46-.5.62-.63.68-.58s-.05.21-.54.71a7,7,0,0,0-.62.7s.08.12.17.19l.17.13.68-.68c.65-.64.84-.79.84-.61a7.05,7.05,0,0,1-.68.76l-.69.7.22.13.22.14.73-.75c.58-.6.75-.75.84-.71s0,.17-.64.8l-.76.76.21.13a1.49,1.49,0,0,0,.25.13,9.62,9.62,0,0,0,.82-.81c.55-.57.8-.79.87-.76s-.08.23-.67.85c-.75.78-.77.81-.64.89.28.15.37.09,1.2-.73.57-.58.85-.81.93-.79s-.06.2-.68.84a6.64,6.64,0,0,0-.77.86,1.12,1.12,0,0,0,.27.08l.22,0,.84-.86c.66-.67.88-.86,1-.86s.05.11-.69.86c-.57.56-.83.87-.78.89a1.25,1.25,0,0,0,.34,0c.26,0,.28,0,1.1-.88Zm-.11-1.43a2.7,2.7,0,0,0-.08-1.41c-.08-.16-.17-.29-.2-.28a3.22,3.22,0,0,0-.36.39,1.65,1.65,0,0,1-2,.6c-.79-.36-1-.94-.81-2.27.1-.69.68-3.6.73-3.64s3.44,1.14,3.93,1.38a1.5,1.5,0,0,1,1,2,1.77,1.77,0,0,1-1.41,1.17c-.64.09-.67.14-.35.53a1.89,1.89,0,0,0,1,.65l.29.07-.43.28c-.24.16-.63.39-.87.52l-.42.23.05-.18ZM36.42,190.12c.55-.55.78-.74.9-.74s0,.1-.56.71a6.38,6.38,0,0,0-.68.74,1.31,1.31,0,0,0,.37,0c.34-.05.36-.06,1.09-.8.55-.56.78-.75.89-.75s.06.09-.52.67a4.93,4.93,0,0,0-.64.72,3,3,0,0,0,.86-.29,8.31,8.31,0,0,0,.85-.8,7.83,7.83,0,0,1,.92-.86c.21-.12.2-.1-.15.29-.21.23-.48.52-.6.63a1,1,0,0,0-.22.27c0,.1.55-.34,1-.75A5.79,5.79,0,0,0,39.8,181a5.48,5.48,0,0,0-5.65-1.33,2.21,2.21,0,0,0-1.29.92c-.22.27-.79.88-1.25,1.36-.73.75-.87.92-1,1.21-.26.76-.26.77.39.13s.59-.57.52-.38a3.08,3.08,0,0,1-.63.79c-.55.56-.56.57-.59.91s0,.35,0,.35a3.7,3.7,0,0,0,.53-.51c.41-.44.47-.49.43-.33a2.39,2.39,0,0,1-.53.7c-.4.43-.48.55-.48.72,0,.45.05.45.56-.06s.48-.45.51-.35-.09.24-.46.61a2.44,2.44,0,0,0-.49.58,1.13,1.13,0,0,0,.07.3l.07.2.48-.47a6.51,6.51,0,0,1,.51-.47c.13,0,0,.21-.44.68l-.48.52.09.24.1.24.5-.5c.4-.39.52-.48.58-.42s0,.19-.45.6l-.53.53.12.2c.07.11.15.2.18.2a3.34,3.34,0,0,0,.53-.5c.35-.36.5-.48.53-.42s-.11.25-.44.6a5.62,5.62,0,0,0-.49.57.68.68,0,0,0,.13.21l.14.17.56-.56c.45-.45.59-.55.65-.49s-.05.2-.5.65l-.57.57.15.16a.47.47,0,0,0,.21.16,3.8,3.8,0,0,0,.6-.57c.42-.45.55-.56.64-.52s0,.13-.48.65l-.61.6.2.17.2.17.66-.65c.43-.43.68-.64.73-.61s-.12.26-.55.72c-.66.7-.65.67-.34.85.1.06.21,0,.81-.62s.71-.67.78-.63,0,.2-.59.74l-.68.68.23.1a1.37,1.37,0,0,0,.29.09,6.16,6.16,0,0,0,.71-.7c.53-.56.69-.7.79-.67s0,.13-.56.72a9.88,9.88,0,0,0-.69.73.65.65,0,0,0,.26.11l.26.07.75-.75c.47-.47.77-.72.82-.69s-.14.27-.57.73-.65.7-.65.72.09.05.2.06l.27,0a6.14,6.14,0,0,0,.8-.73Zm-2.08-1.92a8.14,8.14,0,0,1-.76-.49c-.11-.1-.1-.11.18-.18.66-.17,1.26-.82,1.21-1.31,0-.23-.06-.23-.44-.08a1.59,1.59,0,0,1-2-.56,1.3,1.3,0,0,1-.21-.74,1.12,1.12,0,0,1,.16-.78,1.57,1.57,0,0,1,2.72-.09,1,1,0,0,0,.27.27,1.4,1.4,0,0,0,0-.48,1.73,1.73,0,0,1,.51-1.53,1.22,1.22,0,0,1,.65-.4,1.5,1.5,0,0,1,1.86,1.52,1.73,1.73,0,0,1-1.15,1.58c-.21.11-.38.22-.36.24a.73.73,0,0,0,.33.08,1.66,1.66,0,0,1,1.56,1.64,1.33,1.33,0,0,1-.38,1,1.43,1.43,0,0,1-1.5.45,1.66,1.66,0,0,1-1.14-1.51c0-.27-.06-.33-.15-.33-.47,0-.86,1.06-.65,1.75.07.22.07.29,0,.29a6.08,6.08,0,0,1-.72-.37Zm40.17-9.26c3.67-3.75,6.67-6.84,6.67-6.87s-.1-.1-.21-.15l-.21-.1-6.93,7.08c-3.81,3.9-7,7.12-7,7.16a2.17,2.17,0,0,0-.08.44l0,.37.56-.55,7.22-7.38Zm-1.31.31c3.42-3.5,6.48-6.63,6.79-7l.58-.6-.19-.1a.85.85,0,0,0-.25-.09s-3,3-6.52,6.6c-5.63,5.75-6.47,6.63-6.53,6.85a2.23,2.23,0,0,0-.12.65s2.82-2.86,6.24-6.35Zm.39-1.42c3.44-3.52,6.26-6.44,6.27-6.48s-.07-.12-.18-.18l-.2-.11-.38.39c-1.41,1.43-11.19,11.45-11.35,11.63a1.69,1.69,0,0,0-.35.69,1.67,1.67,0,0,0-.11.47s2.86-2.89,6.3-6.41Zm0-1c3.12-3.19,5.68-5.82,5.68-5.86s-.08-.11-.18-.18l-.18-.13-5.35,5.48c-5.24,5.35-5.35,5.48-5.52,5.89-.25.64-.26.65-.19.63s2.62-2.64,5.74-5.83Zm-40.66,3.53c0-.16-1.11.84-1.46,1.32a1.42,1.42,0,0,0-.21.34,8.29,8.29,0,0,0,.83-.78A11.71,11.71,0,0,0,32.92,180.33Zm40.6-4.49c2.38-2.43,4.31-4.43,4.29-4.44a8,8,0,0,0-1,.64c-1,.66-1,.67-4,3.81-2,2.08-3.17,3.29-3.37,3.59a10.48,10.48,0,0,0-.82,1.37s.14-.08.31-.25l4.61-4.72Zm-.2-.83a14.13,14.13,0,0,0,1.14-1.24A12.7,12.7,0,0,0,72,176.32S72.62,175.73,73.32,175Zm-27.18.63c1.47-.3,3.67-1.13,8.53-3.2,3.86-1.65,5.36-2.25,6.73-2.7l1.27-.42a32.22,32.22,0,0,0,3.24-3.17c1.66-1.71,3.36-3.44,3.77-3.85l.74-.76-.1-.22c-.06-.13-.13-.22-.16-.21s-1.51,1.51-3.29,3.33c-3.22,3.3-4.55,4.64-4.41,4.45s.12-.2.18-.32,1.68-1.82,3.6-3.78,3.56-3.65,3.64-3.74.15-.19,0-.37a.48.48,0,0,0-.15-.19s-1.58,1.57-3.46,3.49-3.43,3.5-3.44,3.5,0-.06,0-.13S64.29,165.72,69,161l.71-.72-.14-.23c-.13-.22-.14-.22-.25-.11-1.45,1.52-6.59,6.73-6.61,6.72s0-.06,0-.11S64.12,164.9,66,163l3.33-3.4-.1-.22c-.06-.12-.12-.21-.15-.21s-1.53,1.53-3.36,3.4A47.19,47.19,0,0,1,62.25,166c-.08,0-.08,0,0-.17s3.65-3.76,6-6.2l.62-.63-.12-.21c-.07-.11-.13-.2-.15-.2s-1.38,1.37-3,3.06l-3.42,3.49c-.31.32-.44.41-.51.37s.63-.8,3.3-3.52c1.87-1.91,3.4-3.49,3.4-3.51s-.14-.05-.32-.05h-.32l-3.29,3.36c-1.8,1.84-3.33,3.36-3.39,3.37s-.11,0-.11,0,1.46-1.55,3.24-3.36l3.23-3.31-.34,0-.33,0-2.2,2.25c-4,4.1-4.19,4.28-4.31,4.24s.47-.63,2.58-2.78L66,158.86l.46-.48h-.7l-3.18,3.25a32,32,0,0,1-3.32,3.25c-.12,0,.27-.44,2-2.17,3.17-3.24,4.16-4.27,4.13-4.3a1.24,1.24,0,0,0-.36,0l-.34,0-2.87,2.94-3.13,3.2a1.4,1.4,0,0,1-.47.33c-.18.05-.1-.05.65-.82,4.37-4.46,5.39-5.51,5.41-5.56s-.47,0-.68.06c-.06,0-1.53,1.5-3.28,3.29s-3.22,3.26-3.27,3.29a.72.72,0,0,1-.19,0c-.1,0,.33-.43,3.82-4,1.35-1.37,2.44-2.5,2.42-2.52a2.9,2.9,0,0,0-.44.08l-.42.11L59,162.25a40,40,0,0,1-3.52,3.45c-.23.1-.21.07.37-.53l3.28-3.34c1.46-1.49,2.64-2.73,2.62-2.75a1.37,1.37,0,0,0-.45.08l-.4.12-3.39,3.47c-2.9,3-3.8,3.82-3.9,3.72s1.51-1.58,3.37-3.48,3.35-3.47,3.32-3.48a2.16,2.16,0,0,0-.51.15l-.45.18-3.68,3.76a53.24,53.24,0,0,1-4,4c-.31.17-.26.12.6-.76,3.38-3.44,6.54-6.69,6.52-6.71a3.55,3.55,0,0,0-.56.2l-.53.23-4.46,4.55c-2.93,3-4.71,4.77-5.22,5.19l-.77.65.87-.89c6.6-6.74,8.89-9.09,8.89-9.12a3.72,3.72,0,0,0-.68.32l-.68.36-3.15,3.21-5.53,5.67c-2.37,2.42-2.39,2.44-2.59,2.92-.11.27-.22.53-.24.59s.17-.09.42-.33l.45-.43-.4.49c-.6.74-.63.8-.63,1.21a.75.75,0,0,0,.44.78,4.08,4.08,0,0,0,1.77,0Zm87.83,0c.11-.11.34-.08.27,0s.42.08.66,0c.94-.39.45-2.06-1.42-4.92a26.2,26.2,0,0,0-3.76-4.55,27.07,27.07,0,0,0-12.52-7.27,16.26,16.26,0,0,0-4.87-.56h-1.66l-.29.54a35.49,35.49,0,0,1-3.41,5.16,3.16,3.16,0,0,0-.33.46,1.32,1.32,0,0,0,.32-.27,1.92,1.92,0,0,1,.35-.29c.09.09-.5.74-2.94,3.23-2.66,2.71-2.83,2.9-2.66,2.92.47.05.47.05,2.83-2.37,1.24-1.27,2.26-2.31,2.27-2.3a.6.6,0,0,1,0,.17,20.74,20.74,0,0,1-2.07,2.25c-1.12,1.15-2,2.11-2,2.13s.16,0,.35,0l.36-.05,1.64-1.67c.9-.92,1.66-1.67,1.69-1.67.18,0-.13.38-1.41,1.69-.8.82-1.44,1.5-1.43,1.52a1.87,1.87,0,0,0,.41,0l.37-.08,1.33-1.36a7.63,7.63,0,0,1,1.45-1.34c.09,0-.17.32-1.11,1.29-.67.7-1.22,1.28-1.21,1.29a1.64,1.64,0,0,0,.38,0c.36-.07.37-.08,1.61-1.31a10.22,10.22,0,0,1,1.36-1.23c.13,0,0,.09-1.27,1.44a6.65,6.65,0,0,0-.8.88,1.15,1.15,0,0,0,.4,0c.36-.07.36-.08,1.44-1.18.85-.87,1.11-1.1,1.24-1.1s0,.14-.86,1a11.67,11.67,0,0,0-1,1.05.83.83,0,0,0,.37,0l.33,0,1-1c.78-.8,1-1,1.14-1s0,.12-.76.93a8.55,8.55,0,0,0-.89,1,1.14,1.14,0,0,0,.39,0l.35-.05.84-.89c.66-.68.89-.89,1-.89s.06.1-.53.7c-.38.38-.75.77-.84.87l-.15.18.37,0,.38-.05.8-.8c1.07-1.05,1.3-1.08.32,0-.4.42-.72.78-.72.8a.71.71,0,0,0,.32,0c.32,0,.35,0,1-.74s.93-.83.93-.66a7.65,7.65,0,0,1-.66.72l-.67.66h.7l.61-.62c.45-.47.64-.62.76-.62s.09.08-.46.62a6.23,6.23,0,0,0-.59.64,1.25,1.25,0,0,0,.33.06l.29,0,.55-.58c.39-.42.59-.58.69-.58s.07.08-.4.55a2.41,2.41,0,0,0-.51.6,1.11,1.11,0,0,0,.28.09c.25,0,.25,0,.79-.51s.71-.64.71-.49a3.64,3.64,0,0,1-.47.55,5.65,5.65,0,0,0-.46.53.93.93,0,0,0,.26.06c.26,0,.27,0,.76-.46s.53-.48.61-.45,0,.12-.37.52l-.48.48.25.07.3.07a2.73,2.73,0,0,0,.49-.47c.34-.37.46-.46.55-.42s0,.11-.33.49l-.45.46.17.06c.32.12.42.08.87-.37.27-.27.46-.41.51-.38s-.06.19-.33.49l-.4.44.25.08.25.07.42-.41c.32-.31.44-.39.51-.35s0,.13-.3.45l-.4.4.21.07c.31.11.36.09.73-.31s.37-.36.46-.33.06.1-.27.44l-.39.39.18.06.27.1s.24-.12.46-.34.41-.35.45-.32,0,.16-.26.42l-.34.39.25.07.25.08.36-.35c.27-.27.37-.34.44-.29s0,.12-.24.4l-.34.34.23.09.27.1a2.51,2.51,0,0,0,.33-.32c.22-.25.31-.32.4-.28s.09.08-.17.34a1.58,1.58,0,0,0-.29.34.51.51,0,0,0,.23.14l.22.09.33-.32c.22-.22.35-.31.4-.27s0,.17-.22.38l-.28.32.23.09.24.09.31-.3c.23-.22.33-.29.4-.24s0,.11-.18.33-.27.29-.25.31a.9.9,0,0,0,.41.16.7.7,0,0,0,.33-.26c.17-.19.25-.24.34-.21s.08.07-.15.31l-.27.27.19.1c.27.14.32.13.6-.14s.27-.23.33-.2,0,.11-.14.3a1.83,1.83,0,0,0-.22.28s.1.07.22.11.23.07.46-.16.27-.22.35-.19.07.08-.12.28a1.14,1.14,0,0,0-.23.26.76.76,0,0,0,.26.12l.25.09.2-.24c.14-.17.22-.22.3-.19s.09.08-.12.28l-.23.24.23.09c.29.13.28.13.51-.09s.24-.19.31-.16.08.07-.1.26l-.2.21.22.1.23.11.21-.2c.14-.13.24-.18.31-.16s.08.07-.09.25l-.2.2.23.1c.31.13.31.13.49-.08s.17-.16.23-.13.06.08,0,.2a.59.59,0,0,0-.14.19.54.54,0,0,0,.23.13c.22.1.23.1.39-.06s.2-.14.27-.11.09,0-.05.2l-.16.17.24.1c.24.09.25.09.4-.06s.18-.14.26-.1.09.07,0,.17-.16.19.12.28.26.08.41-.06.17-.13.22-.08,0,.09,0,.14-.11.18.14.28.23.09.36,0,.34-.17.34-.07a.22.22,0,0,1-.1.13c-.14.12-.11.17.13.25s.24.06.37-.06.19-.13.25-.1.1,0,0,.18l-.13.15.29.08c.27.08.3.07.4-.05s.3-.19.3-.08a.33.33,0,0,1-.09.13c-.14.12-.11.17.16.25s.26.06.39-.06.35-.18.35-.08a.24.24,0,0,1-.09.13c-.15.12-.12.17.15.24s.25,0,.39-.1.2-.14.27-.11.09,0,0,.15-.13.18.07.21.35.05.46-.05ZM91.27,174a2,2,0,0,0-.4,0,.63.63,0,0,0-.48.31,1.53,1.53,0,0,0-.35.93c0,.09.19-.07.68-.56s.66-.68.55-.7Zm-1,.12a.07.07,0,0,0-.07-.07.07.07,0,0,0-.06.07.06.06,0,0,0,.06.06A.07.07,0,0,0,90.29,174.1Zm-1.59-.43c.19-.2.21-.24.13-.28a.64.64,0,0,0-.69.16.8.8,0,0,0-.21.25s.11,0,.23.07l.27,0s.14-.1.27-.23Zm1,0a1.08,1.08,0,0,0,.2-.24s-.14-.05-.32-.05a.58.58,0,0,0-.57.24l-.25.25h.37C89.47,173.91,89.53,173.89,89.71,173.71Zm1.07-.09.28-.28-.4,0a.76.76,0,0,0-.65.28l-.25.25h.37c.37,0,.39,0,.65-.29Zm1.14-.14a1.7,1.7,0,0,0,.35-.4,2.24,2.24,0,0,0-.45.07,1.21,1.21,0,0,0-.71.4l-.29.3h.36c.35,0,.36,0,.74-.37Zm-4.09.07c.13-.14.21-.26.18-.27a1.39,1.39,0,0,0-.3-.08c-.24,0-.26,0-.49.23l-.24.26.18,0c.36.08.44.06.67-.18Zm4.67.11c.26,0,.37-.13.82-.59a3,3,0,0,0,.49-.54,2.12,2.12,0,0,0-.54.17,1.69,1.69,0,0,0-.89.61C92,173.75,92,173.77,92.5,173.66Zm-5.5-.27c.19-.2.25-.29.18-.31L86.9,173c-.18-.05-.21,0-.46.21s-.25.29-.23.31a1.57,1.57,0,0,0,.49.15,2.61,2.61,0,0,0,.3-.27Zm-.87-.18a2.34,2.34,0,0,0,.26-.31s-.07-.09-.19-.14-.23-.07-.51.21a1.82,1.82,0,0,0-.3.33,1,1,0,0,0,.45.17A1.12,1.12,0,0,0,86.13,173.21Zm7.63.17c.3-.09.42-.18,1.09-.85a10.51,10.51,0,0,0,.76-.79,2.25,2.25,0,0,0-.6.23,2.8,2.8,0,0,0-1.19.89c-.31.34-.53.62-.48.62l.42-.1Zm-8.36-.44a1.82,1.82,0,0,0,.3-.33.53.53,0,0,0-.25-.12l-.26-.09-.26.31c-.32.36-.33.42-.15.47S85.11,173.23,85.4,172.94Zm9.72,0c.37-.12.47-.2,1.29-1a15.94,15.94,0,0,0,1.69-1.81l-.71.47c-.35.23-.71.46-.82.51a17.85,17.85,0,0,0-1.9,2,3.32,3.32,0,0,0,.45-.14Zm-10.46-.28a1.44,1.44,0,0,0,.3-.36s-.1-.1-.23-.15l-.22-.08-.33.33a1.84,1.84,0,0,0-.34.38c0,.07.24.16.4.17A1,1,0,0,0,84.66,172.69Zm-.7-.33a2.83,2.83,0,0,0,.31-.39l-.22-.12-.19-.1-.39.4a2.57,2.57,0,0,0-.37.42,1.5,1.5,0,0,0,.43.16,1.47,1.47,0,0,0,.43-.37Zm12.92-.09c.43-.19.58-.34,6.28-6.17,3.22-3.29,5.88-6,5.91-5.94s.05,0,0,0,0-.11.08-.17a9.08,9.08,0,0,0,.91-1.62s-6.18,6.25-6.52,6.66a35.41,35.41,0,0,1-2.52,2.66,54.89,54.89,0,0,0-4.76,4.86l.59-.25Zm-13.63-.21c.2-.2.34-.39.32-.42a.59.59,0,0,0-.23-.15c-.2-.08-.2-.08-.56.32a3.31,3.31,0,0,0-.36.44c0,.05.25.17.37.17a1.42,1.42,0,0,0,.46-.36Zm-.66-.34c.41-.41.42-.42.08-.59-.13-.07-.17,0-.54.31a2.36,2.36,0,0,0-.39.46c0,.08.22.21.37.21a1.49,1.49,0,0,0,.48-.39Zm7.39-.38.77-.77H90l-.7.73c-.68.7-.7.73-.54.76C89.15,172.15,89.19,172.13,90,171.34Zm1.11-.11c.47-.48.85-.89.84-.9a2.07,2.07,0,0,0-.39.06c-.34.07-.39.11-1.15.85a10.47,10.47,0,0,0-.79.83s.15.05.32.05h.32Zm.14.73c.2,0,.38-.2,1.33-1.19a11.66,11.66,0,0,0,1-1.11,4.18,4.18,0,0,0-2,1.39,11.62,11.62,0,0,0-.92,1s.07,0,.17,0l.4-.07Zm-42.38-3.79,4.82-4.92c.59-.6,1.06-1.11,1-1.12A13,13,0,0,0,53,163.24c-.14.12-1.72,1.72-3.52,3.55-3.28,3.36-3.45,3.55-4.18,4.73-.24.4-.27.47-.22.47s1.7-1.72,3.76-3.82ZM89,171.33a9.33,9.33,0,0,0,.67-.71s-.15-.05-.34-.05H89l-.6.63a6.26,6.26,0,0,0-.59.67s.17.1.4.11.36-.22.79-.65Zm-7.08,0,.4-.42-.15-.12a1,1,0,0,0-.22-.12,3.64,3.64,0,0,0-.86.91.93.93,0,0,1,.19.12.34.34,0,0,0,.18.07,2.48,2.48,0,0,0,.46-.44Zm6.2-.13c.34-.35.55-.61.52-.65a.66.66,0,0,0-.29-.07c-.22,0-.27,0-.79.53a3.36,3.36,0,0,0-.54.62c0,.06.24.14.42.15a3.45,3.45,0,0,0,.68-.58Zm4.37.4c.36-.12.44-.2,1.88-1.67.83-.85,1.48-1.55,1.46-1.55s-.35.19-.73.42a7.68,7.68,0,0,0-1.86,1.56c-.64.63-1.19,1.2-1.23,1.26s0,.14.48,0Zm6.87-.74a26.28,26.28,0,0,0,3.9-3.31c.86-.86,2.1-2.21,2.38-2.6,0-.07-.94.91-2.2,2.17s-2.48,2.44-2.72,2.62l-.43.33.28-.3c.25-.26,5.58-5.74,6.09-6.24.1-.1.16-.15.14-.11-.11.19,0,0,.38-.41s1.41-2,1.75-2.56c.2-.34.1-.28-.14.08-.12.17-2.37,2.51-5,5.21l-5.29,5.42-.49.53.37-.21c.2-.11.65-.39,1-.62ZM87.27,171c.28-.29.51-.55.52-.57s-.09-.07-.22-.11l-.25-.06-.53.53a7,7,0,0,0-.53.58c0,.06.24.16.39.17a2.21,2.21,0,0,0,.62-.54Zm-6,0a2.42,2.42,0,0,0,.42-.48s-.08-.12-.19-.18l-.2-.12-.42.45a4.78,4.78,0,0,0-.42.49.93.93,0,0,0,.37.25A5.56,5.56,0,0,0,81.25,171Zm5.24-.22a5.63,5.63,0,0,0,.51-.55s-.1-.09-.23-.15l-.23-.1-.51.55a6.69,6.69,0,0,0-.51.58,1,1,0,0,0,.4.17,3.11,3.11,0,0,0,.57-.5Zm7.59.21c.47-.22.55-.29,2.68-2.48A25.37,25.37,0,0,1,99.34,166c.43-.27.41-.25-2.89,3.09a13.53,13.53,0,0,0-1.23,1.32,10.34,10.34,0,0,0,1.24-.66c.1-.07,1.28-1.24,2.62-2.61s2.56-2.57,2.74-2.67a1,1,0,0,1,.3-.16s-1,1-2.2,2.28-2.18,2.25-2.17,2.26a18.25,18.25,0,0,0,2-1.62,34.52,34.52,0,0,0,6-7c1.51-2.43,3-5.87,4.83-11.42,3.36-10,4.76-17.64,4-21.81-.06-.29-.32-1.18-.59-2s-.66-2.12-.89-2.94a18.13,18.13,0,0,0-2.36-5.93c-1.81-2.69-4.67-4.08-8.67-4.22-4.87-.17-8,1.71-10.16,6.07a22.8,22.8,0,0,0-2.1,7.71,6.92,6.92,0,0,1-.25,1.59,9.13,9.13,0,0,1-.16-1,24.25,24.25,0,0,0-2.26-8.44c-2-3.93-4.76-5.73-9-5.89a11.52,11.52,0,0,0-8.42,2.67,10,10,0,0,0-2.24,3.19,24.17,24.17,0,0,0-1.4,4.14c-.26.94-.67,2.31-.92,3.06a12.34,12.34,0,0,0-.78,5.56c.28,5,1.78,11.37,4.63,19.59,2,5.63,3.34,8.67,5.15,11.26a17.66,17.66,0,0,0,2,2.44c.08,0,.11.06.09.1s0,.15.12.25.19.17.28.09a.14.14,0,0,1,.19,0c.08.05.07.07,0,.16s-.1.12,0,.28.23.22.39,0,.16-.13.22-.09.06.09-.09.25l-.18.18.18.19.18.19.23-.23c.16-.16.27-.21.34-.18s.07.08-.15.3l-.26.26.17.17.17.17.28-.28c.21-.2.32-.27.4-.24s.06.09-.21.36l-.31.32.18.18.19.18.36-.36c.25-.24.38-.33.41-.28s0,.17-.19.33c-.43.45-.43.45-.23.62l.18.15.38-.37c.28-.28.41-.37.49-.34s0,.12-.31.47l-.42.42.17.13a.7.7,0,0,0,.23.13,2,2,0,0,0,.45-.41c.3-.33.39-.4.48-.35s0,.12-.33.49a3.56,3.56,0,0,0-.43.46.63.63,0,0,0,.19.18l.19.14.48-.47c.31-.31.5-.45.55-.42s-.06.2-.39.55-.45.51-.35.59.26.2.77-.31.53-.49.6-.45,0,.16-.42.58l-.52.52.17.13a.54.54,0,0,0,.25.13,4.07,4.07,0,0,0,1-1.09s0-.08,0-.08l1.44.64c5,2.51,9,2,12.78-.55a2,2,0,0,1,.31-.18c.26-.13.08.06-2.12,2.29-.74.75-1.35,1.38-1.35,1.4s.16,0,.64-.19Zm-12.2-6.83A11.94,11.94,0,0,1,78.39,158c-.21-.85-.74-3.65-.74-3.93,0-.43.48-.75,2-1.35.48-.19,1-.42,1.24-.52A7.78,7.78,0,0,0,83.35,150a4.77,4.77,0,0,1,.43-.52s-.18.39-.41.81a6,6,0,0,1-1.54,1.93,10.14,10.14,0,0,1-1.32,1.23c-.11,0-.2.06-.2,0s.16-.19.35-.39c.38-.4.39-.44,0-.23a6,6,0,0,1-.57.29,3.71,3.71,0,0,0-1.11.89c-.7.7-.75.77-.72.94.09.44.08.43.34.18s.25-.23.25-.08a.71.71,0,0,1-.22.37c-.21.2-.22.23-.18.49a1.57,1.57,0,0,0,.06.3s.13-.06.24-.18.22-.19.22-.1a1,1,0,0,1-.19.36.48.48,0,0,0-.15.52l0,.29.21-.21c.21-.2.21-.2.21,0a.61.61,0,0,1-.18.33c-.17.18-.18.21-.12.44s.09.32.27.16.15-.13.18,0,0,.16-.12.28a.36.36,0,0,0-.12.42c0,.27.1.31.22.16a.24.24,0,0,1,.13-.09c.1,0,.06.2-.07.33s-.11.16,0,.38.09.31.2.22.1-.06.1.08a.28.28,0,0,1-.06.19c-.07,0,0,.36.16.56a.4.4,0,0,1,.08.2,9.52,9.52,0,0,0,1,1.84,20.09,20.09,0,0,0,1.47,2,2.44,2.44,0,0,1,.31.41,7,7,0,0,1-.63-.57ZM78.82,154c.27-.3.5-.56.5-.57a.93.93,0,0,0-.36,0,.86.86,0,0,0-.58.29.57.57,0,0,0-.2.68c0,.07.06.13.09.13a4.85,4.85,0,0,0,.55-.55Zm18.53,10a8.66,8.66,0,0,0,1.82-2.86c0-.11,0-.2.18-.39s.66-1.26.55-1.26a1.86,1.86,0,0,0-.27.23c-.22.22-.24.22-.24.09s.14-.28.37-.52a1.6,1.6,0,0,0,.49-.83c.07-.25.1-.45.07-.45a2,2,0,0,0-.4.39c-.32.34-.35.36-.32.2a2.78,2.78,0,0,1,.47-.63c.37-.4.43-.51.49-.81s.07-.38.07-.41-.2.13-.44.36c-.4.4-.43.42-.39.25a2.13,2.13,0,0,1,.49-.65c.42-.43.46-.49.52-.83s.07-.4.07-.43-.2.13-.43.36c-.39.39-.44.42-.44.28s.14-.29.49-.64.5-.51.57-.89a1.27,1.27,0,0,0,0-.42,2.88,2.88,0,0,0-.5.46c-.38.4-.47.47-.47.36s.93-1.18.93-1,0,.11.06.11.06,0,.06-.1a.47.47,0,0,0-.29-.4c-.15-.06-.2,0-.55.31s-.39.37-.45.3,0-.15.21-.36a1.78,1.78,0,0,0,.27-.31.61.61,0,0,0-.29-.08c-.27,0-.29,0-.47.18a.59.59,0,0,1-.29.21c-.16,0-.15-.05,0-.26s.16-.24-.14-.34-.21,0-.37.11c-.3.31-.46.21-.18-.11l.15-.18-.22-.11c-.22-.1-.23-.1-.4.06s-.21.15-.28.13-.09-.06.06-.22a.61.61,0,0,0,.16-.21.54.54,0,0,0-.19-.17l-.2-.14-.14.18c-.11.14-.16.16-.22.1s0-.11.07-.23l.15-.15-.15-.16c-.18-.19-.23-.19-.41,0s-.15.12-.18,0a.26.26,0,0,1,.06-.23c.11-.11.11-.12,0-.3s-.16-.18-.27-.06-.13.1-.19,0-.07-.09,0-.18.12-.16,0-.38-.14-.18-.24-.08-.23,0-.13-.19,0-.2-.24-.65a4.62,4.62,0,0,1-.31-.58,2.07,2.07,0,0,1,.38.43,12.08,12.08,0,0,0,1.67,1.73,7.31,7.31,0,0,0,2,1c1.67.64,2.07.92,2.07,1.41,0,.28-.41,2.54-.66,3.61a12.47,12.47,0,0,1-2.17,4.91,18.37,18.37,0,0,1-2,2.05,5,5,0,0,1,.51-.69Zm-8.33.28a5.75,5.75,0,0,1-3-1.79c-.62-.63-.63-.69,0-.2a5.7,5.7,0,0,0,4.08,1.53,6.22,6.22,0,0,0,2.89-1.25l.75-.57c.33-.25-.42.57-.92,1a4.72,4.72,0,0,1-3,1.3,4.48,4.48,0,0,1-.74,0Zm-.46-1.85a4.29,4.29,0,0,1-2.14-1l-2.87-2.51c-1.87-1.64-2.41-2.15-2.34-2.2s.11-.21-.08-.34-.2-.11-.25-.06-.21,0-.17-.13-.22-.34-.39-.34-.11-.07-.14-.14,0-.08.4.16a9.55,9.55,0,0,0,3.7,1.65,7.11,7.11,0,0,0,2.8-.63c.85-.33,1-.3,1.76.43s.93.65,1.64,0,.86-.75,1.71-.42a7.11,7.11,0,0,0,2.8.63,6.6,6.6,0,0,0,2.6-1,2.81,2.81,0,0,1,.5-.29,2.86,2.86,0,0,0,.57-.31c.68-.44.4-.18-.54.5a11.71,11.71,0,0,0-1.56,1.35c-.4.42-1,1-1.41,1.34-1,.83-1,.86-.78.6s.2-.23.18-.23-.41.3-.86.66l-1.23.94c-.81.59-1,.87-.33.54a19.57,19.57,0,0,0,3-2.35c2.22-1.85,3-2.46,3-2.43s-4.89,4.34-5.38,4.73a4.58,4.58,0,0,1-3.07,1,6.14,6.14,0,0,1-1.08-.09Zm1.49-.4c.16-.14.16-.14-.38-.12s-.69.12-.43.19A1,1,0,0,0,90.05,162Zm-1,0c.05-.13.06-.12-.25-.16s-.29,0-.34,0,0,.11.23.17.32,0,.36-.06Zm1.73,0c.26,0,.65-.25.58-.32a3.31,3.31,0,0,0-.95.24c-.11.09-.1.19,0,.15l.38-.07Zm-2.58-.2s-.07-.1-.19-.14-.25-.06-.33,0-.07.09.08.16.41.08.44,0Zm-.74-.25s-.06-.11-.17-.17c-.33-.17-.52,0-.2.18s.33.1.37,0Zm-.63-.33c.05-.07-.2-.36-.32-.36a.21.21,0,0,0-.14.08c-.06.07,0,.11.1.22s.3.16.36.06Zm-.6-.44c.1-.11.09-.13-.12-.29s-.19-.14-.28,0-.06.13.09.26.21.16.31.06Zm3.45-.43.68-.72.31-.34-.36,0-.36,0-.68.67a4.05,4.05,0,0,0-.63.72,1,1,0,0,0,.57,0,3.86,3.86,0,0,0,.47-.43Zm1.22-.22a9.84,9.84,0,0,0,.8-.84c.06-.11,0-.12-.3-.08s-.36,0-1.06.74c-.91.89-.91.91-.5.91h.32Zm.18.53c.31-.06.38-.12,1.12-.85A11.26,11.26,0,0,0,93,159a1.25,1.25,0,0,0-.41,0c-.46.09-.48.11-1.4,1.1a2.92,2.92,0,0,0-.49.6l.39-.07ZM89,160l.61-.62-.3,0-.29,0-.61.59a5.75,5.75,0,0,0-.6.65s.06.05.14.07c.35.07.44,0,1-.62Zm-.89-.1.58-.58-.2,0c-.45-.09-.43-.1-1.23.77l-.21.23.21.09.24.1s.29-.26.61-.57Zm-2.42.44c.11-.11.09-.15-.11-.3s-.21-.12-.29-.06-.07.1.08.26.21.2.32.1Zm7-.33a4.42,4.42,0,0,0,1.15-.87,3,3,0,0,0,.49-.54,2.24,2.24,0,0,0-.5.13c-.47.14-.48.15-1.17.88a6.13,6.13,0,0,0-.64.74,6.6,6.6,0,0,0,.67-.34Zm-5.42-.31a2.33,2.33,0,0,0,.43-.49l-.3-.06c-.28,0-.28,0-.68.35l-.39.4.21.13a1.21,1.21,0,0,0,.24.13A4,4,0,0,0,87.31,159.71Zm-2.18.14c.06-.07,0-.12-.12-.23s-.2-.12-.28-.06-.07.1.08.23.23.16.32.06Zm1.43-.43c.31-.33.31-.35.18-.38-.32-.09-.45,0-.73.24s-.26.28-.24.3a1.87,1.87,0,0,0,.43.21s.18-.17.36-.37Zm-2.11-.21c-.11-.12-.2-.15-.28-.12s-.09.06.1.23.22.17.27.12,0-.12-.09-.23Zm1.34,0c.14-.14.23-.26.22-.28l-.28-.09c-.24-.07-.25-.06-.44.16l-.2.24.2.1.23.11a1.59,1.59,0,0,0,.27-.24Zm9.08-.34A3.75,3.75,0,0,0,96,158a3.19,3.19,0,0,0,.44-.48,8.53,8.53,0,0,0-1.53.85,4.31,4.31,0,0,0-.69.77l.67-.33Zm-9.81.08c.2-.18.18-.23-.08-.34s-.23-.09-.37,0-.19.22,0,.33.26.12.43,0Zm-1,0a.7.7,0,0,0-.17-.22c-.13-.12-.2-.15-.25-.09s0,.1.1.21.32.19.32.1Zm.27-.65c-.22-.11-.22-.11-.37,0s-.19.2,0,.32.21.09.38-.06l.17-.16-.23-.12Zm-.68,0,.23-.24-.21-.13a1.17,1.17,0,0,0-.25-.14,1,1,0,0,0-.21.23l-.17.22.18.15.19.15.24-.24Zm-.6-.39c.19-.18.18-.25-.06-.38s-.19-.11-.35,0l-.16.16.15.15c.18.2.23.2.42,0Zm-.48-.61a.48.48,0,0,0-.19-.15c-.19-.11-.19-.11-.33,0l-.13.14.19.15.18.14.14-.13a.5.5,0,0,0,.14-.17Zm-.77-.53c-.2-.16-.27-.17-.37,0s0,.14.12.26l.19.16.12-.13L82,157l-.18-.15Zm8.33.35c0-.17.86-.9,1-.81s0,.18-.39.5-.49.42-.51.43-.05-.06-.05-.12Zm-.7-.18a1.91,1.91,0,0,1,0-1.25c.05-.26.13-.89.17-1.42s.09-.93.09-.89,0,.41.09.85.12,1.16.19,1.59c.12.71.12.8,0,1s-.12.22-.27.22a.42.42,0,0,1-.28-.11Zm.82-.82q0-.17.3-.45c.27-.26.31-.28.34-.18s-.06.21-.3.45S90.22,156.29,90.22,156.15Zm-.12-.73c0-.15.47-.61.51-.49a1.28,1.28,0,0,1-.46.6s-.05-.05-.05-.11ZM74.82,155c.24-.36.46-1,.39-1s-.12,0-.23.13-.18.16-.18.07a1,1,0,0,1,.19-.36c.19-.23.19-.26.12-.5L75,153l-.27.26c-.23.23-.27.25-.31.16s0-.18.19-.35l.23-.23-.1-.22a.61.61,0,0,0-.15-.22,1.22,1.22,0,0,0-.3.25c-.33.34-.41.19-.09-.17s.29-.36.13-.57l-.12-.16-.27.26c-.21.21-.29.25-.35.19s0-.14.22-.37l.29-.29-.12-.22a.58.58,0,0,0-.16-.22,1.61,1.61,0,0,0-.3.29c-.19.22-.27.27-.33.22s0-.15.23-.38l.3-.3-.14-.23-.14-.23-.33.33c-.28.27-.34.31-.37.21s0-.19.25-.4.28-.32.23-.42c-.16-.3-.24-.3-.53,0s-.29.29-.34.21,0-.16.21-.37a1.44,1.44,0,0,0,.28-.35.53.53,0,0,0-.16-.21l-.15-.14-.28.27c-.23.22-.29.26-.34.18s0-.16.21-.37l.28-.28-.16-.18-.15-.17-.25.23c-.19.19-.26.22-.32.17s0-.13.17-.32l.23-.24-.14-.19a.74.74,0,0,0-.18-.2,1.08,1.08,0,0,0-.22.19c-.16.17-.28.19-.28.06a.72.72,0,0,1,.16-.24l.16-.19-.13-.19-.14-.19-.18.17c-.15.15-.18.15-.21.06s0-.16.09-.25l.13-.14-.16-.2c-.15-.18-.17-.19-.28-.09s-.11.08-.13,0a.21.21,0,0,1,0-.18c.05-.09,0-.15-.07-.28s-.16-.17-.21-.17-.1-.09-.12-.2a1.6,1.6,0,0,0-.18-.41,3,3,0,0,1-.43-1.45c0-.71.09-.8.12-.14.06,1.21.53,1.83,3.06,4,2.17,1.9,2.79,2.61,3.11,3.56a2.64,2.64,0,0,1-.63,2.66c-.39.5-.59.66-.32.25Zm29.42-.14c-.19-.25-.37-.46-.39-.48a4.21,4.21,0,0,1-.43-1.05,2.75,2.75,0,0,1,.51-2.11,15.32,15.32,0,0,1,2.55-2.56c2.65-2.32,3.2-3.06,3.22-4.25a2.63,2.63,0,0,1,0-.46,2.48,2.48,0,0,1,.08,1,5.13,5.13,0,0,1-.77,1.62c-.14.21-.35.54-.47.75a10.63,10.63,0,0,1-1.23,1.44c-.57.59-1.19,1.3-1.39,1.57a8.33,8.33,0,0,0-.9,1.45,14.26,14.26,0,0,0,1.08-1c.57-.59,1-1,1-1a10,10,0,0,1-1.59,1.89c-1.1,1.13-1.35,1.48-1.44,2l0,.24.32-.3.32-.31-.19.34a1.83,1.83,0,0,1-.28.43.26.26,0,0,0-.09.16,3.57,3.57,0,0,0,.45.91c.23.33,0,.16-.31-.28ZM90,154.55c0-.15.41-.62.48-.5a1.74,1.74,0,0,1-.43.62S90,154.61,90,154.55Zm-.11-.76c0-.14.07-.3.13-.3s.1.18,0,.28-.12.1-.12,0Zm-.65-2.38c-.1-.06-.44-.32-.76-.58a3.37,3.37,0,0,0-2.29-1c-.47,0-.49-.07-.13-.4,1-.89,2-.48,2.84,1.08.36.71.54.93.76.93s.4-.17.77-.88c.7-1.34,1.51-1.86,2.35-1.48.29.14.77.54.77.66s-.18.08-.57.11a2.08,2.08,0,0,0-1.06.28,6.78,6.78,0,0,0-1.11.75,5.44,5.44,0,0,1-.76.56,1.13,1.13,0,0,1-.81,0Zm6.46-1.14c0-.06,0-.12,0-.12s.13.18.07.22-.07,0-.08-.1Zm-18.93-1.73a3.53,3.53,0,0,1-.56-6.75,1.6,1.6,0,0,0,.64-.39c.5-.68.33-1.58-.54-2.88a12.7,12.7,0,0,0-3.18-3.42c-.34-.22-1.13-.69-1.76-1a9.67,9.67,0,0,1-3.65-2.85c-.41-.52-.65-.73-.82-.73a.9.9,0,0,0-.38.24,3.75,3.75,0,0,0-.87,1.88,3.25,3.25,0,0,1-.19.7s0-.23,0-.63a7.21,7.21,0,0,1,3-5.35A10.28,10.28,0,0,1,71.28,126c.71-.24,1.45-.52,1.65-.62a7.15,7.15,0,0,0,2.83-2.76,9.57,9.57,0,0,0,.65-1.77s-.09,0-.2.12-.23.17-.3.14,0-.13.26-.42.35-.4.38-.7a1,1,0,0,0,0-.37,4,4,0,0,0-.66.62c-.45.48-.66.65-.75.63s0-.16.53-.67c.68-.69.69-.73.26-.78-.19,0-.26,0-.85.62-.4.41-.68.64-.74.62s0-.19.48-.65a6.78,6.78,0,0,0,.59-.66.82.82,0,0,0-.26-.06l-.26,0-.66.66c-.51.5-.69.64-.77.61s0-.15.49-.64a5.75,5.75,0,0,0,.6-.65.73.73,0,0,0-.32,0H73.9l-.59.63c-.48.5-.62.62-.71.58s0-.13.45-.61a8,8,0,0,0,.57-.62s-.15,0-.33,0H73l-.57.59a2.27,2.27,0,0,1-.69.59c-.1,0,0-.13.41-.57.57-.6.59-.66.16-.67-.2,0-.29.07-.85.63-.41.41-.66.61-.73.6s0-.16.43-.59l.54-.58H71l-.55.56c-.41.41-.6.56-.71.56s-.09-.07.37-.53l.52-.52H70l-.57.55c-.4.39-.62.56-.72.56s-.08-.07.34-.5c.27-.27.46-.49.42-.49a3.09,3.09,0,0,0-.48.1c-.36.09-.42.13-.8.55s-.45.46-.59.48l-.2,0,.33-.32c.18-.18.31-.35.29-.37s-.71.41-1.06.79l-.36.39.17-.34c.67-1.3,2.34-1.89,5.61-2a18,18,0,0,1,4.15.32l.16,0,0-.67c0-.37.06-1.28.1-2,.11-2.59.21-2.42.34.6,0,1.19.11,2.19.14,2.21s.39.14.81.27a21.84,21.84,0,0,1,3.38,1.35,12.54,12.54,0,0,1,5.83,5.07,10.27,10.27,0,0,1,1.17,2.37c-.09-.12-.09-.12-.26,0a.43.43,0,0,1-.29.13c-.09,0-.08-.06.12-.27l.23-.23-.13-.19c-.08-.11-.16-.19-.19-.19a1.35,1.35,0,0,0-.31.31c-.15.17-.31.31-.38.31s-.12,0-.12,0a2.86,2.86,0,0,1,.35-.39c.36-.37.38-.44.18-.71-.09-.11-.12-.1-.61.39s-.53.49-.59.45,0-.18.44-.6.52-.56.44-.67l-.14-.21s-.24.12-.67.56-.65.62-.73.58,0-.15.55-.71l.67-.67-.14-.2c-.08-.1-.16-.19-.19-.19a9.8,9.8,0,0,0-.75.74c-.49.51-.74.72-.79.68s.12-.26.64-.81a8.49,8.49,0,0,0,.71-.82.7.7,0,0,0-.12-.22l-.12-.15-.83.83c-.66.66-.85.82-.91.75s.09-.24.75-.9l.82-.83-.14-.19a.81.81,0,0,0-.18-.19,10.79,10.79,0,0,0-.9.9c-.69.72-.87.88-.94.82s.08-.23.78-.95a11.67,11.67,0,0,0,.87-.94.58.58,0,0,0-.15-.2l-.16-.15-.93.92c-.63.63-.94.9-1,.86s.22-.36.84-1,.9-1,.9-1a.67.67,0,0,0-.19-.17l-.19-.13-.9.93c-.84.87-1.08,1.06-1.08.86a9,9,0,0,1,.9-1,8.66,8.66,0,0,0,.9-1s-.09-.12-.18-.2l-.18-.14-.93,1c-.67.69-1,1-1,.93s.13-.28.82-1a10.07,10.07,0,0,0,.92-1s-.08-.11-.17-.16l-.17-.11-1,1c-.75.75-1,.94-1,.88s.13-.28.87-1l1-1-.19-.13a.83.83,0,0,0-.24-.13,12,12,0,0,0-1,.94c-.73.76-.92.93-1,.87s.09-.26.84-1l.92-.93-.18-.12a.66.66,0,0,0-.25-.12,9.67,9.67,0,0,0-.95.89c-.6.6-.92.88-1,.85s.18-.32.81-1l.88-.94-.21-.11-.21-.12-.9.9c-.71.7-.91.87-1,.81s.1-.25.79-.94a8,8,0,0,0,.83-.89l-.24-.13-.22-.11-.84.87c-.65.69-.85.87-.93.82s0-.19.56-.73l.83-.86.18-.2-.23-.11-.22-.11-.84.83c-.59.59-.85.81-.9.77s.16-.3.72-.88l.79-.82-.23-.09-.24-.09s-.38.35-.8.77c-.6.62-.79.77-.88.74s0-.17.65-.81c.47-.47.74-.78.71-.82a1.31,1.31,0,0,0-.26-.12c-.2-.06-.21-.06-.86.62a8,8,0,0,0-.65.75,8.23,8.23,0,0,0,.63,1.47,13.19,13.19,0,0,0,1.22,1.71,12.75,12.75,0,0,0,2.53,2c2.71,1.88,3.37,2.52,4.08,3.93a3.5,3.5,0,0,1,.5,2.5c-.22.56-1.22,1.31-2.83,2.11A34.65,34.65,0,0,0,79.24,138a3.39,3.39,0,0,0-1.64,2.25c-.07.79.19,1.18,1.07,1.6a3.5,3.5,0,0,1,1,5.69,3.28,3.28,0,0,1-2.94,1Zm9.21-15c.48-.24.56-.54.27-1s-.36-.47-1.21-1.07a5,5,0,0,1-1.65-1.93,7.46,7.46,0,0,0-1.64-1.79c-2-1.43-5.79-2-8.93-1.27a13.51,13.51,0,0,0-4.78,2.2c-1.16.83-1.26,1-.54,1a1.53,1.53,0,0,1,.57.09,13,13,0,0,1,1.13,1.06,6.93,6.93,0,0,0,2.11,1.7c.48.19.81.14,1.83-.27,2.71-1.08,4.92-1.11,8.74-.13a4.91,4.91,0,0,1,2.5,1,3.2,3.2,0,0,0,.56.46,1.62,1.62,0,0,0,1-.12Zm-1.06-.37c-.12-.07-.41-.26-.65-.43a8,8,0,0,0-3.11-1.24,12.8,12.8,0,0,0-8.32.36,6.48,6.48,0,0,1-.87.3,1.75,1.75,0,0,1-1.08-.36,18.11,18.11,0,0,1-2.15-2.14c-.21-.43.14-.18,1.32.9a10.6,10.6,0,0,0,1.21,1c.39.2.71.16,1.54-.16.4-.16.74-.28.76-.28l.18-.07.17-.06-.19-.26a4.18,4.18,0,0,1-.56-3.36,3.18,3.18,0,0,1,.17-.53,13.61,13.61,0,0,1,2.15-.28,13.24,13.24,0,0,1,4.85.85l.52.24,0,.82a3.61,3.61,0,0,1-.5,2c-.21.35-.21.36-.08.38a19.81,19.81,0,0,1,3.16.93,11.5,11.5,0,0,1,1,.63,8.9,8.9,0,0,0,.92.57l.21.09-.14.11c-.18.15-.23.15-.52,0Zm-5.3-2.83a2.67,2.67,0,0,0,.61-1.79V128l-.28-.07-.31-.07a1.37,1.37,0,0,0,0,.42,2.9,2.9,0,0,1-.65,1.87l-.17.15.3.07.34.08a.77.77,0,0,0,.19-.16Zm-.94-10.1s-.11-.08-.23-.12l-.23-.07-.39.39c-.38.37-.39.39-.35.63a1.45,1.45,0,0,0,.07.31,6.78,6.78,0,0,0,1.13-1.14ZM77.9,120s-.13-.07-.28-.11c-.33-.07-.36,0-.3.39l0,.28.27-.26a2.78,2.78,0,0,0,.27-.3Zm23.47,28.57A3.52,3.52,0,0,1,99,146.69a3.23,3.23,0,0,1-.37-1.65,3.46,3.46,0,0,1,2.15-3.21,1.36,1.36,0,0,0,.94-1.51c-.1-1.39-1.51-2.52-6.09-4.86-2.2-1.13-2.94-1.79-2.94-2.64a6.16,6.16,0,0,1,1.08-2.8c.59-.88,1.5-1.66,3.88-3.29.58-.41,1.25-.9,1.49-1.1a9.26,9.26,0,0,0,2.47-3.52c.06-.2.1-.36.07-.36a.84.84,0,0,0-.23.19,2.11,2.11,0,0,1-.46.34l-.28.16.16-.17c.08-.1.34-.37.57-.61s.42-.47.48-.8a1.08,1.08,0,0,0,0-.39s-2.8,2.76-3.2,3.22a9.59,9.59,0,0,1-1.3,1.06c-.1.07,3.63-3.76,4.24-4.36.23-.22.34-.38.34-.48s0-.14-.09-.12a2.08,2.08,0,0,1-.32.1c-.21.06-.68.51-3.13,3-3.25,3.33-4,4.08-4.33,4.25s-.46.36,3.75-3.94c1.62-1.67,2.94-3,2.93-3a2,2,0,0,0-.5.14l-.48.17-3.66,3.74c-3.16,3.24-4,4-4,3.89s1.58-1.66,3.54-3.66,3.55-3.65,3.54-3.67a3.61,3.61,0,0,0-.61.25l-.58.27-3.53,3.62c-3.13,3.2-3.74,3.79-3.85,3.68s0-.22.13-.24,6.5-6.54,6.46-6.58a6,6,0,0,0-1.26.74,26.76,26.76,0,0,0-2.12,2,15.07,15.07,0,0,0-2.37,2.72c-.35.52-.66,1-.69,1a16.77,16.77,0,0,1,.92-1.92,12.57,12.57,0,0,1,6.11-5.57,22.25,22.25,0,0,1,3.44-1.38l.78-.24,0-.33c0-.19.07-1.14.11-2.13s.09-1.89.11-2,0-.21.09-.06.09,1.1.15,2.26.1,2.11.11,2.11.32,0,.69-.1a17,17,0,0,1,3.61-.23c2.54.06,4.17.44,5,1.17a2.94,2.94,0,0,1,.71,1c0,.14,0,.11-.24-.16s-.32-.33-.39-.26a.39.39,0,0,1-.23.07h-.15l.13-.14.14-.15-.16-.13c-.23-.18-.28-.17-.53.08a.7.7,0,0,1-.32.22c-.1,0-.08,0,.1-.26a1.59,1.59,0,0,0,.22-.3s-.28-.18-.39-.18a1.71,1.71,0,0,0-.44.37c-.32.32-.59.47-.59.32a3.34,3.34,0,0,1,.35-.4c.2-.19.34-.37.32-.39a1,1,0,0,0-.26-.09c-.21,0-.23,0-.7.44s-.53.49-.64.49-.1-.06.34-.49a3,3,0,0,0,.46-.52.91.91,0,0,0-.31-.07l-.29,0-.51.56c-.39.42-.56.56-.68.56s-.09-.06.39-.55a2.49,2.49,0,0,0,.5-.58.71.71,0,0,0-.33,0c-.27,0-.3,0-.9.62-.87.86-1.11.9-.33.06l.6-.65-.29-.05-.28,0-.76.75c-.52.52-.79.74-.87.73s0-.18.55-.71c.37-.38.67-.7.67-.71a.86.86,0,0,0-.33,0l-.32,0-.84.83a4.62,4.62,0,0,1-1,.87c-.16,0-.06-.09.63-.79a9.6,9.6,0,0,0,.82-.88s-.15,0-.34,0l-.35,0-1,1.06-1,1.06.1.31a7.12,7.12,0,0,0,3.35,3.8c.14.07.83.32,1.54.56a7.93,7.93,0,0,1,3.8,2.1,7.19,7.19,0,0,1,2,3.76,5,5,0,0,1,.06,1.44s-.09-.34-.18-.71c-.32-1.42-.93-2.31-1.43-2.08a3.51,3.51,0,0,0-.63.67,9.64,9.64,0,0,1-3.69,2.89,13.64,13.64,0,0,0-2.43,1.52,14.11,14.11,0,0,0-3.15,4.13,1.9,1.9,0,0,0,0,1.49c.16.29.18.31,1,.69A3.51,3.51,0,0,1,105,146.7a4.06,4.06,0,0,1-1.53,1.52,3.28,3.28,0,0,1-2.11.31Zm-7-14.9a2.36,2.36,0,0,0,.52-.39c.57-.55.95-.72,2.63-1.14,3.78-1,6-.92,8.66.15a8.1,8.1,0,0,0,1.15.37c.71.08,1.41-.37,2.86-1.84a7.79,7.79,0,0,1,1.18-1.07,4.12,4.12,0,0,1,.52-.05c.31,0,.38,0,.4-.13s0-.11-.74-.7a12.56,12.56,0,0,0-7.81-2.68,12.32,12.32,0,0,0-5,.94A6.19,6.19,0,0,0,95.66,130a4,4,0,0,1-1.4,1.5c-1.54,1.06-1.77,1.78-.71,2.16a1.23,1.23,0,0,0,.8,0Zm-.42-.44c-.14-.07-.15-.24,0-.24a4.72,4.72,0,0,0,.77-.46,10.89,10.89,0,0,1,1.1-.67,15.7,15.7,0,0,1,3.28-1c.13,0,.13,0-.08-.44a3.87,3.87,0,0,1-.5-2l0-.78.37-.19a9.87,9.87,0,0,1,3.47-.84,7.49,7.49,0,0,1,1.89,0c.52,0,1.14.1,1.37.14l.44.08.14.46a4.48,4.48,0,0,1,0,2.24,4.69,4.69,0,0,1-.65,1.33l-.13.14.17.06a.74.74,0,0,0,.2.06l.76.29c1.22.48,1.39.43,2.79-.88.89-.82,1.28-1.13,1.35-1.05s-.35.57-1.23,1.42-1.46,1.28-1.89,1.28a5.64,5.64,0,0,1-1-.32,11.65,11.65,0,0,0-5.18-.85,20.38,20.38,0,0,0-4.65.92,5.15,5.15,0,0,0-1.61.8c-.76.56-.91.62-1.13.49Zm11.18-3.2a2.83,2.83,0,0,0,.25-2.08c-.1-.42-.17-.47-.64-.47h-.17l.07.27a2.79,2.79,0,0,1,.11,1.27,2.85,2.85,0,0,1-.54,1.25c-.23.22-.19.3.14.32s.53-.11.78-.56Zm-.45-10.67s-.16,0-.36,0-.36,0-.93.64-.56.61-.53.75c.09.42,0,.44,1-.46a11.32,11.32,0,0,0,.86-.91Zm-1.48.53a2.57,2.57,0,0,0,.36-.39,3.35,3.35,0,0,0-.84.14,2,2,0,0,0,.09.61A2.57,2.57,0,0,0,103.18,119.85Zm-18.56,28a4.33,4.33,0,0,1,1.4-1.52c.27-.13.45-.31,1-1l.72-.9,0-.29c0-.17,0-.31,0-.31s-.33.37-.71.85-.73.88-.76.9,0,0,0-.14a7.42,7.42,0,0,1,.77-1.08c.69-.85.74-.92.73-1.17v-.28l-.49.53c-.63.66-.55.4.11-.38.35-.42.45-.58.45-.73s0-.19,0-.19a1.26,1.26,0,0,0-.28.23l-.24.23.07-.18a1.36,1.36,0,0,1,.28-.41l.2-.21.08-2a8.87,8.87,0,0,1,.18-2.42c0,.47.13,4.88.14,7.16,0,2.67,0,2.87-.1,3l-.12.17-.19-.24a6.31,6.31,0,0,0-.44-.5c-.66-.66-1.5-.4-2.45.77-.53.65-.54.65-.27.14Zm3.27-1c0-.17,0-.19-.13-.12s-.07.12,0,.26.2.12.14-.14Zm-.15-.41c.13-.13.14-.18.09-.44l0-.29-.27.32c-.26.31-.27.33-.16.44s.22.16.39,0Zm-.31-.63c.34-.4.38-.47.38-.72a.53.53,0,0,0,0-.29,12.57,12.57,0,0,0-1.13,1.38.86.86,0,0,0,.38.08,3.42,3.42,0,0,0,.42-.45Zm7.23,2.2a5.94,5.94,0,0,0-1.33-1.29,1.25,1.25,0,0,0-1.62.46,2.38,2.38,0,0,1-.29.37c-.09.1-.11.1-.2,0s-.1-.48-.08-4a59.09,59.09,0,0,1,.14-6.23c.14.27.26,6.47.17,8.72l0,1.08.14-.23a1.49,1.49,0,0,1,.63-.62,1.36,1.36,0,0,1,1.15,0,4.05,4.05,0,0,1,1.26,1.35c.32.53.37.76.08.31Zm-14,22.56.47-.47L81,170a1,1,0,0,0-.22-.15s-.24.21-.49.46l-.46.47.18.15a.73.73,0,0,0,.22.15A5.2,5.2,0,0,0,80.68,170.6Zm5.14-.12.52-.52-.25-.12-.24-.13-.55.55-.54.54.17.1a1,1,0,0,0,.28.1,2.91,2.91,0,0,0,.61-.52Zm-.74-.29.49-.55s-.07-.1-.18-.16l-.2-.1-.55.55-.55.54.2.11a1,1,0,0,0,.26.11,3.34,3.34,0,0,0,.53-.5Zm-5,0a3.49,3.49,0,0,0,.45-.5.73.73,0,0,0-.32-.28,4.81,4.81,0,0,0-.51.47l-.47.48.17.14a.71.71,0,0,0,.2.14s.23-.2.48-.45Zm4.87-.92a.74.74,0,0,0-.23-.15L84.5,169l-.52.55a7.78,7.78,0,0,0-.51.59s.09.08.2.13l.2.1.54-.53A2.46,2.46,0,0,0,84.92,169.26Zm-5.43.49a3.2,3.2,0,0,0,.45-.51s-.08-.13-.18-.2l-.17-.13-.49.49-.49.5.17.15a.82.82,0,0,0,.22.15,4.42,4.42,0,0,0,.49-.45Zm-1.51.33c.1,0,.09-.05,0-.19l-.16-.15-.15.15a.62.62,0,0,0-.16.19c0,.07.36.06.52,0Zm-.62-.24c.22-.23.22-.24.12-.33s-.27-.2-.61.14a1.84,1.84,0,0,0-.34.38.64.64,0,0,0,.3,0,.56.56,0,0,0,.53-.23Zm24,.14c.12-.14,0-.17-.1,0s-.08.12,0,.12a.27.27,0,0,0,.15-.09Zm-24.75-.4.43-.44-.17-.15a.63.63,0,0,0-.23-.15,6.22,6.22,0,0,0-1,1,1.93,1.93,0,0,0,.47.14,4.05,4.05,0,0,0,.47-.43Zm7.13-.08a3.3,3.3,0,0,0,.52-.57s-.09-.11-.2-.17l-.2-.12-.55.55-.55.56.21.13.23.13a6.26,6.26,0,0,0,.54-.51Zm-7.82-.23a4.52,4.52,0,0,0,.53-.61.53.53,0,0,0-.16-.2l-.15-.14-.68.67a3.61,3.61,0,0,0-.63.72.86.86,0,0,0,.42.11c.09,0,.3-.17.67-.55Zm3,0,.45-.5-.16-.17-.17-.16-.51.51-.51.51.19.15a1,1,0,0,0,.22.15A4.84,4.84,0,0,0,79,169.27Zm-3.66-.39.71-.73-.15-.15a.58.58,0,0,0-.2-.15c-.06,0-1.61,1.58-1.65,1.67s0,.06.13.08c.36.07.44,0,1.16-.72Zm7.82.23c.28-.29.52-.55.53-.57s-.07-.1-.18-.16l-.19-.12-.55.55-.54.54.19.14.21.15.53-.53Zm-7.78-1.63-.19-.19-.45.45c-.25.24-.71.72-1,1l-.56.59.27.06.26.06.93-.92.93-.92Zm-1.45.8c.56-.58,1-1.09,1-1.13s0-.14-.13-.22l-.14-.13L73.47,168a6.38,6.38,0,0,0-1.12,1.23,1,1,0,0,0,.45.12A9.88,9.88,0,0,0,73.88,168.28Zm4.53.51.48-.49-.19-.18-.2-.18-.48.52-.49.53.13.14a.4.4,0,0,0,.2.14A3.06,3.06,0,0,0,78.41,168.79Zm4.13-.11.53-.53-.19-.15a1,1,0,0,0-.22-.15,9,9,0,0,0-1,1.09.93.93,0,0,0,.38.27s.26-.24.55-.53ZM64,169c.14-.05,1.21-1.1,3.52-3.46,1.82-1.87,3.31-3.42,3.31-3.44a.84.84,0,0,0-.14-.22l-.14-.17L67,165.37c-2,2-3.6,3.69-3.61,3.73s.34,0,.65-.1Zm9.26-1.12,1.21-1.24-.13-.17c-.07-.09-.16-.17-.2-.17S71.45,169,71.45,169s.07.05.14.06c.39.08.43.05,1.67-1.22Zm-.7-.31L74,166.11l-.14-.18c-.08-.1-.16-.18-.19-.18s-3,3.06-3.07,3.14.07.07.18.09l.28,0s.71-.64,1.5-1.44ZM65.2,168.8a38.3,38.3,0,0,0,3.1-3l3-3a.61.61,0,0,0-.13-.23l-.16-.18-.42.43c-2.34,2.37-6,6.09-6,6.13s.17,0,.62-.07Zm5.91-.78,1.64-1.67.76-.78-.13-.2c-.08-.1-.16-.18-.19-.17s-3.47,3.51-3.47,3.57.09.07.2.08l.26,0a8.18,8.18,0,0,0,.93-.87Zm7.22-.21a.47.47,0,0,0-.16-.21l-.15-.15-.5.49a2.73,2.73,0,0,0-.49.57.41.41,0,0,0,.16.2l.17.13.49-.48a3.06,3.06,0,0,0,.48-.55Zm-7.14-.89c1-1,1.81-1.89,1.81-1.93a.45.45,0,0,0-.14-.23l-.15-.13-2,2c-1.08,1.11-2,2-2,2s.18.09.4.1S69.58,168.56,71.19,166.92Zm-2.58-.45c1.21-1.23,2.39-2.45,2.64-2.71l.45-.47-.15-.2-.14-.19-2.6,2.64L66,168.45l-.24.26h.68Zm1.9.11c1.13-1.16,2.06-2.12,2.06-2.15a1,1,0,0,0-.14-.21l-.14-.16-1.4,1.41c-3.24,3.3-3.12,3.17-3,3.2.46.09.41.13,2.58-2.09Zm-.7-.31,2.34-2.38L72,163.7c-.07-.1-.15-.18-.18-.18s-3,3-4.43,4.5l-.61.63h.68ZM51.1,164.82a23.46,23.46,0,0,0-3,2.93,7.23,7.23,0,0,0-.6.74C47.48,168.55,51,165,51.1,164.82Zm26.61,2.31c-.08-.08-.18-.15-.21-.14a5.46,5.46,0,0,0-.55.52l-.48.5.17.16.17.17.52-.52.53-.53Zm-.49-.49a.53.53,0,0,0-.22-.15,3.13,3.13,0,0,0-.56.49l-.49.49.18.19.18.19.53-.53.52-.52Zm-.86.13.48-.52-.17-.16-.17-.16-.52.52-.53.53.15.15a.48.48,0,0,0,.22.16,2.91,2.91,0,0,0,.54-.52Zm-.51-.5.52-.52-.18-.19-.18-.19-.33.33a6.16,6.16,0,0,0-.52.56l-.19.23.14.15a.54.54,0,0,0,.18.15,5.75,5.75,0,0,0,.56-.52Zm-.17-.85.18-.23-.15-.18-.15-.18-.55.55-.55.55.18.18.18.19.34-.32c.18-.18.41-.43.52-.56Zm-.8-.22.54-.54-.17-.21-.17-.2-.54.58-.53.58.13.16a.9.9,0,0,0,.16.17,6.19,6.19,0,0,0,.58-.54Zm-.47-.52a4,4,0,0,0,.51-.57,1,1,0,0,0-.13-.24l-.13-.18-.55.55a4.93,4.93,0,0,0-.55.6.93.93,0,0,0,.3.35,5.63,5.63,0,0,0,.55-.51Zm.06-1.16s0-.11-.12-.21l-.14-.18-.56.57c-.31.31-.56.58-.56.59s.07.1.14.21l.14.19.55-.56c.29-.31.54-.58.55-.61Zm-1,0a3.85,3.85,0,0,0,.54-.6c0-.08-.22-.34-.29-.34a5.94,5.94,0,0,0-.6.55l-.55.55.14.19c.07.11.15.19.18.19a6.19,6.19,0,0,0,.58-.54Zm-.42-.6.54-.59-.11-.19a.5.5,0,0,0-.15-.18,8,8,0,0,0-.61.58l-.58.58.14.19c.07.11.15.2.18.2a7,7,0,0,0,.59-.59Zm.16-1.21a1.36,1.36,0,0,0-.15-.22l-.15-.18-.41.4c-.23.22-.5.51-.6.63l-.18.23.14.19L72,163l.6-.6a6.87,6.87,0,0,0,.61-.64ZM108,160.15l2.54-2.58.3-.63a4.77,4.77,0,0,0,.27-.64s-1,1-2.24,2.23a17.44,17.44,0,0,0-2.65,3c-.24.38-.51.79-.6.91-.22.28-.28.39-.21.37S106.58,161.58,108,160.15Zm-35.73,1.6c.3-.33.55-.61.56-.64a.57.57,0,0,0-.09-.25l-.12-.19-.64.64-.64.64.15.2c.08.1.16.19.19.19a7,7,0,0,0,.59-.59Zm-.38-.65.61-.62-.11-.21c-.07-.12-.14-.22-.17-.22a13.92,13.92,0,0,0-1.22,1.3c0,.06.17.37.23.37a8.11,8.11,0,0,0,.66-.62Zm-.38-.62a5.71,5.71,0,0,0,.59-.69.87.87,0,0,0-.1-.25l-.1-.19-.67.68-.68.68.11.19c.06.11.14.2.18.2a4.59,4.59,0,0,0,.67-.62Zm-.39-.66.67-.67-.09-.19a.61.61,0,0,0-.14-.23,3.52,3.52,0,0,0-.73.67l-.66.71.11.19a.5.5,0,0,0,.15.18s.33-.3.69-.66Zm40.54-4.74a3.86,3.86,0,0,0,.2-.57s-.92.88-2,2c-2,2-2,2-2.32,2.68-.18.35-.34.67-.35.71s.94-.92,2.11-2.11l2.14-2.16Zm-40.9,4.11a5.53,5.53,0,0,0,.66-.75.8.8,0,0,0-.1-.26l-.1-.19-.72.72-.72.72.12.22c.06.12.13.22.16.22A9.5,9.5,0,0,0,70.73,159.19Zm-.33-.72.71-.7-.11-.22a.61.61,0,0,0-.15-.22,6.88,6.88,0,0,0-.75.74l-.7.74.1.19a.42.42,0,0,0,.14.18,6.6,6.6,0,0,0,.76-.71Zm.37-1.4a1.37,1.37,0,0,0-.1-.27l-.09-.23-.77.76a10.7,10.7,0,0,0-.77.8.82.82,0,0,0,.13.24l.12.21.74-.73A9.12,9.12,0,0,0,70.77,157.07Zm-1,0,.74-.76-.08-.2c-.05-.11-.1-.22-.12-.25a6.22,6.22,0,0,0-.81.76l-.76.81.1.22c.06.12.13.21.15.19s.38-.36.78-.77Zm42.54-3.69a2.86,2.86,0,0,0,.17-.55s-.86.81-1.89,1.86l-1.87,1.91-.25.57a6.42,6.42,0,0,0-.25.61s.88-.85,2-1.94l2-2Zm-42.13,2.17a.9.9,0,0,0-.16-.41,13.14,13.14,0,0,0-1.57,1.59.76.76,0,0,0,.1.27l.1.19.76-.76a5,5,0,0,0,.77-.88Zm-1,0,.73-.75-.1-.22c0-.13-.11-.23-.14-.23s-.4.37-.83.82l-.78.83.12.23c.1.2.14.22.2.15l.8-.83Zm43.72-4a2.31,2.31,0,0,0,.16-.62s0,0,0,.06-.81.92-1.8,1.93c-1.77,1.8-1.81,1.84-2,2.33a3.65,3.65,0,0,0-.21.58s.84-.78,1.86-1.82l1.85-1.89.19-.57ZM68.82,155l.8-.8-.08-.25a.53.53,0,0,0-.12-.25s-.4.36-.84.8l-.8.8.07.25a.53.53,0,0,0,.12.25A9.82,9.82,0,0,0,68.82,155Zm-.2-.84.72-.75-.07-.23c0-.12-.1-.22-.14-.22a20.15,20.15,0,0,0-1.64,1.69,1.57,1.57,0,0,0,.09.27c.1.22.1.22.21.1l.83-.86Zm.42-1.52a1.22,1.22,0,0,0-.07-.3l-.07-.2L68,153c-.47.48-.86.88-.86.9a1.17,1.17,0,0,0,.1.27l.09.24.84-.83a6.51,6.51,0,0,0,.83-.93Zm42.34-.06c.91-.93,1.69-1.69,1.71-1.68a19.22,19.22,0,0,0,1-3,14.79,14.79,0,0,0,.66-2.53s-.73.7-1.56,1.56c-1.64,1.68-1.57,1.58-1.84,2.52,0,.05.68-.62,1.54-1.48,1.21-1.24,1.55-1.54,1.51-1.4a12.44,12.44,0,0,1-1.63,1.81c-1.55,1.59-1.59,1.64-1.76,2.08a5.14,5.14,0,0,0-.17.54,18.27,18.27,0,0,0,1.61-1.55c1.3-1.32,1.59-1.6,1.54-1.42a14.11,14.11,0,0,1-1.72,1.9l-1.66,1.69-.16.47a2,2,0,0,0-.14.5s.77-.72,1.67-1.63c1.28-1.29,1.63-1.62,1.58-1.46a16.4,16.4,0,0,1-1.79,2c-1.65,1.69-1.72,1.78-1.88,2.18-.08.23-.17.47-.2.54s0,.1,0,.09.81-.79,1.73-1.73Zm-43.4.18.82-.85-.08-.25a.57.57,0,0,0-.11-.25s-.41.39-.87.87l-.83.87.08.25c0,.13.09.24.12.22s.42-.4.87-.86Zm.49-1.84a.57.57,0,0,0-.11-.25s-.42.38-.89.85c-.84.84-.85.86-.79,1l.1.27c0,.06.31-.19.9-.78l.87-.87-.08-.26Zm-.93.23.76-.78-.09-.22c0-.13-.12-.23-.15-.23s-.41.39-.87.87c-.79.82-.81.86-.75,1l.09.27c0,.07.06.06.14,0l.87-.9Zm-.37-.63c.82-.83.83-.83.79-1.06a1.07,1.07,0,0,0-.08-.29A5.12,5.12,0,0,0,67,150l-.86.85.08.26a.6.6,0,0,0,.12.26S66.72,151,67.17,150.5Zm.53-1.82c0-.45-.11-.4-1,.51-.45.48-.83.89-.83.92a1.92,1.92,0,0,0,.09.27l.09.22.82-.86c.74-.76.82-.87.82-1.06Zm-1,.28a5,5,0,0,0,.82-1,1.07,1.07,0,0,0-.08-.29l-.08-.17-.85.85-.85.85.07.27a.65.65,0,0,0,.11.26s.41-.37.86-.82Zm.53-1.82c0-.46-.1-.41-1,.51s-.82.87-.76,1l.08.26a3.88,3.88,0,0,0,.85-.77c.74-.76.82-.86.81-1.05Zm-.24-.81a1.78,1.78,0,0,0-.07-.28,10.79,10.79,0,0,0-1.69,1.69,1.19,1.19,0,0,0,.07.31l.07.2.83-.84c.84-.85.84-.85.79-1.08Zm47.78-1.16c-.12.54.1-.17.32-1a89.67,89.67,0,0,0,2.29-12.75,55.06,55.06,0,0,0,.28-7.27,43.67,43.67,0,0,0-.31-6.87,21.5,21.5,0,0,0-4-10.17c-2-2.6-4.71-4.08-9.31-5a55.52,55.52,0,0,0-5.54-.75l-3.09-.21a65.39,65.39,0,0,0-6.66-.23c-1.14,0-2.5.07-3,.1l-3.59.25c-5.66.39-9.45,1.17-12.11,2.5a10.4,10.4,0,0,0-3,2.1A18.3,18.3,0,0,0,63,112.72a26.32,26.32,0,0,0-1.29,7c-.1,1.38-.1,7.42,0,9a78.8,78.8,0,0,0,1.47,10.76c.52,2.51.65,3.06.75,3s.17.12.06.24-.08.15,0,.35.09.32.24.18.14-.09.19,0,0,.12-.1.25a.4.4,0,0,0-.13.44c0,.14.06.25.08.25a1.29,1.29,0,0,0,.25-.2c.16-.15.22-.18.28-.12s0,.13-.19.34-.29.28-.19.62l.06.24.34-.33c.28-.27.35-.32.4-.24s0,.18-.31.46l-.37.37.07.27.07.27.47-.47c.36-.36.5-.46.59-.43s0,.14-.43.58-.54.55-.5.78a1.67,1.67,0,0,0,.08.29,3.31,3.31,0,0,0,.7-.61c.44-.43.7-.65.74-.61s-.19.32-.65.81l-.7.74.06.26c0,.15.09.26.11.25s.39-.39.83-.84c.71-.72.8-.83.77-1s-.18-.66-.35-1.25a72.46,72.46,0,0,1-2.88-13.83,44.28,44.28,0,0,1-.25-5.35c0-5.83.39-8.32,1.73-11.13a17.6,17.6,0,0,1,3.43-4.9c2.35-2.34,5.16-3.51,10.45-4.36A63.7,63.7,0,0,1,89.63,104a63.75,63.75,0,0,1,10.78.77c4.71.76,7.48,1.79,9.64,3.59a17.77,17.77,0,0,1,5.29,8.48,30.61,30.61,0,0,1,.69,7.36,62.57,62.57,0,0,1-2.85,19.24c-.29,1-.61,2.1-.71,2.41a5,5,0,0,0-.17.57s.63-.59,1.38-1.34c1.22-1.23,1.6-1.55,1.29-1.07-.06.1-.73.8-1.49,1.56L112.1,147l-.13.44a3,3,0,0,0-.12.5s.66-.61,1.46-1.43c1.18-1.2,1.46-1.45,1.42-1.3Zm-.32-1.64a4.69,4.69,0,0,1,.71-1l.25-.25,0,.19a2.27,2.27,0,0,1-.51.65c-.25.26-.44.42-.41.37ZM64,125.9c.07-.22.32-1.16.56-2.07,1.36-5.27,2.35-7.37,4.38-9.32a11.55,11.55,0,0,1,6.47-3.18,23.85,23.85,0,0,1,4.08-.1A12.94,12.94,0,0,1,86.88,114a13.13,13.13,0,0,1,2.23,2.3,3.58,3.58,0,0,0,.53.62,2.52,2.52,0,0,0,.46-.54,13.43,13.43,0,0,1,4.37-3.72,15.61,15.61,0,0,1,7.49-1.42,13.59,13.59,0,0,1,3.21.39,11.7,11.7,0,0,1,7.51,6,32.83,32.83,0,0,1,2.19,6.6c.48,1.83.57,2.14.67,2.18s.15-.44.08-1.4a22.51,22.51,0,0,0-3.82-11.63c-2.92-4.2-6.32-6.28-12.51-7.67a44,44,0,0,0-11.89-1A37.52,37.52,0,0,0,78.86,106c-5.22,1.33-8.25,3.21-10.9,6.75a21.29,21.29,0,0,0-4,9.5,23.93,23.93,0,0,0-.34,3.47c0,1,.07,1,.3.23Zm25.6-14.68c.08-.11.78-.85,1.56-1.63a15.42,15.42,0,0,0,1.36-1.47l-.3-.07-.24,0-1.63,1.68a16.4,16.4,0,0,1-1.75,1.67c-.07,0-.12,0-.12,0s.71-.76,1.58-1.64,1.58-1.63,1.58-1.66-.13-.06-.29-.07l-.29,0-1.67,1.72c-1.28,1.31-1.71,1.72-1.83,1.72s.17-.33,1.53-1.72l1.68-1.71-.33,0-.32,0-1.69,1.72a11.27,11.27,0,0,1-1.8,1.69c-.1,0,.25-.4,1.51-1.69.9-.92,1.63-1.7,1.64-1.73s-.16,0-.35,0-.37,0-.66.36a39.71,39.71,0,0,1-3.07,3,15.18,15.18,0,0,1,2.22-2.42,10.16,10.16,0,0,0,.81-.86s-.16,0-.36,0L88,108l-1.54,1.58a21.48,21.48,0,0,1-1.63,1.58.08.08,0,0,1-.09-.08A17.12,17.12,0,0,1,86,109.72c.69-.68,1.33-1.35,1.44-1.48l.2-.24-.37,0-.37,0-1.43,1.46C84.31,110.68,84,111,83.88,111s.15-.31,1.2-1.38c.72-.74,1.29-1.35,1.28-1.37a1.63,1.63,0,0,0-.41.06l-.39.07-1.19,1.23A6.78,6.78,0,0,1,83,110.8c-.11,0,.11-.25.94-1.12.59-.61,1.08-1.14,1.09-1.16s-.16,0-.37,0c-.39.09-.4.1-1.41,1.11-.7.69-1.05,1-1.11,1s.18-.32.79-1c.48-.49.87-.91.87-.93a1.23,1.23,0,0,0-.35,0c-.35,0-.37.07-1.17.85s-1,.93-1,.76a7.73,7.73,0,0,1,.7-.75l.7-.71-.41,0-.4,0-.59.62c-.46.49-.61.61-.7.57s0-.12.4-.56a4.45,4.45,0,0,0,.49-.54,1.8,1.8,0,0,0-.4,0c-.34,0-.39.07-.74.42-.51.5-.77.52-.28,0l.34-.35-.4,0a.77.77,0,0,0-.59.23c-.14.13-.22.17-.28.13s-.08-.07,0-.16,0-.1-.66-.06c-.53,0-.69,0-.59,0s1-.29,2.07-.56a23.69,23.69,0,0,0,4.58-1.51c.54-.26,1.15-.52,1.34-.59a12.62,12.62,0,0,1,4.25-.42,8.78,8.78,0,0,1,4.55,1,22.07,22.07,0,0,0,4.63,1.55c1.06.27,2,.52,2.07.56a4.31,4.31,0,0,1-1.38,0c-.22,0-.25,0-.63.34a2.23,2.23,0,0,1-.46.38l-.18,0c-.06,0,.07-.14.29-.37a2,2,0,0,0,.37-.43,1.14,1.14,0,0,0-.32-.06l-.29,0-.56.61c-.49.52-.78.75-1,.75a7.16,7.16,0,0,1,.65-.68c.7-.71.71-.72.26-.76-.23,0-.26,0-1,.8a4.91,4.91,0,0,1-1,.86c-.14,0,0-.12.62-.79a10.8,10.8,0,0,0,.8-.89s-.09-.08-.23-.1l-.25,0-1,1a5.67,5.67,0,0,1-1.13,1c-.07,0,.18-.32.87-1a5,5,0,0,0,.88-1l-.29,0c-.19,0-.26,0-1.36,1.15-.87.87-1.2,1.16-1.29,1.14s.12-.26,1-1.17a12.94,12.94,0,0,0,1.08-1.18,1.61,1.61,0,0,0-.3-.08l-.24,0L94,110c-1,1-1.29,1.3-1.42,1.3s0-.19,1.13-1.31c1.36-1.37,1.35-1.35.91-1.43-.19,0-.24,0-1.57,1.37-1.07,1.11-1.41,1.42-1.55,1.44s-.07-.09.76-.93c1.57-1.6,1.88-1.92,1.84-2a1,1,0,0,0-.26-.09l-.22,0-1.49,1.51a8.72,8.72,0,0,1-1.61,1.5c-.09,0,.21-.36,1.33-1.51.8-.81,1.45-1.5,1.45-1.52a.5.5,0,0,0-.25-.1l-.26-.07-1.18,1.22c-.66.67-1.37,1.4-1.58,1.63a1.49,1.49,0,0,1-.52.42c-.11,0-.11,0,0-.2Zm-69.12-1.33c.57-.59.77-.76.9-.76s.07.09-.6.76a8.88,8.88,0,0,0-.76.81s.16,0,.36,0l.36,0,.8-.83a3.77,3.77,0,0,1,1-.87c.16,0,.07.07-.58.73a4.69,4.69,0,0,0-.73.82,1.12,1.12,0,0,0,.49-.13c.43-.16.5-.21,1.4-1.13a12.09,12.09,0,0,0,1.06-1.19,4.87,4.87,0,0,0,.19-3.63,4,4,0,0,0-1.15-1.79,3.46,3.46,0,0,0-1.12-.84,4,4,0,0,0-2.24-.47,4.06,4.06,0,0,0-1.22.19,4.73,4.73,0,0,0-2.71,2.36c-.32.65-.27.65.36,0,.33-.32.58-.53.56-.47a.74.74,0,0,0,0,.18,5.47,5.47,0,0,1-.64.72c-.64.65-.65.66-.69,1s0,.36,0,.36a3.88,3.88,0,0,0,.57-.54c.43-.46.5-.51.47-.36a3.11,3.11,0,0,1-.57.73c-.51.54-.52.56-.52.86s0,.3,0,.3a4.34,4.34,0,0,0,.54-.5c.4-.4.5-.47.53-.38s-.09.24-.48.64-.53.53-.49.79a.86.86,0,0,0,.09.28,2.29,2.29,0,0,0,.56-.49c.28-.29.53-.53.54-.53s0,0,0,.1a2.66,2.66,0,0,1-.5.65c-.41.45-.5.58-.47.69.1.36.14.35.71-.21a5.29,5.29,0,0,1,.59-.55c.16,0,0,.29-.49.76l-.54.53.14.19c.08.11.16.19.19.19a4.4,4.4,0,0,0,.58-.56c.4-.43.55-.56.64-.52s0,.12-.36.51-.52.55-.59.64l-.14.15.15.19.15.18.65-.65c.52-.51.67-.63.73-.57s-.06.21-.56.72l-.64.64.17.13a.62.62,0,0,0,.23.13,5.63,5.63,0,0,0,.69-.66c.5-.53.65-.65.75-.61s0,.14-.56.72l-.68.69.14.12a.65.65,0,0,0,.26.12,4.24,4.24,0,0,0,.8-.71c.45-.47.72-.7.78-.68s-.1.25-.59.76-.68.75-.68.77.1.07.22.11l.23.07.75-.75c.65-.65,1-.88,1-.7,0,0-.33.37-.73.77s-.69.73-.63.75a1.08,1.08,0,0,0,.52,0s.39-.37.8-.79Zm2.49-2.84a3.89,3.89,0,0,0-.44-1.5A4.61,4.61,0,0,0,19,103c-.13,0-.23-.06-.23-.09a3.9,3.9,0,0,1,.49-.49,2.66,2.66,0,0,0,.53-.6c0-.13.08-.15.31-.15A4.17,4.17,0,0,1,23,103.06a4.75,4.75,0,0,1,1.19,2.31c.14.7.14.76-.13.9a2.15,2.15,0,0,0-.58.57,2.71,2.71,0,0,1-.42.48s-.08-.1-.1-.27Zm.68-1.26c.41-.45-.4-2-1.5-2.89a4.06,4.06,0,0,0-1.61-.82c-.24,0-.56.24-.5.39a1.72,1.72,0,0,0,.5.31,4.93,4.93,0,0,1,2.5,2.49c.32.7.39.76.61.52Zm137.89,4.28a3.94,3.94,0,0,1,.82-.71c.08,0,.15,0,.15,0a7.46,7.46,0,0,1-.59.63,5,5,0,0,0-.59.63s.09,0,.2,0c.54-.11.69-.21,1.37-.92a5.41,5.41,0,0,1,.93-.84c.24-.12.22-.1-.27.42-.94,1-1,1-.27.54a4.78,4.78,0,0,0,1.75-5.11,4.68,4.68,0,0,0-3.57-3.33,5.17,5.17,0,0,0-2.28.15,2.45,2.45,0,0,0-.61.27c-.06.06-.12.09-.13.07s-.71.42-1.06.77a4.58,4.58,0,0,0-.83,1.13,9.09,9.09,0,0,0,.91-.85c.5-.49.8-.77.66-.61a6.41,6.41,0,0,0-.45.58,8.3,8.3,0,0,1-.82.93c-.55.57-.61.65-.7,1a4.08,4.08,0,0,0-.1.46s.22-.11.48-.37c.42-.42.46-.44.43-.27a2.49,2.49,0,0,1-.51.65c-.45.46-.46.47-.46.79,0,.17,0,.32.05.32a4,4,0,0,0,.46-.42c.33-.32.42-.38.42-.29a1.9,1.9,0,0,1-.44.6c-.4.45-.43.5-.39.68a1.11,1.11,0,0,0,.07.26,1.59,1.59,0,0,0,.45-.37c.35-.34.43-.39.46-.3s-.07.22-.4.55l-.44.45.1.22c.05.13.11.23.14.23a2.76,2.76,0,0,0,.45-.4c.35-.36.5-.44.5-.28a6,6,0,0,1-.43.51l-.43.45.13.21.13.2.45-.45c.36-.36.47-.44.53-.38s0,.17-.37.53a2.79,2.79,0,0,0-.45.51s.08.13.16.22l.16.14.49-.5c.36-.36.51-.48.56-.42s0,.12-.1.22-.3.31-.48.51l-.31.36.16.16.17.17.55-.55c.42-.42.58-.54.66-.51s0,.14-.44.6l-.55.56.14.12a.47.47,0,0,0,.25.12,2.91,2.91,0,0,0,.61-.55,2.36,2.36,0,0,1,.64-.56c.07,0,.12,0,.12,0a5.28,5.28,0,0,1-.57.62,4.89,4.89,0,0,0-.54.6,1.46,1.46,0,0,0,.25.12l.22.1.61-.62c.84-.83,1-.83.27,0a7.53,7.53,0,0,0-.58.66s.11.06.24.1l.24,0,.67-.66c.51-.51.69-.66.78-.63s0,.15-.49.65a5.75,5.75,0,0,0-.6.65.61.61,0,0,0,.3,0c.3,0,.3,0,1-.67Zm2-2.81s-.07-.32-.12-.62a4.68,4.68,0,0,0-2.61-3.31,3.88,3.88,0,0,0-1.22-.35c-.13,0-.23-.06-.23-.08a5.21,5.21,0,0,1,.57-.57c.33-.33.54-.57.52-.61s0-.07.23-.07a3.2,3.2,0,0,1,1.53.41,3.62,3.62,0,0,1,1.18.88,4,4,0,0,1,.88,1.16,4.9,4.9,0,0,1,.54,1.83c0,.19,0,.25-.14.29a3.25,3.25,0,0,0-.88.92c-.13.21-.2.25-.25.12Zm.56-1.39a.65.65,0,0,0,.22-.45,4.48,4.48,0,0,0-1.21-2.13,3.93,3.93,0,0,0-2.07-1.21c-.22,0-.53.25-.49.39a3.54,3.54,0,0,0,.68.4,5,5,0,0,1,2.38,2.5C163.83,105.91,163.92,106,164.1,105.87Zm-91-4.19c1.36-.28,1.85-.36,3.56-.59.78-.11,1.5-.22,1.6-.25a20.94,20.94,0,0,1,3.7-.37l3.77-.26c.6,0,2.23-.08,3.94-.08s3.33,0,3.93.08l3.77.26a20.94,20.94,0,0,1,3.7.37c.1,0,.82.14,1.6.25,1.71.22,2.2.31,3.56.59a7.24,7.24,0,0,0,4.2-.07c1.44-.54,2.45-1.28,5.5-4,3.91-3.5,5.41-4.61,8.15-6.08a40.59,40.59,0,0,1,15.21-4,39.76,39.76,0,0,1,4.24,0A19.16,19.16,0,0,1,153,91,14.24,14.24,0,0,1,158.09,97c.24.55.37.69.3.34a13.9,13.9,0,0,0-.57-2c-1.24-3-4.89-6.36-9-8.38A26.67,26.67,0,0,0,139,84.35a46.2,46.2,0,0,0-7.13.07,76.38,76.38,0,0,0-15.75,3.64c-1.09.36-2.07.65-2.16.65-.25,0-.35-.12-.64-.8a4.52,4.52,0,0,0-.31-.65,1.15,1.15,0,0,0-.39-.19,6.22,6.22,0,0,1-1.24-.6,1.41,1.41,0,0,0-1.4.23.74.74,0,0,1-.2.16c-.1.06-.1,0,0-.14.24-.47.06-1-.55-1.6s-.79-.64-1.36-.47a4.26,4.26,0,0,0-1.59,1.18l-.71.69.57-.78c1-1.31,1.29-2,1.23-2.52a.62.62,0,0,0-.23-.46c-.23-.2-.33-.21-.75-.05a8.58,8.58,0,0,0-2,1.39L103,85.23l-.52.41.63-.64a2.49,2.49,0,0,0,.83-1.17,2.89,2.89,0,0,0,.16-.54s-.76.74-1.67,1.68a19.46,19.46,0,0,1-1.84,1.76c-.1,0-.19,0-.19,0s.62-.66,1.38-1.43c2.59-2.62,2.46-2.48,2.46-2.85,0-.18,0-.31,0-.3s-1.12,1.11-2.42,2.44c-2.1,2.15-2.59,2.6-2.7,2.48s1.15-1.2,2.58-2.64c2.43-2.47,2.59-2.65,2.59-2.85,0-.55.08-.63-3.06,2.59a28.59,28.59,0,0,1-3.12,3c-.12,0,.26-.42,1.92-2.11l3.11-3.19,1.05-1.08L104,80.6c0-.13-.09-.24-.12-.23s-1.57,1.57-3.41,3.46A36.63,36.63,0,0,1,97,87.28c-.14,0-.06-.09.55-.71,4.79-4.88,6.31-6.47,6.31-6.56a1.07,1.07,0,0,0-.08-.29l-.07-.18-3.81,3.89c-2.09,2.14-3.84,3.92-3.89,3.94a.2.2,0,0,1-.17,0c-.08,0,3.55-3.78,7.14-7.42l.66-.67-.11-.22c-.06-.12-.13-.21-.15-.2s-1.9,1.93-4.16,4.27c-2.79,2.9-4.14,4.26-4.22,4.26s-.12,0-.11-.06,1.91-2,4.22-4.4l4.21-4.34-.08-.2a1.72,1.72,0,0,0-.12-.24s-2,1.94-4.37,4.37C95.37,86,94.4,87,94.33,86.91s.17-.32,1-1.22C100.94,80,103,77.94,103,77.9a.61.61,0,0,0-.11-.25l-.13-.2-1.62,1.65-4.32,4.43c-1.48,1.52-2.72,2.76-2.74,2.76-.27,0,.41-.69,4.26-4.62,2.37-2.42,4.3-4.42,4.3-4.45a1.22,1.22,0,0,0-.11-.25l-.11-.21L98.28,81c-2.27,2.32-4.13,4.2-4.13,4.2s.45-.74,3.29-3.64l4-4.12.8-.83-.1-.22c-.06-.12-.13-.21-.16-.19S100.23,78,98.12,80.1,94.29,84,94.28,84a.43.43,0,0,1,0-.17c0-.13,1.14-1.3,3.84-4l3.79-3.88-.13-.22a1.4,1.4,0,0,0-.14-.22s-1,1-2.24,2.28c-4.69,4.8-5.11,5.21-5.11,5.06A52,52,0,0,1,97.93,79l3.63-3.71-.11-.19c-.06-.1-.14-.18-.17-.18s-1.62,1.59-3.53,3.54C95,81.24,94.28,82,94.26,81.85s.24-.4,1-1.2l3.45-3.52c2.56-2.61,2.49-2.53,2.26-2.85-.08-.1-.35.17-3,2.91-3.79,3.88-3.7,3.79-3.7,3.62a32.5,32.5,0,0,1,2.83-3l3.26-3.34.44-.45-.11-.22c-.06-.12-.12-.21-.15-.2S99.11,75,97.44,76.69s-3,3.1-3,3.09.44-.71,3-3.36c1.62-1.65,3-3,3-3.1a.43.43,0,0,0-.11-.26l-.12-.15-.46.46-2.33,2.38A14.61,14.61,0,0,0,95.29,78a6.81,6.81,0,0,1-.87,1.33c-.09,0,0-.22.23-1.37,1-3.94.84-5.75-.77-11.09a39.87,39.87,0,0,1-1.6-7.06c-.32-2.38-.21-3.5.47-4.82.53-1,1.06-1.65,3.51-4.09,2.93-2.92,3.24-3.34,3.85-5.27.16-.5.37-1.08.47-1.29a10.18,10.18,0,0,1,1.08-1.6l.22-.25-.12.25a2.47,2.47,0,0,0-.3,1.23,2.28,2.28,0,0,0,.83,1.18,16.54,16.54,0,0,0,3.89,2,14.21,14.21,0,0,1,2.46,1.25c2.07,1.4,3.23,3.51,4.92,9a57.55,57.55,0,0,1,2.84,13.09c.13,1.44.22,1.65.18.43-.22-6.7-.42-9.24-.93-11.94a37.86,37.86,0,0,0-4.53-12.39,27.84,27.84,0,0,0-6.35-6.9c-2.69-1.9-4.74-2-7.82-.42a31.18,31.18,0,0,0-3.63,2.2l-1.58,1-1.21,1.22c-.66.67-1.62,1.59-2.13,2l-.93.83.65-.68,1.51-1.55a10,10,0,0,0,.82-.88,17.21,17.21,0,0,0-1.74,1.27c-.62.48-1.64,1.48-6,6-3.73,3.81-5.38,5.55-5.6,5.87a8,8,0,0,0-.78,1.33s.39-.35,3.52-3.53c.9-.92,1.61-1.63,1.57-1.58a33.71,33.71,0,0,1-3.24,3.57l-2.39,2.43-.33.64a7.13,7.13,0,0,0-.32.69S76,59.3,77,58.24c1.57-1.58,1.86-1.85,1.67-1.54A28.17,28.17,0,0,1,76.59,59c-1.79,1.83-1.86,1.92-2.1,2.43a3.4,3.4,0,0,0-.25.61S75,61.3,76,60.35c1.38-1.41,1.68-1.68,1.57-1.46a18.14,18.14,0,0,1-1.85,2L74,62.7l-.2.52a2,2,0,0,0-.17.54s.73-.7,1.59-1.59,1.58-1.6,1.59-1.59-.31.58-1.73,2l-1.62,1.66-.17.48a2,2,0,0,0-.14.51s.74-.7,1.61-1.58c1.29-1.3,1.56-1.56,1.48-1.36a13.54,13.54,0,0,1-1.69,1.87l-1.6,1.62-.11.42c-.11.43-.09.57.06.38s.74-.78,1.55-1.6c1.1-1.11,1.46-1.44,1.42-1.31s-.19.35-2,2.22l-1.28,1.29-.08.39a1.28,1.28,0,0,0,0,.42s.72-.68,1.57-1.55,1.55-1.55,1.56-1.52-.21.43-1.67,1.94l-1.59,1.63-.07.36a1.31,1.31,0,0,0,0,.4s.73-.67,1.58-1.54c1.21-1.24,1.54-1.55,1.54-1.43A10,10,0,0,1,73.74,68c-.86.87-1.59,1.64-1.64,1.71s-.16.79-.09.76l1.57-1.57c1.21-1.23,1.53-1.52,1.53-1.41a9.78,9.78,0,0,1-1.59,1.76L71.93,70.9l0,.39,0,.38,1.56-1.58C74.65,68.86,75,68.55,75,68.7a10.18,10.18,0,0,1-1.4,1.57c-.74.77-1.44,1.48-1.54,1.58s-.19.22-.19.51a.76.76,0,0,0,0,.33s.71-.67,1.51-1.5c1.19-1.23,1.45-1.47,1.47-1.36s-.31.48-1.5,1.69c-1.52,1.55-1.52,1.56-1.52,1.82s0,.29,0,.3a16,16,0,0,0,1.49-1.41c1.11-1.12,1.43-1.42,1.43-1.31a9.16,9.16,0,0,1-1.46,1.63c-1.54,1.57-1.52,1.55-1.4,2,0,.13.16,0,1.4-1.26,1.1-1.13,1.37-1.38,1.39-1.28s-.31.47-1.34,1.53C72,74.93,72,74.93,72.05,75.2a.82.82,0,0,0,0,.31,18.44,18.44,0,0,0,1.34-1.28c1.07-1.09,1.3-1.3,1.3-1.17s-.3.46-1.3,1.46c-1.29,1.29-1.31,1.31-1.26,1.52a1.11,1.11,0,0,0,.09.29c0,.06.41-.3,1.25-1.16S74.73,74,74.75,74s-.29.44-1.19,1.37l-1.22,1.27.06.22a1,1,0,0,0,.09.26,12,12,0,0,0,1.15-1.11c1-1,1.13-1.13,1.15-1s-.2.37-1.11,1.27l-1.13,1.13.08.21a2,2,0,0,0,.12.25,7.44,7.44,0,0,0,1.08-1c.79-.81,1-1,1-.91a5.41,5.41,0,0,1-1,1.17,10.24,10.24,0,0,0-1,1.1.7.7,0,0,0,.1.25l.09.19.92-1c.79-.8.93-.92.93-.79s-.2.36-.86,1a7.5,7.5,0,0,0-.87,1,.83.83,0,0,0,.1.27l.1.19.83-.83c.62-.62.83-.79.83-.7a3.9,3.9,0,0,1-.78.94l-.77.81.13.22.13.23.7-.73c.61-.63.7-.71.71-.58s-.16.32-.65.81a7.78,7.78,0,0,0-.65.68,1.59,1.59,0,0,0,.13.24l.13.21.57-.57a6.06,6.06,0,0,1,.61-.56c.15,0,0,.26-.51.76l-.55.57.12.2a1,1,0,0,0,.15.2,6.06,6.06,0,0,0,.52-.51c.44-.45.5-.49.5-.36s-.13.29-.44.6c-.46.46-.48.52-.27.79s.11.11.49-.26.4-.38.43-.28,0,.2-.33.48l-.37.38.13.2.13.21.33-.33c.28-.27.34-.31.37-.21s0,.19-.25.4-.32.41-.06.62c.08.07.12.06.3-.11a1.08,1.08,0,0,1,.24-.2c.11,0,0,.23-.15.41l-.19.2.14.2.14.19.18-.17c.15-.15.19-.16.24-.08s0,.14-.11.25-.14.31.07.49.12.06.22,0,.24-.06.11.15-.09.18,0,.35.15.16.23.09.11-.07.14,0a.19.19,0,0,1,0,.18c0,.06,0,.12.12.26s.21.15.24.13.09,0,.08.18a21.76,21.76,0,0,0,2,2c.44.39.42.39-.2,0s-1.46-1-3-2.23c-1-.8-1.47-1.12-1.52-1.07a.39.39,0,0,1-.22.06c-.15,0-.15,0,0-.13s.12-.13-.06-.28l-.17-.15-.51.48c-.28.27-.64.63-.8.81l-.3.32.13.19a.64.64,0,0,0,.18.19s.08.07.12.16a3.78,3.78,0,0,0,.28.42l.19.25-.32-.29a2.13,2.13,0,0,0-.38-.3.07.07,0,0,1-.07-.08.54.54,0,0,0-.15-.23l-.16-.14-.17.16a.65.65,0,0,1-.29.17c-.1,0-.09,0,.08-.2s.24-.29,0-.49L72.18,85l-1.34,1.39c-1.06,1.09-1.36,1.36-1.41,1.3s.22-.38,1.25-1.45L72,84.91l-.16-.11a.85.85,0,0,0-.23-.11,12.87,12.87,0,0,0-1.06,1l-1,1,.07.2c.07.18.07.18,0,.09s-.2-.13-.44.12-.37.28-.37.16A1.16,1.16,0,0,1,69,87c.27-.26.28-.34,0-.47l-.2-.09-.26.26c-.19.18-.3.25-.38.22s-.08-.07.09-.25a1.08,1.08,0,0,0,.2-.24s-.13,0-.29,0a.54.54,0,0,0-.46.17c-.11.1-.21.15-.28.12s-.09-.05,0-.14.07-.1-.1-.06a2.38,2.38,0,0,0-.93.62A2.88,2.88,0,0,0,66,88a1.07,1.07,0,0,0,.31-.28c.25-.29.27-.29.27-.15a19.4,19.4,0,0,1-3,3.1c-.07,0,.09-.24.79-1,.49-.49.88-.91.88-.93a.66.66,0,0,0-.25-.12l-.25-.07-.85.88c-.67.7-.86.87-.94.82s.06-.22.73-.89c.45-.45.82-.84.82-.86s-.11-.08-.25-.12l-.26-.08-.8.82a3.76,3.76,0,0,1-.94.81c-.11,0-.05-.08.3-.45l.83-.86.39-.41-.26-.08-.26-.08-.81.82c-.64.63-.84.8-.91.75s.06-.21.67-.82a4.6,4.6,0,0,0,.73-.84.73.73,0,0,0-.26-.11c-.22,0-.23,0-1,.76s-.77.78-.86.73,0-.17.64-.8c.4-.41.74-.76.74-.78s-.12-.08-.26-.13l-.25-.07-.74.75a5.5,5.5,0,0,1-.83.76c-.12,0-.11-.09,0-.19s.38-.38.72-.75l.62-.67-.26-.07-.26-.07-.72.72c-.62.62-.94.84-.94.67a8,8,0,0,1,.69-.73c.37-.37.68-.69.68-.71a.78.78,0,0,0-.25-.12l-.25-.07-.7.72c-.57.6-.72.72-.8.67s0-.16.54-.7a5.14,5.14,0,0,0,.65-.72s-.11-.1-.24-.13l-.25-.07-.66.68c-.46.48-.68.67-.75.64s0-.13.3-.45l.64-.68.23-.25-.25-.08-.26-.08-.64.63c-.55.55-.84.75-.84.58a6.48,6.48,0,0,1,.58-.63,5,5,0,0,0,.59-.63s-.11-.06-.25-.1l-.25-.06-.6.61c-.47.49-.63.61-.71.58s0-.14.46-.62.55-.6.51-.64a.66.66,0,0,0-.28-.1c-.21,0-.23,0-.75.52s-.73.68-.73.52a4.87,4.87,0,0,1,.5-.55,3.92,3.92,0,0,0,.49-.57s-.1-.08-.23-.11L56.18,86l-.57.56c-.46.45-.59.55-.65.49s0-.18.41-.57a2.28,2.28,0,0,0,.45-.53.89.89,0,0,0-.25-.09c-.21-.05-.23,0-.7.44s-.71.6-.71.44a3.51,3.51,0,0,1,.44-.48A4.05,4.05,0,0,0,55,85.8s-.12-.08-.26-.12l-.26-.07-.45.48c-.33.35-.48.46-.55.43s0-.11.3-.45a4,4,0,0,0,.42-.46s-.12-.08-.26-.11l-.26-.07-.44.43c-.32.32-.46.42-.53.38s0-.14.3-.45l.39-.4-.27-.07-.27-.07-.37.37c-.32.33-.59.47-.59.33a2.09,2.09,0,0,1,.33-.37c.17-.18.3-.34.28-.37a1.08,1.08,0,0,0-.31-.07c-.26,0-.28,0-.54.29s-.31.32-.38.32-.15-.07.16-.37c.15-.15.26-.29.25-.32a.87.87,0,0,0-.29-.08c-.25,0-.27,0-.55.24s-.59.36-.24,0l.24-.29-.28,0c-.27,0-.3,0-.54.21s-.3.24-.37.21-.09-.07.1-.26.21-.3-.15-.31a.57.57,0,0,0-.41.2c-.13.13-.23.18-.31.15s-.08-.06.07-.22l.16-.17-.14,0a.69.69,0,0,0-.64.08.39.39,0,0,1-.23.13c-.12,0-.12,0,0-.13s.1-.19-.24-.23-.29,0-.35.07a.28.28,0,0,1-.2.1c-.1,0-.11,0-.08-.13s0-.13-.43-.1c-.31,0-.46,0-.44,0s0-.06-.17-.06l-1.5-.06a37.41,37.41,0,0,0-6.6.35A24.06,24.06,0,0,0,26.6,89.29a15.22,15.22,0,0,0-5.29,6.39,11.58,11.58,0,0,0-.41,1.74,3.3,3.3,0,0,0,.44-.78,14.09,14.09,0,0,1,4.4-5.19,19.18,19.18,0,0,1,10-3.91,39.74,39.74,0,0,1,4.24,0,45.6,45.6,0,0,1,9.42,1.7,31.35,31.35,0,0,1,6.85,2.88,39.46,39.46,0,0,1,7.24,5.63c3.24,2.92,4.43,3.72,6.13,4.12a9,9,0,0,0,3.42-.16Zm4.53-1.93c.16-.16.25-.21.33-.18s.09.06-.07.22a.54.54,0,0,1-.33.19C77.37,100,77.37,100,77.6,99.75Zm.85.13a.37.37,0,0,1,.24-.09c.13,0,.14,0,.07.09a.33.33,0,0,1-.23.1C78.4,100,78.39,100,78.45,99.88Zm-1.7-.28c.28-.28.46-.38.46-.25a1.59,1.59,0,0,1-.22.3c-.15.19-.27.26-.38.26s-.15,0,.14-.31Zm-.8-.21c.33-.39.45-.46.54-.36s-.65.76-.78.76,0-.1.24-.4Zm-1.11.23c-.1,0,0-.11.34-.49a2.61,2.61,0,0,1,.53-.45c.18,0,.11.13-.31.53S74.92,99.64,74.84,99.62ZM74,99.37a3.64,3.64,0,0,1,1.06-1c.06,0-.06.19-.39.55S74.11,99.49,74,99.37Zm24.25-.22a1,1,0,0,1,.4-.25l.19-.05-.25.25a.68.68,0,0,1-.4.26c-.16,0-.16,0,.06-.21ZM99.43,99a1.42,1.42,0,0,1,.38-.34l.18,0c.06,0,0,.13-.26.34-.48.49-.72.53-.3,0Zm-2.21.18a.37.37,0,0,1,.24-.09c.13,0,.14,0,.07.09a.32.32,0,0,1-.23.09C97.17,99.29,97.16,99.28,97.22,99.2Zm3.41-.37c.4-.41.71-.64.78-.57a5.09,5.09,0,0,1-.47.52c-.33.35-.54.51-.63.51S100.25,99.22,100.63,98.83Zm-26.89-.27c.37-.4.6-.61.66-.59s.09.06.09.08a6.38,6.38,0,0,1-1.2,1.12c-.08,0,.06-.19.45-.61ZM102,98.49c.54-.54.87-.8.94-.73a8.78,8.78,0,0,1-.62.69c-.47.49-.67.66-.78.66S101.43,99,102,98.49Zm-29.39.37c-.08,0,0-.18.52-.68s.65-.6.72-.56,0,.18-.53.68S72.64,98.91,72.57,98.86Zm30.82-.81a7.89,7.89,0,0,1,1-.93c.21-.11.14,0-.51.67-.88.93-.85.91-1.13,1s-.11,0,.59-.74Zm-31.59.51a6.36,6.36,0,0,1,1.37-1.32s-.14.27-.55.71C72,98.57,71.88,98.69,71.8,98.56Zm33.39-1.32a17.44,17.44,0,0,1,1.47-1.37c.33-.21.24-.1-.85,1a7.4,7.4,0,0,1-1.47,1.36C104.11,98.35,104.21,98.23,105.19,97.24Zm-34.07,1a4.62,4.62,0,0,1,.67-.79c.57-.61.72-.73.79-.66s0,.2-.63.78a7.86,7.86,0,0,1-.76.71.13.13,0,0,1-.07,0Zm-.68-.37a5,5,0,0,1,.71-.8c.61-.6.78-.75.85-.69s-.06.21-.65.8S70.54,98,70.44,97.89Zm-.59-.32c-.08,0,.07-.23.68-.85a8.77,8.77,0,0,1,.82-.8c.17,0,0,.2-.66.92s-.78.77-.84.73ZM107.5,95.9c.87-.89,1.77-1.76,2-1.94s.39-.25.34-.19-.81.86-1.69,1.76a22.94,22.94,0,0,1-1.92,1.82c-.26.14,0-.1,1.26-1.45ZM83.56,97.19a13.13,13.13,0,0,1-7-2.61,30.35,30.35,0,0,1-4.62-4.66,5.6,5.6,0,0,0-.73-.8s-.09-.06-.1-.13a.81.81,0,0,0-.15-.29c-.1-.14-.14-.16-.21-.1s-.26,0-.15-.16,0-.26-.15-.4-.12-.06-.25.06-.15.13-.19,0a.27.27,0,0,1,.1-.25c.12-.13.13-.17.06-.25s-.05-.09,0-.09a.14.14,0,0,1,.11.07s.13,0,.27-.16.24-.22.27-.12a.51.51,0,0,1-.15.31l-.18.18.19.18c.14.14.2.17.26.11s.19-.08.15.13a.3.3,0,0,0,.11.35c.09.08.16.12.16.1s0,0,.09,0,.08.11.06.14,3.38,3.48,4.12,4.08a12.26,12.26,0,0,0,3.73,2.25c2,.76,4,.91,7.77.61.68-.05,1.82-.1,2.53-.1s1.86,0,2.54.1A22.91,22.91,0,0,0,98,95.73c3.21-.61,5.29-2,9.29-6.24.87-.92,1.67-1.74,1.77-1.83l.2-.15-.22.31c-.11.17-.4.56-.64.86a33.92,33.92,0,0,1-5.67,5.95c-2.61,2-5.91,2.84-10,2.56a40.92,40.92,0,0,0-5.29,0,25.75,25.75,0,0,1-3.79,0Zm-14.33,0c-.06,0,.14-.29.75-.91s.84-.83.9-.76-.07.23-.75.9S69.29,97.17,69.23,97.14Zm-.6-.45A8.05,8.05,0,0,1,70.34,95s-.16.31-.75.91a9.83,9.83,0,0,1-.87.85.14.14,0,0,1-.09-.07Zm-.55-.43a6.19,6.19,0,0,1,.81-1c.67-.71.86-.88.93-.82s-.08.24-.76.94c-.47.48-.87.88-.9.89s-.06,0-.08,0Zm-.51-.52A6.5,6.5,0,0,1,69.33,94c.06.07-.11.26-.82,1S67.61,95.83,67.57,95.74Zm41.59-.5c.08-.1.55-.59,1-1.08.78-.77.85-.83.49-.4s-1.77,1.8-1.54,1.48Zm-42.06,0c0-.09.16-.32.8-1a10.48,10.48,0,0,1,.91-.87c.17,0,0,.2-.79,1S67.13,95.33,67.1,95.25Zm-.44-.59c-.06-.09.2-.41,1-1.21.54-.54.7-.66.76-.6s-.11.26-.83,1a4.13,4.13,0,0,1-.94.83Zm-.46-.58c0-.06.13-.28.84-1s.93-.89,1-.85-.19.32-.63.79C66.37,94.1,66.28,94.18,66.2,94.08Zm20.06-.27-.84-.09a17.51,17.51,0,0,1-8.17-3.27,13.8,13.8,0,0,1-2.59-2.6,5.72,5.72,0,0,1,.73.57A24.62,24.62,0,0,0,78,90.35a17.55,17.55,0,0,0,6.24,2.17,34,34,0,0,0,5.38.22c4,0,4.91-.07,6.7-.47a17.25,17.25,0,0,0,5.13-2A26.26,26.26,0,0,0,104,88.35a4.52,4.52,0,0,1,.64-.5,12.37,12.37,0,0,1-2.28,2.37,17.65,17.65,0,0,1-8,3.46,26.75,26.75,0,0,1-4.31.14c-1.93,0-3.6,0-3.72,0ZM65.8,93.46c0-.06.26-.4.83-1a12.15,12.15,0,0,1,.92-.91c.21,0,0,.27-.8,1.08-.64.64-.93.89-1,.82Zm-.39-.62c0-.09.14-.3.88-1s.94-.9,1-.84-.27.41-.89,1C65.61,92.8,65.45,92.93,65.41,92.84ZM65,92.23a6.23,6.23,0,0,1,.94-1.1c.8-.84,1-1,1-.9s-.12.29-.9,1.07c-.52.54-1,1-1,1s0,0-.07-.06Zm-.4-.62c-.06-.07.12-.27,1-1.16s1.08-1,1.08-1a5.78,5.78,0,0,1-1,1.17C64.84,91.53,64.66,91.69,64.59,91.61Zm-.51-.55a13.38,13.38,0,0,1,1.21-1.32c1-1,1.2-1.22,1.24-1.13s-.22.37-1.12,1.3c-.64.65-1.2,1.2-1.25,1.21a.06.06,0,0,1-.08-.06Zm23.2-.21A10.69,10.69,0,0,1,83,89.71a11.31,11.31,0,0,1-1.8-1s.76.25,1.61.56,1.82.62,2.16.7a21.44,21.44,0,0,0,4,.45,18.46,18.46,0,0,0,5.48-.61,19.71,19.71,0,0,0,6.21-2.58c1-.61,1-.62.82-.45a12.54,12.54,0,0,1-1.77,1.42,21.45,21.45,0,0,1-7.54,2.58,29.84,29.84,0,0,1-4.94.06Zm25.61-.13a.76.76,0,0,1,.18-.23c.12-.11.13-.11.1,0a.62.62,0,0,1-.19.23c-.15.11-.16.11-.09,0Zm-23.84-7a1,1,0,0,0-.11-.35,1.58,1.58,0,0,0-.34.29c-.21.21-.32.28-.4.25s0-.11.28-.44l.39-.39-.07-.25a.65.65,0,0,0-.11-.26,6.35,6.35,0,0,0-.55.5c-.72.72-.79.57-.08-.19l.56-.61L88.54,82l-.07-.26-.69.68a5.75,5.75,0,0,1-.76.69c-.18,0,0-.2.63-.87.39-.39.71-.73.71-.75a1.37,1.37,0,0,0-.1-.28l-.1-.24-.82.87c-.66.68-.85.85-.91.79s0-.21.51-.68c1.2-1.23,1.14-1.15,1.06-1.4s-.1-.23-.12-.23-.47.43-1,.94c-.73.73-1,.93-1,.87s.15-.3.91-1.06l1-1-.09-.25a.57.57,0,0,0-.11-.25s-.51.48-1.07,1.07c-.84.87-1,1-1.12,1s.08-.24.76-.93c1.39-1.42,1.32-1.33,1.24-1.59a.47.47,0,0,0-.12-.22s-.56.51-1.19,1.14-1.16,1.13-1.2,1.09,0-.21,1.41-1.59l.87-.88-.08-.25c0-.14-.09-.25-.12-.25s-.6.57-1.27,1.27c-1,1-1.25,1.26-1.32,1.19s.08-.25,1-1.16C87,77.83,86.89,78,86.8,77.69a.41.41,0,0,0-.11-.23s-.66.62-1.41,1.39c-1,1-1.38,1.37-1.43,1.31s.3-.45,1.36-1.54l1.43-1.47-.07-.25a.57.57,0,0,0-.11-.25s-.72.69-1.54,1.53c-1.2,1.23-1.51,1.51-1.54,1.42s.3-.45,1.51-1.68l1.55-1.59V76c0-.17,0-.31,0-.31s-.81.77-1.74,1.72c-1.3,1.33-1.69,1.69-1.75,1.63s-.12,0,2.47-2.67l1.06-1.08,0-.4,0-.4-2,2c-1.55,1.57-2,2-2.05,1.93a14.7,14.7,0,0,1,2.05-2.24l2.09-2.14.13-.45a2.44,2.44,0,0,0,.11-.47S86,74,85.07,75l-2.36,2.4c-.49.5-.62.6-.66.53s.12-.28.79-1c2.23-2.26,4-4.14,4.13-4.26s.19-.79.11-.78-1.23,1.22-2.68,2.7a30.69,30.69,0,0,1-2.67,2.61c-.06-.1.15-.33,3-3.23l2.41-2.45,0-.28A.63.63,0,0,0,87,71s-1.29,1.27-2.8,2.82C82,76,81.45,76.57,81.44,76.47s.41-.58,1.82-2L86,71.6l.92-1-.11-.22c0-.12-.12-.2-.15-.19S85.46,71.47,84,73a33.38,33.38,0,0,1-2.72,2.65c-.08-.09.13-.31,2.92-3.15L86.63,70l-.13-.23-.14-.23-.78.8c-.43.44-1.59,1.61-2.57,2.62-1.42,1.46-1.78,1.79-1.76,1.65a15.61,15.61,0,0,1,1.94-2.13l2.48-2.54.55-.58-.11-.21a.62.62,0,0,0-.16-.21s-1,1-2.29,2.33c-1.87,1.91-2.27,2.29-2.29,2.18s.23-.39,1.15-1.32l2.25-2.28,1.08-1.09-.11-.22c0-.12-.12-.22-.15-.22a6.77,6.77,0,0,0-.73.69c-2.48,2.55-3.37,3.43-3.37,3.29a12.29,12.29,0,0,1,1.65-1.83c2.63-2.69,2.34-2.35,2.25-2.61s-.09-.22-.12-.22-.9.86-1.94,1.92c-1.47,1.5-1.89,1.9-1.92,1.81a12.17,12.17,0,0,1,1.88-2.07l1.9-2-.07-.26a.56.56,0,0,0-.1-.26s-.85.84-1.85,1.86-1.84,1.86-1.87,1.86c-.2,0,.1-.36,1.44-1.72.82-.84,1.68-1.71,1.89-1.94l.39-.4,0-.31,0-.31L83.1,67.72c-1,1-1.84,1.86-1.84,1.85s.32-.6,1.9-2.21L85,65.49l.06-.39a1.51,1.51,0,0,0,0-.39s-.8.77-1.73,1.71c-1.36,1.38-1.67,1.68-1.6,1.49a15.47,15.47,0,0,1,1.79-2l1.68-1.74.17-.5a5.34,5.34,0,0,0,.17-.54l-1.36,1.36c-1.18,1.2-1.33,1.34-1.11,1s.83-1,1.51-1.69A18.47,18.47,0,0,0,86,62.32c.18-.34.18-.24,0,.3a6.9,6.9,0,0,0-.48,2.21c-.07,1.43.36,2.31,2,4.11a4.29,4.29,0,0,1,1.13,1.61c.18.6.13.91-.44,2.64a9.44,9.44,0,0,0-.66,3.24,10.74,10.74,0,0,0,.82,3.71c.3.92.59,1.9.65,2.17a12,12,0,0,1,.19,1.75,1.34,1.34,0,0,1-.09-.32Zm26.53,1.85c.55-.58.77-.76.91-.79s.12,0-.57.74-.82.85-.16.66c.33-.09.4-.15,1.11-.9s1-1,1.2-1a2.14,2.14,0,0,1-.4.48c-.78.8-1,1-.89,1a4.45,4.45,0,0,0,1.2-1,4.76,4.76,0,0,0-.31-6.42A4.44,4.44,0,0,0,115.13,77a4.33,4.33,0,0,0-2.06.18c-.46.14-.78.42-1.27,1.12a11,11,0,0,1-1,1.08c-.7.72-.82.9-.89,1.39l0,.27.6-.58c.52-.52.59-.57.56-.41a3,3,0,0,1-.63.78l-.58.59v.32c0,.18,0,.33,0,.33a7.36,7.36,0,0,0,.59-.54c.43-.44.54-.52.54-.41s-.2.35-.56.72c-.53.56-.55.59-.51.8a.58.58,0,0,0,.09.27,2.81,2.81,0,0,0,.56-.5c.42-.46.51-.52.56-.43s-.05.21-.5.67l-.56.56.09.21a1.46,1.46,0,0,0,.12.25,3.49,3.49,0,0,0,.58-.51c.43-.43.55-.53.58-.45s-.12.27-.51.67l-.54.57.1.17a1.78,1.78,0,0,0,.14.21,3.55,3.55,0,0,0,.6-.54c.45-.47.57-.56.64-.5s0,.19-.5.66l-.58.58.13.19a.63.63,0,0,0,.18.19,8.57,8.57,0,0,0,.64-.59c.83-.83.93-.71.14.14l-.61.65.19.15.18.14.66-.65c.5-.51.69-.65.77-.62s0,.16-.56.72a3.31,3.31,0,0,0-.63.73.77.77,0,0,0,.23.14l.2.08.66-.7c.53-.56.68-.7.78-.66s0,.15-.59.74c-.74.75-.76.8-.34.88.17,0,.25,0,.89-.68s.93-.86.86-.66a10.07,10.07,0,0,1-.69.78c-.66.7-.66.71-.49.75l.26.06a3.78,3.78,0,0,0,.87-.75c.6-.6.81-.77.89-.73s0,.17-.61.77-.72.73-.58.75c.41.08.55,0,1.31-.79ZM117.13,83a3.84,3.84,0,0,0-.11-1.16,4.91,4.91,0,0,0-1.42-2.4,3.14,3.14,0,0,0-1.06-.73,1.52,1.52,0,0,1-.56-.34.15.15,0,0,1,.1-.06,3.92,3.92,0,0,0,1.21-.64.47.47,0,0,1,.21-.16,5.38,5.38,0,0,1,1.45.78,4.81,4.81,0,0,1,1.77,3.64c0,.81,0,1-.3,1a1.75,1.75,0,0,0-.75.42l-.38.27-.17.1V83Zm1.09-.52c.17-.22.17-.65,0-1.3a5.1,5.1,0,0,0-2-2.89c-.28-.19-.81-.1-.81.13,0,.07.18.26.41.44a5.39,5.39,0,0,1,1.28,1.53,6.28,6.28,0,0,1,.54,1.65,1.56,1.56,0,0,0,.07.37c0,.18.09.23.21.23a.43.43,0,0,0,.28-.16ZM71.11,84.58a1.34,1.34,0,0,0-1,.61,2.61,2.61,0,0,0-.58,1.08c0,.09.27-.14.9-.77l.9-.9-.22,0ZM110.67,86a2.5,2.5,0,0,0-.35-.41,5.53,5.53,0,0,1-1.17-5A5.67,5.67,0,0,1,111,77.73a6.16,6.16,0,0,1,2-1,5.52,5.52,0,0,1,2.06-.08c.57.1.62.07.74-.44a2.94,2.94,0,0,0,0-1c-.09-.79-.69-4.66-1-6.58-1-5.8-2.75-11.1-4.54-14a8.87,8.87,0,0,0-4.93-4.2l-1.41-.6c-.86-.38-1.23-.45-1.53-.3a5.74,5.74,0,0,0-.83.86c-.34.42-1.4,1.52-2.34,2.46-1.8,1.78-2.14,2.19-2.49,3-.51,1.23-.48,3,.1,5.77a46.07,46.07,0,0,0,3.88,11c1.09,2.17,3.7,6.64,5.23,8.93l.37.56.49.2a1.87,1.87,0,0,1,1.16,1,17.32,17.32,0,0,0,2.27,2.51c.3.29.51.4.51.29ZM74.24,83.63a.81.81,0,0,0-.19-.18l-.2-.14-.69.74-.7.73.13.2.13.21.76-.76a8.1,8.1,0,0,0,.76-.8Zm-.63-.41a.47.47,0,0,0-.19-.18l-.17-.11-.56.56a4,4,0,0,0-.56.63,1.06,1.06,0,0,0,.1.28l.1.19.65-.65a3.63,3.63,0,0,0,.63-.72Zm-1.07.11c.52-.52.53-.56.16-.66-.12,0-.21,0-.49.31s-.34.34-.29.59a.53.53,0,0,0,.08.26,4.47,4.47,0,0,0,.54-.5Zm38.9-4.81a10.59,10.59,0,0,0,.92-1,4.71,4.71,0,0,0-1.06.76c-.37.36-1.07,1.34-.9,1.27S110.9,79.08,111.44,78.52ZM99.61,73.14l.43-.45-.12-.23-.12-.22L98,74.08l-1.81,1.84-.19.51c-.1.28-.19.53-.19.56s2.59-2.58,3.81-3.85Zm-1.58.6,1.63-1.68-.1-.21a.64.64,0,0,0-.15-.21s-.69.65-1.47,1.45c-1.37,1.42-1.41,1.47-1.49,1.81s-.11.51-.07.51.75-.75,1.65-1.67Zm.7-1.75.56-.6-.11-.23-.11-.22L97.9,72.11a11.2,11.2,0,0,0-1.2,1.29c0,.07,0,.27-.07.44l0,.31.78-.78c.43-.42,1-1,1.35-1.38Zm-.87-.14a10.25,10.25,0,0,0,1-1.15.48.48,0,0,0-.13-.24l-.12-.15-1,1-1,1v.33c0,.18,0,.32,0,.31s.51-.5,1.08-1.08Zm.29-1.33.43-.46-.13-.21-.13-.2-.8.79-.79.8V72l.5-.5c.27-.27.69-.7.92-1Zm-.06-1.32c-.16-.27-.1-.31-.93.59l-.56.6.05.29,0,.29.77-.77.77-.78-.14-.22Zm-1,.35c.8-.82.77-.77.64-1a.55.55,0,0,0-.15-.2s-.27.24-.57.54l-.54.55,0,.29a.61.61,0,0,0,.08.29,3.86,3.86,0,0,0,.5-.48Zm.27-1.64a.63.63,0,0,0-.14-.23,5.56,5.56,0,0,0-.74.75c-.13.15-.14.21-.1.46l0,.29.52-.52.53-.53-.11-.22ZM97,67.54c.06-.11-.07-.48-.18-.48a2.56,2.56,0,0,0-.37.33c-.31.32-.33.34-.28.57a1.18,1.18,0,0,0,.07.3,2.87,2.87,0,0,0,.76-.72Zm-.31-.75a.82.82,0,0,0-.14-.25l-.15-.17-.22.25c-.13.14-.22.29-.2.36s0,.19.06.29l0,.18.3-.3a1.78,1.78,0,0,0,.31-.36ZM96.25,66c-.18-.26-.29-.22-.32.09s0,.5.26.27l.19-.19ZM84,49.06c1.25-1.28,2.26-2.33,2.24-2.35a1.92,1.92,0,0,0-.38.28,60.39,60.39,0,0,0-5.21,5,32,32,0,0,0-2.3,2.78s.76-.73,1.69-1.68l4-4Zm73.8,160.74c-1.91-.35-2.95-1.61-3.2-3.89a10,10,0,0,1,.13-2.67,3.58,3.58,0,0,1,2.64-2.94,6.13,6.13,0,0,1,2.05-.1,3.48,3.48,0,0,1,3,2.61,8.51,8.51,0,0,1,.08,4.23,3.53,3.53,0,0,1-2.57,2.67,8.34,8.34,0,0,1-2.11.09Zm1.3-.87c1-.19,1.54-.82,1.81-2.1a13.94,13.94,0,0,0,0-3.65,2.6,2.6,0,0,0-1.27-2,1.78,1.78,0,0,0-1-.17,1.74,1.74,0,0,0-1,.17,2.61,2.61,0,0,0-1.28,2,9,9,0,0,0-.11,1.82,5.87,5.87,0,0,0,.4,2.73,1.92,1.92,0,0,0,.87,1,2.28,2.28,0,0,0,1.58.22Zm1.1-15.65c0-2.45,0-4.45,0-4.44s-2.2,2.37-2.55,2.8a2.71,2.71,0,0,0-.59,1.1c0,.18.21.34.55.38l.31,0v.66H154v-.67l.33-.06c.67-.14,1.24-.6,2.47-2l.84-.94c.07-.09-.08-.35-1.26-2.09-.74-1.1-1.49-2.14-1.67-2.32a1.65,1.65,0,0,0-1.06-.58l-.27,0v-.72l.48,0,.92.05a2.51,2.51,0,0,1,1.29.43,11.09,11.09,0,0,1,1.71,2.39c.49.76.92,1.43,1,1.48s.19,0,.74-.4l.66-.48,0-1c0-.9,0-1-.14-1.24a1.06,1.06,0,0,0-.93-.48l-.4,0v-.73h4.64v.73l-.42,0a1.05,1.05,0,0,0-1,.48l-.13.21,0,5.17,0,5.17.14.27a1.08,1.08,0,0,0,1,.55l.4,0v.66h-3.16l0-4.45Zm-1.9-12a3.18,3.18,0,0,1-2.61-1.77,4.42,4.42,0,0,1-.44-2.15l0-1,2.91,0H161v-.52a4.09,4.09,0,0,0-.79-2.47,2.9,2.9,0,0,0-3.32-.34,3.17,3.17,0,0,0-.67.49,2.75,2.75,0,0,1-.39.33s-.09-.08-.15-.18c-.38-.74.51-1.67,1.87-1.95a5.86,5.86,0,0,1,2.21,0,3.66,3.66,0,0,1,2.7,2.79,8.42,8.42,0,0,1,0,3.93,3.51,3.51,0,0,1-2.55,2.72,5.72,5.72,0,0,1-1.63.1Zm1.43-1.08a2.94,2.94,0,0,0,1.24-2.5l0-.45h-4.05v.43a4.73,4.73,0,0,0,.34,1.71,1.85,1.85,0,0,0,.91.92,2.22,2.22,0,0,0,1.52-.11Zm-2.64-11.61c-.92-.11-1.37-.51-1.37-1.24s.46-1.13,1.31-1.18l.27,0,0,.37c.07.69.32,1,.87,1s.93-.29,1.25-1c.45-.94.55-1.81.53-4.24,0-2.12,0-2.08-.55-2.36a1.58,1.58,0,0,0-.82-.13h-.54v-.75h5v.73l-.4,0a1.06,1.06,0,0,0-.92.48c-.14.21-.14.25-.16,3.34,0,2.07,0,3.2.05,3.35.13.46.45.68,1.13.77l.3,0v.68h-2.66l0-.17c0-.1-.1-.49-.17-.87a2.07,2.07,0,0,0-.2-.69,1,1,0,0,0-.26.41,2.27,2.27,0,0,1-2.69,1.44ZM14.77,90v-.38h.32a1.13,1.13,0,0,0,1-.47l.15-.24V85.76c0-3,0-3.18-.1-3.45a1,1,0,0,0-.72-.55L15,81.7l-.23,0V81h2.65l.07.33c0,.18.11.57.17.86s.13.55.17.54a1.3,1.3,0,0,0,.29-.48,2.35,2.35,0,0,1,1-1.15,1.73,1.73,0,0,1,1-.21,5.12,5.12,0,0,1,1,0,1.18,1.18,0,0,1,1,1.18c0,.71-.46,1.13-1.3,1.18l-.28,0,0-.37c-.07-.7-.32-1-.89-1-.76,0-1.26.65-1.6,2.06a11.77,11.77,0,0,0-.15,2.66c0,2.13,0,2.13.11,2.41s.54.56,1.24.56h.55v.74h-5V90ZM18.08,77.7a3.68,3.68,0,0,1-2.69-2.78,8.74,8.74,0,0,1,0-3.94,3.63,3.63,0,0,1,1.86-2.45A3.68,3.68,0,0,1,19,68.16a3.27,3.27,0,0,1,3.45,2.58,6.54,6.54,0,0,1,.14,1.35l0,1H16.79l0,.56c.11,1.54.58,2.49,1.44,2.91a2,2,0,0,0,1,.23,3.08,3.08,0,0,0,2.39-.82,2.82,2.82,0,0,1,.4-.34s.08.08.13.18c.37.72-.42,1.59-1.75,1.93a5.64,5.64,0,0,1-2.35,0Zm2.8-6.17c-.09-1.71-.79-2.56-2-2.47a1.86,1.86,0,0,0-1.22.56,4.12,4.12,0,0,0-.75,2.15l0,.43h4.06l0-.67Zm-6.36-6.87v-.37l.43,0c.54,0,.8-.18,1-.54l.14-.27V53.23L15.93,53c-.17-.35-.47-.5-1-.55l-.4,0v-.66h3.17l0,4.48,0,4.49.13-.14c.52-.55,2.28-2.49,2.5-2.77a2.63,2.63,0,0,0,.56-1.1c0-.17-.2-.3-.57-.35l-.3,0v-.67h3.84V56c0,.32,0,.35-.17.38a2.88,2.88,0,0,0-1.6.91,25.43,25.43,0,0,0-1.91,2.14c0,.11,2.7,4,3,4.3a1.67,1.67,0,0,0,1.07.58l.26,0v.37c0,.42.12.38-1.05.3-1.55-.11-1.68-.23-3.35-2.85-.48-.76-.92-1.43-1-1.48s-.18,0-.74.41l-.66.48,0,1c0,.89,0,1.05.15,1.24a1.19,1.19,0,0,0,1,.5h.33V65H14.52v-.36Zm3.72-15.44a3.46,3.46,0,0,1-2.5-1.88,8,8,0,0,1-.41-4.67A3.58,3.58,0,0,1,18,39.73a7.12,7.12,0,0,1,2.48,0,3.62,3.62,0,0,1,2.69,3.1,9.27,9.27,0,0,1-.09,3.68,3.56,3.56,0,0,1-2.55,2.64,7.56,7.56,0,0,1-2.28.06Zm2-1a2.54,2.54,0,0,0,1.31-2,13.94,13.94,0,0,0,0-3.65,3.56,3.56,0,0,0-.65-1.49,2.37,2.37,0,0,0-3.25,0,3.62,3.62,0,0,0-.64,1.5,8,8,0,0,0-.12,1.82A8,8,0,0,0,17,46.27a2.39,2.39,0,0,0,1.58,2.09,3.17,3.17,0,0,0,1.65-.1ZM13.15,36l0-.55.89,0c2.5-.12,3.85-.69,4.62-2a4.29,4.29,0,0,0,.52-1.5c.05-.26.07-3.16.07-8.49,0-8.05,0-8.11-.13-8.37a1.33,1.33,0,0,0-.32-.41,3.69,3.69,0,0,0-2.43-.59l-1.12,0v-.48l0-.48H27.53v1h-.8c-1.74,0-2.7.32-3.07,1-.12.25-.13.28-.16,8.48,0,9.21,0,8.52-.49,9.52a5.09,5.09,0,0,1-1.94,2,9.77,9.77,0,0,1-2.23.88,23.5,23.5,0,0,1-4.94.53h-.73l0-.55Z"/><path id="path6095" class="cls-2" d="M37.66,87.65a18.92,18.92,0,0,0-12,4.21,15.07,15.07,0,0,1,9-2.32,21,21,0,0,1,15.68,7.9c4.12,5.25,6.49,11.6,8.6,17.86a52.25,52.25,0,0,1,2.47,11.32c.3-5-.09-10.14,1.85-14.86,1.46-3.78,4.13-7.47,8.14-8.78,5.07-1.78,10.52-2,15.85-2.21a78.11,78.11,0,0,1,18.25,1.43,13.33,13.33,0,0,1,8.69,5.6,24.35,24.35,0,0,1,3.65,14.13c.06,2.28,0,4.57.1,6.84a50.14,50.14,0,0,1,1.65-10.31,80,80,0,0,1,7.26-17.75A22,22,0,0,1,137.92,91c4.23-1.61,9.14-2.08,13.41-.32.62.22,1.48.82,1.94.91a19.33,19.33,0,0,0-12.68-3.88A37.85,37.85,0,0,0,122,93c-3.63,2.36-6.54,5.67-10.1,8.12-2,1.38-4.58,1.1-6.83.59a93.35,93.35,0,0,0-24.93-.82c-3,.24-6,1-9,1.25-2.81.21-5-1.89-7-3.57-3.31-2.88-6.57-5.94-10.69-7.61a41,41,0,0,0-15.82-3.26Z"/><path id="path6097" class="cls-2" d="M116.66,71.78s-.26-.52-.35-.73a56.84,56.84,0,0,0-2.16-11.11c-1-3.14-1.77-6.4-3.51-9.23a9.28,9.28,0,0,0-4.76-3.51,16.73,16.73,0,0,1-3.86-2,1.47,1.47,0,0,1-.6-1.84c-.65.34-1.51,4.35-2.62,5.17-1.75,2.09-3.92,3.82-5.54,6a6.13,6.13,0,0,0-.92,4.35c.34,4.26,2,8.27,2.84,12.44a18.64,18.64,0,0,1,0,5c-.14.78-.38,1.6-.49,2.35a17,17,0,0,1,1.13-1.54c-.4-.14,0-.66.07-.91s.5-.51.29-.74c-.06-.43.31-.88.36-1.2-.29-.35.09-.92.21-1.19-.37-.13-.14-.73-.1-.94-.23-.34.07-.83-.18-1.17a1.28,1.28,0,0,1,.12-.78c-.33-.17-.22-.66-.26-.9-.24-.22-.08-.69,0-.86-.52-.06,0-.78-.34-1a.85.85,0,0,1,0-.75c-.3-.12-.27-.69,0-.89.5-.09.64.58.91.86.09.2,0,.36.22.42s0,.54.35.63a2.66,2.66,0,0,1,.54,1.2c.26.12.36.42.48.63.31.23.13.71.5.88.2.17,0,.45.28.5s.17.5.24.63c.37.14.25.6.55.78a5.07,5.07,0,0,1,.56,1.15c.34.08.29.53.43.72.33,0,.29.37.28.6a.64.64,0,0,1,.41.6c.42.17.33.66.63.91.11.21,0,.38.28.47.16.3.19.64.45.88s-.08.46.23.49c.24.28,0,.7.4.9.19.17,0,.41.22.55a3.93,3.93,0,0,0,.34,1.07c.1.18-.14.45-.14.5.45.07.31.68.09.92.51.24.11.86-.06,1.14.31.26-.11.73-.17,1,.93-.56,1.71-1.52,2.82-1.74.3,0-.38-.17-.47-.29a18.73,18.73,0,0,1-2-3A58.55,58.55,0,0,1,97.82,66c-.91-3-1.85-6.05-1.6-9.2.2-1.9,1.88-3.12,3.06-4.46,1-1,1.94-2.15,3-3.1.69-.22,1.38.31,2,.49,1.9.79,3.91,1.67,5.13,3.42,2.15,3,3.24,6.49,4.22,10a102.74,102.74,0,0,1,2.25,12.18,1.89,1.89,0,0,1-.4,1.62,5.24,5.24,0,0,1,1.36.55,3.55,3.55,0,0,1,0-1.36Z"/><path id="path6132" class="cls-2" d="M68.93,209.84a32,32,0,0,0-2.7,2.37,3.75,3.75,0,0,0-.55.58,20,20,0,0,0,.89,1.8c.39.7.74,1.42,1.18,2.1,1.06-.88,2.07-1.81,3.07-2.77.09-.1.25-.23.11-.37-.58-1.2-1.22-2.37-1.87-3.53a.83.83,0,0,0-.13-.18Z"/><path id="path6134" class="cls-2" d="M112.33,210.76a1.4,1.4,0,0,0-1.11.55,2.15,2.15,0,0,0-.37.76.21.21,0,0,1-.37,0,1.56,1.56,0,0,0-1-.74,1.44,1.44,0,0,0-1.15.29,1.59,1.59,0,0,0-.54,1.7,4.13,4.13,0,0,0,1.75,2.18,17.47,17.47,0,0,0,2,1.21,17.71,17.71,0,0,0,1.55-1.91,5.82,5.82,0,0,0,.72-1.51,2.17,2.17,0,0,0-.21-1.95,1.4,1.4,0,0,0-1.2-.61Z"/><path id="path6136" class="cls-4" d="M67.78,158.08a14.92,14.92,0,0,0-5.61.32A28.27,28.27,0,0,0,51.39,164a37.93,37.93,0,0,0-6.79,7.63,92.3,92.3,0,0,0-5.09,8.19c-.08.22-.23.54-.5.3a6.58,6.58,0,0,0-4-1,6.43,6.43,0,0,0-5.42,4.57,9.22,9.22,0,0,0-.13,3,6.51,6.51,0,0,0,4,4.76,6.67,6.67,0,0,0,3.52.22,6.49,6.49,0,0,0,2.41-11.31c.07-.42.7-.42,1-.67,5.35-2.66,10.76-5.21,16.25-7.59a6.58,6.58,0,0,1,1.26-.46,3,3,0,0,1,1,.69,7.41,7.41,0,0,1-.88,1.44c-2.55,3.77-5.39,7.41-7.41,11.51a19.25,19.25,0,0,0-1.82,6,30.47,30.47,0,0,1,4.77-4.38c4.08-3,8.8-4.92,13.33-7.12.17-.07.61-.36.6,0-1.5,5.1-2.34,10-1.11,15.75.67,3.73,1.73,7.37,2.7,11,.16.3-.2.39-.43.36a6.93,6.93,0,0,0-2.93.48A6.36,6.36,0,0,0,62,212.21a7.27,7.27,0,0,0,.39,3.5,6.28,6.28,0,0,0,5.31,3.89,5.93,5.93,0,0,0,3.82-1,6.41,6.41,0,0,0-1.91-11.49.43.43,0,0,1-.28-.66c1.17-4.38,2.42-8.8,4.72-12.75a65.82,65.82,0,0,1,4.31-6.74c.42-.46.86-1.14,1.55-1.1s.93,1,1.29,1.49c1.87,3.55,3.6,7.18,5.34,10.79a31.46,31.46,0,0,1,2.71,8.18c.12.56.23,1.12.35,1.68a38.28,38.28,0,0,1,2.43-8.48c1.55-3.47,3.33-6.84,5-10.24.54-1,1-2.07,1.6-3a1,1,0,0,1,1.4-.17A21.77,21.77,0,0,1,103,190a43.51,43.51,0,0,1,4.85,9.48,65.89,65.89,0,0,1,2.12,7.15.4.4,0,0,1-.42.53,6.16,6.16,0,0,0-3.76,2.47,5.82,5.82,0,0,0-1.19,3.92,6.29,6.29,0,0,0,4.66,6,6.22,6.22,0,0,0,4.53-.64,6.43,6.43,0,0,0,2.87-3.51,7.15,7.15,0,0,0,.32-3.18,6.11,6.11,0,0,0-4.58-5c-.69-.25-1.44-.16-2.13-.39-.19-.28.1-.67.12-1a88.87,88.87,0,0,0,3-13.27,36.19,36.19,0,0,0,0-5.89,66.93,66.93,0,0,0-1.51-7c0-.36.46,0,.64,0,2.6,1.26,5.24,2.43,7.8,3.75a31.6,31.6,0,0,1,10,7.46c.22.31.36.34.26-.07a22.94,22.94,0,0,0-3.77-9.22c-2-3.12-4.19-6.07-6.21-9.16-.27-.33.2-.53.45-.65a1,1,0,0,1,1.06-.09c3.47,1.42,6.85,3.06,10.25,4.63,2.46,1.18,5,2.29,7.36,3.6.33.24-.12.56-.28.75a6.15,6.15,0,0,0-2.13,4.7,5.62,5.62,0,0,0,.52,2.74,6.22,6.22,0,0,0,4.87,3.67,5.71,5.71,0,0,0,3.45-.57,6.52,6.52,0,0,0,3.55-4.73,7.54,7.54,0,0,0-.37-3.37,6.26,6.26,0,0,0-4.8-3.87,6.77,6.77,0,0,0-4.18.68c-.39.17-.42-.4-.6-.61a107.78,107.78,0,0,0-6.36-9.74,32.36,32.36,0,0,0-9.14-8.39,53.55,53.55,0,0,0-8.24-3.17,11.59,11.59,0,0,0-5.06,0,7.1,7.1,0,0,0,1.87.08h0a16.63,16.63,0,0,1,4.76.6,28.65,28.65,0,0,1,15.51,10.84,14.9,14.9,0,0,1,2.53,4.83c.25,1.87-1.16,1.42-2.53,1.2-4.61-1.28-10.16-4-14.19-5.56-4.6-1.75-8.39-1.89-16.91.31h-1.29a39.6,39.6,0,0,1,6,4.73c1.9,2.1,3.88,4.24,4.92,6.92a22.53,22.53,0,0,1,1,12.51,26.14,26.14,0,0,1-1.87,6.57c-.22.36-.51.92-1,.89a1.6,1.6,0,0,1-.8-.7c-.73-2-1.94-4.82-2.93-7.16a65.32,65.32,0,0,0-6.2-9.14c-2.68-2.06-5.19-3-8.06-5.26a4.91,4.91,0,0,1-1.43-5.52c-.2,0-.11-.31-.34-.22a3,3,0,0,0-.56.07s.09.95.15,1.93A5.64,5.64,0,0,1,87,180.39c-2,1.57-4.38,2.64-6.46,4.12-2.29,1.68-3.69,4.25-5.17,6.62a42,42,0,0,0-3.67,7.42,14.79,14.79,0,0,1-1.51,3.25c-.17.18-.64.51-.76.12,0-.18-.26,0-.36-.14-3.47-8.82-3.83-16.19.41-22.74a29.61,29.61,0,0,0,2.82-3.28,15.51,15.51,0,0,1,2.11-2.1c.24-.12.14.38.28.1a12.41,12.41,0,0,1,3.12-2.47c.26.22.61-.33.61-.33l.68-.63-.7-.45-.41.36c-4.61.07-8.74-2.68-15.38-.73-5.17,1.68-10,4.24-15.16,6a5.86,5.86,0,0,1-3.15.3c-1.68-1.41,1.78-5.53,3.28-7.16-.36,0-.05-.39.07-.5A35.73,35.73,0,0,1,51,164.71c2.5-1.82,4.82-3.94,10.16-5.68a16.24,16.24,0,0,1,6.41-.66c.17-.19.44-.2.82-.28,0,0-.33,0-.56,0ZM35.92,179.3a5.81,5.81,0,0,1,5.33,3.84,6,6,0,0,1,.3,3.06c-.85,5.18-6.43,5.73-9.19,3.61a6.08,6.08,0,0,1,.5-9.64c.21.15.33-.19.54-.27a4.49,4.49,0,0,1,2.52-.6Zm107.84.35a5.62,5.62,0,0,1,5.21,3.59,6.91,6.91,0,0,1,.43,3.37,5.76,5.76,0,0,1-1.86,3.19,5.6,5.6,0,0,1-7.86-.18c-2.42-2.27-1.59-6.09-1-6.94a5.79,5.79,0,0,1,5-3ZM68.21,207.24a5.32,5.32,0,0,1,2.65.42,5.91,5.91,0,0,1,3.4,5.85,5.66,5.66,0,0,1-7.2,5.26c-3.9-1-6.61-6.77-1.56-10.66a4.47,4.47,0,0,1,2.71-.87Zm42.88,0a6.06,6.06,0,0,1,5.39,3.76,6.38,6.38,0,0,1,0,4.16c-1.82,4.65-5.93,4.73-8.82,2.67-2.66-1.89-3.6-6.57.34-9.6a5.54,5.54,0,0,1,3.06-1Z"/></g></g></g></svg>