<svg xmlns="http://www.w3.org/2000/svg" viewBox="0 0 178.58 249.45"><defs><style>.cls-1{fill:#fff;}</style></defs><g id="Layer_2" data-name="Layer 2"><g id="svg8"><g id="g8409-3-3"><path id="rect6355-6-85-62-9-7" class="cls-1" d="M8.54,0H170a8.53,8.53,0,0,1,8.54,8.53V240.92a8.53,8.53,0,0,1-8.54,8.53H8.54A8.53,8.53,0,0,1,0,240.92V8.53A8.53,8.53,0,0,1,8.54,0Z"/><path id="path153-0-1-2-5-5-5-3-4" d="M13.77,40c-3.44,4.38-7.13,6.91-7.2,10.33a3.33,3.33,0,0,0,2.76,3.35,2.86,2.86,0,0,0,3.28-2.75c0-.4.48-.39.47.16A10.44,10.44,0,0,1,11.52,56H16a10.44,10.44,0,0,1-1.56-4.91c0-.55.47-.56.46-.16a2.86,2.86,0,0,0,3.29,2.75A3.32,3.32,0,0,0,21,50.31C20.91,46.89,17.22,44.36,13.77,40Z"/><path id="path153-0-1-2-5-6-5-9-1-9" d="M164.81,209.47c-3.45-4.39-7.14-6.91-7.2-10.33a3.32,3.32,0,0,1,2.76-3.35,2.85,2.85,0,0,1,3.28,2.75c0,.4.47.39.47-.16a10.54,10.54,0,0,0-1.57-4.91h4.52a10.54,10.54,0,0,0-1.57,4.91c0,.55.48.56.47.16a2.85,2.85,0,0,1,3.28-2.75,3.32,3.32,0,0,1,2.76,3.35c-.06,3.42-3.75,5.94-7.2,10.33Z"/><path id="path153-6-3-1-6-92-7-2-9-8" d="M89.29,105.52c-7.38,10.53-15.28,16.59-15.41,24.8,0,2.66,1.4,7.18,5.9,8,2.92.56,6.94-1.8,7-6.61,0-.95,1-.93,1,.38a27.35,27.35,0,0,1-3.35,11.79h9.67a27.23,27.23,0,0,1-3.36-11.79c0-1.31,1-1.33,1-.38.08,4.81,4.1,7.17,7,6.61,4.51-.86,5.94-5.38,5.9-8C104.57,122.11,96.67,116.05,89.29,105.52Z"/><path id="path41-4-9-2" d="M5.7,37.47V35.21H7.85l4.59-24.14h2.61l5.06,24.14h1.74v2.26H15.92V35.21h1.6l-.64-3.7h-6l-.46,3.7H12v2.26Zm10.67-8.59L13.77,16,11.34,28.88Z"/><path id="path41-4-2-4-0" d="M156.73,212v2.26h2.16l4.59,24.14h2.61l5-24.14h1.74V212H167v2.26h1.59l-.63,3.7h-6l-.46-3.7h1.59V212Zm10.68,8.59-2.6,12.92-2.44-12.92Z"/></g></g></g></svg>