<svg xmlns="http://www.w3.org/2000/svg" viewBox="0 0 178.58 249.45"><defs><style>.cls-1{fill:#fff;}</style></defs><g id="Layer_2" data-name="Layer 2"><g id="svg8"><g id="g8542-3-6"><g id="g8587-4-9"><path id="rect7263-6-4" class="cls-1" d="M8.54,0H170a8.53,8.53,0,0,1,8.54,8.53V240.92a8.53,8.53,0,0,1-8.54,8.53H8.54A8.53,8.53,0,0,1,0,240.92V8.53A8.53,8.53,0,0,1,8.54,0Z"/><path id="path7293-3-2" d="M47.88,26.16C40.5,36.68,32.6,42.74,32.47,51c0,2.66,1.39,7.18,5.9,8,2.92.56,6.94-1.8,7-6.61,0-1,1-.93,1,.38A27.31,27.31,0,0,1,43,64.56h9.67a27.44,27.44,0,0,1-3.35-11.8c0-1.31,1-1.33,1-.38.09,4.81,4.11,7.17,7,6.61,4.5-.86,5.94-5.38,5.9-8C63.16,42.74,55.26,36.68,47.88,26.16Z"/><path id="path7295-4-8" d="M13.77,40c-3.44,4.38-7.13,6.91-7.2,10.33a3.33,3.33,0,0,0,2.76,3.35,2.86,2.86,0,0,0,3.28-2.75c0-.4.48-.39.47.16A10.35,10.35,0,0,1,11.51,56H16a10.44,10.44,0,0,1-1.56-4.91c0-.55.47-.56.46-.16a2.86,2.86,0,0,0,3.29,2.75A3.32,3.32,0,0,0,21,50.31c-.06-3.42-3.75-6-7.2-10.33Z"/><path id="path7297-5-1" d="M47.88,170.38C40.5,159.85,32.6,153.8,32.47,145.59c0-2.66,1.39-7.18,5.9-8.05,2.92-.56,6.94,1.81,7,6.61,0,1,1,.93,1-.38A27.23,27.23,0,0,0,43,132h9.67a27.35,27.35,0,0,0-3.35,11.79c0,1.31,1,1.34,1,.38.09-4.8,4.11-7.17,7-6.61,4.5.87,5.94,5.39,5.9,8.05C63.16,153.8,55.26,159.85,47.88,170.38Z"/><path id="path7299-3-5" d="M164.81,209.47c-3.45-4.39-7.14-6.91-7.2-10.33a3.32,3.32,0,0,1,2.75-3.35,2.86,2.86,0,0,1,3.29,2.75c0,.4.47.39.47-.16a10.54,10.54,0,0,0-1.57-4.91h4.52a10.54,10.54,0,0,0-1.57,4.91c0,.55.48.56.47.16a2.85,2.85,0,0,1,3.28-2.75,3.32,3.32,0,0,1,2.76,3.35c-.06,3.42-3.75,5.94-7.2,10.33Z"/><path id="path7301-4-0" d="M130.7,26.16C123.32,36.68,115.43,42.74,115.3,51c0,2.66,1.39,7.18,5.89,8,2.92.56,6.95-1.8,7-6.61,0-1,1-.93,1,.38a27.16,27.16,0,0,1-3.35,11.8h9.67a27.16,27.16,0,0,1-3.35-11.8c0-1.31,1-1.33,1-.38.08,4.81,4.11,7.17,7,6.61,4.5-.86,5.94-5.38,5.89-8C146,42.74,138.09,36.68,130.7,26.16Z"/><path id="path7303-7-8" d="M47.88,79.07C40.5,89.59,32.6,95.65,32.47,103.86c0,2.66,1.39,7.18,5.9,8,2.92.56,6.94-1.81,7-6.61,0-1,1-.93,1,.38A27.23,27.23,0,0,1,43,117.47h9.67a27.35,27.35,0,0,1-3.35-11.79c0-1.31,1-1.34,1-.38.09,4.8,4.11,7.17,7,6.61,4.5-.87,5.94-5.39,5.9-8C63.16,95.65,55.26,89.59,47.88,79.07Z"/><path id="path7305-6-7" d="M89.29,60.27C81.91,70.79,74,76.85,73.88,85.06c0,2.66,1.4,7.18,5.9,8,2.92.56,6.94-1.81,7-6.61,0-1,1-.93,1,.38a27.35,27.35,0,0,1-3.35,11.79h9.67a27.23,27.23,0,0,1-3.36-11.79c0-1.31,1-1.34,1-.38.08,4.8,4.1,7.17,7,6.61,4.51-.87,5.94-5.39,5.9-8C104.57,76.85,96.67,70.79,89.29,60.27Z"/><path id="path7309-8-5" d="M130.7,79.07c-7.38,10.52-15.27,16.58-15.4,24.79,0,2.66,1.39,7.18,5.89,8,2.92.56,6.95-1.81,7-6.61,0-1,1-.93,1,.38a27.08,27.08,0,0,1-3.35,11.79h9.67a27.08,27.08,0,0,1-3.35-11.79c0-1.31,1-1.34,1-.38.08,4.8,4.11,7.17,7,6.61,4.5-.87,5.94-5.39,5.89-8C146,95.65,138.09,89.59,130.7,79.07Z"/><path id="path7313-6-8" d="M47.88,223.29C40.5,212.77,32.6,206.71,32.47,198.5c0-2.66,1.39-7.18,5.9-8.05,2.92-.55,6.94,1.81,7,6.61,0,1,1,.94,1-.37A27.27,27.27,0,0,0,43,184.89h9.67a27.4,27.4,0,0,0-3.35,11.8c0,1.31,1,1.33,1,.37.09-4.8,4.11-7.16,7-6.61,4.5.87,5.94,5.39,5.9,8.05-.13,8.21-8,14.27-15.41,24.79Z"/><path id="path7315-7-3" d="M130.7,223.29c-7.38-10.52-15.27-16.58-15.4-24.79,0-2.66,1.39-7.18,5.89-8.05,2.92-.55,6.95,1.81,7,6.61,0,1,1,.94,1-.37a27.12,27.12,0,0,0-3.35-11.8h9.67a27.12,27.12,0,0,0-3.35,11.8c0,1.31,1,1.33,1,.37.08-4.8,4.11-7.16,7-6.61,4.5.87,5.94,5.39,5.89,8.05-.13,8.21-8,14.27-15.41,24.79Z"/><path id="path7317-0-2" d="M89.29,189.18C81.91,178.65,74,172.6,73.88,164.39c0-2.66,1.4-7.18,5.9-8,2.92-.56,6.94,1.81,7,6.61,0,1,1,.93,1-.38a27.35,27.35,0,0,0-3.35-11.79h9.67a27.23,27.23,0,0,0-3.36,11.79c0,1.31,1,1.34,1,.38.08-4.8,4.1-7.17,7-6.61,4.51.87,5.94,5.39,5.9,8C104.57,172.6,96.67,178.65,89.29,189.18Z"/><path id="path7319-5-6" d="M130.7,170.38c-7.38-10.53-15.27-16.58-15.4-24.79,0-2.66,1.39-7.18,5.89-8.05,2.92-.56,6.95,1.81,7,6.61,0,1,1,.93,1-.38A27.08,27.08,0,0,0,125.87,132h9.67a27.08,27.08,0,0,0-3.35,11.79c0,1.31,1,1.34,1,.38.08-4.8,4.11-7.17,7-6.61,4.5.87,5.94,5.39,5.89,8.05C146,153.8,138.09,159.85,130.7,170.38Z"/><path id="path31-5-4-7" d="M5.76,37.47V11.07H8.32v26.4Z"/><path id="path33-4-6-8" d="M15.9,11.07c-2.46,0-4.44,2.25-4.44,5.05V32.43c0,2.79,2,5,4.44,5h1.44a4.77,4.77,0,0,0,4.45-5V16.12c0-2.8-2-5.05-4.45-5.05Zm.75,2.5a2.56,2.56,0,0,1,2.62,2.51V32.6a2.63,2.63,0,0,1-5.25,0V16.08A2.56,2.56,0,0,1,16.65,13.57Z"/><g id="g8583-6-9"><path id="path31-5-5-6-7" d="M172.82,212v26.4h-2.56V212Z"/><path id="path33-4-3-7-9" d="M162.68,238.38c2.46,0,4.44-2.25,4.44-5V217c0-2.79-2-5-4.44-5h-1.44a4.77,4.77,0,0,0-4.45,5v16.31c0,2.8,2,5,4.45,5Zm-.74-2.5a2.56,2.56,0,0,1-2.63-2.51V216.84a2.63,2.63,0,0,1,5.25,0v16.53A2.56,2.56,0,0,1,161.94,235.88Z"/></g></g></g></g></g></svg>