<svg xmlns="http://www.w3.org/2000/svg" viewBox="0 0 178.58 249.45"><defs><style>.cls-1{fill:#fff;}.cls-2{fill:#131f67;}.cls-3{fill:#d40000;}.cls-4{fill:#e2cf00;}</style></defs><g id="Layer_2" data-name="Layer 2"><g id="svg8"><g id="g6392"><path id="rect7331-9-9" class="cls-1" d="M8.54,0H170a8.53,8.53,0,0,1,8.54,8.53V240.92a8.53,8.53,0,0,1-8.54,8.53H8.54A8.53,8.53,0,0,1,0,240.92V8.53A8.53,8.53,0,0,1,8.54,0Z"/><path id="path7363-8-9" d="M13.77,40c-3.44,4.38-7.13,6.91-7.2,10.33a3.33,3.33,0,0,0,2.76,3.35,2.86,2.86,0,0,0,3.28-2.75c0-.4.48-.39.47.16A10.35,10.35,0,0,1,11.51,56H16a10.44,10.44,0,0,1-1.56-4.91c0-.55.47-.56.46-.16a2.86,2.86,0,0,0,3.29,2.75A3.32,3.32,0,0,0,21,50.31c-.06-3.42-3.75-6-7.2-10.33Z"/><path id="path7367-3-1" d="M164.81,209.47c-3.45-4.39-7.14-6.91-7.2-10.33a3.32,3.32,0,0,1,2.76-3.35,2.85,2.85,0,0,1,3.28,2.75c0,.4.47.39.47-.16a10.54,10.54,0,0,0-1.57-4.91h4.52a10.54,10.54,0,0,0-1.57,4.91c0,.55.48.56.47.16a2.85,2.85,0,0,1,3.28-2.75,3.32,3.32,0,0,1,2.76,3.35c-.06,3.42-3.75,5.94-7.2,10.33Z"/><path id="path35-7-9-2" d="M13.69,11.07v2.76h2.68s.07,2.67.09,8.32c0,5.48.13,8.21-.22,9.77-.94,3.6-6.16,3.62-7.19,1a10.22,10.22,0,0,1-.47-4.19H5.69s0,.76,0,1.69c0,4.05,1.36,6,4.5,6.76s7-.46,8.34-3.22c.8-1.57.71-1.68.73-11.18,0-6.34.1-9,.1-9h2.47V11.07Z"/><path id="path35-7-8-1-4" d="M164.89,238.38v-2.76h-2.68s-.06-2.67-.09-8.32c0-5.49-.13-8.21.22-9.77.94-3.6,6.16-3.62,7.19-1a10.2,10.2,0,0,1,.47,4.19h2.89s0-.76,0-1.7c0-4.05-1.36-6-4.5-6.75s-7,.46-8.34,3.22c-.8,1.57-.71,1.68-.72,11.18,0,6.34-.11,9-.11,9h-2.47v2.76Z"/><g id="g3851-4-2-7-4"><path id="path4037-8-0-2" class="cls-2" d="M23.69,19.13V230.32h131.2V19.13Zm41.68,1.15,59.43.22-9.21,14.07c-12-3.8-31.5-1.34-41.55.58-2.64-4.4-6.47-9.93-8.67-14.87Zm-39.95.54H63.57l9,16.26c.33.45,0,1.39-.17,1.91A41.57,41.57,0,0,1,68,47.59c-2.12,3.51-2.88,6.72-2.13,8.87a2.22,2.22,0,0,1,.17,1,5,5,0,0,1-2.26,3.17c-.84.14-2.59.24-3.59,1.24a5.23,5.23,0,0,0-1.46,4.37,11.17,11.17,0,0,0,.15,1.33c-11.4,4.73-19.56,10.27-19.29,10.47-.11,0-10.09-4.6-14.21-5.72Zm101.5,0h26.2V95.5L143.23,89c.82-.57,1.33-.91,2.2-1.5.15,0,.44,0,.63-.09,1.75-.39,3-1.7,2.37-3-.42-.92.15-.86.66-1.61a2.06,2.06,0,0,0,.08-2.3c-.18-.36-.08-.5.23-1.15a2.29,2.29,0,0,0-.82-3.21c-.11-.16.12-.4.17-.63a2.21,2.21,0,0,0-1.41-2.83c-.6-.15-.8-.26-.59-.79.37-1-.12-1.3-.9-1.61l-.5-.21.1-.62s.61-.29,1.08-.49c3.32-1.49,4.11-5.92,1.82-9.94-.91-1.49-1.79-2.84-2.81-4.26l4.4-6.11A49.27,49.27,0,0,1,145.79,43c.26-1,3.32-4.08,3.72-7.09.62-4.72-3-7.74-6.37-7.38-2.36.24-5.26,1.75-5,6.11a10.27,10.27,0,0,0,1.56,4.46c.67,1.27,1.55,2.61,2.38,3.9l-4.42,6,4.47,5.65c-.78,1.35-1.78,2.8-2.46,4.24-1.65,3.25-2.23,6.82,1.16,9.34.59.36,1.3.92,1.3.92l-.07.58a2.68,2.68,0,0,1-.34.12c-6.07.44-10.41,5.77-11.84,10.5L113.35,69.87c.6-.31.56-1.68.47-2.54a3.1,3.1,0,0,1,.74-2.5,1.72,1.72,0,0,0,.22-1.49c-.24-.73-.26-.5.2-1,.18-.22.4-.33.44-.57s0-.89,0-1.94c0-2.12,0-1.94,1.17-2.87,1.48-1.15,2-1.69,2.27-2.22.33-.74,0-1.31-.83-2.8-1-1.8-2.34-3.65-2.92-5.42a3.7,3.7,0,0,1,.05-3.35c.64-1.14.82-1.83.8-4.14,0-2.14-.18-1.94.36-2.66,4.09-5.39,10.58-15.55,10.58-15.55Zm20.67,9.65c3.44,4.76-.1,9.16-2.35,12.48,1.38,2.07,2.51,3.54,3.92,5.66-1.08,2.37-2.91,4.24-4,6.1,5.39,7.25,5.59,13.82-1.66,14.2a5.17,5.17,0,0,1-4.68-5.66c.21-3.34,2-5.78,3.85-8.49-1.58-2.71-3.15-3.7-4.27-5.84l4-5.88c-1.09-2.74-3.41-4.72-3.68-8.31C138.31,29.68,143.17,27.22,147.59,30.47ZM93.08,34.11h0q1.36,0,2.73.06c.29,2.46-8,17-6.28,17.87,6.53,1.56,4.3,9.28-.66,9-.74,0-.82.07-1.29,1.71-.9,2.39-1.48,4.21-2.45,6.44,0,.57-3.25.42-6,.4-1.17.9-6.17,3.32-8.9-2.89L70.17,72s37.39-.59,44,.24c.15-1.66,3.7,1.29,3.7,1.29L99.66,102.17l.86.83C103.15,99.81,119,74.29,119,74.29l34.36,22.09c-.28,3.29,0,10.65,0,10.65-9.42,5-6.54,7.54-.05,1.49l.11,4.31c-2.35,1.25-4.64,5.51-.17,2.54l.12,2.44c-2.33,3.3-6.88.88-5.72-2.53-3.15.41-3.64-2.77-3.48-4.28-4.13-.9-2.7-5.26-2.7-5.26-2.39-2-2.81-4.07-.87-6.27-2-1.21-2.51-2-4.66-2.87,1.65,14.61,9.56,22.19,17.88,29-.22,0-.24,4.71-.77,3.84-11.88-8.85-19.52-19-20.84-35.34-.1.26-5.63-4.27-6.55-4C123.81,116.53,145,134,153.8,137.39a30.47,30.47,0,0,1,0,3.7c-13.35-5.8-28.19-22.83-31-43.09l-7.88,12.16-2.95-1.26,12.73-20L116,83.52l-14,22.14s-.37,1.85.65,1.82c19.68,2.1,48.94,25.66,39.14,64-.85-.33-2.21-1-2.27-1,1.53-3.31,5.82-24.72-7.08-42-5.92-7.92-15.09-16.36-29.81-18.84,1.22,2.5.69,8.17.69,8.17l3.43.69a10.14,10.14,0,0,1-2.58-3.55c-.65-2,.29-3.27,2.58-2,.91.51,1.14.49,2-.17,1.85-1.36,4,0,3.46,2.31-.07.34,0,.55.9.63a8.12,8.12,0,0,1,5.27,2.71c.63.81.77.69,1.34.2,1.38-1.2,3.67.46,3.26,2.32-.23,1.06-.1,1.31.39,1.51,2.7,1.14,3.37,1.85,4.21,4.21.31.86.56,1.15.72,1.1s.55-.18.94-.33c2-.76,3.2,1.67,1.77,3.58-.29.39-.07.76.45,1a6.84,6.84,0,0,1,3,5.39c.07.87.17.87,1,.83,2.23-.09,3.29,2.91,1.48,4-.64.39-.51.88,0,1.46a5.37,5.37,0,0,1,1.49,4.41c-.15,2.34,0,2.29.75,2.58,2.17.82,1.76,4.28-.37,4.27,1.53,3.56-.48,7.9-.42,8,4.09,2.29.4,4.73-.79,4.3,0,0-.6,1.6.08,2.42-3.59,4.74-8.28,5.52-13.49,7.87l-.16-16.66c2.16,1.74,4.31,3.36,6.45,5,0,0,.54-.16.05-.62-1-.87-3.35-2.42-4-3a87.53,87.53,0,0,1-7.7-7.35c-.43-.8-1.06-.33-1.05-.29a38.63,38.63,0,0,0,1.93,3.51c1.78,2.45,3.5,5.17,3.32,7.87a10.41,10.41,0,0,1-.94,3.82c-.25,1-1.91-.17-1.49-1,.74-2.39,1.35-4.35-1.29-8.19a54.13,54.13,0,0,1-2.94-5.27l-1.07.26,0,21.73c-.9,0-3.16.62-2.69.64,7-1.41,9.2,8.65,2.4,9-1.19.12-2.41,2.42-2.77,3.46.64,4.85-.57,7.12-3.07,11.54-1.4,2.79-4.16,6.19-3.32,9.26A95.65,95.65,0,0,1,83,214a100.28,100.28,0,0,1,4.94-12.44c1.56-3.08,2.37-5.19,1.93-5.82-6.66.33-5.38-9.4,1-9.06,0,0,1.6-5.6,3.39-8.13,1.69-.94,5.1.34,7-.92,4.5-1.38,7.45,3.93,7.45,3.93l1.21-5.05c-1.06-.24-43.12-.67-45.78.55a19.45,19.45,0,0,1-3.25-2s15.35-24.52,17.59-28c.18-.28-.4-.9-.4-.9-.08-.8-18.22,28.35-18.22,28.35-10.25-6.54-23.12-14.81-34.53-22.08l0-10.92c8.29-5.2,7.54-7.33-.13-1.65-.11.09-.17-4.1-.17-4.1,5.85-5.21,1-3.58-.17-1.78,0-1.29-.27-3.06.56-3.83,2.56-2.35,5.57-.19,5.72,3.27,3.33.66,2.92,3.57,3.78,4.75,3.39,1.91,1.61,4.81,2.45,5.79,3.58,2.25,1.08,5.87.32,5.79.46.3,4.9,3.27,5.28,3.16-.38-15.58-16-28.14-18.07-29.67l.37-3.36s21.5,13.72,21.31,35.72l6.86,4.06C52.76,137,42.51,121.69,25.21,112L25,107.81c14.51,6.74,28,20.37,31.11,42.71l8-12.44L67,139.45l-12.9,20.64,8.06,5.28c6.25-8.2,11.46-18.26,14.64-23-.08-.44-.26-1.07-.26-1.07-30.73-5-48-33.75-39.79-63.74l2.14.94c-6.41,22.21,4,54.17,37.46,60.71-.06-2.36-.48-8.17-.48-8.17s-4.39-1.31-3.75-.79c1.08.92,3.5,4.87,2.47,6.27a5.19,5.19,0,0,1-3.3-1.28c-.51-.38-.52-.3-1.09.31-1.58,1.68-3.88.72-3.9-1.59,0-1,0-1.18-1.43-1.2-2.11,0-3.06-.37-4.32-2.05-.89-1.2-.81-1.2-1.86-.84a2.16,2.16,0,0,1-3-2.71c.31-.78,0-1-.94-1.18-1.79-.29-3.81-2.53-4.18-4.36-.08-.37-.26-.46-1.32-.43-2.06.08-3.21-1.18-2.39-2.93.44-.94.56-1.32-.26-2a5.9,5.9,0,0,1-2-2.29,9.18,9.18,0,0,1-.65-2.84c-.09-.56-.27-.65-1-.75-2.13-.28-3-2.46-1.41-3.87.48-.43.48-.42-.25-1.36-1.4-1.8-1.92-4.16-1.31-5.73a.76.76,0,0,0-.5-1.06c-1.94-.49-2-2.64-.11-3.85.54-.35.57-.59.16-1.3-.72-1.24-.69-4.49,0-6,.45-1,.44-1-.25-1.47a2.26,2.26,0,0,1,.69-4c.85-.21.91-.32.68-1.35-.41-1.83-.48-2.31.61-3,3-1.93,10.64-5.63,10.64-5.63l2.53-1.2s.25,16,.09,17.85c3.59,3,5.62,8.88,8.61,5.17l.09-21.93c.18-.5.3-.56.88-.62s1.7-.23,2.1-.35c.57-.92-1-.39-1.76-.21-4,1.19-7-5-3.92-8.16a9.5,9.5,0,0,1,3.77-1.49c1.36-1.11,2.71-3.16,2.22-4.69-.71-2,0-5.21,2.08-8.65a31.53,31.53,0,0,0,5-10.72c7.1-.86,13.25-2.5,19.59-2.6Zm3.48.47a136.18,136.18,0,0,1,14.62.86c4.27.69,4,.56,4,3.65,0,2.2,0,2.15-.58,3.2-1,2-.86,3.86.78,6.54a31.23,31.23,0,0,1,2.77,4.89c0,.58-.09,1.28-1.48,2.24-1.64,1.14-2,1.94-1.93,3.09,0,.94-.16,1.25-.72,1.24a9.74,9.74,0,0,0-1.87.77,4.52,4.52,0,0,1-2.91.7c-.7,0-1-.27-1.24-.2-.37.18-.72,1.44-.71,1.8,0,.13.25.06.66-.09,2.32-.79,5.78-.43,5.88-.09.47.43.47,1.08-.24,1.76a2.44,2.44,0,0,0-.47,2.2c.26,1.51.06,2.11-.71,2.63-7.68,3.38-17.69-.16-22.55-5.83a10.93,10.93,0,0,1-1.5-2.24,9.73,9.73,0,0,0,3-.54c3.71-1.68,3.74-8.6-1.3-9.31-2-.07,4.24-9.73,6.47-17.27ZM109.1,37h0a18,18,0,0,0-7.73,2.28,8.18,8.18,0,0,0-2.85,3L101,41c3-1.48,8-3,10-1.84,1.69,1,2.35.69,1.37-.68A4,4,0,0,0,109.1,37Zm-1.28,3.36a3.81,3.81,0,0,0-.82.09c-1.74.39-3.66,1.82-5.25,3.08a12.38,12.38,0,0,0-2.06,2.17c-.4.73.47,1.54,1.65.89a1.56,1.56,0,0,1,1.4-.2,13.91,13.91,0,0,0,5.94.94c.25.06.23.12.15.35a8.46,8.46,0,0,1-2.35,2.16C105.84,50.31,105,51,105,51a3.35,3.35,0,0,0,1.84-.43,13.78,13.78,0,0,0,3.79-3.75,1.55,1.55,0,0,0,.26-.37c.09-.3-.47-.18-.77-.26-.13,0-.11-.36-.14-.51a5.83,5.83,0,0,1,.14-1.59c.06-.45.54-.81.86-1.14,1.4-1.45,1.29-2.11-.59-1a2,2,0,0,1-.88.33c-2.78.09-4.39,0-6.71,1.93-1,.82-1.65.9-.73,0,1.4-1.13,3.15-2.73,5.09-3.16,1.17-.29,2.29.61,2.8.37,0-.63-1-1.1-2.13-1.09Zm-.66,4a.57.57,0,0,1,.26,0A2.8,2.8,0,0,1,108,46c0,.43-.77.25-.87,0l-.4-1.2c-.13-.31.14-.52.41-.54Zm-1.48.26a1.1,1.1,0,0,1,.32,0,4.47,4.47,0,0,1,.61,1.66c-.12.43-2.86-.15-3.2-.64a3.74,3.74,0,0,1,2.27-1Zm5.12,7.79a1,1,0,0,0-.72.34,2.58,2.58,0,0,0,.64,4.09c.72.34,1.82.09,3.43-.4a8,8,0,0,1,1.46-.34.87.87,0,0,0,.53-1.41c-.51-.52-1.72-.44-3,.56a2.6,2.6,0,0,1-1.66.74c-1.3,0-1.93-1.35-.6-2.75.44-.47.28-.8-.06-.83Zm-8.15,4.73c-1.93-.28-2.91,2.93-1,4.49,1.54,1.24,4.45.59,6.41-.7,1.75-1.16,2.48-1.5,3.88-1.26,1.72.3,1.66-.38.91-1.22s-2.93-.67-4.68.48c-3.87,2.56-5.27,3-6.39,1.61-1-1.2-.23-2.73.83-2.66.66,0,1.07.46,1.71.67C103.88,57.48,103.44,57.24,102.65,57.12Zm-14.58,5.7a21,21,0,0,0,6.64,6l0,.47-9.09,0a60.82,60.82,0,0,0,2.42-6.47ZM57.3,69.26c-.19,3.72.48,5.91,2.67,8.51,2.33,2.77,2.15,7.08.66,9.74-.67,1.18-2-.27-1.38-1,.9-1.13,1-3.89.53-5.62-1-2.85-3.13-4.25-4-7.27a18.44,18.44,0,0,1-.2-3.6Zm2.85.31c.16,0,.41.14.79.47,1.28,1.1,1.06,4.28-.41,6.31-.45.62-.82.44-1.25-.13-.59-.57-.38-.63.1-1.63A6.82,6.82,0,0,0,60,71C59.88,70.05,59.92,69.61,60.15,69.57Zm83.35,1.09c1.13,0,2.55.22,2.68.63s-.15.9-.78,1.17c-1.66.7-3.86-.28-3.3-1.47C142.23,70.77,142.81,70.67,143.5,70.66Zm-2.9.27a1.23,1.23,0,0,1,.75.17c.54.27-.26,2.18,2.45,2.15.64.09,1.12-.06,1,.23s-1.29,1.1-2.55,1.29c-3.78.56-3.61.37-3.44,3a9.43,9.43,0,0,1-.24,3.37c-.41,1.83-.57,3.59-.29,3a14.86,14.86,0,0,0,1.3-4.61c0-2,.72-2.46,1-1,.12,1-.32,1.54.34,2.54.38.56.55.55.3,1.43a1.29,1.29,0,0,0,.2,1.39c.27.39.55.48.32,1a1.69,1.69,0,0,0,1.41,2.41c.53,0,.67.27.51.47a2.32,2.32,0,0,1-1.28.6l-12-7.63c2.47-5.7,5.29-8.33,9.27-9.69a2.58,2.58,0,0,1,.88-.22ZM147,73.4c.33,0,.57.16.85.52.73.94.09,2.12-1.72,3.13-1.54.88-2,1-2.32-.39a1.93,1.93,0,0,0-.42-.68c-.36-.33-.28-.6.18-.84a14.34,14.34,0,0,0,1.47-.76,4.78,4.78,0,0,1,2-1Zm-5.1,2.74a2,2,0,0,1,1.05.28.86.86,0,0,1,0,1.4c-1,.39-2.48-.13-2.35-1,.06-.45.66-.68,1.3-.67Zm6.16,1a.89.89,0,0,1,.81.48c.48.74.07,1.48-1.23,2.25a6.85,6.85,0,0,1-.77.41c-1.25.62-2.85.88-2.74.52a4.81,4.81,0,0,0-.56-1.94,11.67,11.67,0,0,0,3.18-1.2,2.81,2.81,0,0,1,1.31-.52Zm-90.78,1a1,1,0,0,1,.9,1.25,7.39,7.39,0,0,0-.6,5.25c.34,1.84.75,2.77,2.64,5.49,1.45,2.08,1.91,2.88,1.56,3.54-.24.35-.79.68-1.14.34-.7-.92-1.12-2-1.81-3.06C56.16,87,56,86,55.64,83c-.15-1.4.65-4.38,1.34-4.82a.75.75,0,0,1,.29-.06Zm62.18.28A5.76,5.76,0,0,0,117.88,81C118.54,81.64,120.48,78.23,119.45,78.38Zm22.83,1c1.06,0,1.43,1,1,1.48A1.15,1.15,0,0,1,141.3,80c0-.43.2-.65,1-.64Zm5.88,1.35c.61-.05.69.63.37,1.51s-.89,1-2.35,1.4c-1.75.54-2,.46-2.29-1.14-.11-.62-.06-.48,1.55-.9A16.21,16.21,0,0,1,148.16,80.68ZM45,81.4l.42,3.24.7-2.43Zm97.51,1.09c.86,0,1.32.77.88,1.23a1.17,1.17,0,0,1-1.16.11c-.68-.49-.56-1.34.28-1.34Zm-26.27,1.69,1.68,1-13.61,21.41-1.64,0-.16-.34Zm30.89.2c1,0,1.09.93-.13,1.8a3,3,0,0,1-1.49.42c-.61,0-1-.13-1.06-.55-.26-1-.41-1.28.52-1.22A12.19,12.19,0,0,0,147.11,84.38Zm-4.17.94c.7,0,1.14.75.68,1.12s-1.3.18-1.29-.51C142.33,85.49,142.45,85.32,142.94,85.32ZM45,86.83,41.31,90.1c1.36,1.6,2.5,3.2,3.67,4.88Zm74.87.21c1.6-.06,2.13.71,1.37,1.23a4,4,0,0,1-3.1.5c-1.55-.29-.32-1.53,1.39-1.7.11,0,.23,0,.34,0Zm-1.71,2.33a4.63,4.63,0,0,1,1.42.29c1.05.36,2.36,1.46,2.3,2.07-.1,1-2,.47-3.46-.94-.94-.88-1-1.4-.26-1.42Zm-1.42,0c.91.09,1.82,3.16,1.11,4.1s-1.91-1.06-1.69-2.63c.09-.62.25-1.44.49-1.47a.27.27,0,0,1,.09,0Zm-59.51.67c.51.13,1.17.83,1,1.37-.11.22-.32.16-.56.1a1.23,1.23,0,0,1-.66-1.25C57.1,90.15,57.15,90.07,57.25,90.06Zm69.05.53L129,92.4l-2.68.11Zm-11.52,1.6h0a.37.37,0,0,1,0,.73.37.37,0,0,1,0-.73Zm.43,2.07c2.06,0,2.49.67,1,1.47a4.91,4.91,0,0,1-3,.12C111.9,95.41,113.43,94.25,115.21,94.26Zm16.62,1.37.14,1.86-5.16.45L126.55,96Zm-19.58.93c.94,0,1.75,2.61,1.13,3.88-.34.69-.77.54-1.38-.6s-.62-3,.06-3.26a.41.41,0,0,1,.19,0Zm1.75,0a3.75,3.75,0,0,1,1.68.52c1.4.72,2.2,1.93,1.47,2.31s-1.82-.07-2.65-.93c-1.09-1.14-1.18-1.86-.5-1.9Zm-68.8.72L43,101.8,47,105.35Zm65.12,1.86h0a.37.37,0,1,1-.37.37.38.38,0,0,1,.37-.37Zm22.14,1.62.36,1.79-4.95,1.21-.48-1.94ZM143,101c-1.89,1.27-.07,2,1.28,1A2.14,2.14,0,0,0,143,101Zm-32.15.11a2.39,2.39,0,0,1,1.5.44c.45.39.35.57-.72,1-1.89.77-4.23.31-2.87-.84A3.32,3.32,0,0,1,110.85,101.11Zm-1.39,2.43c1.36,0,4,1.89,3.44,2.77-.31.49-2.08.07-2.79-.6-.92-.88-1.41-2.07-.9-2.16a1,1,0,0,1,.25,0Zm-1.7.08c.69-.13,1.81,3.11,1,3.94-.32.31-.4.3-.93-.17a2.89,2.89,0,0,1-.24-3.61A.37.37,0,0,1,107.76,103.62Zm40.87,1c-6.57,2.52-4.89,4.91.66.69A2,2,0,0,0,148.63,104.64Zm-14.9.91.65,1.81-5,2-.74-2ZM48.49,109,46.8,113.4A12.81,12.81,0,0,1,52,115.05Zm86.89,1.3,1.06,1.78-4.69,2.52-.93-1.87ZM26.49,113.74l1.92,1.35-2.82,3.5-.26-.5,0-2.9Zm111.45,1.1,1.14,1.63-4.52,3.13-1.1-1.78Zm-106.61,2.1,2.07,1.59-3.28,3.94-2-1.51Zm22.81,1-.1,4.74,4.88.19Zm61.09.46a49.8,49.8,0,0,0-4.71,1.68l5.55,3.18Zm25.74.68,1.3,1.61-4.17,3.49-1.34-1.67ZM35.56,120.46l1.93,1.79-3.4,3.67-1.79-1.69Zm109,2.6,1.49,1.52-3.79,3.94-1.5-1.52ZM40,125l1.5,1.74-3.89,3.08-1.44-1.75Zm22.41.41L63.45,130c-.08-.33,4.84-1.38,5.48-1Zm57.28.39,4.64,4.89.53-4.71Zm28.72.77,1.68,1.31-3.12,4.43-1.9-1.49ZM43.3,129.51l1.38,2-4.07,2.42-1.16-1.76Zm109.46.47.25.26v3.16l-1.3,1.89-1.76-1Zm-26.27,3.55,4.1,7.44,1.16-5.55A11.88,11.88,0,0,1,126.49,133.53Zm-79.94,1,1,2.14-4.31,2-1-2.14Zm2.32,5.12.79,2.16-4.58,1.51-.72-2.08ZM34.1,141c-.78,0-2.83.76-5.69,2.53l1.42,1C34,142.36,35.1,141,34.1,141Zm36.29.06c.28,0,.6.36.86,1.21.39,1.29.18,2.89-.69,2.87-.6-.07-.82-1.58-.82-2C69.73,141.84,70,141.12,70.39,141.08Zm4.07.77,1.77.19v.5L62.13,164.83l-1.71-1.08Zm-7.59.52A3.34,3.34,0,0,1,69,143.53a3.79,3.79,0,0,1,1,1.78c0,.22-.39.14-.76.09a4.23,4.23,0,0,1-2.75-1.58C65.93,142.85,66.23,142.36,66.87,142.37Zm64.77.79,1.88,9.13c.58-2.28,1.81-3.6,2.72-5.4A12.72,12.72,0,0,1,131.64,143.16ZM50.69,145l.44,2.36-4.74,1.1-.49-2.3Zm17.9.83c1.74.19,2,.57.82,1.36-.71.47-2.77.6-2.94,0s1.19-1.36,2.12-1.39Zm-33,.59a2.61,2.61,0,0,0-1.67.78l1.47.86C37,146.94,36.52,146.37,35.63,146.43ZM65.9,148c.53,0,.85,1,1,1.82a5.93,5.93,0,0,1-.08,2c-.14.63-.79.61-1.1.09C64.82,150.45,64.85,148,65.9,148Zm2.48,1.14a.37.37,0,1,1-.37-.36A.35.35,0,0,1,68.38,149.15Zm-6.4.23a2.43,2.43,0,0,1,.93.19c1.23.46,2.86,2.34,2.17,2.6-1,.39-3.24-.73-3.66-1.85C61.21,149.75,61.44,149.4,62,149.38ZM51.83,150.9l.11,2.33-5,.2-.15-2.32Zm12.23,2a3.42,3.42,0,0,1,1.38.22c.71.31.19.87-1,1.29a3.21,3.21,0,0,1-2.37,0C61.09,153.66,62.58,152.9,64.06,152.86Zm-38.64.27c3.42,2.07,10.51,6.68,10.51,6.68a2.9,2.9,0,0,0-1,.58,3.3,3.3,0,0,1-.77.51,5.69,5.69,0,0,1-1,.24c-2.2.48-3.28,1.72-2.6,3.27.28.6.34.5-.12,1-1.32,1.25-1.16,1.62-.69,3.22,0,.23-1.56,2.15-.18,3.6.77.66.81.25.53,1.76-.1.92.15,1.66,1.48,1.93.75.33.74.22.47.84a1.59,1.59,0,0,0,0,.84c.21.54.47.71,1.06,1l.06.56-.22.11c-4.26,2.28-5.51,6.19-1.39,11.89.49.69,1.73,2.62,1.73,2.62-1.41,2.08-2.76,3.8-4.2,5.67l4.19,5.83A24.87,24.87,0,0,0,30,210.61c-1.21,3.3-.49,7.67,3.72,9A5.49,5.49,0,0,0,39.37,218a7.3,7.3,0,0,0,.77-7.14,28.27,28.27,0,0,0-3.64-5.8L41,199.44s-3.09-4.43-4.32-6c8-9.73,2.2-12.81.46-13.85l-.24-.15-.15-.79.2,0c7.4-.91,10-5,12.15-10.21,4.5,2.9,16.22,10.33,16.22,10.33a9.66,9.66,0,0,0-.33,2.24c.21,1.36.11,2-.44,2.49s-.42.72-.33,1.25c.14.92.28,1-.13,1.47s-.68.84-.59,2.23a4.39,4.39,0,0,1,0,1.92c-.28.64-1,1-2.06,1.75-1.77,1.38-1.53,1.8.91,6.83,2.08,4.28,2.32,5.26,1.52,6.78a7,7,0,0,0-.83,4.07c0,.46.06,1,.05,1.21,0,.59,0,.53-.34.89a14.9,14.9,0,0,0-1,1.27c-2.9,4.34-10.54,15.49-10.54,15.49H25.42ZM133.7,154c0,4-.08,9.09-1.45,12.87l1.55.7c-.5-3.89.12-7.08,3.69-8.76A12.51,12.51,0,0,1,133.7,154Zm-72.23,1.17c.31,0,.67.52,1.08,1.6a2.51,2.51,0,0,1-.17,2.13c-.77.84-1.82-1.11-1.49-2.66C61,155.52,61.24,155.17,61.47,155.15Zm2.24.55h0a.37.37,0,1,1-.37.36.36.36,0,0,1,.34-.36Zm-6.09.77a3.9,3.9,0,0,1,2.14,1c.79.69,1.5,1.65,1.31,1.73-1.22.53-4.3-1.09-3.9-2.36C57.26,156.58,57.42,156.46,57.62,156.47Zm-5.4.17,0,1.94-3-1.91Zm68.16.93c.49,0,1.23.67,1.12,1.11s-.47.43-.8-.07-.58-1-.32-1ZM59.91,160c.72,0,1.35.14,1.42.51s-.56.82-1.24,1c-1.69.52-3,.18-2.5-.65C57.88,160.31,59,160,59.91,160Zm58.27.42c.68,0,1.26,1.34.83,1.77-.72,1.29-.81,5.38.46,7.06,2,2.16,3.78,5,3.57,8.73l-1.89.84c.1-3.08,0-5.09-2.44-7.75-2.87-3.11-2.2-8.51-1.2-10.1C117.72,160.55,118,160.39,118.18,160.39ZM38.9,161.66,48,167.81a.83.83,0,0,1,0,.34,12.5,12.5,0,0,1-10.64,9.59c-.65.08-.31-.32-.7-1.09a2.1,2.1,0,0,0-2-1.16c-2.31,0-.34-1.31,2.48-1.68a5.19,5.19,0,0,0,2.64-.82c.13.06-.49-3.87.14-5.25.32-1.25,0-1.85-.33-1.08a13.63,13.63,0,0,0-.69,3c-.14,1.09-.37,1.24-.63.71a1.93,1.93,0,0,1,.07-1.26c.21-1-1.09-1.81-.83-2.75a1.65,1.65,0,0,0-.45-1.94,2.15,2.15,0,0,1-.18-1.24,2,2,0,0,0-1.36-2c-.39-.2-.24-.35.13-.61C36.61,160,37.93,161.1,38.9,161.66Zm-5.48.21a2.81,2.81,0,0,1,.65.07c.45.28.82,1.84.31,1.9a10.34,10.34,0,0,0-1.22.23c-1.53.45-2.25.39-2.22-.49s1.28-1.69,2.48-1.71Zm2,.16c.61,0,1.09.71.71,1.08a.68.68,0,0,1-1.14-.45C35,162.35,35.16,162,35.45,162Zm.41,2.43a1.24,1.24,0,0,1,.57.13c.56.26.89,1.22.53,1.57A1.32,1.32,0,0,1,35.5,166C34.76,165.35,35.12,164.49,35.86,164.46ZM34,164.6c.34,0,.59.12.66.36s0,.4,0,.69c.15.46.44.81.19,1-1.18-.07-3.61,1.39-4.32,1.32s-.65-.61-.14-1.49A5,5,0,0,1,34,164.6Zm.71,2.84c.25,0,.29.13.19.5a2.52,2.52,0,0,0,.17,1.3c.19.44.54.7.36.87a18.58,18.58,0,0,0-2.15.6c-1.1.6-4.17,2.42-3.4-.49.25-1,1.38-1.64,3.35-2.33A8.55,8.55,0,0,1,34.68,167.44Zm1.6,0a1.23,1.23,0,0,1,1.26.78c.71,1.41-1.33,1.61-2,.44C35.17,168,35.67,167.52,36.28,167.48Zm.39,3.29c1.06,0,1.89,1.31,1.12,1.81a2.57,2.57,0,0,1-1.93.12C34.87,172.27,35.33,170.76,36.67,170.77Zm101.6,0a78.38,78.38,0,0,0,14.85,5.5v52.3h-36.4l-10-17.33a2.51,2.51,0,0,1-.43-2.15,33.38,33.38,0,0,1,2.25-5.12c2.41-4.4,5.83-9.23,4-13.46-.21-.49,1.92-3.11,1.92-3.11,3.38.17,6.29-2.06,4.93-6.84,6.83-2.79,12.53-5.09,18.87-9.79Zm-103.48.26c.09,0-.18,1.14.4,1.84.36.56.3.54-.93,1a7,7,0,0,0-1.18.86c-1.75,1.56-3.49-.48-1.79-2.12a6.25,6.25,0,0,1,3.48-1.58l0,0Zm83.46,1.08c.59.1,1.36.88,1.11,1.31a6.21,6.21,0,0,0-.94,3.57c-.08,1.6.19,1.83-.42,1.56-.4-.19-1.15-.51-1.32-.92C116.3,176.72,117.29,172,118.25,172.13Zm-84,4a2.15,2.15,0,0,1,1.72.69c.32.42.36.77,0,.94-.76.4-3.28.19-3.4-.33-.2-.79.69-1.29,1.64-1.3Zm38.1,1A25.85,25.85,0,0,1,81.75,179a20.56,20.56,0,0,1,8.45,7.29,7.47,7.47,0,0,0-.83,0c-4.69.77-6.35,6.61-2.39,9.36a4,4,0,0,0,2.24.69c1-.08-4.46,10.37-6.64,16.89-6.73-.28-11.82.75-18.4-1.5-.71-1.18-.54-3.76,0-5.1s1.09-2.15.79-3.54c-.52-2.44-2.75-5.6-3.49-7.61-.65-1.53-.61-2.11.52-3a8.86,8.86,0,0,0,2-1.78c.35-.48.2-.6.2-1.7,0-1.33,0-1.12,1.08-1.31a8.28,8.28,0,0,0,2-.73,3.26,3.26,0,0,1,3.29-.26c.37.1.33-.28.49-.78a4.88,4.88,0,0,0,.21-.69c0-.22-.51-.16-1-.09a11.81,11.81,0,0,1-4.71.05c-.76-.28-.76-.79-.32-1.63a2.59,2.59,0,0,0,.51-2.3c-.2-2,.07-2.37,1-3,1.15-.81,3.23-1.18,5.62-1.17Zm11.1,1.72h9.84a30.66,30.66,0,0,0-2.71,6.36A21,21,0,0,0,83.42,178.89Zm-8.28,7a10.7,10.7,0,0,0-4.56,1.68,5.12,5.12,0,0,1-3.67.93c-.77-.14-.87,0-1,.22-.46,1.13,1.23,2.33,2.94,1.54.49-.2,4.3-2.17,4.51-2.34a7.6,7.6,0,0,1,2.22-.64,1.83,1.83,0,0,1,1.88,2.14,1.35,1.35,0,0,1-1.86,1.11c-.67-.34-.61-.87-.91-1.49a1.69,1.69,0,0,0,1.46,2.52,2.47,2.47,0,0,0,2-3.66,3.13,3.13,0,0,0-3-2Zm-7.74,5.26a2.28,2.28,0,0,0-.45,0,27.36,27.36,0,0,1-3.38.83c-1.11.24-1,1.11-.33,1.57.52.35,1.19.14,3.12-1.08a1.63,1.63,0,0,1,2,2.58c-1,.8-.3,1,.36.53,1.57-1.17.82-4.45-1.32-4.47Zm1.54,8.9c-.12.2,0,.53-.11.79s-.21.47-.18.61.43.25.49.36a5.57,5.57,0,0,1-.06,2.49c-.06.41-.67.54-.92.78-.8.81-.6,1.06.26.75.59-.22.34-.63,1.81-.35a6.91,6.91,0,0,0,4.92-1c1.67-.92,2.27-1.43,2.34-1.32s0,.27-1.16,1.26c-3,2.47-5.2,3-6.87,2.12-.5-.34-.9-.48-.52.24a2.71,2.71,0,0,0,.74.53c1.71.77,3.87.11,6.6-2,.61-.48,1.14-1,1.83-1.59,2.27-1.89,1.68-2.76-.89-1.84-.81.29-1,0-2.13-.45a8.25,8.25,0,0,0-3.65-.65c-1.47,0-1.69.11-1.69-.13s1.06-1.3,2.11-1.91a2.76,2.76,0,0,0,1.13-1.1A7.2,7.2,0,0,0,68.94,200.06Zm3.35,1.53a7.75,7.75,0,0,1,3.23.72c.27.28-.12.46-1.18,1a9.57,9.57,0,0,1-1.23.52C73,204,72,201.71,72.29,201.59Zm-.94.24c.14,0,.26.13.32.25a7,7,0,0,1,.53,1.53c0,.16.13.37-.11.37s-.5.05-.61-.13a4.32,4.32,0,0,1-.42-1.9C71.11,201.81,71.25,201.84,71.35,201.83ZM80.49,206s-1.73,1-2.47,1.37c-3.78,1.81-7.9,2.61-10.69,1.56-1.1-.41-1.3-.27-.9.48a2.76,2.76,0,0,0,1.67,1.36c2.66.73,7-.33,10.25-2.49A7.57,7.57,0,0,0,80.49,206Zm24.78,6.82s8.19,15.34,8.92,16.06l-60.75-.26,10.23-14.43C63.76,215,88.36,218.34,105.27,212.79Z"/><path id="path4035-6-4-6" class="cls-3" d="M53.82,228.59l9.81-14.44c14.51,2.75,27.56,1.29,41.86-1.25l9.53,16Zm76.93-53.82-.06-8.57,3,1.11c-1-4,1.58-8.15,4-8.32-7.64-5.74-1.29-11.89-1.42-12-8.36-4.3-4.17-10.9-4.75-11.49-10.18-2.63-6.2-10.69-7-9.86-5.93,1.78-9.2-3.17-9.3-7.2-5.12,2.9-13-1.2-10.57-5.82,0,0,2.72,1.29,3.2,1,4.19-3,3.86,1.32,4.73,2.27,3.12-.46,5,1.93,5.75,3.09,4.6,0,4.41-1.1,4.45,3.35,3.48.88,3.34,2.75,5.35,5.31,4.38,0,3.64,1.46,2.65,3.88,3.15,2.5,3.41,4.46,3.93,6.74,3.44,1.24,4.06,1.75,1.81,4.64,3,4.54,1.58,7.16,2,7.41,3.78,2.72,1.89,3.71.24,4.76.57,3.61,1,4.15-.3,7.83,4.35,3.08-.69,4.47-.95,4.4v3.05ZM25.35,152.42l-.09-10.62,36.9,23.76-4.66,7.3Zm49,15.64c10.25-19,8.71-17,5.59-38.06l25,.55c2.81,6.36,4.5,11.78,11.71,22.32-7.82,2-6.74,2.78-7.35,15.12Zm21.38-4.79a2.35,2.35,0,0,1-.35-1.12c.1-.31.33-.29.63-.13,1.06.52,2.12,1,2.9,0a1.39,1.39,0,0,0,0-1.66c-.6-1.21-2.48-.33-3.12-.29s-.81-.48-.33-1.18a1.85,1.85,0,0,0,.52-1c.33-2.79-4.43-1.8-2.78.9.75,1,.31,1.6-.79,1a1.81,1.81,0,0,0-2.84,1.42,1.68,1.68,0,0,0,2.61,1.12c.27-.16.48-.32.68-.41.54-.23.93,0,.75.58-.49.76-1.06,1.86-.58,2.58a1.63,1.63,0,1,0,2.74-1.73Zm57.67-55.79-37-23.88a51.31,51.31,0,0,0,4.91-7.72l32.1,20.58ZM95.61,99.41l3.79,19.28-25.81.36c-1.42-6.47-10.29-21.12-10.26-20.87l6.88-16.85,34.25,0Zm-9.68-7.18c.65-.6.61-1.51-.11-2.54s-.39-1.71.73-1a2.93,2.93,0,0,0,2.27.29,1.53,1.53,0,0,0,1.07-1.81c-.16-1-1.3-1.31-2.51-.86-.36.08-.57.36-.88.5-.65.29-.91-.5-.31-1.52a1.58,1.58,0,0,0-1.25-2.45A1.55,1.55,0,0,0,83.38,85c.77,1.17.21,2-.89,1.2-1.58-1.12-3.64.3-2.79,2,.42.81,1.78,1,3,.51,1-.43,1.32.06.71,1.1-1.27,2.14.81,4,2.53,2.45ZM48.48,73.29,48.2,83.57c-3.86-2.35-3.28-2.38-3.43-2.35A7.37,7.37,0,0,1,41.31,90c5.9,5.52,2.71,9.4,1.74,12a8.53,8.53,0,0,1,3.75,11.51c7.43,0,7.28,6.53,7.5,9.23,9.19-.58,8,6.74,9.17,7.37,4.46-2,9.66-1.3,11,4.67.9,3.39-2.38.12-3.81.26-5.08,3.16-4.1-1.66-4.39-2.33-4.21.4-4.77-1.6-6.62-3-4.54.88-4.17-.61-3.9-3.37-3.57-.72-4.34-2.93-5.76-5.11-4.93.16-2.92-3.3-2.9-4-.6-.54-3.42-3.31-3.56-6.48-5.06-1.43-1.88-4-1.7-4.84-1.91-2.38-2.42-4.13-1.78-7.12-4.48-2.09-.74-4-.42-5.23-1.46-3.9-.4-5.07.18-7.17C37,83,38.69,83.22,40.8,81.17c.27-.37-.47-2.06-.43-3.06ZM74.4,35.22,66.31,20.78h57.8s-6.29,8.69-8.73,13.06C101,31.57,87.48,32.65,74.4,35.22Z"/><path id="path4039-1-1-4" class="cls-4" d="M34.06,219.21c-8-3-2.85-10.82-.53-13.87-1.64-2.53-2.4-3.42-4.08-5.93,1.48-2.23,3.22-3.94,4.33-5.87-4.45-5-7.38-12.49,1.2-14.26,9.62,2.4,3.94,10.86,1.32,14.13.93,1.86,2.53,3.64,4.13,6A55.12,55.12,0,0,0,36.09,205c3.77,4.56,6.36,10.48,1.6,13.63a5,5,0,0,1-3.63.55Zm42.72-76.54C76.64,142.44,57.67,173,57.67,173l2.16,1.39L78,146.14c.28.21.55.45.49.8,0,0-14.95,24.28-17.44,28.16a38.2,38.2,0,0,0,3.83,2.34c5.56-2.73,28.75-.37,44.15-1.31.06.05-.24,5.39-.24,5.39-5.14-6.89-7.62-2.61-14-2.87-1.68.51-3.6,6.63-4,8.16-3.07-.35-6,2.84-5.32,5.82,1,3.31,2.73,3.06,4.59,3.11-.18,3.75-6.81,13.61-6.84,18.47,7-.55,14.61-.68,21.84-2.85,0,0,2.72-7.79,6.15-12.92a10.47,10.47,0,0,0,1.21-6.77c-.29-2,.59-2.55,1.38-4,.48-.89,2.24-.86,2.47-.92,4.6-1.33,3-7.26,1-8.32-2.44-1.31-5.9.73-7.22-1.94-1.41-2.83-1-8.67-1-8.67L74.32,168s9.81-18.59,9.56-18.73C81.2,147.82,76.81,142.72,76.78,142.67ZM53.54,159.59c.17-1.88.47-32.43-28.5-47.62l.16-4c.17-.2,26.35,11.78,30.84,42.9l8.07-12.62,3,1.16C62.69,146,54,161.92,53.54,159.59ZM36,148.58c1.19-3.52-.77-1.65-2.55-1.8-1.22-.66-2.42-1.51-3.55-2.26,8.46-4.47,3.42-4.25-1.51-1.11-1.28-.69-2.9-2.21-3-2.08,9.55-6.12,6-6.25-.14-1.81.21-4.16.06-2.6.14-4,5.21-5.56.36-2.54,0-2.47-1.28-5.55,4.85-4.39,5.42-.19,1.08.8,3.2,1.79,3.82,5.23,2.95,1.87,2.64,3.42,2.5,5.66,1.16,1.13,4.13,3.53.66,5.74ZM25,123.25l.19-3.07c.4-1.25,22.74,14.63,21.13,35,.27-.14-2.47-1.43-3.26-2.13C43.05,138.07,27.05,124.87,25,123.25Zm128.12,17.23c-14.9-6.81-29.06-23.13-29.8-44.35l-8.42,14.06-3-1.26c.28.23,6.66-11.57,13.23-19.73C127,116,137.5,128.42,153.46,137.47ZM75,130.69c-14.44-1.79-35.12-22-28.88-48.55C54,86.37,58.26,93,62,96.61c2.31,2.69,10.79,16.57,11.21,22.09,10.5,3,30.79-.36,30.79-.36,17,3.8,34.86,22.12,28.43,48.17a75.37,75.37,0,0,1-8.32-6.42c-11.5-11.08-15.15-20.18-19.23-30.23-14.73-1.33-28.53,1.3-29.8.83Zm78.2-22.13a33.61,33.61,0,0,1,.14,4.06c-3.84,4.17-4.24,4.24.57,2.9-.59,4-3.55,4.66-5.32,3.3-.64-.51-.65-3.26-.65-3.26-2.92-.73-3.92-1.6-3.51-4.73-3.36-.4-3.23-2-3-5.44-3.06-1.71-2.3-4.44-.49-5.61l1.52,1c-.49.43-.25,3.15,2.43,1.13,0,0,2.15,1.77,3.18,2.46-7.76,5-3.06,3.88,1.72.61.9.61,2.12,1.61,2.76,2C146.33,111.56,144.27,115.33,153.23,108.56Zm.38,16.91-.26,3.59c-15.32-9.34-19.47-21.67-20.61-34.79,0,0,2.06,1.51,3,2.13,1.37,16.94,16.92,28.37,17.87,29.07ZM69.66,81l36.75.24L96.66,99.86l5.14,6S114.57,86.08,121,75.7l-2.22-1.32-18.32,28.69-.73-.8,18.06-28.68c-1.08-.7-3.13-1.84-3.13-1.84s-31.3.5-44.9.45A34.44,34.44,0,0,0,70.29,67c2,2.87,4.15,5.43,8.83,2.61,0,0,5.53.19,5.73-.07a74.38,74.38,0,0,0,3.28-8.4c4.05.11,5.19-2.7,5.38-4.34.44-3.87-4.09-5-4.43-4.44,1-5.8,8-17.76,6.74-18.18-1.59-1-17.31,2-21.88,2.6-.43-.16-2.66,7.11-5,10.22-2.57,3.39-3.48,7-2.17,10.44-1.36,3.76-4,3.37-6,4.44-2.37,2.55-1.72,6.47.54,8,1.57,1.06,4,1,6.44-1Zm73-26.27L138.38,49l4.17-6c-1.65-2.6-4.36-6.58-3.87-9.73,1.06-6.26,9.52-5.34,10.26.64.4,2.78-1.63,6.18-3.69,9.08,1.36,2.47,1.94,2.88,3.92,5.71-1.17,2.07-4,6.12-4,6.12,1.79,3,4.27,6.29,4.09,9.34-.19,2.62-3,5.27-5.71,4.71C135.21,67.1,139.84,58.25,142.68,54.77Z"/><g id="g4049-4-4-2"><path id="path4033-2-3-3" d="M64.94,20.12c2.28,4.27,8.75,15.78,8.75,15.78,15.39-3.18,28.33-4,41.93-1l9.72-14.69Zm2,.87h2.79l5.46,11.19,9.41-1.87L83,21l2.66,0L87,30l13.84-.35L102.64,21l2.55,0-1.83,8.77,11,1.47L119.68,21h3.68l-8.15,12.68a96.71,96.71,0,0,0-41,1.09Zm5.25,0h8.13l1.94,7.55a18.13,18.13,0,0,1-6,1.28A97.23,97.23,0,0,1,72.19,21Zm15.67,0h12.36l-1,6.43-10.37.33Zm19.6,0H117l-3.76,7.81-7.18-1Zm36.27,7.82c-3.62-.12-5.42,3.27-5.33,5.64.56,3.51,1.35,4.19,3.92,8.5L138.18,49l4.41,5.74s-.69.8-1.1,1.38c-2,2.85-3,5.52-2.83,7.7a5.48,5.48,0,0,0,4.11,5c3.93.87,6.4-1.92,6.49-5.13,0-2.17-1-4.79-3.11-7.65a8.11,8.11,0,0,1-.84-1.38s2.92-4.15,4-6l-4-5.73c3.18-4.76,3.82-5.81,3.91-8.74a5.47,5.47,0,0,0-5.52-5.39Zm0,.36c3.63.28,5.55,3,5.07,6.42-.49,3.29-3.47,6.36-3.95,7.41A67,67,0,0,0,149,48.62c-1.14,2.07-4.1,6.1-4.1,6.1a5.23,5.23,0,0,0,.36.59c3.09,4.37,3.94,6.43,3.72,9a4.84,4.84,0,0,1-3.84,4.28,5.24,5.24,0,0,1-6.19-4.78c-.2-2.7,1.54-5.32,2.9-7.36.57-.86,1.07-1.68,1.07-1.68l-4.4-5.75c1.34-2.12,3-4.2,4.28-6l-1.27-2c-2.41-3.79-3.08-5.74-2.71-7.84.78-2.9,2.74-4.19,4.93-4.06Zm-.08,1.93a3.58,3.58,0,0,0-3.13,2.45c-.74,2.67,2.08,6.72,3.37,7.8,2.4-2.75,3.94-5.85,3-8A3.73,3.73,0,0,0,143.66,31.1ZM144,32c2.43.05,3.34,2.92,1.46,6.2a20.08,20.08,0,0,1-1.6,2.28s-.89-1.11-1.42-1.94c-2.18-3.39-1.61-6,1-6.51a3,3,0,0,1,.51,0ZM96.23,33.46c-6.52-.09-16.19,1.41-23,2.78a28.83,28.83,0,0,1-4.85,11.19c-2.12,3.44-2.88,6.43-2.18,8.49s-1.14,4.79-3.12,5a4.13,4.13,0,0,0-4,4.37c-.07,3.9,2.63,6.3,6.3,5a.8.8,0,0,1,.62.19l-.21,22.35a15.14,15.14,0,0,0-5.21,1.7,55.33,55.33,0,0,0-8.49-8.17c-.07-5,.14-10-.09-14.94a60.19,60.19,0,0,0-10.86,5.89c-1.08.73-1.19,1.13-.78,3,.23,1,.17,1.14-.68,1.35-1.75.42-2.3,3.2-.82,4.15.7.44.7.46.25,1.47A8.16,8.16,0,0,0,39.2,93c.41.71.38.94-.16,1.29-1.86,1.21-1.74,3.8.21,4.28.5.13.63.34.47.77-.61,1.56-.06,4,1.34,5.75.73.94.73.93.25,1.36a2.43,2.43,0,0,0,1.41,4.22c.74.1.74.1.83.66a8.26,8.26,0,0,0,.71,2.81,6.07,6.07,0,0,0,2,2.38c.83.64.83.65.39,1.6-.82,1.75.48,3.48,2.55,3.41,1,0,1,0,1.13.34a6.32,6.32,0,0,0,4.33,4.26c.92.15,1.07.37.75,1.15a1.87,1.87,0,0,0,1.09,2.7,2,2,0,0,0,2,.13c1.05-.36,1.06-.36,2,.84A4.31,4.31,0,0,0,64.7,133c1.39,0,1.44,0,1.45,1a2.28,2.28,0,0,0,4,1.59c.57-.6.57-.6,1.08-.23,2.22,1.62,4.19,2,4,.52a9.62,9.62,0,0,0-3-5.72l3.22.84c.14,3.75.28,8.28,1.06,11.4L62.2,165.25l-7.74-5.12,13-21.09-3.65-1.4c-2.79,4.38-4.84,7.9-7.44,11.94-2.59-18.92-15.83-35.53-31.86-42.52l.06,5A52.06,52.06,0,0,1,53,159.17a18.89,18.89,0,0,1-3.22-1.93c-1-.63-2.89-1.89-3.13-2,.78-23.12-22.22-36.79-22.26-36.15,0,0-.15,3-.21,4.38C34,130,41.72,141.91,42.5,152.51c0,.09-4.6-2.87-4.6-2.87a3.29,3.29,0,0,0,0-5.84c-.62-.28-.65-.41-.35-1.24.64-1.71-.52-4.28-2.12-4.71-.7-.19-.81-.37-.85-1.35a3.32,3.32,0,0,0-2.85-3.36c-.49-.11-.49-.11-.52-.73-.15-3.47-3.56-4.88-6.11-2.54a4.08,4.08,0,0,0-.58.77l0,3.76c.88-.48,2.2-2.11,2.74-2.05s.31.48-1,1.64c-.87.75-1.72,1.55-1.72,1.55l.05,5c1.46-.94,2.91-2,4.28-3,1.17-.82,1.77-1.08,1.92-.85s-.1.62-.77,1c-1.79,1.19-3.87,2.59-5.38,3.76v3.42l.29.42.09,3-.27.07v3.76l35.45,22.67,17.94-28.45.29.3-18,28.28a53.23,53.23,0,0,0,5.29,3.21,10.09,10.09,0,0,1,3.8-1.47c2.19-.48,39,.05,39,.05l.16,4.55c-1.3-4.47-5.49-5.39-8.78-3.39H94.38s-3.21,5.74-3.67,8.73c-2.27-.31-5.3,1.9-5.46,4.15-.36,3.19,1.74,5.51,4.49,5.06-1.37,5.61-4.69,11.16-6.38,16.07-.85,2.32-.56,2.73-.41,2.79a77.32,77.32,0,0,0,23.16-3.36c-1.15-1.87,1.91-6.48,3.5-9.85,2.28-4,2.93-5.57,3.16-7.48a8.86,8.86,0,0,0-.36-3.6,9.52,9.52,0,0,1,2.13-3.29,4.2,4.2,0,0,0,4.84-3.71,5,5,0,0,0-6.5-5.59l0-21.93,2.53.1,2.79-1.37c4.48,3.81,7.41,7.71,12.23,10.64l-.08.2L126.74,163v14.37a66.87,66.87,0,0,0,11.74-7.15l-.75-.65,0-2.06c3.51.28,3.84-4.17,1-4.7a4,4,0,0,1,.35-.92,6.68,6.68,0,0,0,.35-5.39c-.39-1.15-.38-1.44.09-1.44,2.13,0,1.93-3.75-.24-4.57-.75-.29-.69,0-.54-2.39a5.67,5.67,0,0,0-1.62-4.48c-.49-.58-.45-.86.18-1.25,1.82-1.11.51-4.3-1.73-4.21-.87,0-.87,0-.95-.83a6.9,6.9,0,0,0-3.16-5.38c-.52-.28-.59-.52-.3-.91,1.43-1.9.09-4.51-1.92-3.75l-.92.33c-.16,0-.29-.17-.6-1-.83-2.35-1.58-3.08-4.25-4.2-.53-.22-.56-.38-.32-1.45.41-1.86-2.15-3.58-3.53-2.38-.57.48-.59.48-1.22-.33a8.35,8.35,0,0,0-5.15-2.65c-.87-.08-1-.14-.93-.48a2.24,2.24,0,0,0-3.58-2.38c-.88.65-1.11.67-2,.16-1.91-1.06-2.74-1.1-2.94-.14a6.54,6.54,0,0,0,.31,2.34,5.89,5.89,0,0,0,2.38,3.31s-2.18-.6-2.74-.71c.06-.06-.15-7.57-1.59-11.82l14-22.18,8,5.26-12.82,20.2,3.73,1.51s5-8.24,7.59-12.29c1.71,20.08,17.28,37.68,31.38,42.91,0,0,0-2.89.11-4.3-14.88-6.53-29-24.78-28.15-46.68l6,3.81c1.73,17.56,9.41,27.84,22.2,36.54v-5.38c-8.81-6.49-16.13-15-18.07-28.56,0,0,3,1.88,4.32,2.77a6.51,6.51,0,0,0-.57.38c-1.6,1.33-1.12,4,1,5.59.34.25.35.25,0,1.1a3.22,3.22,0,0,0,2,4.18c1,.25.95.24,1,1.33,0,2.11.89,3.09,3.16,3.59.31.07.32.11.31,1a3,3,0,0,0,4.21,2.93,25.91,25.91,0,0,0,2.54-1.91v-3.77s-.87.72-1.5,1.3c-1.11,1-1.46,1.16-1.46.53,0-.45.52-1,1.58-1.84a14.91,14.91,0,0,0,1.38-1.28v-4.38a3.4,3.4,0,0,1-.46-1.72,11.67,11.67,0,0,1,.16-1.28h.53v-5.08l-.64-.5,0-3.36-35-22.56-18.22,28.88-.46-.53,18.25-28.7-5.11-3.2a16.83,16.83,0,0,1-4.06,1.54c-2.06.4-18.88-.31-38.63-.06,0-1.43,0-2.27,0-3.9a1.12,1.12,0,0,1,.44.44c1.59,3.36,5.6,3.4,8,1.93.54-.29.64-.3,3.17-.28,2.71,0,3.07,0,3.07,0,1.33-3.48,2.28-6.4,3.14-8.65,6.76.56,7.16-8.62,1.6-9.22-1,0-.31-2.56,1.73-6.7a67.4,67.4,0,0,0,3.48-7.81,17.72,17.72,0,0,0,1.14-4Zm-1.67,1.15a5.36,5.36,0,0,1,.87.09c.5.42-.76,3.52-3,8.2a48.46,48.46,0,0,0-3.11,7.2A11.49,11.49,0,0,1,88.84,52a6.12,6.12,0,0,0-2.38,2s.12-1,.21-1.57c.27-1.83,1-3.8,2.69-7.24A77,77,0,0,0,93,36.5c.22-.7.33-1.4.71-1.66A1.83,1.83,0,0,1,94.56,34.61Zm-2.75.12a1.57,1.57,0,0,1,.89.15c.35.24-1.3,4.48-4.15,10.36C85,52.58,84.81,57.73,88,59c2.52,1,5.06-1.77,3.5-3.79a1.81,1.81,0,0,0-2.92,0c-.3.55.12,1.18.66.41.79-1.12,2.36.18,2,1.5a2.38,2.38,0,0,1-2.33,1.49c-3.49-.7-2.83-5.6.79-5.87,5.58.48,4.55,8.18-.84,8.31-2.25,0-4.36-1.86-4.15-3.58a6.69,6.69,0,0,0-.19-4.09A3,3,0,0,1,84.14,52c0-1.4,1.19-3.56,3.76-8.91a51.14,51.14,0,0,0,2.61-7.34c.2-.62.1-.79.33-.87A7,7,0,0,1,91.81,34.73Zm-2.87.21c.26,0,.52,0,.79,0,.52,0-.69,3.89-2.22,7.18-1.16,2.52-2.75,5.75-3.93,8.74-.38.64-.63.69-1.4.27S81.58,50,83.59,46a60.92,60.92,0,0,0,4-9.9,1.41,1.41,0,0,1,.58-1,2.19,2.19,0,0,1,.78-.17Zm-2.88.32a1.83,1.83,0,0,1,.84.13c.28.37-1.56,5.57-4.41,11.44-.61,1.25-1,2.39-1.64,3.66a5.52,5.52,0,0,1-2,.56c-.59-.08,0-1.17,1.64-4.53C81.85,43.78,82.24,43,83,41.34c.52-1.22,1.28-3.32,2-5.27.06-.16.11-.51.27-.6a2.65,2.65,0,0,1,.85-.21Zm-2.78.28c.45,0,.86,0,.83.18A50.12,50.12,0,0,1,80,46.13c-.91,1.81-1.75,3.54-1.86,3.84s-.41,1.11-.67,1.79c-1.64,3.51.12,6.27,2.29,6.47,3.39.28,3.71-4.46,1.32-4.91a1.51,1.51,0,0,0-1.9,1.37c-.06.54.6,1.17.59.4,0-1.41,2-1.35,2.19-.15.47,2.33-2.19,3.47-3.77,1.64a2.75,2.75,0,0,1-.53-2.39,3.11,3.11,0,0,1,5-2,4.28,4.28,0,0,1-2,7.7,4.43,4.43,0,0,1-4.12-1.19,5.2,5.2,0,0,1-1.3-3,8.56,8.56,0,0,1,0-2.32c.32-2.45,2.11-6,3.68-9.06,1.22-2.51,2.17-5.83,3.27-8.5a2.76,2.76,0,0,1,1.11-.26ZM80.74,36a1.32,1.32,0,0,1,.39.06c.18.05-.75,3-2.07,6.09s-3.34,6.82-4.4,10c-.34.77-.59.75-1.54-.14-.51-.47-.22-1.17,1.55-4.78a77.59,77.59,0,0,0,4.14-9.23c.19-.62.35-1.38.76-1.62A2.87,2.87,0,0,1,80.74,36Zm-3.07.59a1,1,0,0,1,.73.16,50.86,50.86,0,0,1-2.85,7c-1,2.07-2,4.36-3,6.5C72,51.54,72,51.54,71,51.73c-1.6.34-1.6.32-.18-2.55a76.83,76.83,0,0,0,5.07-11.11,3.25,3.25,0,0,1,.64-1.25A3.72,3.72,0,0,1,77.67,36.58Zm-2.78.51a.83.83,0,0,1,.67.2c.07.65-1.69,4.82-2.78,6.75-.33.59-.66,1.36-1,2a36.76,36.76,0,0,0-3.47,8.15c-.68,2.78,2.5,4.88,4.15,2.86,1-1.22,0-3.42-1.55-2.81-.53.22-.31.45.41.51,1.19.1,1.28,1.93,0,2.33a1.93,1.93,0,0,1-2.43-2A2.75,2.75,0,0,1,73.43,53a3.79,3.79,0,0,1-.62,6.21c-2.57,1.3-5.74-.46-6.38-3.54-.49-2.35,0-4.5,2.31-8.12a45.88,45.88,0,0,0,4.37-8.85,4.49,4.49,0,0,1,.57-1.2,2,2,0,0,1,1.21-.42Zm69,7.4-3.46,4.38c1,1.44,3.37,4.26,3.37,4.26l3.27-4.22Zm0,2.45,1.43,1.85-1.64,1.93-1.53-1.8Zm-.15,1-.59.91.59.92.6-.92Zm.28,8.55s-4.18,4.57-3.22,7.95a3.34,3.34,0,0,0,6.52-.66c.32-2.2-1.68-5.13-3.3-7.29Zm0,.9s1.2,1.74,2,3.27,1.25,5.44-2.11,5.48c-1.83,0-3.62-2.26-2.17-5.19C142.2,60,144,57.36,144,57.36Zm-68.89.72c.18,0,.41.53.53.85a3.93,3.93,0,0,1-1,2.62,21,21,0,0,0-2,.77,8,8,0,0,1,.54-2.22,19.65,19.65,0,0,1,1.84-2,.11.11,0,0,1,.08,0Zm-8.41.28c.52.57,1,1.08,1,1.44,0,.52-.65,1.17-1.12,1.63s-1.76.23-1.75-.52A10.25,10.25,0,0,1,66.74,58.36Zm17.69.75a4.35,4.35,0,0,0,1.09,1.48,35.22,35.22,0,0,1-3.35,8.59,5.33,5.33,0,0,1-2.35-.06,30.1,30.1,0,0,0,3.85-8.32c.35-1.12.51-1.69.76-1.69Zm-1.53.55c.28,0,.39.2.16.81-1.07,4.31-3.47,8.85-5.35,9.67a4.58,4.58,0,0,1-6-1.67c-1.14-2-.94-5.17,2.87-5.86,2.24-.23,4.53,1.53,3.33,4.36-1.33,2.1-4.9.93-3.85-1.78.79-1,2.45-.13,1.91,1-.28.57,0,.92.39.52,1.31-1.26-.84-3.43-2.28-2.35-2.36,1.78.55,5.67,3.3,4,.83-.51,2.35-3.37,2.92-5.45a4.76,4.76,0,0,1,1-2.29A3.36,3.36,0,0,1,82.9,59.66Zm-6.22.17a2.08,2.08,0,0,1,.48.18c.27.13.6.38.56.69A2.81,2.81,0,0,1,77,62.26c-.25-.09-1-.37-1.44-.5-.3-.08.1-.73.29-1.09s.41-.75.61-.82A.52.52,0,0,1,76.68,59.83ZM68.8,60a3.24,3.24,0,0,1,1.36.43c.07.54-.61,1.68-1.73,3-.91,1.11-.91,1.11-1.51-.11-.4-.79-.41-.77.72-2.17C68.24,60.42,68.52,60,68.8,60Zm3.6.39a4.72,4.72,0,0,1-.25,1.28c-1.26,3.76-4.21,7.49-6.65,8.4-3.17,1-6.08-.63-6.16-4.48.08-4.53,5.49-5.78,7.13-1.65.74,1.86-1.27,4.67-3,4.2s-2.49-3.2-1-3.87a1.18,1.18,0,0,1,1.72,1.3c-.07.34,0,.39.15.35.9-.16.43-2-.64-2.42-2-.85-3.53,1.85-2.17,3.86,1.62,2.42,4.18,2,5.65-1a9,9,0,0,1,1.06-1.61,14.29,14.29,0,0,0,2-2.79A12.23,12.23,0,0,1,71,60.45,6.17,6.17,0,0,0,72.4,60.37Zm7.13.19c.38,0,.67.25.67.78a10.24,10.24,0,0,1-.94,2.74c-.11.17-.38.77-.42.64a6.66,6.66,0,0,0-1.13-1.94c-.11-.38.23-.75.38-1.09a1.75,1.75,0,0,1,1.44-1.13ZM86.1,61a11.9,11.9,0,0,1,1.61.72c.15,0-2.48,7.58-2.75,7.6l-2.12-.09A49.2,49.2,0,0,0,86.1,61Zm28.64,11,2.7,1.6-17.8,28.19-2.59-2Zm-44.41.58c16.62.06,39.52,0,39.52,0l-1,1.83s-25-.24-38.55-.22ZM47.89,73.72l0,9.27a63.13,63.13,0,0,0-7-4.72s4.49-3,7-4.55Zm71.18.93,1.67,1L102,105.36l-1-2Zm-48.74.41h2.61V78H70.33Zm6,0h3.15V78H76.3Zm6.9,0h3.25V78H83.2Zm6.78,0h3.28V78H90Zm6.82,0H100v2.93H96.8Zm6.83.06H107v2.07l-.5.86h-2.82Zm-32,.75a.58.58,0,0,0-.58.57h0a.58.58,0,0,0,.58.57.57.57,0,0,0,.57-.57h0a.57.57,0,0,0-.57-.58Zm6.24,0a.58.58,0,0,0-.58.57h0a.58.58,0,0,0,.58.57.58.58,0,0,0,0-1.15Zm6.91,0a.58.58,0,0,0-.58.57h0a.58.58,0,0,0,1.15,0,.57.57,0,0,0-.57-.58Zm6.88,0a.58.58,0,0,0-.58.57h0a.58.58,0,0,0,1.15,0,.57.57,0,0,0-.57-.58Zm6.76,0a.58.58,0,0,0-.58.57h0a.58.58,0,0,0,1.15,0h0a.57.57,0,0,0-.57-.58Zm6.87,0a.58.58,0,0,0-.58.57h0a.58.58,0,0,0,.58.57.58.58,0,0,0,0-1.15Zm16.18.21,31.72,20.45,0,2.82-33-21.27Zm-2.08,2.39.28.19-1.35,2-.27-.15Zm-49,.3H106L105,80.63l-34.54,0Zm-29.23.92a3.59,3.59,0,0,1,1.44.6c1.75,1,2.85,3,2.09,3.79s-2.25-.76-3.22-2.79C41,80.27,40.84,79.77,41.19,79.75Zm63,1.77L92.71,99.82c-2.6-3.55-5.51-6.62-11.87-4.54-3.31-2.55-6.82-3-10.54-.78l0-12.92Zm-59.13,0,.9.77a9.26,9.26,0,0,0-.56,1.88,9.93,9.93,0,0,0-.34-2.65Zm72.82.19,35.39,23.2v2.15L116.64,83.56Zm-77.49.54a2,2,0,0,1,1.22.57,1.61,1.61,0,0,1-.44,2.32c-1.49,1-3.33-1-2.1-2.27A1.78,1.78,0,0,1,40.39,82.26Zm5.84.26,1.93,1.54C44.8,103.13,54.39,122.38,75,128.14l.23,2.45c0,.11-8.77-2.61-12.61-5.48a39.69,39.69,0,0,1-12.77-14.35,41.6,41.6,0,0,1-4-11.2A47.37,47.37,0,0,1,46.23,82.52ZM44,85.11c.74,0,.83.56.23,1.58a7.2,7.2,0,0,1-3.77,3c-1,.43-1.29.23-1.18-.85.18-1.64,1.33-2.84,3.3-3.47A5.23,5.23,0,0,1,44,85.11Zm5.69.2.77.65a1.61,1.61,0,1,0,2.11,1.79l.77.66a2.53,2.53,0,1,1-3.65-3.1ZM51,86.58a.75.75,0,0,1,.26,0l.56.47a1,1,0,0,1,.09.39.91.91,0,1,1-.91-.9Zm-6.09.58a66.25,66.25,0,0,0-.06,7.6,6.91,6.91,0,0,0-3.31-4.61,15.14,15.14,0,0,0,3.37-3Zm9.3,1.93,1.72,1.48c-1.48,20.18,16.27,27.84,16.75,27.5l.75,2.29C61.18,116.2,52.71,103.58,54.22,89.09Zm70.57.82c.16,0,.26.31.27,1,0,6.54,2,33.45,28,46.54L153,140c-13.91-5.38-29.76-25.22-29.56-44.23-3.57,5.45-5.57,9.1-8.64,14l-2.44-1.16c4-6,7.83-12.33,11.85-18.18.23-.33.44-.57.59-.55ZM40,90.67a3.34,3.34,0,0,1,1.9.72c1.27.85,2.7,3.48,2.2,4.07s-2.33-.1-3.26-1.09C39,92.41,38.86,90.74,40,90.67Zm10.85.26a2.53,2.53,0,1,1-2.54,2.53A2.53,2.53,0,0,1,50.85,90.93Zm5.68.24,1.65,1.94c.32,16.93,13.74,22.16,13.61,22.2l.41,1.82C71.45,117.24,55.6,110,56.53,91.17Zm-5.68.68a1.61,1.61,0,1,0,1.61,1.61A1.62,1.62,0,0,0,50.85,91.85Zm0,.7a.91.91,0,1,1-.91.91A.9.9,0,0,1,50.85,92.55Zm8.57,1.54c.2,0,1.16,1.38,1.16,1.38s-1,.37-1.5-.09S58.87,94.09,59.42,94.09Zm73.46.62,2.48,1.7c1.16,11.42,7.73,21.85,17.64,29.08l-.06,2.83c-12.07-8.12-18.77-19.16-20.06-33.61Zm-93,.2a1.58,1.58,0,0,1,.54,3,1.6,1.6,0,0,1-2.25-1.22A1.75,1.75,0,0,1,39.36,95a1.51,1.51,0,0,1,.5-.07Zm20.62,1.52a1.8,1.8,0,0,1,1.25.69c1.09,1.23,1.08,1.59-.07,2-1.62.66-3-.25-2.43-1.64.29-.73.74-1.1,1.25-1.1Zm-16.56.06a1.15,1.15,0,0,1,.37.06c1.19.46-1.4,5.18-3.11,5.66-1.08.31-1.31-.12-1-1.77C40.62,98.6,42.65,96.52,43.92,96.49Zm7.61.11A2.53,2.53,0,1,1,49,99.12,2.52,2.52,0,0,1,51.53,96.6Zm0,.92a1.61,1.61,0,1,0,1.61,1.6A1.62,1.62,0,0,0,51.53,97.52Zm-6.34.13A27.53,27.53,0,0,0,46.84,105a10.83,10.83,0,0,0-3.71-3.21C44.07,100.43,45.15,99,45.19,97.65Zm6.34.57a.91.91,0,1,1-.91.9A.91.91,0,0,1,51.53,98.22Zm14.35.28a4.2,4.2,0,0,1,4.4,4.19,58.36,58.36,0,0,1,0,7l-2.14-3.92c0-1.11.16-1.95.07-3.06a2.36,2.36,0,0,0-3.3-2.26l-.93-1.5a5.31,5.31,0,0,1,1.94-.42Zm9.32.3a3.63,3.63,0,0,1,4,3.86c.14,4.74-.11,15.56-.11,15.56H73.72L70.79,111a6.5,6.5,0,0,1-.09-1.2c.18-2.32.07-4.9.14-7a4.54,4.54,0,0,1,4.36-4Zm-12.41.75a1.2,1.2,0,0,1,.91.34c1.24,1.26,1.24,2.08,0,2.64-1.67.75-2.54.61-3.11-.5s1-2.47,2.22-2.48Zm78.16.34,1.36.87s-.29.45-.44.71c-.77,1.33.54,2.1,2.36,1.4a3.25,3.25,0,0,0,.6-.31l1.13.77s-.81.43-1.69.86c-2.27,1.11-4,.63-4.43-1.31-.3-1.33.13-2,1.11-3Zm-57.51.16A4.73,4.73,0,0,1,88,103.77c.19,1-.06,14.46-.06,14.46H79.72l.15-14.1a3.57,3.57,0,0,1,.48-2.41,4.11,4.11,0,0,1,3.09-1.66Zm-8.55.62c-1.66.07-2.61,2.76-.89,4,.71.53.73.63.34,2.42a9.58,9.58,0,0,0,1,6.4c.78,1.3.62.64.22-.52-.51-2.18-.26-3.78,1-6.3,1.12-2.13,2.22-5.41-1.37-6a1.3,1.3,0,0,0-.34,0Zm68.33.61.74.5a1,1,0,0,1-1.34.36C142.32,101.78,143.22,101.28,143.22,101.28Zm-59.31,1c-1.79-.06-3,3.24-.68,4,.52.34.61.77.28,1.39a9.54,9.54,0,0,0-.79,3.63,13.3,13.3,0,0,0,.64,3.26c.6,1.48.47.89.32-.82a8.3,8.3,0,0,1,1.44-5.1c1.32-2.18,3.14-5.74-1-6.38l-.17,0Zm-30.75,0a2.53,2.53,0,1,1-2.54,2.53A2.54,2.54,0,0,1,53.16,102.33Zm11.74.28c.45,0,.78.26,1.18.86,1.09,1.62,1,2-1.14,3.11s-3.73-1.85-1.6-3.28A3.28,3.28,0,0,1,64.9,102.61Zm-23.2.1c2.36,0,6,3.38,4.25,3.87a3.41,3.41,0,0,1-.72.11c-3-.18-6.36-4-3.53-4Zm11.46.54a1.61,1.61,0,1,0,1.61,1.61A1.62,1.62,0,0,0,53.16,103.25Zm93.43.47,1.18.8s-.72.33-1.57.78c-2.3,1.22-3,2.12-2.17,2.92a1,1,0,0,0,1.22.18,33.69,33.69,0,0,0,4.57-2.56l.89.61s-3.52,2.48-5.43,3.54c-3,1.53-4.71-1.61-3-3.7C143.52,105,144.9,104.59,146.59,103.72ZM53.16,104a.9.9,0,0,1,0,1.8.9.9,0,1,1,0-1.8Zm95.27.84.64.43-2,1.16c-2.14,1.22-2.23,1.24-2.35,1s0-.56.7-1A27.91,27.91,0,0,1,148.43,104.8Zm-55.61.06A4.21,4.21,0,0,1,96.61,107a8.59,8.59,0,0,1,.46,3.33l0,7.9h-8.3a75.47,75.47,0,0,1,0-9.86A4.14,4.14,0,0,1,92.82,104.86ZM67.07,106c.53,0,.91.48,1.41,1.59s.13,1.73-1.43,2.4a1.36,1.36,0,0,1-.5.14,1.77,1.77,0,0,1-1.09-3.06C66.16,106.42,66.66,106.06,67.07,106Zm84.27.81.72.44s-.37.34-3.05,2.28c-2.16,1.57-2.47,2-2,2.88.36.72,1.16.62,2.25-.21,1.51-1.16,3.94-3.13,3.94-3.13v1.34c-1.57,1.26-3.43,3.3-4.94,4.12-2.91,1.43-5-2.39-2.33-4.33A62.31,62.31,0,0,1,151.34,106.84Zm-58.21,0c-2.16,0-3,3.19-.64,3.87.67.36.62.54.17,2.14a7.08,7.08,0,0,0-.21,2.91c.17,1,.39.95.3-.09a8.63,8.63,0,0,1,1.17-3c2.16-3,1.6-5.77-.79-5.8Zm-50.49,0a1.61,1.61,0,0,1,1,2.85c-.88.61-2.72-.13-2.71-1.09a1.81,1.81,0,0,1,1.43-1.73,1.43,1.43,0,0,1,.29,0Zm4.11.17c.45,0,.71.65.71,2a5.73,5.73,0,0,1-1.82,4.45c-1.66,1.37-2-2.38-.48-4.86.65-1,1.2-1.54,1.59-1.54Zm8.94.57a2.53,2.53,0,1,1-2.54,2.53A2.54,2.54,0,0,1,55.69,107.62Zm96.78.09a3.08,3.08,0,0,1,.47.35c-1.75,1.34-2.48,2-4.25,3.35-.64.43-1.19.32-.87-.17A51.16,51.16,0,0,1,152.47,107.71Zm-96.78.83a1.61,1.61,0,1,0,1.61,1.61A1.61,1.61,0,0,0,55.69,108.54Zm-30.33,0c17.15,8.64,27.85,24.81,30.49,43.24l8.33-13.18,2.25.85L54.29,159.22l-.53-.16c0-19.27-9.69-37.5-28.44-47.51Zm30.33.66a.9.9,0,1,1-.9.9A.9.9,0,0,1,55.69,109.25Zm-7.08.1a30.82,30.82,0,0,0,3.08,5.37c-1.43-1.34-3-1.28-4.55-1.48Zm20.4.36a.85.85,0,0,1,.74.39c.7,1,.83,1.85.34,2.33a1.38,1.38,0,0,1-2.21-.54A1.56,1.56,0,0,1,69,109.71Zm84.17,1.42v1.49c-1,1.08-2.35,1.9-3,3.23-.53,1.09.82,1.68,2,.81l1-.75v1.84c-1,.82-2,1.63-3.31,1.37a2.25,2.25,0,0,1-1.59-1.62c-.56-2.32,1.69-3.53,3.44-5.08l1.46-1.29Zm-93.92,1.22h.13a2.47,2.47,0,1,1-.13,0Zm45.78.51c.81,0,2.18,1.29,2.4,1.53.8.84,1.4,3.3.93,3.77-1,1.07-4.07-2.5-3.89-4.83A.52.52,0,0,1,105,112.86Zm5.16.06a1.67,1.67,0,0,1,1,2.9,1.84,1.84,0,0,1-2,.32C107.67,115.07,108.81,113,110.2,112.92Zm-39.83.13a.58.58,0,0,1,.56.83c-.13.29-.58.31-.94.16C69.37,113.79,69.66,113.05,70.37,113.05Zm-11,.22A1.61,1.61,0,1,0,61,114.88,1.61,1.61,0,0,0,59.39,113.27Zm-12.07.7c3.06,0,6.28,2.41,3.48,2.88a5.26,5.26,0,0,1-5.06-1.53c-.82-.75-.53-1.15,1-1.31A4.08,4.08,0,0,1,47.32,114Zm12.07,0a.91.91,0,1,1,0,1.81.91.91,0,0,1,0-1.81Zm4.24,2.29h.13a2.48,2.48,0,1,1-.13,0Zm49.84.13a2.53,2.53,0,0,1,1.73.46c.45.41-.23,1.19-1.6,1.86-1.61.78-4.41.67-4.41-.17C109.2,117.42,111.62,116.42,113.47,116.39Zm-61.06.66c1.41,0,1.79,4.36.57,6.44-.64,1.08-1.49.36-2.1-1.78C50.38,120,51.34,117.05,52.41,117.05Zm11.35.13a1.61,1.61,0,1,0,1.61,1.61A1.61,1.61,0,0,0,63.76,117.18Zm52.45.3a1,1,0,0,1,.58.14c1.53.75,2.65,4.26,1.85,5.82s-2.74-1.52-2.72-4.55C115.93,117.9,116,117.5,116.21,117.48Zm-67.69.21c1.39,0,2.4,1.94,1.09,2.92a1.88,1.88,0,0,1-2,.16,1.69,1.69,0,0,1,.1-2.89A1.5,1.5,0,0,1,48.52,117.69Zm15.24.2a.9.9,0,1,1-.9.9A.9.9,0,0,1,63.76,117.89Zm-9.48.3a32.83,32.83,0,0,0,4.27,4.35,9.41,9.41,0,0,0-4.16-.06A10.67,10.67,0,0,0,54.28,118.19Zm49.45.25c20.86,4.87,33.59,26.93,28.56,47.62a9,9,0,0,1-2-1.45,43.77,43.77,0,0,0,.26-15,36.91,36.91,0,0,0-26.67-28.73A12.54,12.54,0,0,1,103.73,118.44Zm11.24.15c.24,1.42.46,2.85.81,4.12A26.1,26.1,0,0,0,111,120,11.87,11.87,0,0,0,115,118.59Zm6,.46a1.56,1.56,0,0,1,1.65,1.59,2.2,2.2,0,0,1-.86,1.44,1.59,1.59,0,0,1-2.2-2.07A1.53,1.53,0,0,1,121,119.05Zm-52.41.55a2.53,2.53,0,1,1-2.53,2.52A2.53,2.53,0,0,1,68.58,119.6Zm0,.91a1.61,1.61,0,1,0,1.62,1.61A1.61,1.61,0,0,0,68.58,120.51Zm-43.16.24c10.37,6.1,19.67,19.06,20.36,33.73l-2.51-1.64c-1.09-9.87-6.16-20.62-17.93-29.43C25.34,123.41,25.37,122.47,25.42,120.75Zm57.39,0h13.4v2.88l4-2.06v6.36l-4-2.42v2.78H82.81v-2.92l-4.1,2,.05-6.33,4,2.27Zm-14.23.47a.9.9,0,1,1-.9.9A.9.9,0,0,1,68.58,121.22Zm5.27.5h.05l.16.92H74a1.61,1.61,0,1,0,0,3.21,1.74,1.74,0,0,0,.61-.11l.16.92a2.76,2.76,0,0,1-.77.11,2.53,2.53,0,0,1-.13-5Zm30.39.32a2.53,2.53,0,0,1,.58,5l-.16-.91a1.61,1.61,0,0,0-.42-3.16h-.11l-.15-.9a2.46,2.46,0,0,1,.26,0Zm17.66.86c3.13,0,4.42,1.8,1.86,2.56a6.39,6.39,0,0,1-4.28-.51C118.2,124.39,120,122.89,121.9,122.9Zm-65.39.17a4.84,4.84,0,0,1,2,.37c1.31.61,1.28,1-.12,1.84-2,1.12-6.54,0-5.15-1.28A5.24,5.24,0,0,1,56.51,123.07Zm17.47.27a.76.76,0,0,1,.21,0l.28,1.64a1,1,0,0,1-.49.14.91.91,0,0,1,0-1.81Zm30.27.33a.89.89,0,0,1,.29,1.74Zm5.52.64a2.53,2.53,0,1,1-2.54,2.52A2.52,2.52,0,0,1,109.77,124.31ZM60.39,125a.74.74,0,0,1,.5.21A5.88,5.88,0,0,1,62.57,131c-.57,1.86-2.94-1.45-2.92-4.08C59.65,125.67,59.94,125,60.39,125Zm65.67.22c.21,0,.43.16.65.52,1,1.57.9,4.81-.07,5.81-.56.57-.77.47-1.34-.7C124.31,128.81,125.05,125.16,126.06,125.17Zm-16.29.06a1.61,1.61,0,1,0,1.61,1.6A1.62,1.62,0,0,0,109.77,125.23Zm-47.37.43a50,50,0,0,0,5.92,3.22,6,6,0,0,0-4.77,1.05,5.81,5.81,0,0,0-1.15-4.27Zm47.37.27a.91.91,0,0,1,0,1.81.91.91,0,1,1,0-1.81ZM120,126a13.17,13.17,0,0,0,4.5.12,14,14,0,0,0-.28,4.28A26.93,26.93,0,0,0,120,126Zm-62.55.6a3.18,3.18,0,0,1,1,.19,1.51,1.51,0,0,1,.07,2.74c-1.44.93-3.31-.71-2.41-2.11a1.76,1.76,0,0,1,1.38-.82Zm57.46,1a2.53,2.53,0,1,1-2.54,2.53A2.53,2.53,0,0,1,114.86,127.61Zm14.83.43a1.54,1.54,0,0,1,.76.18,1.51,1.51,0,1,1-2,2.06A1.5,1.5,0,0,1,129.69,128Zm-24.46.37c12.48,4.23,20.84,18.07,18.83,31.4l-1.56-1.47c1.19-7.55-3-22-16.88-27.9Zm9.63.12a1.61,1.61,0,1,0,1.61,1.61A1.62,1.62,0,0,0,114.86,128.53Zm0,.7a.91.91,0,1,1-.91.91A.9.9,0,0,1,114.86,129.23Zm-47.47.16c.63.06,1.71,0,2,.54.29.76-1.27,2.07-3.25,2.33-.8,0-2.52.25-2.89-.33S65.2,129.42,67.39,129.39Zm-39.63.45c1.68-.08,3.59,2.17,1.88,4a35.61,35.61,0,0,1-4.17,3.33V136s2.66-2.33,2.79-3.21c.28-2-1.76-.82-2.88.08l.18-2.11a3.24,3.24,0,0,1,2.2-.87Zm43.11.52c1.25,0,4.15,4.51,3.41,5.42-.58.73-3.1-.8-3.83-2.6C70.08,132.24,69.91,130.5,70.87,130.36Zm19.29.55s.13,10.37-.45,11.35c-2.35,4.23-7.41,2-7.84-1.15-.31-1.91-.13-10.19-.13-10.19Zm.74,0H99s0,14.59-.36,15.43a5.51,5.51,0,0,1-2.18,2.18c-2.37,1-4.91-.43-5.54-3.2-.46-2,0-14.41,0-14.41Zm8.77,0H105s.18.77.4,1.4c.37,1.11,1.63,4.3,1.78,4.49.66.87.69,10.41,0,11.5-2.37,3.54-6.31,2.51-7.75-1.41-.36-1.25.16-16,.16-16Zm6.26.36c9.63,4.55,17,14.22,16.08,26.62l-1.77-1.76c.64-8.56-5.9-19.26-13.53-22.44Zm13.26.29a2.53,2.53,0,1,1-2.54,2.52A2.53,2.53,0,0,1,119.19,131.56Zm9.5.25a5,5,0,0,1,2.95,1.05c1,.84,1.17,1.51.38,1.76a4.76,4.76,0,0,1-4.56-1.13C126.38,132.43,127.31,131.79,128.69,131.81Zm-9.5.66a1.61,1.61,0,1,0,1.61,1.61A1.61,1.61,0,0,0,119.19,132.47Zm-50.74.21a1.66,1.66,0,0,1,.94,2.86,2.19,2.19,0,0,1-2.09.15,1.67,1.67,0,0,1,1.15-3Zm17.86.48a22.43,22.43,0,0,1-1.76,3.71c-1.6,2.65-1.39,4.43.29,5.33a2,2,0,1,0,1.84-3.61c-.86-.49-.86-.49-.55-1.81C86.51,135.14,86.58,133.19,86.31,133.16Zm32.88,0a.9.9,0,1,1-.9.9A.9.9,0,0,1,119.19,133.18ZM95,133.7c-.11,0,0,.65,0,1.82,0,1.89-.17,2.46-1.38,5-1.55,3.23-1.34,5.44.58,6.15a2.22,2.22,0,0,0,2.94-2.31,1.58,1.58,0,0,0-.93-1.64c-.51,0-1.08-.27-1-.51.31-1.93,2-5.57-.13-8.51Zm32,.26a8.59,8.59,0,0,0,4.4,1.62,13.87,13.87,0,0,0-.85,4.8A29.75,29.75,0,0,0,127,134Zm-95.21.31a2.43,2.43,0,0,1,1.89,2.86c-.28,1-.37,1.16-4.22,3.72a20.48,20.48,0,0,1-2.36,1.48l-1.15-.77,2.5-1.67c3-2,3.39-2.45,3.09-3.33s-1.43-.76-3.18.58c-2.59,2-2.86,2.11-2.86,2.11v-1.18c2-1.39,4.37-3.84,6.29-3.8Zm76.15.53c.41,0,.59.24.49.5a.46.46,0,0,1-.44.2.35.35,0,0,1,0-.7Zm-4.75.3c.24,2.69.32,4.93-.94,7.12-1.64,2.83-1.22,5.26.54,5.8a2.19,2.19,0,0,0,3-2.41,2.48,2.48,0,0,0-1.25-1.48c-.54-.14-.6-.47-.3-1.54a9.9,9.9,0,0,0-.5-6.58C103.62,135.73,103.29,135.09,103.16,135.1Zm30,.07c.3-.06.59.21.83,1,.54,1.87-.63,5-1.35,5.38-.77.76-1.25,0-1.42-1.92C131.19,138.42,132.22,135.33,133.13,135.17Zm-24.07.83a1.69,1.69,0,0,1,1.06,2.93c-.61.56-1,.31-1.65-1.07S108.06,136,109.06,136Zm13.75.39a2.53,2.53,0,1,1-2.54,2.53A2.54,2.54,0,0,1,122.81,136.39Zm0,.92a1.61,1.61,0,1,0,1.61,1.61A1.61,1.61,0,0,0,122.81,137.31Zm0,.7a.91.91,0,1,1-.9.91A.9.9,0,0,1,122.81,138Zm-10.88.67a1.1,1.1,0,0,1,.59.12c1.34.64,1.19,2.48-.28,3.58-.94.7-1.33.46-2.2-1.34C109.57,140.06,110.81,138.73,111.93,138.68Zm-77.64.26a2.27,2.27,0,0,1,.58,0c1.42.15,2.25,2,1.91,3.19-.76,1.88-3.34,2.51-5.29,3.3l-1-.74s1.43-.81,2.82-1.45,1.51-.84,1.41-1.59c-.19-1.47-.9-1.42-4.13.32-1.32.71-2.29,1.33-2.29,1.33l-.71-.59c1.07-.7,1.71-1.09,2.88-1.88,1.48-.77,2.51-1.78,3.83-1.9Zm101.81.24a1.38,1.38,0,0,1,1.27.8c.47,1.42-.49,2.68-1.94,2.12a1.62,1.62,0,0,1-.85-2.24,1.66,1.66,0,0,1,1.52-.68Zm-27.77.3,2.28,4.08s0,1.14,0,1.77c.09,2.65.66,3.53,2.22,3.27.11,0,.66-.18.66-.18l1,1.66s-1.07.47-1.34.53c-1.84.38-4.38-1-4.77-2.82s-.09-8.31-.09-8.31Zm-74.45,1.67c.39,0,.14.61-.14.76-1.33.68-2.6,1.41-4,2.22l-.93-.58a23.86,23.86,0,0,1,4.86-2.39A.51.51,0,0,1,33.88,141.15Zm91.39.53a2.53,2.53,0,1,1-2.54,2.53A2.53,2.53,0,0,1,125.27,141.68Zm-10.73.35a1.47,1.47,0,0,1,1.38.76c.68,1.12,0,2.49-1.68,3.22-.92.4-1.07.32-2-1.13-.66-1-.66-1.15.08-1.77a3.9,3.9,0,0,1,2.27-1.08Zm-89,.22L61.84,165.7l-1,1.75-35.22-23Zm107.93.3c2.21,0,5.09,2.59,4.07,3.6a.69.69,0,0,1-.47.18C133.9,146.14,130.42,142.5,133.45,142.55Zm-8.18,0a1.61,1.61,0,1,0,1.61,1.61A1.62,1.62,0,0,0,125.27,142.6Zm-48.52.45,1,2.49L59.64,174.23l-1.78-1.14Zm48.52.26a.9.9,0,1,1-.91.9A.9.9,0,0,1,125.27,143.31Zm6.64.3a7.73,7.73,0,0,0,4,3.35,5.87,5.87,0,0,0-2.32,4.76,43.71,43.71,0,0,0-1.71-8.11Zm-95.57.86a2,2,0,0,1,1,.27c3.39,2.32.27,4.61,0,4.43l-1.16-.73c.4-.65,1.3-1.54-.15-2.37a2.72,2.72,0,0,0-2.54.62l-1.21-.82a10.31,10.31,0,0,1,4-1.4Zm79.89,1.31a2.34,2.34,0,0,1,.38,0c1.91.37,1.78,2.39-.22,3.33-1.14.53-1.34.42-2.33-1.28-.47-.8.94-2,2.17-2.08Zm-80.51.74a.59.59,0,0,1,.5.35c.1.53-.89,1.07-.89,1.07l-1.13-.75a4,4,0,0,1,1.52-.67Zm101.89.49a.5.5,0,0,1,.56.44c.39,1.57-1.37,4.48-3,5-.95.27-1.22-.17-.91-1.47C134.71,149.11,136.62,147.09,137.61,147Zm-58.6.12L82,149.26l-17.8,27.8-2.91-1.81Zm48,.22a2.53,2.53,0,1,1-2.53,2.53A2.54,2.54,0,0,1,127,147.35Zm0,.92a1.61,1.61,0,1,0,1.62,1.61A1.61,1.61,0,0,0,127,148.27Zm0,.71a.9.9,0,1,1-.9.9A.9.9,0,0,1,127,149Zm-40.55.09c1.91,2.15,4.07,7,11.58,4.7a8.89,8.89,0,0,0,10.45.95l0,13-33.36,0Zm-60.92.33L58.42,171l-1,1.81L25.53,152.47Zm92.3,0c1.68.41,1.87,2.08.31,2.72-.84.34-1,.26-1.81-.91a2,2,0,0,1-.45-1A5.42,5.42,0,0,1,117.87,149.43Zm21,1.76a1.56,1.56,0,0,1,1.44.92,1.59,1.59,0,0,1-.67,2.2,1.64,1.64,0,0,1-2.25-2.21,1.62,1.62,0,0,1,1.48-.91ZM118.3,153c.77,0,1.42.74,1,1.19s-.57.21-1-.26-.51-.93-.06-.93Zm9.41.32a2.53,2.53,0,1,1-2.53,2.53A2.54,2.54,0,0,1,127.71,153.27Zm7.15.14c1.91,0,4.56,3.2,4.11,4.94-.15.57-1.22.26-2.49-.71-1.73-1.32-2.84-4.24-1.62-4.23Zm-7.15.78a1.61,1.61,0,1,0,1.62,1.61A1.61,1.61,0,0,0,127.71,154.19Zm6.15.32a6.1,6.1,0,0,0,3.45,4.26c-3.7,1.72-4.4,4.61-3.85,8.32l-.86-.53A44.92,44.92,0,0,0,133.86,154.51Zm-6.15.39a.9.9,0,1,1-.9.9A.9.9,0,0,1,127.71,154.9Zm-.47,4a2.53,2.53,0,0,1,1.4,4.64l-.82-.61a1.61,1.61,0,1,0-2.18-1.63l-.82-.61a2.53,2.53,0,0,1,2.42-1.79Zm11.54.33c1.21,0-.67,3.34-2.39,4.25-1.31.69-2.51.74-2.51.11C133.89,162,136.94,159.27,138.78,159.28Zm-11.54,1.3a.9.9,0,1,1,0,1.8,1,1,0,0,1-.9-.9A.9.9,0,0,1,127.24,160.58Zm11.15,3a1.48,1.48,0,0,1,1,2.57,1.55,1.55,0,0,1-2.49-1.85A1.58,1.58,0,0,1,138.39,163.62ZM133.73,165c2,.07,3.62,2.82,3.25,4.24a28.52,28.52,0,0,1-2.85-1.72A7.32,7.32,0,0,1,133.73,165ZM131,166.53a67.85,67.85,0,0,0,6.37,3.82L131,174.41Zm-56.69,1.89,34.2.12V170l-35.13,0Zm-1.4,2.24h2.3v2.79H72v-1.54Zm32.87.07h2.76v2.79h-2.76Zm-27.15,0h3.15v2.79H78.59Zm6.55,0h3.4v2.79h-3.4Zm7,0h3.27v2.79H92.1Zm7,0h3.12v2.79H99.09Zm-25.51.75a.58.58,0,1,0,0,1.15h0a.57.57,0,0,0,.57-.57h0A.57.57,0,0,0,73.58,171.57Zm6.56,0a.58.58,0,0,0,0,1.15h0a.58.58,0,0,0,.58-.57h0A.58.58,0,0,0,80.14,171.57Zm6.72,0a.58.58,0,0,0,0,1.15h0a.58.58,0,0,0,.57-.57h0A.58.58,0,0,0,86.86,171.57Zm6.9,0a.58.58,0,0,0,0,1.15h0a.58.58,0,0,0,.58-.57h0A.58.58,0,0,0,93.76,171.57Zm6.89,0a.57.57,0,0,0-.57.58h0a.56.56,0,0,0,.57.57h0a.58.58,0,0,0,.58-.57h0A.58.58,0,0,0,100.65,171.57Zm6.6,0a.58.58,0,0,0,0,1.15h0a.57.57,0,0,0,.58-.57h0a.58.58,0,0,0-.58-.58Zm-36.64,2.69,37.93.09V176l-39-.09ZM103,177.78c3.86,0,6.11,4.26,3.09,7.27-2.77,2.77-7.4-.77-5.09-3.89,1.29-1.74,4.46-.33,3.67,1.52a1.15,1.15,0,0,1-2.18-.67c0-.53-.39-.17-.44.4a1.57,1.57,0,0,0,1.54,1.51c2.24,0,2.58-3,.42-4-1.93-1-4,.26-4.43,2.72A8.55,8.55,0,0,1,99,184a13.44,13.44,0,0,0-1.3,3.88,4,4,0,0,1-1,.7c-1.1.55-1,.32-.64-1.47,1.55-4.25,2.2-8.92,7-9.35Zm11.42.27a4.69,4.69,0,0,1,4.49,3.42c1.37,4.6-4.76,7.42-6.89,3.25-1.2-2.38,1.27-5.23,3.54-4.12,1.85.91,1.73,3.73-.16,3.72-1,.05-1.66-.87-1.09-1.61.3-.29.65-.07.8-.55.06-.21-.23-.37-.93-.23-1.17.24-1,2.57.3,3,2,.69,3.73-1.42,2.77-3.51-1.15-2.51-4.26-2.52-5.69.1a12,12,0,0,1-.7,1.17c-2.13,2.88-2.29,3.3-2.93,4.9a.34.34,0,0,1-.36.26,4.52,4.52,0,0,0-1.55.28c-.27-.07.08-1.08.11-1.15,1.45-4.45,5.16-8.86,8.29-9Zm-19.07.8c.44,0,.8.16.59.45a32.05,32.05,0,0,0-3.07,7.91,11.09,11.09,0,0,0-1.55-.67c-.21-.07,0-.3,0-.66a19.2,19.2,0,0,1,3-6.88,2.32,2.32,0,0,1,1.12-.15Zm2.51,0c1.45,0,.81.52.24,1.25-1.29,1.65-2.64,6-2.93,8.29a5.93,5.93,0,0,1-.14.83c-.2.68-1.47-.77-1.46-1.67,0-1.52,1.7-6.17,2.92-8C96.89,179,96.94,178.92,97.84,178.89Zm-63.29.29a2.8,2.8,0,0,0-.88.14c-3,1-5,3.6-4.39,6.68.62,2.83,2.27,4.74,4.29,7.54a51.17,51.17,0,0,1-4.28,5.73l4.12,5.95c-1.14,2.24-3.12,3.94-3.62,6.71-.78,3.64,1.14,7.2,5.21,7.52,3,.09,5-1.95,5.41-5.06S38.27,208,36.21,205c1.45-1.87,2.92-3.79,4.41-5.67l-4.2-5.91c2.87-4,4.75-7.17,4-10.18A6.7,6.7,0,0,0,34.55,179.18Zm.1.44a5.22,5.22,0,0,1,3.84,1.68c2.57,2.69,2.34,5-1,9.92-.73,1.09-1.45,2.29-1.45,2.29l4.22,5.81c-1.39,2-3,3.68-4.4,5.74,1.89,2.43,3.85,4.9,4.26,8.08.33,2.93-1.57,6-4.83,6.12a5.56,5.56,0,0,1-5.51-5.91c.15-3.26,2.09-5.46,3.92-8.12l-4.08-5.94,4.32-5.75s-3.14-3.84-4.11-6.61a5.92,5.92,0,0,1,.88-5.21,5,5,0,0,1,3.94-2.1Zm.13,2c-2.24,0-4.46,2-2.8,6.29a11.42,11.42,0,0,0,2.8,4,18.08,18.08,0,0,0,2.92-4.46C39.29,183.73,37,181.69,34.78,181.67Zm.1.57a3,3,0,0,1,2.78,3.35c-.34,2.29-1.54,3.73-2.93,5.63-1.54-1.8-2.64-3.29-2.74-5.66S33.4,182.18,34.88,182.24Zm76.12,1.6c.12.66.76,1.78.71,2-.3.69-.74,1-1.35,2.18-.12.24-.06.29-.4.23a11.53,11.53,0,0,1-1.19-.31c-.17-.05-.37-.14-.29-.36.59-1.34,1.24-2.93,2.52-3.79Zm-11.35.07c.37.06.91,1.49,1.15,2l-.72,1.88c-.07.2-.08.23-.29.18a6,6,0,0,0-1.19,0c-.9-.11.79-3.45,1.05-4Zm1.83,2.38h0a5.79,5.79,0,0,1,1.32.43c.23.09.23.1.13.37s-.46,1.6-.73,2c0,.06-1.28-.75-1.64-.91,0-.23.4-1.84.87-1.91Zm3.92.13c.39.09-.22,2.08-.34,2.33a6.28,6.28,0,0,1-1.39,1.56c-.24.15-1-.27-.93-.77a15.8,15.8,0,0,1,.91-2.62,6.58,6.58,0,0,1,1.75-.5Zm6.86.1a2.6,2.6,0,0,1,1.23.61c.13.26,0,.53-.46,1.33s-.85,1.48-1,1.4a5.77,5.77,0,0,1-1.19-1c-.21-.29.2-1.05.48-1.46.43-.65.64-.89.89-.92Zm-22.66.65a4.17,4.17,0,0,1,4.29,2.4c.47.8.47.83.37,1.57a7,7,0,0,0,.29,4c.53,1.22.45,1.63-.83,4.34s-2.86,6-4,9.11a32,32,0,0,0-1.32,4c-.2.77-1.52.6-2.08.5-.47.11.69-3.09,2.42-6.91,1.38-3.06,3.25-6.5,4-9.92.61-2.79.42-3.94.08-5.11-1.29-3.41-5.78-2.57-5.77.57.09,2,2.45,3.12,3.32,1.13.14-.92-.31-.39-.69.06-.81,1-2.21-.11-2-1.52a2.18,2.18,0,0,1,3.84-1c1.27,1.6,1,3.25-.84,4.49a3,3,0,0,1-4.55-.84c-2-3.22,1.26-6.83,3.5-6.89Zm9.27,1.37c1.88,0,3.91,1.6,4.24,2.84.18.84-.1,1.83.21,2.64.25.65.49,1,.31,1.6-1.54,4.95-5.18,10.22-7,16.07-.21.41-.4.46-.86.59-.72.2-1,.18-1.08-.19,1.25-5.47,4.46-9.62,6.92-16.24,1.39-2.82-.18-5.59-3.06-5.6-2.29,0-3.31,3.55-1.31,4.59s3.41-1.66,1.68-2.6c-.42-.23-.53,0-.2.39.78.93.08,2.17-1,1.68-1.67-.77-.81-3.6,1.14-3.44,3,.25,3.39,4.61.33,5.71-4.22,1.52-6.43-5.24-2.46-7.52a4.08,4.08,0,0,1,2.11-.52Zm8.88.13A4.5,4.5,0,0,1,111,190c2.36,2.26,1.73,5.74-2.25,12.47a44,44,0,0,0-3.27,6.94,1.47,1.47,0,0,1-.71,1c-.69.38-1.47.43-1.57.16-.26-.68,1.71-4.94,5.22-11.62.92-1.78,2.09-3.84,2-6a2.66,2.66,0,0,0-3.51-2.34,1.89,1.89,0,0,0-.85,3,1.67,1.67,0,0,0,1.17.54c.59,0,1.25-.55.12-.61a1.17,1.17,0,0,1-.59-2.18c1.44-1,3.11.17,3,2.06-.24,3.79-5.79,3.22-5.94-.68a3.89,3.89,0,0,1,3.93-4.06Zm-15.69,6.07c.84-.06-.61,4.44-3.13,9.5A87.9,87.9,0,0,0,85.44,213c-.29.39-2,.46-2,.05,3.14-9.5,5.28-11.49,6.32-15.3.19-.65.32-1.58.35-1.67C90.85,195.84,91.51,194.91,92.06,194.74Zm-57.12.66-3.27,4.25,3.19,4.51,3.32-4.31Zm69.32.36c.41,0,1.43.59,1.47,1a21.91,21.91,0,0,1-1.72,4.43c-3.2,6.44-4,8.17-4.55,9.89a.85.85,0,0,1-.46.59c-.4.15-1.51.36-1.6.21C98.07,208.08,103.26,199.51,104.26,195.76Zm4,.56c.22,0,.3.08.24.37a25.59,25.59,0,0,1-1.63,3.47c-2.7,5.28-4.11,8.41-4.56,10-.11.38-.17.67-.35.77-.37.2-1.67.72-1.73.16.4-2.39,2-4,6.06-13.91.2-.32.36-.48.54-.51.5-.09.94-.32,1.43-.37Zm-12.76.54c.56.09,1.62.61,1.69,1.1a17,17,0,0,1-2,4.28,86.79,86.79,0,0,0-4.43,10.52,1.92,1.92,0,0,1-1.73.15c-.22-1.09,1.49-5.12,3.4-9.37C93.52,201.24,94.73,198.93,95.53,196.86Zm4.58.08c.58,0,.13,1-1.25,3.68a76.89,76.89,0,0,0-4.85,11c-.17.52-.33.78-.55.89a2,2,0,0,1-1.6,0c-.28-.34,1.21-4.34,2.66-7.42,1.29-2.59,2.19-4.66,3.3-7.05.31-.48.32-.51.63-.57a9.43,9.43,0,0,0,1.66-.55ZM35,197.45l1.69,2.25-2,2.45-1.64-2.38Zm-.1,1.44-.6.92.6.92.59-.92Zm-.15,8.25a14.51,14.51,0,0,0-1.45,2.12c-2.15,3.56-2.21,6.2.33,7.76a3.09,3.09,0,0,0,3.35-.34c2.87-2.5.73-5.93-1.12-8.26a11,11,0,0,0-1.11-1.28Zm.11.91a15.13,15.13,0,0,1,2.58,3.81c.83,2.14.3,3.82-1.3,4.61-2.53,1.25-4.82-1.56-3.63-4.55A14.89,14.89,0,0,1,34.85,208.05Zm70.7,4.22c.24.45-24,6-41.93,1.25l-10.9,15.71,62.9-.11Zm-.92,1.12,8.72,15h-4l-5.75-12.26A65.23,65.23,0,0,1,94.39,218l2,10.4h-3l-1.71-9.94a127.84,127.84,0,0,1-13.48.34l-2,9.6H73.1l2-9.54c-3.48-.46-6.94-.9-10.48-1.48l-5.92,11H54.27l9.3-13.83C77.45,217.35,90.25,216.7,104.63,213.39Zm-2.19,5.41,4.55,9.61H98.36l-1.59-8.57Zm-37,.7,7.55,1-2,7.94H60.88Zm24.64,1.18,1,7.73h-13l1.45-7.57Z"/></g></g><path id="path153-6-3-1-9-5-1-4" d="M47.88,26.16C40.5,36.68,32.6,42.74,32.47,51c0,2.66,1.39,7.18,5.9,8,2.92.56,6.94-1.8,7-6.61,0-1,1-.93,1,.38A27.31,27.31,0,0,1,43,64.56h9.67a27.44,27.44,0,0,1-3.35-11.8c0-1.31,1-1.33,1-.38.09,4.81,4.11,7.17,7,6.61,4.5-.86,5.94-5.38,5.9-8C63.16,42.74,55.26,36.68,47.88,26.16Z"/><path id="path153-6-3-1-8-6-9-9-4" d="M130.7,223.29c-7.38-10.52-15.27-16.58-15.4-24.79,0-2.66,1.39-7.18,5.89-8.05,2.92-.55,6.95,1.81,7,6.61,0,1,1,.94,1-.37a27.12,27.12,0,0,0-3.35-11.8h9.67a27.12,27.12,0,0,0-3.35,11.8c0,1.31,1,1.33,1,.37.08-4.8,4.11-7.16,7-6.61,4.5.87,5.94,5.39,5.89,8.05C146,206.71,138.09,212.77,130.7,223.29Z"/></g></g></g></svg>