<svg xmlns="http://www.w3.org/2000/svg" viewBox="0 0 178.58 249.45"><defs><style>.cls-1{fill:#fff;}.cls-2{fill:#e2cf00;}.cls-3{fill:#131f67;}.cls-4{fill:#d40000;}</style></defs><g id="Layer_2" data-name="Layer 2"><g id="svg8"><g id="g6503"><path id="rect7399-8-3" class="cls-1" d="M8.54,0H170a8.53,8.53,0,0,1,8.54,8.53V240.92a8.53,8.53,0,0,1-8.54,8.53H8.54A8.53,8.53,0,0,1,0,240.92V8.53A8.53,8.53,0,0,1,8.54,0Z"/><path id="path7431-0-1" d="M13.77,40c-3.44,4.38-7.13,6.91-7.2,10.33a3.33,3.33,0,0,0,2.76,3.35,2.86,2.86,0,0,0,3.28-2.75c0-.4.48-.39.47.16A10.35,10.35,0,0,1,11.51,56H16a10.44,10.44,0,0,1-1.56-4.91c0-.55.47-.56.46-.16a2.86,2.86,0,0,0,3.29,2.75A3.32,3.32,0,0,0,21,50.31C20.91,46.89,17.22,44.36,13.77,40Z"/><path id="path7435-3-6" d="M164.81,209.47c-3.45-4.39-7.14-6.91-7.2-10.33a3.32,3.32,0,0,1,2.76-3.35,2.85,2.85,0,0,1,3.28,2.75c0,.4.47.39.47-.16a10.54,10.54,0,0,0-1.57-4.91h4.52a10.54,10.54,0,0,0-1.57,4.91c0,.55.48.56.47.16a2.85,2.85,0,0,1,3.28-2.75,3.32,3.32,0,0,1,2.76,3.35c-.06,3.42-3.75,5.94-7.2,10.33Z"/><path id="path37-0-2-9" d="M8,28.73H5.75v-3H8s0-1.62.08-4.48c.14-6.1.29-7,2.05-8.72,3.48-3.31,9.32-.61,9.25,4.37-.1,7,0,13.74-.23,14.69-.37,1.68-.41,1.77-.26,2.08.31.61,2.94.88,2.94.7v3a5.48,5.48,0,0,1-4.46-1.19,6.6,6.6,0,0,1-6.5.8C9,36.08,7.58,33.83,8,28.73ZM15.41,34c-1.09-1.57-2.93-3.73-4.66-4.5-.11,1.82.05,3.34.69,4.16a2.52,2.52,0,0,0,4,.34Zm.91-17.37c-.81-2.3-2.89-3.08-4.42-1.64-1,.89-1.1,1.84-1.12,7,0,3.16,0,4.48,0,4.48,3,1,5.74,4.42,5.72,4.38l.07-9.55a26.45,26.45,0,0,0-.23-4.62Z"/><path id="path37-0-5-5-3" d="M170.62,220.71h2.21v3h-2.21s0,1.62-.08,4.48c-.13,6.1-.29,7-2,8.72-3.48,3.31-9.32.61-9.25-4.37.1-7,0-13.74.23-14.69.37-1.68.41-1.77.26-2.08-.31-.61-2.94-.88-2.94-.7v-3a5.48,5.48,0,0,1,4.46,1.19,6.6,6.6,0,0,1,6.5-.8c1.85.87,3.25,3.12,2.87,8.21Zm-7.45-5.25c1.09,1.58,2.93,3.74,4.66,4.51.11-1.82-.05-3.34-.69-4.16A2.53,2.53,0,0,0,163.17,215.46Zm-.91,17.38c.81,2.3,2.9,3.08,4.42,1.64.95-.9,1.1-1.84,1.12-6.95,0-3.16,0-4.48,0-4.48-3-1-5.74-4.42-5.72-4.38l-.07,9.54a26.52,26.52,0,0,0,.23,4.63Z"/><path id="path4075-4-3-9" class="cls-2" d="M81.66,228.94l18.78-34.27a96.61,96.61,0,0,0,9.78,3.14c-5.09,13.29,0,30.81,0,30.81S81.65,228.91,81.66,228.94ZM30.2,170.41c-1.07-14.55.62-26.89,1.29-40.26.05-.18-6.1-4-6.1-4L39.83,118c1.44.75,2.27.62,2.61-.77C41,112.29,40.7,107.49,44,103.38c2.5-3,8.21-1.46,9.87-1.46,1.29,0,4.36-10.24-.84-13.26-1.1-.64-1.62,6-2.37,8.75-3.35-2-9.53-3.6-10.36-7.06-.42-1.91,5.65-5.59,4.46-7.75-1.74-3.14-6.23-7.84-8.15-6.55-1.82,1.64-6.15,5-6.12,7.3,1.35,4.12,4.79,4.41,6.6,8.31A52.87,52.87,0,0,0,40.9,96c-1.25,1.91.77,5.25.86,4.74L26,93.91s3.61,27.21-.2,31.24c-.4.42,3.37-1.07,3.44-.84,1.15,1.46,13.87,9.56,17.51,12.47,6.47-9,8.83-13,17.16-21,1.83-1.52,5.91-4.28,8.24-7.61a11.77,11.77,0,0,0,2.32-8c-.44-3-.71-5.08-2.57-7.49-4.3-5.56-11.13-10.86-11-11l2.34-1.91s8.43,7,12,12.12a16.53,16.53,0,0,1,2.42,8.22,54.44,54.44,0,0,1,6,0c.13,0,20.73,18.75,20.73,18.75l-38.89.15c-7.26,6.85-11.15,12.69-18.06,22.54-.42-.18-12.6-9.83-12.09-8.75,0,0,2.92,26.43,1.62,36.1-.89,8.21-2.12,17-2.66,24.61,1.73-.38,4.28-.87,4.76,1.77.42,3.61-4.21,2.77-4.32,2.46,0,0,2.59,5.56,2.59,5.56s-4,6.94-3.91,6.64-3.65-6.16-3.65-6.16,2.76-5,3.18-6c.28-.69-4.23,1.83-4.41-1.83s4.71-2.87,4.46-2.39c-.61-8-2-16.37-2.81-23.16Zm60.39,18.11c.11-.08-10.66-4.32-20.55-3.92-3.49-1.36-9.17-2.78-13-.25a138.61,138.61,0,0,1-11.69-9.24c1,0,5.56-25.93,7.54-34.11-1.14-10.94,9.38-10.94,10.3-2.17,11.34,11.74,25.23,23.89,39.54,35.84-2.27,4.73-10.49,8.34-12.17,13.85Zm24.8-77.41c-12.93-13.21-40-36.81-40-36.81L88.06,61.92c6.65,2,13.48,3.64,21.21,3.72,0,0,8.47,3.85,13,0l11.69,9.28s-4.85,25.55-7.69,34.46c.06,3.53-1.28,7.83-4.76,8.47-3,.55-5.26-3.67-6.08-6.73Zm26.13-30.59c1.35-8.3,1.63-14.35,2.57-24-5.84,1.71-5.76-6.17,0-4.1l-2.65-5.86,3.93-6.6L149,46.2l-3.11,5.56c6.75-.07,5,6.59-.66,4.87,1,9.28,3.36,18.66,3.25,27.84,2,14.71-2.46,35.19-1.73,35.67l6.31,4.34-1.08,32-10-4.37-3,2c.95,1.89,2.16,3.69,2.57,5.74,0,0,6.85,5.65,5.9,7.4.44.26-4.88,7.31-6.44,7.14-3-.34-6.43-4.2-7.42-6.93-.84-2.76,6.15-5.46,5.27-7.48-1.05-2.41-3.72-3.57-6.08-4.28a10.35,10.35,0,0,1-4.89-3.56s-1.27,10.23-2.49,9.41c-4.9-3.29-1.55-13.73-.64-13.44a40.67,40.67,0,0,0,4.67.73c8.91.94,8.31-10,6.58-15.34-.62-2.07,2-1.41,3.15-1.72,4.32-1.28,11-5.75,11-5.75a154.85,154.85,0,0,1-18.62-12.46,85.71,85.71,0,0,1-11.18,14.81c-4.42,4.42-5.14,5.92-12.53,11.61-.14.11-5.6,6.64-3,14.27,2.22,6.53,12.91,13.59,12.83,14.06l-2.1,2c.08.11-15.13-9.45-14.78-19.74,0-.39-6.91-.53-6.91-.53l-20-18.6,17-.07,8.72,7.13,5.45.28c.36.31.56-1.44,5.35-5,9.17-6.85,20.53-24.43,20.53-24.43l12,8.46c-.6-12.71-2.65-26.37-1.41-37.32Zm-43.73-60S85.31,44,78.46,55l-9.69-2.78c4.06-10.8.17-31.37-.85-31.89Z"/><path id="path4073-4-2-4" class="cls-3" d="M23.69,19.12v211.2h131.2V19.12Zm44.19,1.23c14.89.61,29.8.47,44.7.47.09,1.21-1.74,4.22-3.2,4.28l-.69,1.24c2.74-.94,4-2.74,4.83-5.52h1.06s-.2.47-.57,1.62c-1.15,2.77-3.43,5.35-6.09,5.28l-.54,1c3.71-.12,6.57-3.6,7.42-6.22a9.24,9.24,0,0,0,.46-1.64h1.24s-.28,1.14-.45,1.68c-1.82,5.83-6.7,7.53-9.36,7.41l-.41.73c5.47.27,9.81-4.45,10.43-8.52.12-.46.41-1.3.41-1.3h1.13s-.29,1.22-.38,1.66c-1.46,6.25-7.93,9.89-12.17,9.19-.18.29-.38.68-.52.95,8.51-.32,11.15-4.72,13.09-8.6,2.31,3.49,4.32,7.26,9.87,9.37v1.34a4.36,4.36,0,0,1-1.09,0c-6.76-1.1-9,5.23-6.12,14.69.79,2.59.43,2.19-1.25,3.81a4.54,4.54,0,0,0-1,2.27,5.82,5.82,0,0,1,1.12-1.29c.31-.25.94-.49,1.4-.81,1.25-.73,1.24-1.23.79-2.94a56.49,56.49,0,0,1-1.24-6.27,7,7,0,0,0,2.57,1.31,7.85,7.85,0,0,0-1-.94,6.3,6.3,0,0,1-1.66-1.83l.89.27a7.35,7.35,0,0,0,6.59-.7c.25,6.24-.6,15.7-5.82,22.47-4,4.5-11.66,1.09-14.49-.33-1.15-.57-9.65-5.75-12.21-14.9l-.42.8c1,2.31,2.17,5.48,2.17,5.48-.06-.32.37,2.51,1.28,7.31a6.16,6.16,0,0,1-1.54-.27C96,58.6,95.7,55.23,94.79,51.12l-.51.88c0,.14,1.24,7.66,2.08,10.65-.49,0-1.37-.25-1.37-.25-.68-3.15-1.22-5.33-1.85-8.43l-.54,1a55.49,55.49,0,0,1,1.53,7.2,5.15,5.15,0,0,1-1.78-.46s-.8-4.16-1-4.61l-.48.82a16.53,16.53,0,0,1,.68,3.51,16.69,16.69,0,0,1-2.27-.62c-.22.38-.73,1.18-.73,1.18h0s14.78,4.67,19.5,3.32c0,.13,9,4,14.09.71,0,0,8.77,6.52,12.2,9.12a7.93,7.93,0,0,0,2.45,2.65c3.14,2,4.93,4.56,4.76,3.47.17-1.65,1.63-14.9,1.91-17.27,1-8,1-7.89-.17-7.52-5.24,1.29-4.37-5.75.5-4.47l-2.47-5.44s2.74-4.9,4.06-6.72L149,46.24l-2.9,5.68c5.66-.42,5.1,6.71-.44,4.32,0,0,0,2.12,0,2,0-.6,0-1.12.24-1.23,5.4,1.91,6.76-5.72.84-5.54,1-1.67,1.85-3.29,2.84-5.12l-4.19-7.64-4.72,7.87L143,51.46a4.2,4.2,0,0,0-1.54,0c-3.5.72-2.75,6.37,1.25,5.59a6,6,0,0,0,1.15-.43l-2.59,23.06s-.25.21-1.29-.54c-1.19-.87-3.7-2.74-3.86-2.94a93.94,93.94,0,0,0-7-40c-.27-.74-.11-15.37-.11-15.37h24.06v68c-1.25-.79-2.73-1.83-4-2.74a1.11,1.11,0,0,1-.46-1.27c-.42.9-.17,1.29-.17,1.29l5.27,4.21-.21,66.86c-9.37-4.18-8.65-5-16.2-7.19,0,0,1.67,3.74,1.2,4.42,1.12,1.08,3,3.35,3.1,5.57a6.94,6.94,0,0,1,2,2.24l3.16-1.14-.72,3.29c3.36,2.36.12,5.52-.5,5.23a36.69,36.69,0,0,1,1.82,4.63,32.32,32.32,0,0,1-3.93-1.82c-1.92,3.8-5.18.61-5.2.05l-3.61,1.61,1.27-4.11c-2.32-1.42-3.89-3.56-.13-5.86l-.87-3.22,3.09,1.22s.58-.93,1-1.6c-1.16-5.05-8.76-4.09-11.2-8.63a66.73,66.73,0,0,1-1.22,7.71c-.24,5.42-4-.06-4-5.79,0-1.29,1.62-5.64,2.17-5.85s6,2.54,9.64-.07c1.66-1.72,4.52-6.59,1.77-14.2-.91-1.76,1.73-2,2.59-1.39,0,0,7.92-4.15,11.5-6.15-6-3.31-18.49-12.1-18.48-12.52-1.66,2.65-3.57,4.87-6.25,8.62-4.35,5.13-7.75,10-13.26,14.1-7.76,5.66-9.59,11.35-7.42,18,1.64,5.13,7.18,8.52,12.89,13.92-9.85,9-16.61,16.38-21.36,24.55,4,2.11,13.67,5.16,13.67,5.16-3.59,11.94-2,21.43.41,30.95,0,0-28,0-42.58-.42a4.45,4.45,0,0,1-1.72-.06c-.06-1.06,2.62-4,3.42-3.58.4-.4,1.25-.6,1.1-1.09-2-.24-5.05,3.23-5.17,4.67h-1.2c-.25-.21,2.17-5.87,7-6.32,0,.2.65-.44.12-.71-5.65.67-8.28,6.94-8.11,7h-.87a11.53,11.53,0,0,1,9.81-8.39s.94-.33.7-.87c-6.4,1.11-9.59,3.88-11.13,9.26H60.7c.83-5.45,6.43-10.23,12.76-10.07.2-.13.44-.28.34-.9-7,.8-10.53,3.14-13.41,9.19-2.58-6.71-9.76-9.9-9.84-9.93s-.17-1.88.23-1.8c6.11,2.22,8.45-3.1,8.19-6.19a26.26,26.26,0,0,0-.61-5.15A22.15,22.15,0,0,1,57.5,199c0-1,.34-1.15,1-1.46,1.31-.6,2.13-2.76,1.84-3-.67,1.57-2.45,1.84-3.27,2.89-.66.87-.37,2.25.8,7,.71,2.93-.14,1.58-1.79.67L55,204.49c.74.76,1.53,1.49,2.28,2.24s.3,1-.67.64a5.8,5.8,0,0,0-5.13.47c-.4.29-.55.26-.65,0-.45-7.46.33-12,2.8-17.64,1.59-3.81,4-6.66,7.13-6.87s7.77.86,11.93,3.69c4.89,3.33,9.66,8.39,10.16,14.59,0,.08.38-.53.54-.84.23-.74-.59-3-1.86-5.53-.24-1.93-.9-5.32-1.42-7.61a1.6,1.6,0,0,1,1.47.21c.9,3.79,1.54,6.74,2.31,11.82,0,.49.64-.74.64-1.06-.11-.76-2.22-10.7-2.18-10.47,0-.34,2,.11,1.73.42,0,0,1.52,8.33,1.62,8.08l.52-.71s-1.45-6.09-1.27-7.26c.13-.18,1.25.18,1.6.38.45.59.73,2.77.92,4.25.52.39.62-.75.58-1-.37-.59-.77-2.79-.47-2.9a4.15,4.15,0,0,1,1.76.64c.29.26,1.41-1.29,1.12-1.56A61.66,61.66,0,0,0,71,184.65a9.58,9.58,0,0,1-3.91-.93c-5.22-1.88-9.53,0-10.17.59-6.37-4.43-13.48-10.62-19.14-14.58a3,3,0,0,0-1-.28c-.9,6.88-1.52,14.84-2.29,21.19-.31,2.51-.34,2.91-.22,3,1.85-1,4.25-.38,4.72,1.19.69,2.35-1.58,4-3.8,2.83-.82-.43-.94-.34-.56.46.65,1.45,2.52,5.26,2.52,5.26s-2.48,5.28-3.76,6.69c-1.24-2-2.89-4.17-3.58-6.37,1-1.93,2.83-4.4,3.42-6.3-2.22,1-4.71.7-4.66-2.21.09-2.12,1.93-2.57,4.59-1.58-2.75-18.15-3.54-28.91-2.86-29a55,55,0,0,1-5.11-4.1l.2-139.62H66.74C71,32.27,69.82,46,67.28,53.12A41.49,41.49,0,0,1,81.49,58C72.8,70.73,59.15,84.52,44.38,93.35c-.84.38-3.59-1.34-3.91-3-.08-.39.14-1.17.58-1.15,1.09.35,2.14.84,3.2,1.27,0,0-1.48-3.71-.77-4.28a6.26,6.26,0,0,0,1.15-.87,3,3,0,0,0-.15-4.13,4.49,4.49,0,0,0-1.25-.92s1.05-2.9,1.57-4.26l-4.1,1.36c-1.9-2.8-4.45-2.75-5.83,0,0,0-.89-.33-2.56-1.07-1.43-.64-2.32-1-2.32-1,.54,1.6,1.24,3.12,1.86,5-2.82,1.8-2.18,4.85.2,5.75L30.8,90.17s2.67-1,4.11-1.38a7.75,7.75,0,0,1,1.65,2.49,10.56,10.56,0,0,0,3,4.45,20.71,20.71,0,0,1-4.05,2.36l6,2.43c-.38-1.28-1.17-2.22-1.25-3.83a2.5,2.5,0,0,0-1-2.33c-1.64-1.43-1.81-3.12-2.36-4.24a4.2,4.2,0,0,1-1.58-1.89c-.4-.83-3,1.11-3.37.74s.83-3.13.69-3.39c-1.06-.09-4-2.4-.49-5L31,76.44s2.68,1.17,4,1.82c.9-4.17,5-2.17,5.62-.37,0,0,3.22-1.06,3-.2s-.61,2.7-.61,2.7c2.89,2.57,2.29,3.83-.06,5.52a16,16,0,0,0,.54,3.48,27,27,0,0,0-2.72-1c-.43.44-.92,1.22-.84,1.62.73,3.25,4.73,4.15,10.65,7.47.21-2.1,1.65-5,1.81-7.48.11-1.84.17-1.87,1.46-1.28,3.39,2.46,2.36,9.2,1.12,12-.73,1.57-.85,1.53-2.28,1.08a14.43,14.43,0,0,0-7.38.27c-2.65,1.09-3.9,7-3.93,8.82a12.34,12.34,0,0,0,1,5.52c.37,1.35-.31,2.4-1.53,2-.27-.08-.92-.33-.92-.33L28.47,124l.3.49,11.07-5.82c1.83.71,1.58.86,2.77-.38a1.9,1.9,0,0,1,2-.65c5.79.55,8.35-.29,9.35-2.72.15-.37.09-.35.69-.65a2.37,2.37,0,0,0,1.66-2.17c0-.63.31-.72.8-1.16a2.27,2.27,0,0,0,.51-2.94c-.26-.5-.47-.66-.36-1.18a3.14,3.14,0,0,0-1-2.74c-1-1.11-1-.92.86-2.62,3.56-3.39,6.7-6,10.17-9.06,2.37-2.1,2.11-1.95,3-1a14.28,14.28,0,0,1,3.2,13.91c-.07.23-.1.2.07,0,1-1.09,1-6.58.17-9-1-3-2-4.55-5.28-7.48-2.07-1.87-7.7-7.27-7.7-7.27,8.19-7.11,17-16,22-24.08-2.54-2.72-14.3-5.23-14.3-5.23,1.47-3,4.36-16.71-.6-31.87Zm50.78.47,1.06,0c.49,3.8,3.9,8.32,7.44,9.73a3.07,3.07,0,0,1,1,.68V32a2.44,2.44,0,0,1-1,.09,17.9,17.9,0,0,1-8.38-9.26A10.21,10.21,0,0,1,118.66,20.82Zm2,0h1.13c.61,3.6,3.24,6.1,6.35,8.25v.72a4.4,4.4,0,0,1-.48.18C124.94,28.86,120.86,24.76,120.64,20.82Zm2,0H124a8.37,8.37,0,0,0,4.17,5.81v1.56c-3.2-2.2-5.06-4.38-5.53-7.37Zm2,0h1.09a7,7,0,0,0,2.41,3.66v1.46A8.15,8.15,0,0,1,124.62,20.82Zm3.51,0v2.71a4.24,4.24,0,0,1-1.67-2.66ZM106.08,35c-2.25,1-2.82,1.7-2.49,1.95s1.69-.45,2.41-.55c3.92-1,6.61-1.2,9.16-.09a9.68,9.68,0,0,0,1.55.53,2.17,2.17,0,0,0-.89-1.5C112.78,33.28,109.12,33.71,106.08,35Zm19.36.84H126a3.18,3.18,0,0,1,2.14.93l0,1.6c-1.82-1.61-3.8-1.55-5.89-1.23a4.73,4.73,0,0,1,3.24-1.31Zm-15.68,1c-3.7.28-5,2.16-7.38,4.1-1,.74-.75,1.32.44,1.13a6.59,6.59,0,0,1,4.09.5c2.2.75,3.78,1.07,5,.6,1-.37,1.53-.5,1.61-.32s-.73,1.1-2.79,2.76a5.86,5.86,0,0,0-1,1,5.38,5.38,0,0,0,1.74-.88,9.82,9.82,0,0,0,2.48-2.29c.13-.28.14-1.28.39-1.28.83,0,.41-1-.35-1.48-.5-.35-.39-.72.26-1.4,1-1.07.66-1.55-.43-.89-.2.11-.29-.21-1-.62A5.4,5.4,0,0,0,109.76,36.84Zm.39.64a3.41,3.41,0,0,1,2.28.75,1.11,1.11,0,0,1,.42.7,6.27,6.27,0,0,1-1.86.24,14.37,14.37,0,0,0-5,.81,15.12,15.12,0,0,1-2,.57s.49-.53,1-.93A9.05,9.05,0,0,1,110.15,37.48Zm13.85.1h0a5.5,5.5,0,0,1,4,1.61v.31a4.66,4.66,0,0,1-1.43-.24,7.89,7.89,0,0,0-4.28-.06c-1.25.35-1.47.47-1.3-.2.21-.84,1.54-1.39,3-1.42Zm-15.39,3c.13,0,.56,0,.72,0,.45,2.19,2.12,1.47,2.29.13h.61c-.26,1.79-2.68,3.28-3.62-.15Zm14.58,0c.3,1.7,1.88,2.26,2.57.13h.55c-.42,3.55-4.17,1.82-3.57-.13Zm-15.18,0a7.78,7.78,0,0,0,.72,1.61,6.48,6.48,0,0,1-2.22-.84A2.69,2.69,0,0,1,108,40.65Zm14,.08a4.43,4.43,0,0,0,.59,1.75l-1-.17c-.38-.06-.82-.28-.75-.58C121,41.08,121.37,40.9,122,40.73Zm5,.11a7.26,7.26,0,0,1,1.14.29s0,.47,0,.69a5.36,5.36,0,0,1-1.77.66,5.81,5.81,0,0,0,.6-1.64Zm-14.19,0a1.13,1.13,0,0,0,.35.07.35.35,0,0,1,.34.22.77.77,0,0,1-.18.78,3.69,3.69,0,0,1-1,.42A3.38,3.38,0,0,0,112.77,40.85Zm1.46,9.31a4.52,4.52,0,0,0-1.3.27c-1.53.88-1.17,4,.51,4.42a3.08,3.08,0,0,0,2.42-.28,3.85,3.85,0,0,1,1.89-.46c.55.23.73-.26.85-.82.26-1.24-1.77-1.27-3.39,0-2,1.62-3.62-.77-1.68-2.57a4.44,4.44,0,0,1,.7-.57ZM98.12,56.8l1.72,2,1.08,4.74a3,3,0,0,1-1.45-.25A58.09,58.09,0,0,1,98.12,56.8ZM121.49,58l-.06,0a3,3,0,0,1-.83.22c-.26,0-.64-.15-.92-.13a5.79,5.79,0,0,0-1.64.34.68.68,0,0,1-.65,0,4,4,0,0,0-2.69,0,2.09,2.09,0,0,1-1.73,0c-.21-.11-.42-.38-.46-.34a14.39,14.39,0,0,0-.48,1.93c0,.18-.13.49,0,.52s.4-.24.78-.44c.78-.39,1.65-.36,3.18,0,1.89.46,2.62.33,3.74-.24a2.66,2.66,0,0,1,2-.4c.14,0,.53.24.58.19s-.18-.66-.42-1.21-.25-.57-.37-.55Zm-20.38,2.14h0a18.37,18.37,0,0,0,2.58,2.22l0,1.51a8,8,0,0,1-1.91-.17c-.2-.59-1.06-3.54-.62-3.56Zm13.66.57c-.34,0-.16.34,0,.45a2.69,2.69,0,0,0,.5.23c.62.23,1.2.43,1.84.65l-.83.25c-.5.17-1.27.35-1.4.79,0,.08.12.1.25,0a10.42,10.42,0,0,1,4.13-.4c1.31.44,1.39.14.13-.52a8.58,8.58,0,0,0-.94-.24s.74-.25.94-.35a5,5,0,0,0,.58-.33c.77-.51.24-.71-.75-.24a4.74,4.74,0,0,1-3.57,0,3.54,3.54,0,0,0-.87-.36Zm-10.41,2.14,1.55,1.22-1.58-.16Zm-35,30.42a.57.57,0,1,0,.57.57A.58.58,0,0,0,69.35,93.26Zm2.06.58-7.09,3.37,1.88.63,0,1.94,1.73-.55.73,1.81Zm.32,1.59a.57.57,0,1,0,.56.56A.56.56,0,0,0,71.73,95.43Zm-9,3.45a.57.57,0,0,0-.57.56.58.58,0,0,0,.57.57.57.57,0,0,0,.56-.57A.56.56,0,0,0,62.74,98.88Zm2.18,1.05-8,3.66,2.36.72-.63,2.44,1.93-.81,1.07,1.63Zm.23,1.74a.57.57,0,1,0,.57.57A.57.57,0,0,0,65.15,101.67ZM49.36,102c3,0,6.35,1.14,7.5,3.7.3,1.29-1,2.05-3.65,1.31-4.44-1.22-5.27-1.36-4.53-.6a1.9,1.9,0,0,0,1,.57,23.26,23.26,0,0,0,5.78,1.14c1.2-.15,2,.4,1.73,1.4s-1.89,1.6-4.22,1.27a30.94,30.94,0,0,1-4.55-.87c-1-.31-1.07-.28-.58.44.25.38.28.68.66.75a31.66,31.66,0,0,1,4.75.36c2.63.23,3,1,1.11,2.12-.91.54-3.65.39-5.2-.17-1.12-.4-3.66-1-2.68-.2.24.19.15.65.57.79,1.34.19,5.15.46,5.75,1,.38.34-.48,1.23-2.26,1.69-2.68.51-6.68.29-7.74-.43-2-4-.9-10.53,2.16-13.08A7.48,7.48,0,0,1,49.36,102Zm17.55,2.08a.57.57,0,0,0-.56.57.56.56,0,0,0,.56.56.57.57,0,0,0,.57-.56A.58.58,0,0,0,66.91,104.12Zm2.36.61-8.21,4.1,2.07.62-.49,2.39,1.93-.79,1.16,1.61Zm.07,2a.57.57,0,1,0,0,1.14.57.57,0,0,0,0-1.14Zm4.78,4.84c-3.65,3.55-7.76,6.37-11.51,9.82l.82,0,2-1.84,57.57-.18-1.35,2,.57.25a19.82,19.82,0,0,0,1.61-2.68c-12.65,0-22.41,0-36.29.1-2.53-2.51-5.2-4.86-7.84-7.24Zm-17.5,2.28a.57.57,0,1,0,.56.56A.56.56,0,0,0,56.62,113.85Zm75.15.43a141.07,141.07,0,0,0,17.46,11.92c-3.1,1.72-6.76,3.68-9.85,5.25-1.17.44-1.69-.14-2.52,0a1.57,1.57,0,0,0-1.14.74c-.58.78-.42.75-3.57.61s-4.48-.08-5.16.27-1.78,1.48-1.78,2a1.39,1.39,0,0,1-1,1.24,1.89,1.89,0,0,0-1.6,1.72,3.06,3.06,0,0,1-1,1.41,2.11,2.11,0,0,0-.56,2.48c.12.38.59.35.22,1.42-1,2.78,2.3,4.28,2.35,4.26L109.07,160c-1.64-.95-3.29-3.84-3.84-5.64a13.87,13.87,0,0,1,4.38-15.23c1.33-1.14,3.12-2.5,3.62-2.85C120.49,130.11,126.8,121.33,131.77,114.28Zm-73.05.48-8,3.8,2.59.44-.5,2.24,1.88-.71,1,1.88Zm.49,1.78a.57.57,0,1,0,.56.56A.56.56,0,0,0,59.21,116.54Zm72.71.33s-2.54,6.26-3.08,8.38c2.15-1.11,8.45-4.32,8.45-4.32l-2.7-.5.31-2.45-2.07,1Zm-90.87,2.54a.57.57,0,1,0,.57.57A.58.58,0,0,0,41.05,119.41Zm2.46.52s-6,2.81-8.68,4l2.52.53-.44,2.46,2.28-.89.91,2.42Zm.32,1.86a.57.57,0,0,0,0,1.13.57.57,0,1,0,0-1.13Zm84.61.4a.57.57,0,1,0,.56.57A.56.56,0,0,0,128.44,122.19Zm9.77.52-2.85,7.92,7.7-3.88-2.09-.58v-2l-1.72.5Zm-91,1.9a.57.57,0,1,0,.57.57A.58.58,0,0,0,47.26,124.61Zm84.17.15a.57.57,0,0,0,0,1.13.57.57,0,1,0,0-1.13Zm-81.81.58-8.15,4,2.53.59-.28,2.55,2.06-1.17,1.11,2.33Zm.51,1.68a.54.54,0,0,0-.53.57.56.56,0,0,0,1.12,0A.59.59,0,0,0,50.13,127Zm84.8.5a.58.58,0,0,0-.57.57.57.57,0,0,0,1.14,0A.58.58,0,0,0,134.93,127.52Zm-12,.47-3,7.83,8.11-3.73-2.57-.6,0-2.05-1.81.69Zm-7.66.53a23.53,23.53,0,0,1-2.07,2.21l-24,.23c2.58.11,6.93,4.71,10.06,7.51l6-.23c3.29-3.24,8.23-5.7,10.44-9.7C115.54,128.33,115.28,128.51,115.27,128.52Zm22.63,1.54a.57.57,0,1,0,.56.56A.56.56,0,0,0,137.9,130.06Zm-18.49,2.73a.56.56,0,0,0-.56.56.57.57,0,0,0,.56.57.58.58,0,0,0,.57-.57A.57.57,0,0,0,119.41,132.79Zm9.75.78c.71,0,1.55,0,2.41,0,1.71,0,3.37.06,3.79.38,2.66,2.24,1.4,12.7-1.94,14-3.67.83-6.21,1-9.4-1.12-.9-.44-2.57-1.78-2.22-2.88.47-1.35,1.67-1.25,5.43-.08,1.37.43,2.13.34,2.48.07s-.1-.52-.81-.53a16.4,16.4,0,0,1-2.51-.61,10.17,10.17,0,0,0-2.77-.63c-1.56-.09-2-.15-2-1.1,0-1.79,2.47-2,7-1a11.06,11.06,0,0,0,1.77.26c.18.07-.35-.59-.44-1-.16-.14-.45-.21-1.23-.24-2.93-.28-5.36-.48-5.41-.87-.26-1.88,3.53-2.4,7.46-.88,1,.39,1,.22,1-.07,0-.54-1.71-1.49-4.2-1.47s-2.08-1.2-.09-2.13a4.38,4.38,0,0,1,1.63-.19Zm-7,2.06a.57.57,0,0,0,0,1.13.57.57,0,1,0,0-1.13Zm-9.23,1.8-3.3,8.22,8.32-4.24-2.74-.52.24-1.73-2,.38Zm-3.73,5.41a.57.57,0,1,0,0,1.14.57.57,0,0,0,0-1.14Zm7.59.34-2.8,7.16,7.1-3.18-2.1-.57.3-2.17-1.8.75Zm-5,2a.57.57,0,1,0,.56.56A.56.56,0,0,0,111.88,145.2Zm1.81,2.73a.57.57,0,1,0,.57.56A.56.56,0,0,0,113.69,147.93Zm-3.56,1.68-2.4,6.78,6.67-3.24-2-.64s.11-1.53-.07-1.46-1.38.4-1.38.4Zm5.93.81a.56.56,0,0,0-.56.56.57.57,0,1,0,1.13,0A.56.56,0,0,0,116.06,150.42Zm26.26,2.07h0s7.61,3.85,10.73,5.31v70.77H111.28c-4.72-14.12-1.33-26.38-.08-31.52-2.2-.18-13.55-3.87-13.89-5.14,4.5-7.15,10.6-13.66,17.07-19.6a114.07,114.07,0,0,1,18.11-14c2.23-1.34,2.91-1.54,3.79-.74,1.42,1.3,2.31,2.43,1.85,3.34a3.32,3.32,0,0,1-.45.55l-3.43-1.31,1.11,3.9c-3.09,1.26-3,4.61-.05,6.38l-2.05,4.73L138,173a3.16,3.16,0,0,0,5.7,0l4.31,2.11-1.49-5.29c1.42-1.35,2.24-3.5,0-5.49l1-4.14-3.89,1.27c-1-1.33-1.54-1.24-1.76-1.61a6.3,6.3,0,0,0-.73-2.72,19.19,19.19,0,0,0-1.72-2.48c-.3-.51-.06-.55,1.49-1.4.73-.39,1.34-.79,1.34-.79Zm-35.1,1.19a.57.57,0,1,0,.57.57A.57.57,0,0,0,107.22,153.68Zm2.55,2.62a.57.57,0,1,0,.57.57A.57.57,0,0,0,109.77,156.3Zm-84.32,5.49,4.5,3c.09.37-.68.12-.27,4.77.38,4.2,1.65,11.49,3,23.32-5.35-2.26-6.39,7.26-.12,5.22.28.06-3.28,5.54-3.28,5.54s2.85,5.18,4.22,7.39l4.31-7.66L35,198.1c4.42,2.25,6.7-4.45,2.07-5.33a5,5,0,0,0-2.36.4l2.44-22.95c2,1.34,5.55,4,5.55,4,.81,12.65.21,23.19,7.27,41.59L50,228.57H25.45Zm4.91,2.79.1.08C30.42,164.6,30.39,164.58,30.36,164.58Zm43.3,21.88a1.22,1.22,0,0,1,.84.23c.21.2.36.71.08.84s-1.1-.68-1.25-1A1.26,1.26,0,0,1,73.66,186.46Zm2.15.23A1.59,1.59,0,0,1,77,187c-.1.83.41,2.32.31,2.68-.26.13-1.59-1.3-1.91-1.64a5.75,5.75,0,0,1,0-1.35l.39,0ZM64.05,187a2.19,2.19,0,0,0-.68.21,6.12,6.12,0,0,1-2.9.72c-.94,0-2.55-.49-2.38-.37.42.76,1.53.36,1.55.86-.27.49-1,.44-1.38.91-.08.13.11.23.63.18a7.82,7.82,0,0,1,5.53-.09c.39.09.13-.29,0-.39a2.37,2.37,0,0,0-1-.41c-1.65-.3-.93-.46.17-1,.61-.22.88-.68.45-.66Zm14.16.06a1.86,1.86,0,0,1,1.18.36c.28,1.84,1.09,4.79,1,5.78a15.11,15.11,0,0,1-1.9-2.18,14.54,14.54,0,0,1-.64-3.94A1.73,1.73,0,0,1,78.21,187.09ZM67,189.58a8.19,8.19,0,0,0-1.37.54,4.84,4.84,0,0,1-3.33-.07,3,3,0,0,0-2.79.36,2.26,2.26,0,0,1-2.27.29c-.8-.46-.8-.3-.4.83.1.28-.1,1.14.26,1.34s.57-.35.78-.42,1.49.51,2.22-.13c1.29-.47,1.67.29,2.57.22,1.45-.52,2.35-1,3.6-.06a8.65,8.65,0,0,1,.82-2.87S67,189.57,67,189.58Zm-2.64,5.81c-1.05,0-1.61.66-3,.54a1,1,0,0,0-1,1.57c.32.49.75.58,2.21-.09.6-.28,1.44-.89,1.93-.84,1.43.14,1.78,1.53.58,2.7-.58.34-.58.71-.4.72a2.1,2.1,0,0,0,1.64-1.2C66.92,197,65.85,195.36,64.31,195.39Zm4.67,8.3a8.26,8.26,0,0,0-4,2.86c-.62,1-1.22,2.09-.79,2.64s.86.89.9,1.13-.25.43-.52.73c-1.2,1.34-.91,1.41.76.54,1.82,2.48,5.45,1.69,7.61.13,3.39-2.23,5.26-4.35,2.59-3.46-1.23.4-1.69.33-3.18-.34-2.23-1-3.94-1.31-5.8-.66-2.34.82-.54-1.12,2.1-2.8C69.25,204.1,69.32,203.68,69,203.69Zm-14.69,3.82c.79-.06,1.61.53,2.05,2h-.78c-.56-1.88-1.91-1.88-2.5,0l-.65-.05a2.36,2.36,0,0,1,1.88-1.94Zm13.92.14a2,2,0,0,1,2,2l-.58,0c-.36-1.15-1.61-2.15-2.5-.28l-.41-.08c.27-1.12.85-1.59,1.46-1.65Zm-1.88.26c.36,0,.46.42,0,1.09-.29.48-.64.44-1,.08s-.29-.37.05-.69a1.52,1.52,0,0,1,.9-.48Zm4.32,0a4.2,4.2,0,0,1,.8.24c.89.3,1.1.55.73.92a1.24,1.24,0,0,1-1.35.26c0-.45-.46-.79-.48-1.24C70.35,208,70.49,207.93,70.65,207.92Zm-14,0c.62,0,1.45.34,1.39.69s-.68.65-1.18.69c-.34.05-.32-.09-.41-.33s-.18-.49-.24-.7c-.14-.41.13-.34.44-.35Zm-4.22.13s-.35,1-.5,1.39c-1.3-.07-1.17-.64-.56-1.06A2.24,2.24,0,0,1,52.47,208.07Zm20.79,2.26c.07,0,.12,0,.13,0-1.47,2-5.48,3.39-7.78,1.1a2,2,0,0,1,1.54-.35,8.88,8.88,0,0,0,5-.38A9.41,9.41,0,0,1,73.26,210.33Zm-21.8.2a4.61,4.61,0,0,1,.93.33,9.75,9.75,0,0,0,4.53,0c.72-.17,1-.39,1.21-.27s0,.9-1,1.35a6.49,6.49,0,0,1-4.92,0c-1.32-.68-1.46-1.4-.71-1.38ZM51.11,212a5.69,5.69,0,0,0,3.92.92c2.24-.08,2.64-.36.75.64s-4.43.76-5-.25C50.53,212.74,50.72,212.05,51.11,212ZM62,213.35h0c.18,1.21,2.21,2.32,3.19,2.59,2.07.92,5.36,0,7.84-1.07,1.8-.78,2.46-2,.3-1.29-3.46,1.08-7.81,1.17-10,.33a6.55,6.55,0,0,0-1.32-.56Zm-11.41,4.54c4.34,1,9.58,7.68,9.56,10.61h-1.4A14.18,14.18,0,0,0,50.52,219c-.25-.92.06-1.12,0-1.1Zm-.07,1.89a13.68,13.68,0,0,1,7.77,8.72H56.76a11.64,11.64,0,0,0-6.27-7.2,3.42,3.42,0,0,1,0-1.52Zm0,2.28c2.64.78,5,4.26,5.63,6.44H54.81a7.89,7.89,0,0,0-4.36-4.88,3.92,3.92,0,0,1,0-1.55Zm0,2.37h0a5.84,5.84,0,0,1,3.64,4.07H52.88a6.83,6.83,0,0,0-2.42-2.92c0-.23,0-1.15,0-1.15Zm.13,2h0c.13-.09,2,1.58,1.67,2.05H50.59c0-.52,0-2.06,0-2.05Z"/><path id="path4071-9-6-8" class="cls-4" d="M97.82,20.81c-3.14,6.1-19.27,33.58-19.44,34.53l4.13,1.83L102.57,21Zm47.45,23-1.74,2.49,1.41,2.84,1.72-2.71ZM71.49,71.32s-5.79,5.76-8,8.45c4.86,4.85,14.15,11,14.22,20.33l6.4,0,20.73,18.57s18.77.14,19.12.06,7-9.66,7-9.66l11.9,8.69s-.57-9.35-1-15.09c-.15-3.83-.27-6.19,2.52-7.89-3.84-1.83-3.6-5.21-.77-7.68-1.47-.58-2.85-4.36-2.47-6.13,0,0-1.23-1-2-1.5-1.8,1.64-4.62,4.06-5.18,6.62-.53,2.81,2.31,4.73,4,2.68.46-.58.87-.42.87.34,0,1.53-1.92,2.39-3.54,1.59a2.32,2.32,0,0,0-.75-.27c3.09,7.26,4.22,10.05,2.51,14.48-.75,2.75-.4,4.39.93,4.39.75,0,.73.72,0,1-1.61.56-2.6-.62-2.66-3.16,0-1.53-.06-1.57-.85-1.2-2.74,1.29-5.72-1-4.43-3.44.27-.5.59-.34.76.38a2.15,2.15,0,0,0,2.31,2c3,0,4.2-4.21,2.5-8.43-.35-.85-.52-.8-1,.27-.71,1.68-1.89,2.18-2.87,1.2-.32-.33-.48-.86-.26-.89l.72,0c1.73,0,2.32-1.73,1.51-4.25a23,23,0,0,1-1-3.82,7.3,7.3,0,0,1,.82-5.07,24.1,24.1,0,0,1,4.81-5c-1.23-1-2.32-1.82-3.7-2.85,0,0-8.82,24.26-8.2,33.71-1.12,12.45-10.26,9-10.93.38ZM72,75.08c2.5.73,4.2,4.71,5.21,12.11.38,2.75,2,6.59,3.26,7.5,3.06,2.29,7.85.53,7.85-2.9,0-4.26-6-4.89-6.06-.64,0,1-.54,1.06-1,.1A3.15,3.15,0,0,1,82.06,88c.55-.52.5-.62-.54-1.19-3.64-2-5.18-5-3.24-6.29.85-.55,2,.15,1.48.9-.84,1.17-.85,1.36-.15,2.33,2,2.27,4.6,2.28,7,3.37a4.86,4.86,0,0,1,2.8,6.15L89,94.56c-.09.27.06.27,1.83,0,2.83-.37,6,.64,7.52,2.42a8.81,8.81,0,0,1,1.52,4.92,12.29,12.29,0,0,0,.24,1.75c.13.61.3,1.64.38,2.29.74,6.16,5.86,9.32,8.08,5,1.39-2.74-1.83-5.47-3.47-3-.58.89-1.17.48-.84-.57.65-2,3.2-2.4,4.94-.67a4.91,4.91,0,0,1,.94,4.39c-.24.7-.22.75.3.56a4.51,4.51,0,0,1,3.92.77c1.7,1.83,1.36,4-.74,4.74a1.79,1.79,0,0,1-2.39-1.14c-.16-.8.39-1,.81-.34.8,1.29,2.53.25,2.12-1.27-.46-1.73-1.94-2.1-4.66-1.16-4.34,1.5-5.74,1.37-7.81-.69-1.48-1.48-2-2.75-2.44-5.56-.44-3.1-.48-3.18-1.24-2.53-3.67,3.12-8.51-1.6-5.41-4.7,1-1,1.67-.13.8,1-1.26,1.57.39,3.76,2.45,3.25,3.75-.93,3-6.43-1.08-7.72-1.23-.39-4.63-.23-7.25.35-7.3,1.61-10.53-1.52-12-11.64a36.53,36.53,0,0,0-1.08-4.6c-.82-3-3.62-4.66-5.15-3-1.21,1.31-.57,3.07,1.12,3.08s1.17,1.16-.59,1.32c-3,.27-3.59-4.83-.65-6.29A4.36,4.36,0,0,1,72,75.08ZM31.16,76.79l1,3.68,3.78,1.07-1.2-3.45Zm9.74,1.13-1,3.29,2.81-1,1-3.14ZM72,83.3a1.09,1.09,0,1,1-1.08,1.08A1.08,1.08,0,0,1,72,83.3Zm-36.1,1.9-3.28,1.1L32,88.9l3-.68Zm6.85,1.18-2.35-.72.56,2.68,2.57,1.06Zm105.56-.51-1.56,1.22c4.56,4-.36,7.8-.52,7.54,3.3,2.18,2.71,5.63,2.28,8.79-.78,5.63-1.08,11-1.93,16.73a45.85,45.85,0,0,0,6.61,3.81s0-33.87,0-33.87ZM92,91a1.09,1.09,0,1,1-1.09,1.09A1.08,1.08,0,0,1,92,91ZM25.32,93.76l.14,31.6L32,113.66l-4.5-5.19,3.89-4.15A114.24,114.24,0,0,1,25.32,93.76Zm63.59,4.81a1.09,1.09,0,1,1-1.09,1.09A1.09,1.09,0,0,1,88.91,98.57Zm14.83,3.24a1.09,1.09,0,1,1-1.09,1.08A1.08,1.08,0,0,1,103.74,101.81ZM146.21,137,151,142l-3.8,4.67,6,10-.1-31ZM25.26,126.64l.23,34,5.13,3.75,1.3-1.23c-3.31-3.54-1.34-6.18,1.16-7.7-4.4-1-3.07-6.88-2.8-9.59-.11-5,1.73-10.77,1.16-15.61Zm29.54,4.72-7.35,10.26s-8.08-6.13-12.15-8.89c.43,4.42.83,10.07,1.37,14.84,1.32,7-2.12,7.07-2.15,7.74,5.47,4.15.88,8,.06,7.84,2.91,1.59,2.67,6.41,2.67,6.41l1.38.79c2.09-1.42,4.34-3.61,5.07-5.88.94-3.18-1.81-5.81-3.54-3.4-.85,1.19-1.53.39-.84-1a2.68,2.68,0,0,1,3.4-1.28c.64.34.5-.55-.49-3a28.85,28.85,0,0,1-1.07-3.6,10.78,10.78,0,0,1,.51-6.16c1.13-3.17.73-5.16-1.08-5.33-1-.1-1.08-.4-.29-.85,1.76-1,3.47.43,3.4,2.84,0,1.3,0,1.32.66,1.05,3.48-1.4,6.22,2.21,3.79,5-.74.85-1.21.31-.72-.83.76-1.75,0-3-1.73-3-2.56,0-4,3.53-3,7.43.32,1.21.36,1.23,1.21.42s1.32-1,1.91-.78c1.21.36,1.53,1.66.37,1.5-2-.28-2.52,1.82-1.39,5.54,1.65,5.68-.3,8.85-5,12.27A29.33,29.33,0,0,0,44.86,175l8.07-32.67a26.13,26.13,0,0,0-.34-2.73c0-8.77,8.16-9.61,10.72-1.65a18.45,18.45,0,0,0,1.54,2.72l42.52,37.8s7.94-7.69,7.83-7.89c-6-6.09-14.17-10.4-14.47-20.06-1.45,0-6.28.05-6.28.05l-20.67-19c-6.49,0-12.24-.42-19-.22Zm11.59.71c1.13,0,2.28.56,2.28,1.51s-.55,1-1,.34c-.64-.93-1.37-1-2.12-.22-2.08,2.19,1.15,4.19,4.86,3,2.27-.72,3.37-.91,4.2-.74,3.5.7,5.19,3.07,5.49,7.68.15,2.34.15,2.34,1.16,1.41a3.85,3.85,0,0,1,6.58,2.32,3.13,3.13,0,0,1-2.76,3.23c-.57,0-.48-.6.14-.89a2.35,2.35,0,0,0,.1-4c-1.92-1.22-4.44.68-4.41,3.31q.06,4.75,7.06,4.36l3.81-.18c2.22-.09,4.62-.52,6.89,1.2,2.37,1.89,4,5.66,4.62,11.1,1.07,6.69,1.89,8.48,4.13,8.64a2.36,2.36,0,0,0,2.46-2.36,1.74,1.74,0,0,0-2.16-1.44c-1.13.37-1.35-.85-.25-1.31,1.54-.64,3.42.59,3.83,2.53.25,1.13-1,3.29-2.35,3.83-3.48,1.4-6-1.47-6.76-7.9a39.75,39.75,0,0,0-1.69-7.47c-1.69-4.64-4.46-6.55-7.48-5.16-3.41,1.57-2.73,6.69.88,6.65,2,.16,2.41-1.3,2.45-2.87.05-1.16,1.35-.07,1.47.72a3.62,3.62,0,0,1-1.52,2.73c-1.23.82-.8.77.46,1.11,3.39.62,5.91,5.11,3.88,6.64-1,.64-2.17-.31-1.44-1.24,1.16-1.47-.8-3.81-4.37-4.59-4.68-1-6.55-4.52-4.86-8.11.56-1.18.61-1.15-1.67-1-5,.28-6.81-.42-8.5-3.33-.5-.88-.73-2.06-.84-4.4-.19-4.18-.57-6.77-1.1-7.5-2.61-3.62-8-2.54-7.35,1.46a2.24,2.24,0,0,0,4,1.24c1.12-1.15,1.64-.08.55,1.13-2.62,2.91-7.18-.49-5.83-4.34.31-.88.35-.85-1.33-.9-3.74-.11-5.52-3.31-3.11-5.6a2.44,2.44,0,0,1,1.61-.61Zm9,13.77a1.09,1.09,0,1,1-1.09,1.09A1.08,1.08,0,0,1,75.42,145.84Zm15,3.87a1.09,1.09,0,1,1-1.08,1.09A1.09,1.09,0,0,1,90.46,149.71Zm-3.23,7.1a1.09,1.09,0,1,1-1.08,1.09A1.09,1.09,0,0,1,87.23,156.81ZM135.05,161l.69,3.22,2.49.66-.38-2.76Zm8.72,1.11-.05,1.91,2.22.26.78-3.29ZM106.54,165a1.09,1.09,0,1,1-1.08,1.09A1.09,1.09,0,0,1,106.54,165Zm31.85,4.44-2.61.72-1.25,3.63,3.34-1.21Zm5.1.32.32,2.69,3.21,1.46-1.09-3.83ZM96.15,192.7,76.22,228.81l5.44-.08,18.82-34Zm-62.7,8.74-1.76,2.37,1.67,2.76,1.92-2.77Z"/><path id="path4069-2-6-0" d="M112.32,19.9h-9.06l-.32.35H98.23l0-.35H67.33c3.67,11.15,4,22.14.82,32.69a44.36,44.36,0,0,1,14.1,4.83c-.81,2.07-13.17,17.3-21.55,24.16,2.38,2.37,5,4.73,7.76,7.34,4.17,4,5.65,6.69,5.92,11.84-.19,6-3.59,9.61-8.28,12.94-4,2.65-10.36,10.06-16,17.8-.87,1.18-3.43,4.89-3.43,4.89a126.46,126.46,0,0,0-17.91-12.32s9.22-4.92,11.16-5.93c1.49,1,3.52.14,2.54-2A14.44,14.44,0,0,1,44.16,103c.89-1.33,5.67-1.88,8.74-1.09,1.74,1,2.09-.27,3.18-4.4s-.66-9.31-3.14-9.33c-.58,0-.91.22-.79,1.68a4.46,4.46,0,0,1-.46,2.37,17,17,0,0,0-1.14,4.92A13.44,13.44,0,0,0,44,93.47c-2.73-.32-4.12-3.73-4-3.73a5.7,5.7,0,0,1,.77-1.29,18.22,18.22,0,0,0,3,1.3S43.5,88.38,43.4,88c-.5-1.9-.48-2.19.26-2.58,1.81-1,2-2.74.59-4.33a2.9,2.9,0,0,0-1.14-.87L44,76.65s-.82.18-1.48.38c-1.9.58-1.75.6-2.56-.33-1.76-2-4.34-1.55-4.86.69a6.77,6.77,0,0,1-.16.67l-4.06-2a42.57,42.57,0,0,0,1.18,4.17c-3.55,2.76-.55,5.21.41,5.47,0,0-.83,2.64-1.11,3.73l4-1.14a3.92,3.92,0,0,0,1.58,1.88c.22,2.25,2,4.07,3.14,5.16a4.09,4.09,0,0,1,.07,1.35c-.25,1.31,1.08,3.39,1.3,3.51-5.49-2.25-11.21-5-16.73-7.6l.34,68s1.29,1.15,3.84,3c1.23.88,1.23.88,1,1.9-.34,1.33-.25,2.35.88,11.15.61,4.65,1.26,9.48,1.85,13.81.23,1.57.27,2.58.27,2.58-1.22-.56-3-.62-3.92.41a2.79,2.79,0,0,0,2,4.65,3.82,3.82,0,0,0,2-.52l-3.5,6.16,4,6.8,4-7.27-2.92-5.75c2,1.12,4.17,1,4.63-1.77.14-2.67-2.86-3.42-4.84-2.27l2.47-23.89,1.33,1,.43-.24-1.16-1c.25-3.8-1-5.15-2.35-6.07,4.52-2.57,2.56-6.65-.44-7.9,0,0,2-1.14,2.34-2.34s.21-2.77-.17-5.79C36.57,142.6,35.57,133,35.57,133c4,3,8,6.17,11.82,9.19L55,131.55l18.42.13s14,12.73,21,19.22l6.09,0c.68,9.77,7.44,13,14.17,19.82L107.59,178,63.76,138.78s-.21-.57-.29-.92c-1-4.15-3.76-5.89-6.26-5.6s-4.86,2.9-4.74,7.3a13.41,13.41,0,0,0,.26,1.88l-8,33.41s-3.2-2.45-4.93-3.63l-.38.22L44.1,175l.35-.15,1.33,1,.1.71c4.1,2.8,11,8,11,8,3.28-2.44,6.73-1.62,10.19-.71a17.06,17.06,0,0,0,3.85.84,58.08,58.08,0,0,1,19.11,3.76l-23,40.85,43.82.09c-2.16-8.55-4.46-17.24-.36-31.82-4.32-.88-13.93-4.73-13.93-4.73s0-.22.36-.72c1.78-2.54,6.27-9.44,10.48-13.43.51-.36,7.85-7.5,7.92-7.72a1.68,1.68,0,0,1,.51-.8c.67-.45,2.47-2.15,2.47-2.15l-9.2-7.8-.52-.29c-1.28-.72-3.59-4.73-4.16-7.41-1.31-6.17,1.11-11,7.94-16.06,6.67-4.57,19.31-22.33,19.36-22.72,6.82,5.65,12.14,8.58,18.14,12.29-3.63,2.08-6.58,3.47-9.12,4.85-1.64.94-1.87,1.14-3.26.74-1.57,0-2.11.62-1.71,2,2.38,3.77,1.36,12.56-1.87,14.25a9.23,9.23,0,0,1-7.77.24c-1.73-.56-1.71-.56-2.48,1a11.14,11.14,0,0,0-.24,10.17c1.29,2.8,3.2,4.07,3.44.3.14-2.21,1.11-4.8,1.08-7.18a11.34,11.34,0,0,0,6.46,4c2.15.34,4.44,3,4.37,4.14-.6.6-.78,1.36-.87,1.31-1.05-.34-3.32-1.31-3.32-1.31l1,3.42a3,3,0,0,1-.63.39c-2.13,1.09-2,4,.25,5.22.45.25.49.36.29,1-.28,1.4-.89,2.34-1.22,3.73a13.87,13.87,0,0,0,2.86-1.17l1-.47.6.65a2.71,2.71,0,0,0,4.31,0l.63-.66,1.78.9c1.67.85,2.12,1,2.12,1s-1-3.75-1.15-4.18a1,1,0,0,0-.44-.52c-.24-.09-.2-.15.44-.65,1.61-1.28,1.77-3,.4-4.38a5.54,5.54,0,0,1-.59-.62l.83-3.48-3.46,1.15a3.74,3.74,0,0,0-2-1.93c-.06-1.57-.25-3.19-2.95-5.64.91-.83-.17-2.83-1.06-4,1.52.51,5.31,2.12,5.31,2.12l.57,0,1.81.87.21.32s5.69,2.69,8.3,3.95c0-.14,0-2.95,0-33.94,0-18.48,0-33.68,0-33.77a40.58,40.58,0,0,0-4.27-3.17c-1.22-.82-1.14-.81-.89-1.75s.29-2.56-.1-5.34c-.28-2.06-1.31-9.27-2-15.1-.51-4.08-.63-5-.75-5.65a9.17,9.17,0,0,1,0-2.4c5.71,2.48,6.16-5.74.43-4.63,1.1-2.21,2-3.24,3-5.61-1.19-2.57-3.84-6.93-3.84-6.93l-4.18,7.3,2.46,5c-2.83-.51-4.34,1.56-3.81,3.41a2.44,2.44,0,0,0,3.52,1.44c1.07-.42,1.06-.53.12,7.48-.28,2.37-1.52,13.44-1.69,15.09-.12,1.11-.19,1.42-.64,1.17a9.55,9.55,0,0,1-1.57-1l-.35.34c.54.44,1.2,1,1.86,1.6-.15,2.93-.1,4.63,2.34,6.06-4.42,2.78-1.83,7,.76,7.66-1.55.4-3.07,2.39-2.7,6.35l1.25,16.32-12-8.91-7,10.08-18.52,0L84.25,99.8s-4.58-.06-6.46-.11c.21-.1-.4-5.84-3.42-9.58-3.28-3.92-10.76-10.38-10.76-10.38l7.86-8,44.1,39.77s.21,1.13.33,1.6c1.47,6.28,8.6,6.66,10.12.27a17.48,17.48,0,0,0,.43-3.72c2.23-9.62,5.06-20.36,7.21-28.63.44-1.56.75-3.16,1.19-4.72l3.43,2.49.37-.39c-1.3-1-3.53-2.61-3.53-2.61l0-.69c-7.16-5.14-8.63-6.5-12.87-9.87-3.29,2.9-8,1.73-10.93.7-.76-.29-2.62-.78-2.62-.78a62.35,62.35,0,0,1-19.86-3.4Zm-18.25,1,3.21.06-19,33.93-2-.79s.18-.09.18-1.52a4.3,4.3,0,0,0-1-3.1c-.57-.78-.82-.83.87-.59a4.47,4.47,0,0,0,4.55-6.24c-.53-1.14-.46-1.21,1-1.35a4.51,4.51,0,0,0,2.63-7.73c-.57-.52-.32-.84.74-.61,3.34.72,5.92-3,4.6-5.9-.43-.81,0-.95.56-1A4.68,4.68,0,0,0,94.07,20.86Zm-25.59,0H83.34c-2,3.07,1.54,4.88,2,4.66-3.2,1.76-2.32,4.23-.66,5.08s4,.08,3.39-3.49l.79-.34c.77.87,1.54,6.3-4.35,5.55-1-.14-1.62.84-.75,1.39,4.66,5.37-2.63,7.74-2.95,6.85l0-.91c2,.36,4.5-2.18,2.28-4.45-1.26-1.29-4.91-.66-4.28,3.25-2.16-3.23-4.51-2.26-5.14-.55a2.56,2.56,0,0,0,2.28,3.44c-2.4,2-1.24,4.26.42,4.76,1.82.55,3.68-.2,3.18-3.52,0-.31.66-.21.71-.22,1.89,4.7-2.62,6.44-5,5.46-.9-.35-1.37,1-.41,1.75,1.45,1.08,1,4.17.83,4.2a42.6,42.6,0,0,0-6.42-1.72,58.36,58.36,0,0,0-.68-31.19Zm23.7,0h1.34a4.28,4.28,0,0,1-4.1,4.66A5.58,5.58,0,0,0,89.27,24C90.5,23.7,92.13,24,92.18,20.87ZM98,21l4.28,0L82.16,56.86,78.93,55.2ZM87.46,23.7a1.37,1.37,0,1,1-1.36,1.37A1.37,1.37,0,0,1,87.46,23.7ZM78.87,39.34A1.27,1.27,0,1,1,77.6,40.6,1.26,1.26,0,0,1,78.87,39.34Zm66.39,1,3.41,5.95-3.89,6.91-3.25-6.62Zm-.06,2-2.4,4L145,50.42l2.48-3.87Zm.05,1.7,1.24,2.4L145,48.92l-1.26-2.58Zm2.33,8a2.26,2.26,0,1,1-2.25,2.26A2.26,2.26,0,0,1,147.58,52.12Zm-5.54,0a2.22,2.22,0,1,1-2.21,2.21A2.21,2.21,0,0,1,142,52.16Zm2.72,3.17s.42,1.88.63,3.58c.07.61.26,2.15.43,3.41.48,3.75.76,6.82,1.23,10.27,1.16,8.47,1.43,11.17,1.15,11.89-.73,2.53-4.17,2.72-5.61,1.26-1.09-1.11-1.25-2.33-.82-5.51.8-6.27.78-8,1.62-14.61.29-2.74.63-5.31,1-8C144.5,56.64,144.76,55.33,144.76,55.33ZM88.4,62.51s11,3.64,19.41,3.47a6.78,6.78,0,0,1,3,.49c.91.3,2.34.7,3.18.9a11.79,11.79,0,0,0,6.87-.47c.32-.13.78-.52,1.25-.37.29.08.7.65.7.65-7.34,2-24.52,1.6-35.21-2.92ZM145,63.67s-.09.07-.15.15c-.17.28,0,2.15.64,8.08,1.28,11.33,1.27,11.57-.27,12.76-.76.59-.88.82-.52,1s.25.16.81,0c1.3-.36,1.83-1.4,1.82-3.51a36.41,36.41,0,0,0-.52-5.75c-.18-1.37-.41-3.3-.53-4.29-.84-7.06-1-8.53-1.28-8.48ZM87.29,64.85c11,3.94,22.44,5.05,36.26,2.93.45.4.9.77,1.34,1.13-.21.37-.42.73-.65,1.1l-1.21.56c.37.25.75.5,1.14.74l.58,1.23c.26-.39.5-.78.74-1.17l1.22-.63c-.4-.22-.8-.44-1.18-.67-.19-.36-.37-.73-.55-1.09a54.36,54.36,0,0,0,4.88,3.36C117.53,76.11,97.63,75.46,85.35,70a8.66,8.66,0,0,1-.74-.48A20.52,20.52,0,0,1,86,66.93c.14.32.27.64.42.95-.07.45-.13.9-.19,1.35l1.25-.57,1.36.16-.6-1.22c.06-.44.11-.89.17-1.34l-1.21.58-1-.16c.39-.63.8-1.26,1.16-1.83Zm5,2.69-1.17.67-1.34-.1c.21.4.42.8.64,1.2,0,.45-.07.9-.1,1.35.41-.21.81-.43,1.21-.65l1.37.06L92.2,68.9c0-.45,0-.9.08-1.36Zm4,1c-.37.25-.74.5-1.12.74H93.8c.23.39.47.77.71,1.15V71.8c.39-.24.78-.48,1.16-.73L97,71l-.76-1.13c0-.45,0-.9,0-1.35Zm4.06.75-1.07.82-1.35.07.79,1.11.09,1.35q.56-.39,1.11-.81l1.37-.11c-.29-.36-.56-.72-.84-1.08C100.39,70.21,100.35,69.76,100.32,69.31Zm20.61.31c-.26.37-.52.73-.79,1.09-.41.16-.83.31-1.26.46L120,72l.48,1.27c.29-.36.56-.73.83-1.09l1.28-.52c-.38-.25-.75-.51-1.12-.78-.17-.42-.33-.84-.49-1.26Zm-16.5.2-1,.88c-.45.06-.89.11-1.34.15.28.36.57.71.86,1.06,0,.45.1.9.16,1.35l1.06-.87,1.36-.19c-.3-.34-.6-.68-.89-1Zm12.42.23c-.28.34-.57.69-.87,1-.43.13-.86.25-1.3.36.34.31.67.61,1,.91.12.44.25.88.38,1.31.31-.34.61-.69.91-1,.44-.14.88-.27,1.31-.42-.36-.28-.71-.57-1-.86-.14-.43-.27-.87-.4-1.3Zm-8.29.06a.57.57,0,0,1-.11.11l-.87.82-1.33.23.91,1,.24,1.34.94-.86.07-.07,1.35-.26-1-1c-.08-.45-.16-.89-.25-1.34Zm4.16.08c-.31.33-.62.66-.94,1l-1.32.29,1,1c.1.44.2.88.31,1.33.32-.33.65-.65,1-1l1.34-.33-1-.93c-.1-.44-.21-.89-.31-1.33Zm-30.24.72c.29,0,1,.63,1.22,1.35.53,1.41.29,3-.55,3.49-1.14.7-2.47-.4-1.69-1.4A1.32,1.32,0,0,1,82,74c.58-.19.72-1.11.4-2.71C82.31,71,82.37,70.91,82.48,70.91Zm4.26.54A76.43,76.43,0,0,0,126,73.8s-6.58,26.93-6.72,26.94Zm-5.82.08c.62,0,.73,1.06.17,1.63-.72.72-2.09.14-1.81-.76A3,3,0,0,1,80.92,71.53Zm3.41.63c.13,0,.37.25.76.77,1.34,1.8,1.44,3.81.25,4.72-1.4,1.08-2.43-.59-1.26-2,.3-.38.35-1.07.17-2.62-.07-.55,0-.82.08-.83Zm46.06.65a2.81,2.81,0,0,1,1,.38c.85.41,1.14,1,.73,1.52-.59.72-2.22-.71-1.92-1.68C130.22,72.89,130.27,72.81,130.39,72.81Zm-1.28.93c.21,0,.55.42.95,1.21.25.51.4.66.83.81,1,.37,1.2,1.42.31,1.74s-1.69-.36-2.14-2.07c-.29-1.13-.23-1.72.05-1.69Zm-42.49.76c.15,0,.43.32.88,1,1.32,2,.87,5.73-.81,6.61a1.35,1.35,0,0,1-1.84-.29c-.86-.86-.65-1.55.63-2,1.09-.41,1.45-1.65,1.11-3.92-.13-.91-.14-1.35,0-1.36Zm6.32.62c8.11,6.7,15.44,13.88,24.88,22.27,2.24-6.91,5.5-21.25,5.51-21.3-.35.29-15.85,2.5-30.39-1Zm35.43,0a5.3,5.3,0,0,1,.75,1.92,4.66,4.66,0,0,0,1.31,2.28c1.6.28,2.28,1.17,1.49,2-.58.58-1.84.25-2.44-.64C128.34,79,127.57,75.14,128.37,75.14Zm-90.51.92A2.14,2.14,0,0,1,40,77.93c.27,1.47-.55,2.53-1.25,2.36s-1-1.49-1-1.49a5.28,5.28,0,0,1-.5,1.48c-.68,1-2.11-.51-1.85-2A2.52,2.52,0,0,1,37.86,76.06Zm57.73.39a96.82,96.82,0,0,0,27,.52l-5,19.32Zm-6.67,0c.13,0,.4.24.82.68,1.37,1.46,1.77,3.48.87,4.48-.54.61-.9.68-1.48.28-.74-.5-.8-1.27-.12-1.62s.68-1,.19-2.37C88.83,76.93,88.73,76.46,88.92,76.48ZM31.29,77l3.23,1.34,1.15,2.74-3.22-.84Zm12.2.37-1,2.71L40.05,81,41,78Zm84.19.57c.12,0,.3.34.52,1,.53,1.76.75,2.2,1.24,2.44a.9.9,0,0,1,.1,1.68c-.47.22-.63.17-1-.27a6.7,6.7,0,0,1-1-3.21c-.07-1.11,0-1.69.14-1.69ZM91.75,79.13c.1,0,.24.14.44.38,1.25,1.49,1.39,3.78.27,4.47s-2.61-.71-1.66-1.5c.9-.24.74-1.35.74-2C91.56,79.55,91.6,79.15,91.75,79.13Zm9.53.16,15.45,14.07,3.55-13.92a110.92,110.92,0,0,1-19-.15Zm-38,.71c4.88,5.16,11.27,9.34,12.79,14.48a17,17,0,0,1-5.64,20c-9.64,6.24-14.73,15.28-20.8,23.32-.53.67-2.37,3.54-2.37,3.54a132.09,132.09,0,0,0-21.54-15l2.75-1.55a126,126,0,0,1,18.27,12.67A136.44,136.44,0,0,1,59,121.27c5.31-6.57,10.81-8.75,13.09-12.08a14.48,14.48,0,0,0,.74-15.6c-2.72-4.71-8-7.94-11.5-11.84Zm46.34.38h6s-.89.74-1.57,1.2c-.43.28-.93.25-1.87-.15S109.66,80.38,109.66,80.38Zm6.91,0,1.41.05a22.78,22.78,0,0,1-3.54,3.36.83.83,0,0,1-.71,0c-2.89-1-5.54-2.17-8.35-3.32l2.5,0s1.21.39,3,1.14c2.08.86,2.62,1.13,3.42.6s1.41-1.29,2.25-1.78Zm2.86,0-.51,1.86a33.41,33.41,0,0,1-4,3.46c-.33.18-.32.21-1.78-.36a86.68,86.68,0,0,1-8-3.45l-1.09-1s1.4.4,2.32.76c1.89.69,3.77,1.49,5.59,2.21,2.32.92,2.19,1,4.42-1A31.84,31.84,0,0,1,119.43,80.38Zm-81.34.17,2.34,2.69-3.12,2.63L35,83.09Zm88.9,0a11.23,11.23,0,0,0,1.78,3.06c.65.63.82,1.11.43,1.47-1,.63-1.2-.39-1.51-1.06-.56-1.17-1.24-2.76-.7-3.47Zm-84.73.27c2.62-.11,3.22,3.45.92,4.63a2.29,2.29,0,0,1-2.33-.35c-.51-.51-.58-.94-.23-1.21a4.42,4.42,0,0,1,1.83-.41,14.55,14.55,0,0,1-1.69-.69C39.73,82.2,40.62,80.89,42.26,80.82Zm51.43,0h0c.14,0,.38.3.73.87,1.26,2.08,1.19,6-.12,7a1.5,1.5,0,0,1-2.11-.18c-.75-.84-.52-1.68.6-2.18s1.3-1.55.86-4.19c-.15-.92-.14-1.38,0-1.37Zm-60.4,0a2,2,0,0,1,1.61.91c.26.44.14.76-.36,1a12.55,12.55,0,0,1-1.76.45,11,11,0,0,1,1.79.46c.85.38.78,1.06-.46,1.65a2.33,2.33,0,0,1-2.67-3.74A2.52,2.52,0,0,1,33.29,80.84Zm62.45,1.55h.06a2.25,2.25,0,0,1,1,.89c1.42,1.88,1.67,4.71.46,5.27s-2.2-.62-1.28-1.67c.65-.75.57-1.84-.3-4-.12-.31-.09-.47,0-.49Zm-58,0a.82.82,0,0,0-.82.81.82.82,0,1,0,1.64,0A.82.82,0,0,0,37.69,82.43Zm88.73,0c.12,0,.32.45.65,1.36.72,2,1.34,2.86,2.08,2.86a1,1,0,0,1,.69,1.8c-1.46,1-3.37-1.48-3.51-4.6C126.29,83,126.31,82.49,126.42,82.48Zm-7.69,1h0l-.43,1.65s-1,1-1.71,1.58c-1.13,1-1.4,1.17-2.29.86-1.37-.47-2.73-.9-4.16-1.33l-3.3-2.74,7.53,3s.66.19.89,0c1-1,2.06-1.75,3.47-2.93Zm7.1,1.55c.1,0,.19.1.26.4.34,1.55.84,2.67,1.25,2.84a.82.82,0,0,1,.51,1.15c-.64,1.35-2.33-1-2.33-3.28C125.52,85.5,125.68,85.07,125.83,85Zm-27.19.11c.1,0,.24.13.48.36,1,1,1.35,3.93.52,4.77-1.21,1.21-2.5-.59-1.33-1.85.31-.34.31-.36.24-1.84C98.5,85.55,98.49,85.15,98.64,85.14Zm-63.1.28-.82,2.71-2.6.67.61-2.22Zm3.11.28a1.09,1.09,0,0,1,.69.25A2.36,2.36,0,0,1,40,89a2.24,2.24,0,0,1-2.38,1.13,2.16,2.16,0,0,1-2.07-2.29,2.25,2.25,0,0,1,.74-1.68c.31-.22.57-.13.84.32s.67,1.42.67,1.42A8.66,8.66,0,0,1,38,86.37C38.07,86,38.33,85.71,38.65,85.7Zm2,.24,1.89.64.74,2.57-2.11-.82Zm107.5.47A35.58,35.58,0,0,1,153,90.18l-.06,33.47-6.11-3.8c.64-5.48,1.06-11,1.8-16.43.45-5.17,1.44-6.65-2-8.85,3.82-1.81,2.7-5.85.34-7.49Zm-30.32.13-.35,1.53c-1.22,2.1-2.32,2-4.19,1L111,87.17a32,32,0,0,1,3.66,1.22,1.24,1.24,0,0,0,1.46-.38c.58-.52,1-.91,1.67-1.47Zm-17.33.39a1.09,1.09,0,0,1,.64.41c.77.83,1,1.66.9,3.68-.15,1.45-.08,2.52-1.26,3.33a2,2,0,0,1-2,0c-1.07-.72-.47-2.15.93-2.22.88,0,1.25-2.92.74-4.73-.07-.28,0-.46.08-.47Zm24.55.3c.17,0,.48.44.66,1.16a2.65,2.65,0,0,0,1.2,1.92c.74.38,1,1.1.5,1.53-.93.85-1.89-.17-2.2-2.35C125.19,89.25,124.76,87.26,125,87.23Zm20.13.36a3.14,3.14,0,0,1,3.27,3.27,3.41,3.41,0,0,1-2,3.13c-3.07.9-4.75-1.15-4.72-3.16a3.36,3.36,0,0,1,3.46-3.24Zm-42.82.77a1.26,1.26,0,0,1,.61.39c1.76,1.76,1.84,5.53.12,5.53-2.07-.68-.46-1.9-.42-2.22a8,8,0,0,0-.44-3.34C102.17,88.45,102.24,88.36,102.35,88.36Zm42.93.22c-.37,0-.34.36.33,1a1.67,1.67,0,0,1-.92,3c-.72,0-.9.49-.27.74,2.41,1,4.06-2.7,1.9-4.23A2.28,2.28,0,0,0,145.28,88.58Zm-92.23.49c1.94.67,2.61,4.37,2.68,5.68.09,2.27-1,6-1.91,6.73-2.44,1.93-3.59-4.87-1.5-9.25a2.89,2.89,0,0,0,.33-1.74c-.09-.88.06-1.41.4-1.42Zm64.13.36a12.47,12.47,0,0,1-.5,1.72c-.3.7-.52.73-1.22.12-.39-.33-1-1-1-1,.61.09,1.15.41,1.67.15A2.81,2.81,0,0,0,117.18,89.43Zm7.37.06c.14,0,.31.39.55,1.16.63,2.1,1.19,2.89,2,2.89a1.07,1.07,0,0,1,.38,2.1,1.69,1.69,0,0,1-1.27,0c-.93-.25-2.21-3.41-2-5,.09-.76.19-1.13.33-1.13ZM39.13,90.71c.51,0,.71.24,1,.86a5.14,5.14,0,0,0,2,2c1.82.9,3.74,1.6,5.54,2.5,2.34,1.18,4.43,4.78,3,5.15a5.37,5.37,0,0,1-1.65.08,2.93,2.93,0,0,1-.76-.88,9.81,9.81,0,0,0-6.13-4.25c-2.16-.57-4.1-3.24-4.52-4.5-.11-.32-.11-.58.18-.66a6,6,0,0,1,1.34-.29Zm65.85.22c.1,0,.24.11.46.34,1.29,1.38,1.45,3.91.29,4.63s-2.36-.51-1.37-1.6c.43-.48.43-.48.43-1.93,0-1,0-1.42.19-1.44Zm18.77,1.61c.15,0,.39.43.67,1.28.4,1.19.45,1.29.91,1.52.77.4.89,1,.32,1.56-1.05,1.06-2.11-.64-2.11-3.38C123.54,92.86,123.61,92.53,123.75,92.54Zm-16.85.19a1.65,1.65,0,0,1,.57.46c1.58,1.88,1.26,6.27-.5,6.93-.59.22-.77.23-1.13.08-1.32-.57-1.16-2,.46-2.84,1.21-.66.35-4.62.6-4.63ZM26.14,94.11l6.53,3.24s1.78,3.77,2.61,5.19c.56,1,1.69,1.92.52,2.58-2,1.33-3.07,2.09-3,2.91,0,.67.84,1.36,2,2.68,1.61,1.89,1.59,1.45.13,4.34a32.61,32.61,0,0,0-2.07,6.61l-6.58,3.4A40.55,40.55,0,0,1,33,113.53a30.69,30.69,0,0,1-5.22-4.9,38.58,38.58,0,0,1,4.4-4.46,29.22,29.22,0,0,1-6.08-10.06Zm82.48.06h0c.27,0,.9.7,1.45,1.79.71,1.41.78,3.19.15,3.82-1.09,1.09-2.51-.31-1.49-1.47.72-.52.52-1.82,0-3.17-.26-.64-.26-1-.1-1Zm-83.2.63A62.3,62.3,0,0,0,31,104.13l-4.24,4.46a44.53,44.53,0,0,0,5.11,5c-2.73,3-4.52,7.3-6.31,11.32Zm97.6.08c.15,0,.36.45.57,1.33.28,1.11.46,1.39,1.11,1.67,1,.44,1,1.43,0,1.79a1.45,1.45,0,0,1-1.35-.72,5.42,5.42,0,0,1-.56-2.49c-.06-1.06,0-1.59.19-1.58Zm22.23.54a4.32,4.32,0,0,1,1.3.13c1.61.45,2.19,2.06,1.88,5-.42,4-.91,8.43-1.31,12.1-.47,4.23-.85,6.91-.85,6.91l-.39-.3s.11-2.29.26-3.69c.36-3.16.56-5.92.86-9.08.68-7,.52-9.24-.75-9.89-1-.5-1.4-.2-.68.48,1.38,1.07,1.34,1.51-.14,18.8-.15,1.79-.21,3-.21,3l-1.88-1.16s-.14-1.48-.31-3.72c-.42-4.21-.67-8.71-.95-12.75-.3-4.31.5-5.81,3.17-5.92Zm-34.54.64c.46.16,1.36,1.84,1.42,2,.2.57,1.13,4.82-1.25,3.6a.86.86,0,0,1-.2-1.46,3,3,0,0,0,.38-2.74C110.9,96.69,110.71,96.06,110.71,96.06Zm-69.61.66a.49.49,0,0,1,.24,0,11.34,11.34,0,0,1,5.65,3c.88.94.84,1.7-.55,1.78s-1.35.42-2-.13a3.42,3.42,0,0,0-1.48-.88c-1.88-.29-2.9-3.61-1.87-3.81Zm81.53,1.11a12.72,12.72,0,0,1,.41,1.5c.3,1.35,1.22,2.34,2,2.22.56-.07,1.33.1,1.41.77a1.1,1.1,0,0,1-.74,1.34,1.93,1.93,0,0,1-2.06-.44c-1.24-1.17-2-5-1.07-5.39Zm-9.83,0a.23.23,0,0,1,.14,0c.72.27,1.65,2.59,1.74,4.43,0,1.31-.2,3-1.33,3.6a1.26,1.26,0,0,1-1.79-.45,1.35,1.35,0,0,1,.72-1.94c1-.45,1.34-2.5.72-4.5,0-.29-.42-1-.2-1.15ZM36,98.85l5.31,2.69a13.26,13.26,0,0,0-1.8,3.16A23.59,23.59,0,0,1,36,98.85Zm78.93.92a2.54,2.54,0,0,1,.66.55c1.33,1.29,1.9,3.62,1.1,4.47-.64.69-1.62.64-1.81-.08a2.78,2.78,0,0,1,.47-1.32,4.64,4.64,0,0,0-.22-2.8C115,100.15,114.82,99.77,114.94,99.77ZM78,100.3l6,.2,20.12,18.16-1.89,0L83.77,101.74H78Zm-34.72,1c.78.05.49,1.77.12,2.25a14.53,14.53,0,0,0-1.51,12.34c1.07,2.9-1.27,3.07-2.22,1.16a10.91,10.91,0,0,1-.94-6.56c.56-3.18,1.55-8.64,4.38-9.18A.5.5,0,0,1,43.3,101.32Zm77.86,1.57c4.2.16,5.4,6.16,4.69,9.46-.61,2.86-1.74,4.28-3.34,4.87-6.57,2.43-9.43-10.84-3.34-14A5.76,5.76,0,0,1,121.16,102.89Zm-43.51.79,5.67.12c5.16,4.7,10.71,9.09,16.23,14.81H96.77L82.29,105.42l-4.94-.13Zm43.21.88c-3.06.12-3.31,4.28-3.22,5.85.23,2.27,1.13,5.62,4,5.36,2.11-.21,3.09-2.71,2.9-5.72C124.36,107.23,123.2,104.56,120.86,104.56Zm-43.72,1.38,5,.11,13.6,12.56H93.55c-4.09-3.68-8.13-7.72-11.86-10.87l-5.16-.2Zm43.26.08a.71.71,0,0,1,.25,0c1.2.29,1.12,2.65.55,3.38s-1.71-.53-1.82-2a1.36,1.36,0,0,1,1-1.43Zm-81.59.35A25,25,0,0,0,38,111l-2.08-2.65Zm83.71,2.55a.92.92,0,1,1-.91.92A.92.92,0,0,1,122.52,108.92Zm-41.75.46,9.91,9.33-2.82,0-8.13-7.38-5.15-.19,1-1.76Zm38.52.16a.92.92,0,1,1-.92.92A.92.92,0,0,1,119.29,109.54Zm11.79,0a191.68,191.68,0,0,0,21.65,14.79,9.55,9.55,0,0,1-2.59,1.4,124.48,124.48,0,0,1-18.65-12.5c-4.43,6.53-13,18.43-20.52,23.92-4.78,3.42-7.18,7.64-7.17,12.57,0,5.1,1.82,8.42,6.83,12.6,3.23,2.7,6.76,6.14,6.76,6.14l-2.09,1.75c-6.91-5.95-15.73-12.18-14-22.32.65-4.6,2.19-7.91,6.54-11.46a47.8,47.8,0,0,0,4.84-3.78C126.24,118.16,131.08,109.56,131.08,109.56ZM121.2,111c.34,0,.63.56.82.92.51,1,.79,2.44-.81,2.53-.95.05-1.5-1.53-.68-2.94C120.77,111.1,121,111,121.2,111Zm-46.9.64,5.35.16s5.27,4.6,7.93,7.15h17.91c9.84,0,17.94,0,18,.09s-1.27,2-1.27,2l-59.06,0s3.65-3.25,5-4.16a29.4,29.4,0,0,0,6.21-5.27Zm-36.19,2.22a21.84,21.84,0,0,0,1.38,4.21l-4.1,2.18a45.38,45.38,0,0,1,2.72-6.39ZM152,125.75a45.94,45.94,0,0,1-5.53,10.2c-.51.66-.86,1.17-.86,1.17l5,4.82-4.36,4.65a28.43,28.43,0,0,1,5.61,9.57,38.86,38.86,0,0,1-5.53-2.61c-.69-1.74-1.39-3.57-2.17-5.16-1.78-3.61-1.75-3.26-.3-4.32,2.12-1.56,2.76-1.92,2.21-2.7-.39-.55-2.9-3.54-3.05-3.63s-.13-.58.3-1.29a40.4,40.4,0,0,0,3.38-8.06Zm1,.18.13,30.37c-1.8-3.63-3.67-7.33-5.76-9.65-.08-.16,4.55-4.69,4.55-4.68-1.69-1.58-2.69-2.52-5.06-4.71C149.1,133.93,150.93,129.57,152.93,125.93ZM25.53,127l5.76,3.35C31,134.62,30.6,140.24,30,146c-.5,4.45-.7,6.5.09,7.74a9.55,9.55,0,0,0,2.46,1.88c-3,1.22-4.19,4.85-.8,7.56a15.53,15.53,0,0,0-1.19,1l-4.72-3.54Zm90.15,1.53a35,35,0,0,1-5.42,5.15,33.87,33.87,0,0,0-5.38,4.49s-3.39,0-5.69-.11L91.27,131c-9.1-.11-21.48.12-35.72-.05l1.58-2.22Zm28.24,1.39a25.52,25.52,0,0,1-3.53,7,16.67,16.67,0,0,0-1.29-4.49ZM32,130.72l.69.49s-.41,5.24-.55,6.78c-.24,2.83-.36,5.38-.61,8.27-.49,5.73-.41,6.57.71,7.46.87.65,1.45.35.69-.47a2.31,2.31,0,0,1-.66-1.59,24.3,24.3,0,0,1,.07-4.34c.85-15.15,1-15.66,1-15.66l1.72,1.11c-.1.24,1.58,15.27,1.41,19-.2,4.37-6.07,3.41-6.35.16-.12-.74,1-13,1-13Zm47.88.88,2.3.07,14.22,13.09,4.84.1-.42,1.65H96.16Zm8.81,0h2.23L99.08,139l5,.08-1,1.42-5-.15Zm-2.77,0,12,10.86,4.1.22-.63,1.48L96.57,144,83.06,131.64Zm-11.6,0h2.5l18.8,16.95,4.92.09-.07,1.53-5.93,0Zm62.87.46a1.31,1.31,0,0,1,.39,0c1,.25,1.48,1.21,2.18,4.78.82,4.17-.95,10.93-3.16,12.2-1.15.9-2.39-.06-1.58-1.23,2.64-3.85,3-10.14,1.42-13.65-.43-1-.1-2,.75-2.12Zm-79.36.65c6,.07,7.55,12.43,1.65,14.16-3.84.57-5.82-2.91-6.38-6C52.47,137,54.18,132.71,57.85,132.76Zm.07,1.61c-3.12-.18-3.65,3.89-3.38,5.8.36,2.48,1.9,5.31,4.12,5.07,2.94-.32,3.31-4.24,3-6.21-.36-2.38-1.67-4.54-3.76-4.66Zm-.16,1c.84,0,1.46,1.11,1.23,2.5-.15.9-.49,2-1.5,1.26a3.71,3.71,0,0,1-.78-2.64C56.78,135.86,57.09,135.38,57.76,135.36Zm82.83,2.86,2.82,3.26-3.2,2.25A15,15,0,0,0,140.59,138.22Zm-80.78.29a.93.93,0,1,1-.92.93A.93.93,0,0,1,59.81,138.51Zm-3.29.57a.92.92,0,1,1-.92.92A.92.92,0,0,1,56.52,139.08Zm2,1.18c.38.05.69.63.91,1a2.33,2.33,0,0,1,.25,2.55c-.88,1.05-2.26-.07-2.09-1.7,0-.77.21-1.63.76-1.79A.49.49,0,0,1,58.48,140.26Zm7.78,3.61a1.22,1.22,0,0,1,.55,2.32c-.74.5-.9,2.11-.45,4.34.37,1.61.18,1.86-.78.41-1.64-2.63-1.22-7.07.68-7.07Zm-3.09.85c1.16,0,1.53.84.86,1.52a2.73,2.73,0,0,0,.08,2.55c.62,1.38.48,1.8-.69.47C61.81,147.54,61.83,144.77,63.17,144.72Zm76.48.67a30.9,30.9,0,0,1,3.54,6.62l-5.7-2.62Zm-85.4.59c2.47,0,3.31,6.11,2.24,6.44-.41-.46-.6-2-.93-2.62s-.48-1.23-.9-1.2c-2.41.2-2.3-2.1-.92-2.54A1.59,1.59,0,0,1,54.25,146Zm14,2.22c.69.05.53,1.2.13,1.9-.64,1.1-.12,1.93,0,3.22.07.58.1.74-.38.29-1.14-1-1.74-4.4-.72-5a1.84,1.84,0,0,1,1-.38Zm57.08.29c.7-.07,1.35.69,1.57,1.2a14.55,14.55,0,0,1,.18,5.47c-.35,2.3-.9,4.41-1.13,6-.81,1-2.79-2.43-3-5.11-.31-2.12.35-6.68,2-7.46A.91.91,0,0,1,125.37,148.49Zm7.74.36c.5,0,.39.14.76.53a2.91,2.91,0,0,0,1.58,1c1.63.51,3.42,2.79,2.73,3.48-.54.44-2-.38-2.54-.56l-1.52-.52c-1.36-.46-3.33-3-2.72-3.5A4,4,0,0,1,133.11,148.85Zm-4,.41c1,0,1.28.26,1.86,1.35a7.27,7.27,0,0,0,4.76,3.41c3,.91,5.51,2.62,5.38,5.8a7.28,7.28,0,0,0-2.11.27,6.41,6.41,0,0,0-4.6-4c-4-.92-7.79-5-6.72-6.65a3.47,3.47,0,0,1,1.43-.16Zm-69.65.21L94.37,179.9c-14.72-5.48-28.22-5.36-41.28-3.33Zm-5.18.52c1.34.14,1.7,2,1.76,3.17,0,1.67-.47,1.61-.74,0-.12-.71-.34-1-.92-1.16C53.11,151.61,53,150,54.31,150ZM73,150a1.45,1.45,0,0,1,1.34,1.46c-.07,1-1.37,1.15-1.64,1.38-.65.57-.56,2.21-.28,4.13.21,1.15-.07,1.09-.68.2a7.08,7.08,0,0,1-.33-6A1.61,1.61,0,0,1,73,150Zm-2.91.16c.9,0,.6,1.17.4,1.67s-.35,2.15,0,3.33c.17.66-.15.71-.59.19-1.37-1.73-1.3-4.84-.24-5.13a1.41,1.41,0,0,1,.47-.06Zm-16,2.45c.81,0,1.25,1.74,1.32,2.61.13,1.69-.35,1.85-.86.23a2.06,2.06,0,0,0-.51-.87c-.95-.66-1.12-1.16-.57-1.71a.83.83,0,0,1,.62-.26Zm6.43,1.13L55.79,174c11.64-1,16.93-1.19,29.37,1.25Zm13.81.3a1.43,1.43,0,0,1,.29,0c.72.18,1,1.11.13,2-.27.35-.52.89-.19,2.32.45,1.95-.31,1.33-1.24-.52C72.76,156.78,73,154.06,74.33,154.06Zm-22,.1c1.27,0,2.44,2.05,2.46,4.3,0,1.82-.25,1.69-.92-.05-.48-1.15-.86-1.56-1.72-1.86-1.6-.56-1.46-2.39.18-2.39Zm8.55.58,21.9,19.17a93.21,93.21,0,0,0-26.33-.47Zm18.23.72c1.71,0,2.39,2.13.28,2.87-1.25.45-.72,3-.49,4.5.09.57-.09.61-.45.1C77.16,161,76.42,156,79.14,155.46Zm-2.84.8c.74,0,1.16.72.52,1.59a2.39,2.39,0,0,0-.14,2c.56,2,.7,2.43-.46,1.38-1.22-1.29-1.76-3.86-.73-4.62a1.64,1.64,0,0,1,.81-.33Zm-42.77,0c2,0,3.52,1.3,3.44,3.14a3.3,3.3,0,0,1-3.21,3.41,3.24,3.24,0,0,1-3.41-3.27,3.08,3.08,0,0,1,3.18-3.28Zm0,.81a2.46,2.46,0,0,0-1.27,4.49c.82.61,1.48.44.8-.21a2.07,2.07,0,0,1,.92-3.6C34.78,157.57,34.46,157.09,33.5,157.08Zm28.33.53L59,171.21a77.6,77.6,0,0,1,18-.11Zm-9.43.51c1.39-.07,1.8,2,1.81,2.87,0,1.08-.13,1.64-.33,1.06-.47-1.36-.93-2.11-1.43-2.11a1.32,1.32,0,0,1-.73-.43A.85.85,0,0,1,52.4,158.12Zm9.69.54,1.85,1.58c-1.19-.53-2.2.82-2.2.82Zm18.64.91c.64.05,1.09.67.36,1.66-.53.68-.53,2.1-.11,3.76.11.47-.32.12-.75-.43a4.43,4.43,0,0,1-1.07-3.27C79.24,160,80.09,159.51,80.73,159.57ZM51.88,160c1.2.14,1.65,2.64,1.62,3.39s-.22,1.33-.37.85a6.61,6.61,0,0,0-1.5-2.89c-.94-.59-.67-1.27.25-1.35Zm88.86.35a2.59,2.59,0,0,1,2.64,2.45,2.34,2.34,0,0,1-.86,2.08c-.56.29-.9-.11-1.23-1.12l-.33-1s-.2.94-.27,1.13c-.43,1.3-1.84,1.31-2.42-.14-.63-1.69,1.12-3.42,2.47-3.36Zm-77.18.57a11,11,0,0,1,2,.73l1.62,1.43s-1.49-.65-2-.83c-1.26-.45-1.23-.45-2.25.38s-1.9,1.48-1.9,1.48l.33-1.85S62.92,160.94,63.56,160.94Zm71.68.26,2.22,1,.47,2.29-2.05-.5Zm-84.8,0c1.54.09,2.26,2.66,2.48,4.23.24,1.95-.3,2.12-.83.25-.45-1.59-.9-2.17-1.67-2.17a1.16,1.16,0,0,1-.69-2.18A1.73,1.73,0,0,1,50.44,161.24Zm35.87.09a1.29,1.29,0,0,1,0,2.54c-1,.24-1,1.78-.71,4,.06.52.2,1.14.17,1.22-.15.41-.66-.21-1.34-1.65-1-2.63-.7-5.56,1.12-6.06a1.82,1.82,0,0,1,.71-.08Zm60.22,0-.61,2.66L144,163.9l-.07-1.63Zm-63.84.1c.85-.05,1.16,1,.72,1.63-1,1.49-.11,2.86.12,4,0,.68-.83,0-1.33-1-1-2.06-1.11-3.72-.17-4.47a1.55,1.55,0,0,1,.66-.22Zm-18.5,1.27a29,29,0,0,1,4.47,1.63l2.4,2.12s-2.11-.78-3.57-1.4c-3.3-1.39-2.82-1.44-5.43.55-.75.58-1.53,1.23-1.53,1.23l.32-1.7a20.57,20.57,0,0,1,2.21-1.87C63.59,162.92,63.82,162.73,64.19,162.74Zm-30.66.8h0a3.38,3.38,0,0,1,3.2,2.8,7.48,7.48,0,0,1,0,2.5c-1.14,8.77-1.66,16.92-2.68,25,0,.16-.21,1.07-.21,1.07a10.25,10.25,0,0,1-.3-1.06c-1.24-7.5-2.05-15.73-3.09-23.17-.24-2.77-.95-6.4,2.55-7.11a2.64,2.64,0,0,1,.55-.06Zm17.21,1c1.07,0,1.54,3.49,1.54,3.85,0,.65-.36.38-.44,0a5,5,0,0,0-1.28-2.18c-.56-.46-.7-1.07-.32-1.45A.71.71,0,0,1,50.74,164.52Zm-17.31,0a2.43,2.43,0,0,0-1.94,1.2c-.63,1.35-.47,4.09.75,12.3.1.69.24,1.83.31,2.54a18.07,18.07,0,0,0,.71,4.24c.39.61.44-.05.16-2.18-.15-1.09-.34-2.76-.44-3.7-.54-3.9-.66-6.67-1-10.23-.17-1.74.53-3,1.85-3.38.71-.19.75-.51.09-.73a1.32,1.32,0,0,0-.49-.06Zm107.62.09,2.25,2.48-2.63,2.73-2.47-2.72Zm-5.2,0a2.89,2.89,0,0,1,2,.74c.7.7.67,1-.51,1.39l-1,.38s.53.21.92.32c1.13.38,1.07,1,0,1.8-1.4,1.05-3.66-.34-3.64-2.19a2.25,2.25,0,0,1,2.13-2.44Zm9.11,0a2.46,2.46,0,0,1,1,4.68c-.9.45-2.4.24-2.77-.48a.84.84,0,0,1,.47-1.13,9.34,9.34,0,0,1,1.34-.54s-1.31-.25-1.67-.87C142.49,165,144,164.67,145,164.64Zm-80.21.17c.64,0,1.75.53,4.48,1.63,1.5.61,3.23,1.29,3.23,1.29l2.45,2.18s-3.36-1.06-4.53-1.65c-.25-.13-.81-.37-1.24-.53l-2.36-.93c-1.88-.75-1.9-.76-2.53-.23-.26.23-.92.75-1.46,1.15L61.05,169c-.49.38-1.12,1-1.12,1l.4-2.1s.35-.34,1-.83l1.94-1.49c.57-.43.86-.75,1.5-.76Zm22.62.87a.41.41,0,0,1,.19,0c1.45.41,1.48,1.46.71,2s-.72,1.71-.26,3.09a3.67,3.67,0,0,1,.25.86c-.67.67-2.43-3.56-2-4.82.22-.66.68-1.16,1.12-1.18Zm53.46.79a.82.82,0,0,0-.82.81.82.82,0,0,0,.82.82h0a.82.82,0,0,0,.82-.82A.82.82,0,0,0,140.83,166.47Zm-90.71.41a1.41,1.41,0,0,1,1.27,1.06c.73,2,.28,4.53-.46,2.2a7.61,7.61,0,0,0-1.53-2.24C49,167.43,49.72,166.9,50.12,166.88Zm15.06.06a4.5,4.5,0,0,1,1.39.45c.64.26,2.44.86,3.47,1.25,1.59.62,3.25,1.43,3.25,1.43l-3.6-.2s-1.22-.41-2-.71c-2.64-1.08-2.49-1.08-3.8-.08-.47.36-1.06.93-1.06.93l-1.83.1a17.24,17.24,0,0,1,2.1-1.84c.41-.3,1-.73,1.23-1a1.15,1.15,0,0,1,.8-.37Zm28.47.71A1.47,1.47,0,0,1,94.83,169c.06.66-.68,1.31-1.61,1.49a11.28,11.28,0,0,0-.43,4.89c.26,1.17-.23,1.2-.73.08-.82-1.81-2-7.19,1.28-7.82a1.66,1.66,0,0,1,.31,0Zm-3.79.33c.9,0,.93,1,.62,1.67a3.91,3.91,0,0,0-.33,2.79c.26,1.27.31,1.59-.41.79-1.4-1.87-1.61-4.86-.32-5.19a1.53,1.53,0,0,1,.44-.06Zm-41.66.24h.29c2.18.35,2.83,4.08,2.52,5.68-.58,1.93-.55.62-.75-.18-.54-2-1.16-3-1.83-3.11C46.75,170.35,46.87,168.27,48.2,168.22Zm17.19.81a9.22,9.22,0,0,1,2.56.84l-4,0s.89-.92,1.48-.88Zm76.42.57c.28,0,.65.3,1.1.75,1,1,.56,2.66-.8,3.46a2.47,2.47,0,0,1-3.41-3.3c.64-1.19,1.42-1,2.08.71.13.2,0-.21.23-.73S141.54,169.62,141.81,169.6Zm-3.6.12-.64,2.59L135,173.57l1-3.2Zm5.44.44,2.08.17,1.16,3.37-3-1.28Zm-49.22,1.91c1.51.06,1.67,1.49.8,2.12a2.52,2.52,0,0,0-.56,2.23c0,.48.14,1.07.14,1.13,0,.23-.21.2-.47-.08-1.6-1.75-1.38-5.47.09-5.4Zm-45.84.56c1,0,2,2.75,1.52,3.81-.34.62-.67.46-.79-.26a1.52,1.52,0,0,0-1.16-1.36C47,174.46,47.4,172.63,48.59,172.63Zm48.16,1.64a2.39,2.39,0,0,1,.45,0,1,1,0,0,1,.14,1.7c-.52.37-.65.68-.73,1.67.17,2.27-1.35.83-1.22-1.23.08-1.41.4-2.13,1.36-2.16Zm-49,.72c.69,0,1.5,1.24,1.32,2s-.39.48-.81.05a2.68,2.68,0,0,0-.7-.31.86.86,0,0,1,.19-1.7Zm19.58.95c9.32,0,19,1.44,27.06,4.66-.58,1.09-1.07,2.1-1.57,3.06-.16-.36-.33-.73-.5-1.09l.18-1.35-1.25.58-1.37-.14c.22.4.42.81.62,1.21l-.15,1.35c.39-.21.8-.41,1.2-.6l1.2.17c-.29.55-.59,1.1-.94,1.63-9.5-3.13-19.75-5.46-36.79-2.93l-1.24-1c.2-.33.4-.66.61-1q.62-.28,1.23-.54l-1.12-.76c-.18-.41-.37-.83-.56-1.24-.26.38-.51.76-.76,1.15-.41.19-.83.39-1.24.6.4.23.79.46,1.17.7l.41.86c-1.16-.88-1.76-1.33-4.14-3.23a74.89,74.89,0,0,1,18-2.16Zm31.25.42c.89,0,1.44,1,.79,1.43-.46.3-1.48.38-1.68.14C97.31,177.42,97.91,176.36,98.62,176.36ZM67,176.92l-1,1c-.44.1-.89.21-1.33.33l1,.93c.11.44.22.88.32,1.32l.93-1c.44-.11.88-.2,1.33-.3l-1-1Zm-4.34.09c-.31.34-.61.68-.91,1l-1.32.4c.36.29.7.58,1.05.88l.39,1.3.87-1,1.31-.36c-.34-.31-.67-.61-1-.91C62.89,177.88,62.76,177.45,62.64,177Zm8.66,0-.62.57-.39.36-1.34.26.94,1c.09.45.17.89.26,1.34l.41-.4.57-.53,1.33-.24-.92-1Zm-13,.31c-.29.36-.57.72-.84,1.09l-1.28.49,1.1.8c.16.42.32.84.47,1.27.26-.37.53-.72.8-1.08l1.27-.45-1.06-.84C58.61,178.21,58.45,177.79,58.3,177.36Zm17.31,0-1,.88-1.36.2q.47.51.9,1c.07.45.13.9.19,1.35l1-.88,1.35-.17-.87-1.05-.18-1.35Zm4.31.56c-.37.27-.74.54-1.1.82l-1.37.13c.29.35.57.71.84,1.06l.12,1.36,1.07-.83,1.34-.09c-.26-.37-.53-.73-.8-1.09,0-.46-.07-.91-.1-1.36Zm4.27.81L83,179.5l-1.37.05.77,1.11c0,.45,0,.91,0,1.36l1.11-.76h1.35c-.24-.38-.49-.76-.74-1.14,0-.45,0-.91,0-1.36Zm4.21,1.09-1.2.67c-.45,0-.91,0-1.37,0,.24.38.48.77.7,1.16,0,.45,0,.9,0,1.35l1.16-.68,1.34.09c-.21-.4-.43-.8-.65-1.19,0-.46,0-.91.07-1.36ZM68,182.05a65.63,65.63,0,0,1,23.39,4,11.88,11.88,0,0,1-1.17,2.08,61.68,61.68,0,0,0-18.55-3.81,9.82,9.82,0,0,1-3.23-.39c-4.22-1.39-8-2-11.38.06l-1.41-1a78.2,78.2,0,0,1,12.35-1ZM31,193.3a2.27,2.27,0,1,1-2.26,2.27A2.26,2.26,0,0,1,31,193.3Zm65.4.06c.71.44,3.35,1.61,3.35,1.61L81.23,228.56l-4.48,0Zm-59.74.06a2.27,2.27,0,1,1-2.26,2.27A2.27,2.27,0,0,1,36.69,193.42Zm63.7,1.77c.49.27,2.3.57,2.45.92.07.18-.07.52-.11,1a5,5,0,0,0,.82,3.2c1,1.47-.09.8-1.15.79-2.38-.62-5.42,2.64-4.26,6,.26.74.21.8-1.07,1.19A4.64,4.64,0,0,0,94.3,215c.73,1.43.75,1.36-.53,1.47-3.55.29-5.61,3.44-4.12,6.67.23.5.09.63-.69.78-2.42.44-3.51,2.47-3.81,4.7l-3.21,0Zm3.06,1.19,6.16,1.68c-2.56,8.71-2.91,18.82.16,30.52l-14.15,0c2-1.77,1.19-4.21-1.11-4.75,2.23-1.28,2.23-4.69-.44-5.1-2.35-.37-3.56,1.87-2.52,4.11l-1,.28a4.86,4.86,0,0,1-.56-.87c-.88-2.59,1-5.16,4.13-5.15,1.95,0,2.36-.54,1.28-1.75A3.91,3.91,0,0,1,96.6,209a2.17,2.17,0,0,1,1.84-.18l.06,1.42-.84.1c-2.78.45-2.26,4.89.56,4.85a2.69,2.69,0,0,0,2.67-2.9v-1.18c1.43,2.45,3.88,2.62,4.92.63,1.23-2.34-1-3.81-3.23-3.57,0,0,.47-.31.76-.46a2.48,2.48,0,1,0-3.35-1.27,6.6,6.6,0,0,0,.32.75l-1.08.27a1.64,1.64,0,0,1-.35-.36c-1.85-2.88,1.12-6.06,4.85-5.34,1.36.43,1.32-.52.55-1.38-.82-1.23-1.44-2.62-.83-4Zm-69.57,1.25,3.24,5.71-3.62,6.57-3.59-6.15Zm-.31,3-2.25,3.1,2.2,3.55,2.08-3.6Zm-.1,1.17,1.46,1.95-1.47,2.41L32,203.87Zm66.78,6.16A1.23,1.23,0,1,1,99,209.16,1.23,1.23,0,0,1,100.25,207.93Zm-8.7,15.47a1.28,1.28,0,1,1-1.27,1.27A1.27,1.27,0,0,1,91.55,223.4Zm-1.93.85h0a2.72,2.72,0,0,0,.28,1.62c-1.84.11-2.33,1.52-2.5,2.71H85.75c.27-4,3.75-4.11,3.87-4.32Z"/><path id="path153-6-3-1-9-55-1-6" d="M47.88,26.16C40.5,36.68,32.6,42.74,32.47,51c0,2.66,1.39,7.18,5.9,8,2.92.56,6.94-1.8,7-6.61,0-1,1-.93,1,.38A27.31,27.31,0,0,1,43,64.56h9.67a27.44,27.44,0,0,1-3.35-11.8c0-1.31,1-1.33,1-.38.09,4.81,4.11,7.17,7,6.61,4.5-.86,5.94-5.38,5.9-8-.13-8.21-8-14.27-15.41-24.79Z"/><path id="path153-6-3-1-8-6-8-8-0" d="M130.7,223.29c-7.38-10.52-15.27-16.58-15.4-24.79,0-2.66,1.39-7.18,5.89-8.05,2.92-.55,6.95,1.81,7,6.61,0,1,1,.94,1-.37a27.12,27.12,0,0,0-3.35-11.8h9.67a27.12,27.12,0,0,0-3.35,11.8c0,1.31,1,1.33,1,.37.08-4.8,4.11-7.16,7-6.61,4.5.87,5.94,5.39,5.89,8.05-.13,8.21-8,14.27-15.41,24.79Z"/></g></g></g></svg>