<svg xmlns="http://www.w3.org/2000/svg" viewBox="0 0 178.58 249.45"><defs><style>.cls-1{fill:#fff;}.cls-2{fill:#131f67;}.cls-3{fill:#e2cf00;}.cls-4{fill:#d40000;}</style></defs><g id="Layer_2" data-name="Layer 2"><g id="svg8"><g id="g6583"><path id="rect7467-2-2" class="cls-1" d="M8.54,0H170a8.53,8.53,0,0,1,8.54,8.53V240.92a8.53,8.53,0,0,1-8.54,8.53H8.54A8.53,8.53,0,0,1,0,240.92V8.53A8.53,8.53,0,0,1,8.54,0Z"/><path id="path7499-2-5" d="M13.77,40c-3.44,4.38-7.13,6.91-7.2,10.33a3.33,3.33,0,0,0,2.76,3.35,2.86,2.86,0,0,0,3.28-2.75c0-.4.48-.39.47.16A10.44,10.44,0,0,1,11.52,56H16a10.44,10.44,0,0,1-1.56-4.91c0-.55.47-.56.46-.16a2.86,2.86,0,0,0,3.29,2.75A3.32,3.32,0,0,0,21,50.31c-.06-3.42-3.75-6-7.2-10.33Z"/><path id="path7503-7-0" d="M164.81,209.47c-3.45-4.39-7.14-6.91-7.2-10.33a3.32,3.32,0,0,1,2.76-3.35,2.85,2.85,0,0,1,3.28,2.75c0,.4.47.39.47-.16a10.54,10.54,0,0,0-1.57-4.91h4.52a10.54,10.54,0,0,0-1.57,4.91c0,.55.48.56.47.16a2.85,2.85,0,0,1,3.28-2.75,3.32,3.32,0,0,1,2.76,3.35c-.06,3.42-3.75,5.94-7.2,10.33Z"/><path id="path39-5-1-0" d="M14.41,34.56h2.66l-3.91-9.75-3,4.12,0,5.63h2.1v2.91H4.92V34.56H7.35v-21H4.92V11.07h7.49v2.62H10.34l0,10.22,6.53-10.3H14.52V11.07h8v2.54h-2.1L15,22l5.26,12.54h2.34v2.9H14.43l0-2.91Z"/><path id="path39-5-7-0-0" d="M164.17,214.89h-2.66l3.91,9.74,3-4.11,0-5.63h-2.1V212h7.38v2.91h-2.43v21h2.43v2.54h-7.49v-2.63h2.07l0-10.21-6.53,10.3h2.31v2.54h-8v-2.54h2.1l5.38-8.42-5.26-12.54H156V212h8.19l0,2.91Z"/><path id="path4096-2-4-0" class="cls-2" d="M23.69,19.12h131.2v211.2H23.69ZM116.81,229c-4.87-8.89-12.59-23.36-12.82-23.47-2.85,1.52-31.92,5.43-45.91,1.64-4.78,7.22-9.48,14.37-13.64,21.52ZM72.16,202.4c-.73,0-1.55.47-1.4.08.09-.23.3-2.51.39-3.32.22-.36.52.59.49,1.47,0,.51.22.14,1.88.23a22.62,22.62,0,0,1,3.86.57c2.12.46,6.22.12,8-1.16,1-.69,1.32.06.34.8-4.43,3.37-7.94,2.08-11.78,1.52a6.09,6.09,0,0,0-1.75-.19ZM74,199.21a.68.68,0,0,0-.81,0c-1.35.63-1-.28,0-1.2.45-.42.43-.63.09-1.07-.17-.23-.45-.25-.39-.59.3-1.44,2.32-3.62,4.57-4.6.94-.4,1.09,0-.1.74-1.82,1.08-2.41,2-1.38,1.62,2-.72,3.82-.21,6.38,1.07a2.52,2.52,0,0,0,1.69.37c.46-.38.87.08,1.16.32s.22.21.42.16c1.46-.34.58.59-1.41,2.05-3.56,2.53-7.45,3.72-10.2,1.16Zm5.49.62a12.78,12.78,0,0,0,4.32-2.32c1.33-1.17.58-1-.94-.25a12,12,0,0,1-6.23,1.31c-2.07,0-2-.13-2.08.13-.27.91,2.59,1.84,4.93,1.13Zm-4-3.55a2,2,0,0,0,.11-1.09c-.2-.3-.61-.08-1.13.59-.33.41-.28.46,0,.79l.38.24c.45.19.52-.22.61-.53Zm.91.53c.64-2.17,2.07-2.13,3.09-.05h.71c-1.47-4.06-4.33-2-4.43,0a1.09,1.09,0,0,0,.63,0Zm5.34-.36c.67-.38.57-.64-.29-1.08-.61-.32-.93-.38-1-.18a2.9,2.9,0,0,0,.28,1.45C81,196.81,81.34,196.64,81.75,196.45Zm-9.46-6.21c-.12-.2-.1-.57.37-.79,2.89-1.35.78-4.18-1.45-2a2.63,2.63,0,0,1-2.57.5c-.77-.33-.78-1.27.23-1.47a5.28,5.28,0,0,0,1.51-.47c3.88-2.08,5.94,2.45,3.19,4-.57.33-1.17.51-1.28.32Zm-10.88-4.11A2.48,2.48,0,0,1,61.1,182c.94-.64,1.9-.82,4.49.47,1.83.9,2.88-.07,2.83,1,0,.65-.07,1.29-1.13,1.45-1.73.25-2.91-2.1-5.13-1.88a1.26,1.26,0,0,0-.24,2.47c1.54.52.6,1.14-.51.68Zm28.86.38c-.21,0-.3-.57-.18-.85.78-1.88,1.51-3.36,2.23-5.12.57-1.4,1-2,1.21-2s.38.2-.06,1.06c-.59,1.56-2.67,6-3,6.77a.17.17,0,0,1-.19.13ZM77.45,186c-.69-.5-.58-1.24.22-.68,1,.72,2.69-.6,2.35-1.84-.42-1.49-2.4-1.86-4.07-.52-2.62,2.12-5.5,2.23-5.5.57,0-.47-.06-.58,1-.65a8.66,8.66,0,0,0,3.41-1.1c3.2-1.95,6.59-.61,5.89,2.65A2.34,2.34,0,0,1,77.45,186ZM65.74,181.2c-.26,0-.73.26-.87.16s-.22-.78-.44-1.4c-.39-1.1,0-.75.67-.46a3.67,3.67,0,0,0,2.59,0,8.29,8.29,0,0,1,3.56,0,7.13,7.13,0,0,0,3.36-.23c1.35-.42,1-.27.77.56a5.63,5.63,0,0,1-.5,1.45,2.06,2.06,0,0,0-2.24,0,3.38,3.38,0,0,1-2.54.28,1.54,1.54,0,0,0-1.85,0c-1.07.52-1.54-.34-2.51-.39Zm20-2.28c.19-.33.46-.78.72-1.3,2.08-4.13,2.22-5.27.75-6.67-2-1.86-3.64-1-5.53,2.68-.45.91-.73,1.59-.91,1.87s-.46.07-.59-.05,1.86-4.21,2.68-5.07A3.46,3.46,0,0,1,88.76,173c-.13,1.55-.42,2.4-1.84,5.24-.35.71-.65,1.3-.84,1.59-.66.44-.51-.58-.32-.92Zm-19.55-.16c.33-1.47,5-2.15,6.27-.22.12.18,0,.18-.48,0-2.39-.79-2.86-.75-5.16.16-.34.13-.59.19-.63,0Zm18-.28a4.29,4.29,0,0,1,.44-1.21c1.57-3.11,2-3.86,1.52-4.44-.93-1.13-2.18-.14-3.33,3.1-.43,1.21-.73.95-.94.76-.4-.36,1.38-4.14,2.24-4.7,1.94-1.24,3.47.19,2.61,2.73-.67,1.14-1.22,2.9-1.85,3.83-.29.42-.69.29-.69-.07Zm-7-5c-.1-.15.08-.36.76-1.81.92-2,1.21-2.73.83-3.86a2.94,2.94,0,0,0-4.73-1.2,4.48,4.48,0,0,0-1.08,1.56,25,25,0,0,1-1.35,3.16c-.28.29-.68.35-.66-.16a17.5,17.5,0,0,1,1.4-3.48c2.15-4.68,8.36-2.51,6.9,2.42a12.91,12.91,0,0,1-1.52,3.59A.32.32,0,0,1,77.13,173.43Zm-1.44-.86a8.69,8.69,0,0,1,.48-1.21c1-2.6,1-3.39-.48-3.43-.91.12-1,.5-1.85,2.55a7.45,7.45,0,0,1-.56,1.34c-.17.22-.48.09-.61,0-.32-.33,1.11-3.7,1.86-4.33,1.74-1.52,4,.63,2.94,2.57a13.79,13.79,0,0,1-1.21,2.69c-.26.37-.58.32-.57-.14Zm-37-30.33-5.29-.36a47.37,47.37,0,0,1,0,16.34,32.07,32.07,0,0,0-.58,9.86c.28,3.82,1.89,7,2.3,11.11a31.07,31.07,0,0,1-.93,8.92c-1,4.88-.77,5.39-.63,11.12.13,5.31-.36,5.12-.66,4.81a12.69,12.69,0,0,1-.08-2.11c0-1.11-.07-3.84-.13-5.74a38.26,38.26,0,0,1,.6-8.51c.62-2.8,1.31-5.68.88-8.78-.87-3.91-2.09-7.82-2.52-11.6-.53-4.65.77-9.32,1.2-12.7s0-8.91-.88-11.26a6,6,0,0,0-.84-1.8c-.82-.1-2-.16-2.71-.22-.06,22.41,0,44.83,0,67.24l4.93,4.6,5.07-4.84ZM39,168s7.52,4.35,15.81,8.62c-.79-4.89,1.72-5.62,4.07-6.19-.56-9.45,8.05-7.51,9.37.7h.85c1.49-4.09,3-6.92,6.37-7.59,2.63-.52,5.23,1.15,5.89,5.1-.12-.28,8.73-5.22,9,5.22,4-2.51,6.88-.34,8,2.84,1.7-2.6,6-2.71,7.31-2.9-.08-.59,4.94-1.56,7.18-.79,2.74-.35,3.88,1.86,5.24,2.48,2.85-.8,10.49-3.5,9.84-4.88a3.17,3.17,0,0,0,.9.67,9.44,9.44,0,0,0,1.8-.9c-11-12.72-20-37.66-14-60.63-.86-.75.77-.13.39,0,0,0-2.1,10.23-1.84,14.65,24.6,11.77,21.58,36.57,15.28,44.74l1,1.34c.44.3,19.38-10.8,18.76-11.25l3.58-1.8-.58-48.48-14.17-1.09a1.29,1.29,0,0,1,.33-.51c.13-3-.14-7.34,0-11,.06-10.47.16-14,0-14.32-4.37-2.89-10.89-7.12-16.38-9.17.23.06-.09,4.34-.25,4.58-5.14,1.65-2.75,3.75-4.65,6a4.08,4.08,0,0,1-5.7,0c-1.72-1.67-2.53-5.51-2.53-5.51-2.71,2.92-2.15,6.44-5.79,7.77-5.84,2.91-7.7-5.79-7.36-5.59-2.24,2.17-8.52,3.93-9.2-5.23-2.83,2.62-6,1.32-7.34-1.9-1.72.07-3.66,1.42-5.4,2.16a13.46,13.46,0,0,1-5.24,1.11,12.24,12.24,0,0,1-5.24-.3,3.46,3.46,0,0,1-3.22-1.66,2.18,2.18,0,0,0-2.44-.9c-2.81,1.48-5.82,1.84-9.14,3.4-.2.14.3.41.13.36s-1.74.82-1.74.82c16.79,22.18,17.7,44.56,14.18,60.43a1.35,1.35,0,0,0,.15,1.38c-.53-.09-.54.07-.64-.28.35-4.79,1.81-6.87,1.77-14.55-6-3.29-12.84-8.12-15.76-14.08-6.44-10.06-4.31-22.07.51-31.57L46.94,78A107,107,0,0,0,24.56,92.67l.06,47.58,14.46,1.67Zm-7-31.77a1.88,1.88,0,0,0-2.14-.21c-.11.09-.36.6-.43.58-.34-.3-.68-.32-1.19-.86l.69-1.06c.55-.83,1.34-1.13,2.68-1.44.48-.11,1.19-.22,1.44-.32,1-.44,1.36-1.38.34-1-.74.2-1.78.14-1.92-.55a.92.92,0,0,0-1.12-.71,10.18,10.18,0,0,0-2.74,1.27c-.38.23-1.11.76-1.11.76-.12.18-.54-1.14-.15-1.53a2.58,2.58,0,0,0,1.4-.13c1.19-.47,2.34-1.05,3.55-1.52.77-.3.84-.27.64-.82a2.16,2.16,0,0,1-.06-1.23c.14-.37.13-.56-.11-.72-.55-.36-1.85,0-3.68.86a6,6,0,0,0-1.28.67c.23-.59.1-.69.09-1.3a3.49,3.49,0,0,0,2-.52,6.05,6.05,0,0,1,2.4-.69c.37,0,.2-1.41-.22-1.8a2.49,2.49,0,0,0-2.25-.08,3.86,3.86,0,0,0-2.65,1.39c.6-1.64.15-1,1.45-2a16.73,16.73,0,0,0,2.33-.39c.56-.12.65-1.42-.16-2-.5-.44,1.83-.45,1.78-.32s-.05.64.13.78a1.56,1.56,0,0,1,1.08,1.47c1.15,1.9,1.72.71,2.51.06-.17,4.13,1.27,4.6,1.46,4.86-2,3.7-.48,3.79,1.37,4.65a3.54,3.54,0,0,1-1.17.25A5.88,5.88,0,0,0,34.24,134c-.34.29-.35.05-1.71,0a3.11,3.11,0,0,0-2,.32c-1.16.51-1.15,1,0,.81a2.11,2.11,0,0,1,2.51,1.52c.1.19,0,.21,0,.2-.25-.05-.81,0-.8-.08a.84.84,0,0,0-.23-.57Zm1.75-5a.72.72,0,0,0,.1-1,2,2,0,0,0-1.67.18c-.7.55.58,1.48,1.57.86Zm.7-2.48a1.16,1.16,0,0,0,.1-1.52,1.34,1.34,0,0,0-2.22.64c-.09,1,1.28,1.54,2.12.88Zm-.5-3.42a1,1,0,0,0-1.49-1c-.93.48-.37,1.51.8,1.45.64,0,.64,0,.69-.5Zm-2.73-3.34a.6.6,0,0,0,0,1.06C32.84,123.89,32.34,121.47,31.25,121.93Zm114,4.92c-.72-2.65-2.69,0-2.69,0-.07-2.72.44-3.93-1.59-4.86,2-3.1,1.61-3.53-.55-4.72.2,0,2.87-.58,3.32-2.11.11.07,4.19,1.08,4.7-1.16-1.23.57-3.66.65-3.68-1.76.22-.07.8,0,.75.13-.32,1.54,2.48,1.93,2.94.71a7.06,7.06,0,0,0,1.35.73,5.41,5.41,0,0,1-2.48,2.15c-2.17.72-2.91.91-2.92,1.35,0,.16.36.19,1,.32,1.35.1,1.32.39,1.5.84s.31.47.76.43a7,7,0,0,0,3.38-1.86c.13,0,.28,1.13.36,1.17,0-.18-1.09.14-2.78,1.14-1.38.81-1.92.93-2.09,1.14s.2.68.24,1.24-.29.69-.06.84a1.68,1.68,0,0,0,1.22,0,10.36,10.36,0,0,0,3.15-1.42c-.23.43.15,1.53.15,1.53a1.15,1.15,0,0,0-1-.18,13.2,13.2,0,0,1-3.22,1.21c-.17.15-.14.5-.14,1,0,.36-.11.69.12.8a5.3,5.3,0,0,0,3.91-1l-.29,1.52c-.39-.44-1.51-.12-2.26.18a.85.85,0,0,0-.59.69.94.94,0,0,0,.6,1.15,1.65,1.65,0,0,0,.7.07c-1.24.79-1.26,1-2.69.46a4.61,4.61,0,0,1-1.16-1.79Zm2,0a1.24,1.24,0,0,0-1.22-.45c-.29.16-.18.48-.09.73.25.69,2,.47,1.31-.28Zm-1.14-1.9c.46-.6,0-1.41-.89-1.42a.8.8,0,0,0-.89.83c0,.87,1.4,1.09,1.78.59Zm-.93-2.29a1,1,0,0,0,.52-1.65,1.93,1.93,0,0,0-2.07-.1c-.89,1,.11,2.14,1.55,1.75Zm.7-3c.49-.26.59-.68.15-1.17-.79-.68-2.18-.15-1.73.85a1.17,1.17,0,0,0,1.58.32ZM44.21,96.79a15.19,15.19,0,0,0,2.07-1.3c.53-.29.37-.24-.31-.64-.53-.25-1.6-1.33-1.7-1.08A8,8,0,0,0,44.21,96.79Zm18.95,24.68c.1-1.09-.1-.77-.68-.41s-1.13.7-1.41.84c-1.07.54-.94.57.57,1.3,1,.46,1.31.51,1.4.32a16,16,0,0,0,.12-2Zm-1.56-.68c1-.65,1.37-1,1.42-1.72s-.09-1.15-.82-.56c-2.51,2-5.08-1.91-2.79-4.08a4.5,4.5,0,0,0,1.06-1.31c0-1.25-1.37,0-2.51,1.69-1.28,1.57-2.07,3.53-1,5.41.89,1.38,2.88,1.65,4.59.57Zm-5.68-2.54a4.05,4.05,0,0,1,.2-1.5c.28-.72.27-.81-1-.21a5.91,5.91,0,0,1-1.35.3c-1,0-.78.32.71,1.57s1.55,1.38,1.44-.16Zm3.54-6c.16-.37-.17-.52-.48-.45,0,0-.58.42-1.22.92-1.94,1.54-3.37,1.72-4.33.55s-.57-2.6,1.61-4.21c1-.71,1.2-.76.74-1.07s-.38-.2-1.77.74c-2.79,1.9-3.63,3.2-3.35,5.09a2,2,0,0,0,.86,1.49c2.66,2.37,6.36-.9,7.94-3.06Zm2.82,1.13-.16-2.62C56.27,105.57,54,98.68,55.6,91.51l-1.54-2.92a19.11,19.11,0,0,0-.46,12.65c1.23,4.09,3.7,9,8.68,12.12Zm-12-1.53c.9-1.74.93-1.55-.82-1.57-2,0-1.77-.26-.64,1.45C49.76,113.08,49.61,113.2,50.32,111.83Zm1.19-2.39a6.46,6.46,0,0,0,2.41-1.27c1.74-1.15,1.82-1.77.06-.89-2.25,1.13-4.22.84-5-.63s.71-3,3-3.6c.77-.22,1.17-.4,1.18-.74,0-1-3.82.35-5.4,1.9-3,3-.38,6.57,3.75,5.23Zm-4.92-4.67c.1-.16.38-.53.63-.92,1.08-1.26.17-.88-.79-1.23a3.5,3.5,0,0,0-1.32-.33c-.57.09.2,1.2.38,1.92C46,105.8,46,105.76,46.59,104.77Zm4.08-2.88c1.92-.19,2.12-.38,2.12-.78s-.23-.32-1.2-.18c-2.57.35-4.26-.3-4.63-1.68s1.36-2.76,3.67-2.68c1.26.05,2.09-.39,1.33-.81a16.08,16.08,0,0,0-4.63.06c-2.3.67-3.23,2-3,3.73.31,2.19,1.51,2.82,4.41,2.66.56,0,1.27-.25,2-.32Zm1.49-7.14c0-.34-.55-.39-2.37-.66-2.43-.36-3.51-2.62-2-4a3.64,3.64,0,0,1,2.61-.6c1.6.29,2.58.62,2.59.07s-.46-.52-3.46-1.15c-4.53-1-7,3.5-3.4,5.69,1.38.83,6.07,1.3,6.08.62Zm1.12-6.4c0-.17-.14-.3-.49-.43-2.12-.58-5-3.43-2.91-5.09,1-1-.77-2.24-2.16-1.08s-1.33,3.1.34,4.6,5.22,2.81,5.22,2Zm-7.34-.26c1.57-.75,2.7-.32,1.5-1.34-.68-.63-1.26-2.43-1.73-.91a14.33,14.33,0,0,0-.63,2.66C45.18,88.61,45.16,88.43,45.94,88.09Zm53.17-8.41a19.78,19.78,0,0,1,1.53-4c.79-.63.68.21,0,1.67s-1.18,2.68-1,3.57c.3,1.26.8,2.22,2.11,2.54a3,3,0,0,0,2.37-.57c.77-.55,1.5-2,2.38-3.91.28-.55.65-2.24,1.12-1.21.22.54-1.64,4.08-2.34,5C102.2,86.5,98.16,82.87,99.11,79.68Zm13.38,3.37a3.76,3.76,0,0,0,3.32,1c2.37-.84,3.44-3.09,2.55-6.7-.46-2-.85-3.28-1.24-3.53-.19-.12-.4.1-.58.39s.08.6.35,1.55c1.13,4,.84,5.83-.54,6.6-2,1.11-3.72-.17-4.3-3-.1-.45-.37-1.35-.37-1.35-.15-.4-1.39-.31-.94,1A9.91,9.91,0,0,0,112.49,83.05Zm10.16-10.52c0-1.41-3-7.54-3.19-6.89a15.61,15.61,0,0,0,.1,2,2.79,2.79,0,0,0,.33.64c2.56,4.6,2.17,7.84-.06,8.55-.76.35-.92.69-.58,1,.68.75,2.4-.74,2.74-1.28C122.83,75.4,122.71,73.19,122.65,72.53Zm-43-1c4.53-5.86,8-19.23,8.61-27.69-.16-.18-1.16-.09-1.49.09-.16.21,0,.67-.11,1.28A85.75,85.75,0,0,1,81.6,65a31.78,31.78,0,0,1-3.39,6.64c-.22.34-.51.69-.63.89-.32.48-.08.79.3.59a8.34,8.34,0,0,0,1.74-1.66Zm-3.3,1.7c5-7.49,7.75-15.58,9.63-29.06a2.15,2.15,0,0,0-1.46.16c-.17.25-.06.76-.21,1.92a84.77,84.77,0,0,1-2,10c-2.63,8.75-5.05,13.65-8.24,17.93-.25.36-.48.59-.46.75s.34.2.85-.11a12.46,12.46,0,0,0,1.88-1.56Zm-4.7,2.27c1.51-.86,4.17-4.61,6-8.65A94.25,94.25,0,0,0,82.7,52a54,54,0,0,0,1.11-7.48c-.1-.25-1.58.05-1.39.21a110,110,0,0,1-3,12.73c-2.93,8.39-5.46,14.09-8.19,16.83l-1.06,1.06s0,.31.24.36a1.77,1.77,0,0,0,1.26-.24Zm-2.32-.33C72.71,73.21,76.71,64.25,80,53c.55-1.92,1.57-8.36,1.57-8.36s-1.36,0-1.62.34-.22,1.38-.6,3.73a76.32,76.32,0,0,1-7,20C70.88,71.57,68.49,74.25,67,75c-.85.43-1.09.9-.48.93,1,0,1.14.26,1.89-.15ZM116,175.32c-2.56,0-4.73,2.46-6.67,5.56-4.11,6.36-6.88,17-7.55,22.63l1.55-.3c-.23.11,2.9-15,7.68-21.51,2.58-4.09,2.47-4.15,3.92-4.52,1.84-.48,3.31,1.52,2.4,2.72-.33.41-.69.11-.59-.47.32-1.85-2.36-2.21-3.11-.39-.86,2.09,1.43,4,3.67,3.14,2-.72,2.84-3.53,1.44-5.61a3.85,3.85,0,0,0-2.74-1.25Zm-13.46-.26c-3.07,3.87-4.58,7.84-6.46,13.27a70.87,70.87,0,0,0-3.82,16.82l1.66-.21c-.06-3.92,4.2-22.55,10.19-29.53.33-.45.6-.81.57-.92C104.38,173.55,103,174.69,102.57,175.06Zm6.76-1.45c-4,3.27-7.14,10.42-9.23,17-2.26,7.15-3.27,13.69-3.1,13.69l1.57-.23c-.11-.42,4.43-25.59,12.87-30.17.73-.37.89-.74.27-.9a3.54,3.54,0,0,0-2.38.58Zm4.44,0c-8.66,1.15-14.32,27.9-14.51,30.13,0,0,0,.2,0,.2l1.72-.35s0-.09,0-.13a70.26,70.26,0,0,1,5-17.81c2.1-4.58,5-10.44,9.35-11,.35,0,.68.09.56-.32-.26-.66-1.56-.74-2.16-.72ZM62.13,165.2C59,166,58.9,169.79,61,174.62c.16.37.13.57.29.71.36.31.64-.13.68-.42a4.33,4.33,0,0,0-.46-1.88c-1.29-3.35-1-5.27.3-6.12,3.27-1.7,4.16,1.79,4.65,3.39.12.39.16.93.38,1a1.3,1.3,0,0,0,1-.14A42.54,42.54,0,0,0,66.38,167a3.53,3.53,0,0,0-4.25-1.78Zm-22.72,3.57,0,39.84-6,5.67c-2.57-2.22-6-5.7-6-5.7l.11-67.34-1.93-.16c-.47,28.93,0,58.45,0,87.44h17.6c4.9-7.88,10.06-15.62,14.91-23.52.18-.45.16-1.11.07-3.57a8.41,8.41,0,0,0-.07-2c-.15-.23-.46-.06-.75.07s-.48.08-.32-.27c.09-.2.39-.64.64-1.06.83-1.36,1-1.8.75-3.31a3.88,3.88,0,0,0-.7-1.12c-2.47-3.67-3.48-9.12-2.25-13.1a3.5,3.5,0,0,0-.59-3.49ZM117,125.94c-1.61-.83-1.58-.82-1.59.76,0,1.18,0,1.47.47,1.31.63-.33,1.41-.63,2-.88,1.12-.38-.3-.88-.88-1.19Zm6.38,4.1c-1.25-1-.79-.89-1.14,1.38-.22,1.37-.49,1.41.91,1,.8-.28,2.44-.1,1.71-1ZM69.25,171.71c-6.7.8-9.51,7.45-9.81,13-.24,4.38-.53,9.49-.09,9.94,4.39-2,6.09.3,6.5-.32.19-.27-1-1.16-2.43-2a9.11,9.11,0,0,1-1.07-.69c-.53-.45,1.06-.06,2.08.63,1.28.89,1.5.7.94-1.88-.61-2.81-.71-3.16,1.44-4.27a6.26,6.26,0,0,0,2-1.52c.49-.56.61-.69.43.12-.31,1.42-1.56,2-2.68,2.61a1.52,1.52,0,0,0-.79,1.37,31.21,31.21,0,0,0,.84,4.13c.25.83.34,1.67.53,2.52a8.29,8.29,0,0,1,.28,4.24,8.66,8.66,0,0,0-.17,2l.12,1.22s-1.2-1.24-3.82-.2a5,5,0,0,1-4.45-.59,9.25,9.25,0,0,0-.16,2.81A96,96,0,0,0,87,205.8a80.19,80.19,0,0,1,6.21-24.19,8,8,0,0,1,1.8-2.39c.14-.08,0-.21.09-.33a2.13,2.13,0,0,0-.51-1.41c-.9-.72-2.35.21-2.82,1.84a52.9,52.9,0,0,1-2.46,5.11c-.11-.07-.37-.07-.28-.4.73-1.71,1.73-3.51,2.29-5,.78-2.21,2.47-3.37,3.73-2,.44.48.61.91.81,1.07s.35,0,.48-.16c.47-.72-.63-2.36-1.82-2.69-1.71-.48-3,.78-4.92,4.86-1.12,2.35-1.32,2.94-1.5,2.76,0,0-.33,0-.23-.44a33.17,33.17,0,0,1,2.8-5.64c1.59-2.67,4.55-2.89,5.79-.57.19.32.2.74.41,1,.38.5,1,.4,1.17-.42-.17-.54-1.21-2.5-1.93-2.84a4.18,4.18,0,0,0-5.39.61c-.38.34-.78,1.05-1.91,3.35-1.66,3.7-1.7,3.72-2.16,3.12.67-1.8,2.43-4.72,3.14-6.52a1.7,1.7,0,0,0,.15-.83c0-1.3.17-3.61-2.57-5.24A4.79,4.79,0,0,0,80.9,171c-.8,1.91-1.39,3.22-1.79,3.49-.57.38-.47-.15-.41-.34.81-1.73,2-3.48,2.13-5.22a4.68,4.68,0,0,0-6.71-4.67c-2.52,1.06-3.73,4.38-4.87,7.44ZM48.7,76.62a63.55,63.55,0,0,1,10-3.72c.51-.23.59-.28,0-1.36-2.38-4.76,4.16-8.55,6.38-3.88.3.62.37,1,.66.67,2.81-3,7.29-14.46,8.39-22.45-5-8.72-13.7-24.7-13.7-24.7H25.58v69.9C35.3,82.9,41.91,79.94,48.7,76.62Zm41.42-6.9c.27-.56.7-1.42.88-1.83.22-.73,1.07-1.19.66.13a12.63,12.63,0,0,1-.51,1.18c-.51.91-1,2-1.34,2.75-1.93,3.91-1.84,6.19.32,7.88a4.62,4.62,0,0,0,6.8-.78,7.42,7.42,0,0,0,.59-1.11A16.56,16.56,0,0,1,99,74.87c.8-1,.93.25-.27,2.2a5.81,5.81,0,0,0-.21,6.39,4.65,4.65,0,0,0,7.2.58h0a14.8,14.8,0,0,0,2.65-5c.16-.46.32-.81.43-1.08.18-.42.43-.58,1.08-.7,4.46-.86,8.21-5.49,8.74-10.54.07-.68.26-1.89.33-2.6.14-1.43.15-8.84,0-9.29a.45.45,0,0,0-.49-.36,3.82,3.82,0,0,0-1,.25,4.3,4.3,0,0,1-3.57.15,2.69,2.69,0,0,0-1-.21c-.62.06.21,1,2,2,.78.43,1.4,1,.77,1a26.94,26.94,0,0,1-2.68-1.35c-1-.61-.74.16-.23,2.21.69,2.76.3,3.53-1.86,4.61a5.59,5.59,0,0,0-1.2.89c-1.14,1.7-.85.44-.27-.46,1-1,.37-1.39-1.64-.67-2.3.82-3.33.22-4-1.07-.72-1.46.64-3.33,1.78-3.29.37,0,.31.14-.24.52a2,2,0,0,0-1,1.66c-.14,1.57,1,2.24,2.54,1.19a5.94,5.94,0,0,1,1.87-1c.55-.12,1.39.08,1.38.53a4.31,4.31,0,0,0,0,.74c.14.49.93-.21,1.28-.46,1.17-.89,1.13-1.06.81-2.5-.52-2-.79-3.85-1.29-5.89a9.1,9.1,0,0,1-.15-3.37c.08-.55.29-1.67.34-2.44s0-1.86,0-1.86c1.17.9,1.64,1,2.78.62a4.65,4.65,0,0,1,4.36.06c.55.27,1,.45,1,.45l.07-2.31s-1.37-.28-3.91-.62c-7.65-1-23.35-1.23-23.93-.29-1,6.17-2.44,13.57-4.07,18.35-.28,1-.56,1.33-.41,1.36s.34-.36.47-.51c.75-.87.18,1.19-.94,3.67a1.92,1.92,0,0,0-.19.54,28.79,28.79,0,0,1-1.19,2.92c-.31.65-.56.85-.55.43.34-1.42,1.24-3.27,1.37-4.54-.79,1.15-1.94,3-2.81,4.19-.16.3,0,.4.15.77.52,1.41,1.79,1.54,2.52.26a49.42,49.42,0,0,0,2.12-4.57A5.89,5.89,0,0,1,89,64.42c.3-.16.36.53-.18,1.67-1.63,3.47-2.34,5.41-3.14,6.13a1.48,1.48,0,0,1-2.29-.47c-1-1.68-1.87-1.12-1,.6a2.47,2.47,0,0,0,4.3.34,50.8,50.8,0,0,0,2.72-5.35,4.65,4.65,0,0,1,.75-1.42c.6-.23-.08,1.54-1.8,5.1-.55,1.37-1.44,2.81-2.65,3.25-2.94.65-3.33-.91-4.36-2.7-.49-.44-.94.27-.75,1.05a3.66,3.66,0,0,0,1.86,2.43,4,4,0,0,0,4.93-.57,24.51,24.51,0,0,0,2.66-4.76Zm10.8,11.76a2.68,2.68,0,0,1-.1-1.76,14.39,14.39,0,0,1,1.42-3.57c1-.46.22,1.37.1,1.64-1.16,2.45-1.27,3.39-.18,3.68.93.24,1.43-.34,2.3-2.53.46-1.12.64-1.62.8-1.69.33-.13.5,0,.48.35a16.22,16.22,0,0,1-2,4.15c-.94.78-2.35.79-2.83-.27ZM92.2,79.6c-4.65-1.66-1.86-6.76-.92-8.61.16-.3.75-1.5.94-1.89.34-.7.68-.42.67,0a18.56,18.56,0,0,1-1,2.23c-2.25,4.44-2.17,6.24,0,7.3s3.09.44,4.8-3c1-2.54,1.47-2.58,1.41-1.62a18.1,18.1,0,0,1-2,3.93C95.05,79.64,93.82,80.19,92.2,79.6Zm.16-2.14a2.32,2.32,0,0,1-.69-2.88c.45-.88,1.61-4.25,2.15-4.44.87,0,.4.71-.68,2.78-1.27,2.74-1.23,3.47-.24,3.89s1.34-.41,2.69-3.61c.21-.51.51-1,.68-.92s.59.15-.12,1.6c-.17.35-.45,1.08-.77,1.76-.92,2-2,2.48-3,1.82Zm15.12-5.82c-.37-.19-2.1-.87-1.84-1.44,0,0,.13,0,.18,0a4.58,4.58,0,0,0,5.6-.14c.35-.31.6-.1.41.29C111.21,71.61,108.44,72.14,107.48,71.64Zm-5.08-1.8a8.64,8.64,0,0,0,.31-1c.19-.72.15-1.25.31-1.15a3.1,3.1,0,0,0,2.63,0,3.2,3.2,0,0,1,2.59-.22,1.14,1.14,0,0,0,1.61-.14c.57-.46.58-.26,1.62.1.77.27,1.07.45,1.39.39.13,0,.38-.31.46-.29.25,0,.28.76.51,1.57s.09.89-.55.46a4.58,4.58,0,0,0-3.27,0,3.22,3.22,0,0,1-2.07.06c-1.93-.33-3.32-.58-4.76.26-.77.45-1.05.68-.78-.07Zm-4.8-3.55c-.94-1.89,1.21-4.4,3.1-3.51.63.29,1.19,1.4.26.89-4.3-.87-3.22,5.47,1.39,2.12,3.07-2.05,5.24-2.37,5.42-.39-.09.73-.73.62-1.22.68a10.07,10.07,0,0,0-3.21,1c-2.24.71-4.43,1.29-5.74-.82Zm16.81.87c-1-.27-2-.69-3-.89s-1.57-.76-1.38-1.53,1.29-.88,2.92.13c1.81,1.11,3.12,1.38,3.78,1,1.33-.85.61-2.23-.66-2.58-1-.27-.26-.65.77-.34,1.66.64,1.7,3.66,0,4.29a4.78,4.78,0,0,1-2.37,0Zm-14.63-10a19.54,19.54,0,0,0,2.81-1.89c.22-.24.84-1,.36-.79-2.49,1.5-5.37.25-7.47-.78-1-.47-.75-.26-1.53-.21-.52,0-.94.15-1-.23,0-.17-.34-.1-.53-.12-.77-.07-.28-1.11,1.34-2.24,3-2.17,7.57-4.16,10-1.49.49.48.45.8.9.5,1-.67,1,.22.17,1-.6.57-.38.72.36,1.26.34.26.06.51-.14.88a5.57,5.57,0,0,0-.05.66c-.16.81-3.81,3.66-5.13,4.15-.91.17-.43-.52-.08-.75Zm1.92-5.23c-.69,2.12-2,2.84-3,.3l-.48,0c0,2.14,3.63,3.48,4.1-.33-.28,0-.44,0-.6,0Zm-3.37,2c-.25-.42-.53-1.39-.8-1.41-.71,0-1.69.1-1.46.55C96.44,53.73,98.62,54.38,98.33,53.89Zm4.87-.38c.66-.4.8-.67.37-1.11s-.84-.27-1,.63S102.51,53.93,103.2,53.51ZM94.31,52c4.39-2,6.06-2.26,7.84-1.77a5.91,5.91,0,0,0,1,.34c.86-.05.31-1-1.22-1.57-1.75-.63-2.86-.35-6.23,1.42-2,1-3.57,2.57-1.4,1.58ZM107,49.59a12.23,12.23,0,0,1-.4-1.21c-.08-.29-.15-.59-.23-.59a11.59,11.59,0,0,1-4.31-.17,14.2,14.2,0,0,0-8.28.28,9.24,9.24,0,0,0-1.28.63c-.18.16-.44,0-.44-.23a6.66,6.66,0,0,1,2.23-1.76,11.38,11.38,0,0,1,8.4-.71,5.36,5.36,0,0,0,4.51.08c.62-.27.18.41,0,1.3a4.25,4.25,0,0,0,0,1.51c.07.85,0,1.27-.23.87Zm45.88,178.93V158.43C135.42,170.59,127.76,173,119.54,176c3.14,5.45-3.81,10.69-6.79,4.75-3.58,4.05-8.5,18.22-8.68,22.93,0,0,9.52,16.59,14.16,24.86Zm-63.61-23a72.15,72.15,0,0,1,3.4-16.46,54,54,0,0,1,3.82-9.26c.66-1,.71-1.46,0-1.08a16.29,16.29,0,0,0-2.76,3.14c-2.77,7.69-4.91,13.36-6,23.78Zm2.29-.28c.74-8.57,3.87-20.14,8.57-27.68.44-.72,1-1.34,1-1.59-.06-.73-1.87.54-3.27,2.7a72.31,72.31,0,0,0-4.34,10.17,65.58,65.58,0,0,0-3.42,16.59Zm4.51-.72c.47-4.94,2-9.47,3.27-14a45.85,45.85,0,0,1,6.06-13.31c.78-1.18,1.7-2.28,2.57-3.41a.84.84,0,0,0,.2-.48,2.08,2.08,0,0,0-1.44.32,8.22,8.22,0,0,0-2,1.84c-3.46,4.44-5.32,9.62-7,14.86a55.92,55.92,0,0,0-3.08,14.41Zm-31-3.78c.7-.06,1.15.07,1.35-.11s.13-.69.19-1.32c.14-1.36,0-1.28-.84-.41-1.4,1.46-3.94,2-5.46,1.14-.76-.45-1.29-.75-1.36-.38a.88.88,0,0,0,.36,1C61.16,201.51,62.9,200.93,65.09,200.76Zm-1.64-1a5,5,0,0,0,2.5-1.64c.53-.76.52-.87.12-.72-2,1-3.25,1.46-5,1.2-2.38-.37-2.48-.06-.91.93A3.45,3.45,0,0,0,63.45,199.72Zm-3.48-3c.36-.27.46-1.39.16-1.45s-.74.49-.84.94.32.75.68.51Zm3.67-.05.64-.06c-.33-2.79-3.34-2.91-3.89.28l.47.07c.62-2.48,2.32-2.46,2.78-.29Zm2.1-.52c.78-.5.44-1.1-.75-1.33-.82-.19-.77.48-.35,1.39.19.39.32.38.78.13A3.37,3.37,0,0,0,65.74,196.11Zm-7.2-3.35a3.29,3.29,0,0,0-.28-1.12,16.48,16.48,0,0,1-1.53-8c.09-2.3.12-3-.36-3-.66.32-1,4.61-.21,8.18.6,2.52,2.43,5.65,2.38,3.95Zm0-3.49c-.07-1.2.19-3.9.06-4.49a3.26,3.26,0,0,0-.88-1.66c-.4-.29-.5.26-.36,1.71.32,3.39.86,6,1.18,4.44Zm.33-6.18c.26-.47.16-1-.42-2.11-2.27-4.47-2.57-7.53-.19-8.64.27-.12.43-.15.61-.25.75-.41.46-1.17-.66-.86-3.09.87-3.7,3.78-1.09,9.19,1.33,2.69,1.53,3.07,1.75,2.67Zm.72-3.6a11.86,11.86,0,0,0-.62-1.44c-.88-2.25-.89-3.19.06-3.84.31-.18.63-.19.67-.4s.07-.86-.12-1a2.18,2.18,0,0,0-2.24,1.57c-.25,2.79.92,4.72,2,6.57a6.73,6.73,0,0,0,.3-1.44Zm.89-1.85c.73-1.48,0-3.4-1-2.75-.65.43-.68.88-.28,2.11.48,1.51.77,1.61,1.25.64Zm2.67-4.15c.08-.3-.18-.83-.62-2.17s-.25-2.36.63-2.64c1.27-.31,1.71,1.77,2,2.65.14.68.58.86,1,.39.11-.13.14-.24,0-1-.82-3.23-1.89-4.25-3.61-3.45s-1.38,2.41-.22,5.92c.15.47.25.81.36.86a.84.84,0,0,0,.55-.58Zm1.3-.91c.38-.38.35-.21-.08-1.56-.49-1.53-.75-1.85-1.28-1.32-.32.32-.16.68.21,1.93.43,1.46.55,1.55,1.15,1Zm66-5.26c2.52-1.75,1.48-4.88-1.83-6-.39-.14-.82-.3-.95-.37-1.52-.73-2.71-1-2.71-.39,0,.34.46.51,1.91,1.23,2.16,1.05,2.65,2.28,1.58,3.82-.77,1.11.67,2.38,2,1.75Zm2.29-3.81c.21-.9.54-1.67.69-2.19.22-.82-.06-.63-.6-.5-1.38.72-2.37.33-1.7,1.33C131.89,163.47,132.51,164.49,132.75,163.51Zm-.18-3.13a3.2,3.2,0,0,0,.51-5,5.69,5.69,0,0,0-1.86-1,11.41,11.41,0,0,0-4.86-.47c-.19.22-.19.57,0,.67a6.14,6.14,0,0,0,1.31.21c6.08,1.05,3.6,5.55-.59,4.57-1.36-.3-2-.15-1.45.17a13.12,13.12,0,0,0,3.43,1.16,5.4,5.4,0,0,0,3.52-.3Zm-8.28-.45c1.94-4.39,3-15.91-8.14-24.23l.36,2.3a20.21,20.21,0,0,1,6.76,19.86Zm9.91-7.87a14.66,14.66,0,0,1-2.17,1.32c-.53.24-.55.3.18.7a5.66,5.66,0,0,1,1.15.79c.39.42.84.58,1,.43C134.35,154.64,134.57,152.48,134.2,152.06Zm-3.29.83c2.25-.72,3.46-1.8,3.2-3.63-.38-2.67-2.6-3.24-6.76-2.19-2,.5-2.18,1.45-.28,1,2.4-.62,4.28.32,4,2.08-.15,1.53-1.37,2.42-3.51,2.42-1.13,0-1.48.1-1.32.51S130,153.18,130.91,152.89Zm-3.71-6.35c3.68-1.27,5.39-3.24,4.55-5.45-1-2.6-4.2-2.63-7.43-.21-1.5,1.11-1.27,1.53.19,1,1.89-.87,3.11-1,3.88-.31,1.4,1.25.46,3.44-1.66,4.23-1,.43-1.36.67-1.36,1,0,.49.18.37,1.83-.2Zm6.2,0c.1-.77-.77-3.44-1.14-2.83a5.07,5.07,0,0,1-.88,1.31c-1.26,1.14-1,.71.23,1.06C132.31,146.23,133.3,146.73,133.4,146.5Zm-9.72-5.71c3.71-2.16,5.13-5.26,3.21-7.32-1.74-1.84-4.61-.77-7.27,2.59-1.23,1.55-.31,1.35,1.34-.11,1.92-1.71,4.36-.89,4.35,1.24,0,.91-1.29,2.45-2.5,3.16a.56.56,0,0,0-.29.78c.14.23.44.08,1.16-.34Zm6.51-2.26c-.19-.58-1.59-3.08-1.89-3-.32.65-.34,1.49-.72,2.17-.52,1-.45.86,1.2.86,1.23,0,1.38.17,1.41,0Zm-10.92-2.83c3.12-3.26,3.4-7.08.47-7.95-1.62-.49-4.21.69-4.22,1.91,0,.75.14.89.79.62,2.76-1,5,1.64,2.41,4.71-.61.88-.69,1.11-.51,1.29s.38.14,1.06-.58Zm33.65-27.4V21.18H134.63l-14.52,23,0,5.65c0,.2.33.32.54.07.83-.64.51,0-.44,1.49s-.67,2.68.38,4.25C122.8,59,124,65.08,123,68.3a3.49,3.49,0,0,0-.2,2.4,2.63,2.63,0,0,0,1.2,1.7,130.73,130.73,0,0,1,15.09,8.39l0-40.61,5.61-5.41,5.92,5.7.21,67.63ZM149.7,40.66,144.75,36l-4.91,4.57c0,21.84.13,66.67.13,66.67l4.87.35a8.3,8.3,0,0,0-.1-3.67c-.68-4-.64-8.81.46-16.18a30.52,30.52,0,0,0-1-12.57,19.87,19.87,0,0,1-.77-7.75c.35-3.92,1.42-6.89,1.56-12.53.07-3.22-.08-6.37,0-10.34.05-.53.28-.46.32.08.14,3.6.28,7,.32,10.52-.11,4.56-1.22,9.25-1.34,13.43A15.74,15.74,0,0,0,145.35,76c1.91,5.54.66,14,.63,14.19-.8,5.45-1.39,12.42,1.34,17.63l2.64.24Zm-34.1,41.2c1.46-.68,1.75-1.87,1-4.74-.14-.52-.3-1.13-.35-1.36-.17-.71-.49-.79-.91-.22-.26.33,0,.41.36,2,.59,2.39.25,3.18-.63,3.18s-1.39-.66-1.62-2.21a3.13,3.13,0,0,0-.31-1.1c-.22-.35-.47-.29-.68.1s.24,2.6.9,3.61,1.23,1.24,2.28.75Zm-.4-2.14c.31-.59-.08-2-.28-3-.18-.53-.39-.66-.74-.57-.52.12-.5.69-.31,1.63C114.25,79.71,114.46,80,115.2,79.72Zm4.44-3.46c1.68-1,1.84-2.61.71-5.62-.46-1.24-1-2.11-1.35-2.12-.12.79-.24,1.21-.1,1.51,1,1.53,1.74,3.94.29,5.29-.86.65-.32,1.19.45.94ZM64.87,75.11c3.94-.8,7.47-7.2,9.7-12.86,2-5.7,4.19-12,4.53-17.19,0,0-1.48.07-1.67.38a9,9,0,0,0-.4,1.89,74,74,0,0,1-3.62,13,48.57,48.57,0,0,1-6,11.45,6.11,6.11,0,0,1-3.94,2.38,6.64,6.64,0,0,0-1.26.1c-.3.22,0,.7.75.9a3.88,3.88,0,0,0,1.86,0ZM119,74.36c.59-.64.65-1.4,0-3-.19-.45-.27-.7-.5-.64-.47.13-1,1.38-.7,2.44.43,1.38.68,1.79,1.22,1.21Zm-55.46-1a5.55,5.55,0,0,0,3.66-2.51c6.43-10.07,7.53-15.7,9.54-25.24,0,0-1.45-.05-1.76.26a81.68,81.68,0,0,1-2.76,11c-1.58,5.49-6.09,14.26-8.54,14.68-1.32.22-2.83-.94-2.59-2.12.15-.73.25-1,.6-1.19.86-.3,1.36.29.42.67-1.09.95.87,2.4,2.07,1.39,2-1.72-1-5-3.41-3.51-2.71,1.68-2,4.59-.31,6a3.74,3.74,0,0,0,3.08.63Zm19.23-3.93a17.16,17.16,0,0,0,3.85-6.78,105.44,105.44,0,0,0,4.23-19.17s-1.43-.14-1.75.16c-.52,6.12-3,18.7-7,25.17-.87,1.54-.55,1.93.72.62Zm37.21-13.13c-.15-.08-.14,0-.21,0-.23.16-.08,1,.44,2.21,1.37,2.22,1.53,6.53,1.44,8.14a2.66,2.66,0,0,0,.07,1.2c.14.43.4.92.81.09a17.1,17.1,0,0,0-1.12-9.23,7.65,7.65,0,0,0-1.43-2.43Zm1,9.41a13.84,13.84,0,0,0-.75-5.46c-.22-.48-.62-.52-.57,0,0,1.18-.12,3.42,0,4.09.6,1.38,1.06,2.27,1.32,1.34ZM117.9,52h-.65c0,2.23-1.94,2.84-2.66.17l-.58.14c.77,3.77,4.26,2,3.89-.31ZM114,53.63c-.33-1-.19-1.35-1-.91-.65.34-1,.7-.13,1.15s1.39.38,1.17-.24Zm4.92-.57c.27-.55.24-1-.17-1.05s-.4.25-.49.78c-.16,1,.24,1.13.66.27Zm.34-3.7c.25-.08.18-.43.11-.88-1.06-1.49-3.69-1-4.64-.74a2.14,2.14,0,0,1-2.1-.12c-.62-.11-.7,0-.85.33a4.81,4.81,0,0,0-.2,1.62c0,.72,0,1.06.24.83,2.24-2.22,3.95-2.76,7.44-1Zm-7.24,2c0,.3.25.12.9-.29a5.76,5.76,0,0,1,5.75-.54c.45.15.73-.33.24-.73C116.48,47.82,113.52,49.09,112,51.37Zm8.55-9.14,12.81-21.32L62,20.86,74.11,43.49a107.92,107.92,0,0,1,46.43-1.26Z"/><path id="path4098-7-2-7" class="cls-3" d="M57.26,209c1.51-2.27,9,1.77,9.39,3.37,4.43-3.51,9.81-3.76,14.14.63,4.45-4.9,9.21-4.56,14.17-1.73-.55-1.1,6.34-6,10.53-2.88l11.33,20.3-72.58.24C48.53,222.43,52.33,214.7,57.26,209ZM25.55,103.07c-.39-1.1-2-12.38,2.06-12.66,25.74,16,26.23,44.74,25.68,45-.39-.11,8.23,8.59,8.84,9.43C64,147.35,45.74,172.23,45,171.27l-6-3.38.15-8.69.13-17.51-14.23-1.25.5-3.81c4.77.39,9.67,1.29,14.09.26,2.9-5.36,1.79-13.35-1.7-16.57-1.85-1.13-3.6-.77-5.48-.53-7.61-1.28-3.67-14.2-7-16.72Zm127.39,5.8.05,3.2c-5,1.1-13.88-3.18-16.56,3.71.33,7.44,2,10.78,3.14,13,.87,2,7-.28,9.12,1.75,6.16,7.64,4.7,17.8,4.76,27l-2.67,1.36c-18.48-11-32.67-45-34.63-54.74C116,97.91,133.1,77.89,133.1,77.89s6.22,3.79,6.22,3.79c.15.06-.13,26.27-.13,26.15C144.07,108.08,148.8,108.56,152.94,108.87Zm-36.63-24c-21.55,37.94-12.74,66,3.12,90.23,0,0-1.37.32-1.52.18-4.34-4.33-9.67-2.34-14-1.43-13.13.25-8.19-3.89-26.91-10.46-4.55.41-11.48,2.58-14.1.83,18.24-33.9,15.51-55.59-3.38-91.11,1.57.46,1.81,1.93,3,2.3C66.42,77,71.77,76.39,75,75c5.09-2.34,10.54,3.93,26.19,10.84,1.27.66,2.89-.39,4.29-.67,2.89-.59,5.36-1.83,7.52-1.11.69.24,3.33.87,3.33.87ZM72.82,40.57c-.93-1.74-10.43-19.94-10.43-19.94l70.66.43-10.6,17.55c-1,1-6,3.61-11.06-2.4-.1.86-7.54,6.21-13.94-.23-3.84,3.52-7.77,5.56-14.25,1.6-.14,1.1-5.19,6.06-10.38,3Z"/><path id="path4094-0-9-9" class="cls-4" d="M80.55,212.57c-6.85-6.46-14-.62-13.81-.26-2.62-2.62-5-4-9.11-3.82,0,0,.18-1.08.2-1.1,10.65,2,27,2.47,46-1.55l1,2.07c-5.12-1.84-7.75.63-10,3.52C86.62,206.27,84.61,210.79,80.55,212.57Zm16-75.15,4.84-.09c.91,14.2,12.68,35.93,13,35.93-.82-1.15-8.59-.25-8.53-.1C101.52,161.67,96.83,150.19,96.52,137.42ZM68.27,171.11a22.31,22.31,0,0,0-2.49-5.81c5.08-8.76,9.25-17.82,11.39-27.89l3.47,0C79.61,151.35,68.57,172.47,68.27,171.11Zm62.31-1.86c7.62-13.88,6.31-33.88-15.33-44.93,0,0,.56-14.67,2.17-14.7.36.11,9.79-.12,9.79-.12,2.48-6.11,6.45-13.51,12-18.5l.14,16.39c-4.11.4-6.62,1.73-7.87,5l-5.7,1.28c.42,16.46,6.57,31.67,24.79,45.33-4.35,3.78-19.24,11.44-19.18,11.3ZM39.26,158.9l.16-17.06c2.77-.6,4.94.2,7.23-4.79,0,0,3.83,1.83,5.1,2.51C48.17,146,45.08,152.91,39.26,158.9Zm36.28-30.07.19-8.75h8.16a16.06,16.06,0,0,0,0,8.75Zm18.62,0c.55-2.83,1-5.74-.2-8.75h8.83l-.21,8.75Zm-16.8-17.19c-1.47-17-13-36.22-13.19-35.81,1.37.22,3.76.9,5.08.27A6,6,0,0,0,72.31,76c-.21-1.86,9.1,18,9.31,35.57a29.86,29.86,0,0,1-4.26,0Zm20.42.15c1.24-7.85,4.46-22.21,12.06-33.85a43.82,43.82,0,0,0,2.78,6.13c-5.73,8.4-9.27,18-11.41,27.82ZM45,107.56c-3.48-7.15-18-18.41-17.21-17.27,6-5.42,12.67-8.85,19.34-12.33,0,0,1.18,1.14,1,1.42C44,85.9,42,99.7,46,107.6c3.81,8.45,10.57,13.45,17.47,17.37a92.79,92.79,0,0,1-2.08,14.35S57,137,53.47,135.54c-.56-10-2.61-18.89-8.52-28ZM83.26,37.47c5.1,3.14,9.67,2.81,14.1-1.45a10.29,10.29,0,0,0,14.11.43,9.68,9.68,0,0,0,9.89,3.27l-1.11,2.34c-14.27-2.84-29.79-1.72-46,1a20.13,20.13,0,0,1-1-2.07c1.32-.08,5.85,1.83,9.92-3.5Z"/><path id="path4092-7-7-9" d="M61.35,20.07,73.94,43.72l.56-.1c17.45-3.44,31.27-3.91,46.12-1.28l13.2-22C109.8,20.05,61.35,20.07,61.35,20.07Zm1.41,1,70,.08-3.93,6.51c-2.36-.73-3.68.36-4,2.64a3.05,3.05,0,0,0-.84-.19,2.41,2.41,0,1,0-.66,4.76c.82.14,1,0,1,0-2.87,2.43-4.51.79-5.86,0a3.41,3.41,0,0,1-5-.1c3.43.35,4-3.11,2.33-4.43a9.21,9.21,0,0,0-.7-.61,2.12,2.12,0,0,0,.47-2.73c-1-2.17-4.3-2-4.8.33-.19.92-.2,1.08-.2,1.08a2.64,2.64,0,0,0-2.26,4.07,3,3,0,0,0,2.69.91c-1.41,2-4.63,1.32-6.06-.33-2.28,2.7-4.88,2.37-6.17.92a2.82,2.82,0,0,0,2.29-.77A2.53,2.53,0,0,0,99.8,29a3.4,3.4,0,0,0-.67-.15,4.7,4.7,0,0,0,.13-.84c.49-4-5.43-3.59-4.86.33a2.57,2.57,0,0,0,.19.7,2.62,2.62,0,0,0-1,.14c-3.29,1.52-1,5.74,1.52,4.65.24-.1.9-.42,1-.42-3.15,3.94-5.79,1.15-6.49.72-2.12,3.18-5.82,1-5.89.79a3.1,3.1,0,0,0,1.58-.42,2.54,2.54,0,0,0-.13-4.53,4.58,4.58,0,0,0-1.78-.14,5.05,5.05,0,0,0,0-.95,2.42,2.42,0,1,0-4.59,1.32,2,2,0,0,0,.38.57,8.55,8.55,0,0,0-.93.65,2.42,2.42,0,0,0,2.68,4c.34-.18.67-.56.76-.54-1.24,2.29-3.12,3.09-5.8,1.19a2.93,2.93,0,0,1-5.12.22c2.52.24,4.16-4.64-.69-4.8-.38-1.33-.36-3.35-3.44-3ZM97,29.45a1,1,0,1,1-1,1A1,1,0,0,1,97,29.45Zm15.64.12a1.08,1.08,0,1,1-1.06,1.08A1.08,1.08,0,0,1,112.59,29.57ZM81.93,30.75a1,1,0,1,1-1,1A1,1,0,0,1,81.93,30.75Zm43.51,1.19a1.38,1.38,0,0,1,.42.09L125,33.62C124.11,32.86,124.52,31.89,125.44,31.94Zm-56.65.64c1.59.1,1.12,1.25.89,1.65Zm28,.75c6,6.91,11.4,4.87,14.92.27,1.51,3.92,4.88,6.63,10.68,4a17.63,17.63,0,0,1-1.23,1.73c-5.13,1.4-7.67-1-9.64-3.35-5.22,4.36-10.12,3.3-14.17-.55-3.46,4.39-9.06,5.34-14.24,1.75-2.37,3.53-5.76,5-10,3.19,0,0-.9-1.44-1-1.53.62.53,8.49,3.82,10.41-4.11C85.27,39.41,94.25,39.66,96.82,33.33Zm.6,2.84c6.76,6.38,13.85.87,14,.48.1.35,4,5,9.52,3.25l-.9,1.57c-14.78-2.41-28.9-1.92-45.66,1.3l-.92-1.65c4.29,1.34,8-.32,9.74-3.2C84.23,38.57,91.88,42.88,97.42,36.17ZM79.7,71.9c-.18,0-.4.21-.77.57-.8.79-1,.9-1.76,1A6.75,6.75,0,0,0,74.61,75a2.15,2.15,0,0,1-1,.42l-1.23.22a2.22,2.22,0,0,0-.66.19,2.38,2.38,0,0,1-1.75.1,2.15,2.15,0,0,0-1.57.08A2.83,2.83,0,0,1,66,76a2.6,2.6,0,0,0-2-.3c-.82.27-2.93-1-2.92-1.76a3.68,3.68,0,0,0-1.5-1.08c-1.07-.16-10.47,3.58-10.42,3.8C60.71,91,70.42,112.93,63.1,139.74l-1.29-.63a96.06,96.06,0,0,0,1.85-14.76C42,114.92,40.15,93,48.55,79.13L47.12,77.6c-5.09,2.74-10.26,4.3-22.85,15q0,24,.06,48.05c4.55.51,9.57.92,14.52,1.35,0,0-.07,15.42-.18,21.46-.1,5.1.09,4.78.09,4.78l16.38,8.72c-1.15-4.6,1.69-6.42,4.07-6.23-1.05-4.43,1.56-6.45,4.54-5.88,2,.38,2.72,1.5,3.87,5.2l.44,1.41,1.15,0c1.44-3.12,2.4-7.08,5.78-7.6,4.43-.67,6.08,2.4,6.07,5.47,4.29-3.82,9.43-.86,9.1,4.83,2.15-1.4,5.81-2.66,8.11,2.74.87-.19,1.31-1.16,2.53-1.47a8.32,8.32,0,0,0,1.49-.65v-.19a16,16,0,0,1,2.24-.55c1.1.42.78.4,1.38-.33a5.18,5.18,0,0,1,2.56-.5,3.27,3.27,0,0,0,1.76-.08c.79-.35,1.53-.44,2,.09.33.38.82.2,1.34.18a3.12,3.12,0,0,1,2.88,1.33,9,9,0,0,0,2,1.33l1.13-.26.13-.42,9.28-3.58c-18.92-20.91-18.42-48.66-14-62.71l1.71.84a56.7,56.7,0,0,0-1.8,14.64c17,7.67,25.52,27.49,15.19,44.79l1.09,1.43c4.3-1.82,15.11-7.95,18.84-11.28l.8.07s2.27-1.49,3.27-2.28l.13-45.91-.79.21-.14-2.68-14.05-1.13c.18-.13.31-.19.35-.46l-.08-25.42c-.52-.8-12.29-7.76-16.66-9.39-.18,0-.06.3,0,1,.22,2.49-1.45,4.71-3.38,4.71-.7,0-.82.3-.78,1.74A3.82,3.82,0,0,1,116,84.08c-2.51.92-4.22-.41-5.62-5.64-.37-1.37-1.09-1-1.78.85a44.79,44.79,0,0,1-2.11,4.38A4.46,4.46,0,0,1,104,85.48a5.13,5.13,0,0,1-3.77-.19c-1.93-1-2.68-2.18-3.24-5.13-.07-.39-.32-.35-.94.12-3.42,2.6-8.21-.09-8.19-4.57,0-1.32,0-1.37-.81-.74-2.31,1.91-5.45.94-6.71-2.06-.3-.71-.45-1-.68-1ZM60.12,73.49c.22.05.71.68,1,1a10.46,10.46,0,0,0,2.59,1.73c.09-.13,11.3,15,13.2,36l5.21,0c-1-20.33-6.52-30.11-9.07-36.38l1.87-.6c4.19,8.11,9.3,24.56,9.13,39H75.4A79.38,79.38,0,0,0,60.86,75c-.55-.82-1-1.38-.81-1.54a.08.08,0,0,1,.07,0Zm-3.33,2.15.88,2.76a1.88,1.88,0,0,1,.37-.89c1.7-1.55,3.33.49,2.56,3.25-.17.86-.51,2.53-.51,2.53a27.13,27.13,0,0,0-2.57-1.17c-2.37-1-3.16-3-1.35-3.25.3,0,.92-.06.92-.06-.75-.6-2.41-2-2.41-2Zm8,.3h0a5.38,5.38,0,0,0,3.62.45,4.79,4.79,0,0,1,2.41-.07,7.29,7.29,0,0,0,1.53-.19,97.85,97.85,0,0,1,9.18,35.4l-4,0A85.13,85.13,0,0,0,65.13,77c-.27-.41-.63-1.06-.37-1.08Zm16.59.27c1.87.06,3.67,2.62,4.2,4.06s.69,1.33,1.35,1.1c1.69-.58,3.49,1.29,1.22,1.61s-1,4.76-1.14,5.15c-.91.16-2.6-3.58-2.56-4.69.11-2.72-2.43-5-4-3.86-.75.55-.67.93-.9.73a2.49,2.49,0,0,1,0-3.2,2.31,2.31,0,0,1,1.85-.9Zm46.24.86s.09,3.58,0,4.38c-.27,2.38-3.36,2.64-3.48.73a8.25,8.25,0,0,0-1,2.56l-2.19-1.52a11.45,11.45,0,0,0,2.24-1.88c-1.63.13-2.54-1.29-1.45-2.5,1.21-1.39,4.55-1.54,6-1.77ZM47,78.21l1,1.1c-8.64,15.45-5.59,35.21,15.26,45.59a65.85,65.85,0,0,1-1.86,14l-7.7-3.76C53.72,117.64,43.91,101,28.26,90A91.94,91.94,0,0,1,47,78.21Zm63,.13c.37,2,2.28,5.73,2.42,5.52,0-.12-8,10.27-11.42,27.66H98A97.94,97.94,0,0,1,110,78.34Zm24.49.48,1.57,1c-8.24,7-13.66,15.78-17.64,25.29l-2.08-1C122.48,90.28,128.58,84.15,134.46,78.82Zm2.11,1.54c.7.06,1.29.7,1.82,1,.76.46.58.66-.88,1.78-1.72,1.34-1.89,1.28-1.87-.62C135.65,81.27,136,80.32,136.57,80.36Zm-1.81,2c.48-.08.25,2.17.12,2.9s-2.37,2.63-3.16,3.38c-.32.21-.46.13-.52-.24,0-.59.08-1.38.09-2.18,0-.25,0-.51.17-.7C132.55,84.2,134.13,82.43,134.76,82.33Zm4.18.61s0,0,0,0a7.75,7.75,0,0,1,0,2.88,6.31,6.31,0,0,1-2.82-.34c-.1-.3,2.41-2.56,2.82-2.55Zm-77.19.84.6,2.54.21-.41c1.2-1.84,2.65-.76,2.62,1.79a41,41,0,0,1-.73,4S60,89.57,59.62,88.62a1.27,1.27,0,0,1,1-1.84,3.57,3.57,0,0,1,1,0l-1.92-2Zm51.23.34,2,.75c-4.23,7-8.6,13.83-11.78,29.49H94.72a92.28,92.28,0,0,1,7.9-28.14,7.64,7.64,0,0,0,2.62-.83s-7,16.25-7.86,26.69l4.12.09C103.69,102,107.79,91.44,113,84.12Zm-16.11.25a1.86,1.86,0,0,1,1.92,2.21c0,1.32-.13,1.51-1.06,1a2.67,2.67,0,0,0-3.25.08c-.6.43-1.19.79-1.19.79a7.87,7.87,0,0,1,1.33-3A3.71,3.71,0,0,1,96.87,84.37Zm-6.7.83a2.43,2.43,0,0,1,2.33,2.55A7.81,7.81,0,0,1,92,89.54s.67-.26,1-.41A2.22,2.22,0,0,1,96,91.28a2.42,2.42,0,0,1-2.36,2.28,2.24,2.24,0,0,1-1.42-.5c.34,1.89.41,2.76-1,3.71a2.35,2.35,0,0,1-3.41-2.22l.08-1.3-1.16.15a2.29,2.29,0,0,1-.68-4.52,3.09,3.09,0,0,1,2.17.62A3.67,3.67,0,0,1,88.46,86,2.16,2.16,0,0,1,90.17,85.2Zm30.57,0c.17,1.5.76,3.14.6,4.54-.26,1.79-1.77,2.86-3,1.69-.15-.14-.41-.44-.41-.44a8.24,8.24,0,0,0-.87,2.62l-2.1-1.3a10.68,10.68,0,0,0,1.86-1.62,1.56,1.56,0,0,0,.16-.48,1.52,1.52,0,0,1-1.84-1.89C115.83,86.63,119,86,120.74,85.25Zm14.8,1a26.44,26.44,0,0,1,2.8.35c.74.12.33.55-1.32,2.17s-1.47,1.35-2.64,1.33c-2.73,0-3.21,0-1.62-1.72a10.45,10.45,0,0,1,2.16-2A1.32,1.32,0,0,1,135.54,86.29Zm-5.09.33a.11.11,0,0,1,.11,0,6.68,6.68,0,0,1,.09,2.16c0,1.23,0,1.23-.51,1.87-.65.81-1.19,1.65-1.86,2.43s-.57.58-.92-1-.08-1.9,1.76-4.12A6.31,6.31,0,0,1,130.45,86.62Zm8.49,1.11c0,.84,0,1.83,0,2.79a51,51,0,0,0-12,18.71L125,108.3A63.41,63.41,0,0,1,138.94,87.73Zm-48.79,1.6A1.7,1.7,0,1,0,91.84,91,1.69,1.69,0,0,0,90.15,89.33Zm0,.53a1.18,1.18,0,0,1,0,2.35,1.18,1.18,0,0,1,0-2.35Zm0,.64a.56.56,0,1,0,.56.55A.56.56,0,0,0,90.13,90.5Zm-62.58.08C45.13,102,53,119.6,53,134.76l-1-.45c-1-21.42-12.56-34.58-25-43.1Zm103.88.17a14.06,14.06,0,0,1,1.89.15c1.45.08,1.63.17.63,1.33-.74.9-1.8,2.45-2.21,2.58a22.87,22.87,0,0,1-3.58-.12c-.24,0,.07-.28,1.31-2.07C130.43,91.24,130.53,90.79,131.43,90.75Zm7.51.62s.25,9.72,0,15.94c-4-.15-6.29,1.39-7.27,4.3l-4.17-2.11A55.1,55.1,0,0,1,138.94,91.37Zm-12.42.08c.23,0,.34.58.41,1.52.33,1.77.2,1.9-.46,3s-1.7,2.88-1.84,2.24c-.55-1.81-.72-2.93-.53-3.3A18.5,18.5,0,0,1,126.52,91.45Zm-100.26.28c14.13,8.83,24.46,23.91,24.89,42.12,0,0-3-1.42-4.87-2.47l-.1-1.77,1,0,.32,2,2.16-.07-.58-5-3.37.32L45,124l1-.22.57,1.82,2.19-.59-1.17-4.44-3.39.94-1.09-3,1.13-.41.91,1.8,2.07-.73-2-4.45-3.12,1.49-1.59-2.9,1.22-.66,1,1.73,1.93-1-2.38-4.09-3,1.67-1.49-2.26.92-.64,1,1.18,1.7-1.21-2.6-3.53-2.84,2.24L34,104.31l1-.83,1.45,1.31L38,103.37,34.92,100l-2.7,2.48-2-1.76,1-1.1,1.26,1L33.78,99l-3.36-2.8L27.9,98.68l-2.42-1.61v-1.2a21.77,21.77,0,0,1,2.36,1.06L29.09,95l-3.61-2.46Zm39.34.76.54,3.11c.5-.85.91-1.43,2-1.1,1.32.54,1.34,2.54.22,5.61a8.69,8.69,0,0,1-.46,1.06,5.9,5.9,0,0,1-1-.51,9.19,9.19,0,0,1-2.86-2.29c-.73-1.16-.74-2.78.59-2.64a4.58,4.58,0,0,1,.79.13l-2-2.58Zm-40.12.93L27.93,95l-.51.93-1.94-.88Zm61.33.73c.71,1-1.79,3.95,1.47,5.12a1.18,1.18,0,0,1-.6,1.09c-1.59,1.17-3.88-1-3.17-3.16.45-1.41,1.77-3,2.3-3Zm6.77.09s1,.73,1.18.92c1.81,1.76,1.83,4.28.19,5.16a2,2,0,0,1-2.77-.74.56.56,0,0,1,.55-.8c.78,0,1.38-1.51,1.15-3.11C93.79,95,93.58,94.24,93.58,94.24Zm21.43.59h0a21.24,21.24,0,0,0,.52,3.11c1,2.68-.26,4.31-2,3.41a3.52,3.52,0,0,1-.71-.71l-.17,3.08-2.54-.75c.55-.89,1.34-1.52,1.93-2.52l-.71,0c-1.52.06-2.08-1.64-.49-3A29,29,0,0,1,115,94.83Zm13.47.68a17.77,17.77,0,0,1,2.63.16A23.07,23.07,0,0,1,129,99.16a1.4,1.4,0,0,1-.53.2,22.1,22.1,0,0,1-3.2.12c-.25,0,.25-.85.53-1.38.68-1.28,1.2-2.25,1.79-2.52a8.44,8.44,0,0,1,.89-.07Zm-5.19,1c.19,0,.33.34.52,1.07.43,1.69.54,1.74-.16,3.13-.35.7-.94,1.89-1.19,2.38-.63,1.26-.67,1.25-1.07.12-.76-2.17-.83-1.94.43-4.38C122.61,97.33,123,96.55,123.29,96.53Zm-92.7.6L32.87,99l-.65.63L31,98.66l-1.86,2,3.06,2.81,2.58-2.57L37,103.25l-.68.58L35,102.56,33,104.24l2.91,3.46,2.92-2.25,1.84,2.43-.75.47-1.2-1.17-1.9,1.33,2.37,3.37,3-1.73L43.9,113l-.94.46-1-1.54-2.15,1.24,2,3.94,3.22-1.35,1.29,3-1,.41-.83-1.81-2.17.86,1.46,4.14,3.27-1,.79,3.08-1,.28-.49-1.7-2.08.5.86,4.16,3.33-.22.4,3.36-1,.05-.26-2-2.11,0c0,.71.09,2.15.09,2.15l-1.28-.6a46.2,46.2,0,0,0-18.8-30.82l-.06-1.52L28,99.67s2.25-2,2.64-2.54Zm95.84,3c.49,0,1,0,1.57,0,.26.18-.08.8-.77,2.13-1,1.84-1.13,1.88-2.92,2.32-2.18.54-2.12.66-.94-1.88a9.05,9.05,0,0,1,1.49-2.47C125.44,100.21,125.94,100.18,126.43,100.17Zm-100.83.48c10.5,6.83,17.14,21,18,29.55a7,7,0,0,0-.85-.46c-.8-.37-1-.61-1.23-1.78A43.71,43.71,0,0,0,25.65,102.3Zm94.69,1.75c.52-.19,1.4,3.74,1.12,4.06l-2.53-1.17S120,102.46,120.29,102.4Zm-50.64.15,0,3.33a5.75,5.75,0,0,1,.6-.63c.78-.57,2,.23,2,1.21.06,1.37-.14,1.92-1.23,3.82-.33.59-.84,1.34-.84,1.34a23.87,23.87,0,0,1-2.68-2.33c-1.52-1.52-1.23-3.55.1-3.56a3.53,3.53,0,0,1,1.09.24,19.91,19.91,0,0,0-1.35-2.89Zm41,2.5a12.47,12.47,0,0,1,1.48,3.3c.75,2.29-.41,4-2,3.15a2.65,2.65,0,0,1-.58-.49,18,18,0,0,0,.11,3.12l-2.53-.44a19.24,19.24,0,0,0,1.49-2.79s-.15.13-.85.13c-2.55,0-2-3.06.92-4.76C109.19,106,110.69,105.05,110.69,105.05Zm14.6,0c.55,0,.29.52-.32,1.77-.33.69-.55,1.07-.55,1.07s-1.83-.8-2.65-1.28A7,7,0,0,1,125.29,105.08Zm-36.14.41c2,0,3.47,2,3.17,4.83-.51,4.85-.21,4.55.31,5,1,.88-.34,1.41-1.47.57-.79-.58-1-1.16-1-3.84,0-3.07-.13-3.86-1.22-3.59-.68.17-.89.75-.81,2.83.1,2.91-.09,3.64-1.19,4.58s-2.45.1-1.37-.51c.49-.56.58-1.28.39-3C85.75,110.86,84.88,105.47,89.15,105.49Zm48.65,2.44c.49,0,1,0,1.45,0,3.84.15,13.56,1,13.56,1l.08,2.89c-.6-.08-14.08-1.21-16-.63.86.36.78,4.73-3,3.67-3.23-1.17-1.68-5.69,2.48-6.7A8,8,0,0,1,137.8,107.93Zm-48.67,1.72c.22,0,.4.87.4,2s-.18,2-.4,2-.39-.88-.39-2S88.92,109.65,89.13,109.65Zm28,.23,8.3,4.13c1.17,15.73,6.54,32.34,24.86,44.94a101.55,101.55,0,0,1-18.92,11l-.69-.75c10.1-17.35,2.47-36.43-15.23-45.07A69.79,69.79,0,0,1,117.12,109.88Zm17.75,2a.74.74,0,1,0,.74.73A.73.73,0,0,0,134.87,111.86Zm7.5.31c1.29,0,2.66.32,3.95.34h0c1.59-.06,2,.13,2.14.85s.64.85,1.24.63c1.46-.53,2.35,2.08,1.14,3.24-.75.72-.62,1,0,1,1.52,0,1.48,2-.07,3.17-.64.47-.64.69,0,1,1.12.57.9,1.68-.53,2.59-.78.5-.81.62-.17.8,1.62.44,0,2.77-1.8,2.36a2.63,2.63,0,0,0-2.11.44c-1.9.8-2.21,1-4.26.7-1.8-.33-2.6-.93-3.07-2.52-1.05-3.24-2.19-6.83-2.2-10.37-.16-2.17,3.45-4.13,5.15-4.22l.55,0Zm-109.57.4a3.49,3.49,0,1,1-3.45,3.48A3.46,3.46,0,0,1,32.8,112.57Zm38.38,1-.31,3,.63-.5a1.24,1.24,0,0,1,2,1.27,13.78,13.78,0,0,1-2.59,4.78s-2.85-3.14-3.16-3.75c-.67-1.37.25-2.79,1.48-2.18a6.68,6.68,0,0,1,.69.46L69,113.83Zm-38.07.11c-1.25-.09-2.49.58-2.3,1.94.1.43.75-.19,1.39-.59a1.93,1.93,0,0,1,2.64.88c.25.3.51.54.66.4A2.4,2.4,0,0,0,33.11,113.7Zm92.92.61,1.24.64c1.66,22.22,12.8,35.29,24.49,43.07l-.93.57A55,55,0,0,1,126,114.31Zm1.87.91s3.1,1.61,4.73,2.34l.06,2-1.09,0-.37-1.89-2.25.17.71,4.65,3.63-.45.51,2.81-1.23.26-.63-1.73-2.09.51,1.35,4.52,3.28-1.07,1,3-1.1.4-.71-1.73-2.16.76,1.67,4.41,3.41-1.11,1.38,2.76-1,.47-1-1.72-2,1.06,2.4,4.12,3.08-1.63,1.44,2.2-1.13.76-1-1.34-1.65,1.1,2.65,3.66,2.65-2,2,2.31-.88.78-1.35-1.38-1.61,1.44,3.16,3.5,2.75-2.4,1.95,1.83-.58.61-1.31-.82-1.74,1.86,3.32,2.91,2.64-2.91,2.23,1.66v1.23l-2-1-1.34,2,3.33,2.55,0,1c-19-11.46-24-29.24-25-42.47Zm-39,.23c.83,0,1.69.75,3.13,2.43,4,4.69,2.94,11.94-2.3,15.73-.77.55-1.07.5-2-.31-5.38-4.66-5.69-10.9-.9-16.38C87.68,116,88.29,115.47,88.93,115.45Zm19.23.64c1,1.53,2.24,3.1,2.38,5-.07,1.84-1.3,2.18-2.57,1.11a8.92,8.92,0,0,0,.39,2.84l-2.3-.24a7.67,7.67,0,0,0,.93-2.59,1.58,1.58,0,0,1-2.6-1.52C104.85,118.64,106.49,117.29,108.16,116.09ZM89,117.29a1.35,1.35,0,0,0-.68.39,10,10,0,0,0-3.07,4,8.52,8.52,0,0,0,2.3,9.28c1.38,1.37,1.86,1.28,4-1.56a8.31,8.31,0,0,0,1-8.12,8.94,8.94,0,0,0-2.66-3.5c-.44-.35-.67-.52-.92-.5Zm44.25.57,1.78.88c2.28,15.16,9.66,24.41,17.93,30.78l0,1.41-2.22-1.74L148.07,152l-2.16-1.78.81-.79,1.23.79,1.56-1.78-3.08-2.78-2.7,2.36-2.24-2.33.68-.57,1.55,1.36,1.74-1.55-3-3.4-2.69,2.06-1.87-2.51.82-.49,1,1.36,2.07-1.3-2.19-3.4-3.12,1.62-1.6-2.91.91-.44,1,1.63,1.95-.94-2-4-3.19,1.07-1.17-3.16.91-.33.81,1.86,2.15-.7-1.46-4.31-3.3.94-.81-3.17,1-.22.53,1.71,2.27-.46-.83-4.11-3.38.43a31,31,0,0,1-.6-3.28l1-.09.33,1.81,2.27-.08Zm-44.13.33c1.24.17,2.75,2.57,3.09,3.45a7.66,7.66,0,0,1,.11,5.27,11.79,11.79,0,0,1-2.86,4.15c-.75.41-1.37.11-2.44-1.35-2.1-2.89-2.51-6.36-.85-8.74C87.44,119.16,88.38,118.19,89.12,118.19Zm46.52.75.89.42c1.11,8.79,6.26,20.84,16.41,28.05v1.11C145.05,142.8,137.8,132.93,135.64,118.94Zm-46.68.6c-3.53,2.69-3,6.9-.29,9.73C91.56,127.35,92.58,122.14,89,119.54ZM35,119.71h0c2,0,3.26.66,3.86,2.05a12.69,12.69,0,0,1,1.27,3.72c.11.65.28,1.63.38,2.18,1,5.89.27,8.1-3.27,9a8.1,8.1,0,0,1-3.56.12,17.93,17.93,0,0,0-2-.1,3.7,3.7,0,0,1-2.79-.85,1.93,1.93,0,0,0-.89-.47c-1.77-.28-2.29-1.91-.95-3.12.76-.69.84-.78.77-.9a1.39,1.39,0,0,0-.73-.12c-1.78,0-1.76-1.86,0-3.19.85-.62,1.24-1.22.67-1.07-1.62.39-2.19-2-.5-2.76.91-.51,1.56-.93.68-1s-1.32-.48-1.1-1.13a2.56,2.56,0,0,1,2.62-1.22c.67.21,1.32.4,1.74.09a4.7,4.7,0,0,1,2.34-1.18,11.12,11.12,0,0,1,1.47-.09Zm59.26.45,8.07.16v8.11l-7.84-.14A10.56,10.56,0,0,0,94.28,120.16Zm-18.44.19,7.93.1a12.55,12.55,0,0,0-.34,8l-7.59-.12ZM89,121.42c1.32.77,1.69,4.41-.15,5.87C87.05,125.47,87.4,122.46,89,121.42Zm-19.28,2.47,2.1.2-.75,3a2.76,2.76,0,0,1,.45-.4c2.71-1.28,2.9,1.62.15,4.24-.61.58-1.58,1.37-1.58,1.37s-.77-1.17-1.38-2.22a4.92,4.92,0,0,1-1-2.8c.17-.88,1.22-1.46,1.88-.92a8.19,8.19,0,0,1,.71.66Zm37.56,2.23s.88.91,1.42,1.5c1.86,2,2.18,4,1.23,4.56a1.64,1.64,0,0,1-2-.42,13.14,13.14,0,0,0,1.11,3.15l-2.77.45a18.5,18.5,0,0,0,.63-3.51,5.91,5.91,0,0,1-.83.56c-1.81.66-2.7-1.41-1.21-3.48A20.63,20.63,0,0,1,107.23,126.12ZM145.11,130a3.4,3.4,0,1,1-3.37,3.4A3.38,3.38,0,0,1,145.11,130Zm1.66,1.56c-.15,0-.27.37-.28,1.11a1.77,1.77,0,0,1-2.8,1.43c-.56-.28-1-.71-1-.38a3.89,3.89,0,0,0,.76,1.39c1.17,1.06,4,.81,3.94-1.66C147.33,132.25,147,131.46,146.77,131.52ZM85.6,132.79h0a1.51,1.51,0,0,1,1.12.44c.93.64,1.1,1.45,1.16,4.51.05,2.7,0,2.77.44,3.09,1.08.81,1.73-.42,1.42-3.15s.64-4.55,2.22-4.54c.78,0,.92.46.33,1.05s-.77,1.38-.58,2.9c.5,3.9.07,5.82-1.55,6.61a3,3,0,0,1-4.26-2.28,18.37,18.37,0,0,1-.08-4.76c0-1.69,0-1.89-.59-2.86-.41-.65-.1-1,.37-1ZM43,134.06a2.79,2.79,0,0,1,2.49,1.76c1.41,2.92-1.63,5.33-4.42,5.52a110.67,110.67,0,0,1-15.46-1.29l.08-2.76c4.46.26,9.49.62,14.9.88C40,135.6,41.41,134.06,43,134.06Zm25.47.57,2.7.6-1.72,2.83a1.61,1.61,0,0,1,1.37-.19c1.1.4,1.11,1.8.31,3.11a12.69,12.69,0,0,1-3.65,2.8c-.69-1.49-2.21-4.1-1.6-5.52a1.45,1.45,0,0,1,2-.71l.8.43Zm6.37.07,8.22.1c-1.2,8.38-3.53,19.58-8.14,28.7L73,164a95.15,95.15,0,0,0,8-27.08H76.87c-2.36,10.2-5.86,19.66-11.23,27.87L63.25,164c5.74-9.19,10.3-19.45,11.56-29.32Zm18.74.15h9.16c1.68,17.07,7.39,28.72,15.9,40.25a1.71,1.71,0,0,1-.85,0,5.35,5.35,0,0,0-3-2.13c-7.14-10.39-11.94-24.91-13.1-36H96.2c.62,13.95,4.45,25.39,9.54,36.47l-2.76.52C98.89,164,94.4,155.37,93.55,134.85ZM88.83,136c.22,0,.39.87.39,2s-.17,2-.39,2-.39-.88-.39-2S88.61,136,88.83,136ZM43,136.16a.73.73,0,1,0,.73.73A.72.72,0,0,0,43,136.16Zm64.78.8c.75.59,1.57,1.17,2.33,1.73,2.07,1.46,2,4.22,0,4.2l-.7,0s.81,1.81,1.33,2.73c-.84.22-2.58.55-2.58.55a22.24,22.24,0,0,0,.2-3.25,2.45,2.45,0,0,1-.61.51,1.71,1.71,0,0,1-2.29-2c.22-1.87,2.29-4.45,2.29-4.45Zm-61.18.33,4.51,2.26c-3.07,7.06-6.69,13.67-11.78,18.69l.23-16.31C42.36,141.85,45.21,141.83,46.62,137.29Zm30.82.26h2.78c-1.24,13-9.76,30.63-11.36,32.75l-.53.4s-1.09-4-2.36-5.42c4.8-6.54,9.84-19.12,11.47-27.73Zm19.5,0h4.19c1.3,10.37,4.48,21.58,12.53,35.19a2.67,2.67,0,0,1-1.43-.29c-1.37-.86-2.32.28-3.14.23a7,7,0,0,0-2.82.17A96.4,96.4,0,0,1,96.94,137.55ZM51.7,139.88h0l1.49.71C50,148.1,47,154.07,39.35,161.39v-2.18c5.35-5.23,9.06-12.13,12.34-19.33Zm2.18,1.05a15.77,15.77,0,0,1,2.53,1.36A4.6,4.6,0,0,1,53,144c-.66.16-.45-.5.26-1.95A8.94,8.94,0,0,1,53.88,140.93Zm3,1.59,2.71,1.34a19.42,19.42,0,0,1-.89,2.35c-.88,1.92-1.06,2-1.32.38,0-.27-.31-1.16-.47-1.76a4.25,4.25,0,0,1,0-2.31Zm3.27,1.55s1,.51,1.39.74C56.84,159,44.34,170.72,44.41,170.45l-1.95-1.16A67.08,67.08,0,0,0,60.14,144.07Zm-5,.2c.45,0,.06.57-.56,1.94s-.77,1.81-1.31,2a21.55,21.55,0,0,1-2.89.47c-.43.07-.25-.26.41-1.6.76-1.57.81-1.9,2-2.23A16.41,16.41,0,0,1,55.18,144.27Zm.91.54c.38.15.61,2.15.73,2.28.49,1.75.48,2.1.15,2.71-.6,1.14-1.4,2.48-1.61,2.84-.55.91-.71.72-1-1.48a7.56,7.56,0,0,1-.23-2.57c.27-.67,1.09-2.26,1.55-3.18C55.81,144.91,56,144.76,56.09,144.81Zm9.37.74,2.46.82L66,148.72a5.39,5.39,0,0,1,.91-.11c1.93.13,1.61,2.08.11,3.25a26.29,26.29,0,0,1-3.68,2c-.33-1.74-1-2.85-.84-4.63.11-1,.19-1.83,1.36-1.86.62,0,.86.6,1.26,1.11Zm44.62,2.11a20.8,20.8,0,0,1,2.86,1.84c1.79,1.39,2.1,3,.31,3.66a3.09,3.09,0,0,1-.8.05,17.28,17.28,0,0,0,1.67,2.15,8.65,8.65,0,0,1-2.34,1,30.06,30.06,0,0,0-.44-3,2,2,0,0,1-.53.65c-1.73,1.09-3.09-1-2.16-3.54a14.81,14.81,0,0,1,1.43-2.85Zm-19,.36c4.31-.1,1.79,7-.37,6.56,0-.06,1.78-4.21-.66-4.87C89,149.4,89.91,148,91.1,148Zm-7.07.51c1.34,0,2.32.94,1,1.54-2,1-.82,3.21-.77,4.49,0,.78-1.79-.68-2.18-2.27-.5-2.06-.27-3.59,1.91-3.76Zm-31.88.75a1.23,1.23,0,0,1,.59.08c.13.33-.47,1.39-1.35,2.73a3,3,0,0,1-1,1.09,6.1,6.1,0,0,1-2.43.34c-1.18,0-1,0,.33-2.07a9.13,9.13,0,0,1,1.31-1.91A14.76,14.76,0,0,1,52.15,149.28Zm1.3.75c.16,0,.25.29.25.73,0,2.58.87,3.42.23,4.24-.78,1.26-1.77,2.65-2.13,3.09-.61.74-.54.6-.7-1.33A8.59,8.59,0,0,1,51,154c.52-1.27,1.14-1.87,1.78-3.22C53.07,150.23,53.29,150,53.45,150Zm34.28,2c1.25,0,2,1.36,2,2.59l0,1.18c1.61-.63,3.62,0,3.71,1.58.15,2.72-1.83,2.4-3.51,2.29.17.06.42,2.45-.58,3.37-1.56,1.77-4.48,0-3.75-2.63a5,5,0,0,0,.19-.88,6.29,6.29,0,0,1-1.42.36c-3.17-.13-2.93-4.66.26-4.13a6.87,6.87,0,0,1,1.09.27l-.17-.69c-.47-1.75.51-3.34,2.26-3.31Zm63.5.8,1.71,1v1.92L150.51,154ZM48.64,154.15c.67,0,1.21,0,1.1.21a14.55,14.55,0,0,1-2.35,3.36c-.74.81-.85.7-2.67.61-.71,0-1.18-.05-1.16-.24.84-1.11,2-2.54,2.79-3.73a13.18,13.18,0,0,1,2.29-.21Zm1.57,1.06c.37.08.29,2,.38,3.18s.12,1.1-.35,1.76-1.15,1.54-1.89,2.25c-1.11,1.24-1,1.31-1-1.34,0-2.07-.14-2.07.28-2.56.23-.26.93-1.13,1.39-1.81C49.75,155.65,50,155.21,50.21,155.21Zm10.65.21,2.28,1.23L60.85,159a6.36,6.36,0,0,1,.77,0c1.46.28,1.35,1.85-.12,3a35.18,35.18,0,0,1-4,1.72,33.21,33.21,0,0,1-.33-3.94,2.86,2.86,0,0,1,.58-1.93,1.22,1.22,0,0,1,1.72-.08,3.18,3.18,0,0,1,.64.81Zm26.87.8a1.63,1.63,0,1,0,1.61,1.63A1.62,1.62,0,0,0,87.73,156.22Zm25.45.38A17.05,17.05,0,0,1,117.5,159c1.25,1.06.67,2.8-.58,2.83-.09,0-.62-.07-.62-.07.42.64,1.84,2.23,1.84,2.23l-2.31.95s-.37-1.79-.65-2.8c-.8,1.87-2.78.65-2.92-.51C111.94,159.89,112.66,158.22,113.18,156.6Zm-25.45.15a1.13,1.13,0,0,1,0,2.26,1.13,1.13,0,0,1,0-2.26Zm0,.58a.56.56,0,1,0,.56.56A.56.56,0,0,0,87.72,157.33Zm-43.43,1.73,1.71.06h0c.34.27-.38,1.09-1.76,2.55-1.11,1.17-1.27,1-2.61,1-2.25,0-2.3,0-1.27-1.15a12.76,12.76,0,0,1,2.31-2.41,12.39,12.39,0,0,1,1.62-.07Zm2.19,1.18c.34,0,.12,1.42.14,1.92l-.07,2.35-1.75,1.7c-2,1.83-1.78,1.94-1.77.23a8.16,8.16,0,0,1,.29-2.92c.89-1.07,1.81-2,2.81-3.05.16-.17.27-.24.35-.23Zm44.49.55c.49,0,1.73,2.11,2,3.91.71,4.1,3.15,6.05,4.87,4.4.7-1,.77.09.74.59-.36,5.21-6.2,3-6.87-2.13-2,1.35-4-1.37-2.74-1.32C91.9,165.31,91.11,162.63,91,160.79Zm-6.77,0c.29,1.8-2.93,4.88-4.74,2.72-.92-1.1-.08-3.37,1.09-2C81.84,162.54,83.1,161.42,84.2,160.83Zm-43.79,2.4c.56,0,1.21.11,1.64.12.59.06.17.35-1.1,1.52-1.1,1-1.47,1.47-1.6,1-.06-.68,0-1.49,0-2.46C39.4,163.23,39.86,163.21,40.41,163.23ZM55,164.49l2,1.45L55,167.75c1.74-.09,1.9,1.56,1.23,2.48-.42.65-2.08,1.33-3.73,1.6l-1.81.28s0-.77-.07-2.06c0-2.63.12-3.67,1.13-4.18a1.92,1.92,0,0,1,2.23.88,6.77,6.77,0,0,0,.35.61Zm-12.62.15h0c.11.16-.29,4.44-.29,4.44l-2.77-1.62s2.8-2.77,3-2.82Zm75.22.5c2,1,3.43.92,4.9,2a1.64,1.64,0,0,1,0,2.74,3.31,3.31,0,0,1-1,.05,15.05,15.05,0,0,0,2.29,2L121.24,173s-.35-1.69-.66-2.62a1.8,1.8,0,0,1-2.87.7c-.62-.48-.87-2.09-.58-3.48.08-.37.48-2.43.48-2.43ZM104.3,205c-24.58,5.87-44.54,2.24-46.52,1.54l-1.57,2.36c-.19.4-.3,1.6-1.36,1.92l-1.59,2.4.31.34-1.42,1.24.35.41-1,1.51-.41,0-2.37,3.64.36.41-5.46,8.62,73.83,0c-4.29-8.17-8.88-16.18-13.12-24.37Zm-.45,1.06.6,1.25a8.63,8.63,0,0,0-9.72,3.59c-4.54-3.44-10.25-2.36-14,1.51A10.43,10.43,0,0,0,66.63,212c-1.86-4.06-8.82-4.25-8.89-3.78a3.83,3.83,0,0,0,.33-.62C66.63,209.54,86.19,210.36,103.85,206.07Zm-2.08,1.68a13.61,13.61,0,0,1,3.24.6l.76,1.33c-1.6-.86-8.44-2.82-10.38,4-2-2.79-10.46-6.83-14.73,1.76-1.22-2.33-8.29-9-14.74-.49-2.54-5.31-4.66-5.75-9.33-5,3.32-3.22,8,.13,10,2.86,5.56-4.65,10.21-3.25,14.28.54C86.07,207.61,91.3,209,95,211.89,96.92,209,98.82,207.64,101.77,207.75Zm2.92,3h.43a3.7,3.7,0,0,1,2,.91s-.67.11-.88.17a2.51,2.51,0,0,0,.72,4.94,9.71,9.71,0,0,0,1-.12c-.06,2.81.78,3.5,3.63,3.34l4.82,8.7-71.34-.31,4.53-7.31c2.28.27,3.71-1,3.2-3a12.32,12.32,0,0,0,1.8.43c2.58,0,3.25-4,.77-4.67-.27-.07-1-.15-1.05-.18,1.13-2.85,4.24-1.16,5.13,0a3.11,3.11,0,0,1,5.16,1.23s-.37-.21-.48-.29c-2.35-1.73-4.53,1.85-2.23,3.51a3,3,0,0,0,.7.3,2.62,2.62,0,0,0-.53.66,2.65,2.65,0,0,0,3,3.86c1.78-.7,1.81-2.06,1.81-3.54,0,0,.61.05,1.16.05,2.14,0,2.75-2.73,1.44-4a3.38,3.38,0,0,0-2.09-.73c2.47-2.44,4.13-.75,5.87.37.26,0,3-3.34,6.29-.06a2.49,2.49,0,0,0-3.23,2.29c0,1.07.79,2,2.43,2.1a4.53,4.53,0,0,0-.3,1.46,2.48,2.48,0,0,0,3,2.58,2.52,2.52,0,0,0,2-3.22,1.8,1.8,0,0,0-.55-.84,2.41,2.41,0,1,0,.79-4.74,2.46,2.46,0,0,0-2,.9c1.76-3.64,5-2.91,6.19-1.42,1.66-1.22,3.94-2.87,6.68.08a3.65,3.65,0,0,0-1.64,0,2.26,2.26,0,0,0-.46,4.2,3.64,3.64,0,0,0,1.71.35,2.6,2.6,0,0,0,3.82,2.88c1.3-.8,1.64-2.69.23-4.41,2.37-.11,2.61-3.09,1.24-4.14-1.08-.82-2.34-.43-3.26.65-.29-.85,2-3.83,5.36-1.68a5.51,5.51,0,0,1,3-1.37ZM108.2,214l.93,1.7A1.07,1.07,0,0,1,108.2,214Zm-12,1.73a1.06,1.06,0,1,1-1,1.06A1.05,1.05,0,0,1,96.24,215.7Zm-43.3.06c.14.57.2,1.14-.82,1.25Zm12.06,1a1,1,0,1,1-1,1A1,1,0,0,1,65,216.78Zm16,.31a1,1,0,1,1-1,1A1,1,0,0,1,81,217.09Z"/><path id="path153-6-3-1-9-0-4-7" d="M47.88,26.16C40.5,36.68,32.6,42.74,32.47,51c0,2.66,1.39,7.18,5.9,8,2.92.56,6.94-1.8,7-6.61,0-1,1-.93,1,.38A27.31,27.31,0,0,1,43,64.56h9.67a27.44,27.44,0,0,1-3.35-11.8c0-1.31,1-1.33,1-.38.09,4.81,4.11,7.17,7,6.61,4.5-.86,5.94-5.38,5.9-8-.13-8.21-8-14.27-15.41-24.79Z"/><path id="path153-6-3-1-8-6-4-8-4" d="M130.7,223.29c-7.38-10.52-15.27-16.58-15.4-24.79,0-2.66,1.39-7.18,5.89-8.05,2.92-.55,6.95,1.81,7,6.61,0,1,1,.94,1-.37a27.12,27.12,0,0,0-3.35-11.8h9.67a27.12,27.12,0,0,0-3.35,11.8c0,1.31,1,1.33,1,.37.08-4.8,4.11-7.16,7-6.61,4.5.87,5.94,5.39,5.89,8.05-.13,8.21-8,14.27-15.41,24.79Z"/></g></g></g></svg>