<svg xmlns="http://www.w3.org/2000/svg" viewBox="0 0 178.58 249.45"><defs><style>.cls-1{fill:#fff;}</style></defs><g id="Layer_2" data-name="Layer 2"><g id="svg8"><g id="g8417-9-8"><path id="rect6716-2-0" class="cls-1" d="M8.54,0H170a8.53,8.53,0,0,1,8.54,8.53V240.92a8.53,8.53,0,0,1-8.54,8.53H8.54A8.53,8.53,0,0,1,0,240.92V8.53A8.53,8.53,0,0,1,8.54,0Z"/><path id="path6748-4-0" d="M13.77,40c-3.44,4.38-7.13,6.91-7.2,10.33a3.33,3.33,0,0,0,2.76,3.35,2.86,2.86,0,0,0,3.28-2.75c0-.4.48-.39.47.16A10.44,10.44,0,0,1,11.52,56H16a10.44,10.44,0,0,1-1.56-4.91c0-.55.47-.56.46-.16a2.86,2.86,0,0,0,3.29,2.75A3.32,3.32,0,0,0,21,50.31c-.06-3.42-3.75-6-7.2-10.33Z"/><path id="path6752-9-1" d="M164.81,209.47c-3.45-4.39-7.14-6.91-7.2-10.33a3.32,3.32,0,0,1,2.76-3.35,2.85,2.85,0,0,1,3.28,2.75c0,.4.47.39.47-.16a10.54,10.54,0,0,0-1.57-4.91h4.52a10.54,10.54,0,0,0-1.57,4.91c0,.55.48.56.47.16a2.85,2.85,0,0,1,3.28-2.75,3.32,3.32,0,0,1,2.76,3.35c-.06,3.42-3.75,5.94-7.2,10.33Z"/><path id="path6760-2-4" d="M89.29,26.16C81.91,36.68,74,42.74,73.88,51c0,2.66,1.4,7.18,5.9,8,2.92.56,6.94-1.8,7-6.61,0-1,1-.93,1,.38a27.44,27.44,0,0,1-3.35,11.8h9.67a27.31,27.31,0,0,1-3.36-11.8c0-1.31,1-1.33,1-.38.08,4.81,4.1,7.17,7,6.61,4.51-.86,5.94-5.38,5.9-8-.13-8.21-8-14.27-15.41-24.79Z"/><path id="path6774-6-2" d="M89.29,223.29C81.91,212.77,74,206.71,73.88,198.5c0-2.66,1.4-7.18,5.9-8.05,2.92-.55,6.94,1.81,7,6.61,0,1,1,.94,1-.37a27.4,27.4,0,0,0-3.35-11.8h9.67a27.27,27.27,0,0,0-3.36,11.8c0,1.31,1,1.33,1,.37.08-4.8,4.1-7.16,7-6.61,4.51.87,5.94,5.39,5.9,8.05-.13,8.21-8,14.27-15.41,24.79Z"/><path id="path15-3-8-9" d="M6.26,37.41l.13-1.62c.4-5,1.49-6.73,7.62-12,3-2.55,4-3.81,4.09-5.26.39-3.44-2.66-4.51-4.64-4.53C10.9,14,8,15.56,9.38,19.19l-2.88.86c-.58-3.38,0-6.56,2.71-8,3.6-1.84,8.22-1.12,10.55,1.78a6.93,6.93,0,0,1,1.08,6.74c-2.46,5.37-10.78,7.74-11.47,14h9.2V31.09h2.72v6.38l-15-.06Z"/><path id="path15-3-5-1-4" d="M172.32,212l-.13,1.62c-.4,5-1.48,6.73-7.62,12-3,2.55-3.95,3.8-4.08,5.26-.39,3.44,2.65,4.51,4.63,4.53,2.57,0,5.47-1.54,4.08-5.17l2.88-.86c.58,3.38,0,6.56-2.71,8-3.6,1.84-8.21,1.12-10.54-1.78a6.91,6.91,0,0,1-1.09-6.74c2.46-5.37,10.78-7.74,11.47-14H160v3.46h-2.72V212l15,.06Z"/></g></g></g></svg>