<svg xmlns="http://www.w3.org/2000/svg" viewBox="0 0 178.58 249.45"><defs><style>.cls-1{fill:#fff;}</style></defs><g id="Layer_2" data-name="Layer 2"><g id="svg8"><g id="g8426-7-4"><path id="rect6784-5-9" class="cls-1" d="M8.54,0H170a8.53,8.53,0,0,1,8.54,8.53V240.92a8.53,8.53,0,0,1-8.54,8.53H8.54A8.53,8.53,0,0,1,0,240.92V8.53A8.53,8.53,0,0,1,8.54,0Z"/><path id="path6816-2-4" d="M13.77,40c-3.44,4.38-7.13,6.91-7.2,10.33a3.33,3.33,0,0,0,2.76,3.35,2.86,2.86,0,0,0,3.28-2.75c0-.4.48-.39.47.16A10.44,10.44,0,0,1,11.52,56H16a10.44,10.44,0,0,1-1.56-4.91c0-.55.47-.56.46-.16a2.86,2.86,0,0,0,3.29,2.75A3.32,3.32,0,0,0,21,50.31c-.06-3.42-3.75-6-7.2-10.33Z"/><path id="path6820-0-2" d="M164.81,209.47c-3.45-4.39-7.14-6.91-7.2-10.33a3.32,3.32,0,0,1,2.76-3.35,2.85,2.85,0,0,1,3.28,2.75c0,.4.47.39.47-.16a10.54,10.54,0,0,0-1.57-4.91h4.52a10.54,10.54,0,0,0-1.57,4.91c0,.55.48.56.47.16a2.85,2.85,0,0,1,3.28-2.75,3.32,3.32,0,0,1,2.76,3.35c-.06,3.42-3.75,5.94-7.2,10.33Z"/><path id="path6828-8-3" d="M89.29,26.16C81.91,36.68,74,42.74,73.88,51c0,2.66,1.4,7.18,5.9,8,2.92.56,6.94-1.8,7-6.61,0-1,1-.93,1,.38a27.44,27.44,0,0,1-3.35,11.8h9.67a27.31,27.31,0,0,1-3.36-11.8c0-1.31,1-1.33,1-.38.08,4.81,4.1,7.17,7,6.61,4.51-.86,5.94-5.38,5.9-8-.13-8.21-8-14.27-15.41-24.79Z"/><path id="path6842-0-7" d="M89.29,223.29C81.91,212.77,74,206.71,73.88,198.5c0-2.66,1.4-7.18,5.9-8.05,2.92-.55,6.94,1.81,7,6.61,0,1,1,.94,1-.37a27.4,27.4,0,0,0-3.35-11.8h9.67a27.27,27.27,0,0,0-3.36,11.8c0,1.31,1,1.33,1,.37.08-4.8,4.1-7.16,7-6.61,4.51.87,5.94,5.39,5.9,8.05-.13,8.21-8,14.27-15.41,24.79Z"/><path id="path6844-7-0" d="M89.29,105.52c-7.38,10.53-15.28,16.59-15.41,24.8,0,2.66,1.4,7.18,5.9,8,2.92.56,6.94-1.8,7-6.61,0-.95,1-.93,1,.38a27.35,27.35,0,0,1-3.35,11.79h9.67a27.23,27.23,0,0,1-3.36-11.79c0-1.31,1-1.33,1-.38.08,4.81,4.1,7.17,7,6.61,4.51-.86,5.94-5.38,5.9-8-.13-8.21-8-14.27-15.41-24.8Z"/><path id="path17-9-11-4" d="M5.2,31.68l2-1.49C9,33.06,11,35,14,34.63c4.53-.31,6.41-5.06,5.46-8.64a5.25,5.25,0,0,0-7.65-3.06,7.29,7.29,0,0,1-1.51.74c-.32,0-1-1.41-.93-1.84a93.46,93.46,0,0,1,6.86-8H8.63v3.43H5.72V11.07H20.55v2.09a50.86,50.86,0,0,0-5.29,6.38A7.17,7.17,0,0,1,22,25a14.35,14.35,0,0,1-.41,7.29,9.16,9.16,0,0,1-7.44,5.21c-5,.33-7.66-3.17-9-5.77Z"/><path id="path17-9-1-0-8" d="M173.38,217.77l-2,1.49c-1.76-2.87-3.73-4.76-6.75-4.44-4.53.31-6.4,5.06-5.46,8.63a5.25,5.25,0,0,0,7.65,3.07,7.29,7.29,0,0,1,1.51-.74c.32,0,1,1.41.93,1.84a93.46,93.46,0,0,1-6.86,8H170v-3.43h2.91v6.15H158v-2.09a50.86,50.86,0,0,0,5.29-6.38,7.19,7.19,0,0,1-6.78-5.41,14.35,14.35,0,0,1,.41-7.29,9.17,9.17,0,0,1,7.44-5.21C169.39,211.66,172.05,215.17,173.38,217.77Z"/></g></g></g></svg>