<svg xmlns="http://www.w3.org/2000/svg" viewBox="0 0 178.58 249.45"><defs><style>.cls-1{fill:#fff;}</style></defs><g id="Layer_2" data-name="Layer 2"><g id="svg8"><g id="g8436-8-0"><g id="g8473-4-9"><path id="rect6852-0-4" class="cls-1" d="M8.54,0H170a8.53,8.53,0,0,1,8.54,8.53V240.92a8.53,8.53,0,0,1-8.54,8.53H8.54A8.53,8.53,0,0,1,0,240.92V8.53A8.53,8.53,0,0,1,8.54,0Z"/><path id="path6882-1-0" d="M47.88,26.16C40.5,36.68,32.6,42.74,32.47,51c0,2.66,1.39,7.18,5.9,8,2.92.56,6.94-1.8,7-6.61,0-1,1-.93,1,.38A27.31,27.31,0,0,1,43,64.56h9.67a27.44,27.44,0,0,1-3.35-11.8c0-1.31,1-1.33,1-.38.09,4.81,4.11,7.17,7,6.61,4.5-.86,5.94-5.38,5.9-8-.13-8.21-8-14.27-15.41-24.79Z"/><path id="path6884-6-5" d="M13.77,40c-3.44,4.38-7.13,6.91-7.2,10.33a3.33,3.33,0,0,0,2.76,3.35,2.86,2.86,0,0,0,3.28-2.75c0-.4.48-.39.47.16A10.44,10.44,0,0,1,11.52,56H16a10.44,10.44,0,0,1-1.56-4.91c0-.55.47-.56.46-.16a2.86,2.86,0,0,0,3.29,2.75A3.32,3.32,0,0,0,21,50.31c-.06-3.42-3.75-6-7.2-10.33Z"/><path id="path6888-1-5" d="M164.81,209.47c-3.45-4.39-7.14-6.91-7.2-10.33a3.32,3.32,0,0,1,2.76-3.35,2.85,2.85,0,0,1,3.28,2.75c0,.4.47.39.47-.16a10.54,10.54,0,0,0-1.57-4.91h4.52a10.54,10.54,0,0,0-1.57,4.91c0,.55.48.56.47.16a2.85,2.85,0,0,1,3.28-2.75,3.32,3.32,0,0,1,2.76,3.35c-.06,3.42-3.75,5.94-7.2,10.33Z"/><path id="path6890-4-9" d="M130.7,26.16C123.32,36.68,115.43,42.74,115.3,51c0,2.66,1.39,7.18,5.89,8,2.92.56,6.95-1.8,7-6.61,0-1,1-.93,1,.38a27.16,27.16,0,0,1-3.35,11.8h9.67a27.16,27.16,0,0,1-3.35-11.8c0-1.31,1-1.33,1-.38.08,4.81,4.11,7.17,7,6.61,4.5-.86,5.94-5.38,5.89-8-.13-8.21-8-14.27-15.41-24.79Z"/><path id="path6902-7-5" d="M47.88,223.29C40.5,212.77,32.6,206.71,32.47,198.5c0-2.66,1.39-7.18,5.9-8.05,2.92-.55,6.94,1.81,7,6.61,0,1,1,.94,1-.37A27.27,27.27,0,0,0,43,184.89h9.67a27.4,27.4,0,0,0-3.35,11.8c0,1.31,1,1.33,1,.37.09-4.8,4.11-7.16,7-6.61,4.5.87,5.94,5.39,5.9,8.05-.13,8.21-8,14.27-15.41,24.79Z"/><path id="path6904-9-7" d="M130.7,223.29c-7.38-10.52-15.27-16.58-15.4-24.79,0-2.66,1.39-7.18,5.89-8.05,2.92-.55,6.95,1.81,7,6.61,0,1,1,.94,1-.37a27.12,27.12,0,0,0-3.35-11.8h9.67a27.12,27.12,0,0,0-3.35,11.8c0,1.31,1,1.33,1,.37.08-4.8,4.11-7.16,7-6.61,4.5.87,5.94,5.39,5.89,8.05-.13,8.21-8,14.27-15.41,24.79Z"/><path id="path19-08-0-9" d="M14,37.47V35.14h2.1V31.29H5.54V28.57l11.39-17.5h1.86V28.57H22v2.72H18.79l-.06,3.85h1.76v2.33Zm2.1-20L8.83,28.58h7.23Z"/><path id="path19-08-1-1-4" d="M164.62,212v2.33h-2.1v3.85h10.53v2.71l-11.39,17.51H159.8v-17.5h-3.23v-2.71h3.23l.06-3.85h-1.77V212Zm-2.1,20,7.23-11.1h-7.23Z"/></g></g></g></g></svg>