<svg xmlns="http://www.w3.org/2000/svg" viewBox="0 0 178.58 249.45"><defs><style>.cls-1{fill:#fff;}</style></defs><g id="Layer_2" data-name="Layer 2"><g id="svg8"><g id="g8447-5-9"><g id="g8459-0-4"><path id="rect6920-5-5" class="cls-1" d="M170,249.45H8.54A8.53,8.53,0,0,1,0,240.92V8.53A8.53,8.53,0,0,1,8.54,0H170a8.53,8.53,0,0,1,8.54,8.53V240.92A8.53,8.53,0,0,1,170,249.45Z"/><path id="path6950-9-9" d="M130.7,223.29c7.39-10.52,15.28-16.58,15.41-24.79,0-2.66-1.39-7.18-5.89-8.05-2.92-.55-6.95,1.81-7,6.61,0,1-1,.94-1-.37a27.12,27.12,0,0,1,3.35-11.8h-9.67a27.12,27.12,0,0,1,3.35,11.8c0,1.31-1,1.33-1,.37-.08-4.8-4.11-7.16-7-6.61-4.5.87-5.94,5.39-5.89,8.05.13,8.21,8,14.27,15.4,24.79Z"/><path id="path6952-6-0" d="M164.81,209.47c3.45-4.39,7.14-6.91,7.2-10.33a3.32,3.32,0,0,0-2.76-3.35,2.85,2.85,0,0,0-3.28,2.75c0,.4-.47.39-.47-.16a10.54,10.54,0,0,1,1.57-4.91h-4.52a10.54,10.54,0,0,1,1.57,4.91c0,.55-.48.56-.47.16a2.86,2.86,0,0,0-3.29-2.75,3.32,3.32,0,0,0-2.75,3.35c.06,3.42,3.75,5.94,7.2,10.33Z"/><path id="path6956-5-0" d="M13.77,40c3.45,4.38,7.14,6.91,7.2,10.33a3.32,3.32,0,0,1-2.75,3.35,2.86,2.86,0,0,1-3.29-2.75c0-.4-.47-.39-.46.15A10.44,10.44,0,0,0,16,56H11.51a10.35,10.35,0,0,0,1.57-4.92c0-.54-.47-.55-.47-.15a2.86,2.86,0,0,1-3.28,2.75,3.32,3.32,0,0,1-2.76-3.35c.07-3.42,3.75-6,7.2-10.33Z"/><path id="path6958-4-1" d="M47.88,223.29c7.38-10.52,15.28-16.58,15.41-24.79,0-2.66-1.4-7.18-5.9-8.05-2.92-.55-6.94,1.81-7,6.61,0,1-1,.94-1-.37a27.4,27.4,0,0,1,3.35-11.8H43a27.27,27.27,0,0,1,3.36,11.8c0,1.31-1,1.33-1,.37-.08-4.8-4.1-7.16-7-6.61-4.51.87-5.95,5.39-5.9,8.05.13,8.21,8,14.27,15.41,24.79Z"/><path id="path6970-5-5" d="M130.7,26.16C138.09,36.68,146,42.74,146.11,51c0,2.66-1.39,7.18-5.89,8-2.92.56-6.95-1.8-7-6.61,0-1-1-.93-1,.38a27.16,27.16,0,0,0,3.35,11.8h-9.67a27.16,27.16,0,0,0,3.35-11.8c0-1.31-1-1.33-1-.38-.08,4.81-4.11,7.17-7,6.61-4.5-.86-5.94-5.38-5.89-8,.13-8.21,8-14.27,15.4-24.79Z"/><path id="path6972-5-8" d="M47.88,26.16C55.26,36.68,63.16,42.74,63.29,51c0,2.66-1.4,7.18-5.9,8-2.92.56-6.94-1.8-7-6.61,0-1-1-.93-1,.38a27.44,27.44,0,0,0,3.35,11.8H43a27.31,27.31,0,0,0,3.36-11.8c0-1.31-1-1.33-1-.38-.08,4.81-4.1,7.17-7,6.61-4.51-.86-5.95-5.38-5.9-8,.13-8.21,8-14.27,15.41-24.79Z"/><path id="path6980-6-3" d="M89.29,143.92c7.38-10.52,15.28-16.58,15.41-24.79,0-2.66-1.39-7.18-5.9-8-2.92-.56-6.94,1.8-7,6.61,0,1-1,.93-1-.38a27.31,27.31,0,0,1,3.36-11.8H84.46a27.44,27.44,0,0,1,3.35,11.8c0,1.31-1,1.33-1,.38-.09-4.81-4.11-7.17-7-6.61-4.5.86-5.94,5.38-5.9,8,.13,8.21,8,14.27,15.41,24.79Z"/><path id="path21-4-5-5" d="M173.13,218.81l-2.59,0c-.49-1.6-1.58-3.22-3.07-3.66a6.18,6.18,0,0,0-7.77,4.13c-1.08,3.33,0,8,2.91,9.68,2.39,1.38,5.94.22,7.57-2.73l1.81,1.13-1,11H159.18v-2.6h9.6l.15-4.58a7.6,7.6,0,0,1-7.31.43c-3.9-1.9-5.72-6.22-5-11.31,1.05-5.06,3.37-7.93,8.61-8.34,5.83,0,7.89,4,7.86,6.83Z"/><path id="path21-4-9-2-8" d="M5.45,30.64l2.59,0c.49,1.59,1.59,3.21,3.07,3.66a6.17,6.17,0,0,0,7.77-4.13c1.08-3.34,0-8-2.9-9.68-2.4-1.38-6-.22-7.58,2.73L6.59,22.06l1-11H19.4v2.6H9.81l-.15,4.58a7.58,7.58,0,0,1,7.3-.43c3.91,1.9,5.73,6.22,5,11.31-1.06,5.06-3.38,7.93-8.62,8.34-5.82.05-7.88-4-7.86-6.83Z"/></g></g></g></g></svg>