<svg xmlns="http://www.w3.org/2000/svg" viewBox="0 0 178.58 249.45"><defs><style>.cls-1{fill:#fff;}</style></defs><g id="Layer_2" data-name="Layer 2"><g id="svg8"><g id="g8484-9-4"><path id="rect6988-1-0" class="cls-1" d="M8.54,0H170a8.53,8.53,0,0,1,8.54,8.53V240.92a8.53,8.53,0,0,1-8.54,8.53H8.54A8.53,8.53,0,0,1,0,240.92V8.53A8.53,8.53,0,0,1,8.54,0Z"/><path id="path7018-7-4" d="M47.88,26.16C40.5,36.68,32.6,42.74,32.47,51c0,2.66,1.39,7.18,5.9,8,2.92.56,6.94-1.8,7-6.61,0-1,1-.93,1,.38A27.31,27.31,0,0,1,43,64.56h9.67a27.44,27.44,0,0,1-3.35-11.8c0-1.31,1-1.33,1-.38.09,4.81,4.11,7.17,7,6.61,4.5-.86,5.94-5.38,5.9-8-.13-8.21-8-14.27-15.41-24.79Z"/><path id="path7020-0-8" d="M13.77,40c-3.44,4.38-7.13,6.91-7.2,10.33a3.33,3.33,0,0,0,2.76,3.35,2.86,2.86,0,0,0,3.28-2.75c0-.4.48-.39.47.16A10.44,10.44,0,0,1,11.52,56H16a10.44,10.44,0,0,1-1.56-4.91c0-.55.47-.56.46-.16a2.86,2.86,0,0,0,3.29,2.75A3.32,3.32,0,0,0,21,50.31c-.06-3.42-3.75-6-7.2-10.33Z"/><path id="path7024-7-1" d="M164.81,209.47c-3.45-4.39-7.14-6.91-7.2-10.33a3.32,3.32,0,0,1,2.75-3.35,2.86,2.86,0,0,1,3.29,2.75c0,.4.47.39.47-.16a10.54,10.54,0,0,0-1.57-4.91h4.52a10.54,10.54,0,0,0-1.57,4.91c0,.55.48.56.47.16a2.85,2.85,0,0,1,3.28-2.75,3.32,3.32,0,0,1,2.76,3.35c-.06,3.42-3.75,5.94-7.2,10.33Z"/><path id="path7026-2-6" d="M130.7,26.16C123.32,36.68,115.43,42.74,115.3,51c0,2.66,1.39,7.18,5.89,8,2.92.56,6.95-1.8,7-6.61,0-1,1-.93,1,.38a27.16,27.16,0,0,1-3.35,11.8h9.67a27.16,27.16,0,0,1-3.35-11.8c0-1.31,1-1.33,1-.38.08,4.81,4.11,7.17,7,6.61,4.5-.86,5.94-5.38,5.89-8C146,42.74,138.09,36.68,130.7,26.16Z"/><path id="path7036-9-6" d="M47.88,105.52c-7.38,10.53-15.28,16.59-15.41,24.8,0,2.66,1.39,7.18,5.9,8,2.92.56,6.94-1.8,7-6.61,0-.95,1-.93,1,.38A27.23,27.23,0,0,1,43,143.92h9.67a27.35,27.35,0,0,1-3.35-11.79c0-1.31,1-1.33,1-.38.09,4.81,4.11,7.17,7,6.61,4.5-.86,5.94-5.38,5.9-8-.13-8.21-8-14.27-15.41-24.8Z"/><path id="path7038-9-6" d="M47.88,223.29C40.5,212.77,32.6,206.71,32.47,198.5c0-2.66,1.39-7.18,5.9-8.05,2.92-.55,6.94,1.81,7,6.61,0,1,1,.94,1-.37A27.27,27.27,0,0,0,43,184.89h9.67a27.4,27.4,0,0,0-3.35,11.8c0,1.31,1,1.33,1,.37.09-4.8,4.11-7.16,7-6.61,4.5.87,5.94,5.39,5.9,8.05-.13,8.21-8,14.27-15.41,24.79Z"/><path id="path7040-0-9" d="M130.7,223.29c-7.38-10.52-15.27-16.58-15.4-24.79,0-2.66,1.39-7.18,5.89-8.05,2.92-.55,6.95,1.81,7,6.61,0,1,1,.94,1-.37a27.12,27.12,0,0,0-3.35-11.8h9.67a27.12,27.12,0,0,0-3.35,11.8c0,1.31,1,1.33,1,.37.08-4.8,4.11-7.16,7-6.61,4.5.87,5.94,5.39,5.89,8.05-.13,8.21-8,14.27-15.41,24.79Z"/><path id="path7050-2-9" d="M130.7,105.52c-7.38,10.53-15.27,16.59-15.4,24.8,0,2.66,1.39,7.18,5.89,8,2.92.56,6.95-1.8,7-6.61,0-.95,1-.93,1,.38a27.08,27.08,0,0,1-3.35,11.79h9.67a27.08,27.08,0,0,1-3.35-11.79c0-1.31,1-1.33,1-.38.08,4.81,4.11,7.17,7,6.61,4.5-.86,5.94-5.38,5.89-8C146,122.11,138.09,116.05,130.7,105.52Z"/><path id="path23-1-9-8" d="M6,29.35a52.21,52.21,0,0,1,0-9.67c.82-5.2,2.81-7.58,6.14-8.36s7.78.08,8.77,4.43l-2.7.06c-1.46-2.94-5.16-2.16-7.25-.88-1.66,1-2.41,5.28-2.09,5.54,0,0,3.14-2.33,5.62-2.16,5.3.55,7.49,5.15,7.3,9.49-.17,5.22-1.82,9.39-7.44,9.67C9,37.26,6.53,34.35,6,29.35ZM19.19,28c0-3.62-1.61-6.34-4.73-6.63s-6.25,2.73-6,6.42,1.65,6.83,5.43,6.81c4.05,0,5.31-4,5.33-6.6Z"/><path id="path23-1-5-6-4" d="M172.56,220.1a52.21,52.21,0,0,1,.05,9.67c-.82,5.2-2.81,7.58-6.14,8.36s-7.77-.08-8.77-4.44l2.7-.05c1.46,2.94,5.17,2.16,7.25.88,1.66-1,2.42-5.28,2.09-5.54,0,0-3.14,2.33-5.62,2.16-5.3-.55-7.49-5.15-7.3-9.49.17-5.22,1.82-9.39,7.44-9.67,5.34.2,7.79,3.12,8.3,8.12Zm-13.17,1.38c0,3.62,1.62,6.34,4.73,6.63s6.25-2.73,6-6.43-1.65-6.82-5.42-6.8C160.67,214.89,159.41,218.9,159.39,221.48Z"/></g></g></g></svg>