<svg xmlns="http://www.w3.org/2000/svg" viewBox="0 0 178.58 249.45"><defs><style>.cls-1{fill:#fff;}</style></defs><g id="Layer_2" data-name="Layer 2"><g id="svg8"><g id="g8497-6-8"><path id="rect7056-4-2" class="cls-1" d="M8.54,0H170a8.53,8.53,0,0,1,8.54,8.53V240.92a8.53,8.53,0,0,1-8.54,8.53H8.54A8.53,8.53,0,0,1,0,240.92V8.53A8.53,8.53,0,0,1,8.54,0Z"/><path id="path7086-8-0" d="M47.88,26.16C40.5,36.68,32.6,42.74,32.47,51c0,2.66,1.39,7.18,5.9,8,2.92.56,6.94-1.8,7-6.61,0-1,1-.93,1,.38A27.31,27.31,0,0,1,43,64.56h9.67a27.44,27.44,0,0,1-3.35-11.8c0-1.31,1-1.33,1-.38.09,4.81,4.11,7.17,7,6.61,4.5-.86,5.94-5.38,5.9-8C63.16,42.74,55.26,36.68,47.88,26.16Z"/><path id="path7088-9-3" d="M13.77,40c-3.44,4.38-7.13,6.91-7.2,10.33a3.33,3.33,0,0,0,2.76,3.35,2.86,2.86,0,0,0,3.28-2.75c0-.4.48-.39.47.16A10.44,10.44,0,0,1,11.52,56H16a10.44,10.44,0,0,1-1.56-4.91c0-.55.47-.56.46-.16a2.86,2.86,0,0,0,3.29,2.75A3.32,3.32,0,0,0,21,50.31c-.06-3.42-3.75-6-7.2-10.33Z"/><path id="path7092-7-0" d="M164.81,209.47c-3.45-4.39-7.14-6.91-7.2-10.33a3.32,3.32,0,0,1,2.76-3.35,2.85,2.85,0,0,1,3.28,2.75c0,.4.47.39.47-.16a10.54,10.54,0,0,0-1.57-4.91h4.52a10.54,10.54,0,0,0-1.57,4.91c0,.55.48.56.47.16a2.85,2.85,0,0,1,3.28-2.75,3.32,3.32,0,0,1,2.76,3.35c-.06,3.42-3.75,5.94-7.2,10.33Z"/><path id="path7094-3-5" d="M130.7,26.16C123.32,36.68,115.43,42.74,115.3,51c0,2.66,1.39,7.18,5.89,8,2.92.56,6.95-1.8,7-6.61,0-1,1-.93,1,.38a27.16,27.16,0,0,1-3.35,11.8h9.67a27.16,27.16,0,0,1-3.35-11.8c0-1.31,1-1.33,1-.38.08,4.81,4.11,7.17,7,6.61,4.5-.86,5.94-5.38,5.89-8C146,42.74,138.09,36.68,130.7,26.16Z"/><path id="path7098-7-3" d="M89.29,65.84C81.91,76.37,74,82.42,73.88,90.63c0,2.66,1.4,7.18,5.9,8.05,2.92.56,6.94-1.81,7-6.61,0-1,1-.93,1,.38a27.35,27.35,0,0,1-3.35,11.79h9.67a27.23,27.23,0,0,1-3.36-11.79c0-1.31,1-1.34,1-.38.08,4.8,4.1,7.17,7,6.61,4.51-.87,5.94-5.39,5.9-8.05C104.57,82.42,96.67,76.37,89.29,65.84Z"/><path id="path7105-0-7" d="M47.88,105.52c-7.38,10.53-15.28,16.59-15.41,24.8,0,2.66,1.39,7.18,5.9,8,2.92.56,6.94-1.8,7-6.61,0-.95,1-.93,1,.38A27.23,27.23,0,0,1,43,143.92h9.67a27.35,27.35,0,0,1-3.35-11.79c0-1.31,1-1.33,1-.38.09,4.81,4.11,7.17,7,6.61,4.5-.86,5.94-5.38,5.9-8C63.16,122.11,55.26,116.05,47.88,105.52Z"/><path id="path7107-6-3" d="M47.88,223.29C40.5,212.77,32.6,206.71,32.47,198.5c0-2.66,1.39-7.18,5.9-8.05,2.92-.55,6.94,1.81,7,6.61,0,1,1,.94,1-.37A27.27,27.27,0,0,0,43,184.89h9.67a27.4,27.4,0,0,0-3.35,11.8c0,1.31,1,1.33,1,.37.09-4.8,4.11-7.16,7-6.61,4.5.87,5.94,5.39,5.9,8.05-.13,8.21-8,14.27-15.41,24.79Z"/><path id="path7109-5-0" d="M130.7,223.29c-7.38-10.52-15.27-16.58-15.4-24.79,0-2.66,1.39-7.18,5.89-8.05,2.92-.55,6.95,1.81,7,6.61,0,1,1,.94,1-.37a27.12,27.12,0,0,0-3.35-11.8h9.67a27.12,27.12,0,0,0-3.35,11.8c0,1.31,1,1.33,1,.37.08-4.8,4.11-7.16,7-6.61,4.5.87,5.94,5.39,5.89,8.05-.13,8.21-8,14.27-15.41,24.79Z"/><path id="path7119-1-9" d="M130.7,105.52c-7.38,10.53-15.27,16.59-15.4,24.8,0,2.66,1.39,7.18,5.89,8,2.92.56,6.95-1.8,7-6.61,0-.95,1-.93,1,.38a27.08,27.08,0,0,1-3.35,11.79h9.67a27.08,27.08,0,0,1-3.35-11.79c0-1.31,1-1.33,1-.38.08,4.81,4.11,7.17,7,6.61,4.5-.86,5.94-5.38,5.89-8C146,122.11,138.09,116.05,130.7,105.52Z"/><path id="path25-4-6-4" d="M9.71,37.47c1.74-9.18,3.59-16.07,8.44-23.55H8.29v3.22H5.67V11.07H20.1l1.78,2.85c-5.16,5.63-9.87,23.81-9,23.55Z"/><path id="path25-4-1-9-1" d="M168.87,212c-1.74,9.18-3.59,16.07-8.44,23.55h9.86v-3.22h2.62v6.07H158.48l-1.78-2.85c5.16-5.63,9.88-23.81,9-23.55Z"/></g></g></g></svg>