<svg xmlns="http://www.w3.org/2000/svg" viewBox="0 0 178.58 249.45"><defs><style>.cls-1{fill:#fff;}</style></defs><g id="Layer_2" data-name="Layer 2"><g id="svg8"><g id="g8511-1-4"><path id="rect7125-2-7" class="cls-1" d="M8.54,0H170a8.53,8.53,0,0,1,8.54,8.53V240.92a8.53,8.53,0,0,1-8.54,8.53H8.54A8.53,8.53,0,0,1,0,240.92V8.53A8.53,8.53,0,0,1,8.54,0Z"/><path id="path7155-4-0" d="M47.88,26.16C40.5,36.68,32.6,42.74,32.47,51c0,2.66,1.39,7.18,5.9,8,2.92.56,6.94-1.8,7-6.61,0-1,1-.93,1,.38A27.31,27.31,0,0,1,43,64.56h9.67a27.44,27.44,0,0,1-3.35-11.8c0-1.31,1-1.33,1-.38.09,4.81,4.11,7.17,7,6.61,4.5-.86,5.94-5.38,5.9-8C63.16,42.74,55.26,36.68,47.88,26.16Z"/><path id="path7157-2-9" d="M13.77,40c-3.44,4.38-7.13,6.91-7.2,10.33a3.33,3.33,0,0,0,2.76,3.35,2.86,2.86,0,0,0,3.28-2.75c0-.4.48-.39.47.16A10.35,10.35,0,0,1,11.51,56H16a10.44,10.44,0,0,1-1.56-4.91c0-.55.47-.56.46-.16a2.86,2.86,0,0,0,3.29,2.75A3.32,3.32,0,0,0,21,50.31c-.06-3.42-3.75-6-7.2-10.33Z"/><path id="path7162-7-0" d="M164.81,209.47c-3.45-4.39-7.14-6.91-7.2-10.33a3.32,3.32,0,0,1,2.75-3.35,2.86,2.86,0,0,1,3.29,2.75c0,.4.47.39.47-.16a10.54,10.54,0,0,0-1.57-4.91h4.52a10.54,10.54,0,0,0-1.57,4.91c0,.55.48.56.47.16a2.85,2.85,0,0,1,3.28-2.75,3.32,3.32,0,0,1,2.76,3.35c-.06,3.42-3.75,5.94-7.2,10.33Z"/><path id="path7164-8-3" d="M130.7,26.16C123.32,36.68,115.43,42.74,115.3,51c0,2.66,1.39,7.18,5.89,8,2.92.56,6.95-1.8,7-6.61,0-1,1-.93,1,.38a27.16,27.16,0,0,1-3.35,11.8h9.67a27.16,27.16,0,0,1-3.35-11.8c0-1.31,1-1.33,1-.38.08,4.81,4.11,7.17,7,6.61,4.5-.86,5.94-5.38,5.89-8C146,42.74,138.09,36.68,130.7,26.16Z"/><path id="path7168-3-2" d="M89.29,65.84C81.91,76.37,74,82.42,73.88,90.63c0,2.66,1.4,7.18,5.9,8.05,2.92.56,6.94-1.81,7-6.61,0-1,1-.93,1,.38a27.35,27.35,0,0,1-3.35,11.79h9.67a27.23,27.23,0,0,1-3.36-11.79c0-1.31,1-1.34,1-.38.08,4.8,4.1,7.17,7,6.61,4.51-.87,5.94-5.39,5.9-8.05C104.57,82.42,96.67,76.37,89.29,65.84Z"/><path id="path7174-5-0" d="M47.88,105.52c-7.38,10.53-15.28,16.59-15.41,24.8,0,2.66,1.39,7.18,5.9,8,2.92.56,6.94-1.8,7-6.61,0-.95,1-.93,1,.38A27.23,27.23,0,0,1,43,143.92h9.67a27.35,27.35,0,0,1-3.35-11.79c0-1.31,1-1.33,1-.38.09,4.81,4.11,7.17,7,6.61,4.5-.86,5.94-5.38,5.9-8C63.16,122.11,55.26,116.05,47.88,105.52Z"/><path id="path7176-7-0" d="M47.88,223.29C40.5,212.77,32.6,206.71,32.47,198.5c0-2.66,1.39-7.18,5.9-8.05,2.92-.55,6.94,1.81,7,6.61,0,1,1,.94,1-.37A27.27,27.27,0,0,0,43,184.89h9.67a27.4,27.4,0,0,0-3.35,11.8c0,1.31,1,1.33,1,.37.09-4.8,4.11-7.16,7-6.61,4.5.87,5.94,5.39,5.9,8.05-.13,8.21-8,14.27-15.41,24.79Z"/><path id="path7178-9-4" d="M130.7,223.29c-7.38-10.52-15.27-16.58-15.4-24.79,0-2.66,1.39-7.18,5.89-8.05,2.92-.55,6.95,1.81,7,6.61,0,1,1,.94,1-.37a27.12,27.12,0,0,0-3.35-11.8h9.67a27.12,27.12,0,0,0-3.35,11.8c0,1.31,1,1.33,1,.37.08-4.8,4.11-7.16,7-6.61,4.5.87,5.94,5.39,5.89,8.05-.13,8.21-8,14.27-15.41,24.79Z"/><path id="path7180-5-1" d="M89.29,183.61C81.91,173.08,74,167,73.88,158.81c0-2.66,1.4-7.17,5.9-8,2.92-.56,6.94,1.81,7,6.61,0,1,1,.93,1-.38a27.35,27.35,0,0,0-3.35-11.79h9.67A27.23,27.23,0,0,0,90.77,157c0,1.31,1,1.34,1,.38.08-4.8,4.1-7.17,7-6.61,4.51.87,5.94,5.38,5.9,8C104.57,167,96.67,173.08,89.29,183.61Z"/><path id="path7189-7-7" d="M130.7,105.52c-7.38,10.53-15.27,16.59-15.4,24.8,0,2.66,1.39,7.18,5.89,8,2.92.56,6.95-1.8,7-6.61,0-.95,1-.93,1,.38a27.08,27.08,0,0,1-3.35,11.79h9.67a27.08,27.08,0,0,1-3.35-11.79c0-1.31,1-1.33,1-.38.08,4.81,4.11,7.17,7,6.61,4.5-.86,5.94-5.38,5.89-8C146,122.11,138.09,116.05,130.7,105.52Z"/><path id="path27-43-30-7" d="M5.2,29.74c.12-3.55,1.4-4.88,3.93-6.73A6.09,6.09,0,0,1,6.44,17.6C6.85,13.18,10.26,11,14,11.07s6.92,3,7.17,6.26a5.43,5.43,0,0,1-2.59,5.59c2.35,2,3.85,3.29,3.79,6.78a8.21,8.21,0,0,1-8.2,7.77C9,37.59,5.07,33.28,5.2,29.74Zm14.44,0c.23-3.21-2.61-5.37-5.81-5.4a5.89,5.89,0,0,0-5.91,5.5c0,3.1,3.63,4.78,6,4.79C16.74,34.65,19.45,32.51,19.64,29.75Zm-1-11.48a4.71,4.71,0,0,0-5-4.56c-2.29.07-4.71,1.82-4.71,4.07,0,2.83,2.75,4.24,5.1,4.3,2.14.05,4.56-1.77,4.61-3.81Z"/><path id="path27-43-3-4-8" d="M156.23,219.71c.13,3.55,1.41,4.88,3.93,6.73a6.11,6.11,0,0,0-2.69,5.41c.42,4.41,3.82,6.62,7.54,6.53s6.92-3,7.17-6.26a5.44,5.44,0,0,0-2.58-5.59c2.34-2,3.84-3.29,3.79-6.78a8.22,8.22,0,0,0-8.21-7.77c-5.17-.13-9.08,4.19-9,7.73Zm14.45,0c.22,3.21-2.62,5.37-5.82,5.4a5.89,5.89,0,0,1-5.9-5.5c0-3.1,3.62-4.78,6-4.79,2.85,0,5.56,2.13,5.75,4.89Zm-1,11.48a4.72,4.72,0,0,1-5,4.56c-2.28-.07-4.7-1.82-4.7-4.08,0-2.82,2.75-4.24,5.1-4.29,2.13-.05,4.56,1.77,4.61,3.81Z"/></g></g></g></svg>