<svg xmlns="http://www.w3.org/2000/svg" viewBox="0 0 178.58 249.45"><defs><style>.cls-1{fill:#fff;}</style></defs><g id="Layer_2" data-name="Layer 2"><g id="svg8"><g id="g8526-6-2"><path id="rect7195-8-7" class="cls-1" d="M8.54,0H170a8.53,8.53,0,0,1,8.54,8.53V240.92a8.53,8.53,0,0,1-8.54,8.53H8.54A8.53,8.53,0,0,1,0,240.92V8.53A8.53,8.53,0,0,1,8.54,0Z"/><path id="path7225-5-2" d="M47.88,26.16C40.5,36.68,32.6,42.74,32.47,51c0,2.66,1.39,7.18,5.9,8,2.92.56,6.94-1.8,7-6.61,0-1,1-.93,1,.38A27.31,27.31,0,0,1,43,64.56h9.67a27.44,27.44,0,0,1-3.35-11.8c0-1.31,1-1.33,1-.38.09,4.81,4.11,7.17,7,6.61,4.5-.86,5.94-5.38,5.9-8C63.16,42.74,55.26,36.68,47.88,26.16Z"/><path id="path7227-2-8" d="M13.77,40c-3.44,4.38-7.13,6.91-7.2,10.33a3.33,3.33,0,0,0,2.76,3.35,2.86,2.86,0,0,0,3.28-2.75c0-.4.48-.39.47.16A10.35,10.35,0,0,1,11.51,56H16a10.44,10.44,0,0,1-1.56-4.91c0-.55.47-.56.46-.16a2.86,2.86,0,0,0,3.29,2.75A3.32,3.32,0,0,0,21,50.31c-.06-3.42-3.75-6-7.2-10.33Z"/><path id="path7229-4-8" d="M47.88,170.38C40.5,159.85,32.6,153.8,32.47,145.59c0-2.66,1.39-7.18,5.9-8.05,2.92-.56,6.94,1.81,7,6.61,0,1,1,.93,1-.38A27.23,27.23,0,0,0,43,132h9.67a27.35,27.35,0,0,0-3.35,11.79c0,1.31,1,1.34,1,.38.09-4.8,4.11-7.17,7-6.61,4.5.87,5.94,5.39,5.9,8.05C63.16,153.8,55.26,159.85,47.88,170.38Z"/><path id="path7231-7-8" d="M164.81,209.47c-3.45-4.39-7.14-6.91-7.2-10.33a3.32,3.32,0,0,1,2.75-3.35,2.86,2.86,0,0,1,3.29,2.75c0,.4.47.39.47-.16a10.54,10.54,0,0,0-1.57-4.91h4.52a10.54,10.54,0,0,0-1.57,4.91c0,.55.48.56.47.16a2.85,2.85,0,0,1,3.28-2.75,3.32,3.32,0,0,1,2.76,3.35c-.06,3.42-3.75,5.94-7.2,10.33Z"/><path id="path7233-8-9" d="M130.7,26.16C123.32,36.68,115.43,42.74,115.3,51c0,2.66,1.39,7.18,5.89,8,2.92.56,6.95-1.8,7-6.61,0-1,1-.93,1,.38a27.16,27.16,0,0,1-3.35,11.8h9.67a27.16,27.16,0,0,1-3.35-11.8c0-1.31,1-1.33,1-.38.08,4.81,4.11,7.17,7,6.61,4.5-.86,5.94-5.38,5.89-8C146,42.74,138.09,36.68,130.7,26.16Z"/><path id="path7235-9-4" d="M47.88,79.07C40.5,89.59,32.6,95.65,32.47,103.86c0,2.66,1.39,7.18,5.9,8,2.92.56,6.94-1.81,7-6.61,0-1,1-.93,1,.38A27.23,27.23,0,0,1,43,117.47h9.67a27.35,27.35,0,0,1-3.35-11.79c0-1.31,1-1.34,1-.38.09,4.8,4.11,7.17,7,6.61,4.5-.87,5.94-5.39,5.9-8C63.16,95.65,55.26,89.59,47.88,79.07Z"/><path id="path7241-7-2" d="M130.7,79.07c-7.38,10.52-15.27,16.58-15.4,24.79,0,2.66,1.39,7.18,5.89,8,2.92.56,6.95-1.81,7-6.61,0-1,1-.93,1,.38a27.08,27.08,0,0,1-3.35,11.79h9.67a27.08,27.08,0,0,1-3.35-11.79c0-1.31,1-1.34,1-.38.08,4.8,4.11,7.17,7,6.61,4.5-.87,5.94-5.39,5.89-8C146,95.65,138.09,89.59,130.7,79.07Z"/><path id="path7245-1-6" d="M47.88,223.29C40.5,212.77,32.6,206.71,32.47,198.5c0-2.66,1.39-7.18,5.9-8.05,2.92-.55,6.94,1.81,7,6.61,0,1,1,.94,1-.37A27.27,27.27,0,0,0,43,184.89h9.67a27.4,27.4,0,0,0-3.35,11.8c0,1.31,1,1.33,1,.37.09-4.8,4.11-7.16,7-6.61,4.5.87,5.94,5.39,5.9,8.05-.13,8.21-8,14.27-15.41,24.79Z"/><path id="path7247-0-6" d="M130.7,223.29c-7.38-10.52-15.27-16.58-15.4-24.79,0-2.66,1.39-7.18,5.89-8.05,2.92-.55,6.95,1.81,7,6.61,0,1,1,.94,1-.37a27.12,27.12,0,0,0-3.35-11.8h9.67a27.12,27.12,0,0,0-3.35,11.8c0,1.31,1,1.33,1,.37.08-4.8,4.11-7.16,7-6.61,4.5.87,5.94,5.39,5.89,8.05-.13,8.21-8,14.27-15.41,24.79Z"/><path id="path7251-3-6" d="M130.7,170.38c-7.38-10.53-15.27-16.58-15.4-24.79,0-2.66,1.39-7.18,5.89-8.05,2.92-.56,6.95,1.81,7,6.61,0,1,1,.93,1-.38A27.08,27.08,0,0,0,125.87,132h9.67a27.08,27.08,0,0,0-3.35,11.79c0,1.31,1,1.34,1,.38.08-4.8,4.11-7.17,7-6.61,4.5.87,5.94,5.39,5.89,8.05C146,153.8,138.09,159.85,130.7,170.38Z"/><path id="path7255-7-8" d="M89.29,105.52c-7.38,10.53-15.28,16.59-15.41,24.8,0,2.66,1.4,7.18,5.9,8,2.92.56,6.94-1.8,7-6.61,0-.95,1-.93,1,.38a27.35,27.35,0,0,1-3.35,11.79h9.67a27.23,27.23,0,0,1-3.36-11.79c0-1.31,1-1.33,1-.38.08,4.81,4.1,7.17,7,6.61,4.51-.86,5.94-5.38,5.9-8C104.57,122.11,96.67,116.05,89.29,105.52Z"/><path id="path29-33-4-4" d="M6.4,32.38l2.41-.76a4.28,4.28,0,0,0,4.7,3c3.5-.27,4.66-4.18,4.92-7.64a6.94,6.94,0,0,1-5.15,2.11c-5.57-.3-7-4.76-7-9.43-.15-3.94,1.47-6.79,4.27-8.1a9.55,9.55,0,0,1,6.35.13c3.41,1.8,4.68,4.91,4.45,12.34,0,6.11-1.3,13.23-7.85,13.39a6.35,6.35,0,0,1-7-5Zm9.48-6.7a5.7,5.7,0,0,0,2.29-2.4,4.54,4.54,0,0,0,.44-3c-.31-4.43-2.63-6.94-6-6.45a4.06,4.06,0,0,0-3.5,3.29C8,20.75,9.4,25,12,26a5,5,0,0,0,3.89-.28Z"/><path id="path29-33-3-8-6" d="M172.18,217.07l-2.41.76a4.29,4.29,0,0,0-4.7-3c-3.5.28-4.66,4.19-4.92,7.64a7,7,0,0,1,5.15-2.1c5.57.3,7,4.76,7,9.43.15,3.94-1.47,6.79-4.26,8.1a9.58,9.58,0,0,1-6.36-.13c-3.41-1.8-4.68-4.91-4.45-12.34,0-6.12,1.3-13.24,7.85-13.39a6.35,6.35,0,0,1,7.05,5Zm-9.48,6.7a5.7,5.7,0,0,0-2.29,2.4,4.54,4.54,0,0,0-.44,3c.31,4.43,2.63,6.94,6,6.44,1.88-.28,2.91-1.33,3.5-3.29,1.09-3.61-.29-7.84-2.88-8.82a5,5,0,0,0-3.89.28Z"/></g></g></g></svg>